<svg xmlns="http://www.w3.org/2000/svg" width="24" height="24" viewBox="0 0 24 24">
  <path fill="currentColor" fill-rule="evenodd" d="M16.4962728,0.876740172 C19.4467354,2.0686466 21.802809,4.38364715 23.0461844,7.31246813 C24.2895598,10.2412891 24.3183861,13.5440168 23.1263218,16.4940887 C20.6439765,22.6372955 13.6509255,25.6052765 7.50690524,23.1232598 C1.36288499,20.6412432 -1.60548904,13.6491181 0.87685627,7.50591131 C3.35920158,1.36270454 10.3522526,-1.60527647 16.4962728,0.876740172 Z M2.7309784,8.25492609 C1.91638538,10.2708476 1.80614808,12.3964685 2.28449722,14.3590896 L2.3749981,14.7036869 C2.40160575,14.7981422 2.41003908,14.8933106 2.48018735,14.9286745 C2.51526149,14.9463564 2.55154408,14.9425541 2.5894571,14.9298134 L3.7428435,14.4320188 L3.7428435,14.4320188 C4.21268557,14.2279025 4.75359215,14.4133026 5.00448887,14.845895 L5.0574578,14.9509278 C5.27709075,15.4576848 5.04459379,16.0465412 4.53798102,16.2666319 L3.54040532,16.6961272 L3.54040532,16.6961272 C3.44162808,16.7390479 3.32762805,16.8123086 3.32762805,16.892213 C3.32762805,16.9721174 3.36845119,17.0459228 3.43379843,17.1546969 C4.51284209,18.9508237 6.16339612,20.4240205 8.25601921,21.2693832 C13.3760361,23.3377304 19.2035786,20.8644129 21.2721997,15.7450739 C22.0657482,13.7812325 22.2100562,11.6298571 21.7078175,9.59959116 L21.6124762,9.24262894 C21.5803223,9.13059514 21.5975915,9.07129851 21.4958559,9.00749818 C21.4144674,8.95645791 21.336133,8.98187679 21.2535617,9.01750808 L19.8159576,9.63601206 L19.8159576,9.63601206 C19.3082279,9.85428939 18.7195843,9.62063925 18.4998298,9.11360186 C18.2965234,8.64451492 18.4821161,8.10488093 18.914188,7.85490695 L19.0208201,7.80139889 L20.5720027,7.13589862 C20.6155559,7.11455515 20.6497799,7.08681131 20.6497799,7.03804606 C20.6497799,6.95677065 20.6119199,6.91686479 20.5640381,6.83746794 C19.4522066,4.99384485 17.7667856,3.54649096 15.7471589,2.73061681 C10.627142,0.662269605 4.79959949,3.13558712 2.7309784,8.25492609 Z M6.27692308,10.4042039 L7.89382212,10.7107923 C8.08797115,11.3400725 8.65499639,11.8002273 9.33100962,11.8002273 C9.75459936,11.8002273 10.1339355,11.6171777 10.4081077,11.3275346 L10.5058738,11.2140712 L19.2,12.8838278 L19.2,13.9309721 C19.1164038,13.9857654 18.4427885,14.0557546 18.4427885,14.7563984 C18.4427885,15.2829434 18.8459746,15.4599216 19.0692713,15.5365089 L19.2,15.5818246 L19.2,17.5384615 L16.6506707,17.1693782 C16.8094579,16.9233399 16.9030998,16.629095 16.9030998,16.3122896 C16.9030998,15.4541897 16.2239063,14.7563984 15.3886767,14.7563984 C14.7764207,14.7563984 14.2280986,15.1313163 13.99147,15.7117415 C13.8718738,16.0049603 13.8518587,16.3154972 13.9132568,16.6218453 L13.9506563,16.7745708 L9.9321851,16.1869366 L10.0500514,15.7807842 C10.0757776,15.6893043 10.0882212,15.6244431 10.0882212,15.534344 C10.0882212,15.1054885 9.7484351,14.7563984 9.33100962,14.7563984 C8.97539554,14.7563984 8.66898979,15.0153921 8.59232463,15.3630031 L8.57639784,15.4697745 L8.54164183,15.899771 L6.27692308,15.4682445 L6.27692308,10.4042039 Z M12.7384615,12.4225615 C12.1121466,12.4225615 11.6026442,12.9460152 11.6026442,13.58948 C11.6026442,14.2329447 12.1121466,14.7563984 12.7384615,14.7563984 C13.3647764,14.7563984 13.8742788,14.2329447 13.8742788,13.58948 C13.8742788,12.9460152 13.3647764,12.4225615 12.7384615,12.4225615 Z M12.1110361,4.61538462 L13.6714976,6.218549 C13.5105649,6.24059079 13.3524591,6.28361119 13.2024808,6.36005731 C12.6826298,6.62481813 12.3598558,7.15926677 12.3598558,7.75488786 C12.3598558,8.6129878 13.0390493,9.31077908 13.8742788,9.31077908 C14.4540252,9.31077908 14.9742296,8.9791668 15.2319339,8.44508121 C15.2814724,8.34234052 15.3165172,8.23580808 15.3407031,8.12717421 L15.3692921,7.96285865 L19.2,11.8725281 L19.2,11.9370197 L10.8218834,10.3281504 C10.8338221,10.2495779 10.8454579,10.1706942 10.8454579,10.0887506 C10.8454579,9.23065069 10.1662644,8.5328594 9.33103486,8.5328594 C8.65535313,8.5328594 8.08327498,8.99015589 7.88900695,9.61896491 L7.85326082,9.75623074 L6.33484976,9.46857239 C6.74455168,7.6413078 7.70073317,6.78593067 7.82842428,6.59253339 C8.0413774,6.73424915 8.20331971,6.97694225 8.57379808,6.97694225 C8.99122356,6.97694225 9.33100962,6.62785212 9.33100962,6.19899664 C9.33100962,5.93955177 9.22457091,5.81837378 9.11361418,5.53919503 L9.48301189,5.3443283 C9.80433544,5.17974094 10.3020166,4.95601415 10.9594488,4.8171214 L11.1844868,4.77416331 L12.1110361,4.61538462 Z"/>
</svg>
