<svg xmlns="http://www.w3.org/2000/svg" width="24" height="24" viewBox="0 0 24 24">
  <path fill="currentColor" fill-rule="evenodd" d="M19.0048604,13 C19.5584949,13 20,13.456493 20,14.0289219 C20,14.5536483 19.6290131,14.9809565 19.1407424,15.0485305 L19.0048604,15.0578437 L15.4329022,15.0578437 L15.4329022,16.5446699 L18.4710437,16.5446699 C18.9324058,16.5446699 19.3159003,16.8616789 19.4309162,17.2986153 L19.457176,17.433097 L19.4661834,17.5735918 C19.4661834,18.0983182 19.0951964,18.5256264 18.6069257,18.5932004 L18.4710437,18.6025136 L15.4329022,18.6025136 L15.4329022,20.8852211 C15.4329022,21.4110973 15.091315,21.8451845 14.6220583,21.966303 L14.4910746,21.9914096 L14.3547244,22 C13.7998768,22 13.3506793,21.5796829 13.2848551,21.0261999 L13.2765467,20.8852211 L13.2765467,14.1147789 C13.2765467,13.5410958 13.6830637,13.0766492 14.2183743,13.0085904 L14.3547244,13 L19.0048604,13 Z M7.40324574,13 C9.97464785,13 11.852225,14.7643007 11.9745397,17.1858674 L11.980888,17.4632041 C11.980888,19.9334528 10.1847263,21.7985037 7.66630453,21.9200957 L7.40324574,21.9264082 L5.07817777,21.9264082 C4.52333018,21.9264082 4.07413259,21.5060911 4.00830838,20.9526082 L4,20.8116293 L4,14.1147789 C4,13.5410958 4.40651701,13.0766492 4.94182764,13.0085904 L5.07817777,13 L7.40324574,13 Z M7.40324574,15.0455784 L6.15635555,15.0455784 L6.15635555,19.8808298 L7.40324574,19.8808298 C8.73373265,19.8808298 9.64656381,19.0117056 9.73452071,17.6986813 L9.74149436,17.4632041 C9.74149436,16.0991818 8.8902526,15.1448947 7.60905218,15.0528761 L7.40324574,15.0455784 Z M8.41042136,2 C9.60852044,2 10.4670726,2.2642818 11.2729758,2.84625988 C11.5323218,3.04289096 11.7092313,3.35270734 11.7092313,3.72258351 C11.7092313,4.31722145 11.2435324,4.79869938 10.6683821,4.79869938 C10.4635762,4.79869938 10.3030245,4.75005314 10.1472402,4.65558295 L9.84134047,4.4457144 C9.39889604,4.16314095 8.94571379,4.03251552 8.35252493,4.03251552 C7.21667728,4.03251552 6.28357188,5.02287251 6.19310096,6.27610023 L6.18591187,6.5 C6.18591187,7.95023597 7.14199058,8.99142773 8.47989707,8.99142773 C9.01442192,8.99142773 9.49026365,8.87281786 9.87844735,8.64360894 L9.99807012,8.56310967 L9.99807012,7.62400236 L8.9546478,7.62400236 C8.5266646,7.62400236 8.16735609,7.33601715 8.0547051,6.93577678 L8.02653438,6.79844678 L8.01801222,6.66760272 C8.01801222,6.17738787 8.37040932,5.77219939 8.82755939,5.70807224 L8.9546478,5.69923145 L10.9926021,5.69923145 C11.5341987,5.69923145 11.9726684,6.10948483 12.0369206,6.64971559 L12.0450306,6.78731895 L12.0450306,8.82249483 C12.0450306,9.41966966 11.8185267,9.84514872 11.3430786,10.1374065 C10.4930952,10.6770102 9.51720244,11 8.42200064,11 C5.92147106,11 4.12318474,9.24407241 4.00607735,6.78120175 L4,6.5 C4,3.98347559 5.90750996,2 8.41042136,2 Z M19.0286266,2.14365947 C19.569039,2.14365947 20,2.58922253 20,3.14794561 C20,3.66010843 19.6378731,4.0771854 19.1612634,4.14314155 L19.0286266,4.15223175 L15.5419749,4.15223175 L15.5419749,5.60345847 L18.5075587,5.60345847 C18.9579024,5.60345847 19.3322382,5.91287726 19.4445072,6.33935197 L19.4701398,6.4706137 L19.4789321,6.60774461 C19.4789321,7.11990743 19.1168052,7.5369844 18.6401955,7.60294054 L18.5075587,7.61203074 L15.5419749,7.61203074 L15.5419749,9.84008277 C15.5419749,10.3533678 15.2085456,10.7770615 14.7504958,10.8952801 L14.6226403,10.9197855 L14.4895465,10.9281703 C13.9479499,10.9281703 13.5094802,10.5179169 13.445228,9.97768612 L13.437118,9.84008277 L13.437118,3.23174697 C13.437118,2.67179968 13.8339265,2.21847343 14.3564527,2.15204422 L14.4895465,2.14365947 L19.0286266,2.14365947 Z"/>
</svg>
