<svg xmlns="http://www.w3.org/2000/svg" width="24" height="24" viewBox="0 0 24 24">
  <path fill="currentColor" fill-rule="evenodd" d="M0.72685534,7.89687495 C2.99325665,1.67083454 9.87842675,-1.5393368 16.1053132,0.726756586 C19.0955695,1.81497301 21.5310017,4.04633223 22.8758424,6.92996068 C24.2206832,9.81358914 24.3647701,13.113275 23.2764058,16.103125 C21.0100045,22.3291655 14.1248344,25.5393368 7.897948,23.2732434 C1.67106157,21.00715 -1.53954597,14.1229154 0.72685534,7.89687495 Z M20.2831023,6.39630499 C17.5304813,2.32622792 12.2279639,0.859356674 7.77448276,2.93596099 C3.3210016,5.0125653 1.03680875,10.0170276 2.38608002,14.7414697 C2.42620595,14.8823589 2.52612275,14.9985579 2.65942029,15.0593528 C2.76605833,15.1079887 2.88547251,15.1172493 2.99692173,15.0872333 L3.07869114,15.0573586 L5.17110098,14.0825644 C5.66936476,13.8607089 6.2535233,14.0790624 6.48403437,14.5733278 C6.69808036,15.0322885 6.53385115,15.5718865 6.11677451,15.8380146 L6.01609473,15.8944131 L3.92300095,16.8710862 C3.790492,16.9329492 3.69171816,17.0497229 3.65270029,17.1906445 C3.61368242,17.3315661 3.63833328,17.4825039 3.72015888,17.603695 C5.82586522,20.7152712 9.49852149,22.3837654 13.2276135,21.9229483 C16.9567054,21.4621311 20.1125832,18.9498108 21.397289,15.4192754 C22.1211395,13.4407745 22.1981391,11.283589 21.6171812,9.25853032 C21.5770552,9.1176411 21.4771384,9.00144212 21.3438409,8.94064724 C21.2372029,8.89201133 21.1177887,8.88275069 21.0063395,8.91276665 L20.92457,8.94264145 L18.8318182,9.91837506 C18.3335545,10.1402306 17.7493959,9.92187705 17.5188848,9.42761163 C17.3048389,8.96865089 17.4690681,8.42905289 17.8861447,8.1629248 L17.9868245,8.10652631 L20.0802602,7.12891382 C20.2127692,7.0670508 20.311543,6.95027711 20.3505609,6.80935548 C20.3895788,6.66843385 20.3649279,6.51749606 20.2831023,6.39630499 Z M8.12145921,3.9495511 C8.24941491,3.88700122 8.397979,3.88199081 8.5298593,3.93577757 C9.43390785,4.32916223 10.1823256,5.01065094 10.6583727,5.87394347 C10.8506721,6.2726013 10.966541,6.7037639 10.9999785,7.14510201 C11.0107866,7.24412013 11.084128,7.32492122 11.1816504,7.34525201 C11.2791727,7.36558279 11.378698,7.32081974 11.4281815,7.23437078 C11.9580089,6.40319379 12.7484051,5.77102537 13.6757556,5.43673379 C13.8114163,5.38900302 13.9610644,5.40199838 14.0864639,5.47239949 C14.2099302,5.54291777 14.2975229,5.66266718 14.3273224,5.80168103 C14.5106255,6.76986086 14.3676344,7.77148714 13.9207388,8.64972493 C13.563056,9.243015 13.0581725,9.73387199 12.4550085,10.0747347 C12.255403,10.1925348 12.1660866,10.4290996 12.2290131,10.6447809 L12.2598289,10.7244098 L12.6153376,11.4515991 C12.6585698,11.5408395 12.7504774,11.5960862 12.8495808,11.5924053 C12.9486842,11.5887244 13.0362391,11.5268122 13.0727304,11.4346107 C13.1289874,11.2903921 13.1955689,11.1504158 13.2719572,11.0157702 C13.8030241,10.1868115 14.5933204,9.55668756 15.5197945,9.22351048 C15.6546111,9.17847641 15.8022264,9.19295171 15.9257238,9.26331632 C16.0492213,9.33368092 16.1369235,9.45328151 16.1668975,9.59220759 C16.3529673,10.5603942 16.2126349,11.562945 15.767877,12.4428553 C15.4100158,13.0360037 14.9051741,13.5268201 14.3021467,13.8678651 C14.1025413,13.9856652 14.0132248,14.22223 14.0761513,14.4379113 L14.1069671,14.5175402 L14.4345818,15.1875461 C14.477814,15.2767865 14.5697216,15.3320332 14.668825,15.3283524 C14.7679284,15.3246715 14.8554834,15.2627593 14.8919747,15.1705578 C14.9481063,15.0262305 15.0150192,14.8863306 15.0921468,14.7520427 C15.6219743,13.9208657 16.4123705,13.2886973 17.3397209,12.9544057 C17.4753817,12.906675 17.6250298,12.9196703 17.7504292,12.9900714 C17.8738955,13.0605897 17.9614883,13.1803391 17.9912877,13.319353 C18.1777406,14.2875299 18.0373908,15.290205 17.5922672,16.1700007 C17.234406,16.7631491 16.7295643,17.2539655 16.1265369,17.5950105 C15.9274982,17.712857 15.8384196,17.9488925 15.9010174,18.1642302 L15.9316829,18.2437403 L16.4061747,19.2180731 C16.4934522,19.3966714 16.5061251,19.602639 16.4414005,19.7905872 C16.3896209,19.9409457 16.2917066,20.0698997 16.1630938,20.1600167 L16.0611194,20.2200501 L16.0497748,20.2161444 C15.8711958,20.3036853 15.6650985,20.3165012 15.4770474,20.2517588 C15.3266066,20.1999649 15.1976285,20.1019466 15.1076034,19.9732079 L15.0476616,19.871136 L14.5728443,18.8977485 C14.4585775,18.6633955 14.1833552,18.5562133 13.9406592,18.6515513 C13.300176,18.9167444 12.6021787,19.0125378 11.913919,18.9297018 C11.7080179,18.898538 11.505401,18.8486004 11.3086026,18.7805136 C10.5845913,18.5117009 9.93815208,18.0683248 9.42666358,17.4897397 C9.33562726,17.3805916 9.29536281,17.2378572 9.31593983,17.0972324 C9.33651684,16.9566075 9.41598966,16.831389 9.53448322,16.7528922 C10.3693064,16.2278999 11.3545234,15.9941442 12.3362487,16.0881363 C12.4890805,16.1108581 12.6401533,16.1441451 12.7883807,16.187758 C12.8833732,16.2162779 12.9862348,16.1857019 13.0502166,16.1099264 C13.1014021,16.0493059 13.1198925,15.9690098 13.1026871,15.8938244 L13.0830432,15.8387809 L12.7566994,15.1681551 C12.6423573,14.9344201 12.3678042,14.82748 12.1254596,14.9222834 C11.4850508,15.1873189 10.7871183,15.2827932 10.099045,15.1994886 C9.89265173,15.1690196 9.68956818,15.1192794 9.49245768,15.0509202 C8.76844641,14.7821076 8.12200717,14.3387314 7.61051867,13.7601463 C7.51948235,13.6509983 7.4792179,13.5082639 7.49979492,13.367639 C7.52037193,13.2270142 7.59984475,13.1017956 7.71833831,13.0232988 C8.55282815,12.4983273 9.53770525,12.2644588 10.5191584,12.3582175 C10.6723043,12.380927 10.8236137,12.4146452 10.9719103,12.45911 C11.066936,12.4865576 11.169223,12.4556378 11.2331241,12.380149 C11.2842451,12.3197579 11.3031704,12.2398548 11.2867938,12.1646538 L11.2678437,12.109513 L10.9126605,11.3813785 C10.7983184,11.1476434 10.5237654,11.0407033 10.2814208,11.1355067 C9.64086662,11.4004376 8.94293803,11.4962216 8.25468057,11.4136572 C8.04846009,11.3823891 7.84552895,11.3323431 7.6484188,11.2641436 C6.92440753,10.9953309 6.27796829,10.5519547 5.76647979,9.97336961 C5.67514499,9.86413622 5.63473207,9.721143 5.65538126,9.58026916 C5.67603046,9.43939531 5.75578198,9.31401093 5.87462495,9.23557688 C6.70979481,8.71175716 7.69461138,8.47840156 8.6760649,8.57176625 C8.77417469,8.58526914 8.86991143,8.53445382 8.91369637,8.44563579 C8.95748131,8.35681775 8.93947937,8.24994752 8.86901315,8.18036948 C8.54086976,7.88278071 8.27199105,7.52581104 8.07655856,7.12828819 C7.6897489,6.22347519 7.61351505,5.21605258 7.85976232,4.26334781 C7.89830577,4.1262511 7.9935035,4.01210097 8.12145921,3.9495511 Z"/>
</svg>
