<svg xmlns="http://www.w3.org/2000/svg" width="24" height="24" viewBox="0 0 24 24">
  <path fill="currentColor" fill-rule="evenodd" d="M12.3688036,10.7524545 C12.4767593,10.7608466 12.5668658,10.8356871 12.592,10.9378366 L12.592,10.9378366 L13.921,16.3272298 C14.0733377,17.0124097 14.6509987,17.5322602 15.367,17.628519 C15.4257932,17.6346489 15.4848689,17.6378852 15.544,17.6382157 C16.2194008,17.6260347 16.8206278,17.2202779 17.067,16.6103717 L17.067,16.6103717 L17.929,14.614803 C18.0067739,14.4345702 18.1885133,14.3172135 18.39,14.3171161 L18.39,14.3171161 L20.027,14.3161464 C20.210002,14.3162136 20.3783458,14.4132184 20.4658891,14.5690477 C20.5534324,14.7248771 20.5461871,14.9146319 20.447,15.0637574 C18.3691457,18.1423498 15.684389,20.7924558 12.547,22.8617963 C12.2074475,23.0460679 11.7935525,23.0460679 11.454,22.8617963 C8.31481384,20.792549 5.62834051,18.1420964 3.549,15.0627878 C3.44981288,14.9136622 3.44256764,14.7239074 3.53011091,14.5680781 C3.61765419,14.4122487 3.78599798,14.3152439 3.969,14.3151767 L3.969,14.3151767 L4.248,14.3151767 C4.81563311,14.3097975 5.33997981,14.0199939 5.634,13.5491421 L5.634,13.5491421 L6.334,12.4708756 C6.38111635,12.3984502 6.4641431,12.3555016 6.55241916,12.3578904 C6.64069523,12.3602791 6.72112255,12.4076509 6.764,12.4825116 L6.764,12.4825116 L7.788,14.2618452 C8.08676455,14.8144003 8.69410848,15.14348 9.336,15.1006047 C9.96779145,15.0466298 10.5137828,14.6508728 10.746,14.0785787 L10.746,14.0785787 L12.118,10.9009894 C12.1595961,10.8040273 12.2608479,10.7440623 12.3688036,10.7524545 Z M17.4294773,1.00049073 L17.672,1.0065367 C20.324,1.20337851 23,3.40451606 23,7.87854632 C22.9710404,9.32331659 22.6531625,10.7489026 22.064,12.0762223 C21.9870574,12.2589564 21.8035527,12.3782208 21.6,12.3777878 L21.6,12.3777878 L17.806,12.3777878 C17.1304598,12.3900734 16.5288517,12.7951724 16.281,13.4046621 L16.281,13.4046621 L15.924,14.2327553 C15.8819945,14.3293375 15.7807297,14.3888009 15.673,14.3801442 C15.5649153,14.3722943 15.4746089,14.297293 15.45,14.1949384 L15.45,14.1949384 L14.121,8.80554521 C13.9679983,8.12036266 13.3901223,7.60067786 12.674,7.50425596 C11.9367932,7.43891283 11.2438019,7.85395238 10.974,8.52240329 L10.974,8.52240329 L9.374,12.2352472 C9.33701305,12.3208382 9.25287948,12.3784429 9.15732272,12.383602 C9.06176596,12.3887611 8.97155743,12.3405693 8.925,12.2594888 L8.925,12.2594888 L8.009,10.66827 C7.73490494,10.1718252 7.21116988,9.85230167 6.631,9.8275712 C6.04131872,9.8029149 5.48624027,10.0976207 5.19,10.5926362 L5.19,10.5926362 L4.181,12.1508864 C4.08957963,12.2919794 3.92984285,12.3776638 3.758,12.3777878 L3.758,12.3777878 L2.399,12.3777878 C2.19581145,12.3778261 2.01280527,12.2586288 1.936,12.0762223 C1.34683746,10.7489026 1.02895955,9.32331659 1,7.87854632 C1,3.40451606 3.676,1.20337851 6.328,1.0065367 C8.68006658,0.895066366 10.8542234,2.21782174 11.774,4.31987899 C11.8158955,4.40395423 11.9037032,4.45737577 12,4.45737577 C12.0962968,4.45737577 12.1841045,4.40395423 12.226,4.31987899 C13.1490304,2.22051332 15.3210172,0.899078181 17.672,1.0065367 Z"/>
</svg>
