<svg xmlns="http://www.w3.org/2000/svg" width="24" height="24" viewBox="0 0 24 24">
  <path fill="currentColor" fill-rule="evenodd" d="M16.7430325,1.00154695 L16.8510305,1.01499613 C17.2845492,1.09698413 17.5650878,1.49321253 17.4777135,1.89995944 L17.4777135,1.89995944 L16.9001222,3.90692813 C18.3650182,4.6761409 19.0892341,6.33585799 18.5380654,7.88494293 C18.1428792,8.99567848 17.4951783,10.5291265 18.1162065,12.7155672 C18.8200052,15.1934269 19.3224325,17.5464733 18.7541491,19.1436898 C17.4300229,22.865269 13.1414253,24.8749613 9.17535196,23.6324157 C5.20927864,22.389917 3.06755701,18.3656959 4.39173328,14.6441167 C4.96482071,13.0333295 6.89726434,11.3991573 9.06620912,9.78588131 C10.9499613,8.38471288 11.4129551,6.77669613 11.7727612,5.76541682 C12.2947551,4.29831989 13.7948811,3.39673358 15.3653668,3.48449737 L15.3653668,3.48449737 L15.9079283,1.6030464 C15.9953527,1.19634646 16.4173116,0.932867248 16.8510305,1.01499613 Z M12.9836411,12.9290835 C10.7668556,12.2346273 8.37432064,13.3560692 7.63434126,15.4358222 C6.7246175,17.9926646 8.7548443,20.6615479 11.6487057,20.6615479 C13.3919884,20.6615479 15.0569045,19.6296072 15.6550632,17.9486184 C16.3950927,15.8685366 15.2000262,13.6234459 12.9836411,12.9290835 Z M9.13054399,15.9024705 C9.59626124,14.5942053 11.104033,13.8879113 12.4982465,14.3249188 C13.8924599,14.7619262 14.6451549,16.1767493 14.1794376,17.4850145 C13.7137204,18.7932798 12.2059486,19.4995738 10.8117351,19.0625663 C9.41752165,18.6255589 8.66482674,17.2107358 9.13054399,15.9024705 Z"/>
</svg>
