<?xml version="1.0" encoding="UTF-8"?>
<svg width="24px" height="24px" viewBox="0 0 24 24" version="1.1" xmlns="http://www.w3.org/2000/svg" xmlns:xlink="http://www.w3.org/1999/xlink">
    <g id="Icons" stroke="none" stroke-width="1" fill="none" fill-rule="evenodd">
        <g id="icon-/-24px-/-meal-/-mediterranean" fill="currentColor">
            <path d="M2.91266441,1.11789238 L2.9495903,1.13849278 L2.99251274,1.16378754 C3.05651878,1.20177637 3.11896079,1.2400863 3.18166478,1.28021488 L3.24427039,1.32083846 L3.34922229,1.39151433 L3.43553102,1.45206723 L3.54787263,1.53402159 L3.66685576,1.62432172 L3.79429193,1.72445333 L3.96092396,1.85968062 L4.11333336,1.98667105 L4.35105213,2.18929434 L4.58080887,2.38881528 L5.12535918,2.87012163 L6.13257117,3.77391395 L6.20587005,3.83903924 C6.49439258,4.08461613 6.76958333,4.33232396 7.03139761,4.58215359 L7.29849988,4.82310004 L7.35488506,4.87330871 C15.6531649,1.06710592 23,4.45268053 23,5.45956024 C23,6.39977863 15.242865,8.6557155 9.45891501,6.72642842 L9.62593013,6.8682885 L9.90208304,7.10451328 L10.1774457,7.33845308 L10.5906443,7.68641155 L10.8673039,7.91730513 L11.1457912,8.14804671 L11.4268543,8.37924572 L11.7112411,8.61151158 L11.9996996,8.84545373 L12.4416581,9.20084308 L12.7435683,9.44164215 L12.7824138,9.4721164 L12.8647519,9.53429311 L12.9532743,9.59809549 L12.9998503,9.63060182 L12.9998503,9.63060182 L13.0976228,9.69681582 L13.2015445,9.76461965 L13.3116013,9.833999 L13.427779,9.90493953 L13.5500635,9.97742691 L13.6784409,10.0514468 L13.7449099,10.089027 L13.7449099,10.089027 L13.8824,10.1653188 C13.9572692,10.1103418 14.0263157,10.0530441 14.0977597,9.99782653 C16.1606344,8.40360931 19.4409164,9.14714536 21.4245081,11.6586036 C23.4080997,14.1700619 23.3438553,17.4984042 21.2810475,19.0927071 C19.2181727,20.6869244 15.9378907,19.9433883 13.9542991,17.4319301 C12.5651758,15.673138 12.1803728,13.5137215 12.7829673,11.8297994 L12.6318433,11.744004 L12.4802895,11.6557575 L12.3348652,11.5686027 C12.2399555,11.5108601 12.1491221,11.453835 12.062345,11.3975073 L11.9352189,11.313536 C11.893856,11.2857182 11.8535046,11.2580721 11.8141622,11.2305953 L11.6991598,11.1486699 L11.6439243,11.1080831 L11.6439243,11.1080831 L11.5379753,11.027652 L11.487258,10.9878039 L11.487258,10.9878039 L11.1799673,10.7427145 L10.878757,10.5009105 L10.5828721,10.2617776 C10.8592895,11.4071506 10.9091723,12.5907937 10.724829,13.8085091 C10.7150002,13.8734357 10.6976499,13.935407 10.6737843,13.9936871 C11.9231634,15.7816944 11.6401591,18.5535186 9.85071628,20.6630588 C7.77972728,23.1045086 4.47521116,23.734348 2.46983694,22.0698875 C0.464534717,20.4053412 0.517755187,17.0768085 2.58874419,14.6353588 C4.40763635,12.4911012 7.17802466,11.7442513 9.18411201,12.7218148 C9.25626619,11.0322202 8.76193372,9.40101427 7.68690536,7.82658934 L7.31875749,7.50497298 L6.8774464,7.11651087 L6.42433445,6.71470172 L5.95687346,6.29747159 L5.47251526,5.86274654 L4.27287357,4.7824192 L3.64061202,4.2178968 L3.21754951,3.84563257 L2.96914002,3.63111811 L2.75429976,3.44975207 L2.64467248,3.35938365 L2.51931802,3.25852709 L2.42723574,3.18657149 L2.34142804,3.12152802 L2.241564,3.04875197 L2.20354332,3.02198103 L2.11319159,2.96064929 C2.07849376,2.93773814 2.0446992,2.91617724 2.01132015,2.89555951 L1.92845596,2.84574452 C1.82632902,2.78597322 1.73884208,2.71107787 1.66718492,2.62564596 L1.4727302,2.50945487 L1.4727302,2.50945487 C1.08320951,2.28053888 0.955039998,1.78260762 1.18645558,1.39729427 C1.38735276,1.0627949 1.79320371,0.923132102 2.15159855,1.04188123 C2.3973418,0.969142096 2.67080821,0.989451449 2.91266441,1.11789238 Z" id="Combined-Shape"></path>
        </g>
    </g>
</svg>