<svg xmlns="http://www.w3.org/2000/svg" width="24" height="24" viewBox="0 0 24 24">
  <path fill="currentColor" fill-rule="evenodd" d="M9.68371571,7.24882891 L16.7511336,14.3141795 L8.61938765,22.4560596 C8.61887719,22.4565707 8.61836643,22.4570815 8.61785538,22.457592 C7.8939621,23.1806938 6.72094082,23.1800522 5.99783903,22.4561589 L5.99783903,22.4561589 L1.54245562,17.9958988 C1.54129988,17.9947418 1.54014568,17.9935833 1.53899301,17.9924232 C0.817810724,17.2666176 0.821558679,16.0936021 1.5473643,15.3724199 L1.5473643,15.3724199 L3.24701507,13.6835958 L4.85857465,15.2946824 C4.9873113,15.4233918 5.1560007,15.4877245 5.32473406,15.4877245 C5.49346741,15.4877245 5.66220077,15.4233478 5.79093742,15.2946384 C6.04841072,15.0372196 6.04836677,14.6198479 5.79089347,14.362473 L5.79089347,14.362473 L4.17942179,12.7514743 L5.39338774,11.5378532 L7.00494732,13.1489398 C7.13368397,13.2776492 7.30237338,13.3419819 7.47110673,13.3419819 C7.63984009,13.3419819 7.80857344,13.2776053 7.93731009,13.1488959 C8.19478339,12.8914771 8.19473944,12.4741053 7.93726614,12.2167305 L7.93726614,12.2167305 L6.32579447,10.6057317 L7.53976042,9.39211065 L9.15131999,11.0031973 C9.28005664,11.1319067 9.44874605,11.1962394 9.6174794,11.1962394 C9.78621276,11.1962394 9.95494611,11.1318627 10.0836828,11.0031533 C10.3411561,10.7457345 10.3411121,10.3283628 10.0836388,10.0709879 L10.0836388,10.0709879 L8.47216714,8.45998918 L9.68371571,7.24882891 Z M12.3343106,3.16853443 C12.5917839,2.91115958 13.009244,2.91115958 13.2666734,3.16853443 L13.2666734,3.16853443 L20.8325118,10.7322 C20.9561939,10.855812 21.0256387,11.023455 21.0256387,11.1983047 C21.0256387,11.3731544 20.9561499,11.5407974 20.8325118,11.6644094 L20.8325118,11.6644094 L18.834039,13.6622833 C18.7053463,13.7909927 18.536569,13.8553255 18.3678796,13.8553255 C18.1991902,13.8553255 18.0304568,13.7909927 17.9017202,13.6622833 L17.9017202,13.6622833 L10.3358378,6.09861774 C10.2121997,5.97500574 10.1427109,5.80731879 10.1427109,5.63251306 C10.1427109,5.45770733 10.2121997,5.29002038 10.3358378,5.16640839 L10.3358378,5.16640839 Z M21.0655475,1.00117186 C21.6265123,1.02046289 22.1393492,1.2650503 22.5095605,1.68989238 C23.1688908,2.44650502 23.1627374,3.58274228 22.4953199,4.33289529 C22.4298747,4.40645607 22.2576252,4.57203374 22.0917927,4.72842731 C21.5484967,5.24076015 21.3623582,6.03951424 21.6575867,6.72533452 L21.6575867,6.72533452 L21.6892324,6.79516014 C22.100715,7.65754387 21.9354539,8.68713117 21.2810023,9.37835645 L21.2810023,9.37835645 L14.6193971,2.71868871 C15.3056263,2.06960488 16.3294101,1.90156639 17.1881965,2.30342622 C17.4394725,2.42101801 17.7039343,2.48434005 17.96655,2.49348022 C18.4085795,2.50886031 18.8350939,2.32842986 19.1484307,2.01630188 C19.2221766,1.94283526 19.3006613,1.86463892 19.37108,1.79445958 L19.5793842,1.58671394 C19.9706487,1.19557622 20.5124502,0.982144489 21.0655475,1.00117186 Z"/>
</svg>
