<svg xmlns="http://www.w3.org/2000/svg" width="24" height="24" viewBox="0 0 24 24">
  <path fill="currentColor" fill-rule="evenodd" d="M9.98696403,6.13893307 C13.8355595,2.2879256 19.7101898,2.76286999 20.4678746,3.51882315 C21.2247677,4.27635946 21.7465172,10.1197587 17.8575436,14.0079701 C15.4799201,16.2702809 12.3961001,17.6457232 9.12397925,17.9033057 C8.84354683,17.925233 8.59580735,18.0942775 8.47317789,18.3473788 L8.47317789,18.3473788 L6.94118197,21.4875528 C6.78071826,21.8093152 6.44836386,22.0090199 6.08887377,21.9996865 C5.72938368,21.9903531 5.40784407,21.7736716 5.26429962,21.4440162 L5.26429962,21.4440162 L4.66179373,19.9891032 C4.58687736,19.8091334 4.44817515,19.66313 4.27226299,19.5790679 L4.27226299,19.5790679 L2.52491675,18.7423742 C2.20665066,18.5893591 2.00309457,18.2687277 2.00003345,17.9156582 C1.99704076,17.5625888 2.19506974,17.2385159 2.51066562,17.0800688 L2.51066562,17.0800688 L5.64749653,15.5119607 C5.89497947,15.3884658 6.06005976,15.144795 6.08294757,14.8692026 C6.35737346,11.6009284 7.73388443,8.52273647 9.98696403,6.13893307 Z M18.905793,14.632522 C18.9704448,14.5640791 19.0743732,14.5506474 19.1543071,14.6004042 C19.234241,14.650161 19.2680504,14.7493308 19.2351523,14.8375397 C18.4589795,16.7428504 17.3165955,18.4774708 15.8726786,19.9431919 C15.6266166,20.207448 15.2836639,20.3603178 14.9226036,20.366684 L14.9226036,20.366684 L14.9004352,20.366684 C14.5476543,20.3663411 14.2095135,20.2256429 13.9606527,19.9756465 L13.9606527,19.9756465 L12.9242792,18.9307688 C12.8285044,18.8332071 12.7898656,18.693138 12.822079,18.5602839 C12.8542924,18.4274298 12.9527969,18.3206011 13.082625,18.2777202 C15.1927716,17.5804595 17.1140365,16.4068541 18.6975682,14.8478301 C18.7672404,14.7781716 18.8361208,14.7077215 18.9034178,14.6364799 L18.9034178,14.6364799 Z M7.96805469,6.07956502 C8.04989409,6.06164905 8.1341511,6.09718791 8.17842556,6.16829759 C8.22270001,6.23940727 8.21740105,6.33068379 8.16519525,6.39619462 C6.90498867,7.99715221 5.97983727,9.83524761 5.44481387,11.8010618 C5.40694137,11.9364857 5.3000443,12.0416502 5.1640002,12.0773243 C5.02795611,12.1129983 4.88319521,12.0738245 4.78372002,11.9744165 L4.78372002,11.9744165 L3.88589916,11.0743969 C3.51032747,10.6982501 3.39677355,10.1337107 3.59770975,9.64164798 C4.36579529,7.79737508 6.00648539,6.4601181 7.96805469,6.07956502 Z M15.8536771,6.11122798 C15.4918826,5.74966626 14.9054426,5.7497537 14.5437561,6.11142331 C14.1820695,6.47309292 14.1820695,7.059418 14.5437561,7.4210876 C14.9054426,7.78275721 15.4918826,7.78284466 15.8536771,7.42128294 C16.0276804,7.24768905 16.1254661,7.01201983 16.1254661,6.76625546 C16.1254661,6.52049109 16.0276804,6.28482186 15.8536771,6.11122798 Z"/>
</svg>
