<svg xmlns="http://www.w3.org/2000/svg" width="24" height="24" viewBox="0 0 24 24">
  <path fill="currentColor" fill-rule="evenodd" d="M21.7816454,3.73753465 C21.7341504,3.44030631 21.5462758,3.18903388 21.2831611,3.07083802 C21.0200464,2.95264216 20.7179243,2.98379921 20.4815458,3.15350645 C18.5643954,4.38593818 16.3398468,4.98232551 14.0968897,4.86519213 C8.94732829,4.86519213 6.79799687,7.07747341 6.7571604,7.12841121 C4.2789436,9.05340486 3.36072571,12.5079578 4.52948964,15.5094356 C4.59175539,15.6694183 4.55912942,15.853015 4.44614992,15.9784146 L2.22264614,18.5156439 C1.92508419,18.8552454 1.92587954,19.3790403 2.22447131,19.7176365 C2.52306307,20.0562327 3.01872286,20.0954066 3.36190014,19.8075319 C4.79200976,18.438359 7.12468858,14.3106408 13.6826913,11.4221163 C14.1092097,11.2387008 14.5962985,11.4518752 14.7740292,11.8997402 C14.9517599,12.3476053 14.7536871,12.8627251 14.3302409,13.0538824 C11.7120576,14.182956 9.3260411,15.8354605 7.30386898,17.9201986 L7.2963684,17.928981 L7.10302025,18.1494187 C7.01684429,18.2453196 6.97620663,18.377002 6.9923686,18.5079747 C7.00853056,18.6389473 7.07977537,18.7552978 7.18635997,18.8247836 C8.2508433,19.5278918 9.4819983,19.9001856 10.7382989,19.8988686 C12.4290448,19.8675345 14.0857374,19.3927435 15.5586684,18.5174004 L15.5586684,18.5174004 C22.8667286,14.2807807 22.1675084,6.13336766 21.7816454,3.73753465 Z"/>
</svg>
