<svg xmlns="http://www.w3.org/2000/svg" width="24" height="24" viewBox="0 0 24 24">
  <path fill="currentColor" d="M13.3564628,17.2916482 C13.1966486,17.2920013 13.0527273,17.3884323 12.9916168,17.5361042 C12.9305064,17.6837761 12.9641987,17.8537109 13.0770281,17.9668951 L13.6675614,18.5574393 C14.5789829,19.4763795 15.8207228,19.9916185 17.1149774,19.9878861 L17.1149774,19.9878861 C19.809698,19.9839686 21.9938365,17.8015595 21.9999693,15.1067931 C22.0046785,13.7832908 21.4674902,12.515526 20.5133142,11.598359 C20.4141567,11.5030339 20.3715971,11.3630641 20.4009071,11.2286752 C20.8733968,9.09491194 20.2239084,6.8675872 18.6785891,5.32223925 C17.1332697,3.77689131 14.9059861,3.12739091 12.7722623,3.59988937 C12.6378759,3.62919991 12.4979087,3.5866395 12.4025853,3.48748016 C11.4863304,2.53379183 10.2198792,1.99636955 8.89738254,2.00001846 L8.89342454,2.00001846 C6.20019826,2.00569935 4.01843867,4.18785319 4.01321335,6.88113015 C4.0085172,8.16884561 4.517338,9.40530869 5.42701013,10.3167357 L6.03337539,10.9231122 C6.14648365,11.0365088 6.31678222,11.0705612 6.46479766,11.0093781 C6.6128131,10.9481949 6.70936738,10.8038371 6.7094014,10.6436723 L6.7094014,8.46277528 C6.70983817,8.13518714 6.97551868,7.86985597 7.30310105,7.86985626 L7.30310105,7.86985626 C7.4604873,7.86985612 7.61141587,7.93243285 7.72263048,8.043798 C7.8338451,8.15516316 7.89621924,8.30617788 7.89600911,8.46356689 L7.89600911,11.0442291 C7.89779185,12.3910935 7.36111608,13.6827873 6.40542717,14.6318246 L3.31818895,17.7191199 C2.89393702,18.1440535 2.89393702,18.8322926 3.31818895,19.2572262 L4.74306813,20.6821318 C5.16817398,21.1059561 5.85604019,21.1059561 6.28114604,20.6821318 L9.36838426,17.5948365 C10.319331,16.6397788 11.6121336,16.1037844 12.9598714,16.1058102 L15.5381111,16.1058102 L15.5381111,16.1058102 C15.8660024,16.1058102 16.1318108,16.3716235 16.1318108,16.6995208 C16.1318108,17.0274182 15.8660024,17.2932315 15.5381111,17.2932315 L13.3564628,17.2916482 Z M13.8361721,13.2362088 L10.8977546,13.7950884 C10.7045996,13.8322446 10.5055915,13.7711887 10.3665063,13.6321009 C10.2274211,13.4930131 10.1663663,13.2940014 10.2035218,13.1008428 L10.7631827,10.1623709 C10.8246076,9.84015715 11.1356034,9.62874697 11.4578113,9.69017307 C11.7800191,9.75159917 11.9914254,10.0626007 11.9300004,10.3848145 L11.6426498,11.8952144 C11.6180213,12.0240315 11.6587995,12.1566839 11.7515352,12.2494212 C11.8442708,12.3421586 11.9769208,12.3829375 12.1057355,12.3583087 L13.6137326,12.0701611 C13.9316985,12.01742 14.2336664,12.2280087 14.2940634,12.5446152 C14.3544604,12.8612218 14.1512233,13.1681888 13.8361721,13.2362088 L13.8361721,13.2362088 Z"/>
</svg>
