<svg xmlns="http://www.w3.org/2000/svg" width="56" height="56" viewBox="0 0 56 56">
  <g fill="none" fill-rule="evenodd">
    <circle cx="28" cy="28" r="28" fill="currentColor"/>
    <path fill="currentColor" d="M16,0 C24.836556,0 32,7.163444 32,16 C32,24.836556 24.836556,32 16,32 C7.163444,32 0,24.836556 0,16 C0,7.163444 7.163444,0 16,0 Z M24.9326449,9.71380186 C24.4063922,9.19871633 23.5622207,9.2077691 23.0471352,9.7340218 L23.0471352,9.7340218 L13.408,19.5813333 L8.77869803,16.2509709 L8.63686749,16.1617255 C8.05515179,15.8445535 7.31466563,16.0028226 6.91768435,16.5545886 C6.48762131,17.152335 6.62355555,17.9855392 7.22130197,18.4156022 L7.22130197,18.4156022 L12.7809837,22.415649 L12.918613,22.5025381 C13.4365813,22.787051 14.0900454,22.6976392 14.5125465,22.2659782 L14.5125465,22.2659782 L24.9528648,11.5993115 L25.0624296,11.4725196 C25.4634973,10.9451336 25.4184166,10.1892654 24.9326449,9.71380186 Z" transform="translate(12 12)"/>
  </g>
</svg>
