<svg xmlns="http://www.w3.org/2000/svg" width="56" height="56" viewBox="0 0 56 56">
    <g fill="none" fill-rule="evenodd">
        <g>
            <circle cx="28" cy="28" r="28" fill="#FA8DD5"/>
            <g fill="#FFF">
                <path d="M15.37 27.233l-.025-.023-2.563-2.564-.023-.024-3.9-3.9c-.356-.356-.934-.356-1.29 0-.173.173-.27.406-.27.649 0 .242.097.475.27.648l2.465 2.464.1.095 5.292 5.293.065.07 2.484 2.483c.356.357.935.358 1.293.001.357-.357.357-.936.001-1.293l-3.9-3.899zm-1.951-4.496l9.318-9.318-3.286-3.286c-.51-.509-.796-1.199-.796-1.919s.286-1.409.795-1.918c.509-.51 1.2-.797 1.92-.797.722 0 1.413.287 1.92.797l.755.754c.13-.272.307-.528.532-.753 1.06-1.059 2.777-1.059 3.836 0l5.283 5.282c1.059 1.06 1.059 2.777-.001 3.836-.226.226-.481.403-.754.533l.754.753c1.061 1.06 1.063 2.778.004 3.839-1.06 1.06-2.777 1.062-3.839.003l-3.287-3.288-9.318 9.318 3.287 3.287c1.06 1.06 1.058 2.78-.002 3.839-1.061 1.059-2.78 1.058-3.839-.003l-.776-.776c-.13.273-.307.528-.532.753-1.046 1.046-2.738 1.061-3.814.022l-5.283-5.281c-1.059-1.06-1.059-2.777 0-3.836.222-.221.477-.4.755-.532l-.753-.753c-.511-.51-.799-1.2-.799-1.922s.287-1.413.798-1.922c1.06-1.058 2.776-1.058 3.835 0l3.287 3.288zm1.273 1.273l1.29 1.29 9.318-9.317-1.29-1.29-9.318 9.317zm-5.89 1.787c-.164-.138-.372-.214-.587-.214-.242 0-.474.096-.646.268-.356.356-.356.934 0 1.29l5.272 5.27c.358.346.927.341 1.279-.01.336-.337.356-.872.064-1.222l-5.382-5.382zM29.949 15.5l-.09-.086-5.282-5.281c-.031-.032-.062-.064-.091-.097l-2.47-2.468c-.17-.172-.403-.269-.645-.269-.243 0-.476.097-.648.27-.171.171-.268.403-.268.645s.097.475.268.646l10.41 10.41c.357.356.935.355 1.292-.002.356-.357.356-.936-.002-1.293L29.949 15.5zm1.236-1.31c.358.307.898.291 1.238-.048.356-.356.356-.934 0-1.29L27.14 7.57c-.356-.356-.934-.356-1.29 0-.338.338-.355.875-.052 1.233l5.387 5.388z" transform="translate(8 8)"/>
            </g>
        </g>
    </g>
</svg>
