<svg xmlns="http://www.w3.org/2000/svg" width="56" height="56" viewBox="0 0 56 56">
    <g fill="none" fill-rule="evenodd">
        <g>
            <circle cx="28" cy="28" r="28" fill="#FFC34C"/>
            <g fill="#FFF">
                <path d="M20.906 27.23v5.457h5.88c.5 0 .906.406.906.907 0 .5-.405.906-.906.906H13.214c-.5 0-.906-.406-.906-.906s.406-.907.906-.907h5.88v-5.456c-5.125-.36-9.063-3.803-9.063-9.044v-6.365c-.66-.022-1.376-.054-1.506-.048-.241.01-.198-.015-.239.084-.185.442-.78 6.657-.98 8.254-.062.497-.515.85-1.012.787-.497-.062-.849-.515-.787-1.011.138-1.102.799-7.992 1.107-8.73.335-.802.935-1.154 1.828-1.195.195-.009.935.022 1.59.045v-1.79c0-1.5 1.217-2.718 2.718-2.718h14.5c1.502 0 2.719 1.217 2.719 2.719v1.815c2.412.022 2.696.194 3.261 1.463.27.605.43 1.408.62 2.92.053.418.462 4.022.643 5.47.062.497-.29.95-.787 1.012-.496.062-.95-.29-1.011-.787-.183-1.462-.593-5.065-.643-5.469-.168-1.333-.305-2.022-.477-2.409-.15-.336-.154-.383-1.606-.39v6.344c0 5.234-3.938 8.678-9.063 9.043zm-.76-1.78c4.563-.061 8.01-2.87 8.01-7.262v-9.97c0-.5-.405-.905-.906-.905h-14.5c-.5 0-.906.405-.906.906v9.969c0 4.398 3.446 7.204 8.01 7.261.047-.007.096-.012.146-.012.05 0 .099.004.146.012zm2.56-12.69h1.992c.662-.016 1.267.376 1.523.987.257.611.112 1.317-.36 1.774l-1.915 1.88 1.064 2.442c.268.641.097 1.382-.425 1.841-.522.459-1.279.533-1.87.19l-2.714-1.528-2.706 1.525c-.6.35-1.358.275-1.88-.183-.522-.46-.693-1.2-.42-1.852l1.06-2.436-1.911-1.88c-.477-.462-.621-1.168-.365-1.78.256-.61.86-1.002 1.501-.986h2.015l1.256-2.467c.277-.547.837-.891 1.45-.891.611 0 1.171.344 1.448.89l1.257 2.474zm-4.048 1.311c-.155.304-.467.495-.808.495H15.76l2.01 1.979c.268.263.346.663.196 1.007l-1.072 2.466 2.662-1.501c.276-.156.613-.156.89 0l2.662 1.498-1.072-2.463c-.15-.344-.072-.745.196-1.008l2.01-1.972H22.15c-.341 0-.654-.191-.808-.496L20 11.436l-1.342 2.635z" transform="translate(8 8)"/>
            </g>
        </g>
    </g>
</svg>
