<svg xmlns="http://www.w3.org/2000/svg" width="56" height="56" viewBox="0 0 56 56">
    <g fill="none" fill-rule="evenodd">
        <g>
            <circle cx="28" cy="28" r="28" fill="#0FB7BA"/>
            <g fill="#FFF">
                <path d="M15.333 33c-.518 0-.94-.422-.94-.943 0-.521.422-.944.94-.944h4.227v-2.359H7.48c-1.37 0-2.48-1.114-2.48-2.49V10.491C5 9.115 6.11 8 7.48 8h26.04C34.89 8 36 9.115 36 10.49v15.774c0 1.376-1.11 2.49-2.48 2.49H21.439v2.359h4.228c.481 0 .878.364.933.834l.006.11c0 .52-.42.943-.94.943zM32.937 9.887H8.063c-.654 0-1.184.518-1.184 1.158V25.71c0 .64.53 1.158 1.184 1.158h24.874c.654 0 1.184-.518 1.184-1.158V11.045c0-.64-.53-1.158-1.184-1.158zm-14.795 4.42c.157 0 .312.04.45.115l6.54 3.613c.45.248.613.814.365 1.264-.085.153-.211.28-.365.364l-6.54 3.613c-.45.248-1.016.085-1.264-.365-.076-.137-.116-.292-.116-.45v-7.225c0-.513.416-.93.93-.93z" transform="translate(8 8)"/>
            </g>
        </g>
    </g>
</svg>
