<svg xmlns="http://www.w3.org/2000/svg" width="56" height="56" viewBox="0 0 56 56">
    <g fill="none" fill-rule="evenodd">
        <g>
            <circle cx="28" cy="27.5" r="28" fill="#7BC1FF"/>
            <g fill="#FFF">
                <path d="M13.775 14.548v1.757c.168 1.162.692 2.235 1.495 3.06.34.349.34.906 0 1.255-.803.824-1.327 1.898-1.495 3.06v6.28c0 1.513 1.171 2.726 2.6 2.726h7c1.429 0 2.6-1.213 2.6-2.725v-6.282c-.168-1.161-.692-2.235-1.495-3.059-.34-.35-.34-.906 0-1.256.803-.824 1.327-1.897 1.495-3.059v-1.757h-12.2zm.145-1.8h11.91c-.356-1.065-1.325-1.825-2.455-1.825h-7c-1.13 0-2.1.76-2.455 1.825zm6.855-3.625h2.6c2.437 0 4.4 2.033 4.4 4.525v2.72l-.008.119c-.172 1.286-.676 2.495-1.453 3.505.777 1.01 1.281 2.22 1.453 3.506l.008.12v6.343c0 2.492-1.963 4.525-4.4 4.525h-7c-2.437 0-4.4-2.033-4.4-4.525v-6.344l.008-.12c.172-1.285.676-2.495 1.453-3.505-.777-1.01-1.281-2.22-1.453-3.505l-.008-.12v-2.719c0-2.492 1.963-4.525 4.4-4.525h2.6V6.398c0-.497.403-.9.9-.9s.9.403.9.9v2.725zM17.478 28.43l2.902-3.007h-3.13c-.794 0-1.2-.953-.647-1.525l4.375-4.53c.345-.359.915-.369 1.272-.023.358.345.368.915.022 1.272l-2.902 3.006h3.13c.794 0 1.2.954.647 1.526l-4.375 4.53c-.345.358-.915.368-1.272.023-.358-.345-.368-.915-.022-1.272z" transform="translate(8 7.5)"/>
            </g>
        </g>
    </g>
</svg>
