<svg xmlns="http://www.w3.org/2000/svg" width="56" height="56" viewBox="0 0 56 56">
    <g fill="none" fill-rule="evenodd">
        <g>
            <circle cx="28" cy="27.5" r="28" fill="#C76DD4"/>
            <g fill="#FFF">
                <path d="M34.95 15.482v9.44c0 3.898-3.174 7.065-7.074 7.065-.556 0-1.003-.446-1.003-1.002s.447-1.001 1.003-1.001c2.795 0 5.069-2.272 5.069-5.061v-8.807c-1.766-.787-4.14-1.546-7-2.04-.396-.067-.714-.366-.803-.757l-.297-1.277c-.276-1.173-1.306-1.989-2.51-1.989h-4.17c-1.205 0-2.233.817-2.51 1.989l-.297 1.276c-.09.389-.41.691-.803.758-2.87.494-5.25 1.256-7 2.04v8.807c0 2.79 2.275 5.06 5.069 5.06.556 0 1.003.446 1.003 1.002s-.447 1.002-1.003 1.002c-3.902 0-7.074-3.17-7.074-7.064v-9.44c0-.372.207-.714.532-.883.328-.18 1.108-.533 2.102-.902 1.574-.584 3.373-1.096 5.369-1.476l.149-.633c.49-2.085 2.325-3.539 4.464-3.539h4.168c2.142 0 3.979 1.457 4.464 3.539l.149.633c1.996.383 3.795.895 5.37 1.478.991.368 1.775.722 2.098.899.331.17.535.51.535.883zm-26.572-2.67c-.424 0-.81-.274-.957-.69-.172-.523.114-1.093.64-1.263.89-.29 1.828-.553 2.787-.782.538-.127 1.078.204 1.203.742.128.538-.204 1.078-.743 1.203-.9.213-1.78.46-2.613.736-.102.036-.207.053-.317.053zm11.875.778c5.205 0 9.44 4.233 9.44 9.433 0 5.199-4.234 9.427-9.44 9.427-5.205 0-9.44-4.233-9.44-9.433s4.234-9.427 9.44-9.427zm0 17.057c4.21 0 7.635-3.426 7.635-7.63s-3.425-7.624-7.635-7.624-7.635 3.426-7.635 7.63 3.425 7.624 7.635 7.624z" transform="translate(8 8.5)"/>
            </g>
        </g>
    </g>
</svg>
