<svg xmlns="http://www.w3.org/2000/svg" width="56" height="56" viewBox="0 0 56 56">
    <g fill="none" fill-rule="evenodd">
        <g>
            <circle cx="28" cy="27.5" r="28" fill="#FF6C8F"/>
            <g fill="#FFF">
                <path d="M18.11 32.532l.09.256c.263.671.912 1.12 1.643 1.12s1.38-.449 1.643-1.12l.09-.256c.193-.456.702-.705 1.19-.562.524.154.824.704.67 1.229-.468 1.594-1.93 2.69-3.593 2.69-1.662 0-3.125-1.096-3.593-2.69-.154-.525.146-1.075.671-1.23.487-.142.996.107 1.19.563zM19.84 4.21c.508 0 .926.382.983.874l.007.116v2.024c5.55.5 9.9 5.165 9.9 10.846 0 3.974.359 6.79.943 8.633.192.605.39 1.042.575 1.335l.097.15.08.076c.608.605.19 1.686-.705 1.686H7.96c-.788 0-1.246-.866-.843-1.51l.078-.112c.02-.028.051-.08.093-.155l.097-.185c.205-.406.415-.94.615-1.618.561-1.901.913-4.462.947-7.771l.007-.82c.145-5.548 4.44-10.063 9.895-10.555V5.2c0-.547.444-.99.99-.99zm0 4.95c-4.833 0-8.767 3.848-8.906 8.647l-.007.819c-.036 3.483-.413 6.222-1.028 8.304-.114.388-.23.734-.345 1.04H30.02l-.079-.21c-.052-.145-.104-.297-.155-.458-.652-2.056-1.036-5.069-1.036-9.232 0-4.921-3.99-8.91-8.91-8.91z" transform="translate(8 8)"/>
            </g>
        </g>
    </g>
</svg>
