<svg xmlns="http://www.w3.org/2000/svg" width="56" height="56" viewBox="0 0 56 56">
  <path fill="currentColor" fill-rule="evenodd" d="M28,0 C43.463973,0 56,12.536027 56,28 C56,43.463973 43.463973,56 28,56 C12.536027,56 0,43.463973 0,28 C0,12.536027 12.536027,0 28,0 Z M28,2 C13.6405965,2 2,13.6405965 2,28 C2,42.3594035 13.6405965,54 28,54 C42.3594035,54 54,42.3594035 54,28 C54,13.6405965 42.3594035,2 28,2 Z M23,17.4761905 C23.5128358,17.4761905 23.9355072,17.8622307 23.9932723,18.3595694 L24,18.4761905 L24,37.5238095 C24,38.0760943 23.5522847,38.5238095 23,38.5238095 C22.4871642,38.5238095 22.0644928,38.1377693 22.0067277,37.6404306 L22,37.5238095 L22,18.4761905 C22,17.9239057 22.4477153,17.4761905 23,17.4761905 Z M33,17.4761905 C33.5128358,17.4761905 33.9355072,17.8622307 33.9932723,18.3595694 L34,18.4761905 L34,37.5238095 C34,38.0760943 33.5522847,38.5238095 33,38.5238095 C32.4871642,38.5238095 32.0644928,38.1377693 32.0067277,37.6404306 L32,37.5238095 L32,18.4761905 C32,17.9239057 32.4477153,17.4761905 33,17.4761905 Z"/>
</svg>
