<svg xmlns="http://www.w3.org/2000/svg" width="56" height="56" viewBox="0 0 56 56">
  <path fill="currentColor" fill-rule="evenodd" d="M28,0 C43.463973,0 56,12.536027 56,28 C56,43.463973 43.463973,56 28,56 C12.536027,56 0,43.463973 0,28 C0,12.536027 12.536027,0 28,0 Z M23,17.4761905 C22.4477153,17.4761905 22,17.9239057 22,18.4761905 L22,18.4761905 L22,37.5238095 L22.0067277,37.6404306 C22.0644928,38.1377693 22.4871642,38.5238095 23,38.5238095 C23.5522847,38.5238095 24,38.0760943 24,37.5238095 L24,37.5238095 L24,18.4761905 L23.9932723,18.3595694 C23.9355072,17.8622307 23.5128358,17.4761905 23,17.4761905 Z M33,17.4761905 C32.4477153,17.4761905 32,17.9239057 32,18.4761905 L32,18.4761905 L32,37.5238095 L32.0067277,37.6404306 C32.0644928,38.1377693 32.4871642,38.5238095 33,38.5238095 C33.5522847,38.5238095 34,38.0760943 34,37.5238095 L34,37.5238095 L34,18.4761905 L33.9932723,18.3595694 C33.9355072,17.8622307 33.5128358,17.4761905 33,17.4761905 Z"/>
</svg>
