<svg xmlns="http://www.w3.org/2000/svg" width="56" height="56" viewBox="0 0 56 56">
    <g fill="none" fill-rule="evenodd">
        <g>
            <path fill="#333333aa" d="M28 0c15.464 0 28 12.536 28 28S43.464 56 28 56 0 43.464 0 28 12.536 0 28 0z"/>
            <path fill="currentColor" d="M39.493 26.864L22.437 16.63c-.292-.175-.625-.267-.965-.267-1.036 0-1.875.84-1.875 1.875v20.467c0 .34.092.674.267.965.533.888 1.685 1.176 2.573.643L39.493 30.08c.264-.158.485-.379.643-.643.533-.888.245-2.04-.643-2.572z"/>
        </g>
    </g>
</svg>
