<svg xmlns="http://www.w3.org/2000/svg" width="32" height="32" viewBox="0 0 32 32">
  <path fill="currentColor" fill-rule="evenodd" d="M16,0 C24.836556,0 32,7.163444 32,16 C32,24.836556 24.836556,32 16,32 C7.163444,32 0,24.836556 0,16 C0,7.163444 7.163444,0 16,0 Z M16,2 C8.2680135,2 2,8.2680135 2,16 C2,23.7319865 8.2680135,30 16,30 C23.7319865,30 30,23.7319865 30,16 C30,8.2680135 23.7319865,2 16,2 Z M16.5217028,8.75002317 L16.7565517,8.75406299 C20.3673578,8.88102829 23.25,11.9675957 23.25,15.75 C23.25,19.612881 20.2433872,22.75 16.5251066,22.75 C16.0197483,22.75 15.6091503,22.3439994 15.6091503,21.8419953 C15.6091503,21.3399912 16.0197483,20.9339905 16.5251066,20.9339905 C19.2224074,20.9339905 21.4180876,18.6167645 21.4180876,15.75 C21.4180876,12.8832355 19.2224074,10.5660095 16.5251066,10.5660095 C14.1416248,10.5660095 12.1275073,12.3835123 11.711219,14.8142092 L11.711219,14.8142092 L11.707,14.837 L12.1189791,14.4307754 C12.3866237,14.1656828 12.7849196,14.0952074 13.1324997,14.2427113 L13.1324997,14.2427113 L13.2462326,14.2999846 L13.3451307,14.3696487 L13.4137858,14.4307754 C13.7391389,14.7530263 13.7719724,15.2631703 13.4847272,15.6359129 L13.4847272,15.6359129 L13.4137858,15.7154479 L11.3635727,17.746113 C11.0386148,18.0679725 10.5249409,18.1003423 10.1493395,17.8165904 L10.1493395,17.8165904 L10.068766,17.746113 L8.01855288,15.7154479 C7.66048237,15.3607914 7.66048237,14.7854318 8.01855288,14.4307754 C8.34351081,14.1089158 8.85718467,14.076546 9.23278608,14.360298 L9.23278608,14.360298 L9.31338823,14.4308038 L9.843,14.956 L9.88289125,14.6494139 C10.3587252,11.5136928 12.8348604,9.06666222 15.9181951,8.77825552 L15.9181951,8.77825552 L16.1508616,8.76067812 L16.3489916,8.75237489 L16.5217028,8.75002317 Z"/>
</svg>
