<svg xmlns="http://www.w3.org/2000/svg" width="32" height="32" viewBox="0 0 32 32">
  <path fill="currentColor" fill-rule="evenodd" d="M16,0 C24.836556,0 32,7.163444 32,16 C32,24.836556 24.836556,32 16,32 C7.163444,32 0,24.836556 0,16 C0,7.163444 7.163444,0 16,0 Z M16,2 C8.2680135,2 2,8.2680135 2,16 C2,23.7319865 8.2680135,30 16,30 C23.7319865,30 30,23.7319865 30,16 C30,8.2680135 23.7319865,2 16,2 Z M14.5218371,11.1468303 L14.6246583,11.2191018 L19.6246583,15.2187155 C20.091722,15.5923304 20.1228908,16.2802295 19.7181371,16.6957873 L19.6247318,16.7804531 L14.6247318,20.7808394 C14.1934861,21.1258692 13.5641905,21.0559775 13.2191606,20.6247318 C12.9006715,20.2266589 12.9357251,19.6598333 13.2821889,19.3036095 L13.3752682,19.2191606 L17.399,15.999 L13.3753417,12.7808982 C12.9772388,12.4624466 12.8870123,11.9017514 13.1468303,11.4781629 L13.2191018,11.3753417 C13.5375534,10.9772388 14.0982486,10.8870123 14.5218371,11.1468303 Z"/>
</svg>
