<svg xmlns="http://www.w3.org/2000/svg" width="32" height="32" viewBox="0 0 32 32">
  <path fill="currentColor" fill-rule="evenodd" d="M16,0 C24.836556,0 32,7.163444 32,16 C32,24.836556 24.836556,32 16,32 C7.163444,32 0,24.836556 0,16 C0,7.163444 7.163444,0 16,0 Z M16,2 C8.2680135,2 2,8.2680135 2,16 C2,23.7319865 8.2680135,30 16,30 C23.7319865,30 30,23.7319865 30,16 C30,8.2680135 23.7319865,2 16,2 Z M16.7654026,12.2818445 L16.8585349,12.3752497 L21.258957,17.3752497 C21.6384896,17.8064954 21.5616088,18.4357911 21.0872388,18.7808209 C20.6493588,19.09931 20.0258511,19.0642565 19.6340052,18.7177927 L19.5411115,18.6247134 L15.998937,14.6009815 L12.4590273,18.6246398 C12.1087308,19.0227427 11.4919664,19.1129693 11.0260194,18.8531513 L10.9129162,18.7808798 C10.4750032,18.4624282 10.3757541,17.9017329 10.6615537,17.4781445 L10.7410523,17.3753233 L15.1406246,12.3753233 C15.5516008,11.9082595 16.3082893,11.8770907 16.7654026,12.2818445 Z"/>
</svg>
