<svg xmlns="http://www.w3.org/2000/svg" width="32" height="32" viewBox="0 0 32 32">
  <path fill="currentColor" fill-rule="evenodd" d="M16,0 C24.836556,0 32,7.163444 32,16 C32,24.836556 24.836556,32 16,32 C7.163444,32 0,24.836556 0,16 C0,7.163444 7.163444,0 16,0 Z M16,2 C8.2680135,2 2,8.2680135 2,16 C2,23.7319865 8.2680135,30 16,30 C23.7319865,30 30,23.7319865 30,16 C30,8.2680135 23.7319865,2 16,2 Z M20.9740546,13.1468486 L21.0871578,13.2191201 C21.5250708,13.5375717 21.6243199,14.098267 21.3385203,14.5218554 L21.2590217,14.6246766 L16.8594494,19.6246767 C16.4484732,20.0917405 15.6917847,20.1229093 15.2346714,19.7181555 L15.1415391,19.6247503 L10.741117,14.6247502 C10.3615844,14.1935045 10.4384652,13.5642088 10.9128352,13.2191789 C11.3507152,12.9006898 11.9742229,12.9357434 12.3660688,13.2822072 L12.4589625,13.3752865 L16.001137,17.3990184 L19.5410467,13.3753601 C19.8913432,12.9772571 20.5081076,12.8870306 20.9740546,13.1468486 Z"/>
</svg>
