<svg xmlns="http://www.w3.org/2000/svg" width="32" height="32" viewBox="0 0 32 32">
  <path fill="currentColor" fill-rule="evenodd" d="M16,0 C24.836556,0 32,7.163444 32,16 C32,24.836556 24.836556,32 16,32 C7.163444,32 0,24.836556 0,16 C0,7.163444 7.163444,0 16,0 Z M16,2 C8.2680135,2 2,8.2680135 2,16 C2,23.7319865 8.2680135,30 16,30 C23.7319865,30 30,23.7319865 30,16 C30,8.2680135 23.7319865,2 16,2 Z M18.7808025,11.3752681 C19.0992916,11.7733411 19.0642381,12.3401666 18.7177743,12.6963904 L18.624695,12.7808393 L14.6009631,16.0009999 L18.6246214,19.2191017 C19.0227244,19.5375533 19.1129509,20.0982486 18.8531329,20.521837 L18.7808614,20.6246582 C18.4624098,21.0227611 17.9017145,21.1129877 17.4781261,20.8531697 L17.3753049,20.7808982 L12.3753049,16.7812844 C11.9082411,16.4076695 11.8770723,15.7197704 12.2818261,15.3042126 L12.3752313,15.2195468 L17.3752313,11.2191606 C17.806477,10.8741307 18.4357727,10.9440224 18.7808025,11.3752681 Z"/>
</svg>
