<svg xmlns="http://www.w3.org/2000/svg" width="32" height="32" viewBox="0 0 32 32">
  <g fill="none" fill-rule="evenodd">
    <path fill="#fff" d="M21.6347823,25.6584145 C21.8456726,26.099197 21.6581297,26.6269202 21.2158936,26.8371173 C19.6126714,27.599137 17.8537627,28 16.0395118,28 C15.6510611,28 15.2647217,27.9816352 14.8813851,27.9451356 C14.3936591,27.8986965 14.0360494,27.4669697 14.0826417,26.9808469 C14.1292339,26.494724 14.5623844,26.1382898 15.0501105,26.1847289 C15.377386,26.2158906 15.7074199,26.2315789 16.0395118,26.2315789 C17.5880949,26.2315789 19.0862465,25.8901436 20.4521922,25.2409027 C20.8944284,25.0307055 21.423892,25.2176319 21.6347823,25.6584145 Z M7.41221845,21.5471421 C8.4439453,23.1376588 9.90223199,24.4187867 11.6162971,25.2358883 C12.058292,25.446589 12.2452296,25.9745255 12.0338341,26.4150675 C11.8224385,26.8556095 11.2927609,27.0419327 10.850766,26.831232 C8.84045621,25.8729094 7.13163597,24.3716838 5.92225722,22.5072978 C5.65624314,22.0972088 5.7741353,21.5498278 6.18557674,21.2846882 C6.59701817,21.0195485 7.14620437,21.1370531 7.41221845,21.5471421 Z M27.1162566,17.5775943 C27.5943543,17.684341 27.8951084,18.157177 27.7880097,18.6337032 C27.2986827,20.8109198 26.2077631,22.7980348 24.6519041,24.3853225 C24.3095173,24.7346257 23.7478579,24.7411448 23.3974028,24.3998834 C23.0469477,24.058622 23.040407,23.4988088 23.3827939,23.1495056 C24.7100063,21.7954832 25.6398312,20.1018029 26.0566648,18.2471393 C26.1637635,17.7706131 26.6381589,17.4708476 27.1162566,17.5775943 Z M5.72317218,11.677445 C6.18848818,11.830331 6.44135395,12.3302429 6.2879637,12.7940293 C5.9476386,13.8230268 5.77419609,14.9016768 5.77424826,16.0348291 C5.77688145,16.8238599 5.86899218,17.6004243 6.04708856,18.3544432 C6.15936235,18.8297845 5.86376716,19.3058415 5.38685822,19.4177463 C4.90994928,19.529651 4.4323223,19.2350275 4.32004851,18.7596862 C4.11109003,17.8750042 4.00308775,16.9644617 4.00000002,16.0378145 C3.99993353,14.7137954 4.20343476,13.4482083 4.60290543,12.24038 C4.75629568,11.7765935 5.25785619,11.5245589 5.72317218,11.677445 Z M25.4578886,8.52427034 C26.8438638,10.2568237 27.7272278,12.3390298 27.9936598,14.5637979 C28.0517293,15.0486918 27.7044234,15.4886959 27.2179304,15.5465746 C26.7314374,15.6044532 26.2899822,15.258289 26.2319127,14.7733951 C26.0048885,12.8776913 25.2524511,11.1040966 24.0706258,9.62674296 C23.7651823,9.24492012 23.8281209,8.68859464 24.2112029,8.38415523 C24.594285,8.07971582 25.1524452,8.14244749 25.4578886,8.52427034 Z M13.0184118,5.26013388 C13.1877091,5.71838992 12.9522366,6.22667125 12.4924692,6.39541199 C10.7083276,7.05021581 9.14013452,8.19194105 7.96532485,9.68095972 C7.66246471,10.0648214 7.10474044,10.1312931 6.71961283,9.82942852 C6.33448522,9.52756389 6.26779426,8.97167289 6.5706544,8.58781121 C7.94755512,6.84265117 9.78585226,5.50427629 11.8793897,4.73592008 C12.339157,4.56717933 12.8491146,4.80187784 13.0184118,5.26013388 Z M16.0395118,4 C18.3021391,4 20.47479,4.62394882 22.3590542,5.78419643 C22.7758735,6.04085561 22.9050229,6.58570717 22.6475172,7.00115645 C22.3900116,7.41660573 21.8433632,7.54533053 21.4265438,7.28867135 C19.820532,6.29975934 17.97036,5.76842105 16.0395118,5.76842105 C15.5495653,5.76842105 15.1523852,5.37254652 15.1523852,4.88421053 C15.1523852,4.39587454 15.5495653,4 16.0395118,4 Z"/>
  </g>
</svg>
