<svg xmlns="http://www.w3.org/2000/svg" width="32" height="32" viewBox="0 0 32 32">
  <g fill="none" fill-rule="evenodd">
    <path fill="currentColor" fill-opacity=".151" fill-rule="nonzero" d="M16,0 C7.163444,0 -8.8817842e-16,7.163444 -8.8817842e-16,16 C-8.8817842e-16,24.836556 7.163444,32 16,32 C24.836556,32 32,24.836556 32,16 C32,7.163444 24.836556,0 16,0 Z M16,2.5 C23.4558441,2.5 29.5,8.54415588 29.5,16 C29.5,23.4558441 23.4558441,29.5 16,29.5 C8.54415588,29.5 2.5,23.4558441 2.5,16 C2.5,8.54415588 8.54415588,2.5 16,2.5 Z"/>
    <path fill="currentColor" fill-rule="nonzero" d="M31.9655722,17.0573647 C31.920576,17.7462527 31.3256453,18.2682301 30.6367573,18.2232339 C29.9478693,18.1782377 29.4258919,17.583307 29.4708881,16.894419 C29.4902666,16.5977357 29.5,16.2994988 29.5,16 C29.5,8.54415588 23.4558441,2.5 16,2.5 C15.3096441,2.5 14.75,1.94035594 14.75,1.25 C14.75,0.559644063 15.3096441,0 16,0 C24.836556,0 32,7.163444 32,16 C32,16.3538679 31.988493,16.7064489 31.9655722,17.0573647 Z"/>
  </g>
</svg>
