<svg xmlns="http://www.w3.org/2000/svg" width="32" height="32" viewBox="0 0 32 32">
  <g fill="none" fill-rule="evenodd">
    <circle cx="16" cy="16" r="16" fill="currentColor"/>
    <path fill="white" d="M8,0 C12.418278,0 16,3.581722 16,8 C16,12.418278 12.418278,16 8,16 C3.581722,16 0,12.418278 0,8 C0,3.581722 3.581722,0 8,0 Z M12.5952005,5.21151575 C12.3289027,4.93643543 11.8915245,4.92888221 11.6163592,5.19344387 L11.6163592,5.19344387 L6.62352666,10.0163671 L4.5012151,8.01518737 C4.22315401,7.75283333 3.78491866,7.76567631 3.52235731,8.04346251 C3.25945991,8.32255564 3.27245305,8.76103387 3.55096757,9.0233799 L3.55096757,9.0233799 L6.15413794,11.4779134 C6.28371289,11.6003137 6.45404089,11.6666667 6.62935598,11.6666667 C6.80766527,11.6666667 6.98069754,11.597967 7.11119467,11.471521 L7.11119467,11.471521 L12.5779883,6.19076393 C12.8530998,5.92488699 12.8606652,5.48667286 12.5952005,5.21151575 Z" transform="translate(8 8)"/>
  </g>
</svg>
