<svg xmlns="http://www.w3.org/2000/svg" width="40" height="40" viewBox="0 0 40 40">
  <path fill="currentColor" fill-rule="evenodd" d="M20.0010149,0 C22.732331,0 25.2774219,1.38463182 26.7611809,3.67780231 C29.4318304,3.10551458 32.210507,3.92610331 34.1418118,5.85742354 C36.0731166,7.78874377 36.8936988,10.5674426 36.3214156,13.2381133 C38.6225858,14.7153006 40.0098822,17.2655073 39.999947,20 C40.0089481,22.7342256 38.621055,25.2837451 36.3197489,26.7602199 C36.8917781,29.4309822 36.0711871,32.2096555 34.140025,34.1411697 C32.2088629,36.0726839 29.4303548,36.8937658 26.7595142,36.3221977 C25.2757552,38.6153682 22.7306643,40 19.9993482,40 C17.2680321,40 14.7229412,38.6153682 13.2391822,36.3221977 C10.5685328,36.8944854 7.78985615,36.0738967 5.85855133,34.1425765 C3.92724652,32.2112562 3.10666434,29.4325574 3.6789475,26.7618867 C1.38508327,25.277854 -2.84217094e-14,22.732078 -2.84217094e-14,20 C-2.84217094e-14,17.267922 1.38508327,14.722146 3.6789475,13.2381133 C3.10645659,10.5670933 3.92722191,7.78797687 5.85896734,5.85655274 C7.79071276,3.92512862 10.5699501,3.10484122 13.2408489,3.67780231 C14.724608,1.38463182 17.2696988,0 20.0010149,0 Z M20.0010149,2.22222222 C18.113398,2.22222222 16.3486303,3.13564778 15.2577687,4.66270398 L15.1065752,4.88499685 L14.2737391,6.17215672 L12.7747446,5.85059249 C10.8409845,5.43576237 8.82878574,6.02965957 7.43017876,7.42803392 C6.09816888,8.75982226 5.49574101,10.6482941 5.79944109,12.4956681 L5.85181413,12.7723913 L6.1730716,14.2712537 L4.88603384,15.1039125 C3.22511525,16.1784562 2.2222163,18.0217794 2.2222163,20 C2.2222163,21.8883015 3.13601472,23.6536902 4.66365597,24.7448532 L4.88603384,24.8960875 L6.1730061,25.7287039 L5.85183628,27.2275054 C5.43749475,29.1611108 6.03160835,31.1729297 7.42989973,32.5712322 C8.76160256,33.9029457 10.6497723,34.5052408 12.496877,34.2016577 L12.77356,34.1493041 L14.2722701,33.8281488 L15.1049085,35.1150032 C16.1791691,36.7752881 18.0218448,37.7777778 19.9993482,37.7777778 C21.8869651,37.7777778 23.6517328,36.8643522 24.7425945,35.337296 L24.8937879,35.1150032 L25.7261838,33.8285236 L27.2245447,34.1491774 C29.1584152,34.5630317 31.1702447,33.9685124 32.5685396,32.5699625 C33.9002523,31.238007 34.5025941,29.3496742 34.199147,27.5023433 L34.1468145,27.2256258 L33.8245188,25.7208506 L35.1197599,24.8898482 C36.7818316,23.8234942 37.784229,21.9821387 37.7777306,19.9918825 C37.7845784,18.1066815 36.8719426,16.3427743 35.3434753,15.2584151 L35.1209663,15.1081897 L33.8261347,14.2770001 L34.1485268,12.7724946 C34.5628684,10.8388892 33.9687548,8.8270703 32.5704634,7.42876776 C31.2387606,6.0970543 29.3505908,5.49475922 27.5034861,5.79834227 L27.2268031,5.85069587 L25.728093,6.17185122 L24.8954546,4.88499685 C23.8211941,3.22471195 21.9785184,2.22222222 20.0010149,2.22222222 Z M19.9999467,26.1111111 C20.6135948,26.1111111 21.1110549,26.6085725 21.1110549,27.2222222 C21.1110549,27.8358719 20.6135948,28.3333333 19.9999467,28.3333333 C19.3862986,28.3333333 18.8888386,27.8358719 18.8888386,27.2222222 C18.8888386,26.6085725 19.3862986,26.1111111 19.9999467,26.1111111 Z M19.9999467,11.6666667 C20.5697628,11.6666667 21.0393963,12.0956002 21.1035796,12.6481987 L21.1110549,12.7777778 L21.1110549,22.7777778 C21.1110549,23.3914275 20.6135948,23.8888889 19.9999467,23.8888889 C19.4301306,23.8888889 18.9604971,23.4599553 18.8963138,22.9073568 L18.8888386,22.7777778 L18.8888386,12.7777778 C18.8888386,12.1641281 19.3862986,11.6666667 19.9999467,11.6666667 Z"/>
</svg>
