<svg xmlns="http://www.w3.org/2000/svg" width="40" height="40" viewBox="0 0 40 40">
  <path fill="currentColor" fill-rule="evenodd" d="M20.0010682,0 C22.7323916,0 25.2774892,1.38463182 26.7612522,3.67780231 C29.4319088,3.10551458 32.2105928,3.92610331 34.1419028,5.85742354 C36.0732127,7.78874377 36.8937971,10.5674426 36.3215124,13.2381133 C38.6226887,14.7153006 40.0099888,17.2655073 40,20 C40.0090547,22.7342256 38.6211579,25.2837451 36.3198457,26.7602199 C36.8918764,29.4309822 36.0712832,32.2096555 34.1401159,34.1411697 C32.2089487,36.0726839 29.4304332,36.8937658 26.7595855,36.3221977 C25.2758225,38.6153682 22.7307249,40 19.9994015,40 C17.2680781,40 14.7229805,38.6153682 13.2392175,36.3221977 C10.5685609,36.8944854 7.78987691,36.0738967 5.85856694,34.1425765 C3.92725698,32.2112562 3.10667261,29.4325574 3.6789573,26.7618867 C1.38508696,25.277854 0,22.732078 0,20 C0,17.267922 1.38508696,14.722146 3.6789573,13.2381133 C3.10646487,10.5670933 3.92723237,7.78797687 5.85898295,5.85655274 C7.79073352,3.92512862 10.5699782,3.10484122 13.2408842,3.67780231 C14.7246472,1.38463182 17.2697448,0 20.0010682,0 Z M20,26.6 C19.4477153,26.6 19,27.1372583 19,27.8 C19,28.4627417 19.4477153,29 20,29 C20.5522847,29 21,28.4627417 21,27.8 C21,27.1372583 20.5522847,26.6 20,26.6 Z M20,11 C19.4477153,11 19,11.5372583 19,12.2 L19,12.2 L19,23 L19.0067277,23.1399454 C19.0644928,23.7367518 19.4871642,24.2 20,24.2 C20.5522847,24.2 21,23.6627417 21,23 L21,23 L21,12.2 L20.9932723,12.0600546 C20.9355072,11.4632482 20.5128358,11 20,11 Z"/>
</svg>
