<svg width="40" height="40" viewBox="0 0 40 40" fill="none" xmlns="http://www.w3.org/2000/svg">
<circle cx="20" cy="20" r="19.125" stroke="currentColor" stroke-width="1.75"/>
<path fill-rule="evenodd" clip-rule="evenodd" d="M22.4514 12.2303C23.1471 12.5753 23.6035 13.2565 23.6611 14.0175L23.6673 14.1817V25.8162C23.6673 26.6424 23.1965 27.3978 22.4511 27.7673C21.759 28.1104 20.9405 28.0662 20.3304 27.6866L20.1934 27.5931L13.9204 23.6347H11.2001C10.0886 23.6347 9.16957 22.8174 9.021 21.7559L9.00508 21.6026L9 21.4532V18.5446C9 17.3922 9.90122 16.4485 11.043 16.3687L11.2001 16.3632H13.9194L20.147 12.4367C20.8136 11.9406 21.7057 11.8607 22.4514 12.2303ZM21.0828 13.5657L14.866 17.489V22.508L21.1138 26.4533C21.2881 26.5484 21.4941 26.5691 21.6837 26.5109L21.7952 26.4665C22.0126 26.3588 22.1599 26.1525 22.1933 25.9181L22.2006 25.8162V14.1815C22.2006 13.906 22.0437 13.6542 21.7954 13.531C21.578 13.4233 21.3231 13.4302 21.0828 13.5657ZM26.4462 17.3971L26.5303 17.4697L28 18.939L29.4697 17.4697C29.7626 17.1768 30.2374 17.1768 30.5303 17.4697C30.7966 17.7359 30.8208 18.1526 30.6029 18.4462L30.5303 18.5303L29.061 20L30.5303 21.4697C30.8232 21.7626 30.8232 22.2374 30.5303 22.5303C30.2641 22.7966 29.8474 22.8208 29.5538 22.6029L29.4697 22.5303L28 21.061L26.5303 22.5303C26.2374 22.8232 25.7626 22.8232 25.4697 22.5303C25.2034 22.2641 25.1792 21.8474 25.3971 21.5538L25.4697 21.4697L26.939 20L25.4697 18.5303C25.1768 18.2374 25.1768 17.7626 25.4697 17.4697C25.7359 17.2034 26.1526 17.1792 26.4462 17.3971ZM13.4 17.817L11.2001 17.8175C10.8288 17.8175 10.522 18.091 10.4734 18.446L10.4667 18.5446V21.4532C10.4667 21.8214 10.7426 22.1256 11.1006 22.1738L11.2001 22.1804L13.4 22.18V17.817Z" fill="currentColor"/>
</svg>
