<svg width="40" height="40" viewBox="0 0 40 40" fill="none" xmlns="http://www.w3.org/2000/svg">
<circle cx="20" cy="20" r="19.125" stroke="currentColor" stroke-width="1.75"/>
<path fill-rule="evenodd" clip-rule="evenodd" d="M20.147 12.4367C20.8136 11.9406 21.7057 11.8607 22.4514 12.2303C23.1471 12.5753 23.6035 13.2565 23.6611 14.0175L23.6673 14.1817V25.8162C23.6673 26.6424 23.1965 27.3978 22.4511 27.7673C21.759 28.1104 20.9405 28.0662 20.3304 27.6866L20.1934 27.5931L13.9204 23.6347H11.2001C10.0886 23.6347 9.16957 22.8174 9.021 21.7559L9.00508 21.6026L9 21.4532V18.5446C9 17.3922 9.90122 16.4485 11.043 16.3687L11.2001 16.3632H13.9194L20.147 12.4367ZM21.7954 13.531C21.578 13.4233 21.3231 13.4302 21.0828 13.5657L14.866 17.489V22.508L21.1138 26.4533C21.2881 26.5484 21.4941 26.5691 21.6837 26.5109L21.7952 26.4665C22.0126 26.3588 22.1599 26.1525 22.1933 25.9181L22.2006 25.8162V14.1815C22.2006 13.906 22.0437 13.6542 21.7954 13.531ZM29.8718 16.3599C31.3761 18.6975 31.3761 21.6882 29.8718 24.0258C29.654 24.3644 29.2005 24.4637 28.8591 24.2477C28.5177 24.0317 28.4175 23.5821 28.6353 23.2436C29.8326 21.383 29.8326 19.0027 28.6353 17.1421C28.4175 16.8036 28.5177 16.354 28.8591 16.138C29.2005 15.922 29.654 16.0213 29.8718 16.3599ZM26.9861 17.6363C28.2244 19.1476 28.2244 21.3127 26.9861 22.8241C26.7307 23.1358 26.2689 23.1832 25.9545 22.93C25.6401 22.6767 25.5923 22.2188 25.8477 21.9071C26.6482 20.93 26.6482 19.5303 25.8477 18.5533C25.5923 18.2416 25.6401 17.7836 25.9545 17.5304C26.2689 17.2772 26.7307 17.3246 26.9861 17.6363ZM13.4 22.18V17.817L11.2001 17.8175C10.8288 17.8175 10.522 18.091 10.4734 18.446L10.4667 18.5446V21.4532C10.4667 21.8214 10.7426 22.1256 11.1006 22.1738L11.2001 22.1804L13.4 22.18Z" fill="currentColor"/>
</svg>
