<svg xmlns="http://www.w3.org/2000/svg" width="40" height="40" viewBox="0 0 40 40">
  <path fill="currentColor" fill-rule="evenodd" d="M22.5909091,2.5 C32.2056845,2.5 40,10.2943155 40,19.9090909 C40,29.5238663 32.2056845,37.3181818 22.5909091,37.3181818 C22.0386243,37.3181818 21.5909091,36.8704666 21.5909091,36.3181818 C21.5909091,35.7658971 22.0386243,35.3181818 22.5909091,35.3181818 C31.101115,35.3181818 38,28.4192968 38,19.9090909 C38,11.398885 31.101115,4.5 22.5909091,4.5 C14.1857674,4.5 7.35240661,11.2295937 7.18496273,19.5946448 L7.181,20.084 L10.6565296,16.611075 C11.0170135,16.2505911 11.5842446,16.2228615 11.9765358,16.5278864 L12.0707431,16.611075 C12.4312271,16.971559 12.4589566,17.5387901 12.1539318,17.9310813 L12.0707431,18.0252886 L6.88892496,23.2071068 C6.528441,23.5675907 5.96120995,23.5953203 5.56891874,23.2902954 L5.4747114,23.2071068 L0.292893219,18.0252886 C-0.0976310729,17.6347643 -0.0976310729,17.0015993 0.292893219,16.611075 C0.65337718,16.2505911 1.22060824,16.2228615 1.61289944,16.5278864 L1.70710678,16.611075 L5.181,20.084 L5.18181818,19.9090909 C5.18181818,10.2943155 12.9761337,2.5 22.5909091,2.5 Z M26.1811668,14.5 L26.1811668,16.4446694 L21.9068577,16.4446694 L21.6857728,18.5748988 L22.1816581,18.4855331 C22.4733811,18.4411966 22.8157625,18.4190283 23.2088025,18.4190283 C24.3660867,18.4190283 25.287274,18.7134503 25.9723644,19.3022942 C26.6574548,19.8911381 27,20.6977058 27,21.7219973 C27,22.934323 26.587854,23.8670715 25.7635619,24.5202429 C24.9392699,25.1734143 23.7601501,25.5 22.2262027,25.5 C21.0153221,25.5 20.016481,25.3384656 19.2296793,25.0153969 L19,24.9136302 L19,22.9318489 L19.2672671,23.0519433 C19.6349778,23.2059334 20.0481064,23.3353801 20.506653,23.4402834 C21.0798362,23.5714125 21.6229956,23.6369771 22.136131,23.6369771 C23.6809962,23.6369771 24.4534289,23.062978 24.4534289,21.9149798 C24.4534289,20.8214125 23.6537018,20.2746289 22.0542477,20.2746289 C21.7649266,20.2746289 21.4455817,20.3006073 21.0962129,20.3525641 L20.7084135,20.4166937 C20.5896281,20.438664 20.4813238,20.4612281 20.3835005,20.484386 L20.2446264,20.5195682 L19.2374616,20.0296896 L19.6878199,14.5 L26.1811668,14.5 Z"/>
</svg>
