<svg xmlns="http://www.w3.org/2000/svg" width="40" height="40" viewBox="0 0 40 40">
    <g fill="none" fill-rule="evenodd">
        <g fill="currentColor">
            <path d="M23.352 1.281l.092.096.08.106c.243.367.236.847-.013 1.206l-.082.103-.091.091-2.445 2.097.6.053.326.032c8.995.966 15.684 8.838 15.151 17.917-.539 9.188-8.28 16.282-17.47 16.01-9.192-.27-16.501-7.808-16.5-17.012-.013-3.83 1.276-7.548 3.657-10.544.238-.31.621-.466 1.004-.412.383.055.707.311.849.672.141.36.078.769-.166 1.07-2.081 2.62-3.208 5.87-3.196 9.215-.001 7.982 6.296 14.542 14.266 14.857 7.97.315 14.765-5.727 15.392-13.686.609-7.725-4.811-14.599-12.403-15.84l-.327-.049-1.168-.151 2.444 2.096.097.088c.24.25.35.596.289.938-.069.385-.34.702-.709.829-.29.1-.605.07-.868-.076l-.11-.07-.1-.081-4.64-3.98-.095-.094c-.18-.196-.28-.454-.28-.723 0-.228.073-.449.205-.631l.086-.105.095-.09 4.634-3.976.107-.076c.367-.23.839-.21 1.188.039l.101.081zm2.65 14.652v2.028h-3.888l-.183 3.386h.04l.101-.153c.418-.587 1.026-.881 1.824-.881.81 0 1.425.277 1.844.831.38.504.588 1.215.622 2.132l.006.281v3.204l-.005.26c-.04 1.023-.323 1.819-.846 2.386-.567.616-1.391.923-2.472.923-1.08 0-1.904-.307-2.471-.923-.524-.567-.806-1.363-.846-2.385l-.005-.26v-1.116h2.107v1.277l.004.167c.046.808.429 1.212 1.15 1.212.722 0 1.106-.404 1.15-1.212l.005-.167V23.74l-.004-.17c-.045-.82-.429-1.23-1.15-1.23-.722 0-1.105.41-1.15 1.23l-.005.17v.122h-2.107l.405-7.929h5.875zm-8.973 0v14.194H14.8V19.3h-2.33v-1.581l.264-.004c.514-.013.935-.066 1.265-.159.385-.108.693-.287.922-.537.191-.208.364-.494.518-.858l.09-.227h1.499zM14.726 1.281l.092.096.08.106c.243.367.236.847-.013 1.206l-.082.103-.092.091-3.678 3.156 3.693 3.169.096.088c.242.25.35.596.29.938-.069.385-.34.702-.71.829-.289.1-.604.07-.867-.076l-.11-.07-.1-.081-4.64-3.98-.096-.094c-.179-.196-.28-.454-.28-.723 0-.228.073-.449.205-.631l.087-.105.094-.09 4.635-3.976.107-.076c.404-.253.934-.204 1.289.12z"/>
        </g>
    </g>
</svg>
