<svg xmlns="http://www.w3.org/2000/svg" width="40" height="40" viewBox="0 0 40 40">
  <path fill="currentColor" fill-rule="evenodd" d="M20.0323872,1 C26.3025171,1 32.0142294,4.57650864 33.8008972,9.92065888 C34.7304693,12.7003085 34.6955887,15.1008459 33.7874893,17.3517764 L33.664097,17.6445465 L33.5324321,17.9334429 L33.3972001,18.208004 L33.2284518,18.5298089 L33.0248875,18.8986429 L33.0010324,18.935 C33.058447,19.0662683 33.149597,19.2388313 33.2897957,19.481313 L33.4670915,19.7818909 L34.4595953,21.4059304 L34.6841324,21.7865272 C35.1944638,22.6686723 35.3311904,23.0527159 35.29638,23.4337036 C35.2388075,24.0584637 34.5192598,24.866413 33.2009179,25.8009416 L32.9620664,25.9671609 L32.7869483,26.6691236 L32.5947146,27.3975506 C31.5654826,31.1817339 30.4723163,33.3480148 29.3073664,33.6215418 C27.9250224,33.9451059 26.41375,33.9344211 24.8365256,33.5941963 L24.440882,33.5022774 L24.1740324,33.431 L24.1740517,35.3675957 C24.1740517,36.8008344 23.1338636,38.0062191 21.7533257,38.2536913 L21.5790364,38.2795834 L21.4083899,38.2947746 L21.2325715,38.3 L12.0329483,38.3 C10.535444,38.3 9.28582166,37.1748901 9.11195066,35.7129903 L9.09670977,35.5428598 L9.09146821,35.3674222 L9.13453893,27.1630461 C8.15533726,26.1677102 7.24018858,24.8332692 6.51168592,23.261329 C5.30858336,20.665312 4.80630553,17.7840478 5.06721018,14.6641464 C5.70107374,7.08149681 12.1893911,1 20.0323872,1 Z M20.0323872,2.63812325 C13.047909,2.63812325 7.26859238,8.05271382 6.70417961,14.8006591 C6.4620356,17.6946664 6.93515533,20.345931 8.06182528,22.7126074 C8.72138977,24.0980847 9.53548417,25.2584089 10.3702921,26.0791187 C10.5370264,26.242408 10.6512141,26.4480578 10.7030515,26.6775522 L10.7265935,26.817962 L10.7339561,26.9534767 L10.7339561,35.3675957 C10.7339561,35.9899835 11.1799436,36.5177365 11.7737687,36.6365133 L11.9031711,36.655591 L12.0329483,36.6618767 L21.2325715,36.6618767 C21.8574735,36.6618767 22.386989,36.2172858 22.5061275,35.6257367 L22.5252611,35.4968353 L22.5315738,35.3661741 L22.5640324,33.03 L22.0732048,32.8586097 C20.760375,32.3802176 19.4231954,31.7461964 18.084851,30.9763991 L17.5112711,30.6382311 L16.978903,30.3098463 C16.2785542,29.8684896 15.6654914,29.4436941 15.2069453,29.0899729 C14.8489629,28.812811 14.7837858,28.2983713 15.0613275,27.9408178 C15.3392567,27.5834006 15.8542415,27.5184089 16.2140711,27.7948092 C17.2460338,28.5948372 18.8863232,29.6081274 20.5530703,30.4200736 C23.7921667,31.9979806 26.6296084,32.5686157 28.9040021,32.0352552 C29.3580493,31.8319464 30.3645893,29.332509 31.1298045,26.4962552 L31.2793947,25.9250941 L31.4240081,25.3373468 L31.5426017,25.004001 L31.7524548,24.8589179 C32.5632893,24.2937558 33.4547943,23.5363919 33.6462003,23.3480107 C33.60109,23.221238 33.4927044,23.0075639 33.3200697,22.7046759 L33.2283938,22.5457866 L32.7898674,21.8171847 L32.219142,20.8891478 C31.4655476,19.6467404 31.2884366,19.2353762 31.3310126,18.8077416 C31.3499994,18.6225469 31.3970351,18.4828932 31.5408319,18.2037133 L31.8450513,17.635588 C31.9584612,17.4207033 32.0322788,17.2701505 32.1175866,17.0827556 C33.0252271,15.0889493 33.0972404,12.9928155 32.242804,10.4395225 C30.7134223,5.86393485 25.5363263,2.63812325 20.0323872,2.63812325 Z M23.8180246,9.18672726 C26.2694005,9.18672726 28.309631,11.2689533 28.309631,14.186978 C28.309631,16.0241833 26.9861262,18.2029972 24.4752338,20.658993 C23.7753826,21.3435431 23.0053454,22.026496 22.1811147,22.6975811 L21.6802011,23.0987259 L21.2100778,23.463633 L20.7115327,23.8382275 C20.4703317,24.0161958 20.2427722,24.1791387 20.0357583,24.3224121 C19.8968885,24.41791 19.7324466,24.4692473 19.5659173,24.4692473 C19.4444084,24.4692473 19.3250647,24.4424407 19.2148861,24.3904108 L19.1080217,24.3300317 L18.7295695,24.0641264 C18.429667,23.849028 18.1115326,23.6125708 17.7833424,23.3601657 C16.7711377,22.5816974 15.8148519,21.7698261 14.9494604,20.9471706 C12.2516518,18.382589 10.8230987,16.103371 10.8230987,14.186978 C10.8230987,11.2685234 12.8623593,9.18672726 15.3138101,9.18672726 C17.1637931,9.18672726 18.5800948,9.78216682 19.4712992,10.8754097 L19.5300324,10.951 L19.6057408,10.8620099 C20.4651261,9.89153204 21.6761278,9.32266805 23.2224622,9.20823503 L23.5163256,9.1921171 L23.8180246,9.18672726 Z M23.8180246,10.8248505 C21.9734249,10.8248505 20.8021514,11.5436523 20.3313213,12.7497737 C20.0812665,13.3929067 19.0505794,13.3929355 18.8005871,12.7499629 C18.3296858,11.5436587 17.1584215,10.8248505 15.3138101,10.8248505 C13.7344124,10.8248505 12.4655867,12.1539446 12.4655867,14.186978 C12.4655867,16.1520369 15.0848119,19.285738 18.9716965,22.2436401 L19.5370324,22.666 L19.7938165,22.4795867 C23.7578649,19.5722018 26.5224681,16.3992621 26.6616364,14.3466718 L26.6671429,14.186978 C26.6671429,12.1540356 25.3978234,10.8248505 23.8180246,10.8248505 Z"/>
</svg>
