<svg xmlns="http://www.w3.org/2000/svg" width="40" height="40" viewBox="0 0 40 40">
  <g fill="none" fill-rule="evenodd">
    <path fill="#dedede" d="M13.9333333,29.5 L13.9333333,34 L7,34 L7,29.5 L13.9333333,29.5 Z M23.4666667,29.5 L23.4666667,34 L16.5333333,34 L16.5333333,29.5 L23.4666667,29.5 Z M33,29.5 L33,34 L26.0666667,34 L26.0666667,29.5 L33,29.5 Z M13.9333333,22.7 L13.9333333,27.2 L7,27.2 L7,22.7 L13.9333333,22.7 Z M23.4666667,22.7 L23.4666667,27.2 L16.5333333,27.2 L16.5333333,22.7 L23.4666667,22.7 Z M33,22.7 L33,27.2 L26.0666667,27.2 L26.0666667,22.7 L33,22.7 Z M13.9333333,16 L13.9333333,20.5 L7,20.5 L7,16 L13.9333333,16 Z M23.4666667,16 L23.4666667,20.5 L16.5333333,20.5 L16.5333333,16 L23.4666667,16 Z M33,16 L33,20.5 L26.0666667,20.5 L26.0666667,16 L33,16 Z"/>
    <path fill="currentColor" d="M30.5662338,1 C31.1185185,1 31.5662338,1.37725308 31.5662338,1.84261834 L31.566,3.999 L35.8909091,4 C37.6089822,4 39,5.41398065 39,7.15823303 L39,39 L1,39 L1,7.15823303 C1,5.41464573 2.39263383,4 4.10909091,4 L7.999,3.999 L8,1.84261834 C8,1.37725308 8.44771525,1 9,1 C9.55228475,1 10,1.37725308 10,1.84261834 L9.999,3.999 L29.566,3.999 L29.5662338,1.84261834 C29.5662338,1.37725308 30.013949,1 30.5662338,1 Z M37,12.999 L3,12.999 L3,37 L37,37 L37,12.999 Z M27.4746343,18 C28.9774603,18 30.1806291,19.2608544 30.337268,21.0210346 C30.337268,21.0255946 30.4053719,21.4291592 30.2373823,22.1405274 C30.003559,23.1323387 29.4655382,24.0352291 28.6778031,24.7488772 L24.6415122,28.3672786 L20.6733252,24.7511572 C19.8855901,24.0352291 19.3452992,23.1323387 19.1114758,22.1405274 C18.9457564,21.4291592 19.0138603,21.0255946 19.0138603,21.0233146 L19.0184005,21.0005143 C19.1704992,19.2608544 20.373668,18 21.8742239,18 C22.9820473,18 23.9582031,18.6817278 24.4213096,19.7852604 L24.6415122,20.3028263 L24.8594447,19.7852604 C25.3134706,18.699968 26.3418395,18 27.4746343,18 Z M7.999,5.999 L4.4045584,6 C3.62947662,6 3,6.63934928 3,7.42658738 L3,10.999 L37,10.999 L37,7.42658738 C37,6.63843808 36.3718546,6 35.5954416,6 L31.566,5.999 L31.5662338,8.6826966 C31.5662338,9.14806186 31.1185185,9.52531493 30.5662338,9.52531493 C30.013949,9.52531493 29.5662338,9.14806186 29.5662338,8.6826966 L29.566,5.999 L9.999,5.999 L10,8.6826966 C10,9.14806186 9.55228475,9.52531493 9,9.52531493 C8.44771525,9.52531493 8,9.14806186 8,8.6826966 L7.999,5.999 Z"/>
  </g>
</svg>
