<svg xmlns="http://www.w3.org/2000/svg" width="40" height="40" viewBox="0 0 40 40">
  <path fill="currentColor" fill-rule="evenodd" d="M20.9999741,10.8134173 L8.97915287,10.8131165 L8.86808757,10.8184203 C8.41518029,10.8644178 8.05899361,11.2215168 8.00687558,11.6672107 L8.00030083,11.7803511 L8,31.0208957 L8.00530369,31.1319514 C8.05130106,31.5848268 8.40840414,31.9410073 8.8540933,31.9931245 L8.96723236,31.9996992 L28.2077401,32 L28.3188054,31.9946962 C28.7717126,31.9486986 29.1278993,31.5915997 29.1800173,31.1459058 L29.1865921,31.0327653 L29.1868929,19.0119216 L29.1815887,18.9008571 C29.1317545,18.4102158 28.7167762,18.0330661 28.2196089,18.0330661 C27.7212045,18.0330661 27.3108502,18.4101942 27.2583514,18.8946448 L27.2526774,19 L27.2526774,30.0658832 L9.93411218,30.0658832 L9.93411218,12.7472333 L20.9880536,12.7475341 L21.0991189,12.7422303 C21.5897685,12.6923996 21.9669057,12.2774569 21.9669057,11.7802994 C21.9669057,11.2819058 21.5897897,10.8715851 21.1053313,10.8190908 L20.9999741,10.8134173 Z M23.4184223,6 L23.307357,6.00530382 C22.8167075,6.05513451 22.4395703,6.4700772 22.4395703,6.96723467 C22.4395703,7.46564049 22.8166976,7.87599562 23.3011469,7.9284945 L23.4065018,7.93416855 L30.6983856,7.93416855 L17.9184929,20.7136561 L17.8390584,20.8016137 C17.5315459,21.1838607 17.5598878,21.7404228 17.9097668,22.0903025 C18.0936414,22.2742179 18.3383873,22.3734663 18.5933948,22.3734663 C18.805959,22.3734663 19.0113596,22.3045486 19.1803522,22.1750987 L19.2771448,22.090232 L32.0658361,9.30156914 L32.0655353,16.5815471 L32.0708391,16.6926127 C32.1206698,17.1832636 32.5356116,17.5604015 33.0327676,17.5604015 C33.531172,17.5604015 33.9415263,17.1832734 33.9940251,16.6988228 L33.9996992,16.5934676 L34,6.97915625 L33.9946958,6.86809172 C33.9486949,6.41519214 33.5915654,6.05899537 33.1458591,6.00687575 L33.0327159,6.00030079 L23.4184223,6 Z"/>
</svg>
