<svg xmlns="http://www.w3.org/2000/svg" width="40" height="40" viewBox="0 0 40 40">
    <g fill="none" fill-rule="evenodd">
        <g fill="currentColor">
            <path d="M16.749 1.2c.31-.222.718-.262 1.062-.107l.126.068.107.076 4.634 3.976.095.09.087.105c.132.182.204.403.204.63 0 .225-.07.441-.197.621l-.083.103-.095.093-4.64 3.98-.1.083-.11.07c-.263.145-.579.174-.868.075-.369-.127-.64-.444-.708-.829-.054-.299.023-.602.204-.84l.084-.098.097-.088 2.444-2.096-1.168.151-.327.05c-7.592 1.24-13.011 8.114-12.403 15.84.628 7.958 7.423 14 15.392 13.685 7.97-.315 14.268-6.875 14.266-14.857.012-3.345-1.114-6.595-3.196-9.215-.244-.301-.307-.71-.166-1.07.142-.36.466-.617.849-.672.383-.054.766.102 1.004.412 2.38 2.996 3.67 6.715 3.657 10.544.002 9.204-7.308 16.741-16.5 17.012-9.19.272-16.93-6.822-17.47-16.01-.527-8.97 5.996-16.761 14.827-17.879l.324-.038.326-.032.6-.053-2.445-2.097-.09-.09-.083-.104c-.224-.323-.252-.744-.079-1.093l.066-.113.08-.106.092-.096.1-.081zM25.96 16v2h-3.84l-.18 3.34h.04l.1-.15c.412-.58 1.012-.87 1.8-.87.8 0 1.407.273 1.82.82.376.497.58 1.198.615 2.102l.005.278v3.16l-.005.257c-.04 1.009-.318 1.793-.835 2.353-.56.607-1.373.91-2.44.91s-1.88-.303-2.44-.91c-.517-.56-.795-1.344-.835-2.353l-.005-.257v-1.1h2.08v1.26l.004.165c.045.797.423 1.195 1.136 1.195.712 0 1.091-.398 1.136-1.195l.004-.165V23.7l-.004-.167c-.045-.809-.424-1.213-1.136-1.213-.713 0-1.091.404-1.136 1.213l-.004.167v.12h-2.08l.4-7.82h5.8zm-8.86 0v14h-2.2V19.32h-2.3v-1.56l.261-.003c.507-.013.923-.066 1.249-.157.38-.107.683-.283.91-.53.189-.206.36-.488.511-.846L15.62 16h1.48zm8.174-14.719c.323-.295.79-.362 1.176-.182l.113.062.107.076 4.635 3.976.095.09.086.105c.132.182.204.403.204.63 0 .225-.07.441-.196.621l-.083.103-.096.093-4.64 3.98-.1.083-.11.07c-.263.145-.578.174-.868.075-.369-.127-.64-.444-.708-.829-.053-.299.023-.602.205-.84l.084-.098.096-.088 3.693-3.17-3.678-3.155-.091-.09-.083-.104c-.224-.323-.252-.744-.078-1.093l.065-.113.08-.106.092-.096z"/>
        </g>
    </g>
</svg>
