<svg xmlns="http://www.w3.org/2000/svg" width="40" height="40" viewBox="0 0 40 40">
  <path fill="currentColor" fill-rule="evenodd" d="M17.4090909,2.5 C26.9146075,2.5 34.6408032,10.1181785 34.8151711,19.5820285 L34.818,20.084 L38.2928932,16.611075 L38.3871006,16.5278864 C38.7793918,16.2228615 39.3466228,16.2505911 39.7071068,16.611075 C40.0675907,16.971559 40.0953203,17.5387901 39.7902954,17.9310813 L39.7071068,18.0252886 L34.5252886,23.2071068 L34.4310813,23.2902954 C34.071481,23.5699015 33.5648826,23.5699015 33.2052824,23.2902954 L33.111075,23.2071068 L27.9292569,18.0252886 L27.8460682,17.9310813 C27.5664621,17.571481 27.5664621,17.0648826 27.8460682,16.7052824 L27.9292569,16.611075 L28.0234642,16.5278864 C28.3830645,16.2482803 28.8896628,16.2482803 29.2492631,16.5278864 L29.3434704,16.611075 L32.818,20.084 L32.8150373,19.5946448 C32.6475934,11.2295937 25.8142326,4.5 17.4090909,4.5 C8.89888499,4.5 2,11.398885 2,19.9090909 C2,28.4192968 8.89888499,35.3181818 17.4090909,35.3181818 C17.9613757,35.3181818 18.4090909,35.7658971 18.4090909,36.3181818 C18.4090909,36.8704666 17.9613757,37.3181818 17.4090909,37.3181818 C7.79431549,37.3181818 5.18696197e-13,29.5238663 5.18696197e-13,19.9090909 C5.18696197e-13,10.2943155 7.79431549,2.5 17.4090909,2.5 Z M21.1811668,14.5 L21.1811668,16.4446694 L16.9068577,16.4446694 L16.6857728,18.5748988 L17.1816581,18.4855331 C17.4733811,18.4411966 17.8157625,18.4190283 18.2088025,18.4190283 C19.3660867,18.4190283 20.287274,18.7134503 20.9723644,19.3022942 C21.6574548,19.8911381 22,20.6977058 22,21.7219973 C22,22.934323 21.587854,23.8670715 20.7635619,24.5202429 C19.9392699,25.1734143 18.7601501,25.5 17.2262027,25.5 C16.0153221,25.5 15.016481,25.3384656 14.2296793,25.0153969 L14,24.9136302 L14,22.9318489 L14.2672671,23.0519433 C14.6349778,23.2059334 15.0481064,23.3353801 15.506653,23.4402834 C16.0798362,23.5714125 16.6229956,23.6369771 17.136131,23.6369771 C18.6809962,23.6369771 19.4534289,23.062978 19.4534289,21.9149798 C19.4534289,20.8214125 18.6537018,20.2746289 17.0542477,20.2746289 C16.7649266,20.2746289 16.4455817,20.3006073 16.0962129,20.3525641 L15.7084135,20.4166937 C15.5896281,20.438664 15.4813238,20.4612281 15.3835005,20.484386 L15.2446264,20.5195682 L14.2374616,20.0296896 L14.6878199,14.5 L21.1811668,14.5 Z"/>
</svg>
