<svg xmlns="http://www.w3.org/2000/svg" width="40" height="40" viewBox="0 0 40 40">
  <path fill="currentColor" fill-rule="evenodd" d="M36.6218333,22.5842061 C36.8614295,22.5844069 37.0880451,22.6936571 37.2381694,22.8813388 C37.3882938,23.0690205 37.4457737,23.3149391 37.3945,23.5501743 L37.3945,23.5501743 L34.48275,36.7872802 L34.48275,36.7984199 C34.1959525,37.8382252 33.2342387,38.5424072 32.1615833,38.4980147 L7.6700542,38.4988634 C6.66639782,38.4673531 5.78895286,37.7834986 5.51725,36.7984199 L5.51725,36.7984199 L2.60233333,23.5501743 C2.55105965,23.3149391 2.60853955,23.0690205 2.75866391,22.8813388 C2.90878828,22.6936571 3.13540381,22.5844069 3.375,22.5842061 L3.375,22.5842061 Z M27.5208333,26.1648131 C26.8649952,26.1648131 26.3333333,26.6991772 26.3333333,27.3583487 L26.3333333,27.3583487 L26.3333333,33.7238721 C26.3333333,34.3830436 26.8649952,34.9174077 27.5208333,34.9174077 C28.1766715,34.9174077 28.7083333,34.3830436 28.7083333,33.7238721 L28.7083333,33.7238721 L28.7083333,27.3583487 C28.7083333,26.6991772 28.1766715,26.1648131 27.5208333,26.1648131 Z M19.6041667,26.1648131 C18.9483285,26.1648131 18.4166667,26.6991772 18.4166667,27.3583487 L18.4166667,27.3583487 L18.4166667,33.7238721 C18.4166667,34.3830436 18.9483285,34.9174077 19.6041667,34.9174077 C20.2600048,34.9174077 20.7916667,34.3830436 20.7916667,33.7238721 L20.7916667,33.7238721 L20.7916667,27.3583487 C20.7916667,26.6991772 20.2600048,26.1648131 19.6041667,26.1648131 Z M12.4791667,26.1648131 C11.8233285,26.1648131 11.2916667,26.6991772 11.2916667,27.3583487 L11.2916667,27.3583487 L11.2916667,33.7238721 C11.2916667,34.3830436 11.8233285,34.9174077 12.4791667,34.9174077 C13.1350048,34.9174077 13.6666667,34.3830436 13.6666667,33.7238721 L13.6666667,33.7238721 L13.6666667,27.3583487 C13.6666667,26.6991772 13.1350048,26.1648131 12.4791667,26.1648131 Z M25.24875,1.50000063 C30.1285833,1.50000063 33.5216667,4.49498003 34.8041667,9.93431977 L34.8041667,9.93431977 L35.8333333,14.3217568 C35.8756915,14.5028849 36.0377294,14.6299963 36.2228333,14.6273019 L36.2228333,14.6273019 L36.625,14.6273019 C37.9366763,14.6273019 39,15.6960301 39,17.0143732 L39,17.0143732 L39,18.605754 C39,19.9240971 37.9366763,20.9928253 36.625,20.9928253 L36.625,20.9928253 L3.375,20.9928253 C2.06332372,20.9928253 1,19.9240971 1,18.605754 L1,18.605754 L1,17.0143732 C1,15.6960301 2.06332372,14.6273019 3.375,14.6273019 L3.375,14.6273019 L3.78191667,14.6273019 C3.96524962,14.6277546 4.12469931,14.5011293 4.16666667,14.3217568 L4.16666667,14.3217568 L5.19583333,9.93431977 C6.47833333,4.49498003 9.86666667,1.49840989 14.75125,1.50000063 L14.75125,1.50000063 Z M25.2471667,5.47686201 L14.7496667,5.47686201 C12.8496667,5.47686201 10.1833333,6.03384531 9.04966667,10.8509551 L9.04966667,10.8509551 L8.37358333,13.7393114 C8.3454909,13.8576942 8.37285498,13.9824887 8.44785642,14.0780354 C8.52285785,14.1735822 8.63724541,14.2294567 8.75833333,14.2294567 L8.75833333,14.2294567 L31.24325,14.2294567 C31.3643379,14.2294567 31.4787255,14.1735822 31.5537269,14.0780354 C31.6287283,13.9824887 31.6560924,13.8576942 31.628,13.7393114 L31.628,13.7393114 L30.9471667,10.8509551 C29.8150833,6.03384531 27.1471667,5.47686201 25.2471667,5.47686201 L25.2471667,5.47686201 Z"/>
</svg>
