<svg xmlns="http://www.w3.org/2000/svg" width="40" height="40" viewBox="0 0 40 40">
  <path fill="currentColor" fill-rule="evenodd" d="M15.3333328,33 C14.8145198,33 14.3939389,32.5776271 14.3939389,32.0566038 C14.3939389,31.5355804 14.8145198,31.1132075 15.3333328,31.1132075 L15.3333328,31.1132075 L19.56,31.113 L19.56,28.754 L7.48,28.754717 C6.11033382,28.754717 5,27.6396526 5,26.2641509 L5,10.490566 C5,9.1150644 6.11033382,8 7.48,8 L33.52,8 C34.8896662,8 36,9.1150644 36,10.490566 L36,26.2641509 C36,27.6396526 34.8896662,28.754717 33.52,28.754717 L21.439,28.754 L21.439,31.113 L25.6666655,31.1132075 C26.1484204,31.1132075 26.5454752,31.4773964 26.5997394,31.9465838 L26.6060594,32.0566038 C26.6060594,32.5776271 26.1854784,33 25.6666655,33 L25.6666655,33 Z M32.9367574,9.88679245 L8.06324094,9.88679245 C7.40908552,9.88679245 6.87878778,10.4051592 6.87878778,11.0445969 L6.87878778,25.7101201 C6.87878778,26.3495578 7.40908552,26.8679245 8.06324094,26.8679245 L32.9367574,26.8679245 C33.5909128,26.8679245 34.1212105,26.3495578 34.1212105,25.7101201 L34.1212105,11.0445969 C34.1212105,10.4051592 33.5909128,9.88679245 32.9367574,9.88679245 Z M18.1421205,14.3064908 C18.2993944,14.3064908 18.4540994,14.3463761 18.5917689,14.4224169 L25.1322044,18.0349826 C25.581805,18.2833165 25.7449639,18.8491043 25.49663,19.2987049 C25.4119113,19.4520854 25.2855849,19.5784119 25.1322044,19.6631306 L18.5917689,23.2756963 C18.1421682,23.5240302 17.5763805,23.3608713 17.3280466,22.9112707 C17.2520058,22.7736013 17.2121205,22.6188962 17.2121205,22.4616224 L17.2121205,15.2364908 C17.2121205,14.722866 17.6284957,14.3064908 18.1421205,14.3064908 Z"/>
</svg>
