<svg xmlns="http://www.w3.org/2000/svg" width="40" height="40" viewBox="0 0 40 40">
    <g fill="none" fill-rule="evenodd">
        <g fill="#FA8DD5">
            <path d="M20 0c5.342 0 10.365 2.08 14.142 5.858C37.92 9.635 40 14.658 40 20c0 5.342-2.08 10.365-5.858 14.142C30.365 37.92 25.342 40 20 40c-5.342 0-10.365-2.08-14.142-5.858C2.08 30.365 0 25.342 0 20 0 14.658 2.08 9.635 5.858 5.858 9.635 2.08 14.658 0 20 0zm0 2.344c-4.716 0-9.15 1.836-12.485 5.171C4.18 10.85 2.344 15.284 2.344 20c0 4.716 1.836 9.15 5.171 12.485C10.85 35.82 15.284 37.656 20 37.656c4.716 0 9.15-1.836 12.485-5.171C35.82 29.15 37.656 24.716 37.656 20c0-4.716-1.836-9.15-5.171-12.485C29.15 4.18 24.716 2.344 20 2.344zm4.942 5.814v6.9h6.9v9.884h-6.9v6.9h-9.884v-6.9h-6.9v-9.884h6.9v-6.9h9.884zM22.6 10.502H17.4v6.9h-6.9v5.197h6.9v6.9H22.6v-6.9h6.9V17.4h-6.9v-6.9z"/>
        </g>
    </g>
</svg>
