<svg xmlns="http://www.w3.org/2000/svg" width="40" height="40" viewBox="0 0 40 40">
  <path fill="currentColor" fill-rule="evenodd" d="M20.037838,1.19459461 C25.0150524,1.19459461 29.0664149,5.15863755 29.207036,10.1018339 L29.2108111,10.3675677 L29.2105946,15.2045946 L30.5459463,15.2054056 C32.3264925,15.2054056 33.7811479,16.6007096 33.8761466,18.3575513 L33.8810815,18.5405408 L33.8810815,34.886487 C33.8810815,36.7284313 32.3878906,38.2216222 30.5459463,38.2216222 L30.5459463,38.2216222 L9.52972978,38.2216222 C7.68778549,38.2216222 6.19459461,36.7284313 6.19459461,34.886487 L6.19459461,34.886487 L6.19459461,18.5405408 C6.19459461,16.6985965 7.68778549,15.2054056 9.52972978,15.2054056 L9.52972978,15.2054056 L10.8645946,15.2045946 L10.864865,10.3675677 C10.864865,5.30147456 14.9717449,1.19459461 20.037838,1.19459461 Z M30.5459463,17.2054056 L9.52972978,17.2054056 C8.79235499,17.2054056 8.19459461,17.803166 8.19459461,18.5405408 L8.19459461,18.5405408 L8.19459461,34.886487 C8.19459461,35.6238618 8.79235499,36.2216222 9.52972978,36.2216222 L9.52972978,36.2216222 L30.5459463,36.2216222 C31.2833211,36.2216222 31.8810815,35.6238618 31.8810815,34.886487 L31.8810815,34.886487 L31.8810815,18.5405408 C31.8810815,17.803166 31.2833211,17.2054056 30.5459463,17.2054056 L30.5459463,17.2054056 Z M20.037838,23.3783787 C20.5506739,23.3783787 20.9733452,23.7644189 21.0311103,24.2617576 L21.037838,24.3783787 L21.037838,29.0486491 C21.037838,29.6009338 20.5901228,30.0486491 20.037838,30.0486491 C19.5250022,30.0486491 19.1023309,29.6626089 19.0445658,29.1652702 L19.037838,29.0486491 L19.037838,24.3783787 C19.037838,23.826094 19.4855533,23.3783787 20.037838,23.3783787 Z M20.037838,3.19459461 C16.1571618,3.19459461 12.9962569,6.27630203 12.8688567,10.1259836 L12.864865,10.3675677 L12.8645946,15.2045946 L27.2105946,15.2045946 L27.2108111,10.3675677 C27.2108111,6.40604406 23.9993617,3.19459461 20.037838,3.19459461 Z"/>
</svg>
