<svg xmlns="http://www.w3.org/2000/svg" width="40" height="40" viewBox="0 0 40 40">
  <path fill="currentColor" fill-rule="evenodd" d="M17.1999138,8.40000013 C17.7522323,8.40000013 18.2000002,8.84768162 18.2000002,9.40000013 L18.2000002,9.40000013 L18.2,23.454 L26.8838917,34.5053446 C27.1988906,34.9062162 27.1588437,35.4727431 26.8092294,35.8259072 L26.8092294,35.8259072 L26.7154028,35.9095338 C21.4133351,40.075236 14.0178724,40.307306 8.46505367,36.4822308 C2.91223495,32.6571556 0.493508678,25.6645532 2.49617784,19.2260509 C4.49884699,12.7875485 10.4571402,8.40058288 17.1999138,8.40000013 Z M16.2,10.437 L15.9318873,10.4598921 C10.5970956,10.9651825 6.02177576,14.6251795 4.40592676,19.8200703 C2.6633445,25.4224035 4.76795048,31.5068757 9.59962393,34.8351879 C14.1470813,37.9677171 20.114798,37.9731103 24.6474416,34.9409681 L24.6474416,34.9409681 L24.669,34.925 L16.4137089,24.4178562 C16.3029501,24.2769032 16.2326318,24.1094577 16.2089349,23.9333893 L16.2089349,23.9333893 L16.2000002,23.8000003 L16.2,10.437 Z M36.4000054,20.4000003 C36.9519683,20.4000003 37.3995502,20.8472134 37.4000103,21.3991762 C37.4039007,26.1260408 35.2336741,30.5920727 31.5148937,33.5099336 C31.0806127,33.8506828 30.4523689,33.7750934 30.1113091,33.3410564 L30.1113091,33.3410564 L21.2137089,22.0178562 C20.698138,21.361734 21.1655485,20.4000003 22.0000003,20.4000003 L22.0000003,20.4000003 Z M35.362,22.4 L24.057,22.4 L31.042,31.289 L31.128803,31.2116348 C33.5716361,28.9420094 35.0795394,25.8389491 35.3544457,22.5158371 L35.3544457,22.5158371 L35.362,22.4 Z M22.0000003,1.20000002 C30.5051856,1.20000002 37.4000005,8.09481497 37.4000005,16.6000002 C37.4000005,17.152285 36.9522853,17.6000002 36.4000005,17.6000002 L36.4000005,17.6000002 L22.0000003,17.6000002 C21.4477155,17.6000002 21.0000003,17.152285 21.0000003,16.6000002 L21.0000003,16.6000002 L21.0000003,2.20000002 C21.0000003,1.64771527 21.4477155,1.20000002 22.0000003,1.20000002 Z M23,3.237 L23,15.6 L35.362,15.6 L35.3436971,15.3633566 C34.7568276,8.94965831 29.6503422,3.84317292 23.236644,3.25630346 L23.236644,3.25630346 L23,3.237 Z"/>
</svg>
