<svg xmlns="http://www.w3.org/2000/svg" width="40" height="40" viewBox="0 0 40 40">
  <path fill="currentColor" fill-rule="evenodd" d="M17.1235,2.125 C17.6363358,2.125 18.0590072,2.51104019 18.1167723,3.00837887 L18.1235,3.125 L18.1235,13.2529866 C18.1154623,15.9429255 16.18181,18.1792637 13.6242515,18.6561191 L13.6235,36.875 C13.6235,37.4272847 13.1757847,37.875 12.6235,37.875 C12.1106642,37.875 11.6879928,37.4889598 11.6302277,36.9916211 L11.6235,36.875 L11.6241009,18.6571433 C9.13820405,18.1954913 7.23841207,16.066165 7.12850238,13.4710225 L7.1235,13.25 L7.1235,3.125 C7.1235,2.57271525 7.57121525,2.125 8.1235,2.125 C8.63633584,2.125 9.05900716,2.51104019 9.11677227,3.00837887 L9.1235,3.125 L9.1235,13.2470134 C9.12822952,14.831829 10.1818527,16.1695668 11.6234322,16.6025874 L11.6235,3.125 C11.6235,2.57271525 12.0712153,2.125 12.6235,2.125 C13.1363358,2.125 13.5590072,2.51104019 13.6167723,3.00837887 L13.6235,3.125 L13.6242977,16.6013959 C15.0084123,16.184842 16.0325663,14.93812 16.1177702,13.4416681 L16.1235,13.25 L16.1235,3.125 C16.1235,2.57271525 16.5712153,2.125 17.1235,2.125 Z M29.0460668,3.10012678 C32.6352402,8.70352664 33.4995172,13.3493773 33.8727751,23.3369307 C33.9063662,24.2186578 33.5708212,25.0744662 32.9468937,25.6983937 C32.3749602,26.2703272 31.6081823,26.5999394 30.8345264,26.6255876 L27.122,26.625 L27.122,36.875 C27.122,37.3878358 26.7359598,37.8105072 26.2386211,37.8682723 L26.122,37.875 C25.6091642,37.875 25.1864928,37.4889598 25.1287277,36.9916211 L25.122,36.875 L25.122,4.24809758 C25.1280431,3.30743507 25.7492928,2.48166434 26.6514394,2.21518013 C27.5535859,1.94869592 28.5238186,2.30436019 29.0460668,3.10012678 Z M27.2607917,4.12783687 L27.2180161,4.13324968 C27.1755298,4.14579966 27.1429651,4.1781042 27.1291872,4.21568993 L27.122,4.2545 L27.122,24.625 L30.6615693,24.6257249 C30.9403609,24.636346 31.212128,24.5469244 31.4290254,24.3762194 L31.5326801,24.2841801 C31.7628383,24.054022 31.8866162,23.7383262 31.8741976,23.4123463 L31.8313271,22.3421681 C31.448599,13.4316979 30.5744358,9.19421219 27.3680007,4.18823046 C27.3436913,4.15119478 27.3033444,4.12937345 27.2607917,4.12783687 Z"/>
</svg>
