<svg xmlns="http://www.w3.org/2000/svg" width="40" height="40" viewBox="0 0 40 40">
  <path fill="currentColor" fill-rule="evenodd" d="M34.1421356,5.85786438 C41.9526215,13.6683502 41.9526215,26.3316498 34.1421356,34.1421356 C26.3316498,41.9526215 13.6683502,41.9526215 5.85786438,34.1421356 C-1.95262146,26.3316498 -1.95262146,13.6683502 5.85786438,5.85786438 C13.6683502,-1.95262146 26.3316498,-1.95262146 34.1421356,5.85786438 Z M32.7279221,7.27207794 C25.6984848,0.242640688 14.3015152,0.242640688 7.27207794,7.27207794 C0.242640688,14.3015152 0.242640688,25.6984848 7.27207794,32.7279221 C14.3015152,39.7573593 25.6984848,39.7573593 32.7279221,32.7279221 C39.7573593,25.6984848 39.7573593,14.3015152 32.7279221,7.27207794 Z M20.9922086,11.3892808 L21,11.5147186 L21.0005561,18.9994439 L28.4852814,19 C29.0375661,19 29.4852814,19.4477153 29.4852814,20 C29.4852814,20.5098013 29.1037962,20.930502 28.6107192,20.9922086 L28.4852814,21 L21.0005561,21.0005561 L21,28.4852814 C21,29.0375661 20.5522847,29.4852814 20,29.4852814 C19.4901987,29.4852814 19.069498,29.1037962 19.0077914,28.6107192 L19,28.4852814 L18.9994439,21.0005561 L11.5147186,21 C10.9624339,21 10.5147186,20.5522847 10.5147186,20 C10.5147186,19.4901987 10.8962038,19.069498 11.3892808,19.0077914 L11.5147186,19 L18.9994439,18.9994439 L19,11.5147186 C19,10.9624339 19.4477153,10.5147186 20,10.5147186 C20.5098013,10.5147186 20.930502,10.8962038 20.9922086,11.3892808 Z"/>
</svg>
