<svg xmlns="http://www.w3.org/2000/svg" width="40" height="40" viewBox="0 0 40 40">
  <path fill="currentColor" fill-rule="evenodd" d="M23.95732,30.5784 C23.95732,32.4399579 22.4224,33.9479495 20.52766,33.9479495 C18.63292,33.9479495 17.098,32.4399579 17.098,30.5784 C17.098,28.71696 18.63292,27.2089684 20.52766,27.2089684 C22.4224,27.2089684 23.95732,28.71696 23.95732,30.5784 Z M25.91446,18.7456 C24.83494,18.2982484 23.71498,17.9880084 22.56562,17.8220716 L28.39312,23.54368 L30.31354,21.6568926 C29.04304,20.4086821 27.5632,19.4273853 25.91446,18.7456 Z M14.64508,18.9584589 C13.1212,19.6619368 11.75152,20.6214821 10.57648,21.8192337 L14.79928,25.8308968 C16.02574,24.5826274 17.59366,23.7926147 19.30114,23.5328926 L14.64508,18.9584589 Z M7.6573,12.0896168 C6.34636,12.9409937 5.12362,13.9186358 4,15.0261979 L8.15302,19.1063579 C9.28402,17.9952 10.55086,17.0500379 11.92786,16.2888505 L7.6573,12.0896168 Z M29.57914,10.0838147 C26.71126,8.90050526 23.6635,8.29806316 20.52766,8.29806316 C18.24004,8.29806316 16.00378,8.61914947 13.84828,9.25047579 L18.83482,14.1495326 C19.393,14.0954189 19.9585,14.0701895 20.5276,14.0701895 C25.17268,14.0701895 29.54608,15.8379032 32.84716,19.0486484 L36.98554,14.9504505 C34.84114,12.8652463 32.3515,11.2273937 29.57914,10.0838147 Z M7.19278,9.52287158 L27.75592,29.7252547 C28.4194383,30.3771323 29.4829217,30.3771323 30.14644,29.7252547 C30.7949827,29.0880899 30.8042064,28.045818 30.1670416,27.3972753 C30.1602353,27.3903474 30.1533678,27.38348 30.14644,27.3766737 L9.5833,7.17429053 C8.91978174,6.52241294 7.85629826,6.52241294 7.19278,7.17429053 C6.54423725,7.81145533 6.53501361,8.85372724 7.17217841,9.50226999 C7.1789847,9.50919782 7.18585217,9.51606529 7.19278,9.52287158 Z" transform="matrix(-1 0 0 1 40.986 0)"/>
</svg>
