<svg xmlns="http://www.w3.org/2000/svg" width="40" height="40" viewBox="0 0 40 40">
  <path fill="currentColor" fill-rule="evenodd" d="M27.875,2.125 C28.3878358,2.125 28.8105072,2.51104019 28.8682723,3.00837887 L28.875,3.125 L28.875,6.625 L34.625,6.625 C36.3580315,6.625 37.7742459,7.98145477 37.8698552,9.69057609 L37.875,9.875 L37.875,34.625 C37.875,36.4199254 36.4199254,37.875 34.625,37.875 L34.625,37.875 L5.375,37.875 C3.58007456,37.875 2.125,36.4199254 2.125,34.625 L2.125,34.625 L2.125,9.875 C2.125,8.08007456 3.58007456,6.625 5.375,6.625 L5.375,6.625 L11.125,6.625 L11.125,3.125 C11.125,2.57271525 11.5727153,2.125 12.125,2.125 C12.6378358,2.125 13.0605072,2.51104019 13.1182723,3.00837887 L13.125,3.125 L13.125,6.625 L26.875,6.625 L26.875,3.125 C26.875,2.57271525 27.3227153,2.125 27.875,2.125 Z M11.125,8.625 L5.375,8.625 C4.68464406,8.625 4.125,9.18464406 4.125,9.875 L4.125,9.875 L4.125,34.625 C4.125,35.3153559 4.68464406,35.875 5.375,35.875 L5.375,35.875 L34.625,35.875 C35.3153559,35.875 35.875,35.3153559 35.875,34.625 L35.875,34.625 L35.875,9.875 C35.875,9.18464406 35.3153559,8.625 34.625,8.625 L34.625,8.625 L28.875,8.625 L28.875,11 C28.875,11.5522847 28.4272847,12 27.875,12 C27.3621642,12 26.9394928,11.6139598 26.8817277,11.1166211 L26.875,11 L26.875,8.625 L13.125,8.625 L13.125,11 C13.125,11.5522847 12.6772847,12 12.125,12 C11.6121642,12 11.1894928,11.6139598 11.1317277,11.1166211 L11.125,11 L11.125,8.625 Z M30.125,15.625 C30.6772847,15.625 31.125,16.0727153 31.125,16.625 L31.125,16.625 L31.125,30.125 C31.125,30.6772847 30.6772847,31.125 30.125,31.125 L30.125,31.125 L9.875,31.125 C9.32271525,31.125 8.875,30.6772847 8.875,30.125 L8.875,30.125 L8.875,23.375 C8.875,22.8227153 9.32271525,22.375 9.875,22.375 L9.875,22.375 L15.625,22.375 L15.625,16.625 C15.625,16.1121642 16.0110402,15.6894928 16.5083789,15.6317277 L16.625,15.625 Z M15.625,24.375 L10.875,24.375 L10.875,29.125 L15.625,29.125 L15.625,24.375 Z M22.375,24.375 L17.625,24.375 L17.625,29.125 L22.375,29.125 L22.375,24.375 Z M29.125,24.375 L24.375,24.375 L24.375,29.125 L29.125,29.125 L29.125,24.375 Z M22.375,17.625 L17.625,17.625 L17.625,22.375 L22.375,22.375 L22.375,17.625 Z M29.125,17.625 L24.375,17.625 L24.375,22.375 L29.125,22.375 L29.125,17.625 Z"/>
</svg>
