<svg xmlns="http://www.w3.org/2000/svg" width="104" height="32" viewBox="0 0 104 32">
  <g fill="none" fill-rule="evenodd">
    <path fill="currentColor" d="M36.9688769,27 C33.6562923,27 32,25.0444444 32,21.6222222 L32,20.4 L35.1898963,20.4 L35.1898963,21.8666667 C35.1898963,23.3944444 35.864682,23.9444444 36.9382048,23.9444444 C38.0117276,23.9444444 38.6865133,23.3944444 38.6865133,21.8055556 C38.6865133,20.0333333 38.0117276,18.9027778 35.8033378,16.9777778 C32.9815065,14.5027778 32.0613442,12.7611111 32.0613442,10.3166667 C32.0613442,6.95555556 33.8096527,5 37.0915652,5 C40.3734777,5 41.9990979,6.95555556 41.9990979,10.3777778 L41.9990979,11.2638889 L38.8092016,11.2638889 L38.8092016,10.1638889 C38.8092016,8.63611111 38.19576,8.05555556 37.1222373,8.05555556 C36.0487145,8.05555556 35.4352729,8.63611111 35.4352729,10.1027778 C35.4352729,11.6611111 36.1407307,12.7916667 38.3491204,14.7166667 C41.1709517,17.1916667 42.060442,18.9027778 42.060442,21.5611111 C42.060442,25.0444444 40.2814614,27 36.9688769,27 Z M48.7469553,27 C45.4957149,27 43.7780785,25.0444444 43.7780785,21.7444444 L43.7780785,10.2555556 C43.7780785,6.95555556 45.4957149,5 48.7469553,5 C51.9981958,5 53.7158322,6.95555556 53.7158322,10.2555556 L53.7158322,12.5166667 L50.5259359,12.5166667 L50.5259359,10.0416667 C50.5259359,8.63611111 49.8511502,8.05555556 48.8389716,8.05555556 C47.826793,8.05555556 47.1520072,8.63611111 47.1520072,10.0416667 L47.1520072,21.9888889 C47.1520072,23.3944444 47.826793,23.9444444 48.8389716,23.9444444 C49.8511502,23.9444444 50.5259359,23.3944444 50.5259359,21.9888889 L50.5259359,18.7194444 L53.7158322,18.7194444 L53.7158322,21.7444444 C53.7158322,25.0444444 51.9981958,27 48.7469553,27 Z M60.6477221,27 C57.3351376,27 55.6175011,25.0444444 55.6175011,21.6222222 L55.6175011,5.30555556 L58.9914299,5.30555556 L58.9914299,21.8666667 C58.9914299,23.3944444 59.6355435,23.9444444 60.7090663,23.9444444 C61.7825891,23.9444444 62.4267028,23.3944444 62.4267028,21.8666667 L62.4267028,5.30555556 L65.6779432,5.30555556 L65.6779432,21.6222222 C65.6779432,25.0444444 63.9603067,27 60.6477221,27 Z M68.0703654,26.6944444 L68.0703654,5.30555556 L71.4442941,5.30555556 L71.4442941,23.6388889 L76.9959405,23.6388889 L76.9959405,26.6944444 L68.0703654,26.6944444 Z M78.6215607,26.6944444 L78.6215607,5.30555556 L83.5904375,5.30555556 C86.9643663,5.30555556 88.6206585,7.16944444 88.6206585,10.5916667 L88.6206585,12.7 C88.6206585,16.1222222 86.9643663,17.9861111 83.5904375,17.9861111 L81.9954894,17.9861111 L81.9954894,26.6944444 L78.6215607,26.6944444 Z M81.9954894,14.9305556 L83.5904375,14.9305556 C84.6639603,14.9305556 85.2467298,14.4416667 85.2467298,12.9138889 L85.2467298,10.3777778 C85.2467298,8.85 84.6639603,8.36111111 83.5904375,8.36111111 L81.9954894,8.36111111 L81.9954894,14.9305556 Z M93.0987821,26.6944444 L93.0987821,8.36111111 L89.571493,8.36111111 L89.571493,5.30555556 L100,5.30555556 L100,8.36111111 L96.4727109,8.36111111 L96.4727109,26.6944444 L93.0987821,26.6944444 Z"/>
    <path fill="currentColor" d="M7.31732324,13.7228788 L13.7228788,7.31732324 L13.2877362,6.8821806 C12.2783811,5.87282551 12.0454156,4.46930299 12.7673933,3.74732531 L14.7282777,1.78644095 C15.4502554,1.06446327 16.8537779,1.29742869 17.863133,2.30678379 L22.6932162,7.13686703 C23.7025713,8.14622212 23.9355367,9.54974465 23.213559,10.2717223 L21.2526747,12.2326067 C20.530697,12.9545844 19.1271745,12.7216189 18.1178194,11.7122638 L17.6826768,11.2771212 L11.2771212,17.6826768 L11.7122638,18.1178194 C12.7216189,19.1271745 12.9545844,20.530697 12.2326067,21.2526747 L10.2717223,23.213559 C9.54974465,23.9355367 8.14622212,23.7025713 7.13686703,22.6932162 L2.30678379,17.863133 C1.29742869,16.8537779 1.06446327,15.4502554 1.78644095,14.7282777 L3.74732531,12.7673933 C4.46930299,12.0454156 5.87282551,12.2783811 6.8821806,13.2877362 L7.31732324,13.7228788 Z" transform="translate(3 4)"/>
  </g>
</svg>
