<svg xmlns="http://www.w3.org/2000/svg" width="104" height="32" viewBox="0 0 104 32">
  <g fill="none" fill-rule="evenodd">
    <path fill="currentColor" d="M37.9219487,27 C34.6406496,27 33,25.0444444 33,21.6222222 L33,20.4 L36.1597695,20.4 L36.1597695,21.8666667 C36.1597695,23.3944444 36.8281823,23.9444444 37.8915663,23.9444444 C38.9549502,23.9444444 39.623363,23.3944444 39.623363,21.8055556 C39.623363,20.0333333 38.9549502,18.9027778 36.7674175,16.9777778 C33.9722368,14.5027778 33.0607648,12.7611111 33.0607648,10.3166667 C33.0607648,6.95555556 34.7925616,5 38.0434783,5 C41.294395,5 42.9046621,6.95555556 42.9046621,10.3777778 L42.9046621,11.2638889 L39.7448926,11.2638889 L39.7448926,10.1638889 C39.7448926,8.63611111 39.1372446,8.05555556 38.0738607,8.05555556 C37.0104767,8.05555556 36.4028287,8.63611111 36.4028287,10.1027778 C36.4028287,11.6611111 37.1016239,12.7916667 39.2891566,14.7166667 C42.0843373,17.1916667 42.9654269,18.9027778 42.9654269,21.5611111 C42.9654269,25.0444444 41.2032478,27 37.9219487,27 Z M44.8795181,26.6944444 L44.8795181,5.30555556 L48.221582,5.30555556 L48.221582,14.0138889 L51.8067051,14.0138889 L51.8067051,5.30555556 L55.148769,5.30555556 L55.148769,26.6944444 L51.8067051,26.6944444 L51.8067051,17.0694444 L48.221582,17.0694444 L48.221582,26.6944444 L44.8795181,26.6944444 Z M57.6401257,26.6944444 L57.6401257,5.30555556 L62.5924568,5.30555556 C66.0560503,5.30555556 67.5447878,6.925 67.5447878,10.225 L67.5447878,11.5388889 C67.5447878,13.7388889 66.8459927,15.1444444 65.3572551,15.7555556 L65.3572551,15.8166667 C67.0282871,16.3361111 67.5751702,17.925 67.5751702,20.3388889 L67.5751702,24.0972222 C67.5751702,25.1361111 67.6055526,25.9 67.939759,26.6944444 L64.5369303,26.6944444 C64.3546359,26.1444444 64.2331063,25.8083333 64.2331063,24.0666667 L64.2331063,20.1555556 C64.2331063,18.1694444 63.6558408,17.5277778 62.1367208,17.5277778 L60.9821896,17.5277778 L60.9821896,26.6944444 L57.6401257,26.6944444 Z M60.9821896,14.4722222 L62.1974856,14.4722222 C63.443164,14.4722222 64.2027239,13.9222222 64.2027239,12.2111111 L64.2027239,10.5611111 C64.2027239,9.03333333 63.6862232,8.36111111 62.5013096,8.36111111 L60.9821896,8.36111111 L60.9821896,14.4722222 Z M69.8842326,26.6944444 L69.8842326,5.30555556 L78.9989523,5.30555556 L78.9989523,8.36111111 L73.2262965,8.36111111 L73.2262965,14.0138889 L77.8140388,14.0138889 L77.8140388,17.0694444 L73.2262965,17.0694444 L73.2262965,23.6388889 L78.9989523,23.6388889 L78.9989523,26.6944444 L69.8842326,26.6944444 Z M80.9130435,26.6944444 L80.9130435,5.30555556 L86.0172865,5.30555556 C89.3593504,5.30555556 91,7.16944444 91,10.5916667 L91,21.4083333 C91,24.8305556 89.3593504,26.6944444 86.0172865,26.6944444 L80.9130435,26.6944444 Z M84.2551074,23.6388889 L85.9565217,23.6388889 C87.0199057,23.6388889 87.6579361,23.0888889 87.6579361,21.5611111 L87.6579361,10.4388889 C87.6579361,8.91111111 87.0199057,8.36111111 85.9565217,8.36111111 L84.2551074,8.36111111 L84.2551074,23.6388889 Z"/>
    <path fill="currentColor" d="M19.4791667,16.8913043 C19.4791667,20.5412174 16.1213377,23.5 11.9791667,23.5 C7.83699561,23.5 4.47916667,20.5412174 4.47916667,16.8913043 C4.47916667,12.9782609 6.22637061,10.1986087 8.14972588,6.74843478 C9.75936404,3.86113043 10.7872588,1.5 11.9791667,1.5 C13.1555811,1.5 14.1585088,3.80373913 15.7472259,6.63878261 C17.690318,10.1065217 19.4791667,12.8913043 19.4791667,16.8913043" transform="translate(8 4)"/>
  </g>
</svg>
