<svg xmlns="http://www.w3.org/2000/svg" width="104" height="32" viewBox="0 0 104 32">
  <g fill="none" fill-rule="evenodd">
    <path fill="currentColor" d="M44.4802632,26.6944444 L44.4802632,8.36111111 L41,8.36111111 L41,5.30555556 L51.2894737,5.30555556 L51.2894737,8.36111111 L47.8092105,8.36111111 L47.8092105,26.6944444 L44.4802632,26.6944444 Z M57.7052632,27 C54.4368421,27 52.6513158,25.0444444 52.6513158,21.6222222 L52.6513158,10.3777778 C52.6513158,6.95555556 54.4368421,5 57.7052632,5 C60.9736842,5 62.7592105,6.95555556 62.7592105,10.3777778 L62.7592105,21.6222222 C62.7592105,25.0444444 60.9736842,27 57.7052632,27 Z M57.7052632,23.9444444 C58.7644737,23.9444444 59.4302632,23.3638889 59.4302632,21.8361111 L59.4302632,10.1638889 C59.4302632,8.63611111 58.7644737,8.05555556 57.7052632,8.05555556 C56.6460526,8.05555556 55.9802632,8.63611111 55.9802632,10.1638889 L55.9802632,21.8361111 C55.9802632,23.3638889 56.6460526,23.9444444 57.7052632,23.9444444 Z M64.9986842,26.6944444 L64.9986842,5.30555556 L69.175,5.30555556 L72.4131579,18.1083333 L72.4736842,18.1083333 L72.4736842,5.30555556 L75.4394737,5.30555556 L75.4394737,26.6944444 L72.0197368,26.6944444 L68.025,11.0805556 L67.9644737,11.0805556 L67.9644737,26.6944444 L64.9986842,26.6944444 Z M77.9210526,26.6944444 L77.9210526,5.30555556 L87,5.30555556 L87,8.36111111 L81.25,8.36111111 L81.25,14.0138889 L85.8197368,14.0138889 L85.8197368,17.0694444 L81.25,17.0694444 L81.25,23.6388889 L87,23.6388889 L87,26.6944444 L77.9210526,26.6944444 Z"/>
    <path fill="currentColor" d="M20.846448,16.1923077 C20.846448,16.1923077 21.1644983,16.8470975 21.0054728,17.1744987 C21.0054728,17.1744987 17.9839904,18.3203841 16.0756861,20.2847661 C14.1673813,22.2491482 13.2132291,24.2135302 13.0542037,24.3772246 C12.8951782,24.5409251 12.2590764,24.5409251 12.1000509,24.3772246 C11.9410255,24.2135302 10.9868734,21.5943521 8.28344184,19.6299763 C5.58001031,17.6655942 3.98975636,17.1744987 3.98975636,17.1744987 C3.98975636,17.1744987 3.83073091,16.3560083 4.14878182,16.1923077 C4.14878182,16.1923077 11.9410255,18.3203841 20.846448,16.1923077 Z M6.89393952,0.5 C6.34079378,1.67061157 5.79344221,2.82873695 5.25879831,3.96018729 C6.17908376,4.40250101 7.08962445,4.77084353 7.92536768,5.25711115 C9.41677396,6.12471197 10.6022085,7.31972835 11.584913,8.69453322 C11.7412239,8.91316762 11.9055676,8.97282385 12.1556388,8.93877061 C12.326896,8.91537478 12.5098733,8.88516829 12.6741512,8.91871704 C13.0371428,8.9927513 13.2608109,8.90137511 13.4864543,8.59268882 C14.7929081,6.80539835 16.4333167,5.3810271 18.5362055,4.48889534 C18.9307358,4.32152998 19.3421877,4.19074032 19.7697053,4.03428462 C19.2104362,2.85169135 18.6536691,1.67445832 18.0982189,0.5 L18.0982189,0.5 L18.8113627,0.5 C19.6009501,1.98509952 20.3889573,3.47101884 21.1575408,4.96608209 C22.3388273,7.26417113 22.2652808,9.56535018 21.015847,11.8266743 C20.9381525,11.9671755 20.7713067,12.094749 20.6149958,12.1579367 C19.2578431,12.7060046 17.8941061,12.5346033 16.572706,12.0719207 C15.7242551,11.7749008 14.9321657,11.3318934 14.1078791,10.9687219 C13.9079144,10.8805619 13.6833245,10.8137166 13.4655822,10.7989602 C13.0618338,10.7717176 12.6533448,10.8100591 12.2492015,10.7850236 C11.589522,10.7441598 11.0078663,10.8607606 10.4189021,11.2047613 C9.29048738,11.8638806 8.05929203,12.3107348 6.72821308,12.4516774 C5.87337543,12.5422337 5.04112187,12.4649203 4.25476078,12.1110819 C4.14717357,12.0627137 4.0461048,11.9578424 3.98947995,11.8551782 C2.69948694,9.514964 2.6639318,7.16522755 3.9233079,4.79802306 C4.68451702,3.36740872 5.43960277,1.9339566 6.19383255,0.5 L6.19383255,0.5 Z" transform="translate(13 4)"/>
  </g>
</svg>
