<svg xmlns="http://www.w3.org/2000/svg" width="24" height="24" viewBox="0 0 24 24">
  <path fill="currentColor" fill-rule="evenodd" d="M6.81732324,13.2228788 L13.2228788,6.81732324 L12.7877362,6.3821806 C11.7783811,5.37282551 11.5454156,3.96930299 12.2673933,3.24732531 L14.2282777,1.28644095 C14.9502554,0.564463272 16.3537779,0.797428693 17.363133,1.80678379 L22.1932162,6.63686703 C23.2025713,7.64622212 23.4355367,9.04974465 22.713559,9.77172233 L20.7526747,11.7326067 C20.030697,12.4545844 18.6271745,12.2216189 17.6178194,11.2122638 L17.1826768,10.7771212 L10.7771212,17.1826768 L11.2122638,17.6178194 C12.2216189,18.6271745 12.4545844,20.030697 11.7326067,20.7526747 L9.77172233,22.713559 C9.04974465,23.4355367 7.64622212,23.2025713 6.63686703,22.1932162 L1.80678379,17.363133 C0.797428693,16.3537779 0.564463272,14.9502554 1.28644095,14.2282777 L3.24732531,12.2673933 C3.96930299,11.5454156 5.37282551,11.7783811 6.3821806,12.7877362 L6.81732324,13.2228788 Z"/>
</svg>
