<svg xmlns="http://www.w3.org/2000/svg" width="24" height="24" viewBox="0 0 24 24">
  <path fill="currentColor" fill-rule="evenodd" d="M20.346448,15.6923077 C20.346448,15.6923077 20.6644983,16.3470975 20.5054728,16.6744987 C20.5054728,16.6744987 17.4839904,17.8203841 15.5756861,19.7847661 C13.6673813,21.7491482 12.7132291,23.7135302 12.5542037,23.8772246 C12.3951782,24.0409251 11.7590764,24.0409251 11.6000509,23.8772246 C11.4410255,23.7135302 10.4868734,21.0943521 7.78344184,19.1299763 C5.08001031,17.1655942 3.48975636,16.6744987 3.48975636,16.6744987 C3.48975636,16.6744987 3.33073091,15.8560083 3.64878182,15.6923077 C3.64878182,15.6923077 11.4410255,17.8203841 20.346448,15.6923077 Z M6.39393952,0 C5.84079378,1.17061157 5.29344221,2.32873695 4.75879831,3.46018729 C5.67908376,3.90250101 6.58962445,4.27084353 7.42536768,4.75711115 C8.91677396,5.62471197 10.1022085,6.81972835 11.084913,8.19453322 C11.2412239,8.41316762 11.4055676,8.47282385 11.6556388,8.43877061 C11.826896,8.41537478 12.0098733,8.38516829 12.1741512,8.41871704 C12.5371428,8.4927513 12.7608109,8.40137511 12.9864543,8.09268882 C14.2929081,6.30539835 15.9333167,4.8810271 18.0362055,3.98889534 C18.4307358,3.82152998 18.8421877,3.69074032 19.2697053,3.53428462 C18.7104362,2.35169135 18.1536691,1.17445832 17.5982189,0 L17.5982189,0 L18.3113627,0 C19.1009501,1.48509952 19.8889573,2.97101884 20.6575408,4.46608209 C21.8388273,6.76417113 21.7652808,9.06535018 20.515847,11.3266743 C20.4381525,11.4671755 20.2713067,11.594749 20.1149958,11.6579367 C18.7578431,12.2060046 17.3941061,12.0346033 16.072706,11.5719207 C15.2242551,11.2749008 14.4321657,10.8318934 13.6078791,10.4687219 C13.4079144,10.3805619 13.1833245,10.3137166 12.9655822,10.2989602 C12.5618338,10.2717176 12.1533448,10.3100591 11.7492015,10.2850236 C11.089522,10.2441598 10.5078663,10.3607606 9.91890206,10.7047613 C8.79048738,11.3638806 7.55929203,11.8107348 6.22821308,11.9516774 C5.37337543,12.0422337 4.54112187,11.9649203 3.75476078,11.6110819 C3.64717357,11.5627137 3.5461048,11.4578424 3.48947995,11.3551782 C2.19948694,9.014964 2.1639318,6.66522755 3.4233079,4.29802306 C4.18451702,2.86740872 4.93960277,1.4339566 5.69383255,0 L5.69383255,0 Z"/>
</svg>
