<svg xmlns="http://www.w3.org/2000/svg" width="16" height="16" viewBox="0 0 16 16">
  <path fill="currentColor" fill-rule="evenodd" d="M10.9975152,0.584493448 C12.9644903,1.37909773 14.535206,2.92243143 15.3641229,4.87497876 C16.1930399,6.82752608 16.2122574,9.02934451 15.4175479,10.9960591 C13.762651,15.0915303 9.100617,17.0701843 5.0046035,15.4155066 C0.908589993,13.7608288 -1.07032603,9.09941206 0.584570846,5.00394088 C2.23946772,0.908469694 6.90150172,-1.07018432 10.9975152,0.584493448 Z M1.82065226,5.50328406 C1.24564543,6.92628749 1.19707747,8.43128076 1.58333207,9.80245794 C1.6010705,9.86542814 1.60669272,9.92887375 1.65345823,9.95244964 C1.70022375,9.97602553 1.75021182,9.94231022 1.80567291,9.91821484 C2.17887258,9.7560762 2.40872461,9.65711987 2.495229,9.62134585 C2.80845704,9.48526834 3.16906143,9.6088684 3.33632592,9.89726335 L3.37163854,9.96728523 C3.5180605,10.3051232 3.36306252,10.6976941 3.02532068,10.8444213 C2.94970767,10.8755114 2.72802418,10.9709548 2.36027021,11.1307514 C2.29441872,11.1593653 2.2184187,11.2082058 2.2184187,11.2614753 C2.2184187,11.3147449 2.24563412,11.3639485 2.28919895,11.4364646 C3.00856139,12.6338824 4.10893075,13.6160137 5.50401281,14.1795888 C8.91735739,15.5584869 12.8023857,13.9096086 14.1814665,10.4967159 C14.7416183,9.11047492 14.8165247,7.58407015 14.4083175,6.16175263 C14.3868815,6.08706343 14.3983943,6.04753234 14.3305706,6.00499878 C14.2627468,5.96246523 14.1981044,5.99957662 14.12715,6.03007419 C13.9234807,6.11761504 13.6179769,6.24892633 13.2106384,6.42400804 C12.8721519,6.56952626 12.4797228,6.4137595 12.3332199,6.07573457 C12.1976823,5.76300995 12.3214107,5.40325395 12.6094587,5.23660464 L12.6805467,5.2009326 C13.112847,5.01515037 13.4370722,4.87581371 13.6532223,4.78292259 C13.7031422,4.7614694 13.7665199,4.74621432 13.7665199,4.69203071 C13.7665199,4.6378471 13.7412799,4.61124319 13.7093587,4.55831196 C12.9681377,3.3292299 11.8445238,2.3643273 10.4981059,1.82041121 C7.08476132,0.44151307 3.199733,2.09039141 1.82065226,5.50328406 Z M4.18461538,6.93613594 L5.26254808,7.14052819 C5.39198077,7.56004832 5.7699976,7.86681821 6.22067308,7.86681821 C6.49298077,7.86681821 6.73785577,7.75334611 6.91888834,7.57210429 L7.00391587,7.47604748 L12.8,8.58921851 L12.8,9.28731476 C12.7442692,9.32384363 12.2951923,9.37050308 12.2951923,9.83759891 C12.2951923,10.2437494 12.6550242,10.3379215 12.7725978,10.3774173 L12.8,10.3878831 L12.8,11.6923077 L11.1004471,11.4462521 C11.2063053,11.2822266 11.2687332,11.0860633 11.2687332,10.8748597 C11.2687332,10.3027931 10.8159375,9.83759891 10.2591178,9.83759891 C9.85094712,9.83759891 9.48539904,10.0875442 9.32764663,10.4744943 C9.25323125,10.6569416 9.23664663,10.8494461 9.2680454,11.0403508 L9.3004375,11.1830472 L6.62145673,10.7912911 C6.69229808,10.5291926 6.72548077,10.4763614 6.72548077,10.3562293 C6.72548077,10.0703257 6.49895673,9.83759891 6.22067308,9.83759891 C5.98886538,9.83759891 5.78842142,10.0026728 5.73184935,10.2266414 L5.71759856,10.313183 L5.69442788,10.5998473 L4.18461538,10.312163 L4.18461538,6.93613594 Z M8.49230769,8.28170769 C8.07476442,8.28170769 7.73509615,8.6306768 7.73509615,9.0596533 C7.73509615,9.4886298 8.07476442,9.83759891 8.49230769,9.83759891 C8.90985096,9.83759891 9.24951923,9.4886298 9.24951923,9.0596533 C9.24951923,8.6306768 8.90985096,8.28170769 8.49230769,8.28170769 Z M8.07402404,3.07692308 L9.11433173,4.14569933 C9.00704327,4.16039386 8.90163942,4.18907412 8.80165385,4.24003821 C8.45508654,4.41654542 8.23990385,4.77284451 8.23990385,5.16992524 C8.23990385,5.74199187 8.69269952,6.20718606 9.24951923,6.20718606 C9.63601683,6.20718606 9.98281971,5.9861112 10.1546226,5.63005414 C10.1876482,5.56156035 10.2110115,5.49053872 10.2271354,5.41811614 L10.2461947,5.30857244 L12.8,7.9150187 L12.8,7.95801316 L7.21458894,6.88543362 C7.22254808,6.83305195 7.23030529,6.78046282 7.23030529,6.72583375 C7.23030529,6.15376712 6.77750962,5.68857294 6.2206899,5.68857294 C5.77827925,5.68857294 5.40249292,5.98264646 5.26651602,6.39029628 L5.23550721,6.50415383 L4.22323317,6.31238159 C4.49636779,5.0942052 5.13382212,4.52395378 5.21894952,4.39502226 C5.36091827,4.48949943 5.46887981,4.65129483 5.71586538,4.65129483 C5.99414904,4.65129483 6.22067308,4.41856808 6.22067308,4.13266442 C6.22067308,3.95970118 6.14971394,3.87891585 6.07574279,3.69279669 C6.19821474,3.63734789 6.60946755,3.36541136 7.27002195,3.21925939 L7.45632452,3.18277554 L8.07402404,3.07692308 Z"/>
</svg>
