<svg xmlns="http://www.w3.org/2000/svg" width="16" height="16" viewBox="0 0 16 16">
  <path fill="currentColor" fill-rule="evenodd" d="M0.484570227,5.2645833 C1.99550444,1.11388969 6.58561784,-1.02622454 10.7368755,0.484504391 C12.7303797,1.20998201 14.3540011,2.69755482 15.2505616,4.61997379 C16.1471221,6.54239276 16.2431801,8.74218333 15.5176039,10.7354167 C14.0066697,14.8861103 9.41655629,17.0262245 5.26529867,15.5154956 C1.11404105,14.0047667 -1.02636398,9.41527691 0.484570227,5.2645833 Z M13.5220682,4.26420333 C11.6869876,1.55081861 8.15197595,0.572904449 5.18298851,1.95730733 C2.21400107,3.3417102 0.691205836,6.67801842 1.59072002,9.82764645 C1.61747063,9.9215726 1.68408183,9.99903859 1.77294686,10.0395685 C1.84403889,10.0719924 1.92364834,10.0781662 1.99794782,10.0581556 L2.05246076,10.038239 L3.44740065,9.38837625 C3.77957651,9.24047257 4.16901553,9.38604159 4.32268958,9.71555187 C4.4653869,10.0215257 4.35590077,10.3812577 4.07784967,10.5586764 L4.01072982,10.5962754 L2.61533397,11.2473908 C2.52699466,11.2886328 2.46114544,11.3664819 2.43513352,11.4604297 C2.40912161,11.5543774 2.42555552,11.6550026 2.48010592,11.7357967 C3.88391015,13.8101808 6.33234766,14.9225102 8.81840898,14.6152988 C11.3044703,14.3080874 13.4083888,12.6332072 14.2648594,10.2795169 C14.7474263,8.96051632 14.7987594,7.52239265 14.4114541,6.17235355 C14.3847035,6.0784274 14.3180923,6.00096141 14.2292273,5.96043149 C14.1581352,5.92800755 14.0785258,5.92183379 14.0042263,5.94184443 L13.9497134,5.96176097 L12.5545455,6.61225004 C12.2223696,6.76015372 11.8329306,6.6145847 11.6792566,6.28507442 C11.5365592,5.97910059 11.6460454,5.61936859 11.9240965,5.44194987 L11.9912163,5.40435087 L13.3868402,4.75260922 C13.4751795,4.7113672 13.5410287,4.63351807 13.5670406,4.53957032 C13.5930525,4.44562257 13.5766186,4.34499738 13.5220682,4.26420333 Z M5.41430614,2.63303406 C5.49960994,2.59133415 5.59865267,2.58799387 5.68657286,2.62385171 C6.2892719,2.88610816 6.7882171,3.34043396 7.1055818,3.91596231 C7.23378143,4.1817342 7.31102731,4.46917593 7.333319,4.76340134 C7.34052437,4.82941342 7.38941865,4.88328082 7.45443357,4.89683467 C7.51944849,4.91038853 7.58579867,4.88054649 7.61878764,4.82291385 C7.97200597,4.26879586 8.49893675,3.84735024 9.11717039,3.62448919 C9.2076109,3.59266868 9.30737627,3.60133225 9.39097591,3.64826632 C9.47328679,3.69527851 9.53168194,3.77511145 9.55154826,3.86778735 C9.67375032,4.51324057 9.57842294,5.18099143 9.28049252,5.76648329 C9.04203733,6.16201 8.7054483,6.48924799 8.30333898,6.71648978 C8.17026869,6.79502323 8.1107244,6.95273306 8.1526754,7.09652063 L8.17321924,7.14960653 L8.41022505,7.63439938 C8.43904652,7.693893 8.50031824,7.73072412 8.56638719,7.72827021 C8.63245614,7.7258163 8.69082609,7.68454148 8.71515363,7.62307382 C8.7526583,7.52692804 8.79704594,7.43361053 8.84797145,7.3438468 C9.20201609,6.79120767 9.72888024,6.37112504 10.3465296,6.14900699 C10.4364074,6.11898427 10.5348176,6.12863448 10.6171492,6.17554421 C10.6994809,6.22245395 10.757949,6.30218767 10.7779317,6.39480506 C10.9019782,7.04026283 10.8084233,7.70863003 10.511918,8.29523689 C10.2733438,8.69066916 9.9367827,9.01788005 9.53476446,9.24524338 C9.40169417,9.32377682 9.34214987,9.48148666 9.38410087,9.62527423 L9.40464471,9.67836013 L9.62305455,10.1250308 C9.65187602,10.1845244 9.71314774,10.2213555 9.77921668,10.2189016 C9.84528563,10.2164477 9.90365558,10.1751728 9.92798312,10.1137052 C9.96540417,10.017487 10.0100128,9.92422037 10.0614312,9.83469516 C10.4146495,9.28057717 10.9415803,8.85913155 11.559814,8.6362705 C11.6502545,8.60444998 11.7500198,8.61311356 11.8336195,8.66004763 C11.9159304,8.70705982 11.9743255,8.78689276 11.9941918,8.87956866 C12.1184937,9.52501992 12.0249272,10.19347 11.7281782,10.7800005 C11.489604,11.1754328 11.1530429,11.5026437 10.7510246,11.730007 C10.6183322,11.8085714 10.5589464,11.9659284 10.6006783,12.1094868 L10.6211219,12.1624936 L10.9374498,12.8120487 C10.9956348,12.9311143 11.0040834,13.068426 10.9609337,13.1937248 C10.9264139,13.2939638 10.8611378,13.3799331 10.7753959,13.4400111 L10.707413,13.4800334 L10.6998498,13.4774296 C10.5807972,13.5357902 10.443399,13.5443341 10.3180316,13.5011726 C10.2177377,13.4666433 10.1317523,13.4012977 10.0717356,13.3154719 L10.0317744,13.247424 L9.71522951,12.598499 C9.63905166,12.4422637 9.45557011,12.3708089 9.29377277,12.4343675 C8.86678402,12.6111629 8.40145247,12.6750252 7.94261265,12.6198012 C7.80534529,12.5990253 7.67026733,12.5657336 7.5390684,12.5203424 C7.05639421,12.341134 6.62543472,12.0455498 6.28444239,11.6598264 C6.22375151,11.5870611 6.19690854,11.4919048 6.21062655,11.3981549 C6.22434456,11.304405 6.27732644,11.220926 6.35632214,11.1685948 C6.91287091,10.8186 7.56968227,10.6627628 8.2241658,10.7254242 C8.32605368,10.7405721 8.42676885,10.7627634 8.52558717,10.7918387 C8.58891547,10.8108519 8.65748987,10.7904679 8.70014443,10.7399509 C8.73426808,10.6995373 8.74659503,10.6460065 8.73512475,10.5958829 L8.7220288,10.5591872 L8.50446624,10.1121034 C8.42823819,9.95628004 8.24520283,9.88498664 8.08363975,9.94818894 C7.6567005,10.1248792 7.19141219,10.1885288 6.73269665,10.1329924 C6.59510115,10.1126797 6.45971212,10.0795196 6.32830512,10.0339468 C5.84563094,9.8547384 5.41467145,9.55915428 5.07367911,9.17343087 C5.01298823,9.10066552 4.98614527,9.00550925 4.99986328,8.91175934 C5.01358129,8.81800943 5.06656317,8.7345304 5.14555887,8.68219922 C5.70188544,8.33221818 6.35847016,8.17630589 7.01277226,8.23881164 C7.11486953,8.25395131 7.21574249,8.27643012 7.31460688,8.30607331 C7.37795736,8.3243717 7.44614865,8.30375851 7.48874942,8.25343265 C7.52283004,8.21317196 7.53544695,8.15990318 7.5245292,8.10976917 L7.51189578,8.07300866 L7.27510699,7.58758563 C7.19887894,7.43176224 7.01584358,7.36046885 6.8542805,7.42367115 C6.42724441,7.60029175 5.96195869,7.66414772 5.50312038,7.60910481 C5.36564006,7.58825938 5.23035264,7.55489538 5.09894587,7.50942904 C4.61627168,7.3302206 4.1853122,7.03463649 3.84431986,6.64891307 C3.78342999,6.57609081 3.75648805,6.480762 3.77025418,6.3868461 C3.7840203,6.29293021 3.83718799,6.20934062 3.91641663,6.15705125 C4.47319654,5.80783811 5.12974092,5.65226771 5.78404327,5.71451084 C5.84944979,5.72351276 5.91327429,5.68963588 5.94246424,5.63042386 C5.9716542,5.57121184 5.95965292,5.49996501 5.91267543,5.45357965 C5.69391318,5.25518714 5.5146607,5.01720736 5.38437238,4.75219213 C5.12649927,4.14898346 5.0756767,3.47736839 5.23984155,2.84223187 C5.26553718,2.75083407 5.32900233,2.67473398 5.41430614,2.63303406 Z"/>
</svg>
