<svg xmlns="http://www.w3.org/2000/svg" width="16" height="16" viewBox="0 0 16 16">
  <path fill="currentColor" fill-rule="evenodd" d="M12.6699069,8.66666667 C13.0389966,8.66666667 13.3333333,8.97099532 13.3333333,9.35261458 C13.3333333,9.70243223 13.0860087,9.9873043 12.7604949,10.0323537 L12.6699069,10.0385625 L10.2886015,10.0385625 L10.2886015,11.0297799 L12.3140292,11.0297799 C12.6216039,11.0297799 12.8772669,11.2411193 12.9539441,11.5324102 L12.9714506,11.6220646 L12.9774556,11.7157278 C12.9774556,12.0655455 12.730131,12.3504176 12.4046172,12.395467 L12.3140292,12.4016758 L10.2886015,12.4016758 L10.2886015,13.9234807 C10.2886015,14.2740649 10.0608767,14.5634563 9.74803888,14.644202 L9.66071639,14.6609397 L9.56981629,14.6666667 C9.1999179,14.6666667 8.90045284,14.3864552 8.85657004,14.0174666 L8.85103111,13.9234807 L8.85103111,9.40985261 C8.85103111,9.02739719 9.12204245,8.71776612 9.4789162,8.67239362 L9.56981629,8.66666667 L12.6699069,8.66666667 Z M4.93549716,8.66666667 C6.64976523,8.66666667 7.90148331,9.84286714 7.98302644,11.457245 L7.9872587,11.6421361 C7.9872587,13.2889685 6.78981754,14.5323358 5.11086969,14.6133971 L4.93549716,14.6176055 L3.38545185,14.6176055 C3.01555345,14.6176055 2.71608839,14.3373941 2.67220559,13.9684054 L2.66666667,13.8744195 L2.66666667,9.40985261 C2.66666667,9.02739719 2.93767801,8.71776612 3.29455176,8.67239362 L3.38545185,8.66666667 L4.93549716,8.66666667 Z M4.93549716,10.0303856 L4.10423703,10.0303856 L4.10423703,13.2538865 L4.93549716,13.2538865 C5.82248844,13.2538865 6.43104254,12.6744704 6.48968047,11.7991208 L6.49432957,11.6421361 C6.49432957,10.7327878 5.92683507,10.0965965 5.07270146,10.0352507 L4.93549716,10.0303856 Z M5.60694757,1.33333333 C6.40568029,1.33333333 6.97804837,1.5095212 7.51531721,1.89750659 C7.68821452,2.02859398 7.80615418,2.23513822 7.80615418,2.48172234 C7.80615418,2.87814763 7.4956883,3.19913292 7.11225474,3.19913292 C6.97571743,3.19913292 6.86868298,3.16670209 6.76482682,3.10372196 L6.56089364,2.9638096 C6.26593069,2.7754273 5.96380919,2.68834368 5.56834995,2.68834368 C4.81111818,2.68834368 4.18904792,3.34858168 4.12873397,4.18406682 L4.12394125,4.33333333 C4.12394125,5.30015731 4.76132705,5.99428515 5.65326472,5.99428515 C6.00961461,5.99428515 6.32684243,5.9152119 6.58563157,5.76240596 L6.66538008,5.70873978 L6.66538008,5.08266824 L5.9697652,5.08266824 C5.68444307,5.08266824 5.44490406,4.8906781 5.3698034,4.62385119 L5.35102292,4.53229786 L5.34534148,4.44506848 C5.34534148,4.11825858 5.58027288,3.84813293 5.88503959,3.8053815 L5.9697652,3.79948763 L7.32840142,3.79948763 C7.68946579,3.79948763 7.98177895,4.07298989 8.02461373,4.43314373 L8.03002037,4.5248793 L8.03002037,5.88166322 C8.03002037,6.27977977 7.87901781,6.56343248 7.56205243,6.75827102 C6.99539682,7.1180068 6.34480163,7.33333333 5.6146671,7.33333333 C3.94764737,7.33333333 2.74878982,6.16271494 2.67071823,4.52080117 L2.66666667,4.33333333 C2.66666667,2.6556504 3.93833997,1.33333333 5.60694757,1.33333333 Z M12.685751,1.42910632 C13.046026,1.42910632 13.3333333,1.72614836 13.3333333,2.09863041 C13.3333333,2.44007229 13.0919154,2.7181236 12.7741756,2.76209436 L12.685751,2.7681545 L10.3613166,2.7681545 L10.3613166,3.73563898 L12.3383725,3.73563898 C12.6386016,3.73563898 12.8881588,3.94191817 12.9630048,4.22623465 L12.9800932,4.31374247 L12.9859548,4.40516307 C12.9859548,4.74660495 12.7445368,5.02465627 12.426797,5.06862703 L12.3383725,5.07468716 L10.3613166,5.07468716 L10.3613166,6.56005518 C10.3613166,6.90224519 10.1390304,7.18470768 9.83366387,7.26352004 L9.74842684,7.27985701 L9.65969765,7.28544684 C9.29863327,7.28544684 9.00632012,7.01194459 8.96348534,6.65179075 L8.9580787,6.56005518 L8.9580787,2.15449798 C8.9580787,1.78119978 9.22261767,1.47898228 9.57096846,1.43469615 L9.65969765,1.42910632 L12.685751,1.42910632 Z"/>
</svg>
