<svg xmlns="http://www.w3.org/2000/svg" width="16" height="16" viewBox="0 0 16 16">
  <path fill="currentColor" fill-rule="evenodd" d="M8.24586907,7.16830299 C8.31783956,7.17389774 8.37791055,7.22379142 8.39466667,7.29189108 L8.39466667,7.29189108 L9.28066667,10.8848199 C9.38222516,11.3416064 9.76733244,11.6881735 10.2446667,11.752346 C10.2838621,11.7564326 10.323246,11.7585901 10.3626667,11.7588105 C10.8129338,11.7506898 11.2137519,11.4801853 11.378,11.0735811 L11.378,11.0735811 L11.9526667,9.74320197 C12.0045159,9.62304683 12.1256755,9.54480902 12.26,9.54474405 L12.26,9.54474405 L13.3513333,9.54409761 C13.4733347,9.54414238 13.5855639,9.60881227 13.6439261,9.7126985 C13.7022882,9.81658472 13.6974581,9.94308791 13.6313333,10.042505 C12.2460972,12.0948999 10.4562594,13.8616372 8.36466667,15.2411975 C8.13829831,15.3640453 7.86236836,15.3640453 7.636,15.2411975 C5.54320923,13.8616994 3.75222701,12.0947309 2.366,10.0418585 C2.29987526,9.94244147 2.29504509,9.81593828 2.35340728,9.71205205 C2.41176946,9.60816583 2.52399865,9.54349593 2.646,9.54345116 L2.646,9.54345116 L2.832,9.54345116 C3.21042207,9.53986498 3.55998654,9.3466626 3.756,9.03276139 L3.756,9.03276139 L4.22266667,8.31391706 C4.25407757,8.26563344 4.30942873,8.23700105 4.36827944,8.23859357 C4.42713015,8.2401861 4.48074837,8.27176725 4.50933333,8.32167437 L4.50933333,8.32167437 L5.192,9.50789681 C5.39117637,9.87626686 5.79607232,10.0956534 6.224,10.0670698 C6.6451943,10.0310865 7.00918853,9.76724854 7.164,9.38571913 L7.164,9.38571913 L8.07866667,7.26732625 C8.1063974,7.20268486 8.17389858,7.16270823 8.24586907,7.16830299 Z M11.5776354,0.667046821 L11.7813333,0.671024464 C13.5493333,0.802252341 15.3333333,2.26967738 15.3333333,5.25236421 C15.314027,6.21554439 15.1021084,7.16593503 14.7093333,8.05081486 C14.6580383,8.17263757 14.5357018,8.25214718 14.4,8.25185856 L14.4,8.25185856 L11.8706667,8.25185856 C11.4203065,8.26004896 11.0192345,8.53011495 10.854,8.93644142 L10.854,8.93644142 L10.616,9.48850353 C10.5879963,9.55289168 10.5204864,9.59253396 10.4486667,9.58676283 C10.3766102,9.58152954 10.3164059,9.53152868 10.3,9.46329226 L10.3,9.46329226 L9.414,5.87036348 C9.3119989,5.41357511 8.92674819,5.06711858 8.44933333,5.00283731 C7.95786214,4.95927522 7.49586794,5.23596826 7.316,5.68160219 L7.316,5.68160219 L6.24933333,8.15683147 C6.22467537,8.21389215 6.16858632,8.25229525 6.10488181,8.25573467 C6.04117731,8.25917409 5.98103828,8.22704617 5.95,8.17299254 L5.95,8.17299254 L5.33933333,7.11217999 C5.15660329,6.78121681 4.80744659,6.56820112 4.42066667,6.55171413 C4.02754582,6.5352766 3.65749351,6.73174715 3.46,7.06175746 L3.46,7.06175746 L2.78733333,8.10059095 C2.72638642,8.19465292 2.61989523,8.25177585 2.50533333,8.25185856 L2.50533333,8.25185856 L1.59933333,8.25185856 C1.4638743,8.25188409 1.34187018,8.17241921 1.29066667,8.05081486 C0.897891641,7.16593503 0.685973036,6.21554439 0.666666667,5.25236421 C0.666666667,2.26967738 2.45066667,0.802252341 4.21866667,0.671024464 C5.78671106,0.596710911 7.23614893,1.47854782 7.84933333,2.87991933 C7.87726368,2.93596949 7.9358021,2.97158385 8,2.97158385 C8.0641979,2.97158385 8.12273632,2.93596949 8.15066667,2.87991933 C8.76602024,1.48034221 10.2140114,0.599385454 11.7813333,0.671024464 Z"/>
</svg>
