<svg xmlns="http://www.w3.org/2000/svg" width="16" height="16" viewBox="0 0 16 16">
  <path fill="currentColor" fill-rule="evenodd" d="M11.1382239,0.666761673 L11.2340203,0.676664084 C11.5230328,0.731322754 11.7100585,0.995475021 11.651809,1.26663962 L11.651809,1.26663962 L11.2667481,2.60461875 C12.2433454,3.11742727 12.7261561,4.22390533 12.3587102,5.25662862 C12.0952528,5.99711898 11.6634522,7.01941768 12.077471,8.47704482 C12.5466701,10.1289513 12.8816217,11.6976489 12.5027661,12.7624599 C11.6200153,15.2435127 8.76095018,16.5833075 6.1169013,15.7549438 C3.47285242,14.9266114 2.045038,12.2437973 2.92782218,9.76274447 C3.30988048,8.6888863 4.59817623,7.59943821 6.04413942,6.52392087 C7.29997423,5.58980859 7.60863676,4.51779742 7.84850744,3.84361121 C8.19650343,2.86554659 9.19658738,2.26448906 10.2435779,2.32299825 L10.2435779,2.32299825 L10.6052855,1.0686976 C10.6635684,0.797564304 10.9448744,0.621911499 11.2340203,0.676664084 Z M8.65576072,8.61938902 C7.17790373,8.15641819 5.58288043,8.90404612 5.08956084,10.2905481 C4.48307833,11.9951097 5.83656286,13.7743653 7.76580377,13.7743653 C8.92799226,13.7743653 10.0379363,13.0864048 10.4367088,11.9657456 C10.9300618,10.5790244 10.1333508,9.08229724 8.65576072,8.61938902 Z M6.08702933,10.601647 C6.3975075,9.72947018 7.40268867,9.25860753 8.33216432,9.54994584 C9.26163996,9.84128415 9.76343657,10.7844995 9.4529584,11.6566764 C9.14248023,12.5288532 8.13729906,12.9997159 7.20782341,12.7083775 C6.27834777,12.4170392 5.77655116,11.4738238 6.08702933,10.601647 Z"/>
</svg>
