<?xml version="1.0" encoding="UTF-8"?>
<svg width="16px" height="16px" viewBox="0 0 16 16" version="1.1" xmlns="http://www.w3.org/2000/svg" xmlns:xlink="http://www.w3.org/1999/xlink">
    <g id="Icons" stroke="none" stroke-width="1" fill="none" fill-rule="evenodd">
        <g id="icon-/-16px-/-meal-/-mediterranean" fill="currentColor">
            <path d="M1.80408937,0.580411798 L1.82926612,0.594457498 L1.85853142,0.611703889 C1.9021719,0.637605316 1.944746,0.663725668 1.98749872,0.691086007 L2.03018436,0.718783845 L2.10174247,0.76697184 L2.16058934,0.808257824 L2.23718589,0.864135679 L2.31831075,0.925703827 L2.40519905,0.993975233 L2.5188118,1.08617547 L2.6227273,1.17275968 L2.78480827,1.31091164 L2.9414606,1.44694836 L3.3127449,1.77511111 L3.99948035,2.39133188 L4.05472008,2.44021739 C4.2420292,2.5998021 4.42108351,2.76070616 4.59185663,2.92292418 L4.79443174,3.10668456 L4.8338103,3.14048927 C10.4913456,0.546038806 15.5,2.85416411 15.5,3.5406338 C15.5,4.18161359 10.212313,5.71945714 6.26886114,4.404879 L6.381316,4.50112838 L6.56960207,4.6621904 L6.75734936,4.82169447 L7.22770721,5.21636552 L7.41758493,5.373689 L7.60921884,5.53132436 L7.80311893,5.68968713 L7.99979518,5.84919281 L8.3011305,6.09150323 L8.5069784,6.25568408 L8.53346397,6.27646194 L8.58960357,6.31885506 L8.64995978,6.36235659 L8.68171611,6.38451995 L8.68171611,6.38451995 L8.74837922,6.42966577 L8.81923492,6.47589556 L8.8942736,6.52319957 L8.97348567,6.57156801 L9.0568615,6.62099112 L9.14439149,6.67145913 C9.15932547,6.679957 9.17443214,6.68849799 9.1897113,6.69708192 L9.28345453,6.74909896 C9.33419813,6.71186662 9.38142186,6.67266958 9.43029069,6.63489991 C10.8367962,5.54793587 13.0733521,6.05489122 14.425801,7.76724561 C15.7782498,9.4796 15.7344468,11.7489197 14.3279869,12.8359422 C12.9214814,13.9229062 10.6849255,13.4159509 9.33247665,11.7035965 C8.38540371,10.5044942 8.12301281,9.03227205 8.53376771,7.88417552 L8.43080222,7.82547301 L8.32747012,7.76530507 L8.2283172,7.7058815 C8.16360603,7.66651158 8.10167416,7.62763096 8.04250792,7.58922573 L7.95583107,7.5319727 L7.87329242,7.47542234 L7.87329242,7.47542234 L7.79488172,7.41956423 C7.78215669,7.41031165 7.76960324,7.40108748 7.75722114,7.39189151 L7.68498314,7.33705224 L7.65040316,7.30988308 L7.65040316,7.30988308 L7.4408868,7.14277702 L7.23551616,6.97791105 L7.03377646,6.8148662 C7.22220192,7.59483055 7.25632938,8.40232935 7.13056526,9.23308728 C7.12390045,9.27711288 7.11216344,9.31914555 7.09602897,9.3586917 C7.94780234,10.5765654 7.75525834,12.4676018 6.53457928,13.9066343 C5.12254133,15.5712557 2.86946216,16.0006908 1.50216154,14.8658337 C0.134910038,13.7309181 0.171196723,11.4614687 1.58323468,9.79684725 C2.8231909,8.33508933 4.71168784,7.82580387 6.07942277,8.49184241 C6.12931583,7.34020797 5.7922182,6.22787345 5.05908268,5.15426357 L4.80824374,4.93523054 L4.50734982,4.67037055 L4.19840986,4.39641033 L3.87968645,4.11193583 L3.54944222,3.81553299 L2.73150471,3.07894768 L2.30041729,2.69404684 L2.01196558,2.44023084 L1.84259547,2.29397128 L1.69611347,2.17031287 L1.6213676,2.10869817 L1.53589865,2.03993247 L1.47311528,1.99087194 L1.41461003,1.94652421 L1.34652091,1.89690427 L1.32059772,1.8786514 L1.25899427,1.83683438 C1.23533666,1.82121318 1.21229491,1.8065126 1.18953647,1.79245508 L1.13303816,1.75849039 C1.06450339,1.71837948 1.00563833,1.66827916 0.957216464,1.61117171 C0.91406854,1.58333194 0.868345881,1.5562535 0.822316052,1.52920246 C0.556733764,1.3731237 0.469345457,1.03362581 0.627128806,0.770912702 C0.76402358,0.542979579 1.0404952,0.447733055 1.28474956,0.528443418 C1.45195606,0.478933984 1.63884387,0.492656175 1.80408937,0.580411798 Z" id="Combined-Shape"></path>
        </g>
    </g>
</svg>