<svg xmlns="http://www.w3.org/2000/svg" width="16" height="16" viewBox="0 0 16 16">
  <path fill="currentColor" fill-rule="evenodd" d="M6.45581047,4.83255261 L11.1674224,9.54278636 L5.74625843,14.9707064 L5.74625843,14.9707064 C5.2626414,15.4537959 4.48062722,15.4533681 3.99855935,14.9707726 L3.99855935,14.9707726 L1.02830374,11.9972659 L1.02830374,11.9972659 C0.545207149,11.5110784 0.547705786,10.7290681 1.0315762,10.2482799 L1.0315762,10.2482799 L2.16467671,9.12239717 L3.23904977,10.1964549 C3.3248742,10.2822612 3.4373338,10.3251497 3.54982271,10.3251497 C3.66231161,10.3251497 3.77480051,10.2822319 3.86062495,10.1964256 C4.03227381,10.0248131 4.03224451,9.74656525 3.86059564,9.57498202 L3.86059564,9.57498202 L2.7862812,8.50098286 L3.59559183,7.69190214 L4.66996488,8.76595988 C4.75578931,8.85176614 4.86824892,8.89465463 4.98073782,8.89465463 C5.09322672,8.89465463 5.20571563,8.85173685 5.29154006,8.76593058 C5.46318893,8.59431805 5.46315963,8.31607022 5.29151076,8.14448698 L5.29151076,8.14448698 L4.21719631,7.07048783 L5.02650694,6.2614071 L6.10088,7.33546484 C6.18670443,7.42127111 6.29916403,7.46415959 6.41165294,7.46415959 C6.52414184,7.46415959 6.63663074,7.42124181 6.72245518,7.33543555 C6.89410404,7.16382301 6.89407474,6.88557518 6.72242587,6.71399194 L6.72242587,6.71399194 L5.64811143,5.63999279 L6.45581047,4.83255261 Z M8.22287372,2.11235629 C8.39452259,1.94077305 8.67282934,1.94077305 8.8444489,2.11235629 L8.8444489,2.11235629 L13.8883412,7.15480003 C13.9707959,7.23720803 14.0170925,7.34897003 14.0170925,7.46553648 C14.0170925,7.58210293 13.9707666,7.69386493 13.8883412,7.77627293 L13.8883412,7.77627293 L12.556026,9.1081889 C12.4702309,9.19399516 12.3577127,9.23688365 12.2452531,9.23688365 C12.1327935,9.23688365 12.0203046,9.19399516 11.9344801,9.1081889 L11.9344801,9.1081889 L6.89055855,4.06574516 C6.8081331,3.98333716 6.76180725,3.87154586 6.76180725,3.75500871 C6.76180725,3.63847155 6.8081331,3.52668026 6.89055855,3.44427226 L6.89055855,3.44427226 Z M14.0436983,0.667447907 C14.4176749,0.680308593 14.7595661,0.843366864 15.0063736,1.12659492 C15.4459272,1.63100335 15.441825,2.38849485 14.9968799,2.88859686 C14.9532498,2.93763738 14.8384168,3.0480225 14.7278618,3.15228487 C14.3656645,3.4938401 14.2415722,4.02634283 14.4383911,4.48355635 C14.4451012,4.4991708 14.4521336,4.51469737 14.4594883,4.53010676 C14.73381,5.10502925 14.6236359,5.79142078 14.1873349,6.25223764 L14.1873349,6.25223764 L9.74626474,1.81245914 C10.2037509,1.37973659 10.8862734,1.26771093 11.4587977,1.53561748 C11.626315,1.61401201 11.8026228,1.6562267 11.9777,1.66232015 C12.2723864,1.67257354 12.5567292,1.55228657 12.7656205,1.34420125 C12.8803363,1.22991984 13.0122522,1.09847132 13.0529228,1.05780929 C13.3137658,0.797050816 13.6749668,0.654762993 14.0436983,0.667447907 Z"/>
</svg>
