<svg xmlns="http://www.w3.org/2000/svg" width="16" height="16" viewBox="0 0 16 16">
  <path fill="currentColor" fill-rule="evenodd" d="M6.65797602,4.09262205 C9.2237063,1.52528373 13.1401265,1.84191333 13.6452497,2.3458821 C14.1498451,2.85090631 14.4976781,6.74650578 11.905029,9.33864675 C10.3199468,10.8468539 8.26406677,11.7638155 6.08265284,11.9355372 C5.89569789,11.9501553 5.73053823,12.0628517 5.64878526,12.2315858 L5.64878526,12.2315858 L4.62745465,14.3250352 C4.52047884,14.5395435 4.29890924,14.6726799 4.05924918,14.6664577 C3.81958912,14.6602354 3.60522938,14.515781 3.50953308,14.2960108 L3.50953308,14.2960108 L3.10786249,13.3260688 C3.05791824,13.2060889 2.9654501,13.1087533 2.84817533,13.0527119 L2.84817533,13.0527119 L1.68327783,12.4949161 C1.47110044,12.392906 1.33539638,12.1791518 1.33335563,11.9437722 C1.33136051,11.7083925 1.46337982,11.492344 1.67377708,11.3867125 L1.67377708,11.3867125 L3.76499769,10.3413071 C3.92998632,10.2589772 4.04003984,10.09653 4.05529838,9.91280175 C4.23824897,7.73395223 5.15592295,5.68182431 6.65797602,4.09262205 Z M12.603862,9.75501467 C12.6469632,9.70938604 12.7162488,9.70043162 12.7695381,9.73360281 C12.8228273,9.766774 12.8453669,9.83288721 12.8234349,9.89169311 C12.3059863,11.1619003 11.544397,12.3183139 10.5817857,13.2954613 C10.4177444,13.471632 10.1891093,13.5735452 9.94840239,13.5777893 L9.94840239,13.5777893 L9.93362345,13.5777893 C9.69843621,13.5775607 9.47300902,13.4837619 9.30710177,13.3170976 L9.30710177,13.3170976 L8.61618613,12.6205125 C8.55233627,12.5554714 8.52657708,12.462092 8.54805266,12.3735226 C8.56952824,12.2849532 8.63519792,12.213734 8.72175002,12.1851468 C10.1285144,11.7203063 11.4093576,10.9379028 12.4650455,9.89855342 C12.5114936,9.85211441 12.5574139,9.80514769 12.6022785,9.75765325 L12.6022785,9.75765325 Z M5.31203646,4.05304335 C5.36659606,4.04109937 5.4227674,4.06479194 5.4522837,4.11219839 C5.48180001,4.15960485 5.47826737,4.22045586 5.4434635,4.26412974 C4.60332578,5.33143481 3.98655818,6.55683174 3.62987591,7.86737456 C3.60462758,7.95765711 3.53336287,8.02776682 3.4426668,8.05154951 C3.35197074,8.0753322 3.25546347,8.04921634 3.18914668,7.98294436 L3.18914668,7.98294436 L2.59059944,7.38293127 C2.34021832,7.13216671 2.2645157,6.75580714 2.39847317,6.42776532 C2.91053019,5.19825005 4.00432359,4.3067454 5.31203646,4.05304335 Z M10.569118,4.07415199 C10.3279218,3.83311084 9.93696175,3.83316914 9.69583738,4.07428221 C9.45471302,4.31539528 9.45471302,4.70627867 9.69583738,4.94739174 C9.93696175,5.18850481 10.3279218,5.18856311 10.569118,4.94752196 C10.6851203,4.8317927 10.7503107,4.67467989 10.7503107,4.51083697 C10.7503107,4.34699406 10.6851203,4.18988124 10.569118,4.07415199 Z"/>
</svg>
