<svg xmlns="http://www.w3.org/2000/svg" width="16" height="16" viewBox="0 0 16 16">
  <path fill="currentColor" fill-rule="evenodd" d="M14.521097,2.49168977 C14.4894336,2.29353754 14.3641839,2.12602259 14.1887741,2.04722535 C14.0133643,1.96842811 13.8119495,1.98919947 13.6543639,2.10233763 C12.3762636,2.92395879 10.8932312,3.32155034 9.39792647,3.24346142 C5.96488553,3.24346142 4.53199791,4.71831561 4.5047736,4.75227414 C2.85262906,6.03560324 2.2404838,8.3386385 3.01965976,10.3396237 C3.06117026,10.4462789 3.03941961,10.5686767 2.96409994,10.6522764 L1.48176409,12.3437626 C1.28338946,12.5701636 1.2839197,12.9193602 1.48298087,13.145091 C1.68204205,13.3708218 2.0124819,13.3969377 2.24126676,13.2050212 C3.19467317,12.2922393 4.74979238,9.54042721 9.12179419,7.61474422 C9.40613979,7.4924672 9.73086569,7.63458344 9.84935279,7.93316015 C9.9678399,8.23173686 9.8357914,8.57515005 9.55349395,8.70258824 C7.80803842,9.455304 6.21736074,10.5569736 4.86924598,11.9467991 L4.8642456,11.952654 L4.73534683,12.0996125 C4.67789619,12.1635464 4.65080442,12.2513347 4.66157906,12.3386498 C4.67235371,12.4259649 4.71985025,12.5035319 4.79090665,12.5498558 C5.5005622,13.0185945 6.3213322,13.2667904 7.15886594,13.2659124 C8.28602984,13.245023 9.39049159,12.9284957 10.3724456,12.3449336 L10.3724456,12.3449336 C15.2444857,9.52052048 14.7783389,4.08891178 14.521097,2.49168977 Z"/>
</svg>
