<svg xmlns="http://www.w3.org/2000/svg" width="16" height="16" viewBox="0 0 16 16">
  <path fill="currentColor" d="M8.90430851,11.5277655 C8.79776575,11.5280009 8.70181819,11.5922882 8.66107788,11.6907361 C8.62033757,11.7891841 8.64279912,11.9024739 8.71801875,11.9779301 L9.11170759,12.3716262 C9.71932191,12.984253 10.5471485,13.3277456 11.4099849,13.3252574 L11.4099849,13.3252574 C13.2064654,13.3226457 14.6625577,11.8677063 14.6666462,10.0711954 C14.6697857,9.18886057 14.3116602,8.34368399 13.6755428,7.73223937 C13.6094378,7.66868924 13.5810647,7.57537604 13.6006047,7.48578348 C13.9155979,6.06327463 13.4826056,4.57839147 12.4523927,3.5481595 C11.4221798,2.51792754 9.93732409,2.08492727 8.51484154,2.39992625 C8.42525063,2.41946661 8.33193916,2.391093 8.26839021,2.32498677 C7.65755361,1.68919455 6.81325279,1.33091303 5.93158836,1.33334564 L5.92894969,1.33334564 C4.13346551,1.3371329 2.67895911,2.79190213 2.67547557,4.5874201 C2.6723448,5.44589707 3.01155866,6.2702058 3.61800676,6.87782379 L4.02225026,7.28207477 C4.09765577,7.35767255 4.21118815,7.38037415 4.30986511,7.33958537 C4.40854206,7.2987966 4.47291158,7.20255809 4.47293426,7.09578157 L4.47293426,5.64185019 C4.47322545,5.42345809 4.65034578,5.24657065 4.86873404,5.24657084 L4.86873404,5.24657084 C4.9736582,5.24657075 5.07427725,5.28828857 5.14842032,5.362532 C5.2225634,5.43677544 5.26414616,5.53745192 5.26400607,5.64237793 L5.26400607,7.36281942 C5.26519457,8.26072898 4.90741072,9.12185823 4.27028478,9.75454973 L2.21212597,11.8127466 C1.92929134,12.0960357 1.92929134,12.5548617 2.21212597,12.8381508 L3.16204542,13.7880878 C3.44544932,14.0706374 3.90402679,14.0706374 4.1874307,13.7880878 L6.24558951,11.729891 C6.87955403,11.0931859 7.74142242,10.7358563 8.63991426,10.7372068 L10.3587407,10.7372068 L10.3587407,10.7372068 C10.5773349,10.7372068 10.7545405,10.9144157 10.7545405,11.1330139 C10.7545405,11.3516121 10.5773349,11.528821 10.3587407,11.528821 L8.90430851,11.5277655 Z M9.22411473,8.82413919 L7.26516972,9.1967256 C7.13639971,9.22149637 7.00372765,9.18079246 6.91100418,9.08806727 C6.81828071,8.99534208 6.77757754,8.86266757 6.80234786,8.73389518 L7.17545511,6.77491395 C7.21640508,6.56010477 7.42373563,6.41916465 7.63854084,6.46011538 C7.85334605,6.50106611 7.99428357,6.70840049 7.95333359,6.92320967 L7.7617665,7.93014291 C7.74534756,8.01602099 7.77253302,8.10445593 7.83435677,8.16628083 C7.89618052,8.22810573 7.98461383,8.25529169 8.07049032,8.23887244 L9.07582175,8.04677407 C9.287799,8.01161336 9.48911094,8.15200578 9.52937562,8.36307683 C9.5696403,8.57414788 9.43414887,8.7787925 9.22411473,8.82413919 L9.22411473,8.82413919 Z"/>
</svg>
