<svg xmlns="http://www.w3.org/2000/svg" width="16" height="16" viewBox="0 0 16 16">
  <g fill="none" fill-rule="evenodd">
    <circle cx="8" cy="8" r="8" fill="currentColor"/>
    <path fill="#fff" d="M8,4 C8.51283584,4 8.93550716,4.38604019 8.99327227,4.88337887 L9,5 L9,7 L11,7 C11.5522847,7 12,7.44771525 12,8 C12,8.51283584 11.6139598,8.93550716 11.1166211,8.99327227 L11,9 L9,9 L9,11 C9,11.5522847 8.55228475,12 8,12 C7.48716416,12 7.06449284,11.6139598 7.00672773,11.1166211 L7,11 L7,9 L5,9 C4.44771525,9 4,8.55228475 4,8 C4,7.48716416 4.38604019,7.06449284 4.88337887,7.00672773 L5,7 L7,7 L7,5 C7,4.44771525 7.44771525,4 8,4 Z" transform="rotate(45 8 8)"/>
  </g>
</svg>
