<svg xmlns="http://www.w3.org/2000/svg" width="56" height="56" viewBox="0 0 56 56">
  <path fill="currentColor" fill-rule="evenodd" d="M31.4180391,14.1097582 C31.2480038,14.279016 31.1342891,14.4659728 31.1771489,14.7505533 C31.2156318,15.0066291 31.2442876,15.2694119 31.2380114,15.528096 C31.2278539,15.9429035 31.1821037,16.3563136 31.1571641,16.7707485 C31.1238838,17.3241667 31.1161211,17.8804726 31.060296,18.4307235 C31.0109123,18.9175378 30.9170997,19.3994149 30.830224,19.8805469 C30.7965308,20.0671311 30.7282359,20.2458904 30.6491228,20.5206899 C31.0206569,20.2152433 31.3948337,20.0897671 31.739694,20.1365296 C32.11321,20.1870181 32.3205722,20.0153383 32.4925894,19.7329004 C32.7558592,19.3005803 33.0594287,18.915209 33.3674577,18.5229444 C33.9376003,17.7972875 34.4107922,16.9775467 34.7376498,16.0681934 C34.8187448,15.8427647 34.9081805,15.6088591 34.8287372,15.3421639 C34.8033021,15.3197142 34.7753069,15.2768641 34.7395491,15.2655927 C33.7291646,14.9471979 32.7042458,14.6814342 31.744814,14.1820444 C31.6499279,14.1326737 31.5343138,14.1340709 31.4180391,14.1097582 M33.6973952,10.1116263 C33.2191516,10.1020096 32.9256918,9.80989226 32.5282697,9.66387769 C32.5023863,9.88109091 32.4807025,10.0624842 32.4555047,10.2734334 C32.376226,10.2811091 32.276292,10.3232813 32.2246108,10.2887848 C32.1218484,10.2203211 31.979061,10.1160376 31.969719,10.0151949 C31.9262657,9.54239003 31.5745253,9.39434625 31.2559534,9.17245703 C31.0186315,9.00712089 30.8491893,8.73847172 30.6330369,8.49752561 C30.5799845,8.61557244 30.519904,8.74941178 30.4563954,8.89110327 C30.2285012,8.88448629 30.2001323,8.71447415 30.1783627,8.56140147 C30.1579645,8.41732788 30.1726204,8.26840183 30.1665352,8.12176967 C30.1582217,7.92096655 30.0909419,7.76110044 29.8210514,7.67913818 C29.9507257,8.15079613 30.0677154,8.57675285 30.1911331,9.02582487 C29.9634103,9.01038526 29.8608193,8.88342757 29.7900256,8.72109113 C29.7319164,8.58778114 29.6885488,8.44785419 29.6312967,8.31410307 C29.4986227,8.00407575 29.3443506,7.70657656 29.0925443,7.47886441 C28.8666213,7.27462045 28.8010557,7.03138046 28.8755348,6.73202853 C28.9192453,6.55619345 28.9326155,6.37232978 28.9704979,6.11912022 C28.7690014,6.27148709 28.7608592,6.43620564 28.741061,6.5808086 C28.6586968,7.18260039 28.4049192,7.66528664 27.8679666,7.95590417 C27.6250737,8.0873614 27.5286536,8.29336988 27.5283108,8.56572456 C27.527968,8.8865155 27.4991705,9.1984838 27.7107804,9.48954246 C27.8921359,9.73895829 28.0848046,9.90394153 28.3908633,9.9634943 C28.7797147,10.039016 29.1623952,10.1542396 29.5421617,10.2715806 C30.753112,10.645925 31.8887261,11.220543 32.8649257,12.0221675 C33.7636465,12.7601807 34.7644439,13.3029491 35.7161314,13.9384434 C36.1090967,14.2009167 36.4911773,14.4821822 36.8659728,14.7716528 C37.1591755,14.998218 37.2534529,15.3347132 37.2867928,15.6970588 C37.3634146,16.5296507 37.0629268,17.2260211 36.5240887,17.8112263 C35.907943,18.4803348 35.2620571,19.1205051 34.622085,19.7657042 C34.5015814,19.8871919 34.3563085,19.989005 34.2083787,20.0737905 C33.5749203,20.4373712 33.1542716,20.9876389 32.8328714,21.6447486 C32.6677146,21.982479 32.4570474,22.2995644 32.2418379,22.6072978 C32.1287907,22.7690167 31.9660336,22.8959744 31.8175039,23.0289315 C31.7107133,23.1245688 31.5717827,23.1872977 31.4801622,23.2945809 C31.3162052,23.4867379 31.1325357,23.6286058 30.8172207,23.6530445 C30.9767209,23.9495732 31.1024527,24.2066647 31.2488397,24.4506105 C31.5718684,24.9886147 31.8356737,25.5519398 32.0287709,26.1544374 C32.3105746,27.0334363 32.272178,27.9100531 32.048912,28.788258 C32.0100012,28.9413307 31.9336365,29.0904332 31.8486154,29.2237432 C31.6761735,29.4941569 31.7010284,29.769423 31.8606143,30.0095751 C32.5616096,31.0645856 32.878296,32.2911962 33.3387982,33.4536663 C33.6553132,34.2525557 33.9739708,35.0507393 34.2970851,35.846982 C34.5068095,36.3637236 34.7892988,36.4486855 35.5154062,36.3366381 C35.7086749,36.3069058 35.8984296,36.2226497 36.0786708,36.1380406 C37.119579,35.6500608 38.2011979,35.6268573 39.2914731,35.873097 C40.3708636,36.1167781 41.4361125,36.4259231 42.5151601,36.6717217 C43.024858,36.7879158 43.5518687,36.8240886 44.0713371,36.8936991 C44.1838701,36.9087859 44.3018882,36.8954637 44.4105644,36.9231667 C44.8510969,37.035126 45.2276066,36.9026982 45.5466927,36.5984938 C46.0046237,36.16195 46.5243493,35.7903407 46.8806322,35.2451902 C47.1031268,34.9046365 47.5116908,34.9930393 47.7399278,35.2196928 C47.933625,35.4119379 48.1094952,35.6261515 48.2740521,35.845835 C48.4733202,36.1119256 48.6571612,36.3906326 48.8393737,36.6696043 C49.1576884,37.1567018 49.2926765,37.7104985 49.3237024,38.2843226 C49.3401581,38.5904679 49.4825169,38.8030934 49.6539304,39.0210124 C50.2509634,39.7798471 50.7512336,40.5973522 50.9205901,41.5741059 C51.0230953,42.1647812 51.0433221,42.7703667 50.8788509,43.3583952 C50.833512,43.5207317 50.742063,43.6843915 50.6313299,43.8094082 C50.3801235,44.0929676 50.1034621,44.111054 49.7995461,43.8821949 C49.3802688,43.5666094 49.0183293,43.1990585 48.8494014,42.6731413 C48.7573523,42.3871116 48.5993948,42.1586054 48.3567591,41.9785354 C48.1852599,41.8512248 48.0197603,41.6972699 47.8976282,41.5212584 C47.6018543,41.0948605 47.1987755,40.7980671 46.8087242,40.4800112 C46.6087704,40.3170572 46.4337573,40.1215476 46.2291754,39.9229502 C46.159153,39.9381251 46.0791029,39.9556821 45.9989671,39.9728863 C45.7546172,40.0253809 45.5424931,39.9730627 45.3954203,39.7534674 C45.1938381,39.4527038 44.886151,39.3847696 44.5719501,39.3839755 C44.1184758,39.3825639 43.6647444,39.4190014 43.2115273,39.4470574 C42.8433312,39.4698197 42.4760779,39.5081982 42.1079675,39.5321958 C41.1304823,39.5962481 40.1533399,39.6822687 39.1747405,39.7069721 C38.6681281,39.7196767 38.1588587,39.6219219 37.6509607,39.5720741 C37.0946383,39.5175502 36.5438012,39.56034 35.997678,39.6735343 C35.4009877,39.7971394 34.8084114,39.9455361 34.208293,40.047614 C33.5930044,40.1522504 33.0698505,39.9025699 32.5900643,39.5225791 C32.1686443,39.1887307 31.8238462,38.7835954 31.5116166,38.3459928 C31.0802546,37.7415542 30.576899,37.2151959 30.0072064,36.7435379 C29.5537321,36.3682231 29.1407971,35.9394432 28.8166543,35.4290539 C28.661868,35.185461 28.4626855,34.9720415 28.2973573,34.7348891 C28.099289,34.4508885 27.9158766,34.1562126 27.7238079,33.8625954 C27.7179798,33.8652422 27.6873825,33.8703593 27.6690413,33.8884457 C27.0825501,34.4659752 26.4892882,35.0366231 25.9145389,35.6263279 C25.5418861,36.0086126 25.2278566,36.4566259 24.8312059,36.8076785 C24.2821686,37.2937173 23.785241,37.8188404 23.2957699,38.3684022 C22.8247258,38.8972309 22.6339426,39.4738782 22.5761763,40.1421044 C22.515753,40.8402393 22.494412,41.5440208 22.3964492,42.236421 C22.2479195,43.286579 21.915206,44.2846835 21.3856241,45.1980906 C20.831873,46.152876 20.2289262,47.0775761 19.6780033,48.0339496 C19.3011509,48.6884125 18.9714371,49.3720783 18.6337526,50.0496565 C18.5806144,50.1562339 18.5461603,50.3223641 18.5888423,50.4220598 C18.8696175,51.0779344 18.6738634,51.6329662 18.2454154,52.1150349 C17.9374712,52.4615879 17.7542302,52.8631059 17.5999581,53.2895038 C17.5177653,53.5167748 17.3838914,53.7030206 17.1923369,53.8409183 C16.9835553,53.9911678 16.7581466,54.0501912 16.5068545,53.9512013 C16.0541516,53.7728076 15.6011916,53.5996193 15.2630785,53.2130998 C15.1789145,53.1170213 15.0604678,53.0535866 14.9632764,52.9686246 C14.8336021,52.8550773 14.7003282,52.7463825 14.6877293,52.5446089 C14.6761589,52.3595983 14.5554838,52.2692545 14.3880129,52.2209065 C13.2436567,51.8902342 12.4146155,51.0720232 11.6333987,50.2271679 C11.1437562,49.6977217 10.9427739,48.9897936 11.0139105,48.2333411 C11.0180245,48.1895808 11.01991,48.145203 11.0285664,48.102325 C11.1695539,47.4078073 11.6446263,47.1708314 12.2707139,47.4798882 C12.732159,47.7076886 13.1877759,47.9508404 13.6604485,48.1507612 C13.9047127,48.253986 14.1779457,48.3060396 14.4426081,48.3314487 C14.9650763,48.3813848 15.4905442,48.4000888 16.0150693,48.4252333 C16.6900955,48.4575242 16.7368057,48.4044119 16.9353882,47.7377738 C17.0432929,47.3758694 17.1853947,47.0195232 17.3542369,46.6832045 C17.6658666,46.0626205 17.7919412,45.3882184 17.939871,44.7198157 C18.1381963,43.8234362 18.289383,42.9145286 18.608212,42.0507928 C18.7342866,41.7092687 18.8746742,41.3730381 19.0166046,41.0380428 C19.2121873,40.5766191 19.341433,40.1034612 19.3224919,39.5932484 C19.3077503,39.1972886 19.3160638,38.8003584 19.2972084,38.4047515 C19.2767245,37.9750893 19.4101698,37.5962454 19.6279506,37.2441341 C19.7653385,37.0221567 19.9238102,36.8142955 20.0686546,36.5971705 C20.1811875,36.4283935 20.3072621,36.2649101 20.3929688,36.0821051 C20.9057522,34.9872164 21.4035368,33.8848284 21.9163202,32.7899397 C22.4353601,31.681817 22.9260311,30.5562254 23.6437392,29.5612089 C23.8467784,29.2795905 24.0703873,29.013941 24.2831114,28.7397335 C24.4159568,28.5683098 24.5657722,28.4064145 24.6725627,28.2187571 C24.8330914,27.9368739 24.9365395,27.6361986 24.8058367,27.2989976 C24.7221869,27.0827548 24.6826761,26.8466612 24.5862561,26.637653 C24.1657789,25.7261868 23.9554546,24.77396 23.9098586,23.7620923 C23.8665767,22.8032485 23.8270659,21.83867 23.5395198,20.9043532 C23.4125025,20.4919833 23.4023034,20.0422055 23.3289384,19.6113081 C23.2726291,19.2809887 23.2103203,18.950934 23.129756,18.6261729 C23.1010442,18.5108611 23.0104522,18.4116947 22.9533715,18.3140282 C22.7421045,18.3794039 22.7109072,18.5348587 22.6724249,18.6688745 C22.5046111,19.2527563 22.20978,19.7681745 21.882466,20.2672709 C21.5589231,20.7605443 21.1245615,21.0440155 20.5307853,21.0508971 C20.2728937,21.0538086 20.0596554,20.9753754 19.8723862,20.795129 C19.6023243,20.5352142 19.330034,20.2774169 19.0510587,20.0276482 C18.7667694,19.7732917 18.5486458,19.4704989 18.3827176,19.1250046 C18.370033,19.0987131 18.362148,19.0691573 18.345778,19.0456891 C17.8312805,18.3110285 17.3127549,17.5798969 16.642014,16.9816341 C16.5455083,16.8955252 16.4364036,16.814357 16.3674097,16.7074267 C16.1393441,16.3540803 15.908793,16.0002045 15.7130388,15.6277129 C15.4302067,15.0893558 15.5512245,14.6665753 16.0438668,14.3020241 C16.3769231,14.0555197 16.7579752,13.9320028 17.1523119,13.8827725 C17.4530568,13.8452764 17.746688,13.9754984 17.9816959,14.160509 C18.1801926,14.3166696 18.2820979,14.5583215 18.1495096,14.8271472 C17.9743251,15.1821699 18.0235207,15.5754829 17.9954946,15.9470922 C17.96704,16.3247891 18.1735075,16.6503443 18.4958505,16.8627051 C18.8680748,17.1079742 19.2370422,17.3553609 19.5385585,17.6945029 C19.5757552,17.7363222 19.6304361,17.7626136 19.6791175,17.7925223 C20.1184502,18.0624067 20.2680941,18.025881 20.4480783,17.5462827 C20.8165315,16.5645883 21.3138876,15.6350357 21.5762359,14.6109927 C21.7035961,14.1137491 21.863182,13.6317686 22.1005039,13.1772266 C22.4484732,12.5103238 22.9035759,11.9847595 23.641768,11.7514891 C23.9443984,11.65594 24.2798545,11.5677137 24.479894,11.265362 C24.4154426,10.9076925 24.3612759,10.5491407 24.2847398,10.1958825 C24.172464,9.6766705 24.0115068,9.54644844 23.4981235,9.50965806 C23.2865993,9.49448313 23.0749894,9.47454398 22.8646651,9.44701737 C22.5802045,9.40987408 22.445045,9.20642417 22.40382,8.94289212 C22.3207702,8.41379882 22.2565759,7.8816176 22.1820967,7.33170289 C22.1779828,7.32658576 22.1648697,7.29403025 22.141986,7.28326663 C21.6208891,7.03640936 21.5905489,6.97694482 21.9383468,6.48711224 C22.2236645,6.08532953 22.2864018,5.65972572 22.1762687,5.19936073 C22.1143027,4.94006355 22.1504709,4.71376301 22.2590614,4.47872807 C22.4840415,3.99171873 22.6755103,3.48715235 22.9209744,3.01196534 C23.0214227,2.81760274 23.202521,2.63991491 23.3879903,2.52477955 C23.9196292,2.19481308 24.5119483,2.04068168 25.1308366,2.01121408 C25.4581506,1.99559802 25.7864073,2.00433243 26.1141499,2.00022048 C27.0144133,1.98959863 27.7382066,2.36297246 28.3000142,3.07645879 C28.3773216,3.17465469 28.4527435,3.22970792 28.5749613,3.25379371 C28.7972846,3.2976422 29.0183222,3.35684206 29.233189,3.43042282 C29.5664167,3.54441124 29.848049,3.73974433 30.0240049,4.06335851 C30.231758,4.44537852 30.4281121,4.83392727 30.6352653,5.21621196 C30.8151637,5.54820764 30.9942051,5.88143848 31.1909877,6.20293523 C31.3380604,6.44335198 31.5564412,6.60568842 31.8219606,6.6950617 C31.8894975,6.71773586 31.9564345,6.74252746 32.0221715,6.77023053 C32.5478966,6.99264911 32.7468219,7.29605945 32.7477647,7.87764742 C32.7481932,8.12715148 32.7542784,8.37700844 32.744165,8.62624782 C32.7277093,9.03394169 32.8555837,9.37211321 33.1630137,9.63582171 C33.3249994,9.77477818 33.4821856,9.91964582 33.6973952,10.1116263"/>
</svg>
