<svg xmlns="http://www.w3.org/2000/svg" width="56" height="56" viewBox="0 0 56 56">
  <path fill="currentColor" fill-rule="evenodd" d="M53.5754191,43.5892905 L48.4914836,43.5892905 L46.8583083,39.0306887 C47.8206946,37.6445017 48.3877534,35.9582842 48.3877534,34.1371693 C48.3877534,30.2007237 45.7460893,26.8875971 42.1535645,25.9002877 L39.7424121,19.1705356 L41.8296956,17.3226738 C42.1524119,17.0377612 42.1846836,16.5411992 41.9011542,16.2167477 L40.8753771,15.0375584 C40.5918477,14.711944 40.1008578,14.6793826 39.7781414,14.9654581 L38.6912788,15.9271835 L37.3335649,12.1372643 L39.3885767,10.3021946 C39.6663433,10.054495 39.7366493,9.63235921 39.5280363,9.32302552 C39.2756259,8.94973186 38.7661951,8.89507515 38.4411736,9.1846394 L35.9804612,11.3813738 L35.9804612,11.3813738 L35.5551671,11.7616449 C35.5563197,11.7628078 35.5563197,11.7628078 35.5574723,11.7639707 L35.5217429,11.7965321 L32.1355261,14.9573177 C31.8888786,15.1875736 31.8300981,15.5724964 32.026033,15.8469428 C32.2530871,16.1655798 32.7002798,16.213259 32.9884194,15.9562562 C32.9884194,15.9562562 36.0403943,13.2117919 36.0311738,13.2652857 L37.4073286,17.0668339 L24.1978558,28.7354589 C23.985785,28.7249927 23.8543933,28.7191781 23.8405626,28.7191781 C23.3806918,28.7075491 22.9646182,28.7005716 22.6015623,28.69592 L18.7381862,24.5315443 L14.9531841,20.4520609 L16.8468377,20.5846324 C17.2755895,20.6137052 17.6455607,20.2857649 17.6732221,19.8543258 L17.7769524,18.2902138 C17.8057664,17.8576118 17.4818974,17.4843181 17.0531457,17.4552454 L8.90340459,16.8703024 C8.47580539,16.8389038 8.103529,17.1633553 8.07240992,17.5959573 L7.95945919,19.1600694 C7.92834011,19.5915085 8.24990393,19.9682909 8.67865568,19.9996894 L11.0218071,20.1717999 L18.9583249,28.7261556 L19.3455845,29.1436398 C19.1761584,29.2227176 19.0148002,29.3145873 18.8568997,29.4111088 C17.472677,30.2681724 16.5471725,31.8067005 16.5471725,33.5661812 C16.5471725,34.1674049 16.655513,34.7418818 16.8526005,35.273331 C16.8595159,35.2907747 16.8664312,35.3070554 16.8733466,35.324499 L7.4592488,43.5927792 L4.42571485,43.5927792 C3.6385174,43.5927792 3,44.2370306 3,45.0312971 L3,45.0312971 C3,45.5662351 3.42990432,46 3.96008122,46 L15.5686503,46 C16.0988272,46 16.5287316,45.5662351 16.5287316,45.0312971 L16.5287316,45.0312971 C16.5287316,44.2370306 15.8902142,43.5927792 15.1030167,43.5927792 L12.16284,43.5927792 L18.8626625,37.7270682 C19.5956897,38.1794396 20.4566509,38.442257 21.3786977,38.442257 C22.6891567,38.442257 27.6140391,38.4131843 32.2876638,37.8212638 C32.3475969,37.9468579 32.409835,38.0712891 32.4743783,38.1922316 C33.9047034,40.8634327 36.704268,42.6798959 39.9245164,42.6798959 C41.6383708,42.6798959 43.2335118,42.1635645 44.5658694,41.279754 L45.394559,43.5927792 L42.8969647,43.5927792 C42.1097673,43.5927792 41.4712499,44.2370306 41.4712499,45.0312971 L41.4712499,45.0312971 C41.4712499,45.5662351 41.9011542,46 42.4313311,46 L54.0399002,46 C54.5700771,46 54.9999877,45.5662351 54.9999877,45.0312971 L54.9999877,45.0312971 C55.0022866,44.2335418 54.3637691,43.5892905 53.5754191,43.5892905 Z M33.1555404,29.0157198 C33.0644882,29.1378252 32.9780463,29.2622565 32.892757,29.3890135 C31.4958561,29.1959707 30.0609208,29.0552587 28.6928339,28.9540857 C28.6928339,28.9540857 28.6916813,28.9540857 28.6905288,28.9540857 L37.3911928,21.252142 L38.9690454,25.6560769 C36.5959275,25.9258717 34.5190171,27.1841388 33.1555404,29.0157198 Z"/>
</svg>
