<svg xmlns="http://www.w3.org/2000/svg" width="56" height="56" viewBox="0 0 56 56">
  <path fill="currentColor" fill-rule="evenodd" d="M50.8351381,48.7020564 C50.6345188,48.7020564 50.4382608,48.7222965 50.2478179,48.7584396 L48.7286356,47.2476585 C51.2073014,46.413476 52.7511976,45.2959317 52.7511976,43.7996078 C52.7511976,42.8497675 52.1275333,41.9071557 51.0401187,40.9847841 C50.9383553,40.8994864 50.8336843,40.8141887 50.7246521,40.728891 C51.3759379,39.1010063 52.283086,36.0895642 52.2874473,32.8930694 C52.2874473,32.7051253 52.2540107,31.4459001 52.2191204,30.2213723 C52.2816322,29.9249989 52.3412365,29.6242884 52.3921182,29.3163493 C52.5622085,28.2855484 52.6625181,27.18969 52.6625181,26.0273282 C52.6625181,23.7879025 52.2976236,21.3157152 51.3948368,18.649801 C50.4949576,15.9925611 49.5718181,11.8288773 49.5718181,11.8288773 C49.0964376,9.4680107 49.1415043,7.57266713 49.1415043,7.21991058 C49.1415043,5.45468213 49.3813752,4.26918881 49.6038009,3.54777276 C49.7142869,3.1877876 49.8218653,2.9420146 49.8930997,2.79744224 C49.9294438,2.72515606 49.9556115,2.67889291 49.9701491,2.65431561 L49.9701491,2.65286989 C50.3045146,2.17722684 50.1882136,1.52231407 49.7099256,1.18979765 C49.2316376,0.857281236 48.573083,0.97293912 48.2387175,1.44858217 C48.1136939,1.62062327 47.174563,3.31211982 47.0291867,7.21991058 C46.9608599,9.07332817 47.5161973,12.4621042 47.5176511,12.47367 C47.5830704,12.7498032 48.5338314,16.7833719 49.3915515,19.319171 C49.8683857,20.7287514 50.173676,22.0617085 50.3524888,23.3252709 C50.4048243,23.6968219 50.4455296,24.0625899 50.4760586,24.4211294 C49.7244632,23.0679321 48.628326,21.1783715 48.10061,20.4352696 C46.6977288,18.4589655 45.6175829,16.6922913 44.7816693,15.1265727 C44.4647489,14.5309346 44.1812652,13.9642109 43.9312179,13.4249561 C43.710246,12.9507587 43.5241643,12.4635499 43.3657042,11.9647753 L42.4382034,9.02706502 C42.2288615,8.36203218 42.0936616,7.6753135 42.05441,6.97847475 C42.0456874,6.81366226 42.0413261,6.66186129 42.0413261,6.52596328 C42.0413261,6.1283893 42.0733089,5.85081038 42.1009304,5.68310645 C42.1140143,5.59925448 42.1270981,5.54431699 42.134367,5.51540251 L42.134367,5.51251107 C42.3175411,4.96169039 42.0180659,4.36749802 41.4641822,4.18389112 C40.9102986,4.00028423 40.312802,4.29954901 40.1296279,4.85036968 C40.0947376,4.95157033 39.9290086,5.50672817 39.9290086,6.52451755 L39.9290086,6.53608334 C39.9290086,7.24448788 40.0249569,7.94855525 40.2110386,8.63238249 C40.5715718,9.95521954 40.8594169,11.4992523 41.3173522,12.6861913 C41.6967843,13.6692833 42.1939712,14.7391188 42.8103667,15.9101548 C43.7058847,17.6146629 44.8674413,19.5215723 46.3735397,21.6438944 C48.0802573,24.0539156 49.695388,26.5665831 50.1387856,29.8310269 C50.0951728,30.0334282 50.0486523,30.2329381 49.9992244,30.4295565 C49.9061836,30.798216 49.8029664,31.1567554 49.6924804,31.5022833 C49.222915,32.9610184 48.6152421,34.2115693 48.0061154,35.2336958 C47.370821,36.2991941 46.7355266,37.1145821 46.2645074,37.6596199 C46.2499698,37.6755229 46.2383397,37.6885344 46.2238021,37.7058831 C46.1162236,37.8287696 46.0188215,37.9357531 45.9315957,38.0282794 C45.8879828,38.0759883 45.8022108,38.11936 45.5332647,38.025388 C45.059338,37.8605755 40.6995029,36.1300444 40.6995029,36.1300444 C39.9435462,35.8481283 37.9111856,35.1353866 37.5302998,35.0197287 C36.9575172,34.8361218 36.4268937,34.6799837 35.9616896,34.5599886 C35.9558745,34.5585429 35.9486057,34.5570972 35.9427906,34.5556515 C34.2331654,34.0684426 32.494465,33.611594 30.7761172,33.1923342 C29.0156103,32.7615085 27.2798173,32.3697175 25.6225276,32.0198524 C20.1956306,30.8777308 15.630815,30.2040236 13.919736,30.2040236 C8.55098951,30.2040236 4.19987706,34.5325199 4.19987706,39.8701312 C4.19987706,42.9871112 5.68562278,45.7585633 7.98983702,47.5266832 L6.75704606,48.7526567 C6.56660311,48.7165136 6.37179888,48.6962735 6.16972583,48.6962735 C4.35252217,48.6962735 2.89149043,50.2171747 3.0063377,52.0503521 C3.10519358,53.6204079 4.38886624,54.8969818 5.96765279,54.9938453 C7.80957042,55.1066117 9.33892902,53.6551053 9.33892902,51.8479508 C9.33892902,51.3000216 9.19791402,50.7838983 8.94932056,50.3342783 L10.4088985,48.8827718 C11.497767,49.3020317 12.68113,49.5347932 13.9182823,49.5347932 C17.7213261,49.5347932 35.6171477,50.14778 45.733884,48.029795 L48.0497283,50.3328326 C47.7822359,50.81715 47.6383134,51.3795364 47.6630274,51.9766202 C47.7284467,53.5755905 49.0252032,54.8955361 50.6316113,54.9923996 C52.4720752,55.1037203 54,53.6522138 54,51.8465051 C54.0043413,50.1130826 52.5854687,48.7020564 50.8351381,48.7020564 Z M48.5338314,39.3106362 C48.4553282,39.2672645 48.3753712,39.2238928 48.2954143,39.1805211 C48.2954143,39.1805211 48.150038,39.118355 47.8898144,39.00848 C47.898537,38.9983599 47.9058058,38.9896856 47.9145284,38.9795655 C48.0003004,38.8798106 48.0904337,38.7713813 48.1834745,38.6571692 C48.4887647,38.2841725 48.8289452,37.8345525 49.1836634,37.3126463 C49.394459,37.0032614 49.6081622,36.670745 49.8247729,36.3107599 C49.8349492,36.2934112 49.8451255,36.2760625 49.8553019,36.2587138 C49.9134524,36.1604046 49.9730567,36.059204 50.0312072,35.9565576 C49.6226998,37.3357779 49.222915,38.668735 49.1531344,38.8682448 C49.1240591,38.9520968 48.9772291,39.3829224 48.9234398,39.5318319 C48.9176248,39.5289405 48.9118097,39.5246033 48.9059947,39.5217119 C48.7838786,39.4508714 48.6603087,39.380031 48.5338314,39.3106362 Z"/>
</svg>
