<svg xmlns="http://www.w3.org/2000/svg" width="56" height="56" viewBox="0 0 56 56">
  <path fill="currentColor" fill-rule="evenodd" d="M53.2818703,38.785994 C53.1100751,38.785994 52.9418099,38.8037034 52.7782514,38.8343996 L51.215621,37.2653506 L54.4373696,37.1295788 C55.2351583,37.0965214 55.8929222,36.4412752 55.8740953,35.6408122 C55.8552684,34.8250012 55.1727943,34.1874643 54.3644154,34.2217024 L21.1208652,35.6160191 C20.6678436,35.242942 20.3018963,34.8155562 20.0065497,34.3751835 C20.1665781,33.8958502 20.2830694,32.9312806 20.3477868,32.2618669 C20.4489812,31.2288211 20.3607302,30.1816077 20.0489102,29.192245 C19.1593404,26.3717347 16.7130237,24.2466119 13.7219043,23.828671 C13.6760138,23.8156842 13.6301233,23.8015167 13.5830561,23.7897105 L11.989832,22.645686 C12.2345814,22.4213675 12.474624,22.2076746 12.7099599,22.0046073 C13.601883,21.2348405 14.4067318,20.6291805 14.9833048,20.2183234 C15.2268774,20.0447717 15.4269129,19.909 15.5775279,19.8074664 L16.1811645,21.0246895 C16.3611965,21.3835991 16.7977446,21.5276352 17.1542785,21.3469998 L18.1250391,20.8558603 C18.4827497,20.6752249 18.6263046,20.238394 18.4462726,19.8794844 L14.7397321,12.4002326 C14.5597001,12.041323 14.123152,11.8972869 13.7666181,12.0779223 L12.7958575,12.5690618 C12.4381469,12.7496972 12.294592,13.1865281 12.474624,13.5454377 L14.2796504,17.1900234 C13.7901517,17.5028887 11.3073579,19.1297883 8.78102692,21.7177157 C7.38783835,23.1486317 5.97817627,24.8747037 4.8956311,26.8664161 C3.81543928,28.8557672 3.0611877,31.1296487 3.06001102,33.5995137 C3.05883434,35.0623066 3.33182399,36.5853113 3.93546059,38.117761 L3.22003944,38.8355802 C3.05648098,38.804884 2.88939249,38.7871747 2.71759728,38.7871747 C1.15967357,38.7871747 -0.0923134551,40.1023896 0.00535094631,41.6879674 C0.0888951933,43.0456847 1.19026724,44.1519292 2.5434487,44.2369341 C4.12372932,44.3361065 5.435727,43.0787422 5.435727,41.5155963 C5.435727,41.0409855 5.31452901,40.5947097 5.10155001,40.2062845 L6.14526476,39.1590712 L9.27523233,39.0280219 C9.48232792,39.0929562 9.69413024,39.1484455 9.90828592,39.1956705 C10.7590252,39.5156195 11.6803653,39.6927131 12.6440658,39.6927131 L12.6440658,39.6927131 C14.001954,39.6927131 15.2786513,39.3420679 16.3894368,38.7269628 L48.1009503,37.3963998 L50.8979175,40.2039232 C50.668465,40.6230447 50.5460904,41.1094617 50.5660939,41.6265749 C50.6213978,43.010266 51.7345367,44.1507486 53.1112517,44.2357535 C54.689179,44.3325647 56,43.0763809 56,41.5144157 C56,40.0067591 54.7833134,38.785994 53.2818703,38.785994 Z"/>
</svg>
