<svg xmlns="http://www.w3.org/2000/svg" width="56" height="56" viewBox="0 0 56 56">
  <path fill="currentColor" fill-rule="evenodd" d="M45.4730678,21.8998393 L39.3358257,21.8998393 L40.9042444,16.8483419 L43.4509835,16.4807785 C43.7826364,16.4330286 44.0122422,16.1243198 43.9634371,15.7922913 L43.9634371,15.7922913 C43.9157412,15.4602628 43.6073817,15.2303969 43.2757288,15.2792573 L41.3024497,15.5635359 L43.1182214,9.71139441 C43.3001314,9.1250698 42.9729153,8.50098944 42.3872541,8.31887347 L42.3872541,8.31887347 L43.978966,3.30846318 C44.1142893,2.88426621 43.876919,2.42675534 43.4532019,2.29127882 L42.6579006,2.0380932 C42.2341835,1.90261668 41.7771902,2.14025582 41.641867,2.56445279 L38.045818,13.8845154 C37.911604,14.3087124 38.1478651,14.7662232 38.5715821,14.9016997 L39.3668835,15.1548854 L39.3668835,15.1548854 C39.4467464,15.180426 39.5321554,15.1870888 39.6153459,15.1748737 L40.1366731,15.0993622 L39.9292514,15.7623088 L24.5190392,17.9854563 L24.4757802,17.9932295 C23.3543719,18.2419733 22.3505397,18.8816001 21.6517393,19.7944009 L12.4952359,31.7540904 C11.4481445,33.1210707 11.1974637,34.9633292 11.841913,36.5612859 L13.1707429,39.869356 L6.98469573,47.1928613 C4.7141491,49.8812928 6.62198506,54 10.1392803,54 L25.3453984,54 C26.5610892,54 27.7146645,53.4636474 28.499983,52.5353001 L28.9381197,52.0167137 L41.8160125,52.0167137 C41.7372588,52.2243704 41.6895629,52.4831083 41.6895629,52.7640555 C41.6895629,53.4469904 41.9668646,54 42.3085004,54 L44.8397106,54 C45.1813464,54 45.4586481,53.4469904 45.4586481,52.7640555 C45.4586481,52.4686723 45.4065154,52.1977192 45.3199972,51.9856207 C47.1013836,51.7557549 48.4823463,50.2277574 48.4823463,48.3832779 L48.4823463,28.8802114 L48.6298708,28.7058687 C50.898199,26.0185476 48.9892538,21.8998393 45.4730678,21.8998393 Z M27.1123651,23.3645404 L14.0558901,38.8199682 L12.9655396,36.1059959 C12.4819254,34.9044747 12.6704906,33.519727 13.4569183,32.4925485 L22.6134217,20.532859 C22.9018155,20.156412 23.2600894,19.8443718 23.6638407,19.6067326 C23.9888383,19.4146225 24.3426753,19.2691518 24.7164781,19.1836461 L39.5288277,17.0471148 L38.0147602,21.8998393 L30.2680589,21.8998393 C29.0512589,21.8998393 27.8976836,22.4350826 27.1123651,23.3645404 Z M47.2666554,48.3821674 C47.2666554,49.7158338 46.1829602,50.8018669 44.8508027,50.8018669 L30.9003068,49.6392119 L45.8746007,31.9828458 L47.2666554,48.3821674 Z"/>
</svg>
