<svg xmlns="http://www.w3.org/2000/svg" width="56" height="56" viewBox="0 0 56 56">
  <path fill="currentColor" fill-rule="evenodd" d="M53.4399638,38.3173347 L51.0041959,38.3173347 L43.5452795,15.2530345 C43.4855196,15.0693375 43.3272666,14.9432496 43.141347,14.9052058 L47.7926565,9.31494728 C47.8856163,9.20298993 47.8690164,9.03668436 47.75503,8.94537934 L46.6505791,8.05950325 C46.5365927,7.96711127 46.3672731,7.9845027 46.2743133,8.09646005 L37.8913322,18.1715342 L14.1899058,18.1715342 C11.6003116,18.1726212 9.50207638,20.2335059 9.50096972,22.7770029 L9.50096972,38.3173347 L2.5621854,38.3173347 C2.25121277,38.3173347 2,38.5651626 2,38.8695127 L2,42.7380195 C2,43.0434565 2.25231943,43.2901974 2.5621854,43.2901974 L6.82616243,43.2901974 C6.82616243,43.2901974 6.80734914,43.6847656 6.80734914,43.6978091 C6.80734914,44.9695576 7.85757343,46 9.15126384,46 C10.4460609,46 11.4951785,44.9695576 11.4951785,43.6978091 L11.5007119,43.2901974 L44.5102906,43.2901974 C44.5102906,43.2901974 44.5047573,43.6847656 44.5047573,43.6978091 C44.5047573,44.9695576 45.5549816,46 46.848672,46 C48.1423624,46 49.1925867,44.9684707 49.1925867,43.6978091 C49.1925867,43.6847656 49.1848401,43.2901974 49.1848401,43.2901974 L53.4377504,43.2901974 C53.7487231,43.2901974 53.9999682,43.0423695 53.9999682,42.7380195 L53.9999682,38.8695127 C54.0032558,38.5640757 53.7509364,38.3173347 53.4399638,38.3173347 Z M11.3767655,22.7770029 C11.3800855,21.2509047 12.637256,20.016113 14.1899058,20.0128521 L40.7553791,20.0128521 L46.6749257,38.3173347 L11.3767655,38.3173347 L11.3767655,22.7770029 Z"/>
</svg>
