<svg xmlns="http://www.w3.org/2000/svg" width="16" height="16" viewBox="0 0 16 16">
  <path fill="currentColor" fill-rule="evenodd" d="M8,3 C8.51283584,3 8.93550716,3.38604019 8.99327227,3.88337887 L9,4 L9,7 L12,7 C12.5522847,7 13,7.44771525 13,8 C13,8.51283584 12.6139598,8.93550716 12.1166211,8.99327227 L12,9 L9,9 L9,12 C9,12.5522847 8.55228475,13 8,13 C7.48716416,13 7.06449284,12.6139598 7.00672773,12.1166211 L7,12 L7,9 L4,9 C3.44771525,9 3,8.55228475 3,8 C3,7.48716416 3.38604019,7.06449284 3.88337887,7.00672773 L4,7 L7,7 L7,4 C7,3.44771525 7.44771525,3 8,3 Z"/>
</svg>
