<svg xmlns="http://www.w3.org/2000/svg" width="16" height="16" viewBox="0 0 16 16">
  <path fill="currentColor" fill-rule="evenodd" d="M8.00040596,0 C9.09293241,0 10.1109687,0.553852729 10.7044724,1.47112092 C11.7727321,1.24220583 12.8842028,1.57044132 13.6567247,2.34296942 C14.4292466,3.11549751 14.7574795,4.22697702 14.5285662,5.29524534 C15.4490343,5.88612024 16.0039529,6.90620293 16.000021,8 C16.0035792,9.09369022 15.448422,10.113498 14.5278996,10.704088 C14.7567112,11.7723929 14.4284748,12.8838622 13.65601,13.6564679 C12.8835451,14.4290736 11.7721419,14.7575063 10.7038057,14.5288791 C10.1103021,15.4461473 9.09226573,16 7.99973928,16 C6.90721283,16 5.8891765,15.4461473 5.29567289,14.5288791 C4.2274131,14.7577942 3.11594246,14.4295587 2.34342053,13.6570306 C1.57089861,12.8845025 1.24266573,11.773023 1.471579,10.7047547 C0.554033308,10.1111416 7.10542736e-15,9.0928312 7.10542736e-15,8 C7.10542736e-15,6.9071688 0.554033308,5.88885842 1.471579,5.29524534 C1.24258264,4.22683732 1.57088876,3.11519075 2.34358693,2.3426211 C3.11628511,1.57005145 4.22798002,1.24193649 5.29633957,1.47112092 C5.88984318,0.553852729 6.90787951,0 8.00040596,0 Z M8.00036248,1.75 C7.36980231,1.75 6.77954689,2.04968207 6.40716171,2.55244466 L6.33564222,2.65567629 L6.00101969,3.17284012 L5.39874244,3.04363964 C4.74102324,2.90254575 4.05662507,3.10454476 3.58092402,3.58016668 C3.13495237,4.02606416 2.92943593,4.65543377 3.02165194,5.27433687 L3.04408188,5.39792048 L3.17315831,6.00014094 L2.65604493,6.33469133 C2.09111652,6.70017601 1.75,7.32714642 1.75,8 C1.75,8.63080023 2.04980944,9.22127346 2.55277229,9.59376865 L2.65604493,9.66530867 L3.173132,9.99984204 L3.04409078,10.602038 C2.90316249,11.2597073 3.10523589,11.943979 3.58083048,12.4195773 C4.02669849,12.8654489 4.65596572,13.0709193 5.27477576,12.9787403 L5.3983409,12.9563188 L6.00050386,12.8272826 L6.33504697,13.3443237 C6.70043004,13.9090284 7.32716971,14.25 7.99976723,14.25 C8.6303274,14.25 9.22058282,13.9503179 9.592968,13.4475553 L9.66448748,13.3443237 L9.99893315,12.8274332 L10.6009558,12.9562679 C11.258722,13.0970319 11.9430043,12.8948184 12.4186061,12.41913 C12.8644846,11.9731702 13.069974,11.3438365 12.9778379,10.7249399 L12.9554254,10.6013572 L12.8259318,9.9967611 L13.3463411,9.66287621 C13.9114008,9.30034454 14.2521961,8.67432662 14.2500129,7.99675602 C14.2522741,7.3672689 13.9530186,6.77756659 13.4500355,6.40745171 L13.3467515,6.33640984 L12.8265066,6.00244974 L12.9560389,5.39796201 C13.0969672,4.74029269 12.8948938,4.05602104 12.4192992,3.58042266 C11.9734312,3.13455109 11.344164,2.9290807 10.7253539,3.02125974 L10.6017888,3.04368117 L9.99962584,3.17271738 L9.66508274,2.65567629 C9.29969966,2.0909716 8.67295999,1.75 8.00036248,1.75 Z M8,10 C8.41421356,10 8.75,10.3357864 8.75,10.75 C8.75,11.1642136 8.41421356,11.5 8,11.5 C7.58578644,11.5 7.25,11.1642136 7.25,10.75 C7.25,10.3357864 7.58578644,10 8,10 Z M8,4.25 C8.41421356,4.25 8.75,4.58578644 8.75,5 L8.75,8.5 C8.75,8.91421356 8.41421356,9.25 8,9.25 C7.58578644,9.25 7.25,8.91421356 7.25,8.5 L7.25,5 C7.25,4.58578644 7.58578644,4.25 8,4.25 Z"/>
</svg>
