<svg width="16" height="16" viewBox="0 0 16 16" fill="none"
    xmlns="http://www.w3.org/2000/svg">
    <path fill-rule="evenodd" clip-rule="evenodd" d="M3.95156 8.95001H6.25156V6.65001C6.25156 6.42909 6.43065 6.25001 6.65156 6.25001H12.0516C12.2725 6.25001 12.4516 6.42909 12.4516 6.65001V12.05C12.4516 12.2709 12.2725 12.45 12.0516 12.45H3.95156C3.73065 12.45 3.55156 12.2709 3.55156 12.05V9.35001C3.55156 9.12909 3.73065 8.95001 3.95156 8.95001ZM11.6516 8.95001V7.05001H9.75156V8.95001H11.6516ZM9.75156 9.75001H11.6516V11.65H9.75156V9.75001ZM8.95156 8.95001V7.05001H7.05156V8.95001H8.95156ZM7.05156 9.75001H8.95156V11.65H7.05156V9.75001ZM4.35156 9.75001H6.25156V11.65H4.35156V9.75001Z" fill="#333333"/>
    <path fill-rule="evenodd" clip-rule="evenodd" d="M4.85156 0.850006C5.0567 0.850006 5.22577 1.00442 5.24887 1.20336L5.25156 1.25001V2.65001H10.7516V1.25001C10.7516 1.02909 10.9306 0.850006 11.1516 0.850006C11.3567 0.850006 11.5258 1.00442 11.5489 1.20336L11.5516 1.25001V2.65001H13.8516C14.5695 2.65001 15.1516 3.23204 15.1516 3.95001V13.85C15.1516 14.568 14.5695 15.15 13.8516 15.15H2.15156C1.43359 15.15 0.851562 14.568 0.851562 13.85V3.95001C0.851562 3.23204 1.43359 2.65001 2.15156 2.65001H4.45156V1.25001C4.45156 1.02909 4.63065 0.850006 4.85156 0.850006ZM10.7516 3.45001V4.40001L10.7543 4.44665C10.7774 4.64559 10.9464 4.80001 11.1516 4.80001C11.3725 4.80001 11.5516 4.62092 11.5516 4.40001V3.45001H13.8516C14.1277 3.45001 14.3516 3.67386 14.3516 3.95001V13.85C14.3516 14.1261 14.1277 14.35 13.8516 14.35H2.15156C1.87542 14.35 1.65156 14.1261 1.65156 13.85V3.95001C1.65156 3.67386 1.87542 3.45001 2.15156 3.45001H4.45156V4.40001L4.45425 4.44665C4.47736 4.64559 4.64643 4.80001 4.85156 4.80001C5.07248 4.80001 5.25156 4.62092 5.25156 4.40001V3.45001H10.7516Z" fill="#333333"/>
</svg>
