<svg xmlns="http://www.w3.org/2000/svg" width="16" height="16" viewBox="0 0 16 16">
  <path fill="currentColor" fill-rule="evenodd" d="M4.53825099,3.19999903 L4.62809821,3.27933749 L8,6.651 L11.3719018,3.27933749 C11.7443518,2.9068875 12.3482125,2.9068875 12.7206625,3.27933749 C13.0644625,3.62313748 13.0909087,4.16411586 12.800001,4.53825099 L12.7206625,4.62809821 L9.349,8 L12.7206625,11.3719018 C13.0931125,11.7443518 13.0931125,12.3482125 12.7206625,12.7206625 C12.3768625,13.0644625 11.8358841,13.0909087 11.461749,12.800001 L11.3719018,12.7206625 L8,9.349 L4.62809821,12.7206625 C4.25564822,13.0931125 3.65178748,13.0931125 3.27933749,12.7206625 C2.9355375,12.3768625 2.90909135,11.8358841 3.19999903,11.461749 L3.27933749,11.3719018 L6.651,8 L3.27933749,4.62809821 C2.9068875,4.25564822 2.9068875,3.65178748 3.27933749,3.27933749 C3.62313748,2.9355375 4.16411586,2.90909135 4.53825099,3.19999903 Z"/>
</svg>
