<svg xmlns="http://www.w3.org/2000/svg" width="16" height="16" viewBox="0 0 16 16">
  <path fill="currentColor" fill-rule="evenodd" d="M10,0 C11.0543618,0 11.9181651,0.815877791 11.9945143,1.85073766 L12,2 L12,4 L14,4 C15.0543618,4 15.9181651,4.81587779 15.9945143,5.85073766 L16,6 L16,14 C16,15.0543618 15.1841222,15.9181651 14.1492623,15.9945143 L14,16 L6,16 C4.9456382,16 4.08183488,15.1841222 4.00548574,14.1492623 L4,14 L4,12 L2,12 C0.945638205,12 0.0818348781,11.1841222 0.00548573643,10.1492623 L0,10 L0,2 C0,0.945638205 0.815877791,0.0818348781 1.85073766,0.00548573643 L2,0 L10,0 Z M6,14 L14,14 L14,6 L6,6 L6,14 Z M10,2 L2,2 L2,10 L4,10 L4,6 C4,4.9456382 4.81587779,4.08183488 5.85073766,4.00548574 L6,4 L10,4 L10,2 Z"/>
</svg>
