<svg xmlns="http://www.w3.org/2000/svg" width="16" height="16" viewBox="0 0 16 16">
  <path fill="currentColor" fill-rule="evenodd" d="M11.7565215 14.438943C11.8971151 14.732798 11.7720865 15.0846135 11.4772624 15.2247449 10.4084476 15.732758 9.23584183 16 8.02634117 16 7.76737406 16 7.50981449 15.9877568 7.25425675 15.9634237 6.92910605 15.9324643 6.69069963 15.6446465 6.72176111 15.3205646 6.7528226 14.9964827 7.04158963 14.7588599 7.36674034 14.7898193 7.58492402 14.8105937 7.80494662 14.8210526 8.02634117 14.8210526 9.05872993 14.8210526 10.0574977 14.5934291 10.9681281 14.1606018 11.2629522 14.0204704 11.615928 14.145088 11.7565215 14.438943zM2.2748123 11.6980947C2.9626302 12.7584392 3.93482133 13.6125245 5.0775314 14.1572589 5.37219464 14.297726 5.49681975 14.6496837 5.35588937 14.9433784 5.214959 15.237073 4.8618406 15.3612885 4.56717736 15.2208214 3.22697081 14.5819396 2.08775731 13.5811225 1.28150481 12.3381986 1.10416209 12.0648059 1.18275687 11.6998852 1.45705116 11.5231254 1.73134545 11.3463657 2.09746958 11.4247021 2.2748123 11.6980947zM15.4108377 9.05172952C15.7295695 9.12289397 15.9300723 9.43811801 15.8586731 9.75580212 15.5324551 11.2072799 14.8051754 12.5320232 13.7679361 13.590215 13.5396782 13.8230838 13.1652386 13.8274299 12.9316018 13.5999223 12.6979651 13.3724146 12.6936047 12.9992059 12.9218626 12.7663371 13.8066708 11.8636555 14.4265541 10.7345353 14.7044432 9.49809285 14.7758423 9.18040874 15.0921059 8.98056507 15.4108377 9.05172952zM1.14878145 5.11829664C1.45899212 5.22022067 1.6275693 5.55349524 1.52530913 5.86268622 1.29842573 6.54868454 1.18279739 7.26778452 1.18283217 8.02321937 1.18458764 8.54923991 1.24599479 9.06694955 1.3647257 9.56962882 1.4395749 9.88652303 1.24251144 10.2038944.924572148 10.2784975.606632854 10.3531007.288214869 10.156685.213365672 9.83979077.074060022 9.25000283.00205849723 8.64297448 1.08586211e-8 8.02520964-.0000443157605 7.14253027.135623176 6.29880554.401936951 5.49358665.504197119 5.18439566.838570793 5.0163726 1.14878145 5.11829664zM14.3052591 3.01618023C15.2292426 4.17121579 15.8181519 5.55935321 15.9957732 7.04253196 16.0344862 7.36579456 15.802949 7.65913062 15.4786203 7.69771639 15.1542916 7.73630215 14.8599881 7.50552598 14.8212751 7.18226337 14.6699257 5.91846089 14.1683008 4.73606438 13.3804172 3.75116197 13.1767882 3.49661341 13.2187473 3.12572976 13.4741353 2.92277015 13.7295233 2.71981055 14.1016301 2.76163166 14.3052591 3.01618023zM6.01227456.840089254C6.12513939 1.14559328 5.9681577 1.4844475 5.66164616 1.59694133 4.47221841 2.03347721 3.42675634 2.79462737 2.6435499 3.78730648 2.44164314 4.04321426 2.06982696 4.08752876 1.81307522 3.88628568 1.55632348 3.68504259 1.51186284 3.31444859 1.7137696 3.05854081 2.63170341 1.89510078 3.85723484 1.00285086 5.25292647.490613384 5.55943802.378119551 5.89940974.534585227 6.01227456.840089254zM8.02634117 0C9.53475941 0 10.9831933.415965877 12.2393694 1.18946429 12.517249 1.36057041 12.6033486 1.72380478 12.4316782 2.00077097 12.2600078 2.27773715 11.8955755 2.36355369 11.6176959 2.19244756 10.5470213 1.5331729 9.31357332 1.17894737 8.02634117 1.17894737 7.69971019 1.17894737 7.43492346.91503101 7.43492346.589473684 7.43492346.263916358 7.69971019 0 8.02634117 0zM9.80992179 5.30526316C10.3180476 5.30526316 10.729965 5.71582653 10.729965 6.22228211L10.729965 9.77771789C10.729965 10.2841735 10.3180476 10.6947368 9.80992179 10.6947368L6.24276055 10.6947368C5.73463473 10.6947368 5.32271737 10.2841735 5.32271737 9.77771789L5.32271737 6.22228211C5.32271737 5.71582653 5.73463473 5.30526316 6.24276055 5.30526316L9.80992179 5.30526316z"/>
</svg>
