<svg xmlns="http://www.w3.org/2000/svg" width="16" height="16" viewBox="0 0 16 16">
  <path fill="currentColor" fill-rule="evenodd" d="M12.2581506,1 C12.4550461,1 12.6437766,1.07819125 12.7831635,1.21756005 L14.7821062,3.21650038 C15.072659,3.50689144 15.0726206,3.97823242 14.7820548,4.26863654 L4.96800034,14.081415 C4.87445379,14.1749494 4.75761445,14.2418421 4.62958881,14.2751121 L1.92906333,14.9762954 C1.86797333,14.9920862 1.80546141,15 1.74279788,15 C1.54667919,15 1.35778554,14.9222997 1.21782759,14.7824826 C1.03144545,14.5960007 0.957625608,14.3247481 1.02388162,14.0693111 L1.72496977,11.3695244 C1.75820395,11.2411927 1.8252345,11.124175 1.91900773,11.0304139 L11.7331622,1.21762134 C11.8724414,1.07823649 12.061281,1 12.2581506,1 Z M14,7.25 C14.3796958,7.25 14.693491,7.53215388 14.7431534,7.89822944 L14.75,8 L14.75,13 C14.75,13.3796958 14.4678461,13.693491 14.1017706,13.7431534 L14,13.75 L9,13.75 C8.58578644,13.75 8.25,13.4142136 8.25,13 C8.25,12.6203042 8.53215388,12.306509 8.89822944,12.2568466 L9,12.25 L13.25,12.25 L13.25,8 C13.25,7.62030423 13.5321539,7.30650904 13.8982294,7.25684662 L14,7.25 Z M10.6132836,4.43923879 L3.11207004,11.939477 L2.77981618,13.2189777 L4.0611402,12.8862728 L11.5612461,5.38714206 L10.6132836,4.43923879 Z M2,2.25 L7,2.25 C7.41421356,2.25 7.75,2.58578644 7.75,3 C7.75,3.37969577 7.46784612,3.69349096 7.10177056,3.74315338 L7,3.75 L2.75,3.75 L2.75,8 C2.75,8.37969577 2.46784612,8.69349096 2.10177056,8.74315338 L2,8.75 C1.62030423,8.75 1.30650904,8.46784612 1.25684662,8.10177056 L1.25,8 L1.25,3 C1.25,2.62030423 1.53215388,2.30650904 1.89822944,2.25684662 L2,2.25 Z M12.2581451,2.7945911 L11.6644053,3.38825369 L12.6123678,4.33615696 L13.2061076,3.74249437 L12.2581451,2.7945911 Z"/>
</svg>
