<svg xmlns="http://www.w3.org/2000/svg" width="16" height="16" viewBox="0 0 16 16">
  <path fill="currentColor" fill-rule="evenodd" d="M3.5,2.5 L7.70833333,2.5 C8.26061808,2.5 8.70833333,2.94771525 8.70833333,3.5 C8.70833333,4.01283584 8.32229314,4.43550716 7.82495446,4.49327227 L7.70833333,4.5 L3.5,4.5 C2.72030388,4.5 2.07955132,5.09488808 2.00686658,5.85553999 L2,6 L2,12.5 C2,13.2796961 2.59488808,13.9204487 3.35553999,13.9931334 L3.5,14 L10,14 C10.7796961,14 11.4204487,13.4051119 11.4931334,12.64446 L11.5,12.5 L11.5,8.29166667 C11.5,7.73938192 11.9477153,7.29166667 12.5,7.29166667 C13.0128358,7.29166667 13.4355072,7.67770686 13.4932723,8.17504554 L13.5,8.29166667 L13.5,12.5 C13.5,14.3685634 12.0357224,15.8951264 10.1920352,15.9948211 L10,16 L3.5,16 C1.6314366,16 0.104873551,14.5357224 0.00517886273,12.6920352 L-8.8817842e-15,12.5 L-8.8817842e-15,6 C-8.8817842e-15,4.1314366 1.4642776,2.60487355 3.3079648,2.50517886 L3.5,2.5 Z M15.0523044,-1.33226763e-14 C15.4912722,-1.33226763e-14 15.8659689,0.300090222 15.9721746,0.726549837 L15.9930143,0.835696903 L16,0.947666667 L16,6.58954545 C16,7.11291741 15.5757061,7.53721212 15.0523347,7.53721212 C14.6133679,7.53721212 14.2386909,7.23712253 14.1324925,6.81066125 L14.1116544,6.70151372 L14.1046694,6.58954545 L14.1042424,3.23490909 L7.25965646,10.0805032 C7.13967981,10.2005328 6.99273294,10.2839087 6.83416109,10.3261561 L6.7132923,10.35006 L6.58950275,10.3581212 C6.34000386,10.3581212 6.09938108,10.2605448 5.91944737,10.0805712 C5.6139587,9.7750819 5.55779089,9.30777094 5.77349249,8.93240295 L5.8390777,8.83250009 L5.91944701,8.74039888 L12.7641212,1.89478788 L9.41043664,1.89533333 C8.96183258,1.89533333 8.58602016,1.58360661 8.48780037,1.16495482 L8.46914712,1.05818279 L8.46277135,0.947666667 C8.46277135,0.508699391 8.76286031,0.13402178 9.18932109,0.0278231881 L9.2984685,0.00698501832 L9.41043664,-1.33226763e-14 L15.0523044,-1.33226763e-14 Z"/>
</svg>
