<svg xmlns="http://www.w3.org/2000/svg" width="16" height="16" viewBox="0 0 16 16">
  <path fill="currentColor" fill-rule="evenodd" d="M10,11 C10.5522847,11 11,11.4477153 11,12 C11,12.5522847 10.5522847,13 10,13 L6,13 C5.44771525,13 5,12.5522847 5,12 C5,11.4477153 5.44771525,11 6,11 L10,11 Z M12,7 C12.5522847,7 13,7.44771525 13,8 C13,8.55228475 12.5522847,9 12,9 L4,9 C3.44771525,9 3,8.55228475 3,8 C3,7.44771525 3.44771525,7 4,7 L12,7 Z M15,3 C15.5522847,3 16,3.44771525 16,4 C16,4.55228475 15.5522847,5 15,5 L1,5 C0.44771525,5 6.76353751e-17,4.55228475 0,4 C-6.76353751e-17,3.44771525 0.44771525,3 1,3 L15,3 Z"/>
</svg>
