<svg xmlns="http://www.w3.org/2000/svg" width="16" height="16" viewBox="0 0 16 16">
  <path fill="currentColor" fill-rule="evenodd" d="M8,0 C12.418278,0 16,3.581722 16,8 C16,12.418278 12.418278,16 8,16 C3.581722,16 0,12.418278 0,8 C0,3.581722 3.581722,0 8,0 Z M8,2 C4.6862915,2 2,4.6862915 2,8 C2,11.3137085 4.6862915,14 8,14 C11.3137085,14 14,11.3137085 14,8 C14,4.6862915 11.3137085,2 8,2 Z M8,6.75 C8.4242823,6.75 8.78966876,7.02738517 8.89082647,7.42534964 L8.91170954,7.53675716 L8.91666667,7.625 L8.91666667,11.375 C8.91666667,11.8619845 8.50278344,12.25 8,12.25 C7.5757177,12.25 7.21033124,11.9726148 7.10917353,11.5746504 L7.08829046,11.4632428 L7.08333333,11.375 L7.08333333,7.625 C7.08333333,7.13801553 7.49721656,6.75 8,6.75 Z M8,4.41666667 C8.50626102,4.41666667 8.91666667,4.82707231 8.91666667,5.33333333 C8.91666667,5.83959435 8.50626102,6.25 8,6.25 C7.49373898,6.25 7.08333333,5.83959435 7.08333333,5.33333333 C7.08333333,4.82707231 7.49373898,4.41666667 8,4.41666667 Z"/>
</svg>
