<svg xmlns="http://www.w3.org/2000/svg" width="16" height="16" viewBox="0 0 16 16">
  <path fill="currentColor" fill-rule="evenodd" d="M6.18930274,9.75265609 L7.02611041,10.6596088 L2.5107209,15.1945831 C2.32682325,15.3795834 2.0280532,15.3795834 1.84364648,15.1945831 L1.84364648,15.1945831 L0.871303753,14.217601 C0.686897024,14.0326007 0.686897024,13.7321481 0.871303753,13.5471779 L0.871303753,13.5471779 L4.62828391,9.77308133 C4.79065047,9.81083342 4.95646081,9.83568062 5.1269427,9.83568062 C5.18926008,9.83568062 5.25142772,9.8329733 5.3137451,9.82770906 L5.3137451,9.82770906 L6.18930274,9.75265609 Z M1.54613416,0.902301411 C1.67645863,0.902301411 1.80336927,0.954011254 1.89721965,1.04831629 L1.89721965,1.04831629 L14.2083003,13.4148801 C14.3012523,13.5084331 14.353418,13.6354967 14.353418,13.7677945 C14.353418,13.9001224 14.3012523,14.0270958 14.207911,14.1206488 L14.207911,14.1206488 L13.1977167,15.1356237 C13.1038364,15.2292368 12.977345,15.2816686 12.8452237,15.2816686 L12.8452237,15.2816686 C12.7014536,15.2789914 12.5731654,15.2212953 12.4815909,15.1219366 L12.4815909,15.1219366 L6.58312101,8.72998039 L5.23043566,8.845944 C5.19596795,8.84880173 5.16141041,8.85024563 5.1269427,8.85024563 C4.80460525,8.85024563 4.49379696,8.72227956 4.26393239,8.49110438 L4.26393239,8.49110438 L1.93411298,6.15104598 C0.631826551,4.84280802 0.296552479,2.84967785 1.0988026,1.18398318 C1.16869629,1.03844961 1.30474042,0.936203094 1.46330385,0.909250204 C1.49052466,0.904677838 1.51840427,0.902301411 1.54613416,0.902301411 Z M11.5930667,0.799663841 C11.7698672,0.622334275 12.0557306,0.622334275 12.2320519,0.799663841 C12.4088524,0.977203976 12.4088524,1.26439064 12.2320519,1.44169012 L12.2320519,1.44169012 L9.79787111,3.88709341 C9.56797659,4.11781737 9.56797659,4.49263101 9.79787111,4.72353546 C10.0282448,4.9549513 10.4009811,4.9549513 10.6313548,4.72353546 L10.6313548,4.72353546 L13.0530182,2.2906761 C13.2360474,2.10687904 13.5329309,2.10687904 13.7168285,2.2906761 C13.8998577,2.47513494 13.8998577,2.77348178 13.7168285,2.95751949 L13.7168285,2.95751949 L11.2941769,5.39061951 C11.0648214,5.62155404 11.0648214,5.99609694 11.2941769,6.22709164 C11.5245505,6.45826683 11.8977062,6.45826683 12.1280798,6.22709164 L12.1280798,6.22709164 L14.5627697,3.7814477 C14.7390611,3.60441895 15.0244154,3.60441895 15.2007367,3.7814477 C15.3775372,3.95874719 15.3775372,4.24623466 15.2007068,4.42353415 L15.2007068,4.42353415 L12.4615272,7.17471437 C11.8037959,7.83605288 10.8784682,8.04508819 10.036959,7.83172116 L10.036959,7.83172116 L8.20097712,5.98731319 C7.9877924,5.14193698 8.19579648,4.21287444 8.85427643,3.55099447 L8.85427643,3.55099447 Z"/>
</svg>
