<svg xmlns="http://www.w3.org/2000/svg" width="16" height="16" viewBox="0 0 16 16">
  <path fill="currentColor" fill-rule="evenodd" d="M9.47045342,12.8576244 C9.47045342,13.7235288 8.81898978,14.4249717 8.01480831,14.4249717 C7.21062684,14.4249717 6.5591632,13.7235288 6.5591632,12.8576244 C6.5591632,11.9917748 7.21062684,11.2903319 8.01480831,11.2903319 C8.81898978,11.2903319 9.47045342,11.9917748 9.47045342,12.8576244 Z M10.3011192,7.35359268 C9.84294027,7.14550692 9.36759744,7.00119865 8.87977641,6.92401307 L11.3531329,9.58542154 L12.1682137,8.70778163 C11.6289774,8.127176 11.0008913,7.67072537 10.3011192,7.35359268 Z M5.51807428,7.45260411 C4.87129633,7.77982714 4.28996524,8.22616 3.79124489,8.78329463 L5.58352114,10.6493214 C6.1040656,10.0686883 6.76953538,9.70121363 7.49423838,9.58040379 L5.51807428,7.45260411 Z M2.55226199,4.25755943 C1.99586182,4.65357771 1.47689624,5.10832833 1,5.62351129 L2.76265964,7.52139936 C3.24268816,7.00454382 3.78037104,6.56490128 4.36480894,6.21083467 L2.55226199,4.25755943 Z M11.8565135,3.32455977 C10.6393038,2.77414289 9.34574786,2.4939167 8.01480831,2.4939167 C7.04387741,2.4939167 6.09474515,2.64327013 5.17988973,2.93693182 L7.29631893,5.21573009 C7.53322638,5.19055909 7.77324064,5.17882359 8.01478284,5.17882359 C9.98628672,5.17882359 11.8424819,6.00107632 13.243554,7.49455578 L15,5.58827737 C14.0898557,4.61834379 13.0331818,3.85649598 11.8565135,3.32455977 Z M2.35510651,3.06363683 L11.0826871,12.4607835 C11.3428994,12.7409588 11.7809701,12.7571421 12.0611454,12.4969299 C12.073635,12.4853301 12.085692,12.4732732 12.0972917,12.4607835 C12.3833261,12.152805 12.3833261,11.6763186 12.0972917,11.3683401 L3.36971109,1.9711934 C3.10949884,1.69101808 2.67142816,1.67483482 2.39125284,1.93504707 C2.37876322,1.94664678 2.36670622,1.95870378 2.35510651,1.9711934 C2.06907209,2.27917193 2.06907209,2.75565831 2.35510651,3.06363683 Z" transform="matrix(-1 0 0 1 16 0)"/>
</svg>
