<svg xmlns="http://www.w3.org/2000/svg" width="16" height="16" viewBox="0 0 16 16">
  <path fill="currentColor" fill-rule="evenodd" d="M15.6098577,13.7311916 L12.5150918,10.6347304 C14.467383,7.71070081 13.8844326,3.7817968 11.1673462,1.55134448 C8.45025977,-0.679107833 4.48528386,-0.483589923 2.00056426,2.00336994 C-0.484155337,4.4903298 -0.678164391,8.45754665 1.55202719,11.1753328 C3.78221877,13.893119 7.7091775,14.4749996 10.6309157,12.5206053 L13.7256816,15.6163999 C14.2497246,16.1278667 15.0858147,16.1278667 15.6098577,15.6163999 C16.1300474,15.095768 16.1300474,14.2518236 15.6098577,13.7311916 Z M6.83924458,2.00796943 C9.50698235,2.00796943 11.6696111,4.17178291 11.6696111,6.84098211 C11.6696111,9.51018131 9.50698235,11.6739948 6.83924458,11.6739948 C4.17150681,11.6739948 2.00887805,9.51018131 2.00887805,6.84098211 C2.01181555,4.17300128 4.17272451,2.01090855 6.83924458,2.00796943 Z"/>
</svg>
