<svg xmlns="http://www.w3.org/2000/svg" width="16" height="16" viewBox="0 0 16 16">
  <path fill="currentColor" fill-rule="evenodd" d="M11.7500491,6.49025798 C11.8881203,6.49025798 12.0000491,6.60218679 12.0000491,6.74025798 L12.0000491,12.990258 C12.0000491,13.5425427 11.5523338,13.990258 11.0000491,13.990258 L5.00004907,13.990258 C4.44776432,13.990258 4.00004907,13.5425427 4.00004907,12.990258 L4.00004907,6.74025798 C4.00004907,6.60218679 4.11197788,6.49025798 4.25004907,6.49025798 L11.7500491,6.49025798 Z M7.12504907,12.240258 L7.12504907,7.92775798 C7.12504907,7.7206512 6.95715585,7.55275798 6.75004907,7.55275798 C6.54294229,7.55275798 6.37504907,7.7206512 6.37504907,7.92775798 L6.37504907,12.240258 C6.37504907,12.4473648 6.54294229,12.615258 6.75004907,12.615258 C6.95715585,12.615258 7.12504907,12.4473648 7.12504907,12.240258 Z M9.62504907,12.240258 L9.62504907,7.92775798 C9.62504907,7.7206512 9.45715585,7.55275798 9.25004907,7.55275798 C9.04294229,7.55275798 8.87504907,7.7206512 8.87504907,7.92775798 L8.87504907,12.240258 C8.87504907,12.4473648 9.04294229,12.615258 9.25004907,12.615258 C9.45715585,12.615258 9.62504907,12.4473648 9.62504907,12.240258 Z M12.4610491,4.42075798 C12.7831315,4.57176255 12.99193,4.89212676 13.0000491,5.24775798 C12.9959505,5.520967 12.7732888,5.74025798 12.5000491,5.74025798 L3.50004907,5.74025798 C3.36621904,5.74025798 3.23796964,5.68663286 3.14399761,5.59134522 C3.05002557,5.49605758 2.99817545,5.3670749 3,5.23325798 C3.0224129,4.86527663 3.25113358,4.54165914 3.59054907,4.39775798 C4.22501326,4.11353941 4.9035073,3.94019535 5.59654907,3.88525798 C5.86714947,2.77853453 6.85897411,2 7.99829907,2 C9.13762403,2 10.1294487,2.77853453 10.4000491,3.88525798 C11.1138417,3.93727818 11.812214,4.118733 12.4610491,4.42075798 Z M7.98854907,3.00025798 C7.44397643,2.99240827 6.94309622,3.29736794 6.70004907,3.78475798 C7.56598067,3.73427798 8.43411747,3.73427798 9.30004907,3.78475798 C9.04878476,3.29405814 8.53973473,2.98955966 7.98854907,3.00025798 Z"/>
</svg>
