<svg xmlns="http://www.w3.org/2000/svg" width="200" height="88" viewBox="0 0 200 88">
  <g fill="none" fill-rule="evenodd">
    <g fill="currentColor" transform="translate(0 -1)">
      <path d="M71.093994,51.6538462 C64.723639,51.6538462 61.5384615,47.8931624 61.5384615,41.3119658 L61.5384615,38.9615385 L67.6728774,38.9615385 L67.6728774,41.7820513 C67.6728774,44.7200855 68.9705423,45.7777778 71.0350092,45.7777778 C73.0994761,45.7777778 74.397141,44.7200855 74.397141,41.6645299 C74.397141,38.2564103 73.0994761,36.082265 68.8525728,32.3803419 C63.4259741,27.6207265 61.6564311,24.2713675 61.6564311,19.5705128 C61.6564311,13.1068376 65.0185629,9.34615385 71.329933,9.34615385 C77.6413032,9.34615385 80.7674959,13.1068376 80.7674959,19.6880342 L80.7674959,21.392094 L74.63308,21.392094 L74.63308,19.2767094 C74.63308,16.3386752 73.4533847,15.2222222 71.3889178,15.2222222 C69.3244509,15.2222222 68.1447556,16.3386752 68.1447556,19.159188 C68.1447556,22.1559829 69.5014052,24.3301282 73.7483085,28.0320513 C79.1749072,32.7916667 80.8854655,36.082265 80.8854655,41.1944444 C80.8854655,47.8931624 77.4643489,51.6538462 71.093994,51.6538462 Z M93.7441449,51.6538462 C87.4917595,51.6538462 84.1886125,47.8931624 84.1886125,41.5470085 L84.1886125,19.4529915 C84.1886125,13.1068376 87.4917595,9.34615385 93.7441449,9.34615385 C99.9965303,9.34615385 103.299677,13.1068376 103.299677,19.4529915 L103.299677,23.8012821 L97.1652614,23.8012821 L97.1652614,19.0416667 C97.1652614,16.3386752 95.8675965,15.2222222 93.9210992,15.2222222 C91.9746019,15.2222222 90.676937,16.3386752 90.676937,19.0416667 L90.676937,42.017094 C90.676937,44.7200855 91.9746019,45.7777778 93.9210992,45.7777778 C95.8675965,45.7777778 97.1652614,44.7200855 97.1652614,42.017094 L97.1652614,35.7297009 L103.299677,35.7297009 L103.299677,41.5470085 C103.299677,47.8931624 99.9965303,51.6538462 93.7441449,51.6538462 Z M116.630235,51.6538462 C110.25988,51.6538462 106.956733,47.8931624 106.956733,41.3119658 L106.956733,9.93376068 L113.445057,9.93376068 L113.445057,41.7820513 C113.445057,44.7200855 114.683738,45.7777778 116.748204,45.7777778 C118.812671,45.7777778 120.051351,44.7200855 120.051351,41.7820513 L120.051351,9.93376068 L126.303737,9.93376068 L126.303737,41.3119658 C126.303737,47.8931624 123.00059,51.6538462 116.630235,51.6538462 Z M130.904549,51.0662393 L130.904549,9.93376068 L137.392873,9.93376068 L137.392873,45.1901709 L148.069116,45.1901709 L148.069116,51.0662393 L130.904549,51.0662393 Z M151.195309,51.0662393 L151.195309,9.93376068 L160.750841,9.93376068 C167.239166,9.93376068 170.424343,13.5181624 170.424343,20.099359 L170.424343,24.1538462 C170.424343,30.7350427 167.239166,34.3194444 160.750841,34.3194444 L157.683633,34.3194444 L157.683633,51.0662393 L151.195309,51.0662393 Z M157.683633,28.4433761 L160.750841,28.4433761 C162.815308,28.4433761 163.936019,27.5032051 163.936019,24.5651709 L163.936019,19.6880342 C163.936019,16.75 162.815308,15.8098291 160.750841,15.8098291 L157.683633,15.8098291 L157.683633,28.4433761 Z M179.036119,51.0662393 L179.036119,15.8098291 L172.252871,15.8098291 L172.252871,9.93376068 L192.307692,9.93376068 L192.307692,15.8098291 L185.524444,15.8098291 L185.524444,51.0662393 L179.036119,51.0662393 Z"/>
      <path d="M14.0717755,26.3901515 L26.3901515,14.0717755 L25.5533388,13.2349627 C23.6122713,11.2938952 23.1642608,8.59481344 24.5526795,7.20639482 L28.3236109,3.43546337 C29.7120295,2.04704475 32.4111113,2.49505518 34.3521788,4.43612266 L43.6408004,13.7247443 C45.5818679,15.6658118 46.0298783,18.3648935 44.6414597,19.7533122 L40.8705283,23.5242436 C39.4821096,24.9126622 36.7830279,24.4646518 34.8419604,22.5235843 L34.0051476,21.6867716 L21.6867716,34.0051476 L22.5235843,34.8419604 C24.4646518,36.7830279 24.9126622,39.4821096 23.5242436,40.8705283 L19.7533122,44.6414597 C18.3648935,46.0298783 15.6658118,45.5818679 13.7247443,43.6408004 L4.43612266,34.3521788 C2.49505518,32.4111113 2.04704475,29.7120295 3.43546337,28.3236109 L7.20639482,24.5526795 C8.59481344,23.1642608 11.2938952,23.6122713 13.2349627,25.5533388 L14.0717755,26.3901515 Z" transform="translate(5.77 7.415)"/>
    </g>
    <path fill="currentColor" d="M13.57,81 L15.07,66.84 L15.13,66.84 L16.63,81 L20.74,81 L22.87,60 L20.02,60 L18.55,76.14 L18.49,76.14 L16.93,60 L13.33,60 L11.77,76.14 L11.71,76.14 L10.24,60 L7.06,60 L9.19,81 L13.57,81 Z M27.85,81 L27.85,60 L24.55,60 L24.55,81 L27.85,81 Z M36.19,81 L36.19,63 L39.64,63 L39.64,60 L29.44,60 L29.44,63 L32.89,63 L32.89,81 L36.19,81 Z M44.53,81 L44.53,71.55 L48.07,71.55 L48.07,81 L51.37,81 L51.37,60 L48.07,60 L48.07,68.55 L44.53,68.55 L44.53,60 L41.23,60 L41.23,81 L44.53,81 Z M60.82,81 L61.42,76.89 L65.17,76.89 L65.17,76.83 L65.77,81 L69.07,81 L65.65,60 L61.18,60 L57.76,81 L60.82,81 Z M64.78,74.04 L61.81,74.04 L63.25,63.66 L63.31,63.66 L64.78,74.04 Z M73.6,81 L73.6,65.67 L73.66,65.67 L77.62,81 L81.01,81 L81.01,60 L78.07,60 L78.07,72.57 L78.01,72.57 L74.8,60 L70.66,60 L70.66,81 L73.6,81 Z M86.41,81 L86.41,65.67 L86.47,65.67 L90.43,81 L93.82,81 L93.82,60 L90.88,60 L90.88,72.57 L90.82,72.57 L87.61,60 L83.47,60 L83.47,81 L86.41,81 Z M98.47,81 L99.07,76.89 L102.82,76.89 L102.82,76.83 L103.42,81 L106.72,81 L103.3,60 L98.83,60 L95.41,81 L98.47,81 Z M102.43,74.04 L99.46,74.04 L100.9,63.66 L100.96,63.66 L102.43,74.04 Z M119.8,81 L122.98,60 L119.95,60 L117.79,76.29 L117.73,76.29 L115.57,60 L112.24,60 L115.42,81 L119.8,81 Z M127.87,81 L127.87,60 L124.57,60 L124.57,81 L127.87,81 Z M134.98,81.3 C138.16,81.3 139.84,79.38 139.84,76.14 L139.84,73.17 L136.72,73.17 L136.72,76.38 C136.72,77.76 136.06,78.3 135.07,78.3 C134.08,78.3 133.42,77.76 133.42,76.38 L133.42,64.65 C133.42,63.27 134.08,62.7 135.07,62.7 C136.06,62.7 136.72,63.27 136.72,64.65 L136.72,67.08 L139.84,67.08 L139.84,64.86 C139.84,61.62 138.16,59.7 134.98,59.7 C131.8,59.7 130.12,61.62 130.12,64.86 L130.12,76.14 C130.12,79.38 131.8,81.3 134.98,81.3 Z M147.7,81 L147.7,63 L151.15,63 L151.15,60 L140.95,60 L140.95,63 L144.4,63 L144.4,81 L147.7,81 Z M157.51,81.3 C160.75,81.3 162.52,79.38 162.52,76.02 L162.52,64.98 C162.52,61.62 160.75,59.7 157.51,59.7 C154.27,59.7 152.5,61.62 152.5,64.98 L152.5,76.02 C152.5,79.38 154.27,81.3 157.51,81.3 Z M157.51,78.3 C156.46,78.3 155.8,77.73 155.8,76.23 L155.8,64.77 C155.8,63.27 156.46,62.7 157.51,62.7 C158.56,62.7 159.22,63.27 159.22,64.77 L159.22,76.23 C159.22,77.73 158.56,78.3 157.51,78.3 Z M168.04,81 L168.04,72 L169.18,72 C170.68,72 171.25,72.63 171.25,74.58 L171.25,78.42 C171.25,80.13 171.37,80.46 171.55,81 L174.91,81 C174.58,80.22 174.55,79.47 174.55,78.45 L174.55,74.76 C174.55,72.39 174.01,70.83 172.36,70.32 L172.36,70.26 C173.83,69.66 174.52,68.28 174.52,66.12 L174.52,64.83 C174.52,61.59 173.05,60 169.63,60 L164.74,60 L164.74,81 L168.04,81 Z M169.24,69 L168.04,69 L168.04,63 L169.54,63 C170.71,63 171.22,63.66 171.22,65.16 L171.22,66.78 C171.22,68.46 170.47,69 169.24,69 Z M180.13,81 L180.13,60 L176.83,60 L176.83,81 L180.13,81 Z M184.78,81 L185.38,76.89 L189.13,76.89 L189.13,76.83 L189.73,81 L193.03,81 L189.61,60 L185.14,60 L181.72,81 L184.78,81 Z M188.74,74.04 L185.77,74.04 L187.21,63.66 L187.27,63.66 L188.74,74.04 Z"/>
  </g>
</svg>
