<svg xmlns="http://www.w3.org/2000/svg" width="200" height="88" viewBox="0 0 200 88">
  <g fill="none" fill-rule="evenodd">
    <g fill="currentColor" transform="translate(0 1)">
      <path d="M72.9268244,51.6538462 C66.6166338,51.6538462 63.4615385,47.8931624 63.4615385,41.3119658 L63.4615385,38.9615385 L69.5380183,38.9615385 L69.5380183,41.7820513 C69.5380183,44.7200855 70.8234275,45.7777778 72.8683967,45.7777778 C74.9133658,45.7777778 76.198775,44.7200855 76.198775,41.6645299 C76.198775,38.2564103 74.9133658,36.082265 70.7065721,32.3803419 C65.3312246,27.6207265 63.5783938,24.2713675 63.5783938,19.5705128 C63.5783938,13.1068376 66.9087722,9.34615385 73.1605351,9.34615385 C79.412298,9.34615385 82.5089656,13.1068376 82.5089656,19.6880342 L82.5089656,21.392094 L76.4324858,21.392094 L76.4324858,19.2767094 C76.4324858,16.3386752 75.263932,15.2222222 73.2189628,15.2222222 C71.1739936,15.2222222 70.0054398,16.3386752 70.0054398,19.159188 C70.0054398,22.1559829 71.3492767,24.3301282 75.5560704,28.0320513 C80.931418,32.7916667 82.625821,36.082265 82.625821,41.1944444 C82.625821,47.8931624 79.2370149,51.6538462 72.9268244,51.6538462 Z M86.3067655,51.0662393 L86.3067655,9.93376068 L92.7338115,9.93376068 L92.7338115,26.6805556 L99.628279,26.6805556 L99.628279,9.93376068 L106.055325,9.93376068 L106.055325,51.0662393 L99.628279,51.0662393 L99.628279,32.5566239 L92.7338115,32.5566239 L92.7338115,51.0662393 L86.3067655,51.0662393 Z M110.846396,51.0662393 L110.846396,9.93376068 L120.370109,9.93376068 C127.030866,9.93376068 129.893823,13.0480769 129.893823,19.3942308 L129.893823,21.9209402 C129.893823,26.1517094 128.549986,28.8547009 125.687029,30.0299145 L125.687029,30.1474359 C128.900552,31.1463675 129.95225,34.2019231 129.95225,38.8440171 L129.95225,46.0715812 C129.95225,48.0694444 130.010678,49.5384615 130.653383,51.0662393 L124.109481,51.0662393 C123.758915,50.008547 123.525204,49.3621795 123.525204,46.0128205 L123.525204,38.491453 C123.525204,34.6720085 122.415078,33.4380342 119.493694,33.4380342 L117.273442,33.4380342 L117.273442,51.0662393 L110.846396,51.0662393 Z M117.273442,27.5619658 L119.610549,27.5619658 C122.006085,27.5619658 123.466777,26.5042735 123.466777,23.2136752 L123.466777,20.0405983 C123.466777,17.1025641 122.473506,15.8098291 120.194826,15.8098291 L117.273442,15.8098291 L117.273442,27.5619658 Z M134.392755,51.0662393 L134.392755,9.93376068 L151.921062,9.93376068 L151.921062,15.8098291 L140.819801,15.8098291 L140.819801,26.6805556 L149.642382,26.6805556 L149.642382,32.5566239 L140.819801,32.5566239 L140.819801,45.1901709 L151.921062,45.1901709 L151.921062,51.0662393 L134.392755,51.0662393 Z M155.602007,51.0662393 L155.602007,9.93376068 L165.417859,9.93376068 C171.844905,9.93376068 175,13.5181624 175,20.099359 L175,40.900641 C175,47.4818376 171.844905,51.0662393 165.417859,51.0662393 L155.602007,51.0662393 Z M162.029053,45.1901709 L165.301003,45.1901709 C167.345973,45.1901709 168.572954,44.1324786 168.572954,41.1944444 L168.572954,19.8055556 C168.572954,16.8675214 167.345973,15.8098291 165.301003,15.8098291 L162.029053,15.8098291 L162.029053,45.1901709 Z"/>
      <path d="M37.4599359,32.4832776 C37.4599359,39.5023411 31.0025725,45.1923077 23.036859,45.1923077 C15.0711454,45.1923077 8.61378205,39.5023411 8.61378205,32.4832776 C8.61378205,24.958194 11.9737896,19.612709 15.6725498,12.9777592 C18.7680078,7.42525084 20.7447284,2.88461538 23.036859,2.88461538 C25.2991945,2.88461538 27.2279015,7.31488294 30.2831267,12.7668896 C34.0198423,19.4356187 37.4599359,24.7909699 37.4599359,32.4832776" transform="translate(15.385 7.415)"/>
    </g>
    <path fill="currentColor" d="M33.040813,78.7638889 L34.2022907,67.6194444 L34.2487498,67.6194444 L35.4102275,78.7638889 L38.5926762,78.7638889 L40.2419745,62.2361111 L38.035167,62.2361111 L36.8969189,74.9388889 L36.8504598,74.9388889 L35.642523,62.2361111 L32.8549766,62.2361111 L31.6470398,74.9388889 L31.6005807,74.9388889 L30.4623326,62.2361111 L28,62.2361111 L29.6492983,78.7638889 L33.040813,78.7638889 Z M44.0980803,78.7638889 L44.0980803,62.2361111 L41.5428295,62.2361111 L41.5428295,78.7638889 L44.0980803,78.7638889 Z M50.5558961,78.7638889 L50.5558961,64.5972222 L53.2272947,64.5972222 L53.2272947,62.2361111 L45.3292467,62.2361111 L45.3292467,64.5972222 L48.0006453,64.5972222 L48.0006453,78.7638889 L50.5558961,78.7638889 Z M57.0137119,78.7638889 L57.0137119,71.3263889 L59.7547992,71.3263889 L59.7547992,78.7638889 L62.31005,78.7638889 L62.31005,62.2361111 L59.7547992,62.2361111 L59.7547992,68.9652778 L57.0137119,68.9652778 L57.0137119,62.2361111 L54.458461,62.2361111 L54.458461,78.7638889 L57.0137119,78.7638889 Z M69.6273593,78.7638889 L70.0919503,75.5291667 L72.9956445,75.5291667 L72.9956445,75.4819444 L73.4602355,78.7638889 L76.0154864,78.7638889 L73.3673173,62.2361111 L69.9061139,62.2361111 L67.2579448,78.7638889 L69.6273593,78.7638889 Z M72.6936603,73.2861111 L70.3939345,73.2861111 L71.5089531,65.1166667 L71.5554122,65.1166667 L72.6936603,73.2861111 Z M79.5231489,78.7638889 L79.5231489,66.6986111 L79.569608,66.6986111 L82.635909,78.7638889 L85.2608485,78.7638889 L85.2608485,62.2361111 L82.9843523,62.2361111 L82.9843523,72.1291667 L82.9378932,72.1291667 L80.452331,62.2361111 L77.2466527,62.2361111 L77.2466527,78.7638889 L79.5231489,78.7638889 Z M89.4421681,78.7638889 L89.4421681,66.6986111 L89.4886272,66.6986111 L92.5549282,78.7638889 L95.1798677,78.7638889 L95.1798677,62.2361111 L92.9033715,62.2361111 L92.9033715,72.1291667 L92.8569124,72.1291667 L90.3713502,62.2361111 L87.1656719,62.2361111 L87.1656719,78.7638889 L89.4421681,78.7638889 Z M98.7804485,78.7638889 L99.2450395,75.5291667 L102.148734,75.5291667 L102.148734,75.4819444 L102.613325,78.7638889 L105.168576,78.7638889 L102.520407,62.2361111 L99.0592031,62.2361111 L96.411034,78.7638889 L98.7804485,78.7638889 Z M101.846749,73.2861111 L99.5470237,73.2861111 L100.662042,65.1166667 L100.708501,65.1166667 L101.846749,73.2861111 Z M115.296661,78.7638889 L117.758993,62.2361111 L115.412809,62.2361111 L113.740281,75.0569444 L113.693822,75.0569444 L112.021294,62.2361111 L109.442813,62.2361111 L111.905146,78.7638889 L115.296661,78.7638889 Z M121.545411,78.7638889 L121.545411,62.2361111 L118.99016,62.2361111 L118.99016,78.7638889 L121.545411,78.7638889 Z M127.050815,79 C129.513147,79 130.814002,77.4888889 130.814002,74.9388889 L130.814002,72.6013889 L128.398129,72.6013889 L128.398129,75.1277778 C128.398129,76.2138889 127.887079,76.6388889 127.120503,76.6388889 C126.353928,76.6388889 125.842878,76.2138889 125.842878,75.1277778 L125.842878,65.8958333 C125.842878,64.8097222 126.353928,64.3611111 127.120503,64.3611111 C127.887079,64.3611111 128.398129,64.8097222 128.398129,65.8958333 L128.398129,67.8083333 L130.814002,67.8083333 L130.814002,66.0611111 C130.814002,63.5111111 129.513147,62 127.050815,62 C124.588482,62 123.287627,63.5111111 123.287627,66.0611111 L123.287627,74.9388889 C123.287627,77.4888889 124.588482,79 127.050815,79 Z M136.900145,78.7638889 L136.900145,64.5972222 L139.571544,64.5972222 L139.571544,62.2361111 L131.673496,62.2361111 L131.673496,64.5972222 L134.344894,64.5972222 L134.344894,78.7638889 L136.900145,78.7638889 Z M144.496209,79 C147.005001,79 148.375544,77.4888889 148.375544,74.8444444 L148.375544,66.1555556 C148.375544,63.5111111 147.005001,62 144.496209,62 C141.987417,62 140.616874,63.5111111 140.616874,66.1555556 L140.616874,74.8444444 C140.616874,77.4888889 141.987417,79 144.496209,79 Z M144.496209,76.6388889 C143.683175,76.6388889 143.172125,76.1902778 143.172125,75.0097222 L143.172125,65.9902778 C143.172125,64.8097222 143.683175,64.3611111 144.496209,64.3611111 C145.309243,64.3611111 145.820294,64.8097222 145.820294,65.9902778 L145.820294,75.0097222 C145.820294,76.1902778 145.309243,76.6388889 144.496209,76.6388889 Z M152.649782,78.7638889 L152.649782,71.6805556 L153.532505,71.6805556 C154.693983,71.6805556 155.135344,72.1763889 155.135344,73.7111111 L155.135344,76.7333333 C155.135344,78.0791667 155.228263,78.3388889 155.36764,78.7638889 L157.96935,78.7638889 C157.713825,78.15 157.690595,77.5597222 157.690595,76.7569444 L157.690595,73.8527778 C157.690595,71.9875 157.272463,70.7597222 155.994838,70.3583333 L155.994838,70.3111111 C157.133086,69.8388889 157.667366,68.7527778 157.667366,67.0527778 L157.667366,66.0375 C157.667366,63.4875 156.529118,62.2361111 153.880949,62.2361111 L150.094531,62.2361111 L150.094531,78.7638889 L152.649782,78.7638889 Z M153.578964,69.3194444 L152.649782,69.3194444 L152.649782,64.5972222 L153.81126,64.5972222 C154.717212,64.5972222 155.112115,65.1166667 155.112115,66.2972222 L155.112115,67.5722222 C155.112115,68.8944444 154.531376,69.3194444 153.578964,69.3194444 Z M162.011292,78.7638889 L162.011292,62.2361111 L159.456041,62.2361111 L159.456041,78.7638889 L162.011292,78.7638889 Z M165.611873,78.7638889 L166.076464,75.5291667 L168.980158,75.5291667 L168.980158,75.4819444 L169.444749,78.7638889 L172,78.7638889 L169.351831,62.2361111 L165.890628,62.2361111 L163.242458,78.7638889 L165.611873,78.7638889 Z M168.678174,73.2861111 L166.378448,73.2861111 L167.493467,65.1166667 L167.539926,65.1166667 L168.678174,73.2861111 Z"/>
  </g>
</svg>
