<svg xmlns="http://www.w3.org/2000/svg" width="200" height="88" viewBox="0 0 200 88">
  <g fill="none" fill-rule="evenodd">
    <g fill="currentColor" transform="translate(0 2)">
      <path d="M85.5389676,51.0662393 L85.5389676,15.8098291 L78.8461538,15.8098291 L78.8461538,9.93376068 L98.6336032,9.93376068 L98.6336032,15.8098291 L91.9407895,15.8098291 L91.9407895,51.0662393 L85.5389676,51.0662393 Z M110.97166,51.6538462 C104.686235,51.6538462 101.25253,47.8931624 101.25253,41.3119658 L101.25253,19.6880342 C101.25253,13.1068376 104.686235,9.34615385 110.97166,9.34615385 C117.257085,9.34615385 120.690789,13.1068376 120.690789,19.6880342 L120.690789,41.3119658 C120.690789,47.8931624 117.257085,51.6538462 110.97166,51.6538462 Z M110.97166,45.7777778 C113.008603,45.7777778 114.288968,44.6613248 114.288968,41.7232906 L114.288968,19.2767094 C114.288968,16.3386752 113.008603,15.2222222 110.97166,15.2222222 C108.934717,15.2222222 107.654352,16.3386752 107.654352,19.2767094 L107.654352,41.7232906 C107.654352,44.6613248 108.934717,45.7777778 110.97166,45.7777778 Z M124.99747,51.0662393 L124.99747,9.93376068 L133.028846,9.93376068 L139.256073,34.5544872 L139.37247,34.5544872 L139.37247,9.93376068 L145.075911,9.93376068 L145.075911,51.0662393 L138.499494,51.0662393 L130.817308,21.0395299 L130.700911,21.0395299 L130.700911,51.0662393 L124.99747,51.0662393 Z M149.848178,51.0662393 L149.848178,9.93376068 L167.307692,9.93376068 L167.307692,15.8098291 L156.25,15.8098291 L156.25,26.6805556 L165.037955,26.6805556 L165.037955,32.5566239 L156.25,32.5566239 L156.25,45.1901709 L167.307692,45.1901709 L167.307692,51.0662393 L149.848178,51.0662393 Z"/>
      <path d="M40.089323,31.1390533 L40.1098786,31.1830998 C40.2139153,31.4111052 40.6669784,32.468222 40.39514,33.0278822 C40.39514,33.0278822 34.5845969,35.2315078 30.914781,39.0091656 C27.244964,42.7868234 25.410056,46.5644812 25.1042378,46.879278 C24.7984197,47.1940868 23.5751469,47.1940868 23.2693287,46.879278 C22.9635106,46.5644812 21.1286026,41.5276001 15.9296958,37.7499544 C10.7307891,33.9722966 7.67260839,33.0278822 7.67260839,33.0278822 C7.67260839,33.0278822 7.36679021,31.4538621 7.97842657,31.1390533 C7.97842657,31.1390533 22.9635106,35.2315078 40.089323,31.1390533 Z M13.257576,0.961538462 C12.1938342,3.21271455 11.141235,5.43987875 10.1130737,7.6157448 C11.8828534,8.4663481 13.6338932,9.1746991 15.2410917,10.1098291 C18.1091807,11.7782922 20.3888626,14.0764007 22.2786788,16.7202562 C22.5792767,17.140707 22.8953224,17.2554305 23.3762284,17.1899435 C23.7055692,17.1449515 24.0574486,17.0868621 24.3733676,17.1513789 C25.0714284,17.2937525 25.5015595,17.1180291 25.9354891,16.5244016 C28.4479001,13.0873045 31.6025321,10.348129 35.646549,8.63249103 C36.4052612,8.31063458 37.1965149,8.05911601 38.0186641,7.75823965 C36.9431466,5.48402183 35.8724406,3.22011216 34.8042671,0.961538462 L34.8042671,0.961538462 L36.1756976,0.961538462 C37.6941349,3.81749908 39.2095332,6.67503624 40.6875785,9.55015787 C42.9592833,13.9695599 42.8178478,18.3949042 40.4150904,22.7436045 C40.2656778,23.013799 39.9448206,23.2591327 39.6442226,23.3806474 C37.0343136,24.4346242 34.4117424,24.1050063 31.8705885,23.2152321 C30.2389521,22.64404 28.7157032,21.7921027 27.1305368,21.093696 C26.7459892,20.9241575 26.3140855,20.7956089 25.8953503,20.7672312 C25.1189112,20.7148416 24.3333554,20.7885751 23.5561566,20.7404301 C22.2875423,20.6618457 21.1689737,20.886078 20.0363501,21.5476179 C17.8663219,22.8151551 15.4986385,23.67449 12.9388713,23.9455334 C11.2949527,24.1196803 9.69446513,23.9710006 8.18223226,23.2905422 C7.97533378,23.1975264 7.78097077,22.9958507 7.67207684,22.7984195 C5.19132104,18.2980077 5.12294578,13.7792838 7.54482288,9.22696742 C9.00868658,6.47578599 10.4607746,3.71914732 11.9112164,0.961538462 L11.9112164,0.961538462 Z" transform="translate(25 7.415)"/>
    </g>
    <path fill="currentColor" d="M39.6207453,77.7916667 L40.6854331,67.9583333 L40.7280206,67.9583333 L41.7927085,77.7916667 L44.7099532,77.7916667 L46.22181,63.2083333 L44.198903,63.2083333 L43.155509,74.4166667 L43.1129214,74.4166667 L42.0056461,63.2083333 L39.4503952,63.2083333 L38.3431199,74.4166667 L38.3005323,74.4166667 L37.2571382,63.2083333 L35,63.2083333 L36.5118568,77.7916667 L39.6207453,77.7916667 Z M49.7565736,77.7916667 L49.7565736,63.2083333 L47.4142604,63.2083333 L47.4142604,77.7916667 L49.7565736,77.7916667 Z M55.6762381,77.7916667 L55.6762381,65.2916667 L58.1250202,65.2916667 L58.1250202,63.2083333 L50.8851428,63.2083333 L50.8851428,65.2916667 L53.3339248,65.2916667 L53.3339248,77.7916667 L55.6762381,77.7916667 Z M61.5959026,77.7916667 L61.5959026,71.2291667 L64.1085659,71.2291667 L64.1085659,77.7916667 L66.4508792,77.7916667 L66.4508792,63.2083333 L64.1085659,63.2083333 L64.1085659,69.1458333 L61.5959026,69.1458333 L61.5959026,63.2083333 L59.2535893,63.2083333 L59.2535893,77.7916667 L61.5959026,77.7916667 Z M73.1584126,77.7916667 L73.5842878,74.9375 L76.2460074,74.9375 L76.2460074,74.8958333 L76.6718826,77.7916667 L79.0141958,77.7916667 L76.5867075,63.2083333 L73.4139377,63.2083333 L70.9864494,77.7916667 L73.1584126,77.7916667 Z M75.9691886,72.9583333 L73.8611066,72.9583333 L74.883207,65.75 L74.9257945,65.75 L75.9691886,72.9583333 Z M82.2295532,77.7916667 L82.2295532,67.1458333 L82.2721407,67.1458333 L85.0829166,77.7916667 L87.4891111,77.7916667 L87.4891111,63.2083333 L85.402323,63.2083333 L85.402323,71.9375 L85.3597354,71.9375 L83.0813034,63.2083333 L80.142765,63.2083333 L80.142765,77.7916667 L82.2295532,77.7916667 Z M91.3219874,77.7916667 L91.3219874,67.1458333 L91.3645749,67.1458333 L94.1753509,77.7916667 L96.5815454,77.7916667 L96.5815454,63.2083333 L94.4947572,63.2083333 L94.4947572,71.9375 L94.4521697,71.9375 L92.1737377,63.2083333 L89.2351992,63.2083333 L89.2351992,77.7916667 L91.3219874,77.7916667 Z M99.8820778,77.7916667 L100.307953,74.9375 L102.969673,74.9375 L102.969673,74.8958333 L103.395548,77.7916667 L105.737861,77.7916667 L103.310373,63.2083333 L100.137603,63.2083333 L97.7101145,77.7916667 L99.8820778,77.7916667 Z M102.692854,72.9583333 L100.584772,72.9583333 L101.606872,65.75 L101.64946,65.75 L102.692854,72.9583333 Z M115.021939,77.7916667 L117.279077,63.2083333 L115.128408,63.2083333 L113.595257,74.5208333 L113.55267,74.5208333 L112.019519,63.2083333 L109.655912,63.2083333 L111.91305,77.7916667 L115.021939,77.7916667 Z M120.74996,77.7916667 L120.74996,63.2083333 L118.407646,63.2083333 L118.407646,77.7916667 L120.74996,77.7916667 Z M125.79658,78 C128.053718,78 129.246169,76.6666667 129.246169,74.4166667 L129.246169,72.3541667 L127.031618,72.3541667 L127.031618,74.5833333 C127.031618,75.5416667 126.563155,75.9166667 125.860461,75.9166667 C125.157767,75.9166667 124.689305,75.5416667 124.689305,74.5833333 L124.689305,66.4375 C124.689305,65.4791667 125.157767,65.0833333 125.860461,65.0833333 C126.563155,65.0833333 127.031618,65.4791667 127.031618,66.4375 L127.031618,68.125 L129.246169,68.125 L129.246169,66.5833333 C129.246169,64.3333333 128.053718,63 125.79658,63 C123.539442,63 122.346991,64.3333333 122.346991,66.5833333 L122.346991,74.4166667 C122.346991,76.6666667 123.539442,78 125.79658,78 Z M134.825133,77.7916667 L134.825133,65.2916667 L137.273915,65.2916667 L137.273915,63.2083333 L130.034038,63.2083333 L130.034038,65.2916667 L132.48282,65.2916667 L132.48282,77.7916667 L134.825133,77.7916667 Z M141.788192,78 C144.087917,78 145.344249,76.6666667 145.344249,74.3333333 L145.344249,66.6666667 C145.344249,64.3333333 144.087917,63 141.788192,63 C139.488466,63 138.232134,64.3333333 138.232134,66.6666667 L138.232134,74.3333333 C138.232134,76.6666667 139.488466,78 141.788192,78 Z M141.788192,75.9166667 C141.04291,75.9166667 140.574447,75.5208333 140.574447,74.4791667 L140.574447,66.5208333 C140.574447,65.4791667 141.04291,65.0833333 141.788192,65.0833333 C142.533473,65.0833333 143.001936,65.4791667 143.001936,66.5208333 L143.001936,74.4791667 C143.001936,75.5208333 142.533473,75.9166667 141.788192,75.9166667 Z M149.2623,77.7916667 L149.2623,71.5416667 L150.071463,71.5416667 C151.136151,71.5416667 151.540732,71.9791667 151.540732,73.3333333 L151.540732,76 C151.540732,77.1875 151.625907,77.4166667 151.75367,77.7916667 L154.138571,77.7916667 C153.904339,77.25 153.883046,76.7291667 153.883046,76.0208333 L153.883046,73.4583333 C153.883046,71.8125 153.499758,70.7291667 152.328601,70.375 L152.328601,70.3333333 C153.371995,69.9166667 153.861752,68.9583333 153.861752,67.4583333 L153.861752,66.5625 C153.861752,64.3125 152.818358,63.2083333 150.390869,63.2083333 L146.919987,63.2083333 L146.919987,77.7916667 L149.2623,77.7916667 Z M150.114051,69.4583333 L149.2623,69.4583333 L149.2623,65.2916667 L150.326988,65.2916667 C151.157445,65.2916667 151.519439,65.75 151.519439,66.7916667 L151.519439,67.9166667 C151.519439,69.0833333 150.987095,69.4583333 150.114051,69.4583333 Z M157.843684,77.7916667 L157.843684,63.2083333 L155.501371,63.2083333 L155.501371,77.7916667 L157.843684,77.7916667 Z M161.144217,77.7916667 L161.570092,74.9375 L164.231812,74.9375 L164.231812,74.8958333 L164.657687,77.7916667 L167,77.7916667 L164.572512,63.2083333 L161.399742,63.2083333 L158.972254,77.7916667 L161.144217,77.7916667 Z M163.954993,72.9583333 L161.846911,72.9583333 L162.869011,65.75 L162.911599,65.75 L163.954993,72.9583333 Z"/>
  </g>
</svg>
