<svg xmlns="http://www.w3.org/2000/svg" width="176" height="56" viewBox="0 0 176 56">
  <path fill="currentColor" fill-rule="evenodd" d="M20.1932598,2.70262433 C22.4265567,3.55947715 23.203094,4.23974204 24.0057164,5.03639443 C25.4392464,6.4642252 26.4219692,7.54140626 27.2535666,10.3141078 L27.3526521,10.6551015 C27.3626118,10.6924727 27.3879614,10.7238617 27.4223975,10.7414635 C27.4568336,10.7590652 27.497121,10.7612261 27.5332421,10.7474088 C29.7404539,9.92667623 30.9644531,9.30059173 33.5348516,9.81630877 C36.4042269,10.3922262 39.7230707,12.495228 40.5577981,16.9580868 C41.3343353,21.1038899 39.6147167,24.8664169 37.7726981,26.5640691 C34.0946807,29.9513468 26.9834458,34.0810964 24.9166929,35.1606909 C24.6445946,35.3015578 24.3098233,35.195645 24.1682475,34.9239025 L22.18577,31.6249188 C22.0720208,31.4028114 22.1545046,31.1305094 22.3723797,31.0088677 C23.6124314,30.3486696 28.994015,27.521256 30.8219877,26.2570469 C33.5308385,24.3767867 35.5133159,22.7413416 35.838378,20.3774713 C36.3139318,17.0002271 34.3755986,15.1781606 32.9469306,14.8229781 C30.5651485,14.2209738 28.8977003,15.182174 27.5452815,15.9085925 C26.8088754,16.3099288 25.1193551,17.1607615 25.1193551,17.1607615 C24.7280766,17.3995566 23.9615722,17.1607615 23.8833165,16.7052449 C23.8833165,16.7052449 23.293389,14.6082632 23.1248383,13.8958914 C22.727897,12.0318822 21.8531883,10.3031012 20.5865448,8.8791887 C20.3236859,8.5721665 18.5518968,6.76615352 14.9059843,7.54675246 C12.8637765,8.00274671 11.249828,9.56562995 10.7283344,11.5922215 C10.3571215,12.9206444 10.3270232,14.6022432 10.8467212,16.7734721 C11.5751011,19.8597476 14.19767,23.3955197 15.6785084,25.7453432 C17.2977992,28.3159017 21.6379802,34.1473169 23.6224642,37.5847616 C23.6585822,37.6449621 23.8451919,37.6690422 23.9094017,37.6429554 C25.4323779,36.984764 32.6720324,32.6262527 32.9268651,32.5239119 C33.1435488,32.429494 33.3958586,32.5270241 33.4927139,32.7426402 L35.3246997,35.8830961 C35.4531192,36.1720581 35.2384177,36.5091806 34.9474671,36.6356015 C34.2853036,36.9245635 26.4798002,41.6984578 26.1186201,41.8529723 C26.0855788,41.8635495 26.0581127,41.8868556 26.0422971,41.9177356 C26.0264815,41.9486156 26.0236197,41.9845247 26.0343447,42.0175201 C26.2350003,42.4830701 27.1560096,44.1486154 27.2623571,46.0509491 C27.4610061,49.5987613 24.491303,54.4489095 18.4896936,52.5887161 C14.3361224,51.3024335 13.8324768,47.4255257 15.2551251,44.2890831 C16.4369867,41.6803977 18.4656149,40.4583289 19.0856408,39.9245518 C19.1625832,39.8539483 19.1830907,39.7407398 19.1358047,39.6476298 C17.7693399,37.1994789 13.6378408,31.6429789 12.1891073,29.6142244 C11.1477047,28.1613872 5.80424563,21.4771326 5.19425257,15.968793 C4.90330193,13.3380341 4.86718391,12.1801791 5.5955638,10.073164 C6.67308445,6.92869469 8.52312921,4.53271748 11.53497,3.15412757 L11.6051995,3.12402735 C14.6571713,1.82169133 17.3519763,1.61098982 20.1932598,2.70262433 Z M145.901996,43.528551 C146.845077,43.528551 147.559411,43.8175131 148.044998,44.3954372 C148.530584,44.9733614 148.774046,45.8228564 148.775384,46.9439222 C148.775384,48.0623125 148.531253,48.9118074 148.042991,49.4924072 C147.554729,50.0730069 146.838389,50.3639757 145.89397,50.3653134 C144.965603,50.3653134 144.252607,50.0730069 143.754981,49.4883938 C143.257355,48.9037807 143.009879,48.0529479 143.012533,46.9358955 C143.012533,45.8308831 143.258692,44.9867392 143.750968,44.4034639 C144.243243,43.8201886 144.960252,43.528551 145.901996,43.528551 Z M132.712902,43.5405911 C133.354558,43.5409397 133.985857,43.7023966 134.548901,44.0101545 L134.057295,45.4148312 C133.845937,45.3020337 133.626642,45.2047867 133.401151,45.1238625 C133.17219,45.0445069 132.931117,45.0057971 132.688824,45.0094816 C132.317868,45.0059145 131.97522,45.2073486 131.797913,45.5332254 C131.562208,45.9776525 131.451264,46.4776246 131.476864,46.9800425 C131.476864,48.2589672 131.910949,48.8984296 132.779119,48.8984296 C133.038212,48.8989186 133.295687,48.8575846 133.54161,48.776022 C133.793486,48.6909335 134.040644,48.5924662 134.282029,48.4810399 L134.282029,49.9980908 C133.759059,50.2493679 133.184664,50.3751106 132.604548,50.3653134 C131.709624,50.3653134 131.024051,50.0743447 130.547828,49.4924072 C130.071605,48.9104697 129.832825,48.0703392 129.831488,46.9720157 C129.819561,46.352352 129.937822,45.737084 130.178622,45.1660028 C130.38513,44.6733628 130.734605,44.2539665 131.1819,43.9619941 C131.63972,43.6740807 132.172243,43.5275057 132.712902,43.5405911 Z M72.7108538,43.6328984 L72.7108538,46.0971028 L74.5709313,46.0971028 L74.5709313,43.6328984 L76.1761762,43.6328984 L76.1882156,50.2750128 L74.5829706,50.2750128 L74.5829706,47.568 L72.7108538,47.568 L72.7108538,50.2750128 L71.1056088,50.2750128 L71.1056088,43.6328984 L72.7108538,43.6328984 Z M166.116042,43.6048049 L168.072435,50.2750128 L166.322718,50.2750128 L166.02976,49.0308705 L164.105473,49.0308705 L163.80449,50.2750128 L162.046746,50.2750128 L163.97906,43.6048049 L166.116042,43.6048049 Z M159.957922,43.6328984 L159.957922,50.2750128 L158.352677,50.2750128 L158.352677,43.6328984 L159.957922,43.6328984 Z M62.031962,43.6328984 L62.031962,50.2750128 L60.426717,50.2750128 L60.426717,43.6328984 L62.031962,43.6328984 Z M68.8181348,43.6268784 L68.8181348,45.0937622 L67.375421,45.0937622 L67.375421,50.2750128 L65.770176,50.2750128 L65.770176,45.0937622 L64.3234491,45.0937622 L64.3234491,43.6268784 L68.8181348,43.6268784 Z M119.678313,43.6328984 L120.480936,47.0001093 C120.608517,47.5135339 120.70037,48.0351826 120.755834,48.5613072 C120.7759,48.360639 120.812018,48.0857237 120.870208,47.7586347 C120.928398,47.4315457 120.976555,47.190744 121.018693,47.0101427 L121.841381,43.6328984 L123.631229,43.6328984 L121.690889,50.2750128 L119.806733,50.2750128 L117.872413,43.6328984 L119.678313,43.6328984 Z M86.3032651,43.6048049 L88.2616639,50.2750128 L86.5099404,50.2750128 L86.2189897,49.0308705 L84.2926958,49.0308705 L83.993719,50.2750128 L82.2339692,50.2750128 L84.1682893,43.6048049 L86.3032651,43.6048049 Z M100.80264,43.6328984 L102.959688,48.2482649 L102.983766,48.2482649 C102.946311,47.5793712 102.927583,47.0442563 102.927583,46.64292 L102.927583,43.6328984 L104.354244,43.6328984 L104.356251,50.2750128 L102.255386,50.2750128 L100.092319,45.5954325 L100.054194,45.5954325 C100.106365,46.3312156 100.13245,46.8930863 100.13245,47.2810446 L100.13245,50.2750128 L98.7138149,50.2750128 L98.7138149,43.6328984 L100.80264,43.6328984 Z M140.933763,43.6268784 L140.933763,45.0937622 L139.491049,45.0937622 L139.497069,50.2750128 L137.891824,50.2750128 L137.891824,45.0937622 L136.445097,45.0937622 L136.445097,43.6268784 L140.933763,43.6268784 Z M153.227932,43.6328984 C154.833177,43.6328984 155.6358,44.2870764 155.6358,45.5954325 C155.653282,46.3294775 155.268484,47.0144603 154.632522,47.3813787 L156.35816,50.2750128 L154.552259,50.2750128 L153.296155,47.8569621 L152.890831,47.8569621 L152.890831,50.2750128 L151.285586,50.2750128 L151.285586,43.6328984 L153.227932,43.6328984 Z M127.321286,43.6328984 L127.321286,50.2750128 L125.716041,50.2750128 L125.716041,43.6328984 L127.321286,43.6328984 Z M51.3811619,43.6328984 L52.0252665,46.9619823 C52.1724139,47.6991032 52.2727417,48.2857229 52.3262499,48.7218416 C52.3610302,48.4128128 52.4232334,47.9927475 52.5128596,47.4616459 C52.6051612,46.9318821 52.6894365,46.4944256 52.7676922,46.1452631 L53.2893968,43.6328984 L54.7742484,43.6328984 L55.2799005,46.1452631 C55.3661824,46.5465993 55.4544709,47.0121494 55.5427594,47.5399065 C55.6310478,48.0676636 55.6912445,48.4609731 55.7213429,48.7218416 C55.7574609,48.3847192 55.8537756,47.8027817 56.010287,46.9720157 L56.6664308,43.6328984 L58.211479,43.6328984 L56.7567258,50.2750128 L54.8645434,50.2750128 L54.296688,47.3813787 C54.2712716,47.25964 54.229134,47.0188383 54.170275,46.6589735 C54.1120848,46.2977709 54.0679406,45.9967687 54.0418554,45.7539603 C54.0197833,45.9546284 53.9856718,46.1954302 53.9355079,46.4884056 C53.885344,46.781381 53.8391932,47.0482696 53.7930424,47.291078 L53.2031149,50.2709994 L51.3109325,50.2709994 L49.8361137,43.6328984 L51.3811619,43.6328984 Z M92.4373072,43.6328984 L94.5943551,48.2482649 L94.6184338,48.2482649 C94.5851823,47.6749274 94.5666728,47.1998764 94.5629054,46.8231118 L94.5622502,43.6328984 L95.986905,43.6328984 L95.986905,50.2750128 L93.8880473,50.2750128 L91.7249798,45.5954325 L91.6868552,45.5954325 C91.7390257,46.3312156 91.7651109,46.8930863 91.7651109,47.2810446 L91.7651109,50.2750128 L90.3464757,50.2750128 L90.3464757,43.6328984 L92.4373072,43.6328984 Z M110.510358,43.6048049 L112.466751,50.2750128 L110.717034,50.2750128 L110.424077,49.0308705 L108.499789,49.0308705 L108.198806,50.2750128 L106.441063,50.2750128 L108.373376,43.6048049 L110.510358,43.6048049 Z M21.8667276,43.1974486 C21.8667276,43.1974486 20.7928485,44.0136476 20.254318,44.469478 L20.165168,44.5459383 C19.0245992,45.5497013 18.6043897,46.4796229 18.8670048,47.4995002 L18.91709,47.6703408 C19.3719676,48.8296789 20.5593557,49.2693128 21.5222095,48.7907968 L21.6520261,48.719835 C22.4986017,48.1292974 23.0066562,47.0036448 22.6925883,45.6860998 L22.6392517,45.4870717 C22.4852749,44.8502145 21.9296979,43.3650815 21.8716426,43.2105159 L21.8667276,43.1974486 Z M145.910022,44.9994482 C145.102049,44.9994482 144.698062,45.6476062 144.698062,46.9439222 C144.698062,48.2281981 145.099373,48.870336 145.901996,48.870336 C146.26566,48.8930886 146.612187,48.7132538 146.802939,48.4027793 C147.003595,48.0917438 147.097903,47.6001069 147.097903,46.9439222 C147.097903,46.2877375 146.997575,45.7920873 146.798926,45.4750316 C146.612935,45.1647621 146.27133,44.9819959 145.910022,44.9994482 Z M165.056581,44.7004527 C165.032502,44.8549672 164.984345,45.101789 164.914115,45.4629916 C164.843886,45.8241942 164.683361,46.5164991 164.436555,47.5579666 L165.698679,47.5579666 L165.441839,46.4683388 C165.383649,46.2255304 165.311413,45.9124881 165.225131,45.5272054 C165.138849,45.1419226 165.084672,44.8670073 165.056581,44.7004527 Z M109.446884,44.7004527 C109.422805,44.8549672 109.374648,45.101789 109.304418,45.4629916 C109.234189,45.8241942 109.073664,46.5164991 108.826858,47.5579666 L110.092995,47.5579666 L109.832142,46.4683388 C109.773952,46.2255304 109.701716,45.9124881 109.615434,45.5272054 C109.529152,45.1419226 109.474975,44.8670073 109.446884,44.7004527 Z M85.24581,44.7004527 C85.2217313,44.8549672 85.173574,45.101789 85.101338,45.4629916 C85.0291019,45.8241942 84.870584,46.5164991 84.6257842,47.5579666 L85.8859014,47.5579666 L85.6310688,46.4683388 C85.5708721,46.2255304 85.4986361,45.9124881 85.4143607,45.5272054 C85.3300854,45.1419226 85.2718952,44.8670073 85.24581,44.7004527 Z M153.207867,44.9914215 L152.890831,44.9914215 L152.890831,46.5084724 L153.191814,46.5084724 C153.749637,46.5084724 154.030555,46.2315504 154.030555,45.6777064 C154.030555,45.2201831 153.756325,44.9914215 153.207867,44.9914215 Z M125.679923,5.91331406 C130.501677,5.91331406 133.136286,8.89724883 133.136286,14.1166263 L133.136286,31.0851216 C133.136286,36.3024924 130.503684,39.2884339 125.679923,39.2884339 C120.856162,39.2884339 118.22356,36.3044991 118.22356,31.0851216 L118.22356,14.1166263 C118.22356,8.89925552 120.858168,5.91331406 125.679923,5.91331406 Z M158.812178,6.28655674 L162.562431,21.1560636 L166.312685,6.28655674 L171,6.28655674 L164.793722,28.1011868 L164.793722,38.9151912 L159.883679,38.9151912 L159.883679,28.1011868 L153.677401,6.28655674 L158.812178,6.28655674 Z M63.2599743,6.28655674 L63.2599743,10.9480769 L55.1795727,10.9480769 L55.1795727,20.7828209 L61.5182836,20.7828209 L61.5182836,25.4443411 L55.1795727,25.4443411 L55.1795727,38.9151912 L50.2675233,38.9151912 L50.2675233,6.28655674 L63.2599743,6.28655674 Z M71.2520874,6.28655674 L71.2520874,38.9151912 L66.3420446,38.9151912 L66.3420446,6.28655674 L71.2520874,6.28655674 Z M89.2970469,6.28655674 L89.2970469,10.9480769 L84.1482238,10.9480769 L84.1482238,38.9151912 L79.2442006,38.9151912 L79.2442006,10.9480769 L74.1154431,10.9480769 L74.1154431,6.28655674 L89.2970469,6.28655674 Z M107.195528,6.28655674 C112.286161,6.28655674 114.473307,8.75678116 114.473307,13.7895373 L114.473307,14.955419 C114.473307,18.3105898 113.492101,20.4537252 111.302948,21.5272996 C113.937556,22.5988673 114.964913,25.0690917 114.964913,28.5185765 L114.964913,31.1754222 C114.964913,36.2101851 112.4206,38.9131845 107.50855,38.9131845 L99.7833093,38.9131845 L99.7833093,6.28655674 L107.195528,6.28655674 Z M144.790364,6.28655674 C149.702413,6.28655674 152.114294,9.13002384 152.114294,14.351408 L152.114294,30.8463265 C152.114294,36.0636974 149.706426,38.9111778 144.790364,38.9111778 L137.022985,38.9111778 L137.022985,6.28655674 L144.790364,6.28655674 Z M125.679923,10.5788476 C124.116816,10.5788476 123.13561,11.4637939 123.13561,13.7895373 L123.13561,31.4102039 C123.13561,33.7419673 124.118822,34.6208937 125.679923,34.6208937 C127.241024,34.6208937 128.226243,33.7359473 128.226243,31.4102039 L128.226243,13.7895373 C128.226243,11.4577739 127.24303,10.5788476 125.679923,10.5788476 Z M106.878492,24.2323057 L104.695359,24.2323057 L104.695359,34.2576844 L107.504537,34.2576844 C109.155933,34.2576844 110.048851,33.4650454 110.048851,31.0469946 L110.048851,28.1934941 C110.048851,25.1654124 109.111789,24.2323057 106.878492,24.2323057 Z M144.706088,10.9480769 L141.937041,10.9480769 L141.937041,34.2576844 L144.706088,34.2576844 C146.269196,34.2576844 147.206257,33.4188917 147.206257,31.0891349 L147.206257,14.1166263 C147.206257,11.7868696 146.269196,10.9480769 144.706088,10.9480769 Z M104.695359,10.9480769 L104.695359,19.5768056 L106.621653,19.5768056 C108.451632,19.5768056 109.567277,18.7380129 109.567277,16.1273208 L109.567277,14.3092677 C109.567277,11.979511 108.808799,10.9540969 107.067108,10.9540969 L104.695359,10.9480769 Z"/>
</svg>
