<svg xmlns="http://www.w3.org/2000/svg" width="64" height="96" viewBox="0 0 64 96">
  <path fill="currentColor" fill-rule="evenodd" d="M29.9449614,83.7813113 L29.9449614,83.7813113 C31.4356023,82.7346742 32.2882609,80.6950825 31.6005571,78.3293451 C31.3291039,77.197289 30.3040994,74.4679296 30.3040994,74.4679296 C30.3040994,74.4679296 28.2799589,76.0118881 27.4488015,76.741833 C25.4367555,78.5302319 24.7567787,80.1775036 25.3557899,82.012157 C26.1523438,84.0564755 28.2957489,84.7621115 29.9449614,83.7813113 Z M24.63785,90.3069244 C17.6694315,88.1370095 16.8214763,81.5972161 19.2108019,76.311699 C21.1946275,71.9235887 24.5837609,69.8512474 25.6386656,68.9518148 C25.7666652,68.8427619 25.8036205,68.632084 25.7219829,68.4848796 C23.4294129,64.3540395 16.4945902,54.9873132 14.0642778,51.5816913 C12.315958,49.1322229 3.3512836,37.8606172 2.326615,28.5617534 C1.83779768,24.1250252 1.77799735,22.1718654 2.99315352,18.6197144 C4.80832876,13.3109011 7.91290665,9.27020688 12.9680504,6.94599739 L13.0849634,6.89400316 C18.2079705,4.69809111 22.7302866,4.34561076 27.4958355,6.18397809 C31.2437709,7.62935009 32.5613939,8.7772746 33.9042137,10.1213591 C36.4064208,12.6251851 38.089565,14.4871861 39.5183898,19.6011898 C39.555681,19.7335387 39.696111,19.8054528 39.8241106,19.7578477 C43.5303873,18.372573 45.5790526,17.3185082 49.8930754,18.1872169 C54.7103617,19.1572131 60.2771678,22.7053127 61.6791161,30.2282697 C62.981957,37.2194676 60.096423,43.5664772 57.0036036,46.4281855 C50.831739,52.1387723 38.8992212,59.1019473 35.4328177,60.9230957 C34.9769242,61.1624718 34.4145323,60.9842058 34.1766748,60.5253737 L30.8490215,54.9599656 C30.6541665,54.6003951 30.8036673,54.1175915 31.1634772,53.9248078 C33.2454022,52.8082824 42.2863388,48.0430452 45.3425389,45.9109442 C49.8873641,42.7403092 53.2150174,39.9815765 53.7727059,35.9962527 C54.5692598,30.3022096 51.3192125,27.2281353 48.9194723,26.6285135 C44.9256164,25.6311697 42.1250795,27.2348878 39.8563624,28.4608036 C38.6213848,29.1282879 35.7872522,30.5719718 35.7872522,30.5719718 C35.1297846,30.974083 33.8423976,30.5652193 33.7130542,29.8028624 C33.7130542,29.8028624 32.7213094,26.2662421 32.4397775,25.0747639 C31.5027937,21.1069967 30.0386934,18.7969674 28.1795078,16.6108465 C27.7152153,16.0642318 24.7436764,13.018518 18.625229,14.3544996 C16.4949262,14.8197466 12.9082501,16.5362314 11.6154879,21.1745216 C10.9909439,23.4143249 10.9482774,26.2365311 11.8113507,29.9105647 C13.0332261,35.1157271 17.4345977,41.0802078 19.919335,45.0412226 C22.6375625,49.3746376 29.9214444,59.2079615 33.2521213,65.015109 C33.3105778,65.1167341 33.6250335,65.1582619 33.7325397,65.1116697 C36.288164,64.0029097 48.4360303,56.6690226 48.8626955,56.4813032 C49.2262009,56.3216066 49.6495066,56.4860299 49.8121098,56.8496519 L52.8861156,62.1456353 C53.1041516,62.6331656 52.7416541,63.1997001 52.2545166,63.4137543 C51.1428352,63.9019598 38.0448827,71.9529621 37.4378086,72.2021292 C37.3279507,72.2470334 37.2496727,72.3702664 37.2980505,72.4793193 C37.6457659,73.2636218 39.1804171,76.0746863 39.3594822,79.2817848 C39.6927514,85.2624715 34.7084946,93.4427841 24.63785,90.3069244 L24.63785,90.3069244 Z"/>
</svg>
