<svg xmlns="http://www.w3.org/2000/svg" width="40" height="40" viewBox="0 0 40 40">
  <path fill="currentColor" fill-rule="evenodd" d="M20,0 C31.045695,0 40,8.954305 40,20 C40,31.045695 31.045695,40 20,40 C8.954305,40 0,31.045695 0,20 C0,8.954305 8.954305,0 20,0 Z M19.5672988,12.2406287 C19.2579944,11.9197904 18.7412825,11.9197904 18.4204153,12.2406287 C18.1103882,12.5499052 18.1103882,13.0665703 18.4204153,13.3874085 L18.4204153,13.3874085 L24.2357723,19.191401 L7.80289072,19.1856201 C7.35555557,19.1856201 7,19.5527053 7,20 C7,20.4472947 7.35555557,20.8028182 7.80289072,20.8035408 L7.80289072,20.8035408 L24.2357723,20.8093217 L18.4204153,26.6241532 C18.1103882,26.9334297 18.1103882,27.4493722 18.4204153,27.7593713 C18.7412825,28.0802096 19.2572717,28.0802096 19.5672988,27.7593713 L19.5672988,27.7593713 L26.7593496,20.5672478 C27.0802168,20.2579713 27.0802168,19.7420287 26.7593496,19.4320296 L26.7593496,19.4320296 Z M29.85,10 C30.2859105,10 30.6451811,10.4541649 30.6942814,11.0392693 L30.7,11.1764706 L30.7,28.8235294 C30.7,29.4732762 30.319442,30 29.85,30 C29.4140895,30 29.0548189,29.5458351 29.0057186,28.9607307 L29,28.8235294 L29,11.1764706 C29,10.5267238 29.380558,10 29.85,10 Z"/>
</svg>
