<svg xmlns="http://www.w3.org/2000/svg" width="40" height="40" viewBox="0 0 40 40">
  <path fill="currentColor" fill-rule="evenodd" d="M20,0 C31.045695,0 40,8.954305 40,20 C40,31.045695 31.045695,40 20,40 C8.954305,40 0,31.045695 0,20 C0,8.954305 8.954305,0 20,0 Z M22.5672988,12.2406287 C22.2579944,11.9197904 21.7412825,11.9197904 21.4204153,12.2406287 C21.1103882,12.5499052 21.1103882,13.0665703 21.4204153,13.3874085 L21.4204153,13.3874085 L27.2357723,19.191401 L10.8028907,19.1856201 C10.3555556,19.1856201 10,19.5527053 10,20 C10,20.4472947 10.3555556,20.8028182 10.8028907,20.8035408 L10.8028907,20.8035408 L27.2357723,20.8093217 L21.4204153,26.6241532 C21.1103882,26.9334297 21.1103882,27.4493722 21.4204153,27.7593713 C21.7412825,28.0802096 22.2572717,28.0802096 22.5672988,27.7593713 L22.5672988,27.7593713 L29.7593496,20.5672478 C30.0802168,20.2579713 30.0802168,19.7420287 29.7593496,19.4320296 L29.7593496,19.4320296 Z"/>
</svg>
