<svg xmlns="http://www.w3.org/2000/svg" width="40" height="40" viewBox="0 0 40 40">
  <path fill="currentColor" fill-rule="evenodd" d="M20,40 C8.954305,40 5.68434189e-14,31.045695 5.68434189e-14,20 C5.68434189e-14,8.954305 8.954305,5.68434189e-14 20,5.68434189e-14 C31.045695,5.68434189e-14 40,8.954305 40,20 C40,31.045695 31.045695,40 20,40 Z M17.4327012,27.7593713 C17.7420056,28.0802096 18.2587175,28.0802096 18.5795847,27.7593713 C18.8614275,27.4782109 18.8870496,27.0256548 18.6564509,26.7046451 L18.5795847,26.6125915 L12.7642277,20.808599 L29.1971093,20.8143799 C29.6444444,20.8143799 30,20.4472947 30,20 C30,19.5871126 29.6970414,19.2524208 29.2985912,19.2028045 L29.1971093,19.1964592 L12.7642277,19.1906783 L18.5795847,13.3758468 C18.8896118,13.0665703 18.8896118,12.5506278 18.5795847,12.2406287 C18.2854564,11.946527 17.8273715,11.9220185 17.5142667,12.1671032 L17.4327012,12.2406287 L10.2406504,19.4327522 C9.94652213,19.7162557 9.92201144,20.173416 10.1671183,20.4864189 L10.2406504,20.5679704 L17.4327012,27.7593713 Z"/>
</svg>
