<svg xmlns="http://www.w3.org/2000/svg" width="24" height="24" viewBox="0 0 24 24">
  <g fill="none" fill-rule="evenodd">
    <circle cx="12" cy="12" r="12" fill="currentColor"/>
    <path fill="currentColor" d="M14.9946016,6.21956892 C14.9946016,9.88691238 9.20167255,14.2763968 8.4266707,14.8427819 L8.39309661,14.8696852 C8.15914339,15.0434383 7.84085661,15.0434383 7.60690339,14.8696852 L7.58032391,14.8427819 C6.79832745,14.2763968 1.00539843,9.88691238 1.00539843,6.21956892 C0.949970577,5.14506151 1.32318308,4.09303534 2.04125414,3.29965783 C2.7593252,2.50628032 3.76209403,2.03802152 4.82445089,2 C6.14885729,2.02765855 7.3586282,2.76667941 8,3.93986893 C8.6413718,2.76667941 9.85114271,2.02765855 11.1755491,2 C12.237906,2.03802152 13.2406748,2.50628032 13.9587459,3.29965783 C14.6768169,4.09303534 15.0500294,5.14506151 14.9946016,6.21956892 Z" transform="translate(4 4)"/>
  </g>
</svg>
