<svg xmlns="http://www.w3.org/2000/svg" width="24" height="24" viewBox="0 0 24 24">
  <path fill="currentColor" fill-rule="evenodd" d="M10.3526252,0 L13.6479526,0 C15.458498,0.00542615863 15.9249229,0.023631752 16.9480716,0.0703239445 C18.2253847,0.128596423 19.0977715,0.331448406 19.8610748,0.628155178 C20.6502075,0.934847499 21.3194749,1.34523952 21.9866797,2.01244299 C22.6537907,2.67959958 23.0641547,3.34891268 23.3708261,4.13809925 C23.6568715,4.87419196 23.8557394,5.71172256 23.9218251,6.91597303 L23.9617991,7.83078958 C23.9872399,8.51961155 23.9972905,9.19708884 24,10.8389419 L23.9987985,13.6778969 C23.9932605,15.463219 23.9750064,15.9301697 23.9286193,16.9475902 C23.8703508,18.2249904 23.6674657,19.0974368 23.3708261,19.8607922 C23.0641547,20.6499788 22.6537907,21.3192919 21.9866797,21.9865422 C21.3194749,22.6536988 20.6502075,23.0640908 19.8610748,23.3707831 C19.1250323,23.656848 18.2875589,23.8557295 17.0833906,23.9218198 L16.1686376,23.9617965 C15.4798657,23.987239 14.8024465,23.9972903 13.1607505,24 L10.3219754,23.9987984 C8.53672812,23.99326 8.06980935,23.9750047 7.05245828,23.9286144 C5.77514524,23.8703419 4.90275844,23.667443 4.13940827,23.3707831 C3.35027557,23.0640908 2.68100817,22.6536988 2.01389712,21.9865422 C1.3467392,21.3192919 0.936375194,20.6499788 0.629703809,19.8607922 C0.34361324,19.1246995 0.1447873,18.2871689 0.0787046001,17.0829184 L0.0387639432,16.1695145 C0.0111547866,15.4228062 0.00166679649,14.6902224 0,12.7289034 L0.00163348567,10.3516935 C0.00704725366,8.54097661 0.0252216519,8.0745198 0.0719106569,7.05130125 C0.130179157,5.77390101 0.333017293,4.90145465 0.629703809,4.13809925 C0.936375194,3.34891268 1.3467392,2.67959958 2.01389712,2.01244299 C2.68100817,1.34523952 3.35027557,0.934847499 4.13940827,0.628155178 C4.90275844,0.331448406 5.77514524,0.128596423 7.05245828,0.0703239445 L7.83048195,0.0371688555 C8.44728856,0.0143503278 9.054464,0.00389045336 10.3526252,0 Z M13.8051183,2.16286854 L10.1954794,2.16286854 C8.57510342,2.16853445 8.12599438,2.18598409 7.15099439,2.23048426 C5.98098352,2.28388116 5.34556154,2.47937291 4.9226813,2.64368911 C4.36254428,2.86140221 3.96277455,3.1214953 3.5428007,3.54145095 C3.12287372,3.96140659 2.86279839,4.36125049 2.64514702,4.92137887 L2.59824507,5.04619195 C2.45066256,5.45358678 2.29168148,6.04683726 2.2373401,7.04170454 L2.2056574,7.75157682 C2.17260195,8.5763197 2.16318618,9.25953432 2.16209466,11.504017 L2.16462632,13.8898746 C2.17060784,15.4410457 2.18821865,15.8913773 2.23192351,16.8490474 C2.28531677,18.0191381 2.48079516,18.6546035 2.64514702,19.0775126 C2.86279839,19.6376878 3.12287372,20.0374849 3.5428007,20.4574405 C3.96277455,20.877443 4.36254428,21.1374892 4.9226813,21.3552023 L5.00454069,21.3863429 C5.41299297,21.5382099 6.01253431,21.7067484 7.04286222,21.7629945 L7.84215035,21.7981956 C8.51453592,21.8240266 9.13300788,21.8342162 10.6483776,21.8372926 L13.8447238,21.8359219 C15.4330494,21.8300974 15.8826811,21.8125438 16.8495355,21.7684072 C18.0195464,21.7150572 18.6549684,21.5195654 19.0778486,21.3552023 C19.6379856,21.1374892 20.0377554,20.877443 20.4576823,20.4574405 C20.8776562,20.0374849 21.1376846,19.6376878 21.3553829,19.0775126 L21.3865213,18.9956476 C21.5383781,18.5871674 21.7069077,17.9875852 21.7631898,16.9571869 L21.7944776,16.2567565 C21.8289891,15.3988582 21.8379705,14.7006703 21.8385199,12.2531974 L21.8362597,10.2083202 C21.830634,8.57658774 21.8131932,8.1276695 21.7686064,7.14984409 C21.7152131,5.97975335 21.5197347,5.34428799 21.3553829,4.92137887 C21.1376846,4.36125049 20.8776562,3.96140659 20.4576823,3.54145095 C20.0377554,3.1214953 19.6379856,2.86140221 19.0778486,2.64368911 L18.9530441,2.59679594 C18.545677,2.44923705 17.9524671,2.29024627 16.9576677,2.23590122 L16.2019784,2.20239594 C15.5837912,2.17813285 15.0280259,2.1671447 13.8051183,2.16286854 L13.8051183,2.16286854 Z M12.0003118,5.83658026 C15.4036985,5.83658026 18.1627097,8.59577978 18.1627097,11.9994926 C18.1627097,15.4031117 15.4036985,18.1623112 12.0003118,18.1623112 C8.59683137,18.1623112 5.83782021,15.4031117 5.83782021,11.9994926 C5.83782021,8.59577978 8.59683137,5.83658026 12.0003118,5.83658026 Z M12.0003118,7.99899084 C9.79103093,7.99899084 8.00008317,9.79006087 8.00008317,11.9994926 C8.00008317,14.2088306 9.79103093,15.9999006 12.0003118,15.9999006 C14.209499,15.9999006 16.0004467,14.2088306 16.0004467,11.9994926 C16.0004467,9.79006087 14.209499,7.99899084 12.0003118,7.99899084 Z M18.4061905,4.15296037 C19.201511,4.15296037 19.8462615,4.79770807 19.8462615,5.59308287 C19.8462615,6.38850455 19.201511,7.03325226 18.4061905,7.03325226 C17.61087,7.03325226 16.9661194,6.38850455 16.9661194,5.59308287 C16.9661194,4.79770807 17.61087,4.15296037 18.4061905,4.15296037 Z"/>
</svg>
