<svg xmlns="http://www.w3.org/2000/svg" width="24" height="24" viewBox="0 0 24 24">
  <path fill="currentColor" fill-rule="evenodd" d="M7.54753125,22 C16.6041562,22 21.5577656,14.3047598 21.5577656,7.63142688 C21.5577656,7.41288285 21.5577656,7.19530029 21.543375,6.97867922 C22.5070312,6.26377198 23.3389219,5.37868306 24,4.36470797 C23.1013594,4.77309591 22.1479688,5.04086764 21.1718438,5.15922563 C22.1995312,4.52830352 22.9691719,3.53519251 23.336625,2.36603482 C22.3701094,2.95421921 21.3125625,3.36880868 20.2099219,3.59182359 C19.2788906,2.57645436 17.9785781,2 16.619625,2 C13.9157812,2 11.6909531,4.28178047 11.6909531,7.05468408 C11.6909531,7.43937158 11.7337969,7.82285723 11.8185469,8.19754535 C7.86145312,7.9941446 4.16948437,6.07455303 1.67039062,2.92133665 C0.370828125,5.21571248 1.04325,8.18908434 3.19485937,9.66254994 C2.41134375,9.63875335 1.64465625,9.42193997 0.96,9.03047406 L0.96,9.09446044 C0.96065625,11.4892146 2.62157812,13.5706711 4.91039062,14.0448241 C4.18551562,14.2475518 3.42478125,14.2771654 2.6870625,14.1314533 C3.33051563,16.1834885 5.18601562,17.5979674 7.287375,17.6384457 C5.54409375,19.0435021 3.38939062,19.8067236 1.17215625,19.8044641 C0.780375,19.803695 0.38896875,19.7793696 0,19.7315841 C2.25159375,21.2134626 4.8721875,21.9997116 7.54753125,21.9960579"/>
</svg>
