<svg xmlns="http://www.w3.org/2000/svg" width="24" height="24" viewBox="0 0 24 24">
  <path fill="currentColor" fill-rule="evenodd" d="M11.2361187,4.00344401 L12.1690778,4 C13.2920256,4.0036685 19.6715496,4.04485426 21.3766739,4.50724068 C22.4093533,4.78648912 23.2224652,5.60933995 23.4984714,6.65432776 C23.9715908,8.44069073 23.9984726,12.0575848 24,12.4628286 L23.9979745,12.7842816 C23.9869898,13.7235616 23.919022,16.7577597 23.4984714,18.3454788 C23.2224652,19.3904666 22.4093533,20.2135071 21.3766739,20.4927556 C20.0148998,20.8618961 15.6717007,20.9624869 13.4057774,20.9898979 L11.8974336,21 C10.9936936,20.9977635 4.36585296,20.9652555 2.62273849,20.4927556 C1.59029351,20.2135071 0.776947177,19.3904666 0.500940999,18.3454788 C0.0477467281,16.6337191 0.00418686212,13.2406395 0,12.6041856 L0.000472330565,12.3336266 C0.00705623003,11.5640662 0.0608827939,8.31663774 0.500940999,6.65432776 C0.776947177,5.60933995 1.59029351,4.78648912 2.62273849,4.50724068 C4.12836465,4.09896331 9.27836293,4.01907564 11.2361187,4.00344401 L11.2361187,4.00344401 Z M9.59958217,8.85696095 L9.59958217,16.1430353 L15.8349405,12.4999981 L9.59958217,8.85696095 Z"/>
</svg>
