<svg xmlns="http://www.w3.org/2000/svg" width="24" height="24" viewBox="0 0 24 24">
  <path fill="currentColor" fill-rule="evenodd" d="M12,0 C5.372583,0 0,5.372583 0,12 C0,18.627417 5.372583,24 12,24 C18.627417,24 24,18.627417 24,12 C23.9927252,5.37559868 18.6244013,0.00727484455 12,0 Z M4.1376,6.1644 C4.18674354,5.81358721 4.50537881,5.5650517 4.8576,5.6028 L4.866,5.6028 C5.10694972,5.61513572 5.34826806,5.5871509 5.58,5.52 C5.81638056,5.45966898 6.03995364,5.35723186 6.24,5.2176 C6.52262678,5.00196938 6.92602142,5.05320587 7.14576781,5.33264456 C7.3655142,5.61208325 7.32019068,6.01618497 7.044,6.24 C6.71017756,6.48699668 6.3321832,6.66784743 5.9304,6.7728 C5.61452233,6.86259909 5.28798381,6.90942044 4.9596,6.912 C4.87262042,6.91251887 4.78568125,6.90811181 4.6992,6.8988 L4.6992,6.8988 C4.52723147,6.87612158 4.37135925,6.78593419 4.2659925,6.64814691 C4.16062576,6.51035963 4.1144289,6.33630284 4.1376,6.1644 L4.1376,6.1644 Z M6.1416,10.5216 C5.5249813,10.5216 4.96912437,10.1500283 4.73337944,9.58025387 C4.49763451,9.0104794 4.62846197,8.35479194 5.06482069,7.9191204 C5.5011794,7.48344886 6.15707223,7.35365496 6.72647445,7.59029759 C7.29587667,7.82694021 7.66657105,8.38338207 7.6656019,9 C7.66361645,9.84047029 6.98207238,10.5209411 6.1416,10.5216 L6.1416,10.5216 Z M16.8,14.3424 C16.782569,14.5178732 16.6962598,14.6792716 16.56,14.7912 C16.4254449,14.9006008 16.2521126,14.9504338 16.08,14.9292 C16.0668,14.9292 14.4444,14.7912 12.1572,15.54 C9.8928,16.2828 8.6064,17.3736 8.5944,17.3844 C8.32400138,17.6200047 7.91380469,17.5917986 7.67820002,17.3214 C7.44259535,17.0510014 7.4708014,16.6408047 7.7412,16.4052 C7.7988,16.3536 9.204,15.1404 11.7528,14.3052 C14.2416,13.4904 16.0116,13.6188 16.2048,13.6356 C16.3776417,13.6499369 16.5376361,13.7325884 16.6493519,13.865251 C16.7610678,13.9979136 16.8152861,14.1696397 16.8,14.3424 L16.8,14.3424 Z M17.8596,10.5216005 C17.2428723,10.5220848 16.686647,10.150822 16.4505238,9.58108597 C16.2144006,9.01134999 16.3449317,8.35546558 16.781196,7.91954505 C17.2174603,7.48362452 17.8734474,7.35361054 18.4429971,7.59018282 C19.0125468,7.82675509 19.383371,8.3832729 19.3824019,9 C19.3804165,9.84047029 18.6988724,10.5209411 17.8584,10.5216005 L17.8596,10.5216005 Z M18.9972,6.8928 C18.9103091,6.90200682 18.8229764,6.90641351 18.7356,6.906 C18.4056008,6.90394098 18.0774069,6.85711381 17.76,6.7668 C17.3574289,6.66238853 16.9788688,6.4810546 16.6452,6.2328 C16.3678547,6.00610997 16.3260083,5.59783941 16.5516,5.3196 C16.7773729,5.04328035 17.1833987,4.99994954 17.4624,5.2224 C17.6627214,5.3589163 17.8852264,5.45961196 18.12,5.52 C18.3533468,5.58957428 18.596778,5.61919174 18.84,5.6076 C19.0081309,5.58708152 19.1774895,5.63460561 19.3104,5.7396 C19.5183701,5.89992974 19.6092714,6.16975739 19.5407111,6.42324643 C19.4721509,6.67673547 19.2576331,6.86395755 18.9972,6.8976 L18.9972,6.8928 Z"/>
</svg>
