<svg xmlns="http://www.w3.org/2000/svg" width="24" height="24" viewBox="0 0 24 24">
  <path fill="currentColor" fill-rule="evenodd" d="M12,0 C5.372583,0 0,5.372583 0,12 C0,18.627417 5.372583,24 12,24 C18.627417,24 24,18.627417 24,12 C23.9927252,5.37559868 18.6244013,0.00727484455 12,0 Z M16.0164,9.1884 C16.4440551,8.59764995 17.1291027,8.24785866 17.8584,8.24785866 C18.5876973,8.24785866 19.2727449,8.59764995 19.7004,9.1884 C19.8949168,9.48880649 19.8101893,9.88992127 19.5108,10.086 C19.4039911,10.1562594 19.2786377,10.1930298 19.1508,10.1916 C18.9318141,10.1919294 18.7274195,10.0818361 18.6072,9.8988 C18.4194215,9.67403726 18.1411835,9.54473456 17.8483062,9.546127 C17.5554288,9.54751945 17.2784329,9.67946193 17.0928,9.906 C16.8912338,10.1959107 16.495682,10.2730007 16.2,10.08 L16.2,10.08 C15.9063587,9.88228849 15.8247627,9.48604101 16.0164,9.1884 L16.0164,9.1884 Z M4.3008,9.1884 C4.72845514,8.59764995 5.4135027,8.24785866 6.1428,8.24785866 C6.8720973,8.24785866 7.55714486,8.59764995 7.9848,9.1884 C8.18187134,9.48804107 8.09920025,9.89066003 7.8,10.0884 C7.65584062,10.1826475 7.48013792,10.2157469 7.31156751,10.1804123 C7.1429971,10.1450778 6.99537653,10.0442057 6.9012,9.9 C6.71300899,9.67577543 6.43475594,9.54698175 6.14202761,9.54860544 C5.84929927,9.55022913 5.57249207,9.68210159 5.3868,9.9084 C5.18417643,10.1965433 4.78873692,10.2705295 4.49564391,10.0751341 C4.20255089,9.8797388 4.11875374,9.48626148 4.3068,9.1884 L4.3008,9.1884 Z M11.9664,17.0088 C6.1476,17.0088 2.532,13.7688 2.3808,13.626 C2.20931252,13.4693033 2.13444824,13.2330221 2.18440781,13.0061613 C2.23436738,12.7793004 2.40156075,12.5963254 2.62300781,12.5261613 C2.84445486,12.4559971 3.08651252,12.5093033 3.258,12.666 C3.2904,12.6948 6.6948,15.708 11.9664,15.708 C17.2788,15.708 20.712,12.708 20.7456,12.6732 C21.0141905,12.4472852 21.4135785,12.4752139 21.6481128,12.7363115 C21.8826472,12.9974092 21.8677283,13.3974944 21.6144,13.6404 C21.4596,13.7796 17.7792,17.0088 11.9664,17.0088 Z"/>
</svg>
