<svg xmlns="http://www.w3.org/2000/svg" width="24" height="24" viewBox="0 0 24 24">
  <path fill="currentColor" fill-rule="evenodd" d="M12,0 C5.372583,0 0,5.372583 0,12 C0,18.627417 5.372583,24 12,24 C18.627417,24 24,18.627417 24,12 C23.9927252,5.37559868 18.6244013,0.00727484455 12,0 Z M16.56,6.5196 C16.7854374,6.24266109 17.1919959,6.19927343 17.4708,6.4224 C17.6685626,6.55804215 17.8881555,6.65870582 18.12,6.72 C18.3533468,6.78957428 18.596778,6.81919174 18.84,6.8076 C19.0081206,6.78721697 19.1774279,6.83472667 19.3104,6.9396 C19.5183701,7.09992974 19.6092714,7.36975739 19.5407111,7.62324643 C19.4721509,7.87673547 19.2576331,8.06395755 18.9972,8.0976 C18.9103091,8.10680682 18.8229764,8.11121351 18.7356,8.1108 C18.4053812,8.10717982 18.0771831,8.05873729 17.76,7.9668 C17.3574289,7.86238853 16.9788688,7.6810546 16.6452,7.4328 C16.3678547,7.20610997 16.3260083,6.79783941 16.5516,6.5196 L16.56,6.5196 Z M4.1412,7.3596 C4.18975581,7.0084481 4.508793,6.7595991 4.8612,6.798 L4.8696,6.798 C5.10908481,6.81149251 5.34914819,6.7851342 5.58,6.72 C5.81638056,6.65966898 6.03995364,6.55723186 6.24,6.4176 C6.52262678,6.20196938 6.92602142,6.25320587 7.14576781,6.53264456 C7.3655142,6.81208325 7.32019068,7.21618497 7.044,7.44 C6.71017756,7.68699668 6.3321832,7.86784743 5.9304,7.9728 C5.61452233,8.06259909 5.28798381,8.10942044 4.9596,8.112 C4.87262042,8.11251887 4.78568125,8.10811181 4.6992,8.0988 L4.6992,8.0988 C4.52723147,8.07612158 4.37135925,7.98593419 4.2659925,7.84814691 C4.16062576,7.71035963 4.1144289,7.53630284 4.1376,7.3644 L4.1412,7.3596 Z M6.1452,11.4768 C5.52782022,11.4782515 4.97055885,11.1070827 4.73396476,10.5368344 C4.49737067,9.96658605 4.62819255,9.3099338 5.06526433,8.87389692 C5.5023361,8.43786004 6.15929664,8.30859518 6.72898247,8.54654044 C7.29866831,8.7844857 7.66851506,9.3426254 7.66561711,9.96 C7.66361645,10.8004703 6.98207238,11.4809411 6.1416,11.4816 L6.1452,11.4768 Z M18,15.5424 C17.982569,15.7178732 17.8962598,15.8792716 17.76,15.9912 C17.6254449,16.1006008 17.4521126,16.1504338 17.28,16.1292 C17.2668,16.1292 15.6444,15.9912 13.3572,16.74 C11.0928,17.4828 9.8064,18.5736 9.7944,18.5844 C9.52400138,18.8200047 9.11380469,18.7917986 8.87820002,18.5214 C8.64259535,18.2510014 8.6708014,17.8408047 8.9412,17.6052 C8.9988,17.5536 10.404,16.3404 12.9528,15.5052 C15.4416,14.6904 17.2116,14.8188 17.4048,14.8356 C17.5776417,14.8499369 17.7376361,14.9325884 17.8493519,15.065251 C17.9610678,15.1979136 18.0152861,15.3696397 18,15.5424 Z M16.3344,9.96 C16.3344,9.11831804 17.016718,8.436 17.8584,8.436 C18.700082,8.436 19.3824,9.11831804 19.3824,9.96 C19.3824,10.801682 18.700082,11.484 17.8584,11.484 C17.0169923,11.4833383 16.3350617,10.8014077 16.3344,9.96 Z M4.9344,15.6744 C4.266,15.6744 3.7224,15.2088 3.7224,14.634 C3.7224,14.0184 4.0056,13.5804 4.3164,13.0368 C4.5756,12.5832 4.7424,12.2112 4.9344,12.2112 C5.1264,12.2112 5.2872,12.5712 5.544,13.02 C5.8584,13.566 6.144,14.004 6.144,14.634 C6.1416,15.2064 5.5992,15.672 4.9296,15.672 L4.9344,15.6744 Z"/>
</svg>
