<svg xmlns="http://www.w3.org/2000/svg" width="24" height="24" viewBox="0 0 24 24">
  <path fill="currentColor" fill-rule="evenodd" d="M12,0 C5.372583,0 0,5.372583 0,12 C0,18.627417 5.372583,24 12,24 C18.627417,24 24,18.627417 24,12 C23.9927252,5.37559868 18.6244013,0.00727484455 12,0 Z M6.1716,12.96 C5.55519954,12.96 4.99949384,12.5886893 4.76360759,12.0192096 C4.52772135,11.4497298 4.65810832,10.7942302 5.09396927,10.3583693 C5.52983021,9.92250832 6.18532978,9.79212135 6.75480955,10.0280076 C7.32428932,10.2638938 7.6956,10.8195995 7.6956,11.436 C7.69493826,12.2774077 7.0130077,12.9593383 6.1716,12.96 Z M7.9572,7.9812 C7.90864419,8.3323519 7.589607,8.5812009 7.2372,8.5428 L7.23,8.5428 C6.98956742,8.53192725 6.74901721,8.56153967 6.5184,8.6304 C6.28627809,8.69078103 6.06627091,8.79063668 5.868,8.9256 L5.868,8.9256 C5.75291141,9.01585988 5.61105893,9.06525494 5.4648,9.066 C5.19023993,9.06559176 4.9455084,8.89281604 4.85321489,8.63423277 C4.76092138,8.3756495 4.8409473,8.0869614 5.0532,7.9128 C5.38629475,7.66359598 5.76504889,7.48216907 6.168,7.3788 C6.56668502,7.26118522 6.98410006,7.22046181 7.398,7.2588 L7.398,7.2588 C7.75095362,7.30552414 8.00042343,7.6278006 7.9572,7.9812 Z M14.1852,16.6356 L9.8724,16.6356 C9.52437839,16.6206408 9.24993063,16.334143 9.24993063,15.9858 C9.24993063,15.637457 9.52437839,15.3509592 9.8724,15.336 L14.1852,15.336 C14.4240124,15.325735 14.6492112,15.4472922 14.7716794,15.6525683 C14.8941477,15.8578443 14.8941477,16.1137557 14.7716794,16.3190317 C14.6492112,16.5243078 14.4240124,16.645865 14.1852,16.6356 L14.1852,16.6356 Z M16.1052,7.9764 C16.0633944,7.62387605 16.3124967,7.30314341 16.6644,7.2564 C17.0786963,7.21799628 17.4965166,7.25871951 17.8956,7.3764 C18.2986691,7.4794446 18.6774842,7.66090069 19.0104,7.9104 C19.2259476,8.08329707 19.3084314,8.37368692 19.2159567,8.6340762 C19.123482,8.89446548 18.8763168,9.06778372 18.6,9.06601364 C18.4527442,9.06563219 18.3098893,9.01575977 18.1944,8.9244 C17.996239,8.79029235 17.7767071,8.69087403 17.5452,8.6304 C17.311811,8.56102841 17.0684143,8.53141515 16.8252,8.5428 L16.8252,8.5428 C16.6540492,8.56413215 16.4814558,8.51635293 16.3456403,8.41004297 C16.2098249,8.30373302 16.1219948,8.147665 16.1016,7.9764 L16.1052,7.9764 Z M17.8872,12.96 C17.2707995,12.96 16.7150938,12.5886893 16.4792076,12.0192096 C16.2433213,11.4497298 16.3737083,10.7942302 16.8095693,10.3583693 C17.2454302,9.92250832 17.9009298,9.79212135 18.4704096,10.0280076 C19.0398893,10.2638938 19.4112,10.8195995 19.4112,11.436 C19.4105383,12.2774077 18.7286077,12.9593383 17.8872,12.96 Z"/>
</svg>
