<svg xmlns="http://www.w3.org/2000/svg" width="24" height="24" viewBox="0 0 24 24">
  <path fill="currentColor" fill-rule="evenodd" d="M12,0 C5.372583,0 0,5.372583 0,12 C0,18.627417 5.372583,24 12,24 C18.627417,24 24,18.627417 24,12 C23.9927252,5.37559868 18.6244013,0.00727484455 12,0 Z M4.116,8.022 C4.04773756,7.35605416 4.4023238,6.71827808 5.004,6.4248 C5.4499513,6.22243441 5.96924859,6.26794688 6.3732,6.5448 C6.61169985,6.1173356 7.05530405,5.8446281 7.5444,5.8248 C8.184,5.7852 8.7972,6.2136 9.0552,6.8508 C9.2592,7.3548 9.5136,8.7204 7.482,10.5492 L7.3524,10.6692 L7.1844,10.6224 C4.548,9.8976 4.1604,8.562 4.116,8.022 Z M18.6444,13.182 C18.633837,13.4356477 18.6085948,13.6884709 18.5688,13.9392 C18.5496,14.0592 18.5196,14.1792 18.4944,14.2992 C18.4692,14.4192 18.4512,14.5392 18.42,14.652 L18.3972,14.736 L18.3504,14.9124 L18.3504,14.9124 C17.489958,17.6955252 14.9166991,19.5933982 12.0036,19.5933982 C9.09050093,19.5933982 6.517242,17.6955252 5.6568,14.9124 L5.6568,14.9124 L5.6148,14.7552 L5.5884,14.6532 C5.5572,14.5392 5.5404,14.4264 5.5164,14.3136 C5.4924,14.2008 5.46,14.0736 5.4408,13.9536 C5.39962994,13.7021881 5.37358313,13.4485322 5.3628,13.194 L5.3628,13.194 L5.3496,12.834 L18.6696,12.834 L18.6444,13.182 Z M19.854,8.022 C19.8096,8.562 19.422,9.8976 16.7856,10.6152 L16.6176,10.662 L16.4892,10.542 C14.4576,8.7132 14.7108,7.3476 14.9148,6.8436 C15.1728,6.2064 15.7836,5.778 16.4268,5.8176 C16.9156737,5.8371434 17.3590456,6.10998764 17.5968,6.5376 C18.0007514,6.26074688 18.5200487,6.21523441 18.966,6.4176 C19.5703549,6.71201075 19.9254351,7.35355441 19.854,8.022 L19.854,8.022 Z"/>
</svg>
