<svg xmlns="http://www.w3.org/2000/svg" width="24" height="24" viewBox="0 0 24 24">
  <path fill="currentColor" fill-rule="evenodd" d="M12,0 C5.372583,0 0,5.372583 0,12 C0,18.627417 5.372583,24 12,24 C18.627417,24 24,18.627417 24,12 C23.9927252,5.37559868 18.6244013,0.00727484455 12,0 Z M2.9232,11.8284 C2.84118842,11.8677989 2.75138441,11.8883021 2.6604,11.8884016 C2.37994571,11.8890365 2.13646454,11.6953064 2.0740737,11.4218793 C2.01168286,11.1484522 2.14702885,10.868281 2.4,10.7472 L4.224,9.8568 L2.502,8.8236 C2.21735245,8.65294401 2.12494403,8.28384756 2.29560002,7.99920001 C2.466256,7.71455246 2.83535244,7.62214402 3.12,7.7928 L5.7924,9.396 C5.98226971,9.50887606 6.09476463,9.71694735 6.08523516,9.9376297 C6.0757057,10.1583121 5.94569318,10.3559114 5.7468,10.452 L2.9232,11.8284 Z M14.7732,15.2652 C14.5770602,17.7022372 12.5441142,19.5812117 10.0992,19.5852 C9.972,19.5852 9.8448,19.5852 9.7176,19.5696 C7.13609822,19.3598639 5.21009819,17.1023129 5.4096,14.52 L5.4312,14.238 L5.718,14.1624 L14.4072,13.0308 L14.5032,13.2936 C14.7341612,13.9236805 14.8262624,14.5962239 14.7732,15.2652 L14.7732,15.2652 Z M16.3152,9.8652 C16.2432724,10.1477424 15.988754,10.3454266 15.6972,10.3452018 C15.6449985,10.3453254 15.5929891,10.3388746 15.5424,10.326 L12.7092,9.618 C12.4862386,9.56251479 12.3104142,9.39129327 12.2490352,9.16988181 C12.1876563,8.94847035 12.2502292,8.71116115 12.4128,8.5488 L14.6796,6.282 C14.9284595,6.03314049 15.3319405,6.03314049 15.5808,6.282 C15.8296595,6.53085951 15.8296595,6.93434049 15.5808,7.1832 L14.1108,8.6532 L15.8508,9.0888 C16.0157965,9.12856007 16.1581135,9.23250089 16.2461942,9.37757496 C16.3342749,9.52264904 16.3608403,9.6968676 16.32,9.8616 L16.3152,9.8652 Z"/>
</svg>
