<svg xmlns="http://www.w3.org/2000/svg" width="24" height="24" viewBox="0 0 24 24">
  <path fill="currentColor" fill-rule="evenodd" d="M12,0 C5.372583,0 0,5.372583 0,12 C0,18.627417 5.372583,24 12,24 C18.627417,24 24,18.627417 24,12 C23.9927252,5.37559868 18.6244013,0.00727484455 12,0 Z M5.448,11.0016 C5.29498874,10.9024911 5.19354301,10.7408806 5.1708,10.56 L5.0628,9.6864 L4.2828,9.2796 C4.07190351,9.16964124 3.94185489,8.94935625 3.94746159,8.71158152 C3.95306828,8.47380678 4.09335516,8.25989627 4.3092,8.16 L5.106,7.788 L5.2512,6.9192 C5.2897085,6.68232518 5.46016654,6.48827267 5.69010025,6.41954804 C5.92003396,6.35082341 6.1690213,6.41950835 6.3312,6.5964 L6.9312,7.2408 L7.8,7.1052 C8.03526602,7.06969421 8.27024853,7.17106923 8.40585301,7.36657419 C8.54145749,7.56207914 8.55408097,7.81768493 8.4384,8.0256 L8.0076,8.796 L8.4,9.5856 C8.48232489,9.74953458 8.48803439,9.9414616 8.4156,10.11 C8.29796901,10.3795326 8.0075494,10.5297496 7.7196,10.47 L6.8568,10.3032 L6.228,10.92 C6.0183099,11.1256233 5.69376656,11.1575783 5.448,10.9968 L5.448,11.0016 Z M17.928,13.5096 L17.928,13.5096 C17.9188934,13.7384168 17.8956491,13.9664518 17.8584,14.1924 C17.8404,14.3028 17.814,14.4096 17.79,14.5176 C17.766,14.6256 17.754,14.7144 17.7276,14.814 L17.6964,14.934 L17.6652,15.0468 L17.6652,15.0468 C16.8968471,17.5279575 14.6022043,19.2195146 12.0048,19.2195146 C9.40739573,19.2195146 7.11275291,17.5279575 6.3444,15.0468 L6.3444,15.0468 L6.3084,14.9136 L6.2832,14.8152 C6.2544,14.7108 6.2388,14.6064 6.2172,14.502 C6.1956,14.3976 6.168,14.2956 6.1512,14.19 C6.11460488,13.9643679 6.09136443,13.7367718 6.0816,13.5084 L6.0708,13.1844 L17.9508,13.1844 L17.928,13.5096 Z M19.6476,9.2736 L18.8664,9.6816 L18.7584,10.5552 C18.7285666,10.7909949 18.5673731,10.989367 18.3426711,11.0668154 C18.117969,11.1442637 17.8687817,11.0873379 17.7,10.92 L17.0712,10.3032 L16.2072,10.4712 C16.1080254,10.4913808 16.0054087,10.4868475 15.9084,10.458 C15.7320792,10.4047344 15.588138,10.2765658 15.514857,10.1075802 C15.441576,9.93859458 15.4463831,9.74592097 15.528,9.5808 L15.9216,8.7912 L15.4932,8.022 C15.3786408,7.81364511 15.391924,7.55839231 15.527491,7.36305375 C15.663058,7.1677152 15.8975336,7.06597229 16.1328,7.1004 L17.004,7.23 L17.604,6.5856 C17.7662115,6.41220039 18.0126493,6.34565595 18.240094,6.41383851 C18.4675388,6.48202106 18.636729,6.67316089 18.6768,6.9072 L18.822,7.7772 L19.6212,8.1492 C19.8369224,8.24933351 19.9769672,8.46338621 19.9823189,8.70115552 C19.9876706,8.93892484 19.8573986,9.15906184 19.6464,9.2688 L19.6476,9.2736 Z"/>
</svg>
