<svg xmlns="http://www.w3.org/2000/svg" width="24" height="24" viewBox="0 0 24 24">
  <path fill="currentColor" fill-rule="evenodd" d="M1.03453788,7.45157813 L1.1209366,7.47690313 C1.37773281,7.55770194 1.5541302,7.80251026 1.68612825,8.27644952 C1.70772793,8.35001261 1.74492738,8.54055308 1.7845268,8.74194712 C2.06892259,10.2011494 2.44331706,11.8110958 3.28330464,12.4502505 C3.78369725,12.8289196 4.75208294,13.020666 6.16326208,13.020666 C7.22284642,13.020666 8.6316256,12.8904231 9.16321774,12.6492327 C10.6931951,11.9533982 11.0867893,10.1010554 11.3471855,8.87580783 C11.3987847,8.64185308 11.4419841,8.43684118 11.4875834,8.27283167 C11.5199829,8.15223643 11.8691778,8.04973049 12.1331738,8.04973049 C12.3635704,8.04973049 12.7451648,8.14500072 12.7799643,8.27283167 C12.8243636,8.43081142 12.868763,8.63461736 12.9191622,8.87580783 C13.1831583,10.1034673 13.5755525,11.9594279 15.10313,12.6552624 C15.6371221,12.8964529 17.0459012,13.0279017 18.1030856,13.0279017 C19.5142648,13.0279017 20.4826505,12.8361553 20.9830431,12.4562803 C21.8782298,11.7749172 22.2166248,10.0576411 22.4410215,8.92042806 C22.4950207,8.65029474 22.54062,8.41754594 22.5814194,8.26439 C22.6990177,7.82783526 22.952214,7.65538407 23.22101,7.47690313 C23.8178741,8.93020689 24.1244886,10.4872971 24.1233995,12.059522 C24.1236429,16.9363745 21.2011121,21.3333284 16.7182127,23.2006373 C12.2353134,25.0679462 7.07458395,24.037997 3.64182344,20.5909255 C0.209062925,17.143854 -0.819928715,11.9582776 1.03453788,7.45157813 L1.03453788,7.45157813 Z M16.3571114,15.5929623 C16.1855199,15.5821976 16.0168414,15.6413115 15.8891183,15.7569718 C14.8075122,16.6002681 13.4781117,17.0591784 12.1091742,17.0618122 C10.750131,17.0623362 9.43063411,16.6021873 8.36402956,15.7557658 C8.09687513,15.531076 7.70099716,15.5578291 7.46618138,15.8164418 C7.2313656,16.0750544 7.24100458,16.4736827 7.4880425,16.7205277 C7.56124142,16.788061 9.30721562,18.3678586 12.1091742,18.3678586 C13.7979142,18.3726905 15.4371701,17.7950323 16.7531056,16.7313813 L16.7531056,16.7313813 C16.9496182,16.554782 17.0212481,16.2774703 16.934436,16.0281639 C16.8476238,15.7788574 16.6195665,15.6069422 16.3571114,15.5929623 Z M19.295868,6.7593615 C20.242654,6.7593615 21.6022339,6.7593615 21.2986384,7.84471859 C21.2230399,8.08751356 21.1644968,8.33534311 21.123441,8.58637927 C21.0160758,9.16802843 20.8770694,9.74332654 20.7070471,10.3096851 C20.443051,11.1309387 20.2198543,11.349216 20.1586552,11.3950422 C20.0206573,11.4999601 19.4062664,11.6989422 18.074286,11.6989422 C16.8551041,11.6989422 15.8279192,11.5325208 15.6215223,11.4444863 C14.6987359,11.0248149 14.3999403,9.62108637 14.1815436,8.59602689 C14.1287444,8.34760071 14.0795451,8.11364596 14.0243459,7.91225192 C13.9415471,7.60955789 14.3375413,7.0958222 14.6111372,7.0451722 C14.8139342,7.00899363 14.9879317,6.97643291 15.1979286,6.95593173 C16.5263089,6.82327697 17.943488,6.75333173 19.295868,6.7593615 Z M4.91168058,6.75333173 C6.26526057,6.75333173 7.68363961,6.82327697 9.01561993,6.95593173 C9.2268168,6.97763887 9.40201421,7.00899363 9.60361124,7.04637815 C9.87480723,7.0958222 10.1700029,7.55046622 10.1868026,7.83868883 C10.2036024,8.12691143 10.1472032,8.28368524 10.0836041,8.56226022 C9.86640735,9.5849078 9.51361257,11.0187851 8.59202619,11.4432803 C8.38442925,11.5325208 7.35844442,11.6977363 6.13926244,11.6977363 C4.80368217,11.6977363 4.1928912,11.4939303 4.05609322,11.3853946 C3.99369415,11.3359506 3.76809748,11.1176732 3.50410138,10.3000375 C3.33344833,9.73457981 3.19403759,9.16007156 3.08650755,8.57914356 C3.04489448,8.32861608 2.98636003,8.08122597 2.91131014,7.83868883 C2.66512178,6.8401603 3.74437623,6.76027802 4.67363727,6.75388744 Z M7.20736579,7.7552264 C6.64066241,7.51852991 5.98787608,7.64834857 5.55358296,8.08411175 C5.11928985,8.51987494 4.98908031,9.17570257 5.22370735,9.74559948 C5.45833438,10.3154964 6.01155775,10.6871482 6.62525525,10.6871482 C7.46201203,10.6871482 8.14070885,10.0061551 8.14203475,9.16523639 C8.14300388,8.54848644 7.77406918,7.99192289 7.20736579,7.7552264 Z M18.2021664,7.75968302 C17.6372566,7.52373317 16.9865349,7.65313912 16.5536145,8.0875227 C16.1206942,8.52190629 15.9908953,9.17565911 16.2247794,9.74375348 C16.4586635,10.3118479 17.0101366,10.6823244 17.6218927,10.6823244 C18.4559986,10.6823244 19.1325464,10.003491 19.1338723,9.16523639 C19.1348414,8.55043749 18.7670762,7.99563287 18.2021664,7.75968302 Z M12.1143475,-4.24660122e-05 C16.2024285,-0.00199388667 20.0097896,2.08942903 22.2154248,5.54858536 L22.2154248,5.54858536 L22.071427,5.54014369 C21.326238,5.4665806 20.3506524,5.42678418 19.3234676,5.42678418 C17.9314882,5.42678418 16.4687098,5.49914132 15.0947301,5.62938417 C14.830734,5.65591512 14.6219371,5.69450559 14.4011403,5.73430202 C13.9319473,5.81992463 13.408755,5.91640082 12.1319739,5.91640082 C10.8551927,5.91640082 10.3284005,5.81992463 9.86400739,5.73550797 C9.64201067,5.69450559 9.43321375,5.65591512 9.16921766,5.63059012 C7.79883791,5.49311155 6.33605953,5.42075441 4.93808019,5.42075441 C3.90729542,5.42075441 2.92570993,5.46778655 2.17812098,5.54134965 L2.17812098,5.54134965 L2.10852201,5.55340917 L2.07252254,5.55823298 L2.01852334,5.55823298 C4.2208855,2.09697104 8.02626656,0.00191168726 12.1143475,-4.24660122e-05 Z"/>
</svg>
