<svg xmlns="http://www.w3.org/2000/svg" width="24" height="24" viewBox="0 0 24 24">
  <path fill="currentColor" fill-rule="evenodd" d="M12,0 C5.372583,0 0,5.372583 0,12 C0,18.627417 5.372583,24 12,24 C18.627417,24 24,18.627417 24,12 C23.9927252,5.37559868 18.6244013,0.00727484455 12,0 Z M16.0032,8.8104 C16.4305958,8.21966108 17.1154638,7.86984092 17.8446,7.86984092 C18.5737362,7.86984092 19.2586042,8.21966108 19.686,8.8104 C19.8796446,9.11018401 19.7949944,9.51006327 19.4964823,9.70566292 C19.1979702,9.90126256 18.7975463,9.81922745 18.6,9.522 C18.4122794,9.29699064 18.1338483,9.16761529 17.84082,9.16924065 C17.5477917,9.170866 17.270813,9.30332207 17.0856,9.5304 C16.8838232,9.82233348 16.4860453,9.90007854 16.1892,9.7056 L16.1892,9.7056 C15.8919499,9.50886688 15.8089217,9.10926035 16.0032,8.8104 L16.0032,8.8104 Z M4.0476,13.7760005 C3.49698968,13.7764853 3.0003486,13.4451151 2.78941489,12.9365102 C2.57848119,12.4279053 2.69482918,11.8423101 3.08416962,11.4529696 C3.47351007,11.0636292 4.05910528,10.9472812 4.56771018,11.1582149 C5.07631507,11.3691486 5.40768533,11.8657897 5.40720053,12.4164 C5.40653838,13.1670121 4.79821212,13.7753384 4.0476,13.7760005 L4.0476,13.7760005 Z M5.3676,9.5304 C5.16575397,9.82306322 4.76708591,9.90087811 4.47,9.7056 L4.47,9.7056 C4.17448242,9.50814688 4.09218869,9.11003762 4.2852,8.8116 C4.71285514,8.22084995 5.3979027,7.87105866 6.1272,7.87105866 C6.8564973,7.87105866 7.54154486,8.22084995 7.9692,8.8116 C8.1657029,9.11182199 8.08162197,9.51449707 7.78139999,9.71099998 C7.481178,9.90750289 7.07850292,9.82342198 6.882,9.5232 C6.69427943,9.29819064 6.41584833,9.16881529 6.12282004,9.17044065 C5.82979174,9.172066 5.55281296,9.30452207 5.3676,9.5316 L5.3676,9.5304 Z M18.2076,15.6324 C18.108,15.7212 15.7356,17.8104 11.9832,17.8104 C8.2308,17.8104 5.892,15.7104 5.7936,15.6204 C5.53031789,15.3777864 5.51261821,14.9680119 5.754,14.7036 L5.754,14.7036 C5.9969119,14.440961 6.40614636,14.4232847 6.6708,14.664 C8.18369612,15.8593336 10.0550729,16.5103207 11.9832,16.512 C15.2232,16.512 17.3208,14.6844 17.3412,14.6652 C17.6086163,14.4259502 18.0193502,14.4487837 18.2586,14.7162 C18.4978498,14.9836163 18.4750163,15.3943502 18.2076,15.6336 L18.2076,15.6324 Z M19.8756,13.7760005 C19.3249897,13.7764853 18.8283486,13.4451151 18.6174149,12.9365102 C18.4064812,12.4279053 18.5228292,11.8423101 18.9121696,11.4529696 C19.3015101,11.0636292 19.8871053,10.9472812 20.3957102,11.1582149 C20.9043151,11.3691486 21.2356853,11.8657897 21.2352005,12.4164 C21.2338756,13.1681431 20.623744,13.7766635 19.872,13.7760005 L19.8756,13.7760005 Z"/>
</svg>
