<svg xmlns="http://www.w3.org/2000/svg" width="24" height="24" viewBox="0 0 24 24">
  <path fill="currentColor" fill-rule="evenodd" d="M12,0 C5.372583,0 0,5.372583 0,12 C0,18.627417 5.372583,24 12,24 C18.627417,24 24,18.627417 24,12 C23.9927252,5.37559868 18.6244013,0.00727484455 12,0 Z M6.1428,10.2816 C5.5261813,10.2816 4.97032437,9.91002834 4.73457944,9.34025387 C4.49883451,8.7704794 4.62966197,8.11479194 5.06602069,7.6791204 C5.5023794,7.24344886 6.15827223,7.11365496 6.72767445,7.35029759 C7.29707667,7.58694021 7.66777105,8.14338207 7.6668019,8.76 C7.66481645,9.60047029 6.98327238,10.2809411 6.1428,10.2816 L6.1428,10.2816 Z M14.772,15.0612 C14.7348,15.108 13.86,16.2108 12.132,16.788 C11.496241,17.0020821 10.8300346,17.1119008 10.1592,17.1132 C9.76882422,17.1187802 9.37931671,17.0748296 9,16.9824 L9,16.9824 C8.66851871,16.8754078 8.48017145,16.5262612 8.57279998,16.1904828 C8.6654285,15.8547043 9.00614657,15.6515068 9.3456,15.7296 C9.3888,15.7404 10.4136,15.9924 11.7252,15.5556 C13.0704,15.1068 13.7448,14.2704 13.752,14.262 C13.8947633,14.0789371 14.124345,13.9859434 14.3542638,14.0180486 C14.5841825,14.0501538 14.7795083,14.2024805 14.8666638,14.4176486 C14.9538192,14.6328167 14.9195633,14.8781371 14.7768,15.0612 L14.772,15.0612 Z M19.8348,9.3924 C19.8018446,9.5604758 19.7028549,9.7083119 19.56,9.8028 C19.4156949,9.89693496 19.2398883,9.9298457 19.0713039,9.89428318 C18.9027196,9.85872067 18.7551863,9.75760204 18.6612,9.6132 C18.4770985,9.38677855 18.1993889,9.25721018 17.9076,9.2616 C17.6119281,9.25571332 17.3306539,9.38901861 17.148,9.6216 C16.9466006,9.91394627 16.5487528,9.9922376 16.2516,9.798 L16.2516,9.798 C15.9565058,9.59970892 15.8743507,9.20173678 16.0668,8.9028 C16.4940041,8.31149078 17.1793141,7.96146928 17.9088,7.962 C18.6393009,7.95582337 19.3266894,8.30713535 19.7496,8.9028 C19.8427032,9.04789474 19.8734158,9.22438357 19.8348,9.3924 L19.8348,9.3924 Z"/>
</svg>
