<svg xmlns="http://www.w3.org/2000/svg" width="24" height="24" viewBox="0 0 24 24">
  <path fill="currentColor" fill-rule="evenodd" d="M12,0 C5.372583,0 0,5.372583 0,12 C0,18.627417 5.372583,24 12,24 C18.627417,24 24,18.627417 24,12 C23.9927252,5.37559868 18.6244013,0.00727484455 12,0 Z M16.632,6.3516 C17.046294,6.31400878 17.463962,6.35471716 17.8632,6.4716 C18.2660465,6.57626512 18.6449529,6.75756981 18.9792,7.0056 C19.1142321,7.11338263 19.2006302,7.27062709 19.2192,7.4424 C19.238958,7.62597519 19.179762,7.80929678 19.056374,7.94664897 C18.9329859,8.08400115 18.7570354,8.16243824 18.5724,8.16240001 C18.4249201,8.16216218 18.2818996,8.1118088 18.1668,8.0196 C17.9685457,7.88593477 17.7490218,7.78692585 17.5176,7.7268 C17.2842532,7.65722572 17.040822,7.62760826 16.7976,7.6392 L16.7976,7.6392 C16.4480193,7.67176468 16.1356902,7.42100333 16.0919429,7.07264531 C16.0481956,6.7242873 16.2888223,6.40408498 16.6356,6.3492 L16.632,6.3516 Z M5.022,7.0116 C5.35567033,6.763883 5.7342822,6.58333934 6.1368,6.48 C6.53603258,6.36308896 6.95370592,6.32238006 7.368,6.36 C7.71290893,6.4162304 7.95173443,6.73496618 7.90882576,7.0817844 C7.86591708,7.42860261 7.55661316,7.67952331 7.2084,7.65 L7.2,7.65 C6.95916676,7.63896912 6.71819576,7.66858341 6.4872,7.7376 C6.25546777,7.79849184 6.03560922,7.89787439 5.8368,8.0316 L5.8368,8.0316 C5.55745437,8.25660081 5.14860081,8.21254563 4.9236,7.9332 C4.69859919,7.65385437 4.74265437,7.24500081 5.022,7.02 L5.022,7.0116 Z M6.1428,13.2612 C5.30111804,13.2612 4.6188,12.578882 4.6188,11.7372 C4.6188,10.895518 5.30111804,10.2132 6.1428,10.2132 C6.98448196,10.2132 7.6668,10.895518 7.6668,11.7372 C7.66613826,12.5786077 6.9842077,13.2605383 6.1428,13.2612 L6.1428,13.2612 Z M17.3184,17.592 L6.6816,17.592 C6.1632,17.592 5.7408,17.3004 5.7408,16.9416 C5.7408,16.5828 6.1632,16.2924 6.6816,16.2924 L17.3184,16.2924 C17.8368,16.2924 18.2592,16.584 18.2592,16.9416 C18.2592,17.2992 17.8368,17.592 17.3184,17.592 Z M17.8584,13.2612 C17.016718,13.2612 16.3344,12.578882 16.3344,11.7372 C16.3344,10.895518 17.016718,10.2132 17.8584,10.2132 C18.700082,10.2132 19.3824,10.895518 19.3824,11.7372 C19.3817383,12.5786077 18.6998077,13.2605383 17.8584,13.2612 L17.8584,13.2612 Z"/>
</svg>
