<svg xmlns="http://www.w3.org/2000/svg" width="24" height="24" viewBox="0 0 24 24">
  <path fill="currentColor" fill-rule="evenodd" d="M12,0 C5.372583,0 0,5.372583 0,12 C0,18.627417 5.372583,24 12,24 C18.627417,24 24,18.627417 24,12 C23.9927252,5.37559868 18.6244013,0.00727484455 12,0 Z M4.32,6.8076 C4.09698487,6.52922628 4.13923755,6.12327961 4.4148,5.8968 C4.74854823,5.64894492 5.12710762,5.4680188 5.5296,5.364 C5.92705422,5.24631465 6.34285357,5.20318869 6.756,5.2368 C7.1072643,5.28566299 7.354631,5.60692351 7.3120927,5.95900971 C7.26955441,6.31109591 6.95279423,6.56419985 6.6,6.528 L6.588,6.528 C6.34759834,6.51791031 6.10717713,6.54750685 5.8764,6.6156 C5.64416544,6.67566251 5.42410533,6.77554219 5.226,6.9108 C5.11058725,7.0013118 4.96827058,7.05072144 4.8216,7.0512 C4.62618561,7.04994385 4.44181524,6.96040513 4.32,6.8076 Z M6.1416,10.5276 C5.30038719,10.5276 4.61826553,9.84600972 4.61760424,9.00479717 C4.61694391,8.16358461 5.2979939,7.48092585 6.13920567,7.47959996 C6.98041744,7.47827792 7.66361288,8.15878953 7.6656,9 C7.66361645,9.84047029 6.98207238,10.5209411 6.1416,10.5216 L6.1416,10.5276 Z M16.5816,18.8076 L16.5216,19.0824 L7.4544,19.0824 C7.4544,19.0824 7.4112,18.8364 7.404,18.8004 C7.1298914,17.5311308 7.39545872,16.2050328 8.1372,15.1392 L8.6172,14.5476 C8.6256,14.538 8.6364,14.5308 8.6448,14.5224 C8.77989428,14.3856109 8.92337167,14.2573629 9.0744,14.1384 L9.1944,14.046 C9.35738227,13.9227393 9.52813586,13.810106 9.7056,13.7088 L9.7428,13.6908 C9.91343087,13.5994784 10.0898004,13.5193104 10.2708,13.4508 L10.404,13.3992 C10.6000126,13.3272794 10.800421,13.2679585 11.004,13.2216 C11.1866518,13.1833708 11.3713595,13.1557248 11.5572,13.1388 L11.6952,13.1304 C11.8368,13.1208 11.9784,13.1172 12.1188,13.1208 L12.2604,13.1208 C12.4211775,13.1291149 12.5814019,13.1459385 12.7404,13.1712 L12.8016,13.1784 C12.9814653,13.2101672 13.1593581,13.2522364 13.3344,13.3044 C13.3704,13.3152 13.4052,13.3296 13.44,13.3404 C13.5756,13.3848 13.71,13.4352 13.8408,13.4916 C13.89,13.512 13.9392,13.5348 13.9872,13.5576 C14.1072,13.6176 14.238,13.6776 14.3592,13.7532 C14.394,13.7736 14.4312,13.794 14.466,13.8156 C14.5008,13.8372 14.5176,13.8432 14.5428,13.8588 C14.6736,13.944 14.796,14.0376 14.916,14.1336 L14.9424,14.1528 C15.0935684,14.2750415 15.2374168,14.4060677 15.3732,14.5452 L15.3732,14.5452 L15.8652,15.138 C16.6028727,16.2083217 16.863586,17.5366556 16.5852,18.8064 L16.5816,18.8076 Z M17.8608,10.5276019 C17.0192761,10.5289229 16.3359517,9.84792321 16.3344042,9.00639967 C16.3328619,8.16487614 17.0136813,7.48137213 17.8552044,7.47960181 C18.6967275,7.47783835 19.3804111,8.1584774 19.3824,9 C19.3804165,9.84047029 18.6988724,10.5209411 17.8584,10.5216 L17.8608,10.5276019 Z M19.6908,5.8596 C19.5680104,6.01138334 19.3832318,6.0996 19.188,6.0996 C19.0403485,6.0994081 18.8970579,6.04953111 18.7812,5.958 C18.5833647,5.82331105 18.3637291,5.72384576 18.132,5.664 C17.898611,5.59462841 17.6552143,5.56501515 17.412,5.5764 C17.0557763,5.6194782 16.7320782,5.36562366 16.689,5.0094 C16.6459218,4.65317634 16.8997763,4.32947822 17.256,4.2864 C17.6678423,4.24785344 18.0832575,4.28817314 18.48,4.4052 C18.8826862,4.50929609 19.2613047,4.69065802 19.5948,4.9392 C19.7286439,5.04792772 19.8137313,5.20543815 19.831291,5.37698281 C19.8488507,5.54852747 19.7974398,5.72001017 19.6884,5.8536 L19.6908,5.8596 Z"/>
</svg>
