<svg xmlns="http://www.w3.org/2000/svg" width="24" height="24" viewBox="0 0 24 24">
  <path fill="currentColor" fill-rule="evenodd" d="M23.984354,6.18129944 C23.9118627,5.64435003 23.5124232,5.20946869 22.9835559,5.09170153 C22.629614,5.02061277 22.2629076,5.12119002 21.9947578,5.36290101 C21.9186938,5.29672751 21.8343956,5.24066316 21.7439583,5.19610133 C21.4288794,4.75142383 21.0832456,4.32920531 20.7095603,3.93250375 C21.4739588,2.95930562 21.4859588,2.12050722 21.4211589,1.70050803 C21.3122699,0.880439128 20.7032973,0.215408532 19.8959619,0.034911223 C19.2833238,-0.0844020594 18.6537102,0.133558722 18.245965,0.606110128 C17.8379301,0.133985953 17.2085698,-0.0838871529 16.5959682,0.034911223 C16.1840872,0.119909191 15.8133776,0.342504234 15.5447702,0.666110013 C14.3870028,0.303575316 13.1807779,0.119465174 11.9675771,0.12011106 C5.36878971,0.12011106 0,5.47690079 0,12.0600882 C0,18.6432755 5.36878971,24.0000653 11.9675771,24.0000653 C18.5663644,24.0000653 23.9363541,18.6432755 23.9363541,12.0600882 C23.9331456,10.660513 23.6816486,9.27260716 23.1935555,7.96089603 C24.014354,7.20009749 24.0335539,6.49929883 23.984354,6.18129944 Z M15.7607698,1.80010784 C15.7795255,1.70137672 15.8084807,1.60485954 15.8471696,1.51210839 C15.9335087,1.28098216 16.083742,1.07914529 16.2803688,0.930109507 C16.4136941,0.827368631 16.5682394,0.755630116 16.7327679,0.720109909 C16.7979721,0.707189329 16.8642957,0.700757956 16.9307675,0.700909946 C17.3219668,0.700909946 17.6855661,0.940909486 17.9471656,1.36810867 C18.0101433,1.47382367 18.1241128,1.5385889 18.247165,1.5385889 C18.3702173,1.5385889 18.4841867,1.47382367 18.5471644,1.36810867 C18.8543639,0.862909636 19.295963,0.625310091 19.7639621,0.720109909 C20.2796745,0.843792548 20.6648855,1.27392885 20.7311603,1.80010784 C20.8115601,2.32090684 20.6243605,2.88010577 20.2127613,3.42250473 C20.0709142,3.60609852 19.9152626,3.77859909 19.7471621,3.93850374 C19.2948686,4.36711911 18.7905207,4.73721612 18.245965,5.04010163 C16.5251683,4.0645035 15.5999701,2.8633058 15.7607698,1.80010784 Z M19.2587631,8.82969436 C19.2636252,9.44619165 18.8959986,10.0046935 18.327819,10.2439934 C17.7596393,10.4832933 17.1032149,10.3560907 16.6655495,9.92187692 C16.2278842,9.48766318 16.0954882,8.83226642 16.3302821,8.26220995 C16.5650759,7.69215348 17.1206495,7.32009726 17.737166,7.32009726 C18.5747171,7.32009726 19.2547999,7.99695262 19.2587631,8.83449435 L19.2587631,8.82969436 Z M6.0527884,7.32009726 C6.66686878,7.32106986 7.21987444,7.6919235 7.45386264,8.25967801 C7.68785084,8.82743252 7.5567245,9.48023691 7.12164592,9.91359853 C6.68656734,10.3469601 6.03324957,10.4755042 5.46642471,10.2392729 C4.89959985,10.0030415 4.53093576,9.44857378 4.53238702,8.83449435 C4.53635202,7.99742057 5.2157055,7.32074805 6.0527884,7.32009726 L6.0527884,7.32009726 Z M21.5567587,13.699285 C21.403159,13.8360848 17.728766,17.0484786 11.9351771,17.0484786 C6.14158823,17.0484786 2.51999517,13.8168848 2.37479545,13.6800851 C2.20330828,13.5238174 2.12821542,13.2879328 2.17780361,13.0612867 C2.2273918,12.8346407 2.39412743,12.651666 2.61520278,12.5812876 C2.83627814,12.5109092 3.07810662,12.5638192 3.24959377,12.7200869 C3.28199371,12.7488868 6.6767872,15.7464811 11.9351771,15.7464811 C17.230767,15.7464811 20.6567604,12.7572868 20.6951603,12.7272869 L20.8955599,12.9504865 L20.6951603,12.7272869 C20.9624707,12.4886818 21.3724141,12.511218 21.6119586,12.7776868 C21.8504302,13.0445964 21.8278853,13.4541625 21.5615587,13.693285 L21.5567587,13.699285 Z M22.3679571,7.73649646 C22.2479573,7.8192963 22.1279576,7.90089614 21.9947578,7.976496 C21.0971596,7.44849701 20.6135605,6.82449821 20.6963603,6.28569924 C20.723239,6.03772841 20.9027547,5.83325335 21.1451595,5.77450022 C21.1735932,5.76873201 21.2025469,5.76591707 21.2315593,5.76610024 C21.2582718,5.7676592 21.2847838,5.77167617 21.3107591,5.77810021 C21.4772184,5.81977165 21.6178699,5.93072033 21.6971584,6.08289963 C21.7601362,6.18861463 21.8741056,6.25337986 21.9971578,6.25337986 C22.1202101,6.25337986 22.2341795,6.18861463 22.2971573,6.08289963 C22.3004657,6.07788777 22.3040722,6.07307912 22.3079572,6.06849966 C22.453157,5.8381001 22.6427566,5.7313003 22.8503562,5.77330022 C23.0914312,5.83423938 23.2699368,6.03756399 23.2991553,6.28449924 C23.3459552,6.58929866 23.2055555,6.92169802 22.9163561,7.2444974 C22.7527152,7.42761298 22.568727,7.59147115 22.3679571,7.73289647 L22.3679571,7.73649646 Z"/>
</svg>
