<svg xmlns="http://www.w3.org/2000/svg" width="24" height="24" viewBox="0 0 24 24">
  <path fill="currentColor" fill-rule="evenodd" d="M12,0 C5.372583,0 0,5.372583 0,12 C0,18.627417 5.372583,24 12,24 C18.627417,24 24,18.627417 24,12 C23.9927252,5.37559868 18.6244013,0.00727484455 12,0 Z M16.5936,5.9712 C17.0082695,5.93569624 17.4259179,5.97843804 17.8248,6.0972 C18.2277511,6.20056907 18.6065052,6.38199598 18.9396,6.6312 C19.2186143,6.85752629 19.2613263,7.26718574 19.035,7.5462 C18.8086737,7.82521426 18.3990143,7.86792629 18.12,7.6416 C17.9224471,7.50745841 17.7032321,7.40840569 17.472,7.3488 C17.2386532,7.27922572 16.995222,7.24960826 16.752,7.2612 C16.5830161,7.28069946 16.4131529,7.2328446 16.2792,7.128 C16.1444482,7.02205942 16.0579599,6.8663805 16.0392,6.696 C15.9950766,6.34354549 16.2418854,6.02087774 16.5936,5.9712 Z M16.146,9.3804 C16.4450565,9.18785486 16.8433164,9.27124888 17.04,9.5676 C17.2247968,9.79394274 17.5026197,9.92379957 17.7948,9.9204 C18.0904719,9.92628668 18.3717461,9.79298139 18.5544,9.5604 C18.7565469,9.2691946 19.1533877,9.19110144 19.4508,9.384 L19.4508,9.384 C19.7453242,9.58222425 19.8269623,9.97974322 19.6344,10.278 C19.2070042,10.8687389 18.5221362,11.2185591 17.793,11.2185591 C17.0638638,11.2185591 16.3789958,10.8687389 15.9516,10.278 C15.7579951,9.97634785 15.8449358,9.57491793 16.146,9.3804 Z M4.986,6.6312 C5.31909475,6.38199598 5.69784889,6.20056907 6.1008,6.0972 C6.49887431,5.9785136 6.91572277,5.93577035 7.3296,5.9712 C7.68582366,6.01427822 7.93967819,6.33797634 7.89659998,6.6942 C7.85352177,7.05042366 7.52982366,7.3042782 7.1736,7.2612 L7.1616,7.2612 C6.92153862,7.25178412 6.68155712,7.28178181 6.4512,7.35 C6.21947088,7.40984576 5.99983526,7.50931105 5.802,7.644 L5.802,7.644 C5.6873924,7.73415099 5.54581531,7.7831747 5.4,7.78321701 C5.20342948,7.7846268 5.01695797,7.69625168 4.8936,7.5432 C4.66796736,7.26609552 4.70815546,6.85885607 4.9836,6.6312 L4.986,6.6312 Z M4.4292,9.3804 C4.72941772,9.18495584 5.13105163,9.26796018 5.3292,9.5664 C5.51652218,9.79064717 5.79410495,9.91965482 6.08629402,9.91826233 C6.37848309,9.91686985 6.65482366,9.78522238 6.84,9.5592 C7.04262357,9.27105673 7.43806308,9.19707052 7.73115609,9.39246586 C8.02424911,9.5878612 8.10804626,9.98133852 7.92,10.2792 C7.4926589,10.870424 6.80749728,11.2205888 6.078,11.2205888 C5.34850272,11.2205888 4.6633411,10.870424 4.236,10.2792 C4.04135105,9.97761649 4.12781742,9.57535991 4.4292,9.3804 Z M11.9664,18.24 C6.1476,18.24 2.532,15 2.3808,14.856 C2.20931252,14.6993033 2.13444824,14.4630221 2.18440781,14.2361613 C2.23436738,14.0093004 2.40156075,13.8263254 2.62300781,13.7561613 C2.84445486,13.6859971 3.08651252,13.7393033 3.258,13.896 C3.2904,13.926 6.6972,16.9392 11.9664,16.9392 C17.2752,16.9392 20.712,13.9392 20.7468,13.9044 C20.8738535,13.787961 21.0427886,13.728184 21.2148,13.7388 C21.4771992,13.7531708 21.7051683,13.9240373 21.7925897,14.1718625 C21.8800111,14.4196878 21.8097057,14.6957718 21.6144,14.8716 C21.4596,15.0072 17.7744,18.24 11.9664,18.24 Z"/>
</svg>
