<svg xmlns="http://www.w3.org/2000/svg" width="24" height="24" viewBox="0 0 24 24">
  <path fill="currentColor" fill-rule="evenodd" d="M12,0 C5.372583,0 0,5.372583 0,12 C0,18.627417 5.372583,24 12,24 C18.627417,24 24,18.627417 24,12 C24,8.81740212 22.7357179,5.76515517 20.4852814,3.51471863 C18.2348448,1.26428208 15.1825979,0 12,0 Z M4.1856,8.4288 C4.02303683,8.21869641 4.00256808,7.93151347 4.13368938,7.70047774 C4.26481067,7.46944201 4.52186394,7.33976305 4.7856,7.3716 C5.03573325,7.38205538 5.28588082,7.35124303 5.526,7.2804 C5.76740065,7.2182077 5.99605133,7.11423865 6.2016,6.9732 C6.48657893,6.74554823 6.90214823,6.79202107 7.1298,7.077 C7.35745177,7.36197893 7.31097893,7.77754823 7.026,8.0052 C6.68329694,8.25904796 6.29508303,8.44480404 5.8824,8.5524 C5.55841483,8.64510473 5.22337537,8.69354417 4.8864,8.6964 C4.7993872,8.69692942 4.71242387,8.69212039 4.626,8.682 C4.45116687,8.66012849 4.29246726,8.56888702 4.1856,8.4288 Z M4.3452,10.9716 C4.3452,10.1100358 5.04363579,9.4116 5.9052,9.4116 C6.76676421,9.4116 7.4652,10.1100358 7.4652,10.9716 C7.4652,11.8331642 6.76676421,12.5316 5.9052,12.5316 C5.04363579,12.5316 4.3452,11.8331642 4.3452,10.9716 L4.3452,10.9716 Z M18.4308,17.8512 C18.3055916,17.9877915 18.1288952,18.0656946 17.9436,18.0660029 C17.7793208,18.0664853 17.6208535,18.0052399 17.4996,17.8944 C17.4792,17.8764 15.3336,15.9864 12.0216,15.9864 C8.6916,15.9864 6.5172,17.8716 6.4956,17.8908 C6.22310079,18.1266382 5.81180211,18.100288 5.57162551,17.8316048 C5.33144892,17.5629215 5.35120181,17.1512533 5.616,16.9068 C5.7168,16.8156 8.1528,14.6664 12.0216,14.6664 C15.8904,14.6664 18.288,16.8264 18.3888,16.9188 C18.6572119,17.1649862 18.6759908,17.5818785 18.4308,17.8512 Z M17.9736,12.5328 C17.1120358,12.5328 16.4136,11.8343642 16.4136,10.9728 C16.4136,10.1112358 17.1120358,9.4128 17.9736,9.4128 C18.8351642,9.4128 19.5336,10.1112358 19.5336,10.9728 C19.5336,11.8343642 18.8351642,12.5328 17.9736,12.5328 Z M19.3488,8.6808 C19.2592187,8.6916854 19.1690388,8.69689579 19.0788,8.6964 C18.741819,8.69361782 18.4067697,8.64517695 18.0828,8.5524 C17.6705952,8.44510939 17.2827913,8.25976192 16.9404,8.0064 C16.8037304,7.89632236 16.7165263,7.73634808 16.6980617,7.56183528 C16.6795971,7.38732248 16.7313925,7.21264115 16.842,7.0764 C17.0718645,6.79714508 17.4825929,6.75239646 17.7672,6.9756 L17.7672,6.9756 C17.9720719,7.11469571 18.1994061,7.21740207 18.4392,7.2792 C18.6791549,7.35083099 18.9294349,7.38165964 19.1796,7.3704 L19.1868,7.3704 C19.548657,7.32566494 19.8782649,7.58274304 19.923,7.9446 C19.9677351,8.30645696 19.710657,8.63606493 19.3488,8.6808 L19.3488,8.6808 Z"/>
</svg>
