<svg xmlns="http://www.w3.org/2000/svg" width="24" height="24" viewBox="0 0 24 24">
  <path fill="currentColor" fill-rule="evenodd" d="M21.5712,19.1714756 C19.3030703,22.140952 15.7602447,23.8860886 12,23.8860886 C8.23975529,23.8860886 4.69692974,22.140952 2.4288,19.1714756 C3.4442454,19.6561261 4.57142457,19.865226 5.6952,19.7774161 C5.6952,19.7774161 5.6964,19.8225647 5.8008,19.896228 C6.0948,20.1516736 7.1952,21.0914756 11.1696,21.1627627 C11.4344,21.1675152 11.7112,21.1698914 12,21.1698914 L12,21.1698914 L12.2853333,21.1690993 C12.4727111,21.1680432 12.6544,21.165931 12.8304,21.1627627 C16.8048,21.0914756 17.9052,20.1516736 18.1992,19.896228 C18.3048,19.826129 18.3048,19.7774161 18.3048,19.7774161 C19.4285754,19.865226 20.5557546,19.6561261 21.5712,19.1714756 Z M0.0288,11.2146439 L0.155742574,11.4261432 C1.97906544,14.3254782 5.6952,14.6530597 5.6952,14.6530597 L5.6952,14.6530597 L5.6952,18.9302874 C4.446,19.2403864 2.0088,18.3813765 1.9896,18.3766241 C0.6588,16.4637528 2.22044605e-15,14.4997924 2.22044605e-15,12.0047429 C2.22044605e-15,11.7378122 0.0096,11.4744458 0.0288,11.2146439 L0.0288,11.2146439 Z M23.9724,11.2098914 L23.9931,11.605832 L23.9931,11.605832 L24,12.0047429 C24,14.4997924 23.3412,16.4637528 22.0116,18.3683072 C21.9924,18.3730597 19.5552,19.2320696 18.306,18.9219706 L18.306,18.9219706 L18.306,14.6447429 C18.306,14.6447429 22.2072,14.3049409 23.9724,11.2098914 L23.9724,11.2098914 Z M12,0.118571964 C17.6434875,0.118571964 22.5243753,4.01201852 23.7252,9.47167357 C23.7192,9.485931 22.3848,13.2213765 18.3048,13.6966241 L18.3048,13.6966241 L17.9408768,13.7119666 C16.3284429,13.7765069 14.262,13.8154359 12,13.8154359 L11.4815891,13.8147003 C9.25120408,13.8083679 7.23625714,13.761716 5.6952,13.6966241 L5.6952,13.6966241 L5.41538511,13.6579491 C1.5595775,13.0451134 0.280660465,9.48559943 0.2748,9.47167357 C1.47562473,4.01201852 6.35651254,0.118571964 12,0.118571964 Z M17.8536,7.925931 C17.4398623,7.925931 17.0430702,8.08866037 16.7505134,8.37832052 C16.4579567,8.66798067 16.2936,9.06084414 16.2936,9.47048545 C16.2936,10.3235193 16.9920358,11.0150399 17.8536,11.0150399 C18.7151642,11.0150399 19.4136,10.3235193 19.4136,9.47048545 C19.4136,8.61745158 18.7151642,7.925931 17.8536,7.925931 Z M5.7864,7.925931 C5.37266228,7.925931 4.97587017,8.08866037 4.68331342,8.37832052 C4.39075667,8.66798067 4.2264,9.06084414 4.2264,9.47048545 C4.2264,10.3235193 4.92483579,11.0150399 5.7864,11.0150399 C6.64796421,11.0150399 7.3464,10.3235193 7.3464,9.47048545 C7.3464,8.61745158 6.64796421,7.925931 5.7864,7.925931 Z"/>
</svg>
