<svg xmlns="http://www.w3.org/2000/svg" width="24" height="24" viewBox="0 0 24 24">
  <path fill="currentColor" fill-rule="evenodd" d="M23.2749769,7.62764467 C23.8344952,9.03760923 24.1223943,10.5415599 24.1233942,12.0595133 C24.1342963,16.9093495 21.2532781,21.2939002 16.8108192,23.1882943 C12.3683602,25.0826884 7.2289234,24.1182937 3.76600104,20.7404865 C0.303078672,17.3626792 -0.809475435,12.2287507 0.942137947,7.70964931 C0.988834505,7.74587705 1.03220721,7.78623677 1.07173585,7.83024438 C1.18871234,7.93903118 1.2996765,8.05417067 1.40413048,8.17514626 C1.46478298,8.23702265 1.51905787,8.30490076 1.56612786,8.37774597 C1.82772363,8.58758139 2.11211903,8.85168458 2.2009176,9.11699372 C2.35811505,9.58972638 2.67370995,12.6202804 3.61809468,13.410178 C4.59247893,14.2229888 8.26561955,13.9202952 8.97000816,13.5693635 C10.5383828,12.7806718 10.7315797,10.2324981 11.0099752,9.11699372 C11.1659727,8.48507558 12.1103574,8.48507558 12.1103574,8.48507558 C12.1103574,8.48507558 13.0559421,8.48507558 13.2131396,9.11578777 C13.4855352,10.2361159 13.679932,12.7903194 15.2531066,13.5778052 C15.9574952,13.9311487 19.6306358,14.2338423 20.60622,13.4210316 C21.5494048,12.6311339 21.8637997,9.59334423 22.0221971,9.11940562 C22.1217955,8.81550606 22.4829897,8.51160649 22.770985,8.29091753 L22.770985,8.29091753 L22.7781849,8.31141869 C22.8183691,8.24695875 22.8654483,8.1871093 22.9185827,8.13293799 C22.9869815,8.03163813 23.0529805,7.92913233 23.1201794,7.82783247 C23.1662469,7.75696304 23.2180195,7.69000941 23.2749769,7.62764467 Z M18.0418615,15.4241156 L6.20525286,15.4241156 L6.21725266,15.7485164 C6.32835813,18.9460842 8.93987963,21.4805506 12.1235572,21.4805506 C15.3072347,21.4805506 17.9187562,18.9460842 18.0298617,15.7485164 L18.0298617,15.7485164 L18.0418615,15.4241156 Z M12.1253571,0.00022318618 C16.7733772,0.00022318618 21.001514,2.70332414 22.9713818,6.93422304 C22.7949847,6.92457544 22.6197875,6.89925047 22.4433903,6.87392551 C22.3374621,6.85816661 22.2327952,6.83479157 22.1301954,6.80398037 L22.1301954,6.80398037 L22.1433952,6.82930533 C20.7286181,6.65203059 17.9902623,6.59173306 15.0959091,6.91010403 C14.297922,6.99693247 13.991927,7.2260631 12.1043575,7.2260631 C10.216788,7.2260631 9.91199293,6.99693247 9.11520581,6.91010403 C6.24725218,6.59535091 3.53169608,6.65082464 2.10611913,6.82448153 L2.10611913,6.82448153 L2.12771878,6.78468516 C1.8421234,6.82689343 1.56492788,6.89804452 1.2793325,6.93422304 C3.24920032,2.70332414 7.47733706,0.00022318618 12.1253571,0.00022318618 Z M7.47363235,4.10023901 C7.05974219,4.06272896 6.64252361,4.10363572 6.24365224,4.22083407 C5.84018411,4.32407282 5.46067861,4.50555226 5.1264703,4.75507021 C4.85144693,4.9817884 4.80867916,5.38849178 5.03047185,5.66797486 C5.13589023,5.80584859 5.29162691,5.89582791 5.46322933,5.91800731 C5.63483174,5.94018671 5.80815539,5.89273803 5.94485707,5.78615802 C6.14371109,5.65079574 6.36406045,5.5504723 6.59644653,5.48949416 C6.82982241,5.41973348 7.07322278,5.38997243 7.31643489,5.40145976 L7.31643489,5.40145976 L7.39083369,5.40145976 C7.73190902,5.39872482 8.01294082,5.13165259 8.03470818,4.7895682 C8.05647553,4.44748381 7.81158284,4.14661239 7.47363235,4.10023901 Z M16.9840871,4.07942645 L16.7350826,4.09179735 C16.3852253,4.1411707 16.1379403,4.46130102 16.1770916,4.81416179 C16.1956371,4.98630939 16.2825086,5.14365643 16.4180354,5.25057428 C16.5535622,5.35749213 16.7262801,5.40493655 16.89708,5.38216455 C17.1402657,5.37137899 17.3835507,5.40112592 17.6170684,5.47019895 C17.8487696,5.53041014 18.0683904,5.6303635 18.2662579,5.76565686 C18.3817453,5.85746967 18.5245979,5.9075894 18.6718513,5.90795971 C18.9465161,5.90835328 19.1917047,5.73499206 19.2841187,5.47505384 C19.3765326,5.21511561 19.2961707,4.92485923 19.0834447,4.75024641 C18.7498031,4.49971874 18.3707268,4.31702076 17.9674627,4.21239242 C17.5674789,4.09671572 17.1497581,4.05583948 16.7350826,4.09179735 Z"/>
</svg>
