<svg xmlns="http://www.w3.org/2000/svg" width="24" height="24" viewBox="0 0 24 24">
  <path fill="currentColor" fill-rule="evenodd" d="M1.8469591,5.64386888 C4.81532588,0.894746003 10.6741809,-1.16938223 15.9638632,0.670354436 L15.9638632,0.670354436 L15.7176322,0.670354436 C14.9879316,0.670354436 14.3963925,1.2618936 14.3963925,1.99159414 C14.3962909,2.16131033 14.4293401,2.32941233 14.4936838,2.48645846 L14.4936838,2.48645846 L12.1767098,2.48645846 C11.6183348,2.48554995 11.1196717,2.83575587 10.9310163,3.36129609 C10.7423608,3.88683632 10.904448,4.47423465 11.3359209,4.82865612 L11.3359209,4.82865612 L11.2416149,4.92510667 C10.9165041,5.29341283 10.8203359,5.81644901 11.0021511,6.28084462 C11.200495,6.78745801 11.6891064,7.12069565 12.2331627,7.12040644 L12.2331627,7.12040644 L14.4684601,7.12040644 C15.0664694,7.12002261 15.5896619,6.71802157 15.744057,6.14028681 L15.744057,6.14028681 L18.7384666,6.14028681 C18.5564425,6.54956501 18.5941787,7.0231951 18.8387131,7.39848747 C19.0832475,7.77377983 19.501274,7.99961898 19.9492026,7.99843028 L19.9492026,7.99843028 L23.3326441,7.9982116 L23.4326593,8.29109735 C25.0946532,13.3945975 23.1602715,18.9870641 18.700216,21.973005 L18.4401106,22.1423569 C13.7080482,25.137846 7.53314984,24.461504 3.56170058,20.5127118 C-0.409748682,16.5639195 -1.12140768,10.3929918 1.8469591,5.64386888 Z M12.7766287,14.6934475 C12.1873144,14.4493456 11.5089843,14.5842738 11.0579426,15.0353155 C10.606901,15.4863571 10.4719727,16.1646872 10.7160747,16.7540015 C10.9601767,17.3433159 11.5352372,17.727559 12.1731064,17.727559 L12.1731064,17.727559 C13.0470311,17.7249113 13.7501861,17.0196035 13.7501861,16.1504792 C13.7501861,15.51261 13.365943,14.9375495 12.7766287,14.6934475 Z M4.58013172,9.83963037 C4.33830835,9.84957343 4.12128175,9.99095884 4.01446767,10.2081411 C3.90765359,10.4253235 3.92815434,10.683529 4.06790138,10.8811351 C4.50678786,11.4875328 5.20991697,11.8466029 5.95847528,11.8466029 C6.70703359,11.8466029 7.4101627,11.4875328 7.84904918,10.8811351 L7.84904918,10.8811351 C8.04783254,10.5786143 7.96432616,10.1714019 7.66204655,9.97043212 C7.35976695,9.76946238 6.95196251,9.85002826 6.74881685,10.1508499 C6.55630534,10.3869812 6.268398,10.5248004 5.96374205,10.5266595 C5.6590861,10.5285185 5.36951826,10.3942233 5.17413935,10.1604589 C5.04985618,9.95277861 4.82195508,9.82968731 4.58013172,9.83963037 Z M16.6538603,9.83963037 C16.412037,9.84957343 16.1950104,9.99095884 16.0881963,10.2081411 C15.9813822,10.4253235 16.001883,10.683529 16.14163,10.8811351 C16.580776,11.487544 17.2840849,11.8465853 18.0328045,11.8465853 C18.7815241,11.8465853 19.4848329,11.487544 19.9239789,10.8811351 L19.9239789,10.8811351 C20.1227623,10.5786143 20.0392559,10.1714019 19.7369763,9.97043212 C19.4346967,9.76946238 19.0268923,9.85002826 18.8237466,10.1508499 C18.6310024,10.3870229 18.3429051,10.5248428 18.0380698,10.5267015 C17.7332344,10.5285603 17.4434779,10.3942639 17.247868,10.1604589 C17.1235848,9.95277861 16.8956837,9.82968731 16.6538603,9.83963037 Z M23.5201532,3.01495435 C23.6680735,3.01636554 23.8001049,3.10803742 23.8531188,3.24613857 C23.9061326,3.38423973 23.8693582,3.54071231 23.7603786,3.64074151 L23.7603786,3.64074151 L20.8692659,6.31685248 L23.6378636,6.31685248 C23.8368729,6.31685248 23.9982017,6.47818134 23.9982017,6.67719058 C23.9982017,6.87619981 23.8368729,7.03752868 23.6378636,7.03752868 L23.6378636,7.03752868 L19.9395936,7.03752868 C19.7916733,7.03611748 19.6596419,6.94444561 19.606628,6.80634445 C19.5536141,6.66824329 19.5903886,6.51177071 19.6993682,6.41174151 L19.6993682,6.41174151 L22.5952854,3.73683167 L19.8615203,3.73683167 C19.6625111,3.73563055 19.5011822,3.57430168 19.5011822,3.37529245 C19.5011822,3.17628321 19.6625111,3.01495435 19.8615203,3.01495435 L19.8615203,3.01495435 Z M14.3831801,3.4401533 C14.5311004,3.4415645 14.6631318,3.53323637 14.7161456,3.67133753 C14.7691595,3.80943869 14.7323851,3.96591127 14.6234055,4.06594047 L14.6234055,4.06594047 L13.1424159,5.43642638 L14.4636556,5.43642638 C14.531237,5.43657014 14.5974159,5.45571623 14.6546348,5.49167823 C14.7012897,5.56826333 14.7556206,5.63989954 14.8167869,5.70547883 C14.8244,5.73532274 14.8284321,5.76596703 14.8287982,5.79676448 C14.8287982,5.99577372 14.6674693,6.15710258 14.4684601,6.15710258 L14.4684601,6.15710258 L12.2331627,6.15710258 C12.085197,6.15705044 11.9523024,6.06654875 11.8980483,5.92888845 C11.8435774,5.79082082 11.8793371,5.63347812 11.9881328,5.53251654 L11.9881328,5.53251654 L13.4691224,4.16082951 L12.1803132,4.16082951 C11.9813039,4.1608295 11.8199751,3.99950064 11.8199751,3.80049141 C11.8199751,3.60148217 11.9813039,3.4401533 12.1803132,3.4401533 L12.1803132,3.4401533 Z M18.8585793,1.62885378 C19.0059397,1.63078583 19.1372714,1.72225703 19.1901753,1.85980708 C19.2430791,1.99735713 19.206891,2.15325904 19.0988047,2.25343983 L19.0988047,2.25343983 L16.7169698,4.45630675 L18.9666807,4.45630675 C19.16569,4.45630675 19.3270188,4.61763561 19.3270188,4.81664485 C19.3270188,5.01565409 19.16569,5.17698295 18.9666807,5.17698295 L18.9666807,5.17698295 L15.7969066,5.17698295 C15.7278616,5.17680401 15.6603217,5.15679219 15.602324,5.11932885 C15.5585706,5.04617597 15.5078905,4.97739577 15.450982,4.91393614 C15.4147231,4.7844066 15.4536267,4.64546512 15.5518767,4.55359804 L15.5518767,4.55359804 L17.9337115,2.34952999 L15.7212356,2.34952999 C15.5222263,2.34952999 15.3608975,2.18820112 15.3608975,1.98919188 C15.3608975,1.79018265 15.5222263,1.62885378 15.7212356,1.62885378 L15.7212356,1.62885378 Z"/>
</svg>
