<svg xmlns="http://www.w3.org/2000/svg" width="24" height="24" viewBox="0 0 24 24">
  <path fill="currentColor" fill-rule="evenodd" d="M21.9871067,9.85507932 L20.7738184,9.42475341 C20.422475,9.29984919 20.1405575,9.03183415 19.9980496,8.68724069 C19.8555416,8.34264722 19.8658061,7.95378763 20.0262948,7.61719291 L20.0262948,7.61719291 L20.5783123,6.45464207 C20.9909057,5.5847362 20.8118455,4.54933752 20.1310751,3.86853436 C19.4503046,3.18773119 18.4149557,3.00866246 17.5450916,3.42127569 L16.3825966,3.97427803 C16.045825,4.13404675 15.6571466,4.14370878 15.3128533,4.00087042 C14.96856,3.85803207 14.7008627,3.57605683 14.5760813,3.22480172 L14.1448177,2.01241358 C13.821484,1.10552583 12.9627622,0.5 12,0.5 C11.0372378,0.5 10.178516,1.10552583 9.85518234,2.01241358 L9.42391874,3.22576013 C9.29893732,3.57684291 9.0311571,3.85859132 8.68688727,4.00123729 C8.34261744,4.14388326 7.95404975,4.13408835 7.61740342,3.97427803 L6.45490842,3.42127569 C5.58504433,3.00866246 4.54969539,3.18773119 3.86892492,3.86853436 C3.18815446,4.54933752 3.00909433,5.5847362 3.42168774,6.45464207 L3.97370516,7.61719291 C4.13388007,7.95382777 4.14398428,8.34255799 4.00151407,8.68706022 C3.85904385,9.03156244 3.57733118,9.29959909 3.22618158,9.42475341 L2.01289331,9.85603773 C1.10581551,10.1789034 0.5,11.037613 0.5,12.0004792 C0.5,12.9633455 1.10581551,13.822055 2.01289331,14.1449207 L3.22618158,14.576205 C3.57726871,14.7011426 3.85898124,14.9689969 4.00146569,15.3133509 C4.14395014,15.6577049 4.13386288,16.0463098 3.97370516,16.3828071 L3.42168774,17.5453579 C3.00909433,18.4152638 3.18815446,19.4506625 3.86892492,20.1314656 C4.54969539,20.8122688 5.58504433,20.9913375 6.45490842,20.5787243 L7.61740342,20.0266804 C7.95396981,19.8662421 8.34279654,19.8561267 8.68724888,19.9988483 C9.03170122,20.1415699 9.29943796,20.4237281 9.42391874,20.7751983 L9.85518234,21.9875864 C10.178516,22.8944742 11.0372378,23.5 12,23.5 C12.9627622,23.5 13.821484,22.8944742 14.1448177,21.9875864 L14.5760813,20.7742399 C14.7010128,20.4231359 14.9688543,20.1414098 15.3131917,19.9989185 C15.6575292,19.8564272 16.0461154,19.866515 16.3825966,20.0266804 L17.5450916,20.5787243 C18.4149557,20.9913375 19.4503046,20.8122688 20.1310751,20.1314656 C20.8118455,19.4506625 20.9909057,18.4152638 20.5783123,17.5453579 L20.0262948,16.3828071 C19.8661371,16.0463098 19.8560499,15.6577049 19.9985343,15.3133509 C20.1410188,14.9689969 20.4227313,14.7011426 20.7738184,14.576205 L21.9871067,14.1439623 C22.8941845,13.8210966 23.5,12.962387 23.5,11.9995208 C23.5,11.0366545 22.8941845,10.177945 21.9871067,9.85507932 Z M12,16.5850315 C10.1514948,16.558214 8.48844264,15.4557008 7.74390741,13.7634737 C6.77328449,11.4130507 7.88784297,8.7204053 10.2356527,7.74370298 C12.585864,6.80376554 15.2568287,7.90945601 16.2551342,10.2355679 C17.2257571,12.5859909 16.1111987,15.2786363 13.763389,16.2553386 C13.2044867,16.4852309 12.6042041,16.5974631 12,16.5850315 Z"/>
</svg>
