<svg xmlns="http://www.w3.org/2000/svg" width="24" height="24" viewBox="0 0 24 24">
  <path fill="currentColor" fill-rule="evenodd" d="M21.24,3 C22.2120212,3 23,3.79886044 23,4.78430473 L23,16.0849013 C23,17.0703456 22.2120212,17.8692061 21.24,17.8692061 L12.236,17.869 L12.236,20.107 L16.0740741,20.1078476 C16.3170794,20.1078476 16.5140741,20.3075627 16.5140741,20.5539238 C16.5140741,20.8002849 16.3170794,21 16.0740741,21 L7.92592593,21 C7.68292064,21 7.48592593,20.8002849 7.48592593,20.5539238 C7.48592593,20.3075627 7.68292064,20.1078476 7.92592593,20.1078476 L11.356,20.107 L11.356,17.869 L2.76,17.8692061 C1.78797884,17.8692061 1,17.0703456 1,16.0849013 L1,4.78430473 C1,3.79886044 1.78797884,3 2.76,3 L21.24,3 Z M21.24,3.89215236 L2.76,3.89215236 C2.27398942,3.89215236 1.88,4.29158258 1.88,4.78430473 L1.88,16.0849013 C1.88,16.5776235 2.27398942,16.9770537 2.76,16.9770537 L21.24,16.9770537 C21.7260106,16.9770537 22.12,16.5776235 22.12,16.0849013 L22.12,4.78430473 C22.12,4.29158258 21.7260106,3.89215236 21.24,3.89215236 Z M9.14814815,6.71730151 L15.6666667,10.5722809 L9.14814815,14.4272602 L9.14814815,6.71730151 Z"/>
</svg>
