<svg width="29" height="29" viewBox="0 0 29 29" fill="none" xmlns="http://www.w3.org/2000/svg">
    <path fill="currentColor" fill-rule="evenodd" clip-rule="evenodd" d="M21.24 8c.972 0 1.76.799 1.76 1.784v11.3c0 .986-.788 1.785-1.76 1.785h-9.004v2.238h3.838c.243 0 .44.2.44.447a.443.443 0 0 1-.44.446H7.926c-.243 0-.44-.2-.44-.446s.197-.446.44-.446l3.43-.001v-2.238H2.76c-.972 0-1.76-.799-1.76-1.784v-11.3C1 8.798 1.788 8 2.76 8h18.48zm0 .892H2.76c-.486 0-.88.4-.88.892v11.3c0 .494.394.893.88.893h18.48c.486 0 .88-.4.88-.892v-11.3a.886.886 0 0 0-.88-.893zM9.148 11.717l6.519 3.855-6.519 3.855v-7.71z" />
    <path fill="#fff" d="M17 8h8v7h-8z"/>
    <mask id="y3sx5oz1qa" maskUnits="userSpaceOnUse" x="14.478" y=".478" width="14" height="17" fill="#000">
        <path fill="#fff" d="M14.478.478h14v17h-14z"/>
        <path fill-rule="evenodd" clip-rule="evenodd" d="M24.683 5.04a3.67 3.67 0 0 0-7.337.107v1.935h-.534c-.737 0-1.334.597-1.334 1.334v6.538c0 .737.597 1.334 1.334 1.334h8.406c.737 0 1.334-.597 1.334-1.334V8.416c0-.737-.597-1.334-1.334-1.334h-.534V5.147l-.001-.106zM23 7.083h-4V5.04C19.05 3.5 20 3 21.015 3 22 3 23 3.562 23 5.147v1.935zm-1.587 3.623a.4.4 0 0 0-.798.046v1.868l.003.047a.4.4 0 0 0 .797-.047v-1.868l-.002-.046z"/>
    </mask>
    <path fill-rule="evenodd" clip-rule="evenodd" d="M24.683 5.04a3.67 3.67 0 0 0-7.337.107v1.935h-.534c-.737 0-1.334.597-1.334 1.334v6.538c0 .737.597 1.334 1.334 1.334h8.406c.737 0 1.334-.597 1.334-1.334V8.416c0-.737-.597-1.334-1.334-1.334h-.534V5.147l-.001-.106zM23 7.083h-4V5.04C19.05 3.5 20 3 21.015 3 22 3 23 3.562 23 5.147v1.935zm-1.587 3.623a.4.4 0 0 0-.798.046v1.868l.003.047a.4.4 0 0 0 .797-.047v-1.868l-.002-.046z" fill="#FA8DD5"/>
    <path d="m24.683 5.04 1-.014v-.014l-1 .029zm-7.337 2.042v1h1v-1h-1zm7.338 0h-1v1h1v-1zm0-1.935h1v-.014l-1 .014zM19 7.082h-1v1h1v-1zm4 0v1h1v-1h-1zm-4-2.041-1-.033v.033h1zm2.413 5.664.998-.058-.002-.029-.003-.029-.993.116zm-.798 1.914h-1v.03l.002.028.998-.058zm.003.047-.998.058.001.029.004.028.993-.115zm.797-1.915h1v-.028l-.001-.03-.999.058zm-.4-8.273a2.67 2.67 0 0 1 2.668 2.591l2-.057A4.67 4.67 0 0 0 21.015.478v2zm-2.669 2.669a2.67 2.67 0 0 1 2.67-2.67v-2a4.67 4.67 0 0 0-4.67 4.67h2zm0 1.935V5.147h-2v1.935h2zm-1.534 1h.534v-2h-.534v2zm-.334.334c0-.184.15-.334.334-.334v-2a2.334 2.334 0 0 0-2.334 2.334h2zm0 6.538V8.416h-2v6.538h2zm.334.335a.334.334 0 0 1-.334-.335h-2a2.334 2.334 0 0 0 2.334 2.334v-2zm8.406 0h-8.406v2h8.406v-2zm.334-.335c0 .185-.15.335-.334.335v2a2.334 2.334 0 0 0 2.334-2.335h-2zm0-6.538v6.538h2V8.416h-2zm-.334-.334c.185 0 .334.15.334.334h2a2.334 2.334 0 0 0-2.334-2.334v2zm-.534 0h.534v-2h-.534v2zm-1-2.935v1.935h2V5.147h-2zm-.001-.092.002.106 2-.028-.002-.107-2 .029zM19 8.082h4v-2h-4v2zM18 6.27v.812h2V6.27h-2zm0-1.23v1.23h2V5.04h-2zM21.015 2c-.657 0-1.41.161-2.02.684-.631.54-.962 1.343-.995 2.324l2 .066c.018-.56.187-.778.297-.872.131-.113.36-.202.718-.202V2zM24 5.147c0-1.014-.328-1.843-.951-2.408C22.446 2.19 21.686 2 21.015 2v2c.314 0 .547.09.69.22.123.112.295.356.295.927h2zm0 1.935V5.147h-2v1.935h2zm-2.985 4.27a.6.6 0 0 1-.596-.532l1.987-.23a1.4 1.4 0 0 0-1.39-1.239v2zm.6-.6a.6.6 0 0 1-.6.6v-2a1.4 1.4 0 0 0-1.4 1.4h2zm0 1.867v-1.868h-2v1.868h2zm.001-.01-.002-.047-1.997.115.003.047 1.996-.116zm-.6-.59a.6.6 0 0 1 .595.532l-1.986.23a1.4 1.4 0 0 0 1.39 1.238v-2zm-.6.6a.6.6 0 0 1 .6-.6v2a1.4 1.4 0 0 0 1.4-1.4h-2zm0-1.868v1.868h2v-1.868h-2zm-.002.011.003.047 1.997-.115-.003-.047-1.997.115z" fill="#fff" mask="url(#y3sx5oz1qa)"/>
</svg>
