<svg xmlns="http://www.w3.org/2000/svg" width="24" height="24" viewBox="0 0 24 24">
  <g fill="none" fill-rule="evenodd">
    <path fill="#DEDEDE" d="M7.30882353,17.1764706 L7.30882353,19.7647059 L4.72058824,19.7647059 L4.72058824,17.1764706 L7.30882353,17.1764706 Z M13.1323529,17.1764706 L13.1323529,19.7647059 L10.5441176,19.7647059 L10.5441176,17.1764706 L13.1323529,17.1764706 Z M18.9558824,17.1764706 L18.9558824,19.7647059 L16.3676471,19.7647059 L16.3676471,17.1764706 L18.9558824,17.1764706 Z M7.30882353,13.2941176 L7.30882353,15.8823529 L4.72058824,15.8823529 L4.72058824,13.2941176 L7.30882353,13.2941176 Z M13.1323529,13.2941176 L13.1323529,15.8823529 L10.5441176,15.8823529 L10.5441176,13.2941176 L13.1323529,13.2941176 Z M18.9558824,13.2941176 L18.9558824,15.8823529 L16.3676471,15.8823529 L16.3676471,13.2941176 L18.9558824,13.2941176 Z M7.30882353,9.41176471 L7.30882353,12 L4.72058824,12 L4.72058824,9.41176471 L7.30882353,9.41176471 Z M13.1323529,9.41176471 L13.1323529,12 L10.5441176,12 L10.5441176,9.41176471 L13.1323529,9.41176471 Z M18.9558824,9.41176471 L18.9558824,12 L16.3676471,12 L16.3676471,9.41176471 L18.9558824,9.41176471 Z"/>
    <path fill="currentColor" d="M17.9852941,1.16879795 C18.2494303,1.16879795 18.463555,1.38292264 18.463555,1.64705882 L18.462798,3.10979795 L21.0588235,3.10997442 C22.0382339,3.10997442 22.831202,3.90349058 22.831202,4.88235294 L22.831202,22.1841432 L1.16879795,22.1841432 L1.16879795,4.88235294 C1.16879795,3.90386382 1.96268734,3.10997442 2.94117647,3.10997442 L5.21279795,3.10979795 L5.2129156,1.64705882 C5.2129156,1.38292264 5.42704029,1.16879795 5.69117647,1.16879795 C5.95531266,1.16879795 6.16943734,1.38292264 6.16943734,1.64705882 L6.16879795,3.10979795 L17.506798,3.10979795 L17.5070332,1.64705882 C17.5070332,1.38292264 17.7211579,1.16879795 17.9852941,1.16879795 Z M21.7058824,7.9488491 L2.29411765,7.9488491 C2.23463809,7.9488491 2.17769454,7.93799119 2.12516096,7.91814934 L2.12516096,21.2276215 L21.874839,21.2276215 L21.874839,7.91814934 C21.8223055,7.93799119 21.7653619,7.9488491 21.7058824,7.9488491 Z M15.0517882,11.4299412 C15.8608993,11.4299412 16.5176401,12.0682807 16.6633373,12.9808356 L16.6875192,13.1793557 C16.6942792,13.2576667 16.7012131,13.4660196 16.6267294,13.7800588 C16.4934353,14.343 16.1867294,14.8554706 15.7376706,15.2605294 L13.4367294,17.3142941 L11.1746118,15.2618235 C10.7255529,14.8554706 10.4175529,14.343 10.2842588,13.7800588 C10.2107817,13.4660196 10.2179393,13.2576667 10.2247489,13.1799646 L10.2312,13.133 C10.3179059,12.1455882 11.0037882,11.4299412 11.8592,11.4299412 C12.4907294,11.4299412 13.0472,11.8168824 13.3112,12.4432353 L13.4367294,12.737 L13.5609647,12.4432353 C13.8197882,11.8272353 14.4060235,11.4299412 15.0517882,11.4299412 Z M5.21279795,4.06579795 L2.94117647,4.06649616 C2.49095971,4.06649616 2.12516096,4.43213618 2.12516096,4.88235294 L2.12516096,7.02302713 C2.17769454,7.00318528 2.23463809,6.99232737 2.29411765,6.99232737 L21.7058824,6.99232737 C21.7653619,6.99232737 21.8223055,7.00318528 21.874839,7.02302713 L21.874839,4.88235294 C21.874839,4.43161508 21.5098135,4.06649616 21.0588235,4.06649616 L18.462798,4.06579795 L18.463555,5.52941176 C18.463555,5.79354795 18.2494303,6.00767263 17.9852941,6.00767263 C17.7211579,6.00767263 17.5070332,5.79354795 17.5070332,5.52941176 L17.506798,4.06579795 L6.16879795,4.06579795 L6.16943734,5.52941176 C6.16943734,5.79354795 5.95531266,6.00767263 5.69117647,6.00767263 C5.42704029,6.00767263 5.2129156,5.79354795 5.2129156,5.52941176 L5.21279795,4.06579795 Z"/>
  </g>
</svg>
