<svg xmlns="http://www.w3.org/2000/svg" width="24" height="24" viewBox="0 0 24 24">
  <path fill="currentColor" fill-rule="evenodd" d="M7,22 L7,9.5 C7,9.22385763 6.77614237,9 6.5,9 L2.5,9 C2.22385763,9 2,9.22385763 2,9.5 L2,22 L7,22 Z M2.5,8 L6.5,8 C7.32842712,8 8,8.67157288 8,9.5 L8,23 L1,23 L1,9.5 C1,8.67157288 1.67157288,8 2.5,8 Z M14.5,22 L14.5,4.5 C14.5,4.22385763 14.2761424,4 14,4 L10,4 C9.72385763,4 9.5,4.22385763 9.5,4.5 L9.5,22 L14.5,22 Z M10,3 L14,3 C14.8284271,3 15.5,3.67157288 15.5,4.5 L15.5,23 L8.5,23 L8.5,4.5 C8.5,3.67157288 9.17157288,3 10,3 Z M22,22 L22,13.5 C22,13.2238576 21.7761424,13 21.5,13 L17.5,13 C17.2238576,13 17,13.2238576 17,13.5 L17,22 L22,22 Z M17.5,12 L21.5,12 C22.3284271,12 23,12.6715729 23,13.5 L23,23 L16,23 L16,13.5 C16,12.6715729 16.6715729,12 17.5,12 Z"/>
</svg>
