<svg width="30" height="29" viewBox="0 0 30 29" fill="none" xmlns="http://www.w3.org/2000/svg">
    <path fill="currentColor" fill-rule="evenodd" clip-rule="evenodd" d="M16.809 6c1.072 0 1.945.873 1.945 1.945v8.416c0 .7-.376 1.334-.961 1.678l.23 8.225a1.487 1.487 0 0 1-2.43 1.183 1.478 1.478 0 0 1-.537-1.183l.257-9.145V7.496c0-.825.67-1.496 1.496-1.496zm-5.765.016c.326 0 .59.265.59.591v5.554l-.09-.001v.313c0 .867-.525 1.646-1.331 2.057l.373 11.247c.018.556-.22 1.382-.629 1.682-.296.214-.664.33-1.04.33-.375 0-.743-.116-1.041-.332-.407-.298-.645-1.124-.626-1.68l.372-11.247c-.806-.411-1.331-1.19-1.331-2.056v-.314H6.2V6.608a.591.591 0 0 1 1.18 0v4.462h.946V6.607a.591.591 0 0 1 1.182 0v4.462h.943l.001-4.462c0-.326.265-.59.59-.59zM16.809 7a.497.497 0 0 0-.497.496v9.637l-.256 9.158a.486.486 0 0 0 .793.386.477.477 0 0 0 .174-.385l-.25-8.918.346-.12a.947.947 0 0 0 .635-.893V7.945A.948.948 0 0 0 16.81 7zm-8.482 5.069h-.946v.092l-.09-.001v.313c0 .542.394 1.047 1.007 1.26l.347.122L8.25 25.81c-.009.259.143.785.215.837a.78.78 0 0 0 .453.14.783.783 0 0 0 .452-.138c.074-.054.226-.58.217-.84L9.19 13.855l.347-.121c.613-.214 1.007-.72 1.007-1.26v-.314h-.091v-.091h-.945v.092h-1.18v-.092z"/>
    <path fill="#fff" d="M17.2 8h8v7h-8z"/>
    <mask id="rcwdh3j92a" maskUnits="userSpaceOnUse" x="14.678" y=".478" width="14" height="17" fill="#000">
        <path fill="#fff" d="M14.678.478h14v17h-14z"/>
        <path fill-rule="evenodd" clip-rule="evenodd" d="M24.883 5.04a3.67 3.67 0 0 0-7.337.107v1.935h-.534c-.737 0-1.334.597-1.334 1.334v6.538c0 .737.597 1.334 1.334 1.334h8.407c.736 0 1.334-.597 1.334-1.334V8.416c0-.737-.598-1.334-1.334-1.334h-.535V5.147l-.001-.106zM23.2 7.083h-4V5.04C19.251 3.5 20.2 3 21.215 3c.985 0 1.985.562 1.985 2.147v1.935zm-1.587 3.623a.4.4 0 0 0-.798.046v1.868l.003.047a.4.4 0 0 0 .797-.047v-1.868l-.002-.046z"/>
    </mask>
    <path fill-rule="evenodd" clip-rule="evenodd" d="M24.883 5.04a3.67 3.67 0 0 0-7.337.107v1.935h-.534c-.737 0-1.334.597-1.334 1.334v6.538c0 .737.597 1.334 1.334 1.334h8.407c.736 0 1.334-.597 1.334-1.334V8.416c0-.737-.598-1.334-1.334-1.334h-.535V5.147l-.001-.106zM23.2 7.083h-4V5.04C19.251 3.5 20.2 3 21.215 3c.985 0 1.985.562 1.985 2.147v1.935zm-1.587 3.623a.4.4 0 0 0-.798.046v1.868l.003.047a.4.4 0 0 0 .797-.047v-1.868l-.002-.046z" fill="#FA8DD5"/>
    <path d="m24.883 5.04 1-.014v-.014l-1 .029zm-7.337 2.042v1h1v-1h-1zm7.338 0h-1v1h1v-1zm0-1.935h1v-.014l-1 .014zM19.2 7.082h-1v1h1v-1zm4 0v1h1v-1h-1zm-4-2.041-1-.033v.033h1zm2.413 5.664.998-.058-.002-.029-.003-.029-.993.116zm-.798 1.914h-1v.03l.002.028.998-.058zm.003.047-.998.058.001.029.004.028.993-.115zm.797-1.915h1v-.028l-.001-.03-.999.058zm-.4-8.273a2.67 2.67 0 0 1 2.668 2.591l2-.057A4.67 4.67 0 0 0 21.215.478v2zm-2.669 2.669a2.67 2.67 0 0 1 2.67-2.67v-2a4.67 4.67 0 0 0-4.67 4.67h2zm0 1.935V5.147h-2v1.935h2zm-1.534 1h.534v-2h-.534v2zm-.334.334c0-.184.15-.334.334-.334v-2a2.334 2.334 0 0 0-2.334 2.334h2zm0 6.538V8.416h-2v6.538h2zm.334.335a.334.334 0 0 1-.334-.335h-2a2.334 2.334 0 0 0 2.334 2.334v-2zm8.407 0h-8.407v2h8.407v-2zm.334-.335c0 .185-.15.335-.334.335v2a2.334 2.334 0 0 0 2.334-2.335h-2zm0-6.538v6.538h2V8.416h-2zm-.334-.334c.184 0 .334.15.334.334h2a2.334 2.334 0 0 0-2.334-2.334v2zm-.535 0h.535v-2h-.535v2zm-1-2.935v1.935h2V5.147h-2zm0-.092v.106l2-.028-.001-.107-2 .029zM19.2 8.082h4v-2h-4v2zm-1-1.812v.812h2V6.27h-2zm0-1.23v1.23h2V5.04h-2zM21.215 2c-.657 0-1.41.161-2.02.684-.631.54-.962 1.343-.994 2.324l1.998.066c.019-.56.188-.778.298-.872.132-.113.36-.202.718-.202V2zM24.2 5.147c0-1.014-.328-1.843-.95-2.408C22.645 2.19 21.885 2 21.214 2v2c.315 0 .547.09.69.22.123.112.295.356.295.927h2zm0 1.935V5.147h-2v1.935h2zm-2.985 4.27a.6.6 0 0 1-.596-.532l1.987-.23a1.4 1.4 0 0 0-1.39-1.239v2zm.6-.6a.6.6 0 0 1-.6.6v-2a1.4 1.4 0 0 0-1.4 1.4h2zm0 1.867v-1.868h-2v1.868h2zm.001-.01-.002-.047-1.997.115.003.047 1.996-.116zm-.6-.59a.6.6 0 0 1 .595.532l-1.986.23a1.4 1.4 0 0 0 1.39 1.238v-2zm-.6.6a.6.6 0 0 1 .6-.6v2a1.4 1.4 0 0 0 1.4-1.4h-2zm0-1.868v1.868h2v-1.868h-2zm-.002.011.003.047 1.997-.115-.003-.047-1.997.115z" fill="#fff" mask="url(#rcwdh3j92a)"/>
</svg>
