<svg xmlns="http://www.w3.org/2000/svg" width="24" height="24" viewBox="0 0 24 24">
  <path fill="currentColor" fill-rule="evenodd" d="M16.6087091,1 C17.6813969,1 18.5540727,1.87267581 18.5540727,2.94536364 L18.5540727,11.3610909 C18.5540727,12.0616677 18.1782108,12.695434 17.5927321,13.039077 L17.8223433,21.2641664 C17.8347825,21.7226392 17.6393076,22.1556474 17.2865553,22.4478257 C17.0196671,22.6684533 16.6848385,22.7893636 16.3392545,22.7893636 C15.9946187,22.7893636 15.6598439,22.6683046 15.3927661,22.4475199 C15.0402044,22.1554991 14.843733,21.7224017 14.8561777,21.2637328 L15.1124364,12.1186364 L15.1124364,2.49627273 C15.1124364,1.6705849 15.7830213,1 16.6087091,1 Z M10.8438,1.0164 C11.1699818,1.0164 11.4347091,1.28112727 11.4347091,1.60730909 L11.4347091,7.16067273 L11.344,7.16 L11.3442727,7.4735 C11.3442727,8.34041238 10.8192399,9.11877456 10.0127542,9.53043623 L10.3855365,20.7769911 C10.4042189,21.3333112 10.1659744,22.1593555 9.75690504,22.4587494 C9.46116648,22.6726168 9.09247895,22.7887727 8.717,22.7887727 C8.34168955,22.7887727 7.97413386,22.6727025 7.67596319,22.4570662 C7.2692074,22.1593555 7.03096295,21.3333112 7.04963808,20.7772086 L7.42242758,9.53043623 C6.61594195,9.11877456 6.09090909,8.34041238 6.09090909,7.4735 L6.09,7.16 L6,7.16067273 L6,1.60730909 C6,1.28112727 6.26472727,1.0164 6.59090909,1.0164 C6.91709091,1.0164 7.18181818,1.28112727 7.18181818,1.60730909 L7.181,6.069 L8.127,6.069 L8.12703636,1.60730909 C8.12703636,1.28112727 8.39176364,1.0164 8.71794545,1.0164 C9.04412727,1.0164 9.30885455,1.28112727 9.30885455,1.60730909 L9.308,6.069 L10.252,6.069 L10.2528909,1.60730909 C10.2528909,1.28112727 10.5176182,1.0164 10.8438,1.0164 Z M16.6087091,2 C16.335306,2 16.1124364,2.22286965 16.1124364,2.49627273 L16.1122405,12.1326309 L15.8557979,21.2912882 C15.8516997,21.4423339 15.9148001,21.5814309 16.0302826,21.6770834 C16.1181621,21.7497305 16.2277631,21.7893636 16.3392545,21.7893636 C16.4518524,21.7893636 16.5614691,21.7497799 16.6490388,21.6773892 C16.7641894,21.5820119 16.826834,21.443244 16.822722,21.2916798 L16.5737852,12.3743218 L16.9192754,12.2539345 C17.2973945,12.1221775 17.5540727,11.7638929 17.5540727,11.3610909 L17.5540727,2.94536364 C17.5540727,2.42496056 17.1291122,2 16.6087091,2 Z M8.127,7.069 L7.181,7.069 L7.18181818,7.16067273 L7.09,7.16 L7.09090909,7.4735 C7.09090909,8.01489031 7.48477627,8.52044379 8.09782291,8.73383465 L8.44537131,8.8548102 L8.04908194,20.8105543 C8.0403845,21.0695447 8.19210962,21.595608 8.26426867,21.6484325 C8.38753866,21.7375769 8.54965894,21.7887727 8.717,21.7887727 C8.88473283,21.7887727 9.0479603,21.7373475 9.16859955,21.6501157 C9.2430722,21.595608 9.39479732,21.0695447 9.38609263,20.8103368 L8.98981051,8.8548102 L9.33735891,8.73383465 C9.95040555,8.52044379 10.3442727,8.01489031 10.3442727,7.4735 L10.344,7.16 L10.2528909,7.16067273 L10.252,7.069 L9.308,7.069 L9.30885455,7.16067273 L8.12703636,7.16067273 L8.127,7.069 Z"/>
</svg>
