<svg xmlns="http://www.w3.org/2000/svg" width="24" height="24" viewBox="0 0 24 24">
  <path fill="currentColor" fill-rule="evenodd" d="M19.1565443,17.7882157 C18.3655313,17.4103041 14.6789153,16.3832586 13.2923619,16.0040616 L13.2923619,14.2790365 C13.8214415,14.0592308 14.3036076,13.7301649 14.7167067,13.2879827 L17.2018168,13.2879827 C16.4382199,10.7150498 16.5463316,8.4638254 16.5463316,8.30443412 C16.5463316,5.37497651 15.7865942,2.99953217 11.9879071,2.99953217 C8.18922011,2.99953217 7.4294827,5.37497651 7.4294827,8.30443412 C7.4294827,8.4638254 7.53943551,10.7176105 6.77660373,13.2879827 L9.25780445,13.2879827 C9.67090352,13.7301649 10.1543728,14.0592308 10.6860586,14.280322 L10.6860586,15.9063702 C9.88722669,16.1505988 5.94910244,17.3678854 5.07077823,17.7882157 C4.11687123,18.2432521 3.39231892,20.4567343 4.82187627,21.0004643 C4.82448257,21.0004643 11.900596,20.9811831 11.900596,20.9811831 L19.1565443,21.0004643 C20.408873,20.5312883 20.1052387,18.2419667 19.1565443,17.7882157 Z M9.67273345,14.8935554 C9.37678638,14.7207346 9.0988547,14.5183662 8.84137128,14.2875148 L6.77660373,14.2875148 C6.10063637,14.2875148 5.61418041,13.6470766 5.80409236,13.0071657 C6.08671382,12.0548688 6.2633136,11.078677 6.35354017,10.1148468 C6.41455152,9.46310339 6.42875294,8.92879562 6.41911353,8.45411498 C6.41718305,8.37219553 6.41718305,8.37219553 6.4161575,8.30443412 C6.4161575,4.24684036 7.97195463,2 11.9879071,2 C16.0038596,2 17.5596568,4.24684036 17.5596568,8.30443412 C17.558676,8.37083363 17.558676,8.37083363 17.5568292,8.45083389 C17.5474132,8.92401736 17.561787,9.45722034 17.6230254,10.1089601 C17.7137,11.0739786 17.8908964,12.0521446 18.1743277,13.007164 C18.364241,13.6470752 17.877785,14.2875148 17.2018168,14.2875148 L15.1332926,14.2875148 C14.8766378,14.5178207 14.5999485,14.7196821 14.3056871,14.8919191 L14.3056871,15.2451186 C16.8676671,15.9540843 18.9418884,16.5750593 19.5982626,16.8886463 C21.386157,17.7437781 21.574901,21.1636437 19.5163404,21.9348686 C19.4005491,21.978249 19.2776759,22.000322 19.1538144,22 L11.9033952,21.9807114 C11.0188809,21.9831216 11.0188809,21.9831216 8.3650122,21.990352 C5.71095712,21.9975827 5.71095712,21.9975827 4.82187627,22 C4.69721337,22 4.57362057,21.9773065 4.4573053,21.9330661 C2.20599903,21.0767852 2.80095308,17.7606967 4.628459,16.8889337 C5.07765687,16.6739658 6.10152685,16.3151507 7.59164945,15.8317537 C8.28454985,15.6069762 9.02532297,15.3728623 9.67273345,15.1716447 L9.67273345,14.8935554 Z"/>
</svg>
