<svg xmlns="http://www.w3.org/2000/svg" width="24" height="24" viewBox="0 0 24 24">
  <path fill="currentColor" fill-rule="evenodd" d="M18.7987715,2.00009692 L21.7607765,2.03412882 C22.4100415,2.04055906 22.9374783,2.55193315 22.9948289,3.19845921 L22.999928,3.32945688 L22.9354668,9.15535136 C22.9309803,9.62404533 22.679903,10.0326755 22.3088282,10.2518274 C22.1586269,10.340452 21.9883182,10.3983819 21.8068393,10.4165181 L21.6687753,10.4225168 L18.7061438,10.3873753 C18.0578961,10.3803444 17.5301198,9.8704711 17.4727228,9.22413499 L17.4676188,9.09315682 L17.474,8.441 L6.477,8.312 L6.46854639,9.15535136 C6.46450851,9.57717593 6.26073209,9.95034883 5.94950324,10.1805261 L5.84190716,10.2518263 C5.69170627,10.3404518 5.52099678,10.3976717 5.33967827,10.416092 L5.20185487,10.4225168 L2.23922332,10.3873753 C1.59097569,10.3803444 1.06264869,9.86949584 1.00518288,9.22303782 L1.00007185,9.09204719 L1.06453302,3.26615271 C1.07010465,2.79681809 1.32072336,2.3899382 1.6917981,2.1707863 C1.84199949,2.08216172 2.01230814,2.02423182 2.19378705,2.0060956 L2.33185102,2.00009692 L5.29385609,2.03412882 C5.943121,2.04055906 6.47055788,2.55193315 6.52790845,3.19845921 L6.53300756,3.32945688 L6.524,4.119 L17.521,4.248 L17.53208,3.26726234 C17.5365306,2.84386252 17.7399768,2.47194982 18.051135,2.24203955 L18.1587186,2.1707863 C18.3089199,2.08216172 18.4792286,2.02423182 18.6607075,2.0060956 L18.7987715,2.00009692 Z M21.7478623,3.31561005 L18.7841457,3.28110917 L18.7207696,9.106363 L21.6834011,9.14150453 L21.7478623,3.31561005 Z M5.28031538,3.31450042 L2.31722521,3.28110917 L2.25384913,9.106363 L5.2158542,9.1403949 L5.28031538,3.31450042 Z M6.51,5.4 L6.492,7.032 L17.4617689,7.1603554 L17.4796886,5.52953003 L6.51,5.4 Z M18.7987715,13.5774832 L21.7607765,13.6115151 C22.4100415,13.6179454 22.9374783,14.1293195 22.9948289,14.7758455 L22.999928,14.9068432 L22.9354668,20.7327377 C22.9309803,21.2014316 22.679903,21.6100618 22.3088282,21.8292137 C22.1586269,21.9178383 21.9883182,21.9757682 21.8068393,21.9939044 L21.6687753,21.9999031 L18.7061438,21.9647616 C18.0578961,21.9577307 17.5301198,21.4478574 17.4727228,20.8015213 L17.4676188,20.6705431 L17.474,20.019 L6.477,19.89 L6.46854639,20.7327377 C6.46450851,21.1545622 6.26073209,21.5277351 5.94950324,21.7579124 L5.84190716,21.8292126 C5.69170627,21.9178381 5.52099678,21.975058 5.33967827,21.9934783 L5.20185487,21.9999031 L2.23922332,21.9647616 C1.59097569,21.9577307 1.06264869,21.4468821 1.00518288,20.8004241 L1.00007185,20.6694335 L1.06453302,14.843539 C1.07010465,14.3742044 1.32072336,13.9673245 1.6917981,13.7481726 C1.84199949,13.659548 2.01230814,13.6016181 2.19378705,13.5834819 L2.33185102,13.5774832 L5.29385609,13.6115151 C5.943121,13.6179454 6.47055788,14.1293195 6.52790845,14.7758455 L6.53300756,14.9068432 L6.524,15.696 L17.521,15.825 L17.53208,14.8446486 C17.5365306,14.4212488 17.7399768,14.0493361 18.051135,13.8194259 L18.1587186,13.7481726 C18.3089199,13.659548 18.4792286,13.6016181 18.6607075,13.5834819 L18.7987715,13.5774832 Z M21.7478623,14.8929964 L18.7841457,14.8584955 L18.7207696,20.6837493 L21.6834011,20.7188908 L21.7478623,14.8929964 Z M5.28031538,14.8918867 L2.31722521,14.8584955 L2.25384913,20.6837493 L5.2158542,20.7177812 L5.28031538,14.8918867 Z M6.51,16.977 L6.492,18.609 L17.4617689,18.7377417 L17.4796886,17.1069163 L6.51,16.977 Z"/>
</svg>
