<svg xmlns="http://www.w3.org/2000/svg" width="56" height="56" viewBox="0 0 56 56">
  <path fill="currentColor" fill-rule="evenodd" d="M28,0 C12.536027,0 0,12.536027 0,28 C0,43.463973 12.536027,56 28,56 C43.463973,56 56,43.463973 56,28 C55.9830254,12.5430636 43.4569364,0.0169746373 28,0 Z M9.6544,14.3836 C9.76906825,13.5650368 10.5125506,12.9851206 11.3344,13.0732 L11.354,13.0732 C11.916216,13.1019833 12.4792921,13.0366854 13.02,12.88 C13.5715546,12.7392276 14.0932252,12.5002077 14.56,12.1744 C15.2194625,11.6712619 16.1607167,11.7908137 16.6734582,12.4428373 C17.1861998,13.0948609 17.0804449,14.0377649 16.436,14.56 C15.657081,15.1363256 14.7750941,15.5583107 13.8376,15.8032 C13.1005521,16.0127312 12.3386289,16.121981 11.5724,16.128 C11.3694477,16.1292107 11.1665896,16.1189276 10.9648,16.0972 L10.9648,16.0972 C10.5635401,16.0442837 10.1998382,15.8338464 9.95398251,15.5123428 C9.70812677,15.1908391 9.6003341,14.7847066 9.6544,14.3836 L9.6544,14.3836 Z M14.3304,24.5504 C12.891623,24.5504 11.5946235,23.6833995 11.044552,22.3539257 C10.4944805,21.0244519 10.7997446,19.4945145 11.8179149,18.4779476 C12.8360853,17.4613807 14.3665019,17.1585282 15.6951071,17.7106944 C17.0237122,18.2628605 17.8886658,19.5612248 17.8864044,21 C17.8817717,22.9610973 16.2915022,24.5488625 14.3304,24.5504 L14.3304,24.5504 Z M39.2,33.4656 C39.1593278,33.8750375 38.9579394,34.2516337 38.64,34.5128 C38.3260381,34.7680685 37.921596,34.8843456 37.52,34.8348 C37.4892,34.8348 33.7036,34.5128 28.3668,36.26 C23.0832,37.9932 20.0816,40.5384 20.0536,40.5636 C19.4226699,41.1133442 18.4655443,41.04753 17.9158,40.4166 C17.3660558,39.7856699 17.4318699,38.8285442 18.0628,38.2788 C18.1972,38.1584 21.476,35.3276 27.4232,33.3788 C33.2304,31.4776 37.3604,31.7772 37.8112,31.8164 C38.2144972,31.8498529 38.5878175,32.0427063 38.8484878,32.3522523 C39.1091582,32.6617983 39.2356675,33.0624926 39.2,33.4656 L39.2,33.4656 Z M41.6724,24.5504011 C40.2333688,24.5515313 38.9355097,23.6852512 38.3845556,22.3558673 C37.8336014,21.0264833 38.1381739,19.4960864 39.156124,18.4789385 C40.1740741,17.4617906 41.7047107,17.1584246 43.0336599,17.7104266 C44.3626091,18.2624286 45.2278657,19.5609701 45.2256044,21 C45.2209717,22.9610973 43.6307022,24.5488625 41.6696,24.5504011 L41.6724,24.5504011 Z M44.3268,16.0832 C44.1240545,16.1046826 43.9202782,16.1149649 43.7164,16.114 C42.9464018,16.1091956 42.1806161,15.9999322 41.44,15.7892 C40.5006674,15.5455732 39.6173606,15.1224607 38.8388,14.5432 C38.191661,14.0142566 38.0940194,13.0616253 38.6204,12.4124 C39.1472035,11.7676541 40.0945969,11.6665489 40.7456,12.1856 C41.2130167,12.504138 41.7321948,12.7390946 42.28,12.88 C42.8244759,13.04234 43.392482,13.1114474 43.96,13.0844 C44.3523055,13.0365236 44.7474755,13.1474131 45.0576,13.3924 C45.5428636,13.7665027 45.7549665,14.3961006 45.5949926,14.987575 C45.4350187,15.5790494 44.9344772,16.015901 44.3268,16.0944 L44.3268,16.0832 Z"/>
</svg>
