<svg xmlns="http://www.w3.org/2000/svg" width="56" height="56" viewBox="0 0 56 56">
  <path fill="currentColor" fill-rule="evenodd" d="M28,0 C12.536027,0 0,12.536027 0,28 C0,43.463973 12.536027,56 28,56 C43.463973,56 56,43.463973 56,28 C55.9830254,12.5430636 43.4569364,0.0169746373 28,0 Z M37.3716,21.4396 C38.369462,20.0611832 39.9679063,19.2450035 41.6696,19.2450035 C43.3712937,19.2450035 44.969738,20.0611832 45.9676,21.4396 C46.4214725,22.1405485 46.2237751,23.076483 45.5252,23.534 C45.2759793,23.6979386 44.9834879,23.7837361 44.6852,23.7804 C44.1742329,23.7811686 43.6973122,23.5242842 43.4168,23.0972 C42.9786501,22.5727536 42.3294281,22.2710473 41.6460477,22.2742963 C40.9626673,22.2775454 40.3163434,22.5854112 39.8832,23.114 C39.4128788,23.7904583 38.4899248,23.9703351 37.8,23.52 L37.8,23.52 C37.1148371,23.0586731 36.9244463,22.1340957 37.3716,21.4396 L37.3716,21.4396 Z M10.0352,21.4396 C11.033062,20.0611832 12.6315063,19.2450035 14.3332,19.2450035 C16.0348937,19.2450035 17.633338,20.0611832 18.6312,21.4396 C19.0910331,22.1387625 18.8981339,23.0782067 18.2,23.5396 C17.8636281,23.7595108 17.4536551,23.8367427 17.0603242,23.7542955 C16.6669932,23.6718482 16.3225452,23.43648 16.1028,23.1 C15.6636876,22.5768093 15.0144305,22.2762907 14.3313977,22.2800794 C13.648365,22.283868 13.0024815,22.5915704 12.5692,23.1196 C12.0964117,23.7919343 11.1737195,23.9645688 10.4898358,23.5086463 C9.80595208,23.0527239 9.61042539,22.1346101 10.0492,21.4396 L10.0352,21.4396 Z M27.9216,39.6872 C14.3444,39.6872 5.908,32.1272 5.5552,31.794 C5.15506254,31.4283744 4.98037922,30.8770516 5.09695155,30.3477096 C5.21352388,29.8183676 5.60364176,29.391426 6.12035155,29.2277096 C6.63706134,29.0639932 7.20186254,29.1883744 7.602,29.554 C7.6776,29.6212 15.6212,36.652 27.9216,36.652 C40.3172,36.652 48.328,29.652 48.4064,29.5708 C49.0331112,29.0436655 49.9650164,29.1088324 50.5122633,29.7180603 C51.0595102,30.3272882 51.0246994,31.2608203 50.4336,31.8276 C50.0724,32.1524 41.4848,39.6872 27.9216,39.6872 Z"/>
</svg>
