<svg xmlns="http://www.w3.org/2000/svg" width="56" height="56" viewBox="0 0 56 56">
  <path fill="currentColor" fill-rule="evenodd" d="M28,0 C12.536027,0 0,12.536027 0,28 C0,43.463973 12.536027,56 28,56 C43.463973,56 56,43.463973 56,28 C55.9830254,12.5430636 43.4569364,0.0169746373 28,0 Z M38.64,15.2124 C39.1660207,14.5662092 40.1146571,14.4649713 40.7652,14.9856 C41.226646,15.3020983 41.7390296,15.5369803 42.28,15.68 C42.8244759,15.84234 43.392482,15.9114474 43.96,15.8844 C44.3522814,15.8368396 44.7473317,15.9476956 45.0576,16.1924 C45.5428636,16.5665027 45.7549665,17.1961006 45.5949926,17.787575 C45.4350187,18.3790494 44.9344772,18.815901 44.3268,18.8944 C44.1240545,18.9158826 43.9202782,18.9261649 43.7164,18.9252 C42.9458894,18.9167529 42.1800938,18.8037204 41.44,18.5892 C40.5006674,18.3455732 39.6173606,17.9224607 38.8388,17.3432 C38.191661,16.8142566 38.0940194,15.8616253 38.6204,15.2124 L38.64,15.2124 Z M9.6628,17.1724 C9.7760969,16.3530456 10.520517,15.7723979 11.3428,15.862 L11.3624,15.862 C11.9211979,15.8934825 12.4813458,15.8319798 13.02,15.68 C13.5715546,15.5392276 14.0932252,15.3002077 14.56,14.9744 C15.2194625,14.4712619 16.1607167,14.5908137 16.6734582,15.2428373 C17.1861998,15.8948609 17.0804449,16.8377649 16.436,17.36 C15.657081,17.9363256 14.7750941,18.3583107 13.8376,18.6032 C13.1005521,18.8127312 12.3386289,18.921981 11.5724,18.928 C11.3694477,18.9292107 11.1665896,18.9189276 10.9648,18.8972 L10.9648,18.8972 C10.5635401,18.8442837 10.1998382,18.6338464 9.95398251,18.3123428 C9.70812677,17.9908391 9.6003341,17.5847066 9.6544,17.1836 L9.6628,17.1724 Z M14.3388,26.7792 C12.8982472,26.7825868 11.5979707,25.9165262 11.0459178,24.5859468 C10.4938649,23.2553674 10.799116,21.7231789 11.8189501,20.7057595 C12.8387842,19.6883401 14.3716921,19.3867221 15.7009591,19.9419277 C17.030226,20.4971333 17.8932018,21.7994593 17.8864399,23.24 C17.8817717,25.2010973 16.2915022,26.7888625 14.3304,26.7904 L14.3388,26.7792 Z M42,36.2656 C41.9593278,36.6750375 41.7579394,37.0516337 41.44,37.3128 C41.1260381,37.5680685 40.721596,37.6843456 40.32,37.6348 C40.2892,37.6348 36.5036,37.3128 31.1668,39.06 C25.8832,40.7932 22.8816,43.3384 22.8536,43.3636 C22.2226699,43.9133442 21.2655443,43.84753 20.7158,43.2166 C20.1660558,42.5856699 20.2318699,41.6285442 20.8628,41.0788 C20.9972,40.9584 24.276,38.1276 30.2232,36.1788 C36.0304,34.2776 40.1604,34.5772 40.6112,34.6164 C41.0144972,34.6498529 41.3878175,34.8427063 41.6484878,35.1522523 C41.9091582,35.4617983 42.0356675,35.8624926 42,36.2656 Z M38.1136,23.24 C38.1136,21.2760754 39.7056754,19.684 41.6696,19.684 C43.6335246,19.684 45.2256,21.2760754 45.2256,23.24 C45.2256,25.2039246 43.6335246,26.796 41.6696,26.796 C39.7063154,26.7944559 38.1151441,25.2032846 38.1136,23.24 Z M11.5136,36.5736 C9.954,36.5736 8.6856,35.4872 8.6856,34.146 C8.6856,32.7096 9.3464,31.6876 10.0716,30.4192 C10.6764,29.3608 11.0656,28.4928 11.5136,28.4928 C11.9616,28.4928 12.3368,29.3328 12.936,30.38 C13.6696,31.654 14.336,32.676 14.336,34.146 C14.3304,35.4816 13.0648,36.568 11.5024,36.568 L11.5136,36.5736 Z"/>
</svg>
