<svg xmlns="http://www.w3.org/2000/svg" width="56" height="56" viewBox="0 0 56 56">
  <path fill="currentColor" fill-rule="evenodd" d="M28,0 C12.536027,0 0,12.536027 0,28 C0,43.463973 12.536027,56 28,56 C43.463973,56 56,43.463973 56,28 C55.9830254,12.5430636 43.4569364,0.0169746373 28,0 Z M14.4004,30.24 C12.9621323,30.24 11.6654856,29.3736084 11.1150844,28.0448223 C10.5646831,26.7160362 10.8689194,25.1865372 11.8859283,24.1695283 C12.9029372,23.1525194 14.4324362,22.8482831 15.7612223,23.3986844 C17.0900084,23.9490856 17.9564,25.2457323 17.9564,26.684 C17.9548559,28.6472846 16.3636846,30.2384559 14.4004,30.24 Z M18.5668,18.6228 C18.4535031,19.4421544 17.709083,20.0228021 16.8868,19.9332 L16.87,19.9332 C16.3089906,19.9078302 15.7477068,19.9769259 15.2096,20.1376 C14.6679822,20.2784891 14.1546321,20.5114856 13.692,20.8264 L13.692,20.8264 C13.42346,21.0370064 13.0924708,21.1522615 12.7512,21.154 C12.1105598,21.1530474 11.5395196,20.7499041 11.3241681,20.1465431 C11.1088166,19.5431822 11.2955437,18.8695766 11.7908,18.4632 C12.5680211,17.8817239 13.4517808,17.4583945 14.392,17.2172 C15.322265,16.9427655 16.2962335,16.8477442 17.262,16.9372 L17.262,16.9372 C18.0855584,17.046223 18.6676547,17.7982014 18.5668,18.6228 Z M33.0988,38.8164 L23.0356,38.8164 C22.2235496,38.7814953 21.5831715,38.1130002 21.5831715,37.3002 C21.5831715,36.4873998 22.2235496,35.8189047 23.0356,35.784 L33.0988,35.784 C33.656029,35.7600484 34.1814927,36.0436818 34.467252,36.5226593 C34.7530113,37.0016368 34.7530113,37.5987632 34.467252,38.0777407 C34.1814927,38.5567182 33.656029,38.8403516 33.0988,38.8164 L33.0988,38.8164 Z M37.5788,18.6116 C37.4812536,17.7890441 38.0624924,17.040668 38.8836,16.9316 C39.8502914,16.8419913 40.8252054,16.9370122 41.7564,17.2116 C42.6968945,17.4520374 43.5807964,17.8754349 44.3576,18.4576 C44.8605443,18.8610265 45.0530065,19.5386028 44.8372322,20.1461778 C44.6214579,20.7537528 44.0447392,21.158162 43.4,21.1540318 C43.0564032,21.1531418 42.7230751,21.0367728 42.4536,20.8236 C41.9912243,20.5106821 41.4789833,20.2787061 40.9388,20.1376 C40.3942257,19.975733 39.8263001,19.9066353 39.2588,19.9332 L39.2588,19.9332 C38.8594482,19.982975 38.4567302,19.8714902 38.1398274,19.6234336 C37.8229247,19.3753771 37.6179878,19.0112183 37.5704,18.6116 L37.5788,18.6116 Z M41.7368,30.24 C40.2985323,30.24 39.0018856,29.3736084 38.4514844,28.0448223 C37.9010831,26.7160362 38.2053194,25.1865372 39.2223283,24.1695283 C40.2393372,23.1525194 41.7688362,22.8482831 43.0976223,23.3986844 C44.4264084,23.9490856 45.2928,25.2457323 45.2928,26.684 C45.2912559,28.6472846 43.7000846,30.2384559 41.7368,30.24 Z"/>
</svg>
