<svg xmlns="http://www.w3.org/2000/svg" width="56" height="56" viewBox="0 0 56 56">
  <path fill="currentColor" fill-rule="evenodd" d="M28,0 C12.536027,0 0,12.536027 0,28 C0,43.463973 12.536027,56 28,56 C43.463973,56 56,43.463973 56,28 C55.9830254,12.5430636 43.4569364,0.0169746373 28,0 Z M9.604,18.718 C9.44472096,17.1641264 10.2720889,15.6759822 11.676,14.9912 C12.716553,14.5190136 13.9282467,14.6252094 14.8708,15.2712 C15.4272997,14.2737831 16.4623761,13.6374656 17.6036,13.5912 C19.096,13.4988 20.5268,14.4984 21.1288,15.9852 C21.6048,17.1612 22.1984,20.3476 17.458,24.6148 L17.1556,24.8948 L16.7636,24.7856 C10.612,23.0944 9.7076,19.978 9.604,18.718 Z M43.5036,30.758 C43.4789531,31.3498446 43.4200545,31.9397654 43.3272,32.5248 C43.2824,32.8048 43.2124,33.0848 43.1536,33.3648 C43.0948,33.6448 43.0528,33.9248 42.98,34.188 L42.9268,34.384 L42.8176,34.7956 L42.8176,34.7956 C40.809902,41.2895588 34.8056312,45.7179291 28.0084,45.7179291 C21.2111688,45.7179291 15.206898,41.2895588 13.1992,34.7956 L13.1992,34.7956 L13.1012,34.4288 L13.0396,34.1908 C12.9668,33.9248 12.9276,33.6616 12.8716,33.3984 C12.8156,33.1352 12.74,32.8384 12.6952,32.5584 C12.5991365,31.9717722 12.5383606,31.3799085 12.5132,30.786 L12.5132,30.786 L12.4824,29.946 L43.5624,29.946 L43.5036,30.758 Z M46.326,18.718 C46.2224,19.978 45.318,23.0944 39.1664,24.7688 L38.7744,24.878 L38.4748,24.598 C33.7344,20.3308 34.3252,17.1444 34.8012,15.9684 C35.4032,14.4816 36.8284,13.482 38.3292,13.5744 C39.4699054,13.6200013 40.5044398,14.2566378 41.0592,15.2544 C42.0017533,14.6084094 43.213447,14.5022136 44.254,14.9744 C45.6641613,15.6613584 46.4926819,17.1582936 46.326,18.718 L46.326,18.718 Z"/>
</svg>
