<svg xmlns="http://www.w3.org/2000/svg" width="56" height="56" viewBox="0 0 56 56">
  <path fill="currentColor" fill-rule="evenodd" d="M28,0 C12.536027,0 0,12.536027 0,28 C0,43.463973 12.536027,56 28,56 C43.463973,56 56,43.463973 56,28 C55.9830254,12.5430636 43.4569364,0.0169746373 28,0 Z M6.8208,27.5996 C6.62943964,27.6915307 6.41989696,27.7393715 6.2076,27.7396036 C5.55320665,27.7410851 4.98508392,27.2890483 4.8395053,26.6510517 C4.69392667,26.013055 5.00973399,25.3593224 5.6,25.0768 L9.856,22.9992 L5.838,20.5884 C5.17382239,20.1902027 4.95820274,19.3289776 5.35640004,18.6648 C5.75459733,18.0006224 6.61582236,17.7850027 7.28,18.1832 L13.5156,21.924 C13.9586293,22.1873775 14.2211175,22.6728771 14.198882,23.1878026 C14.1766466,23.7027281 13.8732841,24.1637933 13.4092,24.388 L6.8208,27.5996 Z M34.4708,35.6188 C34.0131404,41.3052201 29.2695997,45.6894939 23.5648,45.6988 C23.268,45.6988 22.9712,45.6988 22.6744,45.6624 C16.6508959,45.1730157 12.1568958,39.9053967 12.6224,33.88 L12.6728,33.222 L13.342,33.0456 L33.6168,30.4052 L33.8408,31.0184 C34.3797095,32.4885879 34.5946123,34.0578559 34.4708,35.6188 L34.4708,35.6188 Z M38.0688,23.0188 C37.900969,23.6780657 37.3070927,24.1393288 36.6268,24.1388042 C36.5049965,24.1390926 36.3836412,24.1240408 36.2656,24.094 L29.6548,22.442 C29.1345567,22.3125345 28.7242997,21.9130176 28.5810822,21.3963909 C28.4378647,20.8797642 28.5838681,20.3260427 28.9632,19.9472 L34.2524,14.658 C34.8330722,14.0773278 35.7745278,14.0773278 36.3552,14.658 C36.9358722,15.2386722 36.9358722,16.1801278 36.3552,16.7608 L32.9252,20.1908 L36.9852,21.2072 C37.3701917,21.2999735 37.7022648,21.5425021 37.9077864,21.8810082 C38.113308,22.2195144 38.1752941,22.6260244 38.08,23.0104 L38.0688,23.0188 Z"/>
</svg>
