<svg xmlns="http://www.w3.org/2000/svg" width="56" height="56" viewBox="0 0 56 56">
  <path fill="currentColor" fill-rule="evenodd" d="M28,0 C12.536027,0 0,12.536027 0,28 C0,43.463973 12.536027,56 28,56 C43.463973,56 56,43.463973 56,28 C55.9830254,12.5430636 43.4569364,0.0169746373 28,0 Z M12.712,25.6704 C12.3549737,25.4391459 12.118267,25.0620547 12.0652,24.64 L11.8132,22.6016 L9.9932,21.6524 C9.50110819,21.3958296 9.19766142,20.8818313 9.2107437,20.3270235 C9.22382598,19.7722158 9.55116204,19.2730913 10.0548,19.04 L11.914,18.172 L12.2528,16.1448 C12.3426532,15.5920921 12.7403886,15.1393029 13.2769006,14.9789454 C13.8134126,14.818588 14.394383,14.9788528 14.7728,15.3916 L16.1728,16.8952 L18.2,16.5788 C18.748954,16.4959532 19.2972466,16.7324949 19.613657,17.1886731 C19.9300675,17.6448513 19.9595223,18.2412648 19.6896,18.7264 L18.6844,20.524 L19.6,22.3664 C19.7920914,22.748914 19.8054136,23.1967437 19.6364,23.59 C19.3619277,24.2189094 18.6842819,24.5694158 18.0124,24.43 L15.9992,24.0408 L14.532,25.48 C14.0427231,25.9597877 13.2854553,26.0343494 12.712,25.6592 L12.712,25.6704 Z M41.832,31.5224 L41.832,31.5224 C41.8107513,32.056306 41.7565145,32.5883876 41.6696,33.1156 C41.6276,33.3732 41.566,33.6224 41.51,33.8744 C41.454,34.1264 41.426,34.3336 41.3644,34.566 L41.2916,34.846 L41.2188,35.1092 L41.2188,35.1092 C39.4259765,40.8985676 34.07181,44.8455341 28.0112,44.8455341 C21.95059,44.8455341 16.5964235,40.8985676 14.8036,35.1092 L14.8036,35.1092 L14.7196,34.7984 L14.6608,34.5688 C14.5936,34.3252 14.5572,34.0816 14.5068,33.838 C14.4564,33.5944 14.392,33.3564 14.3528,33.11 C14.2674114,32.5835251 14.2131837,32.0524676 14.1904,31.5196 L14.1652,30.7636 L41.8852,30.7636 L41.832,31.5224 Z M45.8444,21.6384 L44.0216,22.5904 L43.7696,24.6288 C43.6999887,25.178988 43.3238706,25.6418564 42.7995658,25.8225692 C42.275261,26.003282 41.693824,25.8704552 41.3,25.48 L39.8328,24.0408 L37.8168,24.4328 C37.5853927,24.4798885 37.3459535,24.4693109 37.1196,24.402 C36.7081848,24.2777135 36.3723221,23.9786536 36.201333,23.5843538 C36.0303439,23.190054 36.0415606,22.7404823 36.232,22.3552 L37.1504,20.5128 L36.1508,18.718 C35.8834953,18.2318386 35.9144893,17.6362487 36.2308122,17.1804588 C36.5471352,16.7246688 37.094245,16.4872687 37.6432,16.5676 L39.676,16.87 L41.076,15.3664 C41.4544935,14.9618009 42.029515,14.8065306 42.5602194,14.9656232 C43.0909239,15.1247158 43.485701,15.5707088 43.5792,16.1168 L43.918,18.1468 L45.7828,19.0148 C46.2861523,19.2484448 46.6129235,19.7479012 46.6254108,20.3026962 C46.6378982,20.8574913 46.3339301,21.3711443 45.8416,21.6272 L45.8444,21.6384 Z"/>
</svg>
