<svg xmlns="http://www.w3.org/2000/svg" width="56" height="56" viewBox="0 0 56 56">
  <path fill="currentColor" fill-rule="evenodd" d="M2.12598918,17.3005773 L2.32758618,17.3593748 C2.92677725,17.546967 3.33837112,18.1153433 3.64636653,19.2156974 C3.69676578,19.3864903 3.78356449,19.8288718 3.87596311,20.2964523 C4.53955322,23.684311 5.41314021,27.4221552 7.373111,28.9060933 C8.54069361,29.7852566 10.8002599,30.230438 14.0930109,30.230438 C16.565374,30.230438 19.8525251,29.9280506 21.0929066,29.368074 C24.6628534,27.7525414 25.5812397,23.4519207 26.1888307,20.6072394 C26.3092289,20.064062 26.4100274,19.5880819 26.5164258,19.2072977 C26.5920246,18.9273094 27.4068125,18.6893193 28.0228033,18.6893193 C28.5603953,18.6893193 29.4507821,18.9105101 29.5319808,19.2072977 C29.6355793,19.5740825 29.7391778,20.0472627 29.856776,20.6072394 C30.4727668,23.4575205 31.3883532,27.7665408 34.9527001,29.3820734 C36.1986815,29.9420501 39.4858325,30.2472373 41.9525958,30.2472373 C45.2453467,30.2472373 47.504913,29.8020559 48.6724957,28.9200927 C50.7612645,27.3381587 51.5508528,23.3511249 52.074445,20.710835 C52.2004431,20.0836612 52.3068415,19.5432837 52.4020401,19.1876986 C52.676436,18.1741408 53.2672272,17.7737575 53.8944178,17.3593748 C55.2871006,20.7335387 56.0025344,24.3486658 56,27.9989311 C56.000561,39.3216155 49.1813233,49.53011 38.721226,53.8654777 C28.2611288,58.2008455 16.2194283,55.8095922 8.20965475,47.8064585 C0.199881188,39.8033248 -2.20109902,27.7638699 2.12598918,17.3005773 L2.12598918,17.3005773 Z M37.8786565,36.202589 C37.4782764,36.1775964 37.0846932,36.3148422 36.7866727,36.5833731 C34.2629253,38.5412706 31.1609914,39.6067317 27.9668042,39.6128468 C24.7957036,39.6140633 21.716878,38.5457267 19.2281344,36.5805732 C18.6047741,36.0589064 17.681059,36.1210197 17.1331555,36.7214457 C16.5852521,37.3218717 16.6077431,38.2473749 17.1841648,38.8204798 C17.3549623,38.9772733 21.4289016,42.6451203 27.9668042,42.6451203 C31.907197,42.6563387 35.732127,41.3151783 38.8026427,38.8456787 L38.8026427,38.8456787 C39.261172,38.4356647 39.4283085,37.7918248 39.2257469,37.2130051 C39.0231853,36.6341854 38.4910517,36.2350464 37.8786565,36.202589 Z M44.7357543,15.6934443 C46.9449214,15.6934443 50.1172741,15.6934443 49.4088847,18.2133392 C49.2324881,18.7770411 49.0958876,19.3524318 49.0000908,19.9352674 C48.7495721,21.2856937 48.4252239,22.6213746 48.0285052,23.9363005 C47.4125144,25.843021 46.8917222,26.3497999 46.7489243,26.4561954 C46.4269291,26.6997853 44.9933505,27.161766 41.8853968,27.161766 C39.0406392,27.161766 36.6438749,26.7753821 36.1622821,26.5709907 C34.0091141,25.5966313 33.3119245,22.3375672 32.8023321,19.9576665 C32.6791339,19.3808905 32.5643357,18.8377132 32.4355376,18.3701327 C32.2423405,17.667362 33.1663267,16.4746117 33.8047172,16.3570166 C34.2779101,16.2730201 34.6839041,16.1974233 35.1738968,16.1498253 C38.2734506,15.8418381 41.5802013,15.6794449 44.7357543,15.6934443 Z M11.1726544,15.6794449 C14.3310073,15.6794449 17.640558,15.8418381 20.7485117,16.1498253 C21.2413044,16.2002232 21.6500983,16.2730201 22.1204913,16.3598165 C22.7532818,16.4746117 23.4420716,17.5301677 23.481271,18.1993398 C23.5204704,18.8685119 23.3888724,19.2324967 23.2404746,19.8792697 C22.7336821,22.2535707 21.9104944,25.5826319 19.7601264,26.5681908 C19.2757337,26.7753821 16.8817693,27.1589661 14.0370117,27.1589661 C10.9206581,27.1589661 9.49547938,26.6857859 9.17628414,26.4337964 C9.03068631,26.3190012 8.50429415,25.8122223 7.88830333,23.9139015 C7.49011292,22.6010672 7.16482124,21.2672201 6.91391784,19.9184681 C6.81682068,19.3368135 6.68024033,18.762443 6.50512394,18.1993398 C5.90911463,15.7939856 8.6424235,15.6846513 10.8598098,15.6796815 Z M16.5292526,18.0055634 C15.2069448,17.4560205 13.6837769,17.7574231 12.6704264,18.769143 C11.657076,19.780863 11.3532537,21.3035109 11.9007168,22.6266517 C12.4481798,23.9497926 13.7390342,24.812664 15.1709948,24.812664 C17.1234271,24.812664 18.7070528,23.2315888 18.7101465,21.2792113 C18.7124078,19.8472909 17.8515603,18.5551063 16.5292526,18.0055634 Z M42.1837843,18.0159104 C40.8656616,17.468101 39.347311,17.7685454 38.3371636,18.7770623 C37.3270163,19.7855792 37.0241523,21.30341 37.5698818,22.6223659 C38.1156112,23.9413217 39.4023818,24.8014644 40.8298125,24.8014644 C42.7760593,24.8014644 44.3546707,23.2254035 44.3577644,21.2792113 C44.3600257,19.8518206 43.5019069,18.5637199 42.1837843,18.0159104 Z M27.9788752,3.16773863e-06 C37.5177297,-0.00452748399 46.4015712,4.85117023 51.5480528,12.8823615 L51.5480528,12.8823615 L51.2120578,12.8627623 C49.4732837,12.6919695 47.1969176,12.5995733 44.8001533,12.5995733 C41.5522017,12.5995733 38.1390526,12.7675663 34.9331004,13.0699537 C34.3171095,13.1315511 33.8299168,13.2211474 33.3147245,13.3135435 C32.2199408,13.5123352 30.999159,13.7363259 28.0200034,13.7363259 C25.0408478,13.7363259 23.8116661,13.5123352 22.7280822,13.3163434 C22.2100899,13.2211474 21.7228972,13.1315511 21.1069064,13.0727536 C17.909354,12.7535669 14.4962049,12.5855739 11.2342535,12.5855739 C8.82908931,12.5855739 6.53872344,12.6947693 4.79434943,12.8655622 L4.79434943,12.8655622 L4.63195185,12.8935611 L4.5479531,12.9047606 L4.42195497,12.9047606 C9.56079941,4.86868067 18.4400208,0.00454016382 27.9788752,3.16773863e-06 Z"/>
</svg>
