<svg xmlns="http://www.w3.org/2000/svg" width="56" height="56" viewBox="0 0 56 56">
  <path fill="currentColor" fill-rule="evenodd" d="M28,0 C12.536027,0 0,12.536027 0,28 C0,43.463973 12.536027,56 28,56 C43.463973,56 56,43.463973 56,28 C55.9830254,12.5430636 43.4569364,0.0169746373 28,0 Z M37.3408,20.5576 C38.3380568,19.1792092 39.9360822,18.3629622 41.6374,18.3629622 C43.3387178,18.3629622 44.9367432,19.1792092 45.934,20.5576 C46.3858375,21.257096 46.1883203,22.1901476 45.4917921,22.6465468 C44.7952639,23.102946 43.8609414,22.9115307 43.4,22.218 C42.9619853,21.6929782 42.3123128,21.3911024 41.6285801,21.3948948 C40.9448474,21.3986873 40.2985636,21.7077515 39.8664,22.2376 C39.3955874,22.9187781 38.4674391,23.1001833 37.7748,22.6464 L37.7748,22.6464 C37.0812163,22.1873561 36.8874839,21.2549408 37.3408,20.5576 L37.3408,20.5576 Z M9.4444,32.1440012 C8.15964258,32.1451324 7.00081339,31.3719352 6.50863475,30.1851904 C6.0164561,28.9984457 6.28793474,27.6320568 7.19639578,26.7235958 C8.10485682,25.8151347 9.47124566,25.5436561 10.6579904,26.0358347 C11.8447352,26.5280134 12.6179324,27.6868426 12.6168012,28.9716 C12.6152562,30.7230283 11.1958283,32.1424562 9.4444,32.1440012 L9.4444,32.1440012 Z M12.5244,22.2376 C12.0534259,22.9204808 11.1232005,23.1020489 10.43,22.6464 L10.43,22.6464 C9.74045897,22.1856761 9.54844028,21.2567544 9.9988,20.5604 C10.996662,19.1819832 12.5951063,18.3658035 14.2968,18.3658035 C15.9984937,18.3658035 17.596938,19.1819832 18.5948,20.5604 C19.0533068,21.260918 18.8571179,22.2004932 18.1566,22.659 C17.456082,23.1175067 16.5165068,22.9213179 16.058,22.2208 C15.6199853,21.6957782 14.9703128,21.3939024 14.2865801,21.3976948 C13.6028474,21.4014873 12.9565636,21.7105515 12.5244,22.2404 L12.5244,22.2376 Z M42.4844,36.4756 C42.252,36.6828 36.7164,41.5576 27.9608,41.5576 C19.2052,41.5576 13.748,36.6576 13.5184,36.4476 C12.9040751,35.8815015 12.8627758,34.9253612 13.426,34.3084 L13.426,34.3084 C13.9927944,33.6955758 14.9476748,33.6543309 15.5652,34.216 C19.0952909,37.0051117 23.4618367,38.5240817 27.9608,38.528 C35.5208,38.528 40.4152,34.2636 40.4628,34.2188 C41.0867713,33.6605506 42.0451506,33.7138287 42.6034,34.3378 C43.1616494,34.9617713 43.1083713,35.9201506 42.4844,36.4784 L42.4844,36.4756 Z M46.3764,32.1440013 C45.0916426,32.1451324 43.9328134,31.3719352 43.4406347,30.1851904 C42.9484561,28.9984457 43.2199347,27.6320568 44.1283958,26.7235958 C45.0368568,25.8151347 46.4032457,25.5436561 47.5899904,26.0358347 C48.7767352,26.5280134 49.5499324,27.6868426 49.5488012,28.9716 C49.5457098,30.7256673 48.1220693,32.1455482 46.368,32.1440013 L46.3764,32.1440013 Z"/>
</svg>
