<svg xmlns="http://www.w3.org/2000/svg" width="56" height="56" viewBox="0 0 56 56">
  <path fill="currentColor" fill-rule="evenodd" d="M28,0 C12.536027,0 0,12.536027 0,28 C0,43.463973 12.536027,56 28,56 C43.463973,56 56,43.463973 56,28 C55.9830254,12.5430636 43.4569364,0.0169746373 28,0 Z M14.3332,23.9904 C12.894423,23.9904 11.5974235,23.1233995 11.047352,21.7939257 C10.4972805,20.4644519 10.8025446,18.9345145 11.8207149,17.9179476 C12.8388853,16.9013807 14.3693019,16.5985282 15.6979071,17.1506944 C17.0265122,17.7028605 17.8914658,19.0012248 17.8892044,20.44 C17.8845717,22.4010973 16.2943022,23.9888625 14.3332,23.9904 L14.3332,23.9904 Z M34.468,35.1428 C34.3812,35.252 32.34,37.8252 28.308,39.172 C26.8245623,39.671525 25.2700807,39.9277686 23.7048,39.9308 C22.7939232,39.9438205 21.8850723,39.841269 21,39.6256 L21,39.6256 C20.2265437,39.3759515 19.7870667,38.561276 20.0031999,37.7777931 C20.2193332,36.9943101 21.014342,36.5201825 21.8064,36.7024 C21.9072,36.7276 24.2984,37.3156 27.3588,36.2964 C30.4976,35.2492 32.0712,33.2976 32.088,33.278 C32.4211144,32.8508533 32.9568049,32.6338678 33.4932821,32.70878 C34.0297592,32.7836922 34.4855194,33.1391211 34.6888821,33.64118 C34.8922448,34.143239 34.8123144,34.7156533 34.4792,35.1428 L34.468,35.1428 Z M46.2812,21.9156 C46.2043041,22.3077769 45.9733282,22.6527278 45.64,22.8732 C45.303288,23.0928482 44.8930726,23.16964 44.4997092,23.0866608 C44.1063458,23.0036816 43.7621013,22.7677381 43.5428,22.4308 C43.1132299,21.9024833 42.4652407,21.6001571 41.7844,21.6104 C41.0944988,21.5966644 40.4381924,21.9077101 40.012,22.4504 C39.5420681,23.1325413 38.6137566,23.3152211 37.9204,22.862 L37.9204,22.862 C37.2318469,22.3993208 37.0401517,21.4707191 37.4892,20.7732 C38.4860097,19.3934785 40.0850662,18.5767617 41.7872,18.578 C43.4917021,18.5635879 45.0956086,19.3833158 46.0824,20.7732 C46.2996409,21.1117544 46.3713034,21.5235617 46.2812,21.9156 L46.2812,21.9156 Z"/>
</svg>
