<svg xmlns="http://www.w3.org/2000/svg" width="56" height="56" viewBox="0 0 56 56">
  <path fill="currentColor" fill-rule="evenodd" d="M28,0 C12.536027,0 0,12.536027 0,28 C0,43.463973 12.536027,56 28,56 C43.463973,56 56,43.463973 56,28 C55.9830254,12.5430636 43.4569364,0.0169746373 28,0 Z M38.808,14.8204 C39.774686,14.7326872 40.7492446,14.8276734 41.6808,15.1004 C42.6207752,15.3446186 43.5048902,15.7676629 44.2848,16.3464 C44.599875,16.5978928 44.8014704,16.9647965 44.8448,17.3656 C44.8909021,17.7939421 44.7527781,18.2216925 44.4648726,18.5421809 C44.1769672,18.8626693 43.7664159,19.0456892 43.3356,19.0456 C42.9914802,19.0450451 42.6577657,18.9275539 42.3892,18.7124 C41.9266066,18.4005145 41.4143842,18.1694937 40.8744,18.0292 C40.3299241,17.86686 39.761918,17.7977526 39.1944,17.8248 L39.1944,17.8248 C38.3787117,17.9007842 37.6499437,17.3156744 37.5478667,16.5028391 C37.4457897,15.6900037 38.0072521,14.942865 38.8164,14.8148 L38.808,14.8204 Z M11.718,16.3604 C12.4965641,15.7823937 13.3799918,15.3611251 14.3192,15.12 C15.2507427,14.8472076 16.2253138,14.7522201 17.192,14.84 C17.9967875,14.9712043 18.554047,15.7149211 18.4539268,16.5241636 C18.3538065,17.3334061 17.6320974,17.9188877 16.8196,17.85 L16.8,17.85 C16.2380558,17.8242613 15.6757901,17.8933613 15.1368,18.0544 C14.5960915,18.196481 14.0830882,18.4283736 13.6192,18.7404 L13.6192,18.7404 C12.9673935,19.2654019 12.0134019,19.1626065 11.4884,18.5108 C10.9633981,17.8589935 11.0661935,16.9050019 11.718,16.38 L11.718,16.3604 Z M14.3332,30.9428 C12.3692754,30.9428 10.7772,29.3507246 10.7772,27.3868 C10.7772,25.4228754 12.3692754,23.8308 14.3332,23.8308 C16.2971246,23.8308 17.8892,25.4228754 17.8892,27.3868 C17.8876559,29.3500846 16.2964846,30.9412559 14.3332,30.9428 L14.3332,30.9428 Z M40.4096,41.048 L15.5904,41.048 C14.3808,41.048 13.3952,40.3676 13.3952,39.5304 C13.3952,38.6932 14.3808,38.0156 15.5904,38.0156 L40.4096,38.0156 C41.6192,38.0156 42.6048,38.696 42.6048,39.5304 C42.6048,40.3648 41.6192,41.048 40.4096,41.048 Z M41.6696,30.9428 C39.7056754,30.9428 38.1136,29.3507246 38.1136,27.3868 C38.1136,25.4228754 39.7056754,23.8308 41.6696,23.8308 C43.6335246,23.8308 45.2256,25.4228754 45.2256,27.3868 C45.2240559,29.3500846 43.6328846,30.9412559 41.6696,30.9428 L41.6696,30.9428 Z"/>
</svg>
