<svg xmlns="http://www.w3.org/2000/svg" width="56" height="56" viewBox="0 0 56 56">
  <path fill="currentColor" fill-rule="evenodd" d="M28,0 C12.536027,0 0,12.536027 0,28 C0,43.463973 12.536027,56 28,56 C43.463973,56 56,43.463973 56,28 C55.9830254,12.5430636 43.4569364,0.0169746373 28,0 Z M10.08,15.8844 C9.55963136,15.2348613 9.65822096,14.2876524 10.3012,13.7592 C11.0799459,13.1808715 11.9632511,12.7587105 12.9024,12.516 C13.8297932,12.2414009 14.7999917,12.1407736 15.764,12.2192 C16.5836167,12.3332136 17.1608057,13.0828215 17.0615496,13.904356 C16.9622936,14.7258905 16.2231865,15.3164663 15.4,15.232 L15.372,15.232 C14.8110628,15.2084574 14.25008,15.277516 13.7116,15.4364 C13.1697194,15.5765459 12.6562458,15.8095984 12.194,16.1252 C11.9247036,16.3363942 11.5926313,16.4516834 11.2504,16.4528 C10.7944331,16.449869 10.3642356,16.2409453 10.08,15.8844 Z M14.3304,24.5644 C12.3675701,24.5644 10.7759529,22.9740227 10.7744099,21.0111934 C10.7728691,19.0483641 12.3619858,17.4554937 14.3248132,17.4523999 C16.2876407,17.4493152 17.8817634,19.0371756 17.8864,21 C17.8817717,22.9610973 16.2915022,24.5488625 14.3304,24.5504 L14.3304,24.5644 Z M38.6904,43.8844 L38.5504,44.5256 L17.3936,44.5256 C17.3936,44.5256 17.2928,43.9516 17.276,43.8676 C16.6364133,40.905972 17.2560704,37.8117432 18.9868,35.3248 L20.1068,33.9444 C20.1264,33.922 20.1516,33.9052 20.1712,33.8856 C20.48642,33.5664253 20.8212006,33.2671801 21.1736,32.9896 L21.4536,32.774 C21.833892,32.4863916 22.232317,32.2235807 22.6464,31.9872 L22.7332,31.9452 C23.1313387,31.7321163 23.5428677,31.5450577 23.9652,31.3852 L24.276,31.2648 C24.7333628,31.0969853 25.2009824,30.9585699 25.676,30.8504 C26.1021875,30.7611986 26.5331721,30.6966912 26.9668,30.6572 L27.2888,30.6376 C27.6192,30.6152 27.9496,30.6068 28.2772,30.6152 L28.6076,30.6152 C28.9827475,30.6346015 29.3566044,30.6738565 29.7276,30.7328 L29.8704,30.7496 C30.2900858,30.8237234 30.705169,30.921885 31.1136,31.0436 C31.1976,31.0688 31.2788,31.1024 31.36,31.1276 C31.6764,31.2312 31.99,31.3488 32.2952,31.4804 C32.41,31.528 32.5248,31.5812 32.6368,31.6344 C32.9168,31.7744 33.222,31.9144 33.5048,32.0908 C33.586,32.1384 33.6728,32.186 33.754,32.2364 C33.8352,32.2868 33.8744,32.3008 33.9332,32.3372 C34.2384,32.536 34.524,32.7544 34.804,32.9784 L34.8656,33.0232 C35.2183264,33.3084301 35.5539725,33.614158 35.8708,33.9388 L35.8708,33.9388 L37.0188,35.322 C38.7400364,37.8194172 39.3483672,40.9188631 38.6988,43.8816 L38.6904,43.8844 Z M41.6752,24.5644045 C39.7116442,24.5674867 38.1172207,22.9784875 38.1136098,21.0149326 C38.1100112,19.0513777 39.6985897,17.456535 41.6621436,17.4524042 C43.6256975,17.4482895 45.2209592,19.0364473 45.2256,21 C45.2209717,22.9610973 43.6307022,24.5488625 41.6696,24.5504 L41.6752,24.5644045 Z M45.9452,13.6724 C45.658691,14.0265611 45.2275409,14.2324 44.772,14.2324 C44.4274799,14.2319522 44.093135,14.1155726 43.8228,13.902 C43.3611844,13.5877258 42.8487013,13.3556401 42.308,13.216 C41.7634257,13.054133 41.1955001,12.9850353 40.628,13.0116 C39.7968115,13.1121158 39.0415158,12.5197885 38.941,11.6886 C38.8404842,10.8574115 39.4328115,10.1021158 40.264,10.0016 C41.2249654,9.91165802 42.1942674,10.0057373 43.12,10.2788 C44.0596012,10.5216909 44.9430444,10.9448687 45.7212,11.5248 C46.0335025,11.778498 46.2320397,12.1460223 46.2730124,12.5462932 C46.313985,12.9465641 46.1940261,13.3466904 45.9396,13.6584 L45.9452,13.6724 Z"/>
</svg>
