<svg xmlns="http://www.w3.org/2000/svg" width="56" height="56" viewBox="0 0 56 56">
  <path fill="currentColor" fill-rule="evenodd" d="M55.9634927,14.4181726 C55.7943462,13.1651488 54.8623207,12.1503108 53.6282972,11.8754896 C52.8024327,11.7095971 51.9467844,11.9443039 51.3211016,12.5083601 C51.1436189,12.3539378 50.9469231,12.2231061 50.7359027,12.1191167 C50.0007185,11.0814184 49.1942397,10.0961304 48.3223074,9.17038859 C50.1059039,6.89933585 50.1339039,4.94191802 49.9827042,3.96180895 C49.7286297,2.04809821 48.3076938,0.496184476 46.423911,0.0749764077 C44.9944223,-0.20345277 43.5253239,0.305179964 42.5739184,1.40792474 C41.6218369,0.306176951 40.1533294,-0.202251185 38.7239258,0.0749764077 C37.7628701,0.273327454 36.897881,0.79277469 36.2711305,1.54794033 C33.5696732,0.701930263 30.7551484,0.272291296 27.9243465,0.273798534 C12.527176,0.273798534 0,12.7743897 0,28.1368993 C0,43.4994089 12.527176,56 27.9243465,56 C43.3215169,56 55.8514929,43.4994089 55.8514929,28.1368993 C55.8440063,24.8708542 55.25718,21.6320405 54.1182963,18.5710347 C56.0334926,16.7956372 56.0782925,15.1602552 55.9634927,14.4181726 Z M36.7751295,4.19423482 C36.8188928,3.96383612 36.8864549,3.73860387 36.9767291,3.52216003 C37.1781871,2.98280444 37.5287312,2.51179842 37.9875272,2.16400888 C38.2986196,1.92425303 38.6592252,1.75684421 39.0431252,1.67395435 C39.1952683,1.64380292 39.3500232,1.62879468 39.5051243,1.62914936 C40.4179225,1.62914936 41.2663209,2.18921169 41.8767197,3.18612263 C42.0236678,3.43281889 42.2895964,3.58395486 42.5767184,3.58395486 C42.8638403,3.58395486 43.1297689,3.43281889 43.276717,3.18612263 C43.9935157,2.00719143 45.0239137,1.45272973 46.1159116,1.67395435 C47.3192405,1.96257985 48.2180661,2.96634486 48.3727073,4.19423482 C48.5603069,5.40957007 48.1235077,6.71451529 47.1631096,7.98025614 C46.8321332,8.40869014 46.468946,8.81123705 46.0767117,9.18439014 C45.0213601,10.1846059 43.8445484,11.0482634 42.5739184,11.7550762 C38.5587261,9.47842287 36.3999302,6.67531092 36.7751295,4.19423482 Z M44.9371139,20.5984604 C44.9484588,22.0371169 44.0906634,23.3404353 42.7649109,23.898865 C41.4391585,24.4572948 39.9075014,24.1604549 38.8862822,23.1471748 C37.8650631,22.1338947 37.5561391,20.6044625 38.1039915,19.2741802 C38.6518439,17.9438978 39.9481823,17.0756683 41.3867207,17.0756683 C43.3410066,17.0756683 44.9278664,18.6551763 44.9371139,20.6096616 L44.9371139,20.5984604 Z M14.1231729,17.0756683 C15.5560272,17.077938 16.8463737,17.9433611 17.3923462,19.2682716 C17.9383186,20.5931821 17.6323572,22.1165648 16.6171738,23.1278564 C15.6019905,24.139148 14.0775823,24.4391181 12.754991,23.8878492 C11.4323997,23.3365804 10.5721834,22.0426758 10.5755697,20.6096616 C10.5848214,18.6562683 12.1699795,17.077187 14.1231729,17.0756683 L14.1231729,17.0756683 Z M50.2991036,31.962125 C49.9407043,32.2813605 41.3671207,39.7777947 27.8487466,39.7777947 C14.3303725,39.7777947 5.87998873,32.2365555 5.54118938,31.91732 C5.14105266,31.5526541 4.96583597,31.0021944 5.08154176,30.4732937 C5.19724754,29.944393 5.58629733,29.5174039 6.10213982,29.353169 C6.61798232,29.1889342 7.18224877,29.3124048 7.58238546,29.6770707 C7.65798532,29.7442781 15.5791701,36.7394566 27.8487466,36.7394566 C40.2051229,36.7394566 48.1991076,29.7638803 48.2887074,29.6938725 L48.7563065,30.2147305 L48.2887074,29.6938725 C48.9124316,29.1370643 49.8689662,29.1896546 50.4279033,29.8114856 C50.9843372,30.4343452 50.9317323,31.3901077 50.3103036,31.9481234 L50.2991036,31.962125 Z M52.1918999,18.0473765 C51.9119005,18.240598 51.631901,18.4310192 51.3211016,18.6074388 C49.2267056,17.3753017 48.0983078,15.9191396 48.2915074,14.6617997 C48.3542244,14.0831356 48.7730943,13.6059731 49.3387054,13.4688669 C49.4050509,13.4554063 49.4726095,13.4488373 49.540305,13.4492648 C49.6026342,13.4529028 49.6644955,13.4622767 49.7251047,13.4772679 C50.1135097,13.5745122 50.4416965,13.8334218 50.6267029,14.188547 C50.773651,14.4352433 51.0395797,14.5863793 51.3267016,14.5863793 C51.6138235,14.5863793 51.8797522,14.4352433 52.0267003,14.188547 C52.0344201,14.1768514 52.0428352,14.1656299 52.0519002,14.1549433 C52.3906996,13.6172835 52.8330987,13.3680557 53.3174978,13.4660666 C53.8800061,13.6082741 54.2965193,14.0827519 54.3646958,14.6589994 C54.4738956,15.3702785 54.1462962,16.1459649 53.4714975,16.8992487 C53.0896687,17.3265667 52.660363,17.7089458 52.1918999,18.0389755 L52.1918999,18.0473765 Z"/>
</svg>
