<svg xmlns="http://www.w3.org/2000/svg" width="56" height="56" viewBox="0 0 56 56">
  <path fill="currentColor" fill-rule="evenodd" d="M28,0 C12.536027,0 0,12.536027 0,28 C0,43.463973 12.536027,56 28,56 C43.463973,56 56,43.463973 56,28 C55.9830254,12.5430636 43.4569364,0.0169746373 28,0 Z M38.7184,13.9328 C39.6859622,13.8499579 40.6604751,13.9496888 41.5912,14.2268 C42.5314192,14.4679945 43.4151789,14.8913239 44.1924,15.4728 C44.8434333,16.0008947 44.9430947,16.9567667 44.415,17.6078 C43.8869053,18.2588333 42.9310333,18.3584947 42.28,17.8304 C41.8190433,17.517403 41.3075415,17.2862799 40.768,17.1472 C40.2235241,16.98486 39.655518,16.9157526 39.088,16.9428 C38.6937043,16.9882987 38.2973568,16.8766374 37.9848,16.632 C37.6703792,16.3848053 37.4685732,16.0215545 37.4248,15.624 C37.3218454,14.8016061 37.8977325,14.0487147 38.7184,13.9328 Z M37.674,21.8876 C38.3717985,21.438328 39.3010716,21.632914 39.76,22.3244 C40.1911925,22.8525331 40.839446,23.1555323 41.5212,23.1476 C42.2111012,23.1613356 42.8674076,22.8502899 43.2936,22.3076 C43.7652761,21.6281207 44.6912379,21.4459034 45.3852,21.896 L45.3852,21.896 C46.0724231,22.3585233 46.262912,23.2860675 45.8136,23.982 C44.8163432,25.3603908 43.2183178,26.1766378 41.517,26.1766378 C39.8156822,26.1766378 38.2176568,25.3603908 37.2204,23.982 C36.7686552,23.278145 36.9715168,22.3414752 37.674,21.8876 Z M11.634,15.4728 C12.4112211,14.8913239 13.2949808,14.4679945 14.2352,14.2268 C15.1640401,13.9498651 16.1366865,13.8501308 17.1024,13.9328 C17.9335885,14.0333158 18.5259158,14.7886115 18.4254,15.6198 C18.3248841,16.4509885 17.5695885,17.0433158 16.7384,16.9428 L16.7104,16.9428 C16.1502568,16.9208296 15.5902999,16.9908242 15.0528,17.15 C14.5120987,17.2896401 13.9996156,17.5217258 13.538,17.836 L13.538,17.836 C13.2705823,18.0463523 12.9402357,18.160741 12.6,18.1608397 C12.1413354,18.1641292 11.7062353,17.9579206 11.4184,17.6008 C10.8919238,16.9542229 10.9856961,16.0039975 11.6284,15.4728 L11.634,15.4728 Z M10.3348,21.8876 C11.035308,21.4315636 11.9724538,21.6252404 12.4348,22.3216 C12.8718851,22.8448434 13.5195782,23.1458612 14.2013527,23.1426121 C14.8831272,23.139363 15.5279219,22.8321855 15.96,22.3048 C16.4327883,21.6324657 17.3554805,21.4598312 18.0393642,21.9157537 C18.7232479,22.3716761 18.9187746,23.2897899 18.48,23.9848 C17.4828708,25.3643227 15.8841603,26.1813738 14.182,26.1813738 C12.4798397,26.1813738 10.8811292,25.3643227 9.884,23.9848 C9.42981912,23.2811051 9.63157397,22.3425065 10.3348,21.8876 Z M27.9216,42.56 C14.3444,42.56 5.908,35 5.5552,34.664 C5.15506254,34.2983744 4.98037922,33.7470516 5.09695155,33.2177096 C5.21352388,32.6883676 5.60364176,32.261426 6.12035155,32.0977096 C6.63706134,31.9339932 7.20186254,32.0583744 7.602,32.424 C7.6776,32.494 15.6268,39.5248 27.9216,39.5248 C40.3088,39.5248 48.328,32.5248 48.4092,32.4436 C48.7056582,32.171909 49.09984,32.0324293 49.5012,32.0572 C50.1134648,32.0907319 50.6453927,32.4894203 50.849376,33.0676792 C51.0533593,33.6459382 50.8893133,34.2901342 50.4336,34.7004 C50.0724,35.0168 41.4736,42.56 27.9216,42.56 Z"/>
</svg>
