<svg xmlns="http://www.w3.org/2000/svg" width="56" height="56" viewBox="0 0 56 56">
  <path fill="currentColor" fill-rule="evenodd" d="M28,0 C12.536027,0 0,12.536027 0,28 C0,43.463973 12.536027,56 28,56 C43.463973,56 56,43.463973 56,28 C56,20.5739383 53.0500085,13.4520287 47.7989899,8.20101013 C42.5479713,2.94999153 35.4260617,0 28,0 Z M9.7664,19.6672 C9.38708593,19.1769583 9.33932552,18.5068648 9.64527521,17.9677814 C9.95122491,17.428698 10.5510159,17.1261138 11.1664,17.2004 C11.7500443,17.2247959 12.3337219,17.1529004 12.894,16.9876 C13.4572682,16.8424846 13.9907864,16.5998902 14.4704,16.2708 C15.1353508,15.7396125 16.1050125,15.8480492 16.6362,16.513 C17.1673875,17.1779508 17.0589508,18.1476125 16.394,18.6788 C15.5943595,19.2711119 14.6885271,19.7045428 13.7256,19.9556 C12.9696346,20.171911 12.1878759,20.2849364 11.4016,20.2916 C11.1985701,20.2928353 10.9956557,20.2816142 10.794,20.258 C10.386056,20.2069665 10.0157569,19.9940697 9.7664,19.6672 Z M10.1388,25.6004 C10.1388,23.5900835 11.7684835,21.9604 13.7788,21.9604 C15.7891165,21.9604 17.4188,23.5900835 17.4188,25.6004 C17.4188,27.6107165 15.7891165,29.2404 13.7788,29.2404 C11.7684835,29.2404 10.1388,27.6107165 10.1388,25.6004 L10.1388,25.6004 Z M43.0052,41.6528 C42.713047,41.9715135 42.3007554,42.1532874 41.8684,42.1540067 C41.4850819,42.1551325 41.1153248,42.0122264 40.8324,41.7536 C40.7848,41.7116 35.7784,37.3016 28.0504,37.3016 C20.2804,37.3016 15.2068,41.7004 15.1564,41.7452 C14.5205685,42.2954891 13.5608716,42.2340053 13.0004595,41.6070778 C12.4400475,40.9801502 12.4861376,40.0195909 13.104,39.4492 C13.3392,39.2364 19.0232,34.2216 28.0504,34.2216 C37.0776,34.2216 42.672,39.2616 42.9072,39.4772 C43.5334944,40.0516346 43.5773119,41.0243832 43.0052,41.6528 Z M41.9384,29.2432 C39.9280835,29.2432 38.2984,27.6135165 38.2984,25.6032 C38.2984,23.5928835 39.9280835,21.9632 41.9384,21.9632 C43.9487165,21.9632 45.5784,23.5928835 45.5784,25.6032 C45.5784,27.6135165 43.9487165,29.2432 41.9384,29.2432 Z M45.1472,20.2552 C44.9381771,20.2805993 44.7277573,20.2927568 44.5172,20.2916 C43.7309111,20.2851082 42.9491293,20.1720795 42.1932,19.9556 C41.2313889,19.7052552 40.326513,19.2727778 39.5276,18.6816 C39.2087043,18.4247522 39.0052279,18.0514789 38.9621439,17.6442823 C38.9190599,17.2370858 39.0399159,16.829496 39.298,16.5116 C39.8343506,15.8600052 40.7927168,15.7555917 41.4568,16.2764 L41.4568,16.2764 C41.9348344,16.6009567 42.4652809,16.8406048 43.0248,16.9848 C43.5846948,17.151939 44.1686814,17.2238725 44.7524,17.1976 L44.7692,17.1976 C45.6135329,17.0932182 46.3826182,17.6930671 46.487,18.5374 C46.5913818,19.3817329 45.9915329,20.1508182 45.1472,20.2552 L45.1472,20.2552 Z"/>
</svg>
