<svg xmlns="http://www.w3.org/2000/svg" width="56" height="56" viewBox="0 0 56 56">
  <path fill="currentColor" fill-rule="evenodd" d="M50.3328,44.0899954 C45.0404973,50.9616095 36.7739043,55 28,55 C19.2260957,55 10.9595027,50.9616095 5.6672,44.0899954 C8.03657259,45.211517 10.6666573,45.6953912 13.2888,45.492192 C13.2888,45.492192 13.2916,45.5966694 13.5352,45.7671326 C14.2212,46.3582547 16.7888,48.5330342 26.0624,48.6979985 C26.6802667,48.7089962 27.3261333,48.714495 28,48.714495 L28,48.714495 L28.6657778,48.712662 C29.1029926,48.7102181 29.5269333,48.7053303 29.9376,48.6979985 C39.2112,48.5330342 41.7788,46.3582547 42.4648,45.7671326 C42.6496,45.6454714 42.6958,45.5516479 42.70735,45.51234 L42.7112,45.492192 C45.3333427,45.6953912 47.9634274,45.211517 50.3328,44.0899954 Z M0.0672,25.6772285 L0.244735526,25.9760828 C4.45421956,32.861654 13.2888,33.6340073 13.2888,33.6340073 L13.2888,33.6340073 L13.2888,43.5318661 C10.374,44.2494609 4.6872,42.2616409 4.6424,42.2506433 C1.5372,37.8241008 5.32907052e-15,33.279334 5.32907052e-15,27.505583 C5.32907052e-15,26.8878833 0.0224,26.2784318 0.0672,25.6772285 L0.0672,25.6772285 Z M55.9356,25.6662309 L55.9713778,26.2762933 C55.9904593,26.68402 56,27.0937832 56,27.505583 C56,33.279334 54.4628,37.8241008 51.3604,42.2313974 C51.3156,42.2423951 45.6288,44.230215 42.714,43.5126203 L42.714,43.5126203 L42.714,33.6147614 C42.714,33.6147614 51.8168,32.8284315 55.9356,25.6662309 L55.9356,25.6662309 Z M28,1.0658141e-14 C41.1681374,1.0658141e-14 52.5568756,9.00975748 55.3588,21.643851 C55.3448,21.6768439 52.2312,30.3209739 42.7112,31.420736 L42.7112,31.420736 L42.1988937,31.442593 C38.3895561,31.6000867 33.4368696,31.6956766 28,31.6956766 L27.2616717,31.6950425 C21.8701807,31.6857808 16.9928348,31.5758981 13.2888,31.420736 L13.2888,31.420736 L12.8852956,31.3685735 C3.69407543,30.0650705 0.655,21.6763725 0.6412,21.643851 C3.44312437,9.00975748 14.8318626,1.0658141e-14 28,1.0658141e-14 Z M41.6584,18.0668748 C40.693012,18.0668748 39.7671637,18.443444 39.0845313,19.1137416 C38.4018989,19.7840391 38.0184,20.6931577 38.0184,21.6411016 C38.0184,23.6150926 39.6480835,25.2153284 41.6584,25.2153284 C43.6687165,25.2153284 45.2984,23.6150926 45.2984,21.6411016 C45.2984,19.6671106 43.6687165,18.0668748 41.6584,18.0668748 Z M13.5016,18.0668748 C12.536212,18.0668748 11.6103637,18.443444 10.9277313,19.1137416 C10.2450989,19.7840391 9.8616,20.6931577 9.8616,21.6411016 C9.8616,23.6150926 11.4912835,25.2153284 13.5016,25.2153284 C15.5119165,25.2153284 17.1416,23.6150926 17.1416,21.6411016 C17.1416,19.6671106 15.5119165,18.0668748 13.5016,18.0668748 Z"/>
</svg>
