<svg xmlns="http://www.w3.org/2000/svg" width="56" height="56" viewBox="0 0 56 56">
  <path fill="currentColor" fill-rule="evenodd" d="M54.0202902,17.6893885 C55.3258312,20.9593548 55.997595,24.447292 55.9999281,27.9677043 C56.0253662,39.2153633 49.3029991,49.3839401 38.9372749,53.7773873 C28.5715508,58.1708344 16.5795469,55.9342263 8.49940507,48.1004722 C0.419263267,40.2667181 -2.17669298,28.3601968 1.91039966,17.8795723 C2.01935816,17.9635911 2.12056101,18.0571927 2.21279438,18.1592544 C2.48573917,18.4115509 2.74465522,18.6785805 2.98838085,18.9591451 C3.12990318,19.1026478 3.25654442,19.2600696 3.36637425,19.4290109 C3.9767636,19.9156577 4.64035202,20.5281614 4.8475484,21.143462 C5.214342,22.2398157 5.95072915,29.2682259 8.15429069,31.1001434 C10.427851,32.9852005 18.9985014,32.2831985 20.6420728,31.4693237 C24.3016089,29.640203 24.752401,23.7305211 25.4019897,21.143462 C25.7659833,19.677928 27.9695449,19.677928 27.9695449,19.677928 C27.9695449,19.677928 30.1759064,19.677928 30.5427,21.1406652 C31.1782889,23.7389115 31.631881,29.6625776 35.3026169,31.4889014 C36.9461882,32.3083699 45.5168386,33.0103719 47.7931989,31.1253148 C49.9939605,29.2933973 50.7275477,22.2482061 51.0971413,21.1490556 C51.3295372,20.4442568 52.1723225,19.739458 52.8443108,19.2276399 L52.8443108,19.2276399 L52.8611105,19.2751858 C52.9548734,19.1256914 53.0647247,18.9868896 53.1887048,18.8612564 C53.348302,18.6263234 53.5022993,18.3885937 53.6590966,18.1536607 C53.7665872,17.9893015 53.8873899,17.8340238 54.0202902,17.6893885 Z M41.8097033,35.7708338 L14.1909853,35.7708338 L14.2189849,36.5231785 C14.4782306,43.9389244 20.5717729,49.8168167 28.0003443,49.8168167 C35.4289157,49.8168167 41.5224581,43.9389244 41.7817038,36.5231785 L41.7817038,36.5231785 L41.8097033,35.7708338 Z M28.0045443,1.59872116e-14 C38.8499105,1.59872116e-14 48.7155503,6.26898659 53.3119026,16.0812167 C52.9003098,16.0588421 52.4915169,16.0001089 52.0799241,15.9413756 C51.8327586,15.9048279 51.5885361,15.8506169 51.3491369,15.77916 L51.3491369,15.77916 L51.3799363,15.8378933 C48.0787939,15.4267606 41.6893054,15.2869196 34.9358233,16.0252803 C33.0738558,16.2266513 32.3598683,16.7580473 27.9555451,16.7580473 C23.551222,16.7580473 22.8400344,16.2266513 20.9808668,16.0252803 C14.2889836,15.2953101 7.95269421,15.4239638 4.62635226,15.826706 L4.62635226,15.826706 L4.67675138,15.7344109 C4.01036301,15.8322996 3.3635743,15.9973121 2.69718593,16.0812167 C7.29353827,6.26898659 17.159178,1.59872116e-14 28.0045443,1.59872116e-14 Z M17.1505337,9.50868822 C16.1847912,9.42169555 15.2112825,9.51656583 14.2805838,9.78837029 C13.3391593,10.0277999 12.4536477,10.4486839 11.6738293,11.0273618 C11.0321089,11.5531629 10.9323176,12.4963825 11.4498332,13.144555 C11.6958091,13.4643095 12.0591942,13.672988 12.4595993,13.7244261 C12.8600045,13.7758642 13.2644258,13.665822 13.5833959,13.4186434 C14.0473881,13.1047135 14.5615359,12.8720451 15.1037694,12.7306256 C15.6483124,12.5688378 16.2162459,12.4998165 16.7837401,12.5264577 L16.7837401,12.5264577 L16.9573371,12.5264577 C17.7531785,12.5201148 18.4089185,11.9007254 18.4597089,11.107369 C18.5104994,10.3140126 17.9390838,9.61623661 17.1505337,9.50868822 Z M41.6361064,9.76879254 C40.7028121,9.50051708 39.7281315,9.40571758 38.7605566,9.48911048 C37.9442238,9.60361632 37.3672264,10.3460572 37.4585793,11.164406 C37.501852,11.5636479 37.7045518,11.9285645 38.0207806,12.1765266 C38.3370095,12.4244887 38.7400174,12.534521 39.13855,12.4817085 C39.7059826,12.4566948 40.2736467,12.5256834 40.8185206,12.6858764 C41.3591563,12.8255172 41.8716039,13.0573274 42.3332942,13.3710975 C42.6027646,13.5840282 42.9360869,13.7002651 43.2796777,13.7011239 C43.9205613,13.7020366 44.4926673,13.2999802 44.7082997,12.6971358 C44.923932,12.0942914 44.7364211,11.4211337 44.2400609,11.0161745 C43.4615649,10.435155 42.5770548,10.0114448 41.6361064,9.76879254 Z"/>
</svg>
