<svg xmlns="http://www.w3.org/2000/svg" width="56" height="56" viewBox="0 0 56 56">
  <path fill="currentColor" fill-rule="evenodd" d="M4.25673501,13.161539 C11.1829242,2.08024778 24.853586,-2.73605337 37.1961779,1.55666724 L37.1961779,1.55666724 L36.6216389,1.55666724 C34.9190043,1.55666724 33.5387462,2.93692585 33.5387462,4.63956113 C33.5385092,5.03556574 33.615624,5.42780388 33.7657592,5.79424502 L33.7657592,5.79424502 L28.3594866,5.79424502 C27.0566117,5.79212515 25.8930645,6.60927262 25.4528684,7.83553363 C25.0126723,9.06179465 25.3908758,10.4323913 26.3976458,11.2593751 L26.3976458,11.2593751 L26.2556141,11.3993108 C25.4347653,12.2619038 25.1804052,13.5279336 25.6188497,14.6478163 C26.0816522,15.8299147 27.2217453,16.6074695 28.4912102,16.6067946 L28.4912102,16.6067946 L33.706904,16.6067946 C35.1022591,16.605899 36.3230416,15.6678962 36.6832967,14.3198479 L36.6832967,14.3198479 L43.6702525,14.3198479 C43.2455296,15.2748308 43.3335808,16.3799681 43.9041611,17.2556506 C44.4747413,18.1313332 45.4501365,18.6582914 46.4953032,18.6555178 L46.4953032,18.6555178 L54.391,18.655 L54.5264774,19.0462964 C58.6076915,31.1298944 53.9993137,44.4531234 43.3243326,51.4326902 L42.9740885,51.6580265 C31.9326095,58.6475039 17.5245134,57.069372 8.25779845,47.8555197 C-1.00891649,38.6416674 -2.66945414,24.2428301 4.25673501,13.161539 Z M29.7592974,34.277231 C28.3842306,33.7076595 26.8014604,34.0224922 25.7490299,35.0749231 C24.6965993,36.1273541 24.3817668,37.710125 24.951338,39.0851923 C25.5209093,40.4602595 26.8627172,41.3568273 28.3510787,41.3568273 L28.3510787,41.3568273 L28.3622892,41.3568273 C30.3902364,41.3506492 32.0309315,39.7049304 32.0309315,37.676973 C32.0309315,36.1886109 31.1343641,34.8468025 29.7592974,34.277231 Z M10.6341378,22.951653 C10.0698833,22.9748535 9.56348787,23.3047529 9.31425501,23.8115119 C9.06502216,24.3182708 9.11285723,24.9207506 9.43893366,25.3818317 C10.4630021,26.7967603 12.1036367,27.6345908 13.8502728,27.6345908 C15.5969088,27.6345908 17.2375434,26.7967603 18.2616119,25.3818317 L18.2616119,25.3818317 C18.7254397,24.6759497 18.5305915,23.7257868 17.8252724,23.2568572 C17.1199533,22.7879277 16.1684096,22.9759148 15.6944031,23.6778322 C15.2452096,24.2288056 14.5734258,24.5503837 13.8625619,24.5547216 C13.151698,24.5590594 12.4760397,24.2457036 12.0201556,23.7002532 C11.7301615,23.2156657 11.1983923,22.9284526 10.6341378,22.951653 Z M38.8061713,22.951653 C38.2419167,22.9748535 37.7355213,23.3047529 37.4862885,23.8115119 C37.2370556,24.3182708 37.2848907,24.9207506 37.6109671,25.3818317 C38.6356412,26.7967865 40.2766951,27.6345498 42.0237076,27.6345498 C43.77072,27.6345498 45.4117739,26.7967865 46.436448,25.3818317 L46.436448,25.3818317 C46.9002758,24.6759497 46.7054276,23.7257868 46.0001085,23.2568572 C45.2947894,22.7879277 44.3432457,22.9759148 43.8692392,23.6778322 C43.4195028,24.2289029 42.7472757,24.5504827 42.0359933,24.5548198 C41.3247108,24.5591568 40.6486121,24.2457986 40.1921891,23.7002532 C39.902195,23.2156657 39.3704258,22.9284526 38.8061713,22.951653 Z M54.8275212,7.02740257 C55.1726685,7.03069535 55.4807418,7.24459648 55.6044409,7.56683265 C55.7281399,7.88906882 55.642333,8.25417165 55.3880471,8.48757322 L55.3880471,8.48757322 L48.6421175,14.7318346 L55.1021789,14.7318346 C55.5665338,14.7318346 55.9429678,15.1082688 55.9429678,15.5726239 C55.9429678,16.036979 55.5665338,16.4134131 55.1021789,16.4134131 L55.1021789,16.4134131 L46.4728822,16.4134131 C46.1277348,16.4101203 45.8196616,16.1962192 45.6959625,15.873983 C45.5722634,15.5517469 45.6580704,15.186644 45.9123562,14.9532425 L45.9123562,14.9532425 L52.6694964,8.71178368 L46.2907112,8.71178368 C45.8263563,8.70898105 45.4499223,8.33254688 45.4499223,7.86819181 C45.4499223,7.40383673 45.8263563,7.02740257 46.2907112,7.02740257 L46.2907112,7.02740257 Z M33.5079173,8.01953387 C33.8530646,8.02282666 34.1611379,8.23672779 34.284837,8.55896396 C34.408536,8.88120013 34.322729,9.24630295 34.0684432,9.47970452 L34.0684432,9.47970452 L30.6128008,12.6775063 L33.6956935,12.6775063 C33.8533834,12.6778417 34.0078008,12.7225159 34.1413116,12.8064273 C34.2501732,12.9851259 34.3769452,13.1522772 34.5196666,13.3052956 C34.5374304,13.3749314 34.5468387,13.4464348 34.5476929,13.5182955 C34.5476929,13.9826506 34.1712589,14.3590847 33.706904,14.3590847 L33.706904,14.3590847 L28.4912102,14.3590847 C28.1459568,14.3589631 27.8358694,14.1477924 27.7092765,13.8265849 C27.5821777,13.504427 27.665617,13.1372938 27.9194737,12.9017167 L27.9194737,12.9017167 L31.3751161,9.70111235 L28.3678945,9.70111235 C27.9035396,9.70111233 27.5271056,9.32467817 27.5271056,8.86032311 C27.5271056,8.39596805 27.9035396,8.01953387 28.3678945,8.01953387 L28.3678945,8.01953387 Z M43.9505155,3.79316662 C44.2943565,3.79767473 44.6007971,4.01110762 44.7242394,4.33205786 C44.8476818,4.6530081 44.7632427,5.01677938 44.5110414,5.25053464 L44.5110414,5.25053464 L38.9534267,10.3905595 L44.2027521,10.3905595 C44.667107,10.3905595 45.043541,10.7669937 45.043541,11.2313488 C45.043541,11.6957038 44.667107,12.072138 44.2027521,12.072138 L44.2027521,12.072138 L36.8066124,12.072138 C36.6455075,12.0717205 36.4879144,12.0250262 36.3525864,11.9376117 C36.2504952,11.7669216 36.1322415,11.6064344 35.9994551,11.4583619 C35.9148511,11.1561262 36.0056262,10.8319292 36.234876,10.6175726 L36.234876,10.6175726 L41.7924906,5.4747451 L36.6300467,5.4747451 C36.1656919,5.4747451 35.7892578,5.09831094 35.7892578,4.63395586 C35.7892578,4.16960079 36.1656919,3.79316662 36.6300467,3.79316662 L36.6300467,3.79316662 Z"/>
</svg>
