<svg xmlns="http://www.w3.org/2000/svg" width="32" height="32" viewBox="0 0 32 32">
  <path fill="currentColor" fill-rule="evenodd" d="M6.66345054,9.57175263 C6.66498697,9.55513662 6.66697196,9.53865063 6.66939329,9.52230687 C6.68109514,9.42709403 6.69429257,9.3318673 6.70899741,9.23665682 L7.66469492,3.03634437 C7.80166187,2.15006657 8.56722395,1.49796599 9.46252722,1.5 L22.4727275,1.5 C23.3682636,1.50034392 24.1310983,2.15187516 24.2677899,3.03635582 L25.2258613,9.23631415 C25.2405639,9.33151001 25.2537598,9.42672182 25.2654608,9.52191948 C25.2679303,9.53853834 25.2699485,9.55530441 25.2715027,9.57220483 C25.6456268,12.7591045 24.3465971,15.924201 21.8176906,17.9378835 C20.3573071,19.100518 18.634669,19.7667758 16.8737058,19.9366527 L16.8737058,28.6875048 L19.6103129,28.6875048 C20.110821,28.6875048 20.5165629,29.0932467 20.5165629,29.5937548 C20.5165629,30.0942628 20.110821,30.5 19.6103129,30.5 L12.3245986,30.5 C11.8240906,30.5 11.4183486,30.0942628 11.4183486,29.5937548 C11.4183486,29.0932467 11.8240906,28.6875048 12.3245986,28.6875048 L15.0612058,28.6875048 L15.0612058,19.9366487 C13.3002325,19.7667631 11.5775719,19.1004921 10.1171558,17.9378316 C7.58811096,15.924039 6.28907782,12.7586004 6.66345054,9.57175263 Z M23.5217749,10.5625048 L8.41313651,10.5625048 C8.38479346,12.8562415 9.41508302,15.061884 11.2461192,16.5198761 C14.0059955,18.7170574 17.9289161,18.7170574 20.6887272,16.519928 C22.51982,15.0618909 23.550117,12.8562423 23.5217749,10.5625048 Z M8.61791294,8.75000477 L23.3166998,8.75000477 L22.4765524,3.31316748 L9.46046589,3.31250239 C9.4572083,3.31250239 9.45585658,3.3136464 9.4559856,3.31281105 L8.61791294,8.75000477 Z"/>
</svg>
