<svg xmlns="http://www.w3.org/2000/svg" width="32" height="32" viewBox="0 0 32 32">
  <path fill="currentColor" fill-rule="evenodd" d="M30.9,11.4320633 L30.9,20.8729342 C30.9,24.7696577 27.7263,27.9368629 23.8261021,27.9368629 C23.2697392,27.9368629 22.8233545,27.4911256 22.8233545,26.9352796 C22.8233545,26.3794335 23.2697392,25.9336962 23.8261021,25.9336962 C26.6213539,25.9336962 28.8945048,23.6620728 28.8945048,20.8729342 L28.8945048,12.0661397 C27.129241,11.2793598 24.7547026,10.5197268 21.8958035,10.0260819 C21.4993882,9.95886372 21.180959,9.65984807 21.0922541,9.26862093 L20.7950347,7.99242894 C20.5191921,6.81904375 19.4886346,6.00316675 18.2841706,6.00316675 L14.1158294,6.00316675 C12.9102854,6.00316675 11.8818224,6.82025795 11.6050598,7.99202518 L11.3078227,9.26828972 C11.2180769,9.6566242 10.8979964,9.95930721 10.5046835,10.0259987 C7.63519135,10.5198606 5.25508879,11.2816317 3.50549518,12.0658269 L3.50549518,20.8729342 C3.50549518,23.6638418 5.78041806,25.9336962 8.57389789,25.9336962 C9.1302608,25.9336962 9.57664548,26.3794335 9.57664548,26.9352796 C9.57664548,27.4911256 9.1302608,27.9368629 8.57389789,27.9368629 C4.67180542,27.9368629 1.5,24.7677656 1.5,20.8729342 L1.5,11.4320633 C1.5,11.0612239 1.70742185,10.7194742 2.03185567,10.5501802 C2.35957382,10.3701967 3.13959486,10.0169263 4.13381573,9.64806548 C5.70847299,9.06385987 7.50670776,8.55242434 9.50304228,8.1720851 L9.65172527,7.53862457 C10.1426254,5.45377345 11.976968,4 14.1158294,4 L18.2841706,4 C20.4264482,4 22.2629663,5.45730795 22.7483071,7.53876205 L22.8969972,8.17225346 C24.8933533,8.55506805 26.6916105,9.06702315 28.2660894,9.65025694 C29.2579814,10.0176832 30.0422438,10.3716152 30.3654959,10.5487274 C30.6964319,10.7189054 30.9,11.0587047 30.9,11.4320633 Z M4.32825507,8.76117082 C3.90383899,8.76117082 3.51740548,8.48766738 3.37120571,8.07148142 C3.19913882,7.54855908 3.48532514,6.97932116 4.01054277,6.80942762 C4.90113936,6.51892134 5.8392991,6.25577551 6.79763546,6.02707208 C7.33550781,5.90025863 7.87585359,6.23088392 8.00146095,6.76947861 C8.12854105,7.30691964 7.79731756,7.84667405 7.25823009,7.97203145 C6.35785804,8.18496819 5.47760008,8.43292408 4.64517951,8.70798651 C4.54332657,8.7443098 4.43826117,8.76117082 4.32825507,8.76117082 Z M16.2029731,9.53983177 C21.4082346,9.53983177 25.6434899,13.7727022 25.6434899,18.9728847 C25.6434899,24.1719767 21.4093258,28.4 16.2029731,28.4 C10.9977117,28.4 6.76245643,24.1671295 6.76245643,18.9669471 C6.76245643,13.7678551 10.9966205,9.53983177 16.2029731,9.53983177 Z M16.2029731,26.5968333 C20.4129383,26.5968333 23.8379947,23.1708065 23.8379947,18.9669471 C23.8379947,14.7630876 20.4129383,11.3429985 16.2029731,11.3429985 C11.993008,11.3429985 8.56795161,14.7690252 8.56795161,18.9728847 C8.56795161,23.1767442 11.993008,26.5968333 16.2029731,26.5968333 Z"/>
</svg>
