<svg xmlns="http://www.w3.org/2000/svg" width="32" height="32" viewBox="0 0 32 32">
  <path fill="currentColor" fill-rule="evenodd" d="M16,13.3333333 C16.506261,13.3333333 16.9246546,13.7095385 16.9908712,14.1976393 L17,14.3333333 L16.9993337,25.7732053 L19.2928932,23.4808932 C19.6479153,23.1258711 20.2034669,23.0935964 20.5949489,23.384069 L20.7071068,23.4808932 C21.0621289,23.8359153 21.0944036,24.3914669 20.803931,24.7829489 L20.7071068,24.8951068 L16.7071068,28.8951068 C16.3520847,29.2501289 15.7965331,29.2824036 15.4050511,28.991931 L15.2928932,28.8951068 L11.2928932,24.8951068 C10.9023689,24.5045825 10.9023689,23.8714175 11.2928932,23.4808932 C11.6479153,23.1258711 12.2034669,23.0935964 12.5949489,23.384069 L12.7071068,23.4808932 L14.9993337,25.7732053 L15,14.3333333 C15,13.7810486 15.4477153,13.3333333 16,13.3333333 Z M24.6388878,7.05510381 L24.6733333,7.11866667 L24.7251648,7.12081031 C26.3574322,7.21454858 27.916472,7.84966182 29.1518178,8.93064917 L29.411489,9.16907912 C30.8538491,10.5584605 31.6681229,12.4753672 31.666669,14.4773333 C31.666669,17.3065184 30.3985699,19.3396019 28.3277955,20.6263715 C27.2333542,21.3064522 26.1492116,21.6611274 25.2324906,21.811823 L24.9333333,21.8546667 L22.9866667,21.8546667 C22.4343819,21.8546667 21.9866667,21.4069514 21.9866667,20.8546667 C21.9866667,20.3484056 22.3628718,19.9300121 22.8509726,19.8637955 L22.9866667,19.8546667 L24.8039646,19.8630701 L24.9768273,19.8336135 C25.1193052,19.8053186 25.3139589,19.7590073 25.5470084,19.6904655 C26.1375842,19.5167721 26.7278117,19.2659117 27.2722045,18.9276285 C28.7847635,17.9877314 29.6666667,16.573815 29.6666669,14.4766061 C29.6677279,13.0178272 29.0746039,11.6215361 28.0239766,10.609499 C26.9733493,9.59746182 25.5558497,9.05698074 24.0981314,9.11260607 C23.6974033,9.12789752 23.326298,8.90231893 23.1553777,8.53954749 C21.6132229,5.26638642 18.0474357,3.45610775 14.4949354,4.14281463 C10.9424351,4.82952151 8.30818,7.83828333 8.09696135,11.4503757 C8.0612727,12.0606944 7.49114036,12.4964125 6.89286592,12.3705939 C5.77843294,12.1362259 4.61772358,12.4165975 3.73315143,13.1338293 C2.84857927,13.851061 2.33436115,14.9287596 2.33333374,16.0666667 C2.33333374,17.7835093 3.04791089,18.7940221 4.30299045,19.373176 C4.75295972,19.5808134 5.24556866,19.716557 5.74233429,19.7912557 C5.98718102,19.8280734 6.18973549,19.8447012 6.33021158,19.8493558 L8.976,19.8506667 C9.52828475,19.8506667 9.976,20.2983819 9.976,20.8506667 C9.976,21.3569277 9.59979482,21.7753213 9.11169408,21.8415378 L8.976,21.8506667 L6.43874682,21.850673 C5.64025686,21.8567126 4.55947222,21.6941949 3.46500955,21.1891573 C1.53175578,20.2970612 0.333333741,18.602324 0.333333741,16.0657638 C0.334905813,14.3246213 1.12110107,12.6769129 2.47353579,11.5803273 C3.48786183,10.7578881 4.73966976,10.3111547 6.02099941,10.2903603 L6.21466667,10.292 L6.27554666,9.96749012 C7.03176218,6.1775215 9.94803727,3.12983033 13.775323,2.25104024 L14.1153572,2.17916487 C18.3314802,1.36417811 22.5625423,3.35665465 24.6388878,7.05510381 Z"/>
</svg>
