<svg xmlns="http://www.w3.org/2000/svg" width="32" height="32" viewBox="0 0 32 32">
  <path fill="currentColor" fill-rule="evenodd" d="M11.3707606,23.233988 C11.3625152,23.2263312 11.3543783,23.2184913 11.3463552,23.2104682 L8.78309314,20.6472061 C8.77507005,20.639183 8.76723011,20.6310461 8.75957331,20.6228007 L4.86027751,16.7235049 C4.50394641,16.3672814 3.92633366,16.3672814 3.57000256,16.7235049 C3.39669229,16.896054 3.30000007,17.1287626 3.30000007,17.371471 C3.30000007,17.6141794 3.39669229,17.8468879 3.57009867,18.0195332 L6.03488416,20.4843188 C6.06869357,20.5148928 6.10180594,20.5463864 6.134182,20.5787832 L11.4267703,25.8715637 C11.4488475,25.8944219 11.4704438,25.9175696 11.4915593,25.9409941 L13.9755064,28.4249412 C14.3323349,28.7822742 14.9112772,28.7826832 15.2686103,28.4258546 C15.6259433,28.0690261 15.6263522,27.4900838 15.2699731,27.1332004 L11.3707606,23.233988 L11.3707606,23.233988 Z M9.41993202,18.737575 L18.7375773,9.41992966 L15.451427,6.13377934 C14.9423586,5.62503703 14.6563395,4.93483859 14.6563395,4.21513765 C14.6563395,3.4957452 14.9421134,2.80582998 15.4507726,2.29715024 C15.9596713,1.78682927 16.6507501,1.5 17.3714734,1.5 C18.0925051,1.5 18.7838671,1.78707487 19.2917606,2.29673681 L20.0459342,3.05099797 C20.1754005,2.77860011 20.3528477,2.52331004 20.5782775,2.2978121 C21.6375084,1.23890108 23.3545217,1.23890108 24.4137759,2.2978354 L29.696832,7.57968319 C30.7559394,8.63928996 30.7555346,10.3568472 29.6959278,11.4159546 C29.4703091,11.641467 29.2148602,11.8189435 28.9422908,11.9483883 L29.6960822,12.7022673 C30.7569381,13.7611263 30.7585569,15.4794947 29.6996979,16.5403506 C28.6408389,17.6012065 26.9224705,17.6028254 25.8610147,16.5433671 L22.5736317,13.255984 L13.2559863,22.5736294 L16.5432147,25.8608579 C17.6024903,26.921631 17.6012762,28.6402701 16.5405031,29.6995456 C15.47973,30.7588212 13.761091,30.7576072 12.7022647,29.6972838 L11.9260139,28.9210327 C11.7964892,29.1934767 11.6190238,29.448701 11.3937282,29.6739966 C10.3474252,30.7202996 8.65562298,30.7350009 7.58021254,29.6961482 L2.29721032,24.4143543 C1.23831727,23.3551415 1.2382993,21.6381684 2.29715641,20.5789332 C2.51843392,20.3575263 2.77403683,20.1783145 3.05146266,20.0464788 L2.29871341,19.2937293 C1.78742757,18.7846968 1.5,18.0929468 1.5,17.371471 C1.5,16.6503038 1.78718172,15.958837 2.29805739,15.449866 C3.357341,14.3916095 5.073865,14.3918276 6.13297367,15.4506165 L9.41993202,18.737575 Z M10.6927243,20.0103673 L11.9831941,21.3008371 L21.3005036,11.9835276 L20.0100338,10.6930577 L10.6927243,20.0103673 L10.6927243,20.0103673 Z M4.80276403,21.7977807 C4.639013,21.6601774 4.43131258,21.5838996 4.2157442,21.5838996 C3.97363284,21.5838996 3.74144628,21.680118 3.57030256,21.8513715 C3.21397125,22.2078104 3.21397125,22.7854232 3.57002587,23.1415854 L8.84177651,28.4123199 C9.19982223,28.758132 9.76895383,28.7531864 10.1209359,28.4012044 C10.4574006,28.0647397 10.476753,27.5298499 10.1853191,27.1803374 L4.80276403,21.7977807 Z M25.9496253,11.5011066 C25.9191955,11.4732897 25.8892464,11.4446544 25.8598064,11.4152004 L20.5780853,6.13347934 C20.5465964,6.10198092 20.5160439,6.06990082 20.4864277,6.03727363 L18.0178275,3.5683863 C17.8466104,3.39657364 17.6140324,3.30000007 17.3714734,3.30000007 C17.1289143,3.30000007 16.8963363,3.39657364 16.7238114,3.56969601 C16.5525579,3.74083973 16.4563395,3.97302629 16.4563395,4.21513765 C16.4563395,4.45724901 16.5525579,4.68943557 16.7240153,4.86078319 L27.1332072,15.2699756 C27.4904574,15.6265534 28.0691294,15.6260082 28.4257072,15.268758 C28.7822849,14.9115077 28.7817398,14.3328358 28.4238528,13.9756218 L25.9496253,11.5011066 L25.9496253,11.5011066 Z M27.1855073,10.1914006 C27.5440074,10.4982484 28.084039,10.482099 28.4234356,10.1428624 C28.7799329,9.78653303 28.7800691,9.2086728 28.4239625,8.85239823 L23.1411525,3.57079653 C22.7848535,3.21460506 22.2073125,3.21457303 21.8509737,3.57070046 C21.5131697,3.90870494 21.4958178,4.44573446 21.798836,4.80410347 L27.1855073,10.1914006 L27.1855073,10.1914006 Z"/>
</svg>
