<svg xmlns="http://www.w3.org/2000/svg" width="32" height="32" viewBox="0 0 32 32">
  <path fill="currentColor" fill-rule="evenodd" d="M29.1225,17.525459 C29.3116549,17.5256163 29.4905619,17.6112449 29.6090811,17.7583468 C29.7276004,17.9054486 29.7729792,18.0981956 29.7325,18.2825692 L29.7325,18.2825692 L27.43375,28.6575982 C27.207331,29.4813119 26.4480832,30.0332383 25.60125,29.9984441 L6.24110387,29.9981714 C5.4590922,29.9632199 4.77851786,29.4303755 4.56625,28.6663293 L4.56625,28.6663293 L2.265,18.2825692 C2.22452077,18.0981956 2.26989964,17.9054486 2.38841888,17.7583468 C2.50693812,17.6112449 2.68584511,17.5256163 2.875,17.525459 L2.875,17.525459 Z M21.9375,20.3318807 C21.419733,20.3318807 21,20.7507066 21,21.2673545 L21,21.2673545 L21,26.2565486 C21,26.7731966 21.419733,27.1920225 21.9375,27.1920225 C22.455267,27.1920225 22.875,26.7731966 22.875,26.2565486 L22.875,26.2565486 L22.875,21.2673545 C22.875,20.7507066 22.455267,20.3318807 21.9375,20.3318807 Z M15.6875,20.3318807 C15.169733,20.3318807 14.75,20.7507066 14.75,21.2673545 L14.75,21.2673545 L14.75,26.2565486 C14.75,26.7731966 15.1697331,27.1920225 15.6875,27.1920225 C16.2052669,27.1920225 16.625,26.7731966 16.625,26.2565486 L16.625,26.2565486 L16.625,21.2673545 C16.625,20.7507066 16.205267,20.3318807 15.6875,20.3318807 Z M10.0625,20.3318807 C9.54473305,20.3318807 9.125,20.7507066 9.125,21.2673545 L9.125,21.2673545 L9.125,26.2565486 C9.125,26.7731966 9.54473305,27.1920225 10.0625,27.1920225 C10.580267,27.1920225 11,26.7731966 11,26.2565486 L11,26.2565486 L11,21.2673545 C11,20.7507066 10.580267,20.3318807 10.0625,20.3318807 Z M20.14375,1.0000005 C23.99625,1.0000005 26.675,3.3474168 27.6875,7.61068312 L27.6875,7.61068312 L28.5,11.0494851 C28.5334407,11.1914504 28.6613654,11.2910782 28.8075,11.2889664 L28.8075,11.2889664 L29.125,11.2889664 C30.1605339,11.2889664 31,12.1266183 31,13.1599142 L31,13.1599142 L31,14.4072127 C31,15.4405086 30.1605339,16.2781605 29.125,16.2781605 L29.125,16.2781605 L2.875,16.2781605 C1.83946609,16.2781605 1,15.4405086 1,14.4072127 L1,14.4072127 L1,13.1599142 C1,12.1266183 1.83946609,11.2889664 2.875,11.2889664 L2.875,11.2889664 L3.19625,11.2889664 C3.34098654,11.2893212 3.46686787,11.1900744 3.5,11.0494851 L3.5,11.0494851 L4.3125,7.61068312 C5.325,3.3474168 8,0.998753694 11.85625,1.0000005 L11.85625,1.0000005 Z M20.1425,4.11699998 L11.855,4.11699998 C10.355,4.11699998 8.25,4.55355446 7.355,8.32912706 L7.355,8.32912706 L6.82125,10.5929739 C6.79907176,10.6857604 6.82067499,10.7835723 6.87988664,10.8584603 C6.9390983,10.9333483 7.02940427,10.9771418 7.125,10.9771418 L7.125,10.9771418 L24.87625,10.9771418 C24.9718457,10.9771418 25.0621517,10.9333483 25.1213634,10.8584603 C25.180575,10.7835723 25.2021782,10.6857604 25.18,10.5929739 L25.18,10.5929739 L24.6425,8.32912706 C23.74875,4.55355446 21.6425,4.11699998 20.1425,4.11699998 L20.1425,4.11699998 Z"/>
</svg>
