<svg xmlns="http://www.w3.org/2000/svg" width="32" height="32" viewBox="0 0 32 32">
  <path fill="currentColor" fill-rule="evenodd" d="M25.5,19 C29.0898509,19 32,21.9101491 32,25.5 C32,29.0898509 29.0898509,32 25.5,32 C21.9101491,32 19,29.0898509 19,25.5 C19,21.9101491 21.9101491,19 25.5,19 Z M25.5,20.21875 C22.5832462,20.21875 20.21875,22.5832462 20.21875,25.5 C20.21875,28.4167538 22.5832462,30.78125 25.5,30.78125 C28.4167538,30.78125 30.78125,28.4167538 30.78125,25.5 C30.78125,22.5832462 28.4167538,20.21875 25.5,20.21875 Z M25.5,22.25 C25.9166791,22.25 26.2600996,22.5636577 26.3070337,22.9677453 L26.3125,23.0625 L26.3125,24.6875 L27.9375,24.6875 C28.3862314,24.6875 28.75,25.0512686 28.75,25.5 C28.75,25.9166791 28.4363423,26.2600996 28.0322547,26.3070337 L27.9375,26.3125 L26.3125,26.3125 L26.3125,27.9375 C26.3125,28.3862314 25.9487314,28.75 25.5,28.75 C25.0833209,28.75 24.7399004,28.4363423 24.6929663,28.0322547 L24.6875,27.9375 L24.6875,26.3125 L23.0625,26.3125 C22.6137686,26.3125 22.25,25.9487314 22.25,25.5 C22.25,25.0833209 22.5636577,24.7399004 22.9677453,24.6929663 L23.0625,24.6875 L24.6875,24.6875 L24.6875,23.0625 C24.6875,22.6137686 25.0512686,22.25 25.5,22.25 Z M26.31025,14.2460852 C26.4804894,14.2462208 26.6415057,14.3200385 26.748173,14.4468505 C26.8335069,14.5483 26.8767119,14.6749331 26.8719277,14.8029071 L26.85925,14.8987664 L26.3102905,17.2720074 C25.9679281,17.227296 25.6187599,17.204231 25.2642046,17.204231 C23.5618293,17.204231 21.9836478,17.7359674 20.6866873,18.6424128 L20.6875,17.4718572 C20.6875,17.026471 20.3097403,16.6654142 19.84375,16.6654142 C19.4136051,16.6654142 19.058639,16.9730603 19.006574,17.3706987 L19,17.4718572 L18.9990808,20.2289715 C17.9528806,21.5446479 17.3123851,23.1973801 17.2668123,24.9979502 L5.858875,24.9986587 C5.14753511,25.026654 4.50486221,24.6140468 4.25665564,23.9876917 L4.209625,23.8502838 L2.1385,14.8987664 C2.1020687,14.7398236 2.14290968,14.5736624 2.24957699,14.4468505 C2.33491084,14.3454009 2.45502804,14.2778677 2.58682414,14.2548429 L2.6875,14.2460852 L26.31025,14.2460852 Z M14.21875,16.6654142 C13.7886051,16.6654142 13.433639,16.9730603 13.381574,17.3706987 L13.375,17.4718572 L13.375,21.7728866 C13.375,22.2182728 13.7527598,22.5793296 14.21875,22.5793296 C14.6488948,22.5793296 15.003861,22.2716835 15.055926,21.8740451 L15.0625,21.7728866 L15.0625,17.4718572 C15.0625,17.026471 14.6847403,16.6654142 14.21875,16.6654142 Z M9.15625,16.6654142 C8.72610515,16.6654142 8.37113896,16.9730603 8.31907401,17.3706987 L8.3125,17.4718572 L8.3125,21.7728866 C8.3125,22.2182728 8.69025974,22.5793296 9.15625,22.5793296 C9.58639485,22.5793296 9.94136104,22.2716836 9.99342599,21.8740451 L10,21.7728866 L10,17.4718572 C10,17.026471 9.62224026,16.6654142 9.15625,16.6654142 Z M18.229375,1.14632339e-07 C21.6053816,1.14632339e-07 23.9798803,1.91852919 24.9437017,5.41215286 L25.01875,5.6988645 L25.75,8.66334901 C25.7750805,8.76533555 25.8592135,8.84197642 25.962673,8.86363688 L26.02675,8.86979842 L26.3125,8.86979842 C27.1954289,8.86979842 27.9199828,9.51790044 27.9938059,10.3435185 L28,10.4826844 L28,11.5579418 C28,12.4018314 27.321916,13.0943487 26.458104,13.1649076 L26.3125,13.1708278 L2.6875,13.1708278 C1.80457109,13.1708278 1.08001718,12.5227258 1.00619413,11.6971078 L1,11.5579418 L1,10.4826844 C1,9.63879484 1.67808397,8.94627758 2.54189604,8.87571867 L2.6875,8.86979842 L2.976625,8.86979842 C3.08517741,8.8700533 3.18194531,8.81068077 3.22844224,8.72074532 L3.25,8.66334901 L3.98125,5.6988645 C4.86851974,2.12035144 7.17432566,0.106631967 10.4988449,0.00411711417 L10.770625,1.14632339e-07 L18.229375,1.14632339e-07 Z M18.3452623,2.68804867 L10.7695,2.68706866 C9.45807143,2.68706866 7.63281265,3.0422108 6.7911717,6.04622047 L6.7195,6.31821273 L6.239125,8.26980482 C6.21916459,8.3497932 6.23860749,8.43411383 6.29189798,8.49867243 C6.33186585,8.54709137 6.38757521,8.5804322 6.44922841,8.59407644 L6.5125,8.60098408 L22.488625,8.60098408 C22.5746612,8.60098408 22.6559365,8.56323102 22.709227,8.49867243 C22.7491949,8.45025348 22.7701235,8.39071839 22.7696762,8.33023193 L22.762,8.26980482 L22.27825,6.31821273 C21.4968571,3.15640313 19.6856806,2.71092357 18.3452623,2.68804867 L18.3452623,2.68804867 Z"/>
</svg>
