<svg xmlns="http://www.w3.org/2000/svg" width="32" height="32" viewBox="0 0 32 32">
  <path fill="currentColor" fill-rule="evenodd" d="M16.702277,10.5652715 C16.7046771,10.800832 16.6151582,11.0188172 16.4652653,11.1821683 C16.3110845,11.3483084 16.1006501,11.4550632 15.8653149,11.471346 C15.0742465,11.5333511 14.2802165,11.3896255 13.4847857,11.014202 C10.1525595,9.05063108 8.10267794,9.33026484 6.91653383,11.2499048 C5.87215106,12.9401201 5.55472756,15.8906553 5.99300651,18.5842065 C6.93044718,24.3039932 9.26207438,28.3355777 11.8188808,28.676418 C11.9672655,28.6909304 12.1165526,28.6601779 12.2739521,28.5739779 L14.5905335,27.3972747 C15.3482032,27.0090964 16.2466665,27.0090964 17.0015492,27.3958529 L19.3479098,28.5882699 C19.4783171,28.6601779 19.6276041,28.6909304 19.7448571,28.680011 C22.3336316,28.3354664 24.6647431,24.3057101 25.6019534,18.5836567 C26.0845636,15.6503915 25.6703044,12.478143 24.4282314,10.871424 C24.1242283,10.4781721 24.1965787,9.91293522 24.5898306,9.6089321 C24.9830825,9.30492898 25.5483194,9.37727942 25.8523225,9.77053132 C27.4572437,11.8466228 27.9339678,15.4972055 27.3781793,18.8752412 C26.3256289,25.3014944 23.6190848,29.9802553 19.9511966,30.4678706 C19.4409832,30.5177706 18.9275888,30.4120136 18.5057415,30.1788107 L16.1835861,28.999264 C15.9412356,28.8751001 15.653634,28.8751001 15.4084966,29.0006857 L13.1161203,30.1645188 C12.6672809,30.4120136 12.1538865,30.5177706 11.6125413,30.4642777 C7.97651991,29.9803531 5.2696673,25.2999716 4.21653857,18.8743114 C3.71475429,15.7904768 4.07729729,12.4205439 5.38527006,10.303738 C7.13618749,7.47007643 10.2865533,7.04032055 14.3219967,9.42310702 C14.5083819,9.5100038 14.7030216,9.57574866 14.9022769,9.61968553 L14.9022769,6.04226934 C14.9022769,5.54521304 15.3052206,5.1422693 15.8022769,5.1422693 C16.2993332,5.1422693 16.702277,5.54521304 16.702277,6.04226934 L16.702277,10.5652715 L16.702277,10.5652715 Z M24.3957975,7.6447284 L24.3481935,7.6932498 C23.3759387,8.61210487 22.1627905,9.2363508 20.8499659,9.49402895 C20.1367699,9.70405781 19.3630751,9.50535672 18.8394273,8.97276128 C18.3186402,8.44307557 18.132761,7.6721816 18.3502492,6.96660521 C18.5988195,5.64842363 19.2097291,4.42381818 20.1598094,3.38425945 C21.1317704,2.46353608 22.3458705,1.83838108 23.6599119,1.5813081 C24.3727113,1.37276004 25.1451968,1.57190409 25.6682447,2.1038893 C26.1885365,2.63307129 26.3748437,3.40297226 26.1586254,4.1082853 C25.9097369,5.42672447 25.2997185,6.65095079 24.3957975,7.6447284 Z M24.3985208,3.72740796 L24.434913,3.58912737 C24.4621481,3.51135976 24.4427978,3.42492805 24.3847165,3.3658543 C24.3260814,3.30621727 24.2381709,3.28487173 24.1582485,3.31109183 L24.0439309,3.34045095 C23.0499814,3.52725058 22.1311776,3.9962097 21.4441315,4.643671 C20.7534783,5.40196684 20.2911874,6.33924904 20.1103011,7.34785198 L20.0731947,7.48832162 C20.0458844,7.56575716 20.0650769,7.65192875 20.1229554,7.71079627 C20.1813895,7.77022879 20.2690483,7.79141141 20.34864,7.76510623 L20.4643518,7.73522006 C21.4472441,7.54994411 22.3567885,7.08960761 23.0870694,6.40829276 C23.7649776,5.65360176 24.2191709,4.72536653 24.3985208,3.72740796 Z"/>
</svg>
