<svg xmlns="http://www.w3.org/2000/svg" width="32" height="32" viewBox="0 0 32 32">
  <path fill="currentColor" fill-rule="evenodd" d="M13.8559121,23.8738288 C14.2636141,23.3296182 14.8641208,22.934249 15.5667657,22.7924697 C16.9968166,22.3876796 18.3450994,21.7350116 19.5776059,20.8450729 C20.1021303,20.4952478 20.7695597,20.439328 21.3234651,20.6876925 C21.6699924,20.832223 21.9498034,21.0848395 22.1299028,21.4011104 C22.8203433,20.6196698 23.3550577,19.7109607 23.7027489,18.7243992 L8.31820613,18.7243992 C9.2053458,21.2325836 11.2704344,23.1656625 13.8559121,23.8738288 L13.8559121,23.8738288 Z M13.2914152,25.5980928 C9.73015418,24.5886759 6.99202431,21.6726791 6.24046663,17.9998261 C6.12549055,17.4379394 6.55478987,16.9118992 7.12831941,16.9118992 L24.8908194,16.9118992 C25.4636368,16.9118992 25.8927732,17.4367081 25.7790202,17.998117 C25.3248137,20.2397766 24.1118675,22.2510874 22.3520987,23.6974439 L22.3485117,28.0529154 C22.2046813,29.4436944 21.0327659,30.5006639 19.6345694,30.5006639 C18.4787642,30.5006639 17.4775845,29.778401 17.0812304,28.6897074 C16.7597171,28.8194587 16.4106356,28.8829881 16.0525329,28.8649218 C14.6020116,28.9337655 13.3684146,27.8177714 13.2908194,26.3199825 L13.2914152,25.5980928 L13.2914152,25.5980928 Z M20.5410647,23.2781231 C20.5406769,23.2635734 20.5406782,23.2490267 20.5410647,23.2344962 L20.5410647,22.3839593 C19.1712335,23.3615672 17.6417059,24.093759 16.0207082,24.5476284 L15.9416114,24.5659972 C15.4698764,24.6534825 15.1215566,25.0559025 15.1033194,25.4995242 L15.1020662,26.2723395 C15.1259755,26.7265061 15.5123218,27.0760207 16.0525329,27.0544598 C16.506817,27.0760207 16.8931633,26.7265061 16.9170726,26.2723395 C16.9789476,25.0969997 18.7283194,25.1430152 18.7283194,26.3199825 L18.7235117,27.8664662 C18.7717949,28.3333442 19.1652014,28.6881639 19.6345694,28.6881639 C20.1039374,28.6881639 20.4973439,28.3333442 20.5408194,27.9596908 L20.5410647,23.2781259 L20.5410647,23.2781231 Z M11.7405205,27.9604175 C12.2119314,28.1285842 12.4577595,28.6470643 12.2895928,29.1184752 C12.1214261,29.5898862 11.6029459,29.8357142 11.131535,29.6675475 C5.04705077,27.4970259 1.13132999,21.5642789 1.52751274,15.1163993 C1.9236955,8.66851969 6.53628095,3.25978501 12.8407232,1.85048711 C19.1451654,0.441189209 25.6217627,3.3710429 28.725764,9.03648978 C31.8297653,14.7019367 30.8129433,21.7373065 26.2318218,26.2920225 C25.8768877,26.6449107 25.3030843,26.6432523 24.9501961,26.2883182 C24.5973078,25.9333841 24.5989663,25.3595807 24.9539004,25.0066925 C28.9625725,21.0211263 29.8523342,14.8648846 27.1362037,9.90738263 C24.4200733,4.94988063 18.7527809,2.38613661 13.2361313,3.61933098 C7.7194818,4.85252534 3.6832774,9.58539347 3.33660099,15.2275567 C2.98992457,20.86972 6.41634336,26.0611206 11.7405205,27.9604175 Z M13.4712208,8.87528632 C13.961712,8.97491924 14.2785652,9.45330934 14.1789323,9.94380052 C14.0792993,10.4342917 13.6009092,10.7511449 13.1104181,10.651512 C11.5494504,10.3344344 9.96830792,11.095492 9.24240777,12.5133168 C9.01431361,12.9588293 8.46824754,13.1350817 8.02273506,12.9069875 C7.57722259,12.6788934 7.40097022,12.1328273 7.62906439,11.6873148 C8.72544777,9.54586382 11.11357,8.39637938 13.4712208,8.87528632 Z M18.9087208,10.651512 C18.4182296,10.7511449 17.9398395,10.4342917 17.8402066,9.94380052 C17.7405737,9.45330934 18.0574269,8.97491924 18.5479181,8.87528632 C20.9055688,8.39637938 23.2936911,9.54586382 24.3900744,11.6873148 C24.6181686,12.1328273 24.4419162,12.6788934 23.9964038,12.9069875 C23.5508913,13.1350817 23.0048252,12.9588293 22.7767311,12.5133168 C22.0508309,11.095492 20.4696885,10.3344344 18.9087208,10.651512 Z"/>
</svg>
