<svg width="32" height="32" viewBox="0 0 32 32" fill="none" xmlns="http://www.w3.org/2000/svg">
    <path fill="currentColor" fill-rule="evenodd" clip-rule="evenodd" d="M16 1a7.29 7.29 0 0 1 7.286 7.078l.003.211v3.844h1.06A2.65 2.65 0 0 1 27 14.783v12.989a2.65 2.65 0 0 1-2.65 2.65H7.65A2.65 2.65 0 0 1 5 27.772V14.783a2.65 2.65 0 0 1 2.65-2.65h1.061V8.29A7.289 7.289 0 0 1 16 1zm-5 11.133h10V8.29C21 5.141 17.956 3 16 3c-2.017 0-4.899 2.019-5 5.078v4.055z"/> 
    <path d="M16 18.628c.407 0 .743.306.79.702l.005.092v3.711a.795.795 0 0 1-1.584.093l-.006-.093v-3.71c0-.44.356-.795.795-.795z" fill="#fff"/>
</svg>
