<svg xmlns="http://www.w3.org/2000/svg" width="32" height="32" viewBox="0 0 32 32">
  <path fill="currentColor" fill-rule="evenodd" d="M14.7256118,1.04356465 C15.3062017,0.91926619 15.9118611,1.0641144 16.3734054,1.43764747 C16.7836668,1.76967666 17.0409672,2.25075699 17.0927384,2.7699992 L17.1024157,2.96628728 L17.1024157,29.0357302 C17.1020561,29.6052662 16.8546859,30.1466439 16.4243535,30.5196888 C16.0478124,30.8461033 15.5635896,31.0155519 15.0706434,30.9988769 L14.8591352,30.9802502 L3.68761062,29.3838647 C2.78427782,29.2548913 2.09760759,28.5244715 2.0095656,27.6321948 L2.00000067,27.4386755 L2.00000067,5.72422216 C1.99929079,4.85849686 2.56352164,4.10228991 3.35069796,3.8533054 L3.52266639,3.80786013 L14.7256118,1.04356465 Z M27.2396506,23.3454614 C27.763333,23.3454614 28.1961243,23.7346366 28.2646195,24.239565 L28.2740624,24.3799373 L28.2740624,26.2419938 C28.2740624,27.7721518 27.0876298,29.0251865 25.584555,29.1312535 L25.3777093,29.1385262 L19.7918854,29.1385262 C19.2205955,29.1385262 18.7574736,28.6753756 18.7574736,28.1040503 C18.7574736,27.5803355 19.1466247,27.1475174 19.6515219,27.079018 L19.7918854,27.0695745 L25.3777093,27.0695745 C25.789038,27.0695745 26.1302739,26.7694529 26.1944078,26.3762317 L26.2052387,26.2419938 L26.2052387,24.3799373 C26.2052387,23.808612 26.6683607,23.3454614 27.2396506,23.3454614 Z M15.0334534,3.09787266 L4.06868779,5.80268225 L4.06868779,27.3473664 L15.0334534,28.9142526 L15.0334534,3.09787266 Z M27.8550727,12.3747096 L27.9710902,12.4748719 L31.6962141,16.1989849 L31.6962141,16.1989849 C31.7504878,16.253262 31.7974697,16.31207 31.8371597,16.3741913 L31.8988166,16.4852947 L31.8988166,16.4852947 C31.9910096,16.6729878 32.0173548,16.8766105 31.9893893,17.0709623 C31.9785935,17.1521624 31.9578726,17.2323313 31.9275006,17.3095832 L31.8712468,17.42937 L31.8712468,17.42937 C31.8194892,17.5219025 31.754897,17.6074374 31.678024,17.6816039 L27.9723315,21.3860678 C27.5683686,21.7900557 26.9134152,21.7900557 26.5094522,21.3860678 C26.1422132,21.018806 26.1088278,20.4441013 26.4092961,20.0391226 L26.5094522,19.923098 L28.467152,17.964025 L20.7228561,17.9649457 C20.1515662,17.9649457 19.6884442,17.5017951 19.6884442,16.9304698 C19.6884442,16.406755 20.0775953,15.9739369 20.5824925,15.9054375 L20.7228561,15.895994 L28.464257,15.8950289 L26.5082109,13.9378417 C26.1409719,13.5705799 26.1075865,12.9958752 26.4080548,12.5908965 L26.5082109,12.4748719 C26.87545,12.1076101 27.4501191,12.0742227 27.8550727,12.3747096 Z M11.8758654,14.4957205 C12.2747229,14.4946632 12.6575519,14.6526458 12.9395876,14.9346991 C13.2216234,15.2167524 13.3795963,15.599605 13.3784733,15.984683 C13.3849597,16.5927863 13.0236627,17.1446285 12.4637344,17.3818481 C11.9038061,17.6190677 11.2560671,17.4947144 10.8237759,17.0670079 C10.3914847,16.6393013 10.2602002,15.992893 10.4913871,15.4304184 C10.6763366,14.9804387 11.0639837,14.6554244 11.5229919,14.5434001 L11.7355277,14.5055505 L11.8758654,14.4957205 Z M25.3777093,4.72489619 C26.9077726,4.72489619 28.1607298,5.91140227 28.2667902,7.41457007 L28.2740624,7.62142859 L28.2740624,9.48348511 C28.2740624,10.0548104 27.8109405,10.517961 27.2396506,10.517961 C26.7159682,10.517961 26.2831769,10.1287858 26.2146817,9.62385736 L26.2052387,9.48348511 L26.2052387,7.62142859 C26.2052387,7.21007443 25.9051357,6.86881743 25.5119389,6.80467957 L25.3777093,6.79384794 L19.7918854,6.79384794 C19.2205955,6.79384794 18.7574736,6.33069731 18.7574736,5.75937207 C18.7574736,5.23565725 19.1466247,4.80283918 19.6515219,4.73433974 L19.7918854,4.72489619 L25.3777093,4.72489619 Z"/>
</svg>
