<svg xmlns="http://www.w3.org/2000/svg" width="32" height="32" viewBox="0 0 32 32">
  <path fill="currentColor" d="M3.05181607,16.4995431 C4.5281194,16.1086528 6.04557604,16.9743828 6.44115032,18.4332052 L6.44115032,18.4332052 L6.52191191,18.7140653 C7.87838295,23.1745178 12.3009171,26.023594 16.9596368,25.4595015 C18.4766721,25.275814 19.8571646,26.3421439 20.0430531,27.8412159 C20.2289417,29.3402878 19.149834,30.7044338 17.6327988,30.8881212 C10.1480847,31.794394 3.06445782,27.1118901 1.09498303,19.848744 C0.699408741,18.3899217 1.57551274,16.8904334 3.05181607,16.4995431 Z M24.2397224,6.61553268 C25.4764308,5.72811153 27.2069985,5.99939353 28.1050536,7.22145798 C32.5358572,13.2508517 31.8255823,21.6430933 26.3517904,26.8664811 C25.2523646,27.9156125 23.5004235,27.8853944 22.4387204,26.798987 C21.3770172,25.7125796 21.4075975,23.9813833 22.5070233,22.9322519 C25.9896804,19.6089124 26.4418625,14.2661622 23.6265363,10.4350942 C22.7284813,9.21302977 23.003014,7.50295382 24.2397224,6.61553268 Z M1.87585747,9.90720414 C4.94463408,3.10075514 12.6547568,-0.487533157 19.9694452,1.58508393 C21.43862,2.00137462 22.2881073,3.51574365 21.8668282,4.96752182 C21.4455491,6.41929999 19.9130335,7.25872844 18.4438587,6.84243775 C13.7899456,5.52375139 8.88145256,7.80816226 6.93155636,12.13297 L6.93155636,12.13297 L6.8486167,12.3014253 C6.17364765,13.562063 4.6154105,14.1070229 3.27748833,13.5180041 C1.88139563,12.9033758 1.25386412,11.2867656 1.87585747,9.90720414 Z"/>
</svg>
