<svg xmlns="http://www.w3.org/2000/svg" width="32" height="32" viewBox="0 0 32 32">
  <path fill="currentColor" fill-rule="evenodd" d="M10.4791667,13.6282982 C11.5575747,13.2560848 12.3297539,12.2463098 12.3333333,11.0625 L12.3333333,2.90625 C12.3333333,2.40574195 12.7390753,2 13.2395833,2 C13.7400914,2 14.1458333,2.40574195 14.1458333,2.90625 L14.1458333,11.0652377 C14.1392075,13.2571784 12.5673907,15.0806257 10.4791667,15.5020216 L10.4791667,30.09375 C10.4791667,30.5942581 10.0734247,31 9.57291667,31 C9.07240861,31 8.66666667,30.5942581 8.66666667,30.09375 L8.66666667,15.5027439 C6.58025544,15.0826868 5.0066291,13.2581059 5,11.0625 L5,2.90625 C5,2.40574195 5.40574195,2 5.90625,2 C6.40675805,2 6.8125,2.40574195 6.8125,2.90625 L6.81249586,11.0597623 C6.81608153,12.2467124 7.58952736,13.2576248 8.66666667,13.6291893 L8.66666667,2.90625 C8.66666667,2.40574195 9.07240861,2 9.57291667,2 C10.0734247,2 10.4791667,2.40574195 10.4791667,2.90625 L10.4791667,13.6282982 Z M24.2395833,21.9375 L21.4779444,21.9375 L21.4779444,30.09375 C21.4779444,30.5942581 21.0722025,31 20.5716944,31 C20.0711864,31 19.6654444,30.5942581 19.6654444,30.09375 L19.6654444,3.81025612 C19.6706742,3.00565225 20.2061968,2.30191966 20.9798739,2.0759809 C21.7503647,1.85097267 22.5796962,2.15153123 23.0287083,2.82793738 C25.9665844,7.36241475 26.6736697,11.120102 26.9784946,19.1838537 C27.0070352,19.9245007 26.7221907,20.6427417 26.1937012,21.1652257 C25.6673876,21.6855585 24.9470268,21.9647877 24.2395833,21.9375 Z M21.4779444,3.816125 L21.4779444,20.125157 L24.2736921,20.1256421 C24.5156083,20.1347536 24.7498065,20.0439728 24.9194145,19.8762921 C25.0868466,19.7107626 25.1762652,19.485292 25.1673135,19.2529835 C24.874164,11.4980955 24.2142566,7.99112701 21.513138,3.82196946 C21.5095797,3.81660995 21.4987098,3.81267057 21.4879602,3.81580978 C21.480397,3.81801847 21.4779444,3.82126017 21.4779444,3.816125 Z"/>
</svg>
