<svg xmlns="http://www.w3.org/2000/svg" width="32" height="32" viewBox="0 0 32 32">
  <path fill="currentColor" fill-rule="evenodd" d="M14.1428449,28.5222439 L14.2320199,28.7782322 C14.4947245,29.4492061 15.1441196,29.8988853 15.8751399,29.8988853 C16.6061602,29.8988853 17.2555553,29.4492061 17.5182599,28.7782322 L17.6074349,28.5222439 C17.8009915,28.0659219 18.3101426,27.8170794 18.7972936,27.9600856 C19.3219179,28.1140921 19.6223628,28.6642311 19.4683563,29.1888553 C19.0002315,30.7835247 17.5370999,31.8788854 15.8751399,31.8788854 C14.2131799,31.8788854 12.7500483,30.7835247 12.2819235,29.1888553 C12.1279169,28.6642311 12.4283619,28.1140921 12.9529862,27.9600856 C13.4401372,27.8170794 13.9492883,28.0659219 14.1428449,28.5222439 Z M15.8718399,0.2 C16.3795474,0.2 16.797992,0.582179812 16.8551795,1.07454514 L16.86184,1.19000006 L16.8618282,3.21439371 C22.4122692,3.71456473 26.7618406,8.37933437 26.7618406,14.0600009 C26.7618406,18.0345626 27.1205716,20.8501226 27.7054702,22.6933332 C27.8974573,23.2983486 28.0948054,23.7348562 28.2798342,24.0282296 L28.3774513,24.1772222 L28.4567823,24.2540603 C29.0653285,24.8592548 28.6479014,25.9400016 27.7518406,25.9400016 L3.99183917,25.9400016 C3.2040701,25.9400016 2.74641233,25.0739931 3.1489047,24.4300834 L3.22734229,24.3185268 C3.24655499,24.2898331 3.27810458,24.2384604 3.32009236,24.1626833 L3.41742293,23.9780789 C3.62218141,23.5724296 3.83238323,23.0376481 4.03232055,22.3601272 C4.59338181,20.4588776 4.94536728,17.8982576 4.97916318,14.5887853 L4.98562866,13.7698868 C5.13073575,8.22142189 9.42589977,3.70633173 14.881293,3.21444406 L14.8818398,1.19000006 C14.8818398,0.643238125 15.325078,0.2 15.8718399,0.2 Z M15.8718399,5.1500003 C11.0388549,5.1500003 7.10460585,8.99794608 6.96563809,13.7972922 L6.95897759,14.6161251 C6.92282379,18.0990113 6.54592172,20.8379837 5.93135791,22.9205356 C5.81695008,23.3082256 5.70078915,23.6539936 5.58564721,23.9600015 L26.0519793,23.9600015 L25.9732477,23.7497156 C25.9209971,23.6054686 25.8692533,23.4530611 25.8182109,23.2922096 C25.1656095,21.2356449 24.7818404,18.2235696 24.7818404,14.0600009 C24.7818404,9.13914343 20.7926973,5.1500003 15.8718399,5.1500003 Z"/>
</svg>
