<svg xmlns="http://www.w3.org/2000/svg" width="32" height="32" viewBox="0 0 32 32">
  <path fill="currentColor" fill-rule="evenodd" d="M15,23.7 L15,17.7550575 C10.5073372,17.3038952 7,13.5115388 7,8.9 C7,3.98466573 10.9846657,0 15.9,0 C20.8153343,0 24.8,3.98466573 24.8,8.9 C24.8,13.5115388 21.2926628,17.3038952 16.8,17.7550575 L16.8,23.7 L22.4,23.7 C22.8970563,23.7 23.3,24.1029437 23.3,24.6 C23.3,25.0970563 22.8970563,25.5 22.4,25.5 L16.8,25.5 L16.8,31.1 C16.8,31.5970563 16.3970563,32 15.9,32 C15.4029437,32 15,31.5970563 15,31.1 L15,25.5 L9.4,25.5 C8.90294373,25.5 8.5,25.0970563 8.5,24.6 C8.5,24.1029437 8.90294373,23.7 9.4,23.7 L15,23.7 Z M15.9,16 C19.8212217,16 23,12.8212217 23,8.9 C23,4.97877828 19.8212217,1.8 15.9,1.8 C11.9787783,1.8 8.8,4.97877828 8.8,8.9 C8.8,12.8212217 11.9787783,16 15.9,16 Z"/>
</svg>
