<svg xmlns="http://www.w3.org/2000/svg" width="32" height="32" viewBox="0 0 32 32">
  <path fill="currentColor" fill-rule="evenodd" d="M18.0426077,24.5968751 L14.0209215,24.5968751 C13.6975655,24.5968751 13.387307,24.5406371 13.099493,24.4374184 L13.099493,29.1375016 C13.099493,29.6345579 12.6965493,30.0375017 12.199493,30.0375017 C11.7024367,30.0375017 11.2994929,29.6345579 11.2994929,29.1375016 L11.2994929,23.9202084 L9.90000004,23.9202084 C9.40294374,23.9202084 9,23.5172647 9,23.0202084 C9,22.5231521 9.40294374,22.1202083 9.90000004,22.1202083 L11.3096318,22.1202083 C11.3029191,22.0424919 11.2994929,21.9638347 11.2994929,21.884375 L11.2994929,12.821875 C11.2994929,11.3228099 12.5189054,10.109375 14.0209215,10.109375 C15.5229377,10.109375 16.7423502,11.3228099 16.7423502,12.821875 L16.7423502,19.171875 L20.3956535,19.171875 C21.4255572,19.1715683 22.3679421,19.7508585 22.8296836,20.6695073 L25.5618265,26.1070073 C25.9979175,26.974914 25.9355515,28.0088539 25.3984125,28.8183999 C24.862266,29.62645 23.9347949,30.0879124 22.9652435,30.0300022 C21.9954604,29.9720781 21.1296917,29.4032529 20.6943023,28.5367428 L19.8426078,26.8421652 L19.8426078,29.1375016 C19.8426078,29.6345579 19.439664,30.0375017 18.9426077,30.0375017 C18.4455514,30.0375017 18.0426077,29.6345579 18.0426077,29.1375016 L18.0426077,24.5968751 Z M14.0209215,9.64375007 C11.7644449,9.64375007 9.93342151,7.82170224 9.93342151,5.57187504 C9.93342151,3.32204783 11.7644449,1.5 14.0209215,1.5 C16.2773981,1.5 18.1084216,3.32204783 18.1084216,5.57187504 C18.1084216,7.82170224 16.2773981,9.64375007 14.0209215,9.64375007 Z M14.0209215,7.84375 C15.2852602,7.84375 16.3084215,6.82560421 16.3084215,5.57187504 C16.3084215,4.31814586 15.2852602,3.30000007 14.0209215,3.30000007 C12.7565829,3.30000007 11.7334216,4.31814586 11.7334216,5.57187504 C11.7334216,6.82560421 12.7565829,7.84375 14.0209215,7.84375 Z M22.3026394,27.7285027 C22.4494841,28.0207523 22.7428701,28.213512 23.0725642,28.2332043 C23.4024899,28.2529104 23.7173971,28.0962286 23.8985379,27.8232233 C24.0786864,27.5517136 24.0995439,27.2059246 23.9534452,26.9151595 L21.2213566,21.4777674 C21.0657106,21.168105 20.7463156,20.9717707 20.3959215,20.9718751 L15.8423501,20.9718751 C15.3452938,20.9718751 14.9423501,20.5689313 14.9423501,20.071875 L14.9423501,12.821875 C14.9423501,12.3189079 14.5307998,11.9093751 14.0209215,11.9093751 C13.5110433,11.9093751 13.099493,12.3189079 13.099493,12.821875 L13.099493,21.884375 C13.099493,22.3873421 13.5110433,22.796875 14.0209215,22.796875 L19.2690644,22.796875 C19.6092857,22.796875 19.9204273,22.9887247 20.0732109,23.2927111 L22.3026394,27.7285027 Z"/>
</svg>
