<svg xmlns="http://www.w3.org/2000/svg" width="32" height="32" viewBox="0 0 32 32">
  <path fill="currentColor" fill-rule="evenodd" d="M15.6140277,10.5500001 C13.1273467,10.5500001 11.1140277,8.52269963 11.1140277,6.02500004 C11.1140277,3.52730044 13.1273467,1.5 15.6140277,1.5 C18.1007087,1.5 20.1140277,3.52730044 20.1140277,6.02500004 C20.1140277,8.52269963 18.1007087,10.5500001 15.6140277,10.5500001 Z M15.6140277,8.75 C17.1037969,8.75 18.3140277,7.53136487 18.3140277,6.02500004 C18.3140277,4.5186352 17.1037969,3.30000007 15.6140277,3.30000007 C14.1242585,3.30000007 12.9140277,4.5186352 12.9140277,6.02500004 C12.9140277,7.53136487 14.1242585,8.75 15.6140277,8.75 Z M20.1080277,19.2206379 L20.1080277,21.4856696 C21.4220138,21.234018 22.7481946,21.9961805 23.1757792,23.3057628 C23.6397566,24.726807 22.8712507,26.2587163 21.4552803,26.7274805 C20.9834097,26.8836957 20.4742457,26.6278064 20.3180306,26.1559359 C20.1618154,25.6840654 20.4177046,25.1749014 20.8895752,25.0186862 C21.3624185,24.862149 21.6216877,24.345332 21.4646761,23.8644457 C21.3085566,23.3862916 20.8009711,23.1281046 20.3590383,23.273888 L19.5190383,23.5832213 C18.9314896,23.7995884 18.3080277,23.3647882 18.3080277,22.7386667 L18.3080277,17.7458334 C18.3080277,17.0198976 19.1232892,16.5926629 19.7202084,17.0057854 C20.4984234,17.5443812 21.4230774,17.8262049 22.4539865,17.8155771 C23.943322,17.9390493 25.3963149,17.3065176 26.2791961,16.1966096 C26.5476999,15.7823581 26.4407539,15.2273079 26.0397197,14.9455048 C25.6423371,14.6662677 25.0977743,14.7550998 24.8071254,15.1479298 C24.7568231,15.2159165 24.6971891,15.2764737 24.6299831,15.3278144 C23.9593931,15.8400989 23.1186523,16.0743987 22.3796277,15.9875001 C21.7601314,15.9875001 21.2316028,15.7835176 20.6762905,15.3964773 C20.4200333,15.2178719 19.5889829,14.5326164 19.4717243,14.4431569 C18.4090523,13.6324181 17.3450867,13.2449092 15.6065954,13.2686669 C13.8935279,13.2453818 12.8295734,13.6329059 11.7667511,14.4433191 C11.6496168,14.5326352 10.8175772,15.2183259 10.561006,15.3970124 C10.0057684,15.7837022 9.47730399,15.9875001 8.9569451,15.9820476 C8.11935818,16.0746664 7.27857683,15.8401902 6.60835521,15.3274191 C6.53877288,15.2741832 6.47733661,15.2110726 6.42599057,15.1400843 C6.13734841,14.741023 5.58819842,14.6483147 5.18772193,14.9296114 C4.78356247,15.2134951 4.67847483,15.774257 4.90880762,16.1274149 C5.84071252,17.3042922 7.29182325,17.9362796 8.86664855,17.8113917 C9.8021014,17.8253428 10.71861,17.5440862 11.4878726,17.0067841 C12.0844557,16.5900925 12.9032277,17.0169277 12.9032277,17.744625 L12.9032277,23.1917917 C12.9032277,23.8547779 12.2107084,24.2902008 11.6132094,24.0028933 L10.4667748,23.4516271 C10.018418,23.23737 9.48221146,23.4297589 9.26774014,23.8848189 C9.05166766,24.3432763 9.24551193,24.8910687 9.6968532,25.1067522 L17.0168934,28.6000631 C17.4641538,28.8135344 17.9988428,28.6214019 18.212534,28.1674409 C18.4278235,27.7100845 18.2342324,27.1638276 17.7837114,26.9488 L14.8557114,25.5519666 C14.4070906,25.3379473 14.2169084,24.8007713 14.4309278,24.3521504 C14.6449471,23.9035296 15.1821231,23.7133474 15.630744,23.9273668 L18.5588935,25.3242714 C19.9049158,25.9667097 20.4774549,27.5822458 19.8411214,28.9340591 C19.2031895,30.2892679 17.5909944,30.8685861 16.2416022,30.2245395 L8.9211748,26.7310438 C7.57426251,26.0873922 7.00197645,24.4701456 7.63951528,23.1174311 C8.25648464,21.8083605 9.78176258,21.2233659 11.1032277,21.765637 L11.1032277,19.2251493 C10.3934424,19.4898362 9.64969258,19.6215431 8.92676496,19.6082824 C6.83828303,19.7795007 4.8027169,18.8929715 3.45313442,17.1834781 C2.63986525,15.9569296 2.95005937,14.3016915 4.15311338,13.4566601 C5.31581302,12.6399739 6.89890722,12.8702678 7.78664815,13.9579035 C8.07413576,14.1470709 8.42592105,14.2302958 8.85802771,14.1875 C9.06246006,14.1875 9.25437915,14.113488 9.53230553,13.9199289 C9.71692516,13.7913523 10.5059579,13.141104 10.6753248,13.01196 C12.0445861,11.9678839 13.494474,11.4397912 15.6063542,11.4688364 C17.7439747,11.4392074 19.1942131,11.9674013 20.5635255,13.0120837 C20.7329636,13.1413523 21.5211279,13.7912453 21.7055252,13.9197661 C21.98344,14.1134665 22.1752645,14.1875 22.4782212,14.1929167 C22.8222397,14.2308315 23.1676325,14.1463448 23.4556057,13.9555819 C24.3474248,12.8821782 25.9196163,12.6611481 27.0746099,13.4727515 C28.2683813,14.3116036 28.5840674,15.950016 27.740338,17.2444177 C26.4346552,18.895335 24.3961342,19.7827647 22.3926092,19.6124064 C21.6091127,19.6237087 20.8350937,19.4892974 20.1080277,19.2206379 Z"/>
</svg>
