<svg xmlns="http://www.w3.org/2000/svg" width="32" height="32" viewBox="0 0 32 32">
  <path fill="currentColor" fill-rule="evenodd" d="M16.9063455,23.2305497 L16.9063455,28.6875 L22.7860955,28.6875 C23.2866035,28.6875 23.6923455,29.0932419 23.6923455,29.59375 C23.6923455,30.0942581 23.2866035,30.5 22.7860955,30.5 L9.21409548,30.5 C8.71358743,30.5 8.30784548,30.0942581 8.30784548,29.59375 C8.30784548,29.0932419 8.71358743,28.6875 9.21409548,28.6875 L15.0938455,28.6875 L15.0938455,23.2312227 C9.96850129,22.8702269 6.03134548,19.4278551 6.03134548,14.1875 L6.03134548,7.82222612 C5.37125361,7.79950836 4.65507869,7.76773535 4.52473316,7.77370082 C4.28401614,7.78471762 4.32726544,7.75931829 4.28601926,7.85798129 C4.1013261,8.29977693 3.50540222,14.5146984 3.30559097,16.1124571 C3.24348262,16.6090967 2.79052792,16.9613539 2.29388835,16.8992455 C1.79724878,16.8371371 1.44499163,16.3841824 1.50709999,15.8875429 C1.64487927,14.7858129 2.30548554,7.89631527 2.61376545,7.15889371 C2.94943175,6.35596249 3.54879726,6.00396886 4.44186796,5.96309606 C4.63745844,5.95414455 5.37738227,5.98470864 6.03134548,6.00778385 L6.03134548,4.21875 C6.03134548,2.71722584 7.24857132,1.5 8.75009548,1.5 L23.2500955,1.5 C24.7516196,1.5 25.9688455,2.71722584 25.9688455,4.21875 L25.9688455,6.03429226 C28.380545,6.05622827 28.6652035,6.22848603 29.2303482,7.49659812 C29.500144,8.10198504 29.65996,8.90503202 29.850089,10.4172788 C29.9025789,10.8347727 30.3119635,14.4385229 30.4930973,15.8875935 C30.5551777,16.3842366 30.202895,16.8371714 29.706252,16.8992518 C29.2096089,16.9613322 28.756674,16.6090495 28.6945937,16.1124065 C28.5117475,14.6496374 28.1024605,11.046746 28.0517465,10.6433775 C27.8840952,9.30991325 27.7469051,8.62055787 27.5748115,8.23440188 C27.4248599,7.89792974 27.4209249,7.85122095 25.9688455,7.84477324 L25.9688455,14.1875 C25.9688455,19.4221493 22.0307686,22.8658337 16.9063455,23.2305497 L16.9063455,23.2305497 Z M16.1460347,21.4493063 C20.7090379,21.3886274 24.1563455,18.5797048 24.1563455,14.1875 L24.1563455,4.21875 C24.1563455,3.71824195 23.7506035,3.3125 23.2500955,3.3125 L8.75009548,3.3125 C8.24958743,3.3125 7.84384548,3.71824195 7.84384548,4.21875 L7.84384548,14.1875 C7.84384548,18.5855162 11.2896799,21.3923919 15.8534344,21.4493063 C15.9011723,21.4415384 15.9501623,21.4375 16.0000955,21.4375 C16.049777,21.4375 16.0985248,21.4414978 16.1460347,21.4493063 Z M18.705789,8.75972563 L20.6977186,8.75993683 C21.3604379,8.74375115 21.9652924,9.13555285 22.2214756,9.74696843 C22.4776587,10.358384 22.3327612,11.0643318 21.8609641,11.5209986 L19.946089,13.4005765 L21.0095046,15.8430702 C21.2781653,16.4841698 21.1073079,17.2252276 20.5850671,17.6839778 C20.0628263,18.1427281 19.3059271,18.2166365 18.7155736,17.8737323 L16.0005377,16.3464597 L13.2953842,17.8712033 C12.6942639,18.2202615 11.9373646,18.1463531 11.4151238,17.6876028 C10.892883,17.2288526 10.7220256,16.4877948 10.9954493,15.8355395 L12.0546487,13.3999682 L10.143743,11.5193591 C9.66742977,11.0582902 9.52253226,10.3523423 9.77871539,9.74092676 C10.0348985,9.12951118 10.6397531,8.73770948 11.2803455,8.753625 L13.2949456,8.753625 L14.5510719,6.28663419 C14.8275438,5.74030584 15.3877954,5.39591906 16.0000955,5.39591906 C16.6120954,5.39591906 17.1720979,5.7399683 17.4487123,6.28583093 L18.705789,8.75972563 Z M14.6580604,10.0710775 C14.5033908,10.3748442 14.1913471,10.566125 13.8504705,10.566125 L11.7588848,10.565907 L13.7695975,12.5447036 C14.0368594,12.8077233 14.1145354,13.2081762 13.9649917,13.5520438 L12.8926373,16.0176967 L15.5550941,14.5169467 C15.8310859,14.3613781 16.1682818,14.3612312 16.4444091,14.5165594 L19.107457,16.0146693 L18.0353589,13.5524106 C17.8854328,13.2080796 17.9634188,12.8069523 18.2314352,12.5438764 L20.2401989,10.5721667 L18.1497205,10.5721667 C17.8085755,10.5721667 17.4963336,10.3805877 17.3417924,10.0764545 L15.9999251,7.435694 L14.6580604,10.0710775 Z"/>
</svg>
