<svg xmlns="http://www.w3.org/2000/svg" width="32" height="32" viewBox="0 0 32 32">
  <path fill="currentColor" fill-rule="evenodd" d="M16.8856534,16.796875 L25.0522017,16.796875 C25.0613436,16.796875 25.0625,16.7957385 25.0625,16.8022017 L25.0625,15.0209517 C25.0625,13.8727865 25.7923148,12.89686 26.8150296,12.5153721 C26.4620059,10.4058444 24.5926345,8.79190341 22.3334517,8.79190341 L16.8856534,8.79190341 L16.8856534,16.796875 Z M15.09375,16.796875 L15.09375,8.79190341 L9.6459517,8.79190341 C7.38676891,8.79190341 5.51739754,10.4058444 5.16437377,12.5153721 C6.18708857,12.89686 6.91690341,13.8727865 6.91690341,15.0209517 L6.91690341,16.8022017 C6.91690341,16.7957385 6.91805985,16.796875 6.9272017,16.796875 L15.09375,16.796875 Z M28.6202297,12.4781046 C29.6984761,12.8298717 30.4794034,13.833261 30.4794034,15.0209517 L30.4794034,18.5834517 C30.4794034,20.7460296 28.9199217,22.5446015 26.8544034,22.9543052 L26.8544034,24.8178267 C26.8544034,25.3126472 26.4532722,25.7137784 25.9584517,25.7137784 C25.4636312,25.7137784 25.0625,25.3126472 25.0625,24.8178267 L25.0625,23.0419034 L6.91690341,23.0419034 L6.91690341,24.8178267 C6.91690341,25.3126472 6.51577217,25.7137784 6.0209517,25.7137784 C5.52613124,25.7137784 5.125,25.3126472 5.125,24.8178267 L5.125,22.9543052 C3.05948168,22.5446015 1.5,20.7460296 1.5,18.5834517 L1.5,15.0209517 C1.5,13.833261 2.28092733,12.8298717 3.35917372,12.4781046 C3.74057874,9.38857709 6.412733,7 9.6459517,7 L22.3334517,7 C25.5666704,7 28.2388247,9.38857709 28.6202297,12.4781046 L28.6202297,12.4781046 Z M27.7709517,14.1356534 C27.2613018,14.1356534 26.8544034,14.5355363 26.8544034,15.0209517 L26.8544034,16.8022017 C26.8544034,17.7924221 26.044076,18.5887784 25.0522017,18.5887784 L6.9272017,18.5887784 C5.93532745,18.5887784 5.125,17.7924221 5.125,16.8022017 L5.125,15.0209517 C5.125,14.5355363 4.71810161,14.1356534 4.2084517,14.1356534 C3.69880179,14.1356534 3.29190341,14.5355363 3.29190341,15.0209517 L3.29190341,18.5834517 C3.29190341,20.0526243 4.51028569,21.25 6.0209517,21.25 L25.9584517,21.25 C27.4691177,21.25 28.6875,20.0526243 28.6875,18.5834517 L28.6875,15.0209517 C28.6875,14.5355363 28.2806016,14.1356534 27.7709517,14.1356534 Z"/>
</svg>
