<svg xmlns="http://www.w3.org/2000/svg" width="32" height="32" viewBox="0 0 32 32">
  <path fill="currentColor" fill-rule="evenodd" d="M15.09375,8.80003164 L15.09375,2.40000004 C15.09375,1.90294374 15.4966937,1.5 15.99375,1.5 L20.8270834,1.5 C21.6578117,1.5 22.3312501,2.17343837 22.3312501,3.0041667 L22.3312501,5.42083337 C22.3312501,6.2515617 21.6578117,6.92500007 20.8270834,6.92500007 L16.8937501,6.92500007 L16.8937501,8.80264292 C19.9236801,9.199572 22.2839612,11.768604 22.3311488,14.9145018 L22.3312501,14.928 L22.3312501,16.90625 L27.775,16.90625 C29.2730724,16.90625 30.4875001,18.1206776 30.4875001,19.61875 L30.4875001,29.5875 C30.4875001,30.0845563 30.0845563,30.4875001 29.5875,30.4875001 L2.40000004,30.4875001 C1.90294374,30.4875001 1.5,30.0845563 1.5,29.5875 L1.5,19.61875 C1.5,18.1206776 2.71442763,16.90625 4.21250004,16.90625 L9.65633749,16.90625 L9.65635123,14.9145018 C9.70364359,11.7616204 12.0743105,9.1881689 15.09375,8.80003164 Z M15.9784726,10.549873 C13.5174227,10.5145956 11.4930673,12.4802184 11.4562501,14.928 L11.4562501,28.6875 L13.2816719,28.6875 L13.2835102,24.7665478 C13.3836742,23.355885 14.58742,22.2850142 15.99375,22.3426087 C17.4000801,22.2850142 18.6038259,23.355885 18.7039899,24.7665478 L18.7062501,24.8302917 L18.7062501,28.6875 L20.53125,28.6875 L20.53125,14.9350535 C20.4911291,12.4908681 18.4910089,10.5371142 16.025116,10.5494055 C16.0147046,10.5498203 16.0042483,10.5500001 15.99375,10.5500001 C15.9886475,10.5500001 15.983555,10.5499576 15.9784726,10.549873 L15.9784726,10.549873 Z M9.65625621,28.6875 L9.65632507,18.7062501 L4.21250004,18.7062501 C3.70854022,18.7062501 3.30000007,19.1147902 3.30000007,19.61875 L3.30000007,28.6875 L9.65625621,28.6875 Z M22.3312501,18.7062501 L22.3312501,28.6875 L28.6875,28.6875 L28.6875,19.61875 C28.6875,19.1147902 28.2789599,18.7062501 27.775,18.7062501 L22.3312501,18.7062501 Z M16.8937501,3.30000007 L16.8937501,5.125 L20.53125,5.125 L20.53125,3.30000007 L16.8937501,3.30000007 L16.8937501,3.30000007 Z M16.90625,28.6875 L16.90625,24.8680258 C16.8619171,24.4370699 16.4848819,24.115049 16.0494001,24.1420279 L15.9381,24.1420279 C15.4939006,24.1145089 15.1105113,24.4501023 15.0812501,24.8302917 L15.0812501,28.6875 L16.90625,28.6875 Z M15.99375,17.8000001 C14.5177,17.8000001 13.321125,16.6034251 13.321125,15.127375 C13.321125,13.651325 14.5177,12.45475 15.99375,12.45475 C17.4698001,12.45475 18.6663751,13.651325 18.6663751,15.127375 C18.6663751,16.6034251 17.4698001,17.8000001 15.99375,17.8000001 Z M15.99375,16 C16.4756875,16 16.866375,15.6093125 16.866375,15.127375 C16.866375,14.6454376 16.4756875,14.2547501 15.99375,14.2547501 C15.5118126,14.2547501 15.1211251,14.6454376 15.1211251,15.127375 C15.1211251,15.6093125 15.5118126,16 15.99375,16 Z M6.02500004,22.3312501 C5.52794374,22.3312501 5.125,21.9283063 5.125,21.43125 C5.125,20.9341937 5.52794374,20.53125 6.02500004,20.53125 L6.93125004,20.53125 C7.42830633,20.53125 7.83125007,20.9341937 7.83125007,21.43125 C7.83125007,21.9283063 7.42830633,22.3312501 6.93125004,22.3312501 L6.02500004,22.3312501 Z M6.02500004,26.8625001 C5.52794374,26.8625001 5.125,26.4595563 5.125,25.9625 C5.125,25.4654437 5.52794374,25.0625 6.02500004,25.0625 L6.93125004,25.0625 C7.42830633,25.0625 7.83125007,25.4654437 7.83125007,25.9625 C7.83125007,26.4595563 7.42830633,26.8625001 6.93125004,26.8625001 L6.02500004,26.8625001 Z M25.05625,22.3312501 C24.5591937,22.3312501 24.15625,21.9283063 24.15625,21.43125 C24.15625,20.9341937 24.5591937,20.53125 25.05625,20.53125 L25.9625,20.53125 C26.4595563,20.53125 26.8625001,20.9341937 26.8625001,21.43125 C26.8625001,21.9283063 26.4595563,22.3312501 25.9625,22.3312501 L25.05625,22.3312501 Z M25.05625,26.8625001 C24.5591937,26.8625001 24.15625,26.4595563 24.15625,25.9625 C24.15625,25.4654437 24.5591937,25.0625 25.05625,25.0625 L25.9625,25.0625 C26.4595563,25.0625 26.8625001,25.4654437 26.8625001,25.9625 C26.8625001,26.4595563 26.4595563,26.8625001 25.9625,26.8625001 L25.05625,26.8625001 Z"/>
</svg>
