<svg xmlns="http://www.w3.org/2000/svg" width="32" height="32" viewBox="0 0 32 32">
  <path fill="currentColor" fill-rule="evenodd" d="M3.30000007,24.5375 L28.6875,24.5375 L28.6875,19.0625 C28.6875,18.5654437 29.0904437,18.1625 29.5875,18.1625 C30.0845563,18.1625 30.4875001,18.5654437 30.4875001,19.0625 L30.4875001,29.9910714 C30.4875001,30.4881277 30.0845563,30.8910715 29.5875,30.8910715 C29.0904437,30.8910715 28.6875,30.4881277 28.6875,29.9910714 L28.6875,26.3375 L3.30000007,26.3375 L3.30000007,29.9910714 C3.30000007,30.4881277 2.89705633,30.8910715 2.40000004,30.8910715 C1.90294374,30.8910715 1.5,30.4881277 1.5,29.9910714 L1.5,14.5089286 C1.5,14.0118723 1.90294374,13.6089285 2.40000004,13.6089285 C2.89705633,13.6089285 3.30000007,14.0118723 3.30000007,14.5089286 L3.30000007,24.5375 Z M8.74375004,22.6946429 C6.74417686,22.6946429 5.125,21.0674898 5.125,19.0625 C5.125,17.0575102 6.74417686,15.4303571 8.74375004,15.4303571 C10.7433232,15.4303571 12.3625001,17.0575102 12.3625001,19.0625 C12.3625001,21.0674898 10.7433232,22.6946429 8.74375004,22.6946429 Z M8.74375004,20.8946428 C9.74722519,20.8946428 10.5625,20.0753519 10.5625,19.0625 C10.5625,18.0496481 9.74722519,17.2303572 8.74375004,17.2303572 C7.74027488,17.2303572 6.92500007,18.0496481 6.92500007,19.0625 C6.92500007,20.0753519 7.74027488,20.8946428 8.74375004,20.8946428 Z M15.0870981,22.6946428 C14.5901988,22.6944209 14.1874999,22.2915422 14.1874999,21.7946429 L14.1874999,17.4977845 C14.1871915,16.9409819 14.4424715,16.4147005 14.8801711,16.0711221 C15.3190508,15.7266175 15.8921499,15.6044642 16.4329253,15.7404021 L23.5442427,17.5266857 C25.4970717,18.0178705 26.8647794,19.7807859 26.8625046,21.8005149 C26.8619415,22.2973316 26.4589172,22.6997218 25.9621003,22.6995 L15.0870981,22.6946428 Z M24.9044236,20.8990273 C24.6156359,20.107838 23.953619,19.4857191 23.1054498,19.2723836 L15.9942545,17.4861307 C15.9935198,17.485946 15.9927375,17.4861127 15.9915928,17.4870113 C15.989268,17.4888362 15.9875001,17.4924861 15.9875001,17.4972857 L15.9875001,20.8950447 L24.9044236,20.8990273 Z M16.9080984,5.03147871 L18.9332814,2.5 L17.49375,2.5 C17.0795365,2.5 16.74375,2.16421356 16.74375,1.75 C16.74375,1.33578644 17.0795365,1 17.49375,1 L20.49375,1 C21.1226297,1 21.4722596,1.72744878 21.0794016,2.21852129 L19.0542187,4.75 L20.49375,4.75 C20.9079636,4.75 21.24375,5.08578644 21.24375,5.5 C21.24375,5.91421356 20.9079636,6.25 20.49375,6.25 L17.49375,6.25 C16.8648704,6.25 16.5152404,5.52255122 16.9080984,5.03147871 Z M10.9175841,11.7698617 L13.6424688,8.5 L11.49375,8.5 C11.0795365,8.5 10.74375,8.16421356 10.74375,7.75 C10.74375,7.33578644 11.0795365,7 11.49375,7 L15.24375,7 C15.8796283,7 16.2269953,7.74164311 15.819916,8.2301383 L13.0950312,11.5 L15.24375,11.5 C15.6579636,11.5 15.99375,11.8357864 15.99375,12.25 C15.99375,12.6642136 15.6579636,13 15.24375,13 L11.49375,13 C10.8578718,13 10.5105047,12.2583569 10.9175841,11.7698617 Z"/>
</svg>
