<svg xmlns="http://www.w3.org/2000/svg" width="32" height="32" viewBox="0 0 32 32">
  <path fill="currentColor" fill-rule="evenodd" d="M6.93125004,12.3625001 C4.93266958,12.3625001 3.3125,10.7423305 3.3125,8.74375004 C3.3125,6.74516958 4.93266958,5.125 6.93125004,5.125 C8.92983049,5.125 10.5500001,6.74516958 10.5500001,8.74375004 C10.5500001,10.7423305 8.92983049,12.3625001 6.93125004,12.3625001 Z M6.93125004,10.5625 C7.9357179,10.5625 8.75,9.7482179 8.75,8.74375004 C8.75,7.73928217 7.9357179,6.92500007 6.93125004,6.92500007 C5.92678217,6.92500007 5.11250007,7.73928217 5.11250007,8.74375004 C5.11250007,9.7482179 5.92678217,10.5625 6.93125004,10.5625 Z M4.22569991,27.8866313 L3.41799601,21.4250001 L2.40000004,21.4250001 C1.90294374,21.4250001 1.5,21.0220563 1.5,20.525 L1.5,17.80625 C1.5,14.8066535 3.93165347,12.375 6.93125004,12.375 C7.42830633,12.375 7.83125007,12.7779437 7.83125007,13.275 C7.83125007,13.7720563 7.42830633,14.1750001 6.93125004,14.1750001 C4.92576606,14.1750001 3.30000007,15.8007661 3.30000007,17.80625 L3.30000007,19.625 L4.21250004,19.625 C4.666391,19.625 5.04925192,19.9629828 5.10555016,20.4133688 L5.91325406,26.875 L8.74375004,26.875 C9.24080633,26.875 9.64375007,27.2779437 9.64375007,27.775 C9.64375007,28.2720563 9.24080633,28.6750001 8.74375004,28.6750001 L5.11875004,28.6750001 C4.66485908,28.6750001 4.28199816,28.3370173 4.22569991,27.8866313 Z M25.05625,12.3625001 C23.0576696,12.3625001 21.4375,10.7423305 21.4375,8.74375004 C21.4375,6.74516958 23.0576696,5.125 25.05625,5.125 C27.0548305,5.125 28.6750001,6.74516958 28.6750001,8.74375004 C28.6750001,10.7423305 27.0548305,12.3625001 25.05625,12.3625001 Z M25.05625,10.5625 C26.0607179,10.5625 26.875,9.7482179 26.875,8.74375004 C26.875,7.73928217 26.0607179,6.92500007 25.05625,6.92500007 C24.0517822,6.92500007 23.2375001,7.73928217 23.2375001,8.74375004 C23.2375001,9.7482179 24.0517822,10.5625 25.05625,10.5625 Z M28.6875,19.625 L28.6875,17.80625 C28.6875,15.8007661 27.061734,14.1750001 25.05625,14.1750001 C24.5591937,14.1750001 24.15625,13.7720563 24.15625,13.275 C24.15625,12.7779437 24.5591937,12.375 25.05625,12.375 C28.0558466,12.375 30.4875001,14.8066535 30.4875001,17.80625 L30.4875001,20.525 C30.4875001,21.0220563 30.0845563,21.4250001 29.5875,21.4250001 L28.5695041,21.4250001 L27.7618002,27.8866313 C27.7055019,28.3370173 27.322641,28.6750001 26.86875,28.6750001 L23.24375,28.6750001 C22.7466937,28.6750001 22.34375,28.2720563 22.34375,27.775 C22.34375,27.2779437 22.7466937,26.875 23.24375,26.875 L26.074246,26.875 L26.8819499,20.4133688 C26.9382482,19.9629828 27.3211091,19.625 27.775,19.625 L28.6875,19.625 Z M15.99375,10.5500001 C13.4946615,10.5500001 11.46875,8.52408855 11.46875,6.02500004 C11.46875,3.52591152 13.4946615,1.5 15.99375,1.5 C18.4928385,1.5 20.5187501,3.52591152 20.5187501,6.02500004 C20.5187501,8.52408855 18.4928385,10.5500001 15.99375,10.5500001 Z M15.99375,8.75 C17.498726,8.75 18.71875,7.52997596 18.71875,6.02500004 C18.71875,4.52002411 17.498726,3.30000007 15.99375,3.30000007 C14.4887741,3.30000007 13.2687501,4.52002411 13.2687501,6.02500004 C13.2687501,7.52997596 14.4887741,8.75 15.99375,8.75 Z M12.3794665,29.6770534 L11.5542612,21.4250001 L9.65000004,21.4250001 C9.15294374,21.4250001 8.75,21.0220563 8.75,20.525 L8.75,17.80625 C8.75,13.8056374 11.9931374,10.5625 15.99375,10.5625 C19.9943627,10.5625 23.2375001,13.8056374 23.2375001,17.80625 L23.2375001,20.525 C23.2375001,21.0220563 22.8345563,21.4250001 22.3375,21.4250001 L20.4332389,21.4250001 L19.6080335,29.6770534 C19.5620254,30.137135 19.1748764,30.4875001 18.7125,30.4875001 L13.275,30.4875001 C12.8126237,30.4875001 12.4254747,30.137135 12.3794665,29.6770534 Z M21.4375,19.625 L21.4375,17.80625 C21.4375,14.7997499 19.0002501,12.3625001 15.99375,12.3625001 C12.9872499,12.3625001 10.5500001,14.7997499 10.5500001,17.80625 L10.5500001,19.625 L12.36875,19.625 C12.8311264,19.625 13.2182754,19.975365 13.2642835,20.4354467 L14.0894889,28.6875 L17.8980112,28.6875 L18.7232165,20.4354467 C18.7692247,19.975365 19.1563737,19.625 19.61875,19.625 L21.4375,19.625 Z"/>
</svg>
