<svg xmlns="http://www.w3.org/2000/svg" width="32" height="32" viewBox="0 0 32 32">
  <path fill="currentColor" fill-rule="evenodd" d="M16.0728963,11.2108538 C16.272759,11.1985817 16.4659007,11.1305521 16.6233473,11.0088091 C19.6484145,8.45212186 23.3201547,6.77949842 27.2468219,6.17318496 C28.0660531,6.05815486 28.8948758,6.30439932 29.5184044,6.84807547 C30.141933,7.39175163 30.49876,8.17931622 30.4963879,9.00396462 L30.4963879,22.5598547 C30.4970076,23.9852172 29.4408631,25.1901786 28.0225108,25.3770365 C24.2496604,25.8519241 20.6960774,27.4128362 17.7939194,29.8699476 L17.7632946,29.8947533 C17.2637259,30.2817149 16.6686221,30.4824462 16.0665275,30.494185 C16.0445599,30.4957788 16.0223752,30.4965896 16,30.4965896 C15.9743218,30.4965896 15.948892,30.4955216 15.9237536,30.4934275 C15.321787,30.4753106 14.7198242,30.2684096 14.2061106,29.8699713 C11.3029936,27.4122491 7.74812145,25.8512995 3.96866387,25.3763664 C2.55551397,25.1901786 1.49936948,23.9852172 1.5,22.5602563 L1.5,9.00489228 C1.49915564,8.17855448 1.8566466,7.39244587 2.47997923,6.84995965 C3.10331187,6.30747343 3.93124057,6.06191163 4.76182055,6.1786178 C8.67446274,6.78269167 12.3447732,8.45395091 15.3400221,10.9850087 C15.5163815,11.1218693 15.7248459,11.1962384 15.9332994,11.210382 C15.9553242,11.2087797 15.9775674,11.2079646 16,11.2079646 C16.0245394,11.2079646 16.0488501,11.2089399 16.0728963,11.2108538 L16.0728963,11.2108538 Z M15.093751,28.251048 L15.093751,12.8719064 C14.7791284,12.7677749 14.4764587,12.6083711 14.1996257,12.3932849 C11.4298144,10.0536693 8.06850457,8.52311211 4.49753352,7.97170309 C4.19911505,7.92980259 3.89718934,8.01935308 3.66987489,8.21718478 C3.44256045,8.41501648 3.31219208,8.70169141 3.31250048,9.00396462 L3.31250048,22.5606579 C3.31227247,23.0762145 3.69428218,23.5120516 4.20003114,23.5787024 C8.21275103,24.0829302 11.9986311,25.7117691 15.093751,28.251048 Z M16.906251,12.8747013 L16.906251,28.2507771 C20.0230925,25.7026273 23.7967008,24.0821369 27.7909555,23.5793962 C28.3020949,23.5120516 28.6841046,23.0762145 28.6838841,22.5602563 L28.6838841,9.00134888 C28.6847506,8.69966552 28.5546243,8.41245962 28.3272384,8.21419399 C28.0998525,8.01592835 27.7976008,7.92612891 27.511148,7.96626425 C23.9263296,8.51987193 20.5637105,10.0516784 17.7639387,12.4169205 C17.5003354,12.621485 17.2100979,12.7742069 16.906251,12.8747013 Z M25.4707205,1.52735203 C25.956241,1.4057865 26.4483814,1.70083027 26.5699469,2.18635075 C26.6915125,2.67187122 26.3964687,3.16401167 25.9109482,3.28557721 C22.9277536,4.03251513 20.1513618,5.44246341 17.7639387,7.43012885 C16.7237938,8.23731415 15.2689583,8.23731415 14.2042173,7.41034574 C11.844724,5.44391008 9.07244367,4.03443689 6.09336663,3.28665505 C5.60791822,3.16480204 5.31316592,2.67248697 5.43501893,2.18703856 C5.55687193,1.70159016 6.04918701,1.40683785 6.53463541,1.52869086 C9.77784625,2.34277325 12.7959252,3.87721451 15.3400221,5.99821706 C15.726262,6.29795142 16.2664901,6.29795142 16.6283656,6.0178072 C19.2008038,3.8753499 22.2231988,2.34047265 25.4707205,1.52735203 Z"/>
</svg>
