<svg xmlns="http://www.w3.org/2000/svg" width="32" height="32" viewBox="0 0 32 32">
  <path fill="currentColor" fill-rule="evenodd" d="M9.80000007,10.5500001 L9.80000007,12.3065932 C9.9675032,13.4682159 10.4922232,14.5416211 11.2948169,15.3658876 C11.6350611,15.7153195 11.6350611,16.2721805 11.2948169,16.6216125 C10.4922232,17.445879 9.9675032,18.5192842 9.80000007,19.6809069 L9.80000007,25.9625 C9.80000007,27.4744056 10.9712637,28.6875 12.4,28.6875 L19.4,28.6875 C20.8287364,28.6875 22,27.4744056 22,25.9625 L22,19.6809069 C21.8324969,18.5192842 21.3077769,17.445879 20.5051832,16.6216125 C20.1649389,16.2721805 20.1649389,15.7153195 20.5051832,15.3658876 C21.3077769,14.5416211 21.8324969,13.4682159 22,12.3065932 L22,10.5500001 L9.80000007,10.5500001 Z M9.94498988,8.75 L21.8550102,8.75 C21.4994445,7.68422906 20.5302934,6.92500007 19.4,6.92500007 L12.4,6.92500007 C11.2697066,6.92500007 10.3005555,7.68422906 9.94498988,8.75 L9.94498988,8.75 Z M16.8000001,5.125 L19.4,5.125 C21.8372569,5.125 23.8000001,7.15784114 23.8000001,9.65000004 L23.8000001,12.36875 L23.7920537,12.4880827 C23.6200112,13.7741613 23.115991,14.9839832 22.3387928,15.99375 C23.115991,17.0035168 23.6200112,18.2133388 23.7920537,19.4994174 L23.8000001,19.61875 L23.8000001,25.9625 C23.8000001,28.4546589 21.8372569,30.4875001 19.4,30.4875001 L12.4,30.4875001 C9.96274317,30.4875001 8,28.4546589 8,25.9625 L8,19.61875 L8.00794634,19.4994174 C8.17998883,18.2133388 8.68400903,17.0035168 9.46120724,15.99375 C8.68400903,14.9839832 8.17998883,13.7741613 8.00794634,12.4880827 L8,12.36875 L8,9.65000004 C8,7.15784114 9.96274317,5.125 12.4,5.125 L15,5.125 L15,2.40000004 C15,1.90294374 15.4029437,1.5 15.9,1.5 C16.3970563,1.5 16.8000001,1.90294374 16.8000001,2.40000004 L16.8000001,5.125 Z M13.5025387,24.4311149 L16.4049944,21.4250001 L13.275,21.4250001 C12.4807756,21.4250001 12.0758748,20.4712311 12.6275387,19.8998649 L17.0025387,15.3686149 C17.3477913,15.0110319 17.9175521,15.0010361 18.2751351,15.3462887 C18.6327181,15.6915413 18.642714,16.2613021 18.2974614,16.6188851 L15.3950056,19.625 L18.525,19.625 C19.3192244,19.625 19.7241253,20.5787689 19.1724614,21.1501351 L14.7974614,25.6813851 C14.4522088,26.0389681 13.882448,26.048964 13.5248649,25.7037114 C13.1672819,25.3584588 13.1572861,24.788698 13.5025387,24.4311149 Z"/>
</svg>
