<svg xmlns="http://www.w3.org/2000/svg" width="32" height="32" viewBox="0 0 32 32">
  <path fill="currentColor" fill-rule="evenodd" d="M20.525,1.5 C23.0240885,1.5 25.0500001,3.52591152 25.0500001,6.02500004 C25.0500001,7.50637655 24.3381507,8.82149174 23.2378584,9.64693916 L23.2375001,28.68125 C23.2375001,29.6788144 22.4288144,30.4875001 21.43125,30.4875001 L6.93125004,30.4875001 C5.93368569,30.4875001 5.125,29.6788144 5.125,28.68125 L5.1250122,9.64502951 C5.1272132,9.19669242 5.42720914,8.75 6.02500004,8.75 L6.02500004,8.75 C7.52997596,8.75 8.75,7.52997596 8.75,6.02500004 C8.75,4.52002411 7.52997596,3.30000007 6.02500004,3.30000007 C4.52002411,3.30000007 3.30000007,4.52002411 3.30000007,6.02500004 L3.30000007,20.525 C3.30000007,21.0220563 2.89705633,21.4250001 2.40000004,21.4250001 C1.90294374,21.4250001 1.5,21.0220563 1.5,20.525 L1.5,6.02500004 C1.5,3.52591152 3.52591152,1.5 6.02500004,1.5 L20.525,1.5 Z M27.775,11.46875 C29.2730724,11.46875 30.4875001,12.6831776 30.4875001,14.18125 L30.4875001,25.9625 C30.4875001,26.1022206 30.4549695,26.2400224 30.3924845,26.3649923 L28.5799845,29.9899923 C28.2483127,30.653336 27.3016874,30.653336 26.9700155,29.9899923 L25.1575155,26.3649923 C25.0950306,26.2400224 25.0625,26.1022206 25.0625,25.9625 L25.0625,14.18125 C25.0625,12.6831776 26.2769276,11.46875 27.775,11.46875 Z M20.525,10.5500001 L6.925,10.55 L6.92500007,28.68125 C6.92500007,28.6847018 6.92779828,28.6875 6.93125004,28.6875 L21.4375,28.68125 L21.4381952,10.4578122 C21.1432415,10.5182556 20.8378279,10.5500001 20.525,10.5500001 Z M27.775,13.2687501 C27.2710402,13.2687501 26.8625001,13.6772902 26.8625001,14.18125 L26.8625001,25.7500388 L27.775,27.5750388 L28.6875,25.7500388 L28.6875,14.18125 C28.6875,13.6772902 28.2789599,13.2687501 27.775,13.2687501 Z M17.5363962,19.8886039 C17.887868,20.2400758 17.887868,20.8099243 17.5363962,21.1613962 L14.8176462,23.8801462 C14.4661743,24.231618 13.8963258,24.231618 13.5448539,23.8801462 L11.7323539,22.0676462 C11.380882,21.7161743 11.380882,21.1463258 11.7323539,20.7948539 C12.0838258,20.443382 12.6536743,20.443382 13.0051462,20.7948539 L14.18125,21.9709578 L16.2636039,19.8886039 C16.6150758,19.537132 17.1849243,19.537132 17.5363962,19.8886039 Z M17.5363962,13.5448539 C17.887868,13.8963258 17.887868,14.4661743 17.5363962,14.8176462 L14.8176462,17.5363962 C14.4661743,17.887868 13.8963258,17.887868 13.5448539,17.5363962 L11.7323539,15.7238962 C11.380882,15.3724243 11.380882,14.8025758 11.7323539,14.4511039 C12.0838258,14.099632 12.6536743,14.099632 13.0051462,14.4511039 L14.18125,15.6272078 L16.2636039,13.5448539 C16.6150758,13.193382 17.1849243,13.193382 17.5363962,13.5448539 Z M20.525,3.30000007 L9.63779864,3.30000007 C10.210413,4.05797875 10.5500001,5.00183199 10.5500001,6.02500004 C10.5500001,7.04816808 10.210413,7.99202132 9.63779864,8.75 L20.525,8.75 C22.029976,8.75 23.25,7.52997596 23.25,6.02500004 C23.25,4.52002411 22.029976,3.30000007 20.525,3.30000007 Z"/>
</svg>
