<svg xmlns="http://www.w3.org/2000/svg" width="40" height="40" viewBox="0 0 40 40">
  <path fill="currentColor" fill-rule="evenodd" d="M20,0 C31.045695,0 40,8.954305 40,20 C40,31.045695 31.045695,40 20,40 C8.954305,40 0,31.045695 0,20 C0,8.954305 8.954305,0 20,0 Z M20.3668088,11 L20.1365272,11.0031356 C15.6221883,11.1262138 11.9795728,14.8574355 11.7455656,19.5224743 L11.7387755,19.6888 L10.5165756,18.4778625 C10.1696411,18.1342359 9.60624215,18.1342359 9.2593077,18.4778625 C8.9135641,18.8203095 8.9135641,19.3746548 9.2593077,19.7171019 L11.9929252,22.4246554 C12.3398597,22.7682819 12.9032586,22.7682819 13.2501931,22.4246554 L15.9838106,19.7171019 C16.3295542,19.3746548 16.3295542,18.8203095 15.9838106,18.4778625 L15.906312,18.4094878 C15.557495,18.1359891 15.0486961,18.1587807 14.7265427,18.4778625 L13.5167347,19.676 L13.5211656,19.5737566 C13.7301603,15.7660469 16.7211861,12.7546793 20.3668088,12.7546793 C24.1474544,12.7546793 27.2241167,15.993242 27.2241167,20 C27.2241167,24.006758 24.1474544,27.2453207 20.3668088,27.2453207 C19.875924,27.2453207 19.4788671,27.6385918 19.4788671,28.1226604 C19.4788671,28.6067289 19.875924,29 20.3668088,29 C25.1409769,29 29,24.9655437 29,20 C29,15.0344563 25.1409769,11 20.3668088,11 Z"/>
</svg>
