<svg xmlns="http://www.w3.org/2000/svg" width="40" height="40" viewBox="0 0 40 40">
  <g fill="none" fill-rule="evenodd">
    <path fill="currentColor" d="M20,40 C8.954305,40 0,31.045695 0,20 C0,8.954305 8.954305,0 20,0 C31.045695,0 40,8.954305 40,20 C40,31.045695 31.045695,40 20,40 Z"/>
    <path fill="currentColor" d="M11.9999446,19.9747331 L5.50768935,23.4014551 C5.09070531,23.6215463 4.57495884,23.460592 4.35573735,23.0419536 C4.26844221,22.8752496 4.23831882,22.6843035 4.27003064,22.4986758 L5.50994106,15.2407622 L0.257596223,10.1006792 C-0.0797509517,9.77054239 -0.0866536826,9.22835472 0.242178542,8.88966916 C0.373121258,8.75480279 0.544695573,8.66703447 0.730339786,8.63995177 L7.98890183,7.58103644 L11.2350295,0.977568458 C11.4435215,0.553441458 11.9550018,0.37930532 12.3774528,0.588624508 C12.545675,0.671976507 12.6818372,0.808678862 12.7648598,0.977568458 L16.0109874,7.58103644 L23.2695494,8.63995177 C23.7357518,8.70796369 24.0587667,9.14252932 23.9910236,9.61058125 C23.9640479,9.79696199 23.8766264,9.969217 23.742293,10.1006792 L18.4899482,15.2407622 L19.7298586,22.4986758 C19.8094955,22.9648365 19.4976493,23.407549 19.0333308,23.4875018 C18.8484367,23.5193394 18.6582451,23.4890965 18.4921999,23.4014551 L11.9999446,19.9747331 Z" transform="translate(8 8)"/>
  </g>
</svg>
