<svg xmlns="http://www.w3.org/2000/svg" width="40" height="40" viewBox="0 0 40 40">
  <path fill="currentColor" fill-rule="evenodd" d="M20,0 C31.045695,0 40,8.954305 40,20 C40,31.045695 31.045695,40 20,40 C8.954305,40 0,31.045695 0,20 C0,8.954305 8.954305,0 20,0 Z M20,2 C10.0588745,2 2,10.0588745 2,20 C2,29.9411255 10.0588745,38 20,38 C29.9411255,38 38,29.9411255 38,20 C38,10.0588745 29.9411255,2 20,2 Z M24.9740546,17.1468486 L25.0871578,17.2191201 C25.5250708,17.5375717 25.6243199,18.098267 25.3385203,18.5218554 L25.2590217,18.6246766 L20.8594494,23.6246767 C20.4484732,24.0917405 19.6917847,24.1229093 19.2346714,23.7181555 L19.1415391,23.6247503 L14.741117,18.6247502 C14.3615844,18.1935045 14.4384652,17.5642088 14.9128352,17.2191789 C15.3507152,16.9006898 15.9742229,16.9357434 16.3660688,17.2822072 L16.4589625,17.3752865 L20.001137,21.3990184 L23.5410467,17.3753601 C23.8913432,16.9772571 24.5081076,16.8870306 24.9740546,17.1468486 Z"/>
</svg>
