<svg xmlns="http://www.w3.org/2000/svg" width="40" height="40" viewBox="0 0 40 40">
  <path fill="currentColor" fill-rule="evenodd" d="M20,0 C31.045695,0 40,8.954305 40,20 C40,31.045695 31.045695,40 20,40 C8.954305,40 0,31.045695 0,20 C0,8.954305 8.954305,0 20,0 Z M20,2 C10.0588745,2 2,10.0588745 2,20 C2,29.9411255 10.0588745,38 20,38 C29.9411255,38 38,29.9411255 38,20 C38,10.0588745 29.9411255,2 20,2 Z M18.5218371,15.1468303 L18.6246583,15.2191018 L23.6246583,19.2187155 C24.091722,19.5923304 24.1228908,20.2802295 23.7181371,20.6957873 L23.6247318,20.7804531 L18.6247318,24.7808394 C18.1934861,25.1258692 17.5641905,25.0559775 17.2191606,24.6247318 C16.9006715,24.2266589 16.9357251,23.6598333 17.2821889,23.3036095 L17.3752682,23.2191606 L21.399,19.999 L17.3753417,16.7808982 C16.9772388,16.4624466 16.8870123,15.9017514 17.1468303,15.4781629 L17.2191018,15.3753417 C17.5375534,14.9772388 18.0982486,14.8870123 18.5218371,15.1468303 Z"/>
</svg>
