<svg xmlns="http://www.w3.org/2000/svg" width="40" height="40" viewBox="0 0 40 40">
  <path fill="currentColor" fill-rule="evenodd" d="M20,0 C31.045695,0 40,8.954305 40,20 C40,31.045695 31.045695,40 20,40 C8.954305,40 0,31.045695 0,20 C0,8.954305 8.954305,0 20,0 Z M20,2 C10.0588745,2 2,10.0588745 2,20 C2,29.9411255 10.0588745,38 20,38 C29.9411255,38 38,29.9411255 38,20 C38,10.0588745 29.9411255,2 20,2 Z M20.7654026,16.2818445 L20.8585349,16.3752497 L25.258957,21.3752497 C25.6384896,21.8064954 25.5616088,22.4357911 25.0872388,22.7808209 C24.6493588,23.09931 24.0258511,23.0642565 23.6340052,22.7177927 L23.5411115,22.6247134 L19.998937,18.6009815 L16.4590273,22.6246398 C16.1087308,23.0227427 15.4919664,23.1129693 15.0260194,22.8531513 L14.9129162,22.7808798 C14.4750032,22.4624282 14.3757541,21.9017329 14.6615537,21.4781445 L14.7410523,21.3753233 L19.1406246,16.3753233 C19.5516008,15.9082595 20.3082893,15.8770907 20.7654026,16.2818445 Z"/>
</svg>
