<svg xmlns="http://www.w3.org/2000/svg" width="40" height="40" viewBox="0 0 40 40">
  <path fill="currentColor" fill-rule="evenodd" d="M20,0 C31.045695,0 40,8.954305 40,20 C40,31.045695 31.045695,40 20,40 C8.954305,40 0,31.045695 0,20 C0,8.954305 8.954305,0 20,0 Z M20,2 C10.0588745,2 2,10.0588745 2,20 C2,29.9411255 10.0588745,38 20,38 C29.9411255,38 38,29.9411255 38,20 C38,10.0588745 29.9411255,2 20,2 Z M22.7808025,15.3752681 C23.0992916,15.7733411 23.0642381,16.3401666 22.7177743,16.6963904 L22.624695,16.7808393 L18.6009631,20.0009999 L22.6246214,23.2191017 C23.0227244,23.5375533 23.1129509,24.0982486 22.8531329,24.521837 L22.7808614,24.6246582 C22.4624098,25.0227611 21.9017145,25.1129877 21.4781261,24.8531697 L21.3753049,24.7808982 L16.3753049,20.7812844 C15.9082411,20.4076695 15.8770723,19.7197704 16.2818261,19.3042126 L16.3752313,19.2195468 L21.3752313,15.2191606 C21.806477,14.8741307 22.4357727,14.9440224 22.7808025,15.3752681 Z"/>
</svg>
