<svg xmlns="http://www.w3.org/2000/svg" width="40" height="40" viewBox="0 0 40 40">
  <path fill="none" stroke="currentColor" d="M20,0.5 C25.3847763,0.5 30.2597763,2.68261184 33.7885822,6.21141777 C37.3173882,9.74022369 39.5,14.6152237 39.5,20 C39.5,25.3847763 37.3173882,30.2597763 33.7885822,33.7885822 C30.2597763,37.3173882 25.3847763,39.5 20,39.5 C14.6152237,39.5 9.74022369,37.3173882 6.21141777,33.7885822 C2.68261184,30.2597763 0.5,25.3847763 0.5,20 C0.5,14.6152237 2.68261184,9.74022369 6.21141777,6.21141777 C9.74022369,2.68261184 14.6152237,0.5 20,0.5 Z M20,1.5 L20,1.5 L19.5505135,1.50535356 C14.620412,1.62290969 10.1679001,3.66914896 6.91852455,6.91852455 C3.57068303,10.2663661 1.5,14.8913661 1.5,20 C1.5,25.1086339 3.57068303,29.7336339 6.91852455,33.0814755 C10.2663661,36.429317 14.8913661,38.5 20,38.5 C25.1086339,38.5 29.7336339,36.429317 33.0814755,33.0814755 C36.429317,29.7336339 38.5,25.1086339 38.5,20 C38.5,14.8913661 36.429317,10.2663661 33.0814755,6.91852455 C29.7336339,3.57068303 25.1086339,1.5 20,1.5 L20,1.5 Z"/>
</svg>
