<svg xmlns="http://www.w3.org/2000/svg" width="40" height="40" viewBox="0 0 40 40">
  <g fill="none" fill-rule="evenodd">
    <circle cx="20" cy="20" r="20" fill="currentColor"/>
    <path fill="currentColor" d="M20,8 C26.627417,8 32,13.372583 32,20 C32,26.627417 26.627417,32 20,32 C13.372583,32 8,26.627417 8,20 C8,13.372583 13.372583,8 20,8 Z M26.6994836,15.2853514 C26.3351549,14.9287537 25.7676591,14.9071083 25.3786613,15.2163223 L25.2853514,15.3005164 L18.056,22.686 L14.5840235,20.1882282 L14.4776506,20.1212941 C14.0413638,19.8834151 13.4859992,20.002117 13.1882633,20.4159414 C12.8905273,20.8297659 12.9544938,21.3940604 13.3187043,21.7321184 L13.4159765,21.8117017 L17.5857378,24.8117367 L17.6889598,24.8769036 C18.0385883,25.0689498 18.4705306,25.0338367 18.7844253,24.788883 L18.8844099,24.6994836 L26.7146486,16.6994836 L26.7968222,16.6043897 C27.0976229,16.2088502 27.0638124,15.6419491 26.6994836,15.2853514 Z"/>
  </g>
</svg>
