<svg xmlns="http://www.w3.org/2000/svg" width="40" height="40" viewBox="0 0 40 40">
  <path fill="currentColor" fill-rule="evenodd" d="M20,0 C31.045695,0 40,8.954305 40,20 C40,31.045695 31.045695,40 20,40 C8.954305,40 0,31.045695 0,20 C0,8.954305 8.954305,0 20,0 Z M20,2 C10.0588745,2 2,10.0588745 2,20 C2,29.9411255 10.0588745,38 20,38 C29.9411255,38 38,29.9411255 38,20 C38,10.0588745 29.9411255,2 20,2 Z M14.6128994,13.2097046 L14.7071068,13.2928932 L20,18.585 L25.2928932,13.2928932 C25.6834175,12.9023689 26.3165825,12.9023689 26.7071068,13.2928932 C27.0675907,13.6533772 27.0953203,14.2206082 26.7902954,14.6128994 L26.7071068,14.7071068 L21.415,20 L26.7071068,25.2928932 C27.0976311,25.6834175 27.0976311,26.3165825 26.7071068,26.7071068 C26.3466228,27.0675907 25.7793918,27.0953203 25.3871006,26.7902954 L25.2928932,26.7071068 L20,21.415 L14.7071068,26.7071068 C14.3165825,27.0976311 13.6834175,27.0976311 13.2928932,26.7071068 C12.9324093,26.3466228 12.9046797,25.7793918 13.2097046,25.3871006 L13.2928932,25.2928932 L18.585,20 L13.2928932,14.7071068 C12.9023689,14.3165825 12.9023689,13.6834175 13.2928932,13.2928932 C13.6533772,12.9324093 14.2206082,12.9046797 14.6128994,13.2097046 Z"/>
</svg>
