<svg xmlns="http://www.w3.org/2000/svg" width="40" height="40" viewBox="0 0 40 40">
  <g fill="none" fill-rule="evenodd">
    <path fill="currentColor" d="M20,0 C31.045695,0 40,8.954305 40,20 C40,31.045695 31.045695,40 20,40 C8.954305,40 0,31.045695 0,20 C0,8.954305 8.954305,0 20,0 Z"/>
    <path fill="currentColor" d="M17.6347823 21.6584145C17.8456726 22.099197 17.6581297 22.6269202 17.2158936 22.8371173 15.6126714 23.599137 13.8537627 24 12.0395117 24 11.6510611 24 11.2647217 23.9816352 10.8813851 23.9451356 10.3936591 23.8986965 10.0360494 23.4669697 10.0826417 22.9808469 10.1292339 22.494724 10.5623844 22.1382898 11.0501105 22.1847289 11.377386 22.2158906 11.7074199 22.2315789 12.0395117 22.2315789 13.5880949 22.2315789 15.0862465 21.8901436 16.4521922 21.2409027 16.8944283 21.0307055 17.423892 21.2176319 17.6347823 21.6584145zM3.41221844 17.5471421C4.44394529 19.1376588 5.90223198 20.4187867 7.61629708 21.2358883 8.05829195 21.446589 8.24522961 21.9745255 8.03383405 22.4150675 7.82243848 22.8556095 7.29276089 23.0419327 6.85076602 22.831232 4.8404562 21.8729094 3.13163595 20.3716838 1.92225721 18.5072978 1.65624313 18.0972088 1.77413529 17.5498278 2.18557672 17.2846882 2.59701815 17.0195485 3.14620436 17.1370531 3.41221844 17.5471421zM23.1162566 13.5775943C23.5943543 13.684341 23.8951084 14.157177 23.7880097 14.6337032 23.2986827 16.8109198 22.2077631 18.7980348 20.6519041 20.3853225 20.3095173 20.7346257 19.7478579 20.7411448 19.3974028 20.3998834 19.0469477 20.058622 19.040407 19.4988088 19.3827939 19.1495056 20.7100063 17.7954832 21.6398312 16.1018029 22.0566648 14.2471393 22.1637635 13.7706131 22.6381589 13.4708476 23.1162566 13.5775943zM1.72317217 7.67744495C2.18848816 7.830331 2.44135394 8.33024286 2.28796369 8.79402933 1.94763858 9.8230268 1.77419607 10.9016768 1.77424824 12.0348291 1.77688144 12.8238599 1.86899217 13.6004243 2.04708854 14.3544432 2.15936234 14.8297845 1.86376715 15.3058415 1.38685821 15.4177463.909949266 15.529651.432322287 15.2350275.320048492 14.7596862.111090017 13.8750042.00308772956 12.9644617-1.62879107e-8 12.0378145-.0000664899288 10.7137954.203434747 9.4482083.602905411 8.24037997.756295662 7.7765935 1.25785617 7.5245589 1.72317217 7.67744495zM21.4578886 4.52427034C22.8438638 6.25682369 23.7272278 8.33902982 23.9936598 10.5637979 24.0517293 11.0486918 23.7044234 11.4886959 23.2179304 11.5465746 22.7314374 11.6044532 22.2899822 11.258289 22.2319127 10.7733951 22.0048885 8.87769134 21.2524511 7.10409656 20.0706257 5.62674296 19.7651823 5.24492012 19.8281209 4.68859464 20.2112029 4.38415523 20.594285 4.07971582 21.1524452 4.14244749 21.4578886 4.52427034zM9.01841183 1.26013388C9.18770907 1.71838992 8.95223655 2.22667125 8.49246923 2.39541199 6.7083276 3.05021581 5.1401345 4.19194105 3.96532484 5.68095972 3.6624647 6.0648214 3.10474043 6.13129314 2.71961281 5.82942852 2.3344852 5.52756389 2.26779424 4.97167289 2.57065439 4.58781121 3.94755511 2.84265117 5.78585225 1.50427629 7.87938969.735920076 8.33915701.567179326 8.8491146.801877841 9.01841183 1.26013388zM12.0395117 0C14.3021391 0 16.47479.623948815 18.3590542 1.78419643 18.7758735 2.04085561 18.9050229 2.58570717 18.6475172 3.00115645 18.3900116 3.41660573 17.8433632 3.54533053 17.4265438 3.28867135 15.820532 2.29975934 13.97036 1.76842105 12.0395117 1.76842105 11.5495653 1.76842105 11.1523852 1.37254652 11.1523852.884210526 11.1523852.395874537 11.5495653 0 12.0395117 0zM14.7148827 7.95789474C15.4770714 7.95789474 16.0949474 8.57373979 16.0949474 9.33342316L16.0949474 14.6665768C16.0949474 15.4262602 15.4770714 16.0421053 14.7148827 16.0421053L9.36414082 16.0421053C8.60195209 16.0421053 7.98407605 15.4262602 7.98407605 14.6665768L7.98407605 9.33342316C7.98407605 8.57373979 8.60195209 7.95789474 9.36414082 7.95789474L14.7148827 7.95789474z" transform="translate(8 8)"/>
  </g>
</svg>
