<svg xmlns="http://www.w3.org/2000/svg" width="40" height="40" viewBox="0 0 40 40">
  <path fill="currentColor" fill-rule="evenodd" d="M20,0 C31.045695,0 40,8.954305 40,20 C40,31.045695 31.045695,40 20,40 C8.954305,40 0,31.045695 0,20 C0,8.954305 8.954305,0 20,0 Z M20,2 C10.0588745,2 2,10.0588745 2,20 C2,29.9411255 10.0588745,38 20,38 C29.9411255,38 38,29.9411255 38,20 C38,10.0588745 29.9411255,2 20,2 Z M24,11.5 C24.5128358,11.5 24.9355072,11.8860402 24.9932723,12.3833789 L25,12.5 L25,27.5 C25,28.0522847 24.5522847,28.5 24,28.5 C23.4871642,28.5 23.0644928,28.1139598 23.0067277,27.6166211 L23,27.5 L23,12.5 C23,11.9477153 23.4477153,11.5 24,11.5 Z M16,11.5 C16.5128358,11.5 16.9355072,11.8860402 16.9932723,12.3833789 L17,12.5 L17,27.5 C17,28.0522847 16.5522847,28.5 16,28.5 C15.4871642,28.5 15.0644928,28.1139598 15.0067277,27.6166211 L15,27.5 L15,12.5 C15,11.9477153 15.4477153,11.5 16,11.5 Z"/>
</svg>
