<svg xmlns="http://www.w3.org/2000/svg" width="166" height="51" viewBox="0 0 166 51">
    <path fill="#FFF" fill-rule="evenodd" d="M13.478 50.42c-4.15-1.282-4.653-5.146-3.232-8.272 1.181-2.6 3.208-3.818 3.828-4.35a.232.232 0 0 0 .05-.276c-1.366-2.44-5.494-7.978-6.941-10-1.04-1.448-6.38-8.11-6.989-13.6-.29-2.622-.327-3.776.401-5.876C1.672 4.912 3.52 2.524 6.53 1.15l.07-.03C9.65-.178 12.342-.388 15.18.7c2.232.854 3.007 1.532 3.81 2.326 1.489 1.48 2.491 2.582 3.343 5.6a.136.136 0 0 0 .18.092c2.206-.818 3.43-1.442 5.997-.928 2.867.574 6.183 2.67 7.017 7.118.776 4.132-.942 7.882-2.782 9.574-3.675 3.376-10.78 7.492-12.845 8.568a.556.556 0 0 1-.748-.236l-1.981-3.288a.461.461 0 0 1 .186-.614c1.24-.658 6.616-3.476 8.443-4.736 2.706-1.874 4.687-3.504 5.012-5.86.475-3.366-1.462-5.182-2.89-5.536-2.379-.6-4.045.358-5.396 1.082-.736.4-2.424 1.248-2.424 1.248-.39.238-1.157 0-1.235-.454 0 0-.59-2.09-.758-2.8a10.946 10.946 0 0 0-2.536-5c-.262-.306-2.033-2.106-5.676-1.328A5.555 5.555 0 0 0 5.723 9.56c-.37 1.324-.4 3 .119 5.164.727 3.076 3.348 6.6 4.827 8.942 1.618 2.562 5.955 8.374 7.937 11.8.037.06.223.084.287.058 1.522-.656 8.755-5 9.01-5.102a.431.431 0 0 1 .565.218l1.83 3.13c.129.288-.086.624-.376.75-.662.288-8.46 5.046-8.822 5.2a.13.13 0 0 0-.084.164c.2.464 1.121 2.124 1.227 4.02.199 3.536-2.768 8.37-8.765 6.516zm3.16-3.856c.888-.618 1.403-1.824.986-3.222-.162-.67-.772-2.282-.772-2.282s-1.203.912-1.7 1.344c-1.203 1.056-1.604 2.03-1.247 3.114.475 1.208 1.75 1.632 2.733 1.046zM50.136 18.72h6.334v4.646h-6.334v13.426H45.23V4.272h12.98v4.646h-8.073v9.802zM61.29 4.272h4.906v32.52H61.29V4.272zm7.767 0h15.169v4.646H79.08v27.874h-4.9V8.918h-5.124V4.272zm40.323 7.478v1.162c0 3.344-.98 5.48-3.167 6.55 2.632 1.068 3.658 3.53 3.658 6.968v2.648c0 5.018-2.542 7.712-7.45 7.712h-7.718V4.272h7.406c5.086 0 7.271 2.462 7.271 7.478zm-9.77-2.832v8.6h1.925c1.829 0 2.943-.836 2.943-3.438v-1.812c0-2.322-.757-3.344-2.498-3.344l-2.37-.006zm0 13.24v9.992h2.807c1.65 0 2.543-.79 2.543-3.2v-2.844c0-3.018-.937-3.948-3.168-3.948H99.61zm13.517-10.082c0-5.2 2.633-8.176 7.45-8.176 4.818 0 7.45 2.974 7.45 8.176v16.912c0 5.2-2.63 8.176-7.45 8.176s-7.45-2.974-7.45-8.176V12.076zm4.908 17.236c0 2.324.982 3.2 2.542 3.2 1.56 0 2.544-.882 2.544-3.2V11.75c0-2.324-.982-3.2-2.544-3.2s-2.542.882-2.542 3.2v17.562zm13.875-25.04h7.761c4.908 0 7.318 2.834 7.318 8.038v16.44c0 5.2-2.406 8.038-7.318 8.038h-7.76V4.272zm4.91 4.646V32.15h2.767c1.562 0 2.498-.836 2.498-3.158V12.076c0-2.322-.936-3.158-2.498-3.158h-2.767zm17.932 17.096L148.55 4.272h5.13l3.747 14.82 3.747-14.82h4.683l-6.2 21.742v10.778h-4.906V26.014zm-103.039 22.1h-1.89l-.568-2.884a20.673 20.673 0 0 1-.126-.72c-.058-.36-.102-.66-.128-.902-.022.2-.056.44-.107.732-.05.292-.096.558-.142.8l-.59 2.97h-1.89l-1.473-6.616h1.543l.644 3.318c.147.735.247 1.32.3 1.754.035-.308.097-.726.187-1.256.092-.528.176-.964.255-1.312l.52-2.504h1.484l.506 2.504c.086.4.174.864.262 1.39.089.526.149.918.179 1.178.036-.336.132-.916.288-1.744l.656-3.328h1.544l-1.454 6.62zm3.667 0v-6.62h1.604v6.62h-1.604zm6.943 0h-1.604V42.95h-1.446v-1.462h4.491v1.462h-1.441v5.164zm8.805 0h-1.604v-2.698h-1.87v2.698h-1.604v-6.62h1.604v2.456h1.858v-2.456h1.604l.012 6.62zm10.313 0l-.29-1.24h-1.925l-.3 1.24h-1.757l1.932-6.648h2.133l1.957 6.648h-1.75zm-.624-2.708l-.254-1.086a35.9 35.9 0 0 1-.217-.938 17.001 17.001 0 0 1-.168-.824c-.024.154-.072.4-.145.76-.072.36-.23 1.05-.475 2.088h1.26zm10.093 2.708h-2.097L86.65 43.45h-.038c.052.734.079 1.294.079 1.68v2.984h-1.418v-6.62h2.09l2.154 4.6h.024c-.038-.666-.057-1.2-.056-1.6v-3h1.424v6.62zm8.362 0h-2.1l-2.16-4.664h-.039c.053.734.079 1.294.079 1.68v2.984h-1.418v-6.62h2.087l2.155 4.6h.025c-.038-.666-.057-1.2-.057-1.6v-3h1.426l.002 6.62zm6.355 0l-.293-1.24h-1.922l-.3 1.24h-1.757l1.93-6.648h2.136l1.954 6.648h-1.748zm-.623-2.708l-.261-1.086c-.058-.242-.13-.554-.217-.938a17 17 0 0 1-.168-.824c-.024.154-.072.4-.142.76-.07.36-.23 1.05-.477 2.088h1.265zm11.738-3.912h1.788l-1.938 6.62h-1.883l-1.933-6.62h1.805l.802 3.356c.127.512.219 1.032.274 1.556a14.815 14.815 0 0 1 .263-1.546l.822-3.366zm3.871 6.62v-6.62h1.604v6.62h-1.604zm6.967-5.248a1.003 1.003 0 0 0-.89.522 2.77 2.77 0 0 0-.32 1.442c0 1.275.433 1.912 1.3 1.912.26 0 .516-.04.762-.122.252-.085.499-.183.74-.294v1.512a3.733 3.733 0 0 1-1.676.366c-.894 0-1.58-.29-2.055-.87-.476-.58-.715-1.417-.716-2.512a4.405 4.405 0 0 1 .347-1.8 2.664 2.664 0 0 1 1.002-1.2c.458-.287.99-.433 1.53-.42.641 0 1.272.162 1.835.468l-.492 1.4a4.934 4.934 0 0 0-.655-.29 2.082 2.082 0 0 0-.712-.114zm6.802 5.248h-1.603V42.95h-1.446v-1.462h4.485v1.462h-1.442l.006 5.164zm9.27-3.32c0 1.115-.243 1.962-.731 2.54-.488.579-1.204.869-2.147.87-.928 0-1.64-.291-2.137-.874-.498-.582-.745-1.43-.742-2.544 0-1.101.246-1.942.738-2.524.492-.581 1.208-.872 2.149-.872.942 0 1.656.288 2.141.864.485.576.728 1.423.73 2.54zm-4.073 0c0 1.28.4 1.92 1.203 1.92a.985.985 0 0 0 .9-.466c.2-.31.295-.8.295-1.454 0-.654-.1-1.148-.299-1.464a.981.981 0 0 0-.888-.474c-.807 0-1.211.646-1.211 1.938zm8.186.91v2.41h-1.604v-6.62h1.94c1.604 0 2.406.652 2.406 1.956a1.999 1.999 0 0 1-1.002 1.78l1.724 2.884h-1.804l-1.255-2.41h-.405zm0-1.344h.3c.558 0 .838-.276.838-.828 0-.456-.274-.684-.822-.684h-.316v1.512zm5.457 3.754v-6.62h1.604v6.62h-1.604zm7.963 0l-.293-1.24h-1.922l-.301 1.24h-1.756l1.93-6.648h2.136l1.954 6.648h-1.748zm-.623-2.708l-.257-1.086c-.058-.242-.13-.554-.217-.938a17 17 0 0 1-.168-.824c-.024.154-.072.4-.142.76-.07.36-.23 1.05-.478 2.088h1.262z"/>
</svg>
