<svg xmlns="http://www.w3.org/2000/svg" width="24" height="24" viewBox="0 0 24 24">
  <path fill="currentColor" fill-rule="evenodd" d="M13.0511703,13.0511703 L20.4163024,13.0511703 C20.9928182,13.0511703 21.4605325,12.5805453 21.4605325,12 C21.4605325,11.4154072 20.9930148,10.9488297 20.4163024,10.9488297 L13.0511703,10.9488297 L13.0511703,3.5836976 C13.0511703,3.00718179 12.5805453,2.53946748 12,2.53946748 C11.4154072,2.53946748 10.9488297,3.00698523 10.9488297,3.5836976 L10.9488297,10.9488297 L3.5836976,10.9488297 C3.00718179,10.9488297 2.53946748,11.4194547 2.53946748,12 C2.53946748,12.5845928 3.00698523,13.0511703 3.5836976,13.0511703 L10.9488297,13.0511703 L10.9488297,20.4163024 C10.9488297,20.9928182 11.4194547,21.4605325 12,21.4605325 C12.5845928,21.4605325 13.0511703,20.9930148 13.0511703,20.4163024 L13.0511703,13.0511703 Z"/>
</svg>
