<svg xmlns="http://www.w3.org/2000/svg" width="24" height="24" viewBox="0 0 24 24">
  <path fill="currentColor" fill-rule="evenodd" d="M12.0006089,0 C13.6393986,0 15.1664531,0.830779094 16.0567085,2.20668139 C17.6590982,1.86330875 19.3263042,2.35566198 20.4850871,3.51445412 C21.64387,4.67324626 22.1362193,6.34046554 21.7928494,7.94286801 C23.1735515,8.82918036 24.0059293,10.3593044 24.0000315,12 C24.0053689,13.6405353 23.172633,15.1702471 21.7918493,16.056132 C22.1350668,17.6585893 21.6427123,19.3257933 20.484015,20.4847018 C19.3253177,21.6436104 17.6582129,22.1362595 16.0557085,21.7933186 C15.1654531,23.1692209 13.6383986,24 11.9996089,24 C10.3608192,24 8.83376475,23.1692209 7.94350934,21.7933186 C6.34111966,22.1366913 4.67391369,21.644338 3.5151308,20.4855459 C2.35634791,19.3267537 1.8639986,17.6595345 2.2073685,16.057132 C0.831049963,15.1667124 0,13.6392468 0,12 C0,10.3607532 0.831049963,8.83328763 2.2073685,7.94286801 C1.86387395,6.34025598 2.35633315,4.67278612 3.5153804,3.51393165 C4.67442766,2.35507717 6.34197003,1.86290473 7.94450936,2.20668139 C8.83476477,0.830779094 10.3618193,0 12.0006089,0 Z M12.0006089,1.5 C10.9412679,1.5 9.94963875,2.00346588 9.32403166,2.84810702 L9.20387892,3.02153617 L8.64171308,3.89037141 L7.62988728,3.67331459 C6.52491904,3.43627686 5.3751301,3.7756352 4.57595236,4.57468003 C3.82671998,5.32378778 3.48145236,6.38112874 3.63637526,7.42088595 L3.67405755,7.6285064 L3.89090596,8.64023678 L3.02215548,9.20228143 C2.07307575,9.8162957 1.5,10.869606 1.5,12 C1.5,13.0597444 2.00367986,14.0517394 2.84865744,14.6775313 L3.02215548,14.7977186 L3.89086175,15.3597346 L3.67407251,16.3714238 C3.43731297,17.4763083 3.77679629,18.6258846 4.5757952,19.4248899 C5.32485345,20.1739542 6.38202241,20.5191444 7.42162327,20.3642836 L7.62921271,20.3266156 L8.64084648,20.1098348 L9.20287889,20.9784638 C9.81672246,21.9271677 10.8696451,22.5 11.9996089,22.5 C13.05895,22.5 14.0505791,21.9965341 14.6761862,21.151893 L14.796339,20.9784638 L15.3582077,20.1100878 L16.3696058,20.3265301 C17.4746529,20.5630136 18.6242473,20.2232949 19.4232581,19.4241384 C20.1723341,18.6749259 20.5175563,17.6176453 20.3627676,16.5778991 L20.3251146,16.3702801 L20.1075653,15.3545587 L20.9818531,14.793632 C21.9311533,14.1845788 22.5036895,13.1328687 22.5000216,11.9945501 C22.5038204,10.9370118 22.0010713,9.94631188 21.1560596,9.32451887 L20.9825424,9.20516853 L20.1085311,8.64411556 L20.3261454,7.62857617 C20.5629049,6.52369173 20.2234216,5.37411535 19.4244227,4.57511006 C18.6753644,3.82604583 17.6181955,3.48085558 16.5785946,3.63571636 L16.3710052,3.67338437 L15.3593714,3.89016519 L14.797339,3.02153617 C14.1834954,2.07283229 13.1305728,1.5 12.0006089,1.5 Z M12,15.6666667 C12.4142136,15.6666667 12.75,16.0024531 12.75,16.4166667 C12.75,16.8308802 12.4142136,17.1666667 12,17.1666667 C11.5857864,17.1666667 11.25,16.8308802 11.25,16.4166667 C11.25,16.0024531 11.5857864,15.6666667 12,15.6666667 Z M12,7 C12.3846269,7 12.7016304,7.25736013 12.7449542,7.58891925 L12.75,7.66666667 L12.75,13.6666667 C12.75,14.0348565 12.4142136,14.3333333 12,14.3333333 C11.6153731,14.3333333 11.2983696,14.0759732 11.2550458,13.7444141 L11.25,13.6666667 L11.25,7.66666667 C11.25,7.29847683 11.5857864,7 12,7 Z"/>
</svg>
