<svg xmlns="http://www.w3.org/2000/svg" width="24" height="24" viewBox="0 0 24 24">
  <path fill="currentColor" fill-rule="evenodd" d="M0.999174974,12.1490106 C1.00053988,11.6224568 1.22702783,11.1216235 1.62150768,10.7728449 L10.1682612,3.25057036 C10.6271476,2.87491978 11.301126,2.93024955 11.6926039,3.37571018 C12.0840818,3.8211708 12.0523697,4.49667256 11.6208805,4.90349826 L5.0175788,10.7139756 C4.95829361,10.7665782 4.93762368,10.8503121 4.96562015,10.9244603 C4.99361661,10.9986086 5.06447031,11.0477855 5.14372732,11.0480781 L21.8982424,11.0480781 C22.5062707,11.0480781 22.999175,11.5409824 22.999175,12.1490106 C22.999175,12.7570389 22.5062707,13.2499432 21.8982424,13.2499432 L5.14602093,13.2499432 C5.06681287,13.2507052 4.99621232,13.3000569 4.96828798,13.3741833 C4.94036364,13.4483098 4.96085443,13.5319767 5.01987241,13.5848102 L11.6231741,19.3952876 C11.937697,19.6493303 12.087669,20.0553299 12.0138205,20.452833 C11.939972,20.8503362 11.654186,21.1753802 11.2694066,21.2995059 C10.8846272,21.4236316 10.4627699,21.3268659 10.1705548,21.0474509 L1.62227222,13.5251763 C1.22734703,13.1766564 1.00053737,12.6757271 0.999174974,12.1490106 Z"/>
</svg>
