<svg xmlns="http://www.w3.org/2000/svg" width="24" height="24" viewBox="0 0 24 24">
  <path fill="currentColor" fill-rule="evenodd" d="M13.7382613,19.5482915 C13.4629768,19.2913592 13.4244259,18.8757772 13.6320324,18.5748324 L13.7017085,18.4882613 L19.0583333,12.7499972 L2.75,12.7499972 C2.33578644,12.7499972 2,12.4142136 2,12 C2,11.6203042 2.28215388,11.306509 2.64822944,11.2568466 L2.75,11.2499972 L19.0583333,11.2499972 L13.7017085,5.51173869 C13.4447763,5.23645414 13.4349438,4.81920376 13.6627874,4.53327443 L13.7382613,4.45170855 C14.0135459,4.1947763 14.4307962,4.18494381 14.7167256,4.41278738 L14.7982915,4.48826131 L21.3316248,11.4882613 C21.573675,11.7476009 21.5978801,12.1357403 21.4042399,12.4208398 L21.3316248,12.5117387 L14.7982915,19.5117387 C14.515666,19.8145517 14.0410743,19.8309169 13.7382613,19.5482915 Z"/>
</svg>
