<svg xmlns="http://www.w3.org/2000/svg" width="24" height="24" viewBox="0 0 24 24">
  <path fill="currentColor" fill-rule="evenodd" d="M12.6160712,2.00000596 L12.9134257,2.00520241 C16.7691602,2.11975782 20.1744035,4.59462465 21.4652813,8.25409547 C22.7892599,12.0074024 21.6002898,16.1882442 18.4999263,18.6813388 C15.6554659,20.9686542 11.7712975,21.377645 8.54141489,19.8060993 L8.25816632,19.6622911 L7.98272792,19.5108556 L2.8953224,21.9368617 C2.42508776,22.1610434 1.9365202,21.7515054 2.00677514,21.285753 L2.02663756,21.1979067 L2.06303789,21.1040726 L4.4861067,16.0093278 L4.3268986,15.720751 C2.9657695,13.1329006 2.89227046,10.0526235 4.12894806,7.40244843 L4.2717495,7.10980137 L4.43123705,6.81035525 C6.03406894,3.92757737 9.03000213,2.10881035 12.3079694,2.00472101 L12.6160712,2.00000596 Z M12.6183062,3.25081755 C9.67067288,3.24661052 6.95470458,4.8420895 5.52246736,7.41804384 C4.09022875,9.99400071 4.1672351,13.144839 5.72359831,15.6476388 C5.81730344,15.7983268 5.84172427,15.9801713 5.794317,16.1478842 L5.75723293,16.2464538 L3.94709762,20.0502918 L7.74805368,18.2390066 C7.8761309,18.1779465 8.01904451,18.1632093 8.15362967,18.1934968 L8.252645,18.2246344 L8.34636545,18.2725345 C11.2732708,20.094486 15.0307579,19.8677669 17.7177396,17.7070849 C20.4047213,15.5464029 21.435162,11.9230067 20.2877139,8.67014066 C19.1402667,5.41727694 16.0651913,3.24439354 12.6183062,3.25081755 Z M12.4996537,13.8813181 L12.5682887,13.8759185 L12.5682887,13.8759185 L12.6654817,13.8758792 L12.6654817,13.8758792 L12.7346227,13.8813181 C13.1964361,13.939158 13.5537331,14.3334963 13.5537331,14.8113519 C13.5537331,15.3290288 13.1344053,15.7486889 12.6171382,15.7486889 C12.0998711,15.7486889 11.6805433,15.3290288 11.6805433,14.8113519 C11.6805433,14.3334963 12.0378404,13.939158 12.4996537,13.8813181 Z M12.6171382,7.00021059 C14.3413619,7.00021059 15.7391213,8.39907743 15.7391213,10.1246671 C15.7391213,11.8502568 14.3413619,13.2491237 12.6171382,13.2491237 C12.2722935,13.2491237 11.9927416,12.9693503 11.9927416,12.6242323 C11.9927416,12.2791144 12.2722935,11.999341 12.6171382,11.999341 C13.6516724,11.999341 14.4903281,11.1600209 14.4903281,10.1246671 C14.4903281,9.0893133 13.6516724,8.2499932 12.6171382,8.2499932 C11.6318675,8.2499932 10.8242645,9.01128128 10.7495841,9.97816246 L10.7439483,10.1246671 C10.7439483,10.4697851 10.4643964,10.7495584 10.1195517,10.7495584 C9.77470697,10.7495584 9.49515508,10.4697851 9.49515508,10.1246671 C9.49515508,8.39907743 10.8929145,7.00021059 12.6171382,7.00021059 Z"/>
</svg>
