<svg xmlns="http://www.w3.org/2000/svg" width="24" height="24" viewBox="0 0 24 24">
  <path fill="currentColor" fill-rule="evenodd" d="M22.2666667,16.5 C22.6377333,16.5 22.9447148,16.7823333 22.9933015,17.1482743 L23,17.25 L23,20.25 C23,20.6295 22.7239407,20.9434583 22.3661318,20.9931493 L22.2666667,21 L19.3333333,21 C18.9285333,21 18.6,20.664 18.6,20.25 C18.6,19.8705 18.8760593,19.5565417 19.2338682,19.5068507 L19.3333333,19.5 L21.5333333,19.5 L21.5333333,17.25 C21.5333333,16.836 21.8618667,16.5 22.2666667,16.5 Z M1.73333333,16.5 C2.1044,16.5 2.41138148,16.7823333 2.45996821,17.1482743 L2.46666667,17.25 L2.46666667,19.5 L4.66666667,19.5 C5.07146667,19.5 5.4,19.836 5.4,20.25 C5.4,20.6295 5.12394074,20.9434583 4.76613179,20.9931493 L4.66666667,21 L1.73333333,21 C1.36226667,21 1.05528519,20.7176667 1.00669846,20.3517257 L1,20.25 L1,17.25 C1,16.836 1.32853333,16.5 1.73333333,16.5 Z M5.4,6 L5.4,18 L3.93333333,18 L3.93333333,6 L5.4,6 Z M14.2,6 L14.2,18 L12.7333333,18 L12.7333333,6 L14.2,6 Z M20.0666667,6 L20.0666667,18 L18.6,18 L18.6,6 L20.0666667,6 Z M8.33333333,16.5 L8.33333333,18 L6.86666667,18 L6.86666667,16.5 L8.33333333,16.5 Z M11.2666667,16.5 L11.2666667,18 L9.8,18 L9.8,16.5 L11.2666667,16.5 Z M17.1333333,16.5 L17.1333333,18 L15.6666667,18 L15.6666667,16.5 L17.1333333,16.5 Z M8.33333333,6 L8.33333333,15 L6.86666667,15 L6.86666667,6 L8.33333333,6 Z M11.2666667,6 L11.2666667,15 L9.8,15 L9.8,6 L11.2666667,6 Z M17.1333333,6 L17.1333333,15 L15.6666667,15 L15.6666667,6 L17.1333333,6 Z M4.66666667,3 C5.07146667,3 5.4,3.336 5.4,3.75 C5.4,4.1295 5.12394074,4.44345833 4.76613179,4.49314931 L4.66666667,4.5 L2.46666667,4.5 L2.46666667,6.75 C2.46666667,7.164 2.13813333,7.5 1.73333333,7.5 C1.36226667,7.5 1.05528519,7.21766667 1.00669846,6.85172569 L1,6.75 L1,3.75 C1,3.3705 1.27605926,3.05654167 1.63386821,3.00685069 L1.73333333,3 L4.66666667,3 Z M22.2666667,3 C22.6377333,3 22.9447148,3.28233333 22.9933015,3.64827431 L23,3.75 L23,6.75 C23,7.164 22.6714667,7.5 22.2666667,7.5 C21.8956,7.5 21.5886185,7.21766667 21.5400318,6.85172569 L21.5333333,6.75 L21.5333333,4.5 L19.3333333,4.5 C18.9285333,4.5 18.6,4.164 18.6,3.75 C18.6,3.3705 18.8760593,3.05654167 19.2338682,3.00685069 L19.3333333,3 L22.2666667,3 Z"/>
</svg>
