<svg xmlns="http://www.w3.org/2000/svg" width="24" height="24" viewBox="0 0 24 24">
  <path fill="currentColor" fill-rule="evenodd" d="M12.0020504,7.9240475 C15.516506,7.9240475 18.3748206,10.8597229 18.3748206,14.4641267 C18.3748206,18.0685304 15.516506,21 12.0020504,21 C8.48759483,21 5.6292803,18.0643246 5.6292803,14.4599208 C5.6292803,10.8555171 8.48759483,7.9240475 12.0020504,7.9240475 Z M13.437359,4 C14.79065,4 15.9563392,4.90429507 16.3350797,6.21598302 L16.3817921,6.39732806 L16.5048185,6.93567541 C19.6003228,7.53398988 21.4975673,8.51043595 21.6910828,8.61473979 L21.7047365,8.62221672 C21.8629134,8.70513183 21.9668582,8.85911703 21.9933286,9.03384939 L22,9.12271153 L22,15.8099951 C22,18.4933201 19.8716424,20.6719446 17.2593808,20.6719446 C16.9518146,20.6719446 16.7057617,20.4195943 16.7057617,20.1041564 C16.7057617,19.7887185 16.9518146,19.5363681 17.2593808,19.5363681 C19.2000238,19.5363681 20.7873339,17.9686976 20.8877216,16.007394 L20.8927619,15.8099951 L20.8927619,9.48020782 L20.6938616,9.3898509 C19.9126512,9.04316632 18.2464452,8.39418712 15.9511995,7.98713508 C15.7649023,7.95469004 15.608734,7.82645488 15.5369268,7.65010394 L15.5083043,7.55813953 L15.3032602,6.65388422 C15.1102775,5.81073726 14.4196266,5.20975347 13.5937142,5.14196696 L13.437359,5.13557645 L10.562641,5.13557645 C9.71737688,5.13557645 8.99198909,5.69068894 8.73862756,6.49936052 L8.6967398,6.65388422 L8.49169571,7.55813953 C8.44248513,7.77684315 8.26614722,7.94928253 8.04880049,7.98713508 C5.85572028,8.37480369 4.2425001,8.98190736 3.42215523,9.33832687 L3.10723806,9.48020782 L3.10723806,15.8099951 C3.10723806,17.8666502 4.73938897,19.5363681 6.74061923,19.5363681 C7.04818536,19.5363681 7.29423826,19.7887185 7.29423826,20.1041564 C7.29423826,20.4195943 7.04818536,20.6719446 6.74061923,20.6719446 C4.19496922,20.6719446 2.11518415,18.6055107 2.00462283,16.0261001 L2,15.8099951 L2,9.12271153 C2,8.9424613 2.08436099,8.77457109 2.22209323,8.66936381 L2.29526348,8.62221672 C2.37463539,8.57744489 4.17458533,7.61491617 7.18964396,6.99633981 L7.49518146,6.93567541 L7.61820791,6.39732806 C7.92809193,5.04560807 9.0484156,4.08639063 10.379832,4.00553565 L10.562641,4 L13.437359,4 Z M12.0020504,9.05962395 C9.0986262,9.05962395 6.73651835,11.4863929 6.73651835,14.4641267 C6.73651835,17.4418605 9.0986262,19.8644236 12.0020504,19.8644236 C14.9054747,19.8644236 17.2675825,17.4376546 17.2675825,14.4599208 C17.2675825,11.482187 14.9054747,9.05962395 12.0020504,9.05962395 Z M5.54726266,5.8043048 C5.84252614,5.73280554 6.14189051,5.91786244 6.2116055,6.22488867 C6.28132048,6.52770905 6.10088169,6.83473528 5.80151733,6.90623454 C5.33401681,7.01979218 4.87343654,7.14754453 4.42669674,7.28771725 L3.98482674,7.43196437 C3.92741439,7.45299357 3.87000205,7.46140524 3.81258971,7.46140524 C3.58294033,7.46140524 3.3655936,7.30999505 3.28357597,7.07026225 C3.18925569,6.77585354 3.34508919,6.45200396 3.63625179,6.35526967 C4.25138405,6.14918357 4.89522247,5.96412667 5.54726266,5.8043048 Z"/>
</svg>
