<svg xmlns="http://www.w3.org/2000/svg" width="24" height="24" viewBox="0 0 24 24">
    <g fill="none" fill-rule="evenodd">
        <g fill="currentColor">
            <path d="M21.818 2.5H2.182C.982 2.5 0 3.45 0 4.611v3.167h2.182V4.61h19.636V19.39h-7.636V21.5h7.636c1.2 0 2.182-.95 2.182-2.111V4.61C24 3.45 23.018 2.5 21.818 2.5zM0 18.333V21.5h3.273c0-1.752-1.462-3.167-3.273-3.167zm0-4.222v2.111c3.01 0 5.455 2.365 5.455 5.278h2.181c0-4.085-3.414-7.389-7.636-7.389zM0 9.89V12c5.422 0 9.818 4.254 9.818 9.5H12C12 15.082 6.622 9.889 0 9.889z"/>
        </g>
    </g>
</svg>
