<svg xmlns="http://www.w3.org/2000/svg" width="24" height="24" viewBox="0 0 24 24">
  <path fill="currentColor" fill-rule="evenodd" d="M19.7297297,1 C21.5358501,1 23,2.46414987 23,4.27027027 L23,19.7297297 C23,21.5358501 21.5358501,23 19.7297297,23 L4.27027027,23 C2.46414987,23 1,21.5358501 1,19.7297297 L1,4.27027027 C1,2.46414987 2.46414987,1 4.27027027,1 L19.7297297,1 Z M11.108,2.783 L4.27027027,2.78378378 C3.44930645,2.78378378 2.78378378,3.44930645 2.78378378,4.27027027 L2.78378378,19.7297297 C2.78378378,20.5506935 3.44930645,21.2162162 4.27027027,21.2162162 L11.108,21.216 L11.108,2.783 Z M19.7297297,2.78378378 L12.891,2.783 L12.891,21.216 L19.7297297,21.2162162 C20.5506935,21.2162162 21.2162162,20.5506935 21.2162162,19.7297297 L21.2162162,4.27027027 C21.2162162,3.44930645 20.5506935,2.78378378 19.7297297,2.78378378 Z"/>
</svg>
