<svg xmlns="http://www.w3.org/2000/svg" width="24" height="24" viewBox="0 0 24 24">
  <path fill="currentColor" fill-rule="evenodd" d="M12.1406638,4.70626551 C12.5203595,4.70626551 12.8341547,4.98841939 12.8838172,5.35449495 L12.8906638,5.45626551 L12.8908676,7.68779722 C17.8191903,7.83096814 20.9281011,9.41630225 21.0563563,12.6718221 L21.0604839,12.8833747 L21.06,13.6178358 L23.2813275,13.6187965 C23.6955411,13.6187965 24.0313275,13.954583 24.0313275,14.3687965 C24.0313275,14.7484923 23.7491737,15.0622875 23.3830981,15.1119499 L23.2813275,15.1187965 L21.06,15.1178358 L21.0604839,21.3007651 C21.0604839,22.7529595 19.9268491,23.9403792 18.4962597,24.0263442 L18.3299214,24.0313275 L5.95140612,24.0313275 C4.49921175,24.0313275 3.31179198,22.8976927 3.22582699,21.4671033 L3.22084367,21.3007651 L3.22,15.1178358 L1,15.1187965 C0.585786438,15.1187965 0.25,14.7830101 0.25,14.3687965 C0.25,13.9891008 0.532153882,13.6753056 0.898229443,13.6256431 L1,13.6187965 L3.22,13.6178358 L3.22084367,12.8833747 C3.22084367,9.48497016 6.35641094,7.83410726 11.3901322,7.68780674 L11.3906638,5.45626551 C11.3906638,5.04205195 11.7264502,4.70626551 12.1406638,4.70626551 Z M19.56,13.633 L4.72,13.633 L4.72084367,14.3687965 L4.72084367,14.3687965 L4.719,14.3808358 L4.72084367,21.3007651 C4.72084367,21.8954334 5.14265831,22.3915815 5.70340487,22.5063269 L5.82558826,22.5249743 L5.95140612,22.5313275 L18.3299214,22.5313275 C18.967066,22.5313275 19.4911135,22.0471015 19.5541306,21.426583 L19.5604839,21.3007651 L19.56,13.633 Z M15.8542184,18.075062 C16.2684319,18.075062 16.6042184,18.4108485 16.6042184,18.825062 C16.6042184,19.2047578 16.3220645,19.518553 15.9559889,19.5682154 L15.8542184,19.575062 L14.3687965,19.575062 C13.954583,19.575062 13.6187965,19.2392756 13.6187965,18.825062 C13.6187965,18.4453663 13.9009504,18.1315711 14.267026,18.0819086 L14.3687965,18.075062 L15.8542184,18.075062 Z M12.1406638,9.17710918 C7.9113614,9.17710918 5.32560079,10.1897216 4.81449067,12.1330383 L19.4668369,12.1330383 C18.9557268,10.1897216 16.3699661,9.17710918 12.1406638,9.17710918 Z M19.4958357,0.664496417 C20.1580964,1.98855698 20.0433632,2.81997578 19.3591494,3.78369155 L19.1579934,4.05352526 C18.7349412,4.61466228 18.7291966,4.82083226 19.4251373,5.74907683 C19.67361,6.08048926 19.6063741,6.55057903 19.2749616,6.79905171 C18.9435492,7.0475244 18.4734594,6.98028845 18.2249867,6.64887602 C17.1643911,5.23425548 17.1442591,4.31184793 17.8624158,3.28508943 L18.0517358,3.02999445 C18.516889,2.41734241 18.5666294,2.1598987 18.1542883,1.33550358 C17.9689948,0.965045503 18.1191004,0.514519821 18.4895584,0.329226308 C18.8600165,0.143932796 19.3105422,0.294038336 19.4958357,0.664496417 Z M6.08346683,0.664496417 C6.74572754,1.98855698 6.63099425,2.81997578 5.94678048,3.78369155 L5.74562447,4.05352526 C5.32257235,4.61466228 5.31682765,4.82083226 6.01276842,5.74907683 C6.26124111,6.08048926 6.19400516,6.55057903 5.86259273,6.79905171 C5.5311803,7.0475244 5.06109053,6.98028845 4.81261785,6.64887602 C3.75202224,5.23425548 3.73189025,4.31184793 4.45004692,3.28508943 L4.63936694,3.02999445 C5.10452012,2.41734241 5.15426048,2.1598987 4.74191944,1.33550358 C4.55662593,0.965045503 4.70673147,0.514519821 5.07718955,0.329226308 C5.44764763,0.143932796 5.89817331,0.294038336 6.08346683,0.664496417 Z"/>
</svg>
