<svg xmlns="http://www.w3.org/2000/svg" width="24" height="24" viewBox="0 0 24 24">
  <path fill="currentColor" fill-rule="evenodd" d="M17,0.944444444 C18.1045695,0.944444444 19,1.83987494 19,2.94444444 L19,4.94444444 L21,4.94444444 C22.1045695,4.94444444 23,5.83987494 23,6.94444444 L23,20.9444444 C23,22.0490139 22.1045695,22.9444444 21,22.9444444 L7,22.9444444 C5.8954305,22.9444444 5,22.0490139 5,20.9444444 L5,18.9444444 L3,18.9444444 C1.8954305,18.9444444 1,18.0490139 1,16.9444444 L1,2.94444444 C1,1.83987494 1.8954305,0.944444444 3,0.944444444 L17,0.944444444 Z M21,6.94444444 L7,6.94444444 L7,20.9444444 L21,20.9444444 L21,6.94444444 Z M17,4.94444444 L17,2.94444444 L3,2.94444444 L3,16.9444444 L5,16.9444444 L5,6.94444444 C5,5.83987494 5.8954305,4.94444444 7,4.94444444 L17,4.94444444 Z"/>
</svg>
