<svg xmlns="http://www.w3.org/2000/svg" width="24" height="24" viewBox="0 0 24 24">
  <path fill="currentColor" fill-rule="evenodd" d="M12,10.25 C12.3796958,10.25 12.693491,10.5321539 12.7431534,10.8982294 L12.75,11 L12.7490003,19.579654 L14.4696699,17.8606699 C14.7359365,17.5944034 15.1526002,17.5701973 15.4462117,17.7880518 L15.5303301,17.8606699 C15.7965966,18.1269365 15.8208027,18.5436002 15.6029482,18.8372117 L15.5303301,18.9213301 L12.5303301,21.9213301 C12.2640635,22.1875966 11.8473998,22.2118027 11.5537883,21.9939482 L11.4696699,21.9213301 L8.46966991,18.9213301 C8.1767767,18.6284369 8.1767767,18.1535631 8.46966991,17.8606699 C8.73593648,17.5944034 9.15260016,17.5701973 9.44621165,17.7880518 L9.53033009,17.8606699 L11.2490003,19.579654 L11.25,11 C11.25,10.5857864 11.5857864,10.25 12,10.25 Z M18.4791659,5.54132786 L18.505,5.589 L18.5438736,5.59060773 C19.7680741,5.66091144 20.937354,6.13724636 21.8638634,6.94798688 L22.0586168,7.12680934 C23.1403868,8.16884536 23.7510922,9.60652538 23.7500003,11.108 C23.7500003,13.2298888 22.7989274,14.7547014 21.2458466,15.7197786 C20.4250157,16.2298392 19.6119087,16.4958456 18.924368,16.6088673 L18.7,16.641 L17.24,16.641 C16.8257864,16.641 16.49,16.3052136 16.49,15.891 C16.49,15.5113042 16.7721539,15.197509 17.1382294,15.1478466 L17.24,15.141 L18.6029734,15.1473026 L18.7326205,15.1252101 L18.9209651,15.0828491 C18.9926684,15.0650873 19.0728627,15.0435523 19.1602563,15.0178491 C19.6031881,14.8875791 20.0458588,14.6994337 20.4541534,14.4457214 C21.5885726,13.7407986 22.2500003,12.6803612 22.2500003,11.1074545 C22.2507959,10.0133704 21.8059529,8.96615209 21.0179825,8.20712423 C20.230012,7.44809637 19.1668873,7.04273556 18.0735986,7.08445455 C17.7730525,7.09592314 17.4947235,6.9267392 17.3665333,6.65466062 C16.2099172,4.19978981 13.5355768,2.84208081 10.8712015,3.35711097 C8.20682633,3.87214113 6.231135,6.1287125 6.07272101,8.83778178 C6.04595453,9.29552082 5.61835527,9.62230939 5.16964944,9.52794544 C4.33382471,9.35216941 3.46329269,9.56244816 2.79986357,10.100372 C2.13643445,10.6382957 1.75077087,11.4465697 1.75000031,12.3 C1.75000031,13.587632 2.28593316,14.3455166 3.22724284,14.779882 C3.56471979,14.9356101 3.9341765,15.0374178 4.30675072,15.0934418 C4.49038577,15.121055 4.64230161,15.1335259 4.74765869,15.1370169 L6.732,15.138 C7.14621356,15.138 7.482,15.4737864 7.482,15.888 C7.482,16.2676958 7.19984612,16.581491 6.83377056,16.6311534 L6.732,16.638 L4.82906012,16.6380048 C4.23019264,16.6425344 3.41960417,16.5206462 2.59875716,16.141868 C1.14881684,15.4727959 0.250000306,14.201743 0.250000306,12.2993228 C0.25117936,10.993466 0.840825803,9.75768466 1.85515184,8.93524546 C2.61589637,8.31841606 3.55475232,7.98336602 4.51574956,7.96777023 L4.661,7.969 L4.70665999,7.72561759 C5.27382164,4.88314113 7.46102796,2.59737275 10.3314923,1.93828018 L10.5865179,1.88437365 C13.7486101,1.27313358 16.9219067,2.76749099 18.4791659,5.54132786 Z"/>
</svg>
