<svg xmlns="http://www.w3.org/2000/svg" width="24" height="24" viewBox="0 0 24 24">
  <path fill="currentColor" fill-rule="evenodd" d="M17.7603173,1.92283317 C18.1208648,1.56246301 18.6880549,1.53475198 19.0803825,1.83969318 L19.1746006,1.92285873 L22.0786531,4.82659042 C22.4391128,5.18709867 22.4668041,5.75433159 22.161698,6.1465474 L22.0784881,6.24073424 L7.03208704,21.2851078 C6.93760585,21.3795762 6.82548427,21.4538292 6.7025865,21.5039394 L6.57635089,21.5458566 L2.65262903,22.564679 C2.48780773,22.607476 2.31478778,22.6074746 2.14996718,22.5646748 C1.65359381,22.4357793 1.34151749,21.9558975 1.41060723,21.4600052 L1.43340689,21.3454368 L2.45156648,17.4245318 C2.48515483,17.295184 2.5442063,17.1743289 2.62479041,17.0688352 L2.7124065,16.9687162 L17.7603173,1.92283317 Z M22,11 C22.5128358,11 22.9355072,11.3860402 22.9932723,11.8833789 L23,12 L23,20 C23,20.5128358 22.6139598,20.9355072 22.1166211,20.9932723 L22,21 L14,21 C13.4477153,21 13,20.5522847 13,20 C13,19.4871642 13.3860402,19.0644928 13.8833789,19.0067277 L14,19 L21,19 L21,12 C21,11.4871642 21.3860402,11.0644928 21.8833789,11.0067277 L22,11 Z M16.1065885,6.4045181 L4.31896721,18.1906067 L3.79685399,20.2012506 L5.81036317,19.6784286 L17.5962438,7.89408038 L16.1065885,6.4045181 Z M10,3 C10.5522847,3 11,3.44771525 11,4 C11,4.51283584 10.6139598,4.93550716 10.1166211,4.99327227 L10,5 L3,5 L3,12 C3,12.5128358 2.61395981,12.9355072 2.11662113,12.9932723 L2,13 C1.48716416,13 1.06449284,12.6139598 1.00672773,12.1166211 L1,12 L1,4 C1,3.48716416 1.38604019,3.06449284 1.88337887,3.00672773 L2,3 L10,3 Z M18.4515829,4.05829102 L17.5185632,4.99118937 L19.0082186,6.48075165 L19.9412382,5.5478533 L18.4515829,4.05829102 Z"/>
</svg>
