<svg xmlns="http://www.w3.org/2000/svg" width="24" height="24" viewBox="0 0 24 24">
  <path fill="currentColor" fill-rule="evenodd" d="M19.4168599,0 C19.6382582,0 19.8504754,0.0904352467 20.0072084,0.251627854 L22.2549106,2.56358292 C22.5816215,2.89944641 22.5815783,3.44459484 22.2548528,3.78047344 L11.2194827,15.1298382 C11.1142948,15.2380191 10.9829153,15.3153867 10.8389574,15.3538664 L7.80236347,16.1648482 C7.7336711,16.1831117 7.66337985,16.1922647 7.59291812,16.1922647 C7.37239332,16.1922647 7.1599927,16.1023973 7.00261759,15.9406862 C6.79304102,15.7250031 6.71003463,15.4112749 6.78453591,15.1158389 L7.57287138,11.9932917 C7.6102414,11.8448645 7.68561361,11.7095229 7.7910565,11.6010798 L18.8265391,0.251698744 C18.9831509,0.0904875739 19.1954908,0 19.4168599,0 Z M17.5672965,3.97779035 L9.13259014,12.6524934 L8.75898875,14.1323515 L10.1997679,13.7475482 L18.6332287,5.07412611 L17.5672965,3.97779035 Z M19.4168538,2.07560673 L18.7492257,2.76223114 L19.8151579,3.8585669 L20.482786,3.17194249 L19.4168538,2.07560673 Z M20.8294183,7.3153535 C20.8294183,6.8402152 21.2036723,6.45531231 21.6647091,6.45531231 C22.1258157,6.45531231 22.5,6.84018775 22.5,7.3153535 L22.5,22.1399588 C22.5,22.6150971 22.1257459,23 21.6647091,23 L2.33529087,23 C1.87425406,23 1.5,22.6150971 1.5,22.1399588 L1.5,3.08557617 C1.5,2.61043788 1.87425406,2.22553499 2.33529087,2.22553499 L13.6356419,2.22553499 C14.0966787,2.22553499 14.4709328,2.61043788 14.4709328,3.08557617 C14.4709328,3.56071447 14.0966787,3.94561736 13.6356419,3.94561736 L3.17058174,3.94561736 L3.17058174,21.2798183 L20.8294183,21.2798183 L20.8294183,7.3153535 Z"/>
</svg>
