<svg xmlns="http://www.w3.org/2000/svg" width="24" height="24" viewBox="0 0 24 24">
  <path fill="currentColor" fill-rule="evenodd" d="M12,5.63636719 C12.5020703,5.63636719 12.9091016,6.04335938 12.9091016,6.54542969 C12.9091016,7.01163783 12.5581409,7.39589904 12.1060181,7.44841488 L12,7.45453125 L3.81816406,7.45453125 L3.81816406,20.1818359 L16.5454297,20.1818359 L16.5454297,12 C16.5454297,11.4979297 16.9524609,11.0908984 17.4545312,11.0908984 C17.9207394,11.0908984 18.3050343,11.4418591 18.3575549,11.8939819 L18.3636719,12 L18.3636719,21.0908984 C18.3636719,21.5571066 18.0127113,21.9413678 17.5605884,21.9938836 L17.4545703,22 L2.90910156,22 C2.44289342,22 2.05863221,21.6490394 2.00611637,21.1969478 L2,21.0909375 L2,6.54546875 C2,6.0792606 2.35096062,5.6949994 2.80308345,5.64248356 L2.90910156,5.63636719 L12,5.63636719 Z M21.0908984,2 C21.5571066,2 21.9414015,2.35096062 21.9939221,2.80308345 L22.0000391,2.90910156 L22.0000391,10.1818359 C22.0000391,10.6839063 21.5930078,11.0909375 21.0909375,11.0909375 C20.6247294,11.0909375 20.2404682,10.7399769 20.1879523,10.2878541 L20.1818359,10.1818359 L20.1818359,5.10382813 L10.8246484,14.4609766 C10.6471484,14.6385547 10.4144531,14.7272656 10.1817969,14.7272656 C9.94914062,14.7272656 9.71648437,14.6385156 9.53902344,14.4610156 C9.21357096,14.1355632 9.18644992,13.6248229 9.45766032,13.2684891 L9.53902344,13.1753906 L18.8961719,3.81820313 L13.8181641,3.81820313 C13.3160937,3.81820313 12.9090625,3.41117188 12.9090625,2.90910156 C12.9090625,2.44289342 13.2600231,2.05863221 13.7121459,2.00611637 L13.8181641,2 L21.0908984,2 Z"/>
</svg>
