<svg xmlns="http://www.w3.org/2000/svg" width="24" height="24" viewBox="0 0 24 24">
  <path fill="currentColor" fill-rule="evenodd" d="M12.2347581,12.8378596 L14.4133287,15.0164303 L11.1211805,19.0972146 C10.7781047,19.517245 10.5256194,19.8226208 10.4100913,19.9557113 L10.376718,19.9936148 C9.85955672,20.5693491 8.99705367,20.3444165 9.40869199,19.4178806 L12.2347581,12.8378596 L12.2347581,12.8378596 Z M6.55048422,5.1008905 L18,16.5504063 L17.4495158,17.1008905 L6,5.65137472 L6.55048422,5.1008905 Z M16.1093526,10.0271192 C17.3777516,10.0271192 17.7702809,10.5924785 17.3326343,11.301141 L17.2678138,11.3986254 C17.1138464,11.614956 16.5230087,12.3679407 15.7465788,13.3452583 L12.4284398,10.0271192 L16.1093526,10.0271192 Z M8.84058957,9.44369112 L11.9882494,12.5913509 L8.3138646,12.5913509 C7.35259822,12.5913509 6.58223319,12.2170071 7.25283536,11.3986254 L8.84058957,9.44369112 L8.84058957,9.44369112 Z M14.8095554,3.7202103 L12.3649394,9.96361861 L12.3649394,9.96361861 L10.1901634,7.78884288 L11.7758179,5.86426154 C12.7327848,4.71272287 13.5486725,3.75491796 13.8672524,3.44393634 C14.7466573,2.58550577 15.0011238,3.13580306 14.8095554,3.7202103 L14.8095554,3.7202103 Z"/>
</svg>
