<svg xmlns="http://www.w3.org/2000/svg" width="48" height="24" viewBox="0 0 48 24">
  <path fill="currentColor" fill-rule="evenodd" d="M11.822469,4.43601438 C12.6961391,3.59290235 12.9489461,4.13337967 12.758627,4.70735827 L10.3052176,10.9017215 L14.0499479,10.9017215 C15.3673537,10.9017215 15.7336986,11.5086184 15.2008544,12.2487534 L15.0217576,12.4852335 C13.9017381,13.9314367 8.8334551,20.1634605 8.35469742,20.6903667 C7.8409087,21.2558271 6.98403029,21.0349083 7.3929842,20.1249064 L9.8403258,14.4960051 L9.8403258,14.4960051 L10.3052176,13.4201949 L6.3052965,13.4201949 C5.35029882,13.4201949 4.58495757,13.0525312 5.25118655,12.2487534 L8.67376778,8.09522343 C10.0437365,6.44656662 11.3913819,4.8520236 11.822469,4.43601438 Z M28.3904626,7.10361035 L28.3904626,15.62086 C28.3904626,16.4065841 28.7242714,16.6894448 29.2806195,16.6894448 C29.8369676,16.6894448 30.1707764,16.4065841 30.1707764,15.62086 L30.1707764,7.10361035 L31.8557163,7.10361035 L31.8557163,15.4951441 C31.8557163,17.2551662 30.9655594,18.2608931 29.2488282,18.2608931 C27.532097,18.2608931 26.6419401,17.2551662 26.6419401,15.4951441 L26.6419401,7.10361035 L28.3904626,7.10361035 Z M41.3454249,6.94646552 C43.0621561,6.94646552 44,7.95219242 44,9.71221449 L44,15.4951441 C44,17.2551662 43.0621561,18.2608931 41.3454249,18.2608931 C39.6286937,18.2608931 38.6908498,17.2551662 38.6908498,15.4951441 L38.6908498,9.71221449 C38.6908498,7.95219242 39.6286937,6.94646552 41.3454249,6.94646552 Z M24.0827389,7.10361035 L25.8948441,18.1037483 L24.1463216,18.1037483 L23.8284084,15.9194352 L23.8284084,15.9508641 L21.841451,15.9508641 L21.5235378,18.1037483 L19.9021806,18.1037483 L21.7142857,7.10361035 L24.0827389,7.10361035 Z M38.0391278,7.10361035 L38.0391278,8.67505862 L36.211127,8.67505862 L36.211127,18.1037483 L34.4626044,18.1037483 L34.4626044,8.67505862 L32.6346036,8.67505862 L32.6346036,7.10361035 L38.0391278,7.10361035 Z M41.3454249,8.5179138 C40.7890768,8.5179138 40.4393723,8.81648897 40.4393723,9.60221311 L40.4393723,15.6051455 C40.4393723,16.3908697 40.7890768,16.6894448 41.3454249,16.6894448 C41.901773,16.6894448 42.2514775,16.3908697 42.2514775,15.6051455 L42.2514775,9.60221311 C42.2514775,8.81648897 41.901773,8.5179138 41.3454249,8.5179138 Z M22.8428775,9.02077725 L22.8110862,9.02077725 L22.0480946,14.4579883 L23.6217648,14.4579883 L22.8428775,9.02077725 Z"/>
</svg>
