<svg xmlns="http://www.w3.org/2000/svg" width="24" height="24" viewBox="0 0 24 24">
  <path fill="currentColor" fill-rule="evenodd" d="M12.3400416,10.0271192 C13.8102499,6.27742106 14.6246691,4.19949446 14.7832992,3.79333942 C15.0212444,3.18410687 14.7832992,2.54973783 13.8672524,3.44393634 C12.9512057,4.33813486 7.92343754,10.5802437 7.25283536,11.3986254 C6.58223319,12.2170071 7.35259822,12.5913509 8.3138646,12.5913509 C8.95470885,12.5913509 10.2967679,12.5913509 12.3400416,12.5913509 C10.6602341,16.5246801 9.68311754,18.80019 9.40869199,19.4178806 C8.99705367,20.3444165 9.85955672,20.5693491 10.376718,19.9936148 C10.8938793,19.4178806 16.7314719,12.1522079 17.2678138,11.3986254 C17.8041557,10.6450429 17.4354061,10.0271192 16.1093526,10.0271192 C15.225317,10.0271192 13.96888,10.0271192 12.3400416,10.0271192 Z"/>
</svg>
