<svg xmlns="http://www.w3.org/2000/svg" width="24" height="24" viewBox="0 0 24 24">
  <path fill="currentColor" fill-rule="evenodd" d="M10.4069701,2.69658027 C10.626025,2.69658027 10.8083791,2.85437107 10.8461979,3.06239402 L10.8533942,3.14254718 L10.8533942,12.9135037 L13.0901554,22.5433564 C13.1634217,22.8587888 12.95161,23.144163 12.6389123,23.2286737 C11.8323147,23.4465286 11.0275465,23.5 10.4071932,23.5 C7.62731605,23.5 5.0138719,22.4179951 3.04817782,20.4534217 C1.08252836,18.488759 -9.76996262e-15,15.8766863 -9.76996262e-15,13.0982678 C-9.76996262e-15,10.3198494 1.08252836,7.70777663 3.04822244,5.74315861 C5.01378266,3.77858519 7.62718219,2.69658027 10.4069701,2.69658027 Z M9.96099213,3.59881593 C4.92083899,3.83245799 0.89240209,8.00398785 0.89240209,13.0982678 C0.89240209,18.3419913 5.16071667,22.6080662 10.4071932,22.6080662 C10.8787384,22.6080662 11.3450007,22.5738445 11.8032841,22.5068395 L12.1454586,22.4504615 L9.97281646,13.2001713 L9.96416016,13.1497714 L9.96416016,13.1497714 L9.96099213,13.0982678 L9.96099213,3.59881593 Z M12.2842271,14.4232489 C12.2637656,14.3360178 12.3523702,14.2726395 12.4246634,14.3028472 L12.4588702,14.3260727 L18.0315643,19.895798 C18.2027716,20.0668709 18.1909473,20.3484098 18.0053277,20.5037401 C16.9947269,21.3494272 15.8476333,21.9867139 14.6171447,22.3937479 C14.4128044,22.4613366 14.1960543,22.3595064 14.111551,22.1705706 L14.0863439,22.0957974 L12.2842271,14.4232489 Z M13.6156018,16.6026446 L14.7558686,21.4573512 C15.53912,21.2356362 16.269453,20.8544744 16.9070997,20.3302155 L17.1417948,20.1269427 L13.6156018,16.6026446 Z M12.4857341,0.5 C15.5613226,0.5 18.4527738,1.69710397 20.62757,3.87066033 C22.8023663,6.04431536 24,8.93424928 24,12.008224 C24,15.0821494 22.8023663,17.9720833 20.6275207,20.1457383 C20.5312064,20.2420514 20.4047786,20.2902572 20.2784988,20.2902572 C20.1837149,20.2902572 20.0889866,20.2631414 20.0068514,20.2089515 L19.9293782,20.1457383 L12.1367122,12.3571121 C12.0626623,12.2830615 12.01452,12.1879485 11.9982251,12.0858693 L11.9920681,12.008224 L11.9920681,0.993406963 C11.9920681,0.720947638 12.2131317,0.5 12.4857341,0.5 Z"/>
</svg>
