<svg xmlns="http://www.w3.org/2000/svg" width="24" height="24" viewBox="0 0 24 24">
  <path fill="currentColor" fill-rule="evenodd" d="M22.9915168,8.9916445 C22.9915168,14.6337114 13.8883426,21.3867644 12.6704825,22.258126 L12.6177232,22.2995157 C12.2500825,22.5668281 11.7499175,22.5668281 11.3822768,22.2995157 L11.340509,22.258126 C10.1116574,21.3867644 1.00848325,14.6337114 1.00848325,8.9916445 C0.921382335,7.33855618 1.50785912,5.72005437 2.6362565,4.49947358 C3.76465388,3.2788928 5.34043347,2.55849465 7.00985139,2.5 C9.09106145,2.54255162 10.99213,3.67950678 12,5.48441375 C13.00787,3.67950678 14.9089385,2.54255162 16.9901486,2.5 C18.6595665,2.55849465 20.2353461,3.2788928 21.3637435,4.49947358 C22.4921409,5.72005437 23.0786177,7.33855618 22.9915168,8.9916445 Z"/>
</svg>
