<svg xmlns="http://www.w3.org/2000/svg" width="24" height="24" viewBox="0 0 24 24">
  <path fill="currentColor" fill-rule="evenodd" d="M12,0 C18.627417,0 24,5.372583 24,12 C24,18.627417 18.627417,24 12,24 C5.372583,24 0,18.627417 0,12 C0,5.372583 5.372583,0 12,0 Z M12,2 C6.4771525,2 2,6.4771525 2,12 C2,17.5228475 6.4771525,22 12,22 C17.5228475,22 22,17.5228475 22,12 C22,6.4771525 17.5228475,2 12,2 Z M12,10 C12.5128358,10 12.9355072,10.3860402 12.9932723,10.8833789 L13,11 L13,17 C13,17.5522847 12.5522847,18 12,18 C11.4871642,18 11.0644928,17.6139598 11.0067277,17.1166211 L11,17 L11,11 C11,10.4477153 11.4477153,10 12,10 Z M12,7 C12.5522847,7 13,7.44771525 13,8 C13,8.55228475 12.5522847,9 12,9 C11.4477153,9 11,8.55228475 11,8 C11,7.44771525 11.4477153,7 12,7 Z"/>
</svg>
