<svg width="24" height="24" viewBox="0 0 24 24" fill="none" xmlns="http://www.w3.org/2000/svg">
    <path fill="currentColor" fill-rule="evenodd" clip-rule="evenodd" d="M17.524 6.061A5.504 5.504 0 0 0 12.023.717c-3.04 0-5.504 2.304-5.504 5.344v3.062h-.801a2.001 2.001 0 0 0-2.001 2.001v9.808c0 1.105.896 2.001 2.001 2.001h12.61a2.001 2.001 0 0 0 2-2.001v-9.808a2.001 2.001 0 0 0-2-2h-.802l-.002-3.063zm-2.024.16v2.902h-7V6.221C8.576 3.91 10 2.5 12 2.5s3.5 1.344 3.5 3.72zm-2.881 8.336a.6.6 0 0 0-1.196.07v2.802l.004.07a.6.6 0 0 0 1.196-.07v-2.802l-.004-.07z" />
</svg>
