<svg xmlns="http://www.w3.org/2000/svg" width="24" height="24" viewBox="0 0 24 24">
  <path fill="currentColor" fill-rule="evenodd" d="M10.1804894,0.0348517219 C10.6449614,-0.0645870484 11.1294889,0.0512915231 11.4987243,0.350117979 C11.8269334,0.615741324 12.0327738,1.00060559 12.0741907,1.41599936 L12.0819325,1.57302983 L12.0819325,22.4285841 C12.0816449,22.8842129 11.8837488,23.3173151 11.5394828,23.615751 C11.2382499,23.8768826 10.8508717,24.0124415 10.4565148,23.9991015 L10.2873082,23.9842002 L1.3500885,22.7070917 C0.627422255,22.603913 0.0780860681,22.0195772 0.00765248098,21.3057559 L5.35265327e-07,21.1509404 L5.35265327e-07,3.77937773 C-0.000567365979,3.08679749 0.450817312,2.48183193 1.08055836,2.28264432 L1.21813311,2.2462881 L10.1804894,0.0348517219 Z M20.1917205,17.8763691 C20.6106664,17.8763691 20.9568994,18.1877093 21.0116956,18.591652 L21.0192499,18.7039498 L21.0192499,20.1935951 C21.0192499,21.4177215 20.0701038,22.4201492 18.867644,22.5050028 L18.7021674,22.510821 L14.2335083,22.510821 C13.7764764,22.510821 13.4059789,22.1403005 13.4059789,21.6832403 C13.4059789,21.2642684 13.7172997,20.918014 14.1212175,20.8632144 L14.2335083,20.8556596 L18.7021674,20.8556596 C19.0312304,20.8556596 19.3042191,20.6155623 19.3555262,20.3009854 L19.364191,20.1935951 L19.364191,18.7039498 C19.364191,18.2468896 19.7346886,17.8763691 20.1917205,17.8763691 Z M10.4267628,1.67829813 L1.65495023,3.8421458 L1.65495023,21.0778931 L10.4267628,22.331402 L10.4267628,1.67829813 Z M20.6840582,9.09976766 L20.7768722,9.1798975 L23.7569713,12.1591879 L23.7569713,12.1591879 C23.8003903,12.2026096 23.8379758,12.249656 23.8697278,12.299353 L23.9190533,12.3882358 L23.9190533,12.3882358 C23.9928077,12.5383902 24.0138839,12.7012884 23.9915114,12.8567699 C23.9828748,12.92173 23.966298,12.985865 23.9420005,13.0476665 L23.8969975,13.143496 L23.8969975,13.143496 C23.8555914,13.217522 23.8039176,13.2859499 23.7424192,13.3452831 L20.7778652,16.3088542 C20.4546948,16.6320446 19.9307322,16.6320446 19.6075618,16.3088542 C19.3137705,16.0150448 19.2870623,15.555281 19.5274369,15.2312981 L19.6075618,15.1384784 L21.1737216,13.57122 L14.9782849,13.5719566 C14.5212529,13.5719566 14.1507554,13.2014361 14.1507554,12.7443759 C14.1507554,12.325404 14.4620762,11.9791496 14.865994,11.92435 L14.9782849,11.9167952 L21.1714056,11.9160231 L19.6065688,10.3502734 C19.3127775,10.0564639 19.2860692,9.59670017 19.5264439,9.27271723 L19.6065688,9.1798975 C19.90036,8.88608808 20.3600953,8.85937813 20.6840582,9.09976766 Z M7.90069235,10.7965764 C8.21977829,10.7957306 8.52604148,10.9221167 8.75167012,11.1477593 C8.97729876,11.3734019 9.10367706,11.679684 9.10277863,11.9877464 C9.10796775,12.4742291 8.81893018,12.9157028 8.37098752,13.1054785 C7.92304485,13.2952542 7.4048537,13.1957715 7.05902074,12.8536063 C6.71318779,12.511441 6.60816016,11.9943144 6.79310966,11.5443347 C6.94106926,11.184351 7.25118695,10.9243395 7.61839351,10.8347201 L7.78842213,10.8044404 L7.90069235,10.7965764 Z M18.7021674,2.97991695 C19.9262181,2.97991695 20.9285838,3.92912182 21.0134322,5.13165606 L21.0192499,5.29714287 L21.0192499,6.78678809 C21.0192499,7.24384829 20.6487524,7.61436879 20.1917205,7.61436879 C19.7727745,7.61436879 19.4265415,7.30302864 19.3717454,6.89908589 L19.364191,6.78678809 L19.364191,5.29714287 C19.364191,4.96805955 19.1241086,4.69505394 18.8095511,4.64374366 L18.7021674,4.63507835 L14.2335083,4.63507835 C13.7764764,4.63507835 13.4059789,4.26455785 13.4059789,3.80749765 C13.4059789,3.3885258 13.7172997,3.04227134 14.1212175,2.98747179 L14.2335083,2.97991695 L18.7021674,2.97991695 Z"/>
</svg>
