<svg xmlns="http://www.w3.org/2000/svg" width="24" height="24" viewBox="0 0 24 24">
  <path fill="currentColor" fill-rule="evenodd" d="M9.28395411,14.6289841 L10.5391656,15.9894132 L3.76608135,22.7918747 C3.49023487,23.0693751 3.04207981,23.0693751 2.76546971,22.7918747 L2.76546971,22.7918747 L1.30695563,21.3264015 C1.03034554,21.048901 1.03034554,20.5982222 1.30695563,20.3207668 L1.30695563,20.3207668 L6.94242586,14.659622 C7.1859757,14.7162501 7.43469121,14.7535209 7.69041405,14.7535209 C7.78389012,14.7535209 7.87714159,14.7494599 7.97061765,14.7415636 L7.97061765,14.7415636 L9.28395411,14.6289841 Z M2.31920124,1.35345212 C2.51468794,1.35345212 2.7050539,1.43101688 2.84582948,1.57247444 L2.84582948,1.57247444 L21.3124505,20.1223202 C21.4518785,20.2626497 21.5301271,20.4532451 21.5301271,20.6516918 C21.5301271,20.8501836 21.4518785,21.0406437 21.3118665,21.1809732 L21.3118665,21.1809732 L19.7965751,22.7034355 C19.6557546,22.8438552 19.4660175,22.9225029 19.2678356,22.9225029 L19.2678356,22.9225029 L19.254899,22.9225029 C19.0521804,22.9184871 18.8597481,22.831943 18.7223864,22.682905 L18.7223864,22.682905 L9.87468151,13.0949706 L7.84565349,13.268916 C7.79395193,13.2732026 7.74211561,13.2753684 7.69041405,13.2753684 C7.20690787,13.2753684 6.74069544,13.0834193 6.39589858,12.7366566 L6.39589858,12.7366566 L2.90116947,9.22656898 C0.947739827,7.26421203 0.444828718,4.27451677 1.6482039,1.77597478 C1.75304443,1.55767441 1.95711063,1.40430464 2.19495578,1.36387531 C2.23578699,1.35701676 2.27760641,1.35345212 2.31920124,1.35345212 Z M17.3896001,1.19949576 C17.6548008,0.933501413 18.0835959,0.933501413 18.3480779,1.19949576 C18.6132786,1.46580596 18.6132786,1.89658595 18.3480779,2.16253518 L18.3480779,2.16253518 L14.6968067,5.83064011 C14.3519649,6.17672606 14.3519649,6.73894651 14.6968067,7.08530319 C15.0423671,7.43242694 15.6014717,7.43242694 15.9470322,7.08530319 L15.9470322,7.08530319 L19.5795273,3.43601415 C19.8540711,3.16031856 20.2993963,3.16031856 20.5752428,3.43601415 C20.8497866,3.71270241 20.8497866,4.16022268 20.5752428,4.43627924 L20.5752428,4.43627924 L16.9412653,8.08592926 C16.5972321,8.43233106 16.5972321,8.99414542 16.9412653,9.34063746 C17.2868258,9.68740024 17.8465592,9.68740024 18.1921197,9.34063746 L18.1921197,9.34063746 L21.8441545,5.67217155 C22.1085916,5.40662843 22.5366231,5.40662843 22.8011051,5.67217155 C23.0663058,5.93812078 23.0663058,6.36935199 22.8010602,6.63530122 L22.8010602,6.63530122 L18.6922908,10.7620716 C17.7056938,11.7540793 16.3177023,12.0676323 15.0554385,11.7475817 L15.0554385,11.7475817 L12.3014657,8.98096979 C11.9816886,7.71290546 12.2936947,6.31931166 13.2814147,5.32649171 L13.2814147,5.32649171 Z"/>
</svg>
