<svg xmlns="http://www.w3.org/2000/svg" width="24" height="24" viewBox="0 0 24 24">
  <path fill="currentColor" fill-rule="evenodd" d="M18.0066023,18 C18.5160523,18 18.935933,18.3827202 18.9933167,18.8826674 L19,19 C19,19.5522847 18.5550537,20 18.0066023,20 L1.99339768,20 C1.44475929,20 1,19.5561352 1,19 C1,18.4477153 1.44494629,18 1.99339768,18 L18.0066023,18 Z M22.0066023,11 C22.5160523,11 22.935933,11.3827202 22.9933167,11.8826674 L23,12 C23,12.5522847 22.5550537,13 22.0066023,13 L5.99339768,13 C5.44475929,13 5,12.5561352 5,12 C5,11.4477153 5.44494629,11 5.99339768,11 L22.0066023,11 Z M18.0066023,4 C18.5160523,4 18.935933,4.38272018 18.9933167,4.88266744 L19,5 C19,5.55228475 18.5550537,6 18.0066023,6 L1.99339768,6 C1.44475929,6 1,5.55613518 1,5 C1,4.44771525 1.44494629,4 1.99339768,4 L18.0066023,4 Z"/>
</svg>
