<svg xmlns="http://www.w3.org/2000/svg" width="24" height="24" viewBox="0 0 24 24">
  <path fill="currentColor" fill-rule="evenodd" d="M21.0869565,24 L2.91304348,24 C1.85704348,24 1,23.1398744 1,22.0791168 L1,7.67969281 L1,7.67969281 L1,6.71973121 L1,6.71973121 L1,3.84080637 C1,2.78100876 1.85704348,1.92184313 2.91304348,1.92184313 L6.74391304,1.92184313 L6.74391304,0 L7.7013913,0 L7.7013913,1.92184313 L16.2966957,1.92184313 L16.2966957,0 L17.2541739,0 L17.2541739,1.92184313 L21.0869565,1.92184313 C22.1429565,1.92184313 23,2.78100876 23,3.84080637 L23,22.0791168 C23,23.1408344 22.1429565,24 21.0869565,24 Z M22.0434783,3.84080637 C22.0434783,3.31090756 21.6149565,2.88084477 21.0869565,2.88084477 L17.2551304,2.88084477 L17.2551304,3.83984641 L16.2976522,3.83984641 L16.2976522,2.88084477 L7.70234783,2.88084477 L7.70234783,3.83984641 L6.74486957,3.83984641 L6.74486957,2.88084477 L2.91304348,2.88084477 C2.38408696,2.88084477 1.95652174,3.31090756 1.95652174,3.84080637 L1.95652174,6.71973121 L22.0434783,6.71973121 L22.0434783,3.84080637 Z M22.0434783,7.67969281 L1.95652174,7.67969281 L1.95652174,22.0791168 C1.95652174,22.6109356 2.38408696,23.0409984 2.91304348,23.0409984 L21.0869565,23.0409984 C21.6149565,23.0409984 22.0434783,22.6109356 22.0434783,22.0791168 L22.0434783,7.67969281 Z M15.3602609,16.3193472 L20.1170435,16.3193472 L20.1170435,21.1191552 L15.3602609,21.1191552 L15.3602609,16.3193472 Z M16.3301739,20.1572737 L19.1461739,20.1572737 L19.1461739,17.2764289 L16.3301739,17.2764289 L16.3301739,20.1572737 Z M15.3602609,9.59961602 L20.1170435,9.59961602 L20.1170435,14.3984641 L15.3602609,14.3984641 L15.3602609,9.59961602 Z M16.3301739,13.4375425 L19.1461739,13.4375425 L19.1461739,10.5576577 L16.3301739,10.5576577 L16.3301739,13.4375425 Z M9.62113043,16.3193472 L14.377913,16.3193472 L14.377913,21.1191552 L9.62113043,21.1191552 L9.62113043,16.3193472 Z M10.5910435,20.1572737 L13.4070435,20.1572737 L13.4070435,17.2764289 L10.5910435,17.2764289 L10.5910435,20.1572737 Z M9.62113043,9.59961602 L14.377913,9.59961602 L14.377913,14.3984641 L9.62113043,14.3984641 L9.62113043,9.59961602 Z M10.5910435,13.4375425 L13.4070435,13.4375425 L13.4070435,10.5576577 L10.5910435,10.5576577 L10.5910435,13.4375425 Z M3.882,16.3193472 L8.63878261,16.3193472 L8.63878261,21.1191552 L3.882,21.1191552 L3.882,16.3193472 L3.882,16.3193472 Z M4.85191304,20.1572737 L7.66791304,20.1572737 L7.66791304,17.2764289 L4.85191304,17.2764289 L4.85191304,20.1572737 L4.85191304,20.1572737 Z M3.882,9.59961602 L8.63878261,9.59961602 L8.63878261,14.3984641 L3.882,14.3984641 L3.882,9.59961602 L3.882,9.59961602 Z M4.85191304,13.4375425 L7.66791304,13.4375425 L7.66791304,10.5576577 L4.85191304,10.5576577 L4.85191304,13.4375425 L4.85191304,13.4375425 Z"/>
</svg>
