<svg xmlns="http://www.w3.org/2000/svg" width="24" height="24" viewBox="0 0 24 24">
  <path fill="currentColor" fill-rule="evenodd" d="M18.8868452,8.87547433 C19.2317612,8.88891981 19.5004712,9.1794292 19.4870257,9.5243452 C19.4051377,11.6250106 18.6286563,13.6391564 17.259393,15.2737724 C16.7132383,15.8658348 16.0694515,16.3570405 15.3577968,16.7268998 L15.1242105,16.8410526 L15.125,21.374991 C15.125,21.6856602 14.8983442,21.943382 14.6013782,21.9918198 L14.5,22 C14.1893398,22 13.931618,21.7733442 13.8831802,21.4763782 L13.875,21.374991 L13.875,16.4333333 C13.875,16.1776742 14.030707,15.9477918 14.2681195,15.85294 C15.0567046,15.5378821 15.764824,15.0504086 16.3207481,14.4488235 C17.4925681,13.0489485 18.166863,11.2998684 18.2379743,9.4756548 C18.2514198,9.1307388 18.5419292,8.86202885 18.8868452,8.87547433 Z M5.11290849,8.87548398 C5.45781916,8.86190246 5.7484345,9.13049781 5.76201602,9.47540849 C5.83380564,11.2985484 6.50806019,13.0464341 7.65987418,14.4234165 C8.23534705,15.0486852 8.94349052,15.5372015 9.73236165,15.8531325 C9.93987524,15.9362385 10.0848538,16.1225309 10.117856,16.3389506 L10.125,16.4333333 L10.125,21.3749908 C10.125,21.720178 9.84517797,22 9.5,22 C9.18933983,22 8.93161797,21.7733442 8.88318019,21.4763782 L8.875,21.3749908 L8.87473684,16.84 L8.64132526,16.7257264 C8.03056288,16.4072117 7.46790048,15.9972885 6.96636894,15.5023683 L6.72075774,15.2478547 C5.37208799,13.636791 4.59565302,11.6240206 4.51298398,9.52459151 C4.49940246,9.17968084 4.76799781,8.8890655 5.11290849,8.87548398 Z M17.6246638,6.85178546 C17.7637805,7.12955566 17.6765314,7.46149093 17.4326966,7.63778482 L17.3457145,7.69049715 C17.1457409,7.79065072 17.0167623,7.98851787 17.0034791,8.24216695 L17.0086768,8.42662566 C17.0413436,9.36725971 16.9357829,10.4816568 16.5641407,11.5790227 C16.303281,12.3492755 15.9296091,13.0253542 15.4166196,13.5836315 C15.0973762,13.9199301 14.7270544,14.2037342 14.3193227,14.4245688 C14.2583879,14.4575722 14.1926069,14.480096 14.1247241,14.4914449 L14.0216667,14.5 L9.97916667,14.5 C9.87513177,14.5 9.77274243,14.4740303 9.68128394,14.424446 C9.28005603,14.2069198 8.91460813,13.9290748 8.58805697,13.5903849 C7.77699203,12.7109368 7.31198994,11.5402774 7.10370979,10.2137127 C6.97951679,9.42271057 6.96539898,8.68245561 6.99867134,8.29998183 C7.01652663,8.07758737 6.9146039,7.86521342 6.73602343,7.73927434 L6.65492134,7.69081517 C6.34611215,7.53659223 6.22079523,7.16123052 6.37501817,6.85242134 C6.5292411,6.54361215 6.90460281,6.41829523 7.213412,6.57251817 C7.897764,6.9142916 8.30588014,7.63752287 8.24431703,8.40414351 C8.13402043,9.67255446 8.43331452,11.5787994 9.4972849,12.7327098 C9.66831828,12.9099814 9.85900618,13.0667681 10.0654702,13.2001213 L10.1484211,13.2494737 L13.8505263,13.2494737 L13.9377796,13.1985632 C14.0765931,13.1086579 14.2076593,13.0084116 14.3288825,12.8996955 L14.503073,12.7305031 C14.881584,12.3184851 15.1717947,11.7934116 15.3801948,11.1780587 C15.5582362,10.6523471 15.6691701,10.0840251 15.7241456,9.50365245 C15.7544286,9.18395646 15.7651339,8.89545469 15.7631702,8.64787242 L15.7572021,8.40658618 C15.6928891,7.64248121 16.1003282,6.91621986 16.7859521,6.57283618 C17.0945857,6.41826206 17.4700897,6.5431519 17.6246638,6.85178546 Z M12,7 C13.5533009,7 14.8125,8.25919914 14.8125,9.8125 C14.8125,11.3658009 13.5533009,12.625 12,12.625 C10.4466991,12.625 9.1875,11.3658009 9.1875,9.8125 C9.1875,8.25919914 10.4466991,7 12,7 Z M12,8.25 C11.1370551,8.25 10.4375,8.94955508 10.4375,9.8125 C10.4375,10.6754449 11.1370551,11.375 12,11.375 C12.8629449,11.375 13.5625,10.6754449 13.5625,9.8125 C13.5625,8.94955508 12.8629449,8.25 12,8.25 Z M20.125,2 C21.1112228,2 21.9196062,2.76142049 21.9943588,3.72846985 L22,3.875 L22,6.375 C22,7.41053391 21.1605339,8.25 20.125,8.25 C19.1387772,8.25 18.3303938,7.48857951 18.2556412,6.52153015 L18.25,6.375 L18.25,5.654 L18.0911365,5.62630707 C14.0049968,4.94961313 9.8342039,4.95857745 5.75030702,5.65320002 L5.75,6.375 C5.75,7.41053391 4.91053391,8.25 3.875,8.25 C2.88877723,8.25 2.08039375,7.48857951 2.00564118,6.52153015 L2,6.375 L2,3.875 C2,2.83946609 2.83946609,2 3.875,2 C4.86122277,2 5.66960625,2.76142049 5.74435882,3.72846985 L5.75,3.875 L5.75028529,4.38584576 C9.88919455,3.70533193 14.1115245,3.70528069 18.2504464,4.38569204 L18.25,3.875 C18.25,2.83946609 19.0894661,2 20.125,2 Z M20.125,3.25 C19.8112018,3.25 19.5514169,3.48125788 19.5067766,3.78264208 L19.5,3.875 L19.5,6.375 C19.5,6.72017797 19.779822,7 20.125,7 C20.4387982,7 20.6985831,6.76874212 20.7432234,6.46735792 L20.75,6.375 L20.75,3.875 C20.75,3.52982203 20.470178,3.25 20.125,3.25 Z M3.875,3.25 C3.56120185,3.25 3.30141686,3.48125788 3.2567766,3.78264208 L3.25,3.875 L3.25,6.375 C3.25,6.72017797 3.52982203,7 3.875,7 C4.18879815,7 4.44858314,6.76874212 4.4932234,6.46735792 L4.5,6.375 L4.5,3.875 C4.5,3.52982203 4.22017797,3.25 3.875,3.25 Z"/>
</svg>
