<svg xmlns="http://www.w3.org/2000/svg" width="24" height="24" viewBox="0 0 24 24">
  <path fill="currentColor" fill-rule="evenodd" d="M17.6257354,1.875 C17.9614059,1.875 18.2499323,2.09682835 18.3444814,2.41430149 L18.3686119,2.52349518 L18.3757235,2.625 L18.3756809,4.375 L20.1527416,4.37548811 C21.2257224,4.4142186 22.0813478,5.27413288 22.1250036,6.31440465 L22.1250036,20.1571156 C22.0865871,21.1769389 21.3018388,22.0037402 20.2805832,22.1139141 L20.1256848,22.125 L3.84894291,22.1245119 C2.77596208,22.0857814 1.92033663,21.2258671 1.87668089,20.1855954 L1.87668089,6.34288443 C1.91509733,5.32306107 2.69984565,4.49625983 3.71724403,4.38615475 L3.87153444,4.37507967 L5.62568089,4.375 L5.62596094,2.625 C5.62596094,2.24530472 5.90810991,1.93150912 6.27418001,1.88184663 L6.37594907,1.875 C6.7116196,1.875 7.00014602,2.09682835 7.09469504,2.41430149 L7.11882561,2.52349518 L7.1259372,2.625 L7.12568089,4.375 L9.37568089,4.375 L9.37588971,2.625 C9.37588971,2.24530472 9.65803868,1.93150912 10.0241088,1.88184663 L10.1258778,1.875 C10.4615484,1.875 10.7500748,2.09682835 10.8446238,2.41430149 L10.8687544,2.52349518 L10.875866,2.625 L10.8756809,4.375 L13.1256809,4.375 L13.1258185,2.625 C13.1258185,2.24530472 13.4079675,1.93150912 13.7740376,1.88184663 L13.8758066,1.875 C14.2114771,1.875 14.5000036,2.09682835 14.5945526,2.41430149 L14.6186832,2.52349518 L14.6257947,2.625 L14.6256809,4.375 L16.8756809,4.375 L16.8757473,2.625 C16.8757473,2.24530472 17.1578962,1.93150912 17.5239663,1.88184663 L17.6257354,1.875 Z M5.62568089,5.874 L3.9030502,5.87451189 C3.62949597,5.88438615 3.41312274,6.09208075 3.38006513,6.3693469 L3.37600842,6.46416975 L3.37560577,20.0604061 C3.36679742,20.3291108 3.55460443,20.5630294 3.79435678,20.6147209 L3.87599969,20.625 L20.0986343,20.6254881 C20.3721885,20.6156138 20.5885617,20.4079193 20.6216193,20.1306531 L20.625676,20.0358302 L20.6260787,6.43959386 C20.6359623,6.13808683 20.4000988,5.88539361 20.0986343,5.87451189 L18.3756809,5.874 L18.3757235,6.375 C18.3757235,6.75469528 18.0935746,7.06849088 17.7275044,7.11815337 L17.6257354,7.125 C17.2900649,7.125 17.0015384,6.90317165 16.9069894,6.58569851 L16.8828589,6.47650482 L16.8757473,6.375 L16.8756809,5.874 L14.6256809,5.874 L14.6257947,6.375 C14.6257947,6.75469528 14.3436458,7.06849088 13.9775757,7.11815337 L13.8758066,7.125 C13.5401361,7.125 13.2516097,6.90317165 13.1570606,6.58569851 L13.1329301,6.47650482 L13.1258185,6.375 L13.1256809,5.874 L10.8756809,5.874 L10.875866,6.375 C10.875866,6.75469528 10.593717,7.06849088 10.2276469,7.11815337 L10.1258778,7.125 C9.79020731,7.125 9.50168089,6.90317165 9.40713187,6.58569851 L9.3830013,6.47650482 L9.37588971,6.375 L9.37568089,5.874 L7.12568089,5.874 L7.1259372,6.375 C7.1259372,6.75469528 6.84378823,7.06849088 6.47771813,7.11815337 L6.37594907,7.125 C6.04027854,7.125 5.75175211,6.90317165 5.6572031,6.58569851 L5.63307253,6.47650482 L5.62596094,6.375 L5.62568089,5.874 Z M12.0008422,16.875 C12.4150498,16.875 12.7508304,17.210787 12.7508304,17.625 C12.7508304,17.9606748 12.5290065,18.2492062 12.2115378,18.3437572 L12.1023456,18.3678883 L12.0008422,18.375 L7.62592533,18.375 C7.21171779,18.375 6.8759372,18.039213 6.8759372,17.625 C6.8759372,17.2893252 7.09776106,17.0007938 7.41522972,16.9062428 L7.52442192,16.8821117 L7.62592533,16.875 L12.0008422,16.875 Z M16.3757591,13.125 C16.7899667,13.125 17.1257473,13.460787 17.1257473,13.875 C17.1257473,14.2106748 16.9039234,14.4992062 16.5864547,14.5937572 L16.4772625,14.6178883 L16.3757591,14.625 L7.62592533,14.625 C7.21171779,14.625 6.8759372,14.289213 6.8759372,13.875 C6.8759372,13.5393252 7.09776106,13.2507938 7.41522972,13.1562428 L7.52442192,13.1321117 L7.62592533,13.125 L16.3757591,13.125 Z M16.3757591,9.375 C16.7899667,9.375 17.1257473,9.71078697 17.1257473,10.125 C17.1257473,10.4606748 16.9039234,10.7492062 16.5864547,10.8437572 L16.4772625,10.8678883 L16.3757591,10.875 L7.62592533,10.875 C7.21171779,10.875 6.8759372,10.539213 6.8759372,10.125 C6.8759372,9.78932517 7.09776106,9.50079379 7.41522972,9.40624284 L7.52442192,9.38211174 L7.62592533,9.375 L16.3757591,9.375 Z"/>
</svg>
