<svg xmlns="http://www.w3.org/2000/svg" width="24" height="24" viewBox="0 0 24 24">
  <path fill="currentColor" fill-rule="evenodd" d="M14.2782928,20.8574799 C14.7366281,20.9889455 14.9991102,21.4585641 14.8645632,21.9064024 C14.4916913,23.1475022 13.3262738,24 12.002485,24 C10.6786963,24 9.5132788,23.1475022 9.14040686,21.9064024 C9.00585981,21.4585641 9.268342,20.9889455 9.72667724,20.8574799 C10.1468179,20.7369698 10.585689,20.9424339 10.759552,21.3224643 L10.8001856,21.4303233 C10.9568213,21.9516835 11.4463889,22.3098001 12.002485,22.3098001 C12.5122398,22.3098001 12.9660921,22.0088827 13.1588436,21.5571497 L13.2047845,21.4303233 C13.3393315,20.982485 13.8199576,20.7260143 14.2782928,20.8574799 Z M11.999948,0 C12.4378174,0 12.7996895,0.317930979 12.8569608,0.730424901 L12.8648564,0.84509996 L12.8648415,2.27365046 C17.0468679,2.68778352 20.3305525,6.07243098 20.471345,10.2344481 L20.4860753,11.4729782 C20.5391656,13.9477991 20.8001025,15.746669 21.1966585,16.9677286 C21.3940093,17.5754032 21.5615943,17.8853548 21.6393717,17.9932797 L21.6747808,18.034557 L21.7629156,18.1130985 C22.2461058,18.6032866 21.9472748,19.439175 21.2588347,19.5305385 L21.1333808,19.538711 L2.86651514,19.538711 C2.18556764,19.538711 1.78694876,18.8150176 2.11917869,18.2673023 L2.25533051,18.0710301 C2.38616147,17.8580032 2.58543466,17.4235169 2.79809248,16.7193945 C3.24919093,15.2257813 3.52384553,13.1831708 3.52384553,10.5130434 C3.52384553,6.22432668 6.86009412,2.69698648 11.1350544,2.27365046 L11.1350395,0.84509996 C11.1350395,0.37836414 11.5222722,0 11.999948,0 Z M11.999948,3.9212638 C8.27407731,3.9212638 5.25366236,6.87250407 5.25366236,10.5130434 C5.25366236,13.3385223 4.95747741,15.5412544 4.45717661,17.1977795 L4.37791759,17.4508382 L4.37791759,17.4508382 L4.29818583,17.6876124 L4.23998971,17.8473844 L19.6768751,17.8473844 L19.6322118,17.7268833 L19.5478643,17.4789512 C19.0425905,15.9231324 18.7462336,13.6503965 18.7462336,10.5130434 C18.7462336,6.87250407 15.7258186,3.9212638 11.999948,3.9212638 Z"/>
</svg>
