<svg xmlns="http://www.w3.org/2000/svg" width="24" height="24" viewBox="0 0 24 24">
  <path fill="currentColor" fill-rule="evenodd" d="M20.2907819,2.21609686 C19.5487113,4.02554131 19.1129288,6.08021168 18.8975899,8.47102938 L18.8564998,8.95689399 L18.8175906,9.49794309 L18.7757353,10.2596302 C18.7366327,11.1230262 18.7210871,12.0663366 18.7178919,13.3194711 L18.7181305,14.5779208 C18.720163,15.3478125 19.30502,15.9821691 20.0552165,16.0541328 L20.197714,16.0609313 L21.6387105,16.06 L21.6384179,22.6804877 C21.6384179,23.0601835 21.9205717,23.3739787 22.2866472,23.4236411 L22.3884178,23.4304877 C22.7681136,23.4304877 23.0819088,23.1483339 23.1315712,22.7822583 L23.1384179,22.6804877 L23.1384179,2.78288897 C23.1385971,2.12230229 22.705922,1.54556897 22.0847746,1.35840859 L21.9488759,1.32437706 C21.2539758,1.1847715 20.5596785,1.55978094 20.2907819,2.21609686 Z M4.41834436,1.29572966 C4.79804012,1.29572966 5.11183532,1.57788355 5.16149774,1.94395911 L5.16834436,2.04572966 L5.16834436,7.94137483 C5.16834436,8.88977719 4.5780108,9.70114775 3.74544026,10.0203716 L3.64570269,21.7442478 C3.6421736,22.1584463 3.30353845,22.4913597 2.88933992,22.4879127 C2.50965794,22.4845956 2.19827808,22.1997784 2.15173642,21.833293 L2.14575713,21.7314678 L2.24505429,10.0465895 C1.42222509,9.76387612 0.819025111,9.00616643 0.755537641,8.09999724 L0.75,7.94137483 L0.75,2.04572966 C0.75,1.6315161 1.08578644,1.29572966 1.5,1.29572966 C1.87969577,1.29572966 2.19349096,1.57788355 2.24315338,1.94395911 L2.25,2.04572966 L2.25,7.94137483 C2.25,8.34285794 2.5692039,8.66528612 2.95917218,8.66528612 C3.3166431,8.66528612 3.61465229,8.39435688 3.66183805,8.03995779 L3.66834436,7.94137483 L3.66834436,2.04572966 C3.66834436,1.6315161 4.00413079,1.29572966 4.41834436,1.29572966 Z M17.330013,18.4121763 C17.6343811,18.6931264 17.6533651,19.1676205 17.372415,19.4719886 C15.9099338,21.056372 13.8605413,21.9565605 11.7142052,21.9565605 C9.56786922,21.9565605 7.51847673,21.056372 6.05599545,19.4719886 C5.77504538,19.1676205 5.79402943,18.6931264 6.09839752,18.4121763 C6.40276561,18.1312262 6.87725973,18.1502103 7.1582098,18.4545784 C8.33716566,19.7318037 9.9871658,20.4565605 11.7142052,20.4565605 C13.4412447,20.4565605 15.0912448,19.7318037 16.2702007,18.4545784 C16.5511508,18.1502103 17.0256449,18.1312262 17.330013,18.4121763 Z M21.637,2.887 L21.637,14.56 L20.217,14.56 L20.2172911,13.0099106 C20.2247794,11.3562706 20.257818,10.269398 20.3459989,9.12843081 L20.3898318,8.60558842 C20.5771423,6.52595922 20.9373352,4.73564891 21.5252417,3.17140512 L21.637,2.887 Z M17.3726282,8.20228242 C17.6534507,8.50676823 17.6342678,8.98125435 17.329782,9.26207684 C17.0252962,9.54289933 16.55081,9.52371642 16.2699875,9.21923062 C14.0453737,6.80716124 10.3577674,6.53957109 7.81544628,8.60503592 C7.49395874,8.86622291 7.02160772,8.81733966 6.76042073,8.49585213 C6.49923374,8.1743646 6.54811699,7.70201357 6.86960452,7.44082658 C10.0269122,4.87572654 14.6114172,5.2083999 17.3726282,8.20228242 Z"/>
</svg>
