<svg xmlns="http://www.w3.org/2000/svg" width="24" height="24" viewBox="0 0 24 24">
  <path fill="currentColor" fill-rule="evenodd" d="M21.7511948,13.9047855 C20.9942311,15.0330866 18.3638273,15.9678204 16.3579036,15.998679 C14.0563003,16.0351482 12.0859063,15.3096915 10.3503697,14.6700778 C9.84211405,14.4826822 9.34469796,14.3003361 8.85812144,14.142677 L8.85631485,14.1404327 C8.85571265,14.1409938 8.85450825,14.1409938 8.85390605,14.1415548 C8.14812922,13.9143236 7.46342934,13.7403936 6.79378443,13.6865314 C6.19820995,13.6388409 5.40571652,13.7044854 4.67524954,13.8610225 C4.31814573,13.9373273 3.74605701,14.0865705 3.33716411,14.3222177 C2.84456561,13.0693602 3.01860102,11.9360095 3.08243408,11.6223744 C3.45097966,11.3654067 5.35151864,10.2668421 9.35373094,11.5449474 C14.1086916,13.0637496 15.634663,13.3437208 18.1018709,12.5773065 C19.4044266,12.1727788 20.4414127,11.5881494 21.1020246,10.8862575 C21.3802404,10.5911375 21.6060649,10.2718917 21.751797,9.9487184 C21.9878589,10.7723614 22.1661097,13.2859312 21.7511948,13.9047855 Z M4.49338554,15.1795245 C4.07184648,15.088632 3.80085708,14.9281675 3.64428543,14.8036112 C4.23082693,14.4546289 5.74595876,14.1684859 6.74199535,14.247035 C7.17798718,14.2823821 7.62963617,14.3755188 8.09453354,14.5040026 C6.29636834,15.3046419 5.15158868,15.3209128 4.49338554,15.1795245 Z M15.6509223,8.42093924 C17.5743449,7.83799303 19.9716977,7.90419866 20.8298308,8.35248935 C21.0598707,8.47255719 21.1923544,8.61282337 21.2357127,8.78114277 C21.39108,9.39045903 21.1447807,10.0177294 20.5793162,10.5838436 C17.4520985,10.1944647 15.083049,11.0321343 12.9934196,12.0224135 C12.0889173,11.7974266 10.9917113,11.4725701 9.60183679,11.029329 C10.8128583,10.4110357 13.4625324,9.08411771 15.6509223,8.42093924 Z"/>
</svg>
