<svg xmlns="http://www.w3.org/2000/svg" width="24" height="24" viewBox="0 0 24 24">
  <path fill="currentColor" fill-rule="evenodd" d="M22.5548348,19.950302 L18.2814347,15.6769019 C20.9772513,11.6414733 20.1722857,6.21922593 16.4204034,3.14099746 C12.6685211,0.0627689959 7.19349354,0.332601617 3.7624744,3.76483399 C0.331455255,7.19706636 0.063558316,12.672189 3.14311305,16.4229827 C6.22266778,20.1737765 11.6451994,20.9768251 15.6796747,18.279582 L19.9530748,22.552062 C20.6766982,23.2579331 21.8312113,23.2579331 22.5548348,22.552062 C23.2731376,21.8335423 23.2731376,20.6688217 22.5548348,19.950302 Z M10.4439546,3.77118171 C14.1276939,3.77118171 17.1139547,6.75744248 17.1139547,10.4411818 C17.1139547,14.1249212 14.1276939,17.1111819 10.4439546,17.1111819 C6.76021524,17.1111819 3.77395447,14.1249212 3.77395447,10.4411818 C3.77801072,6.75912394 6.7618967,3.77523796 10.4439546,3.77118171 Z"/>
</svg>
