<svg xmlns="http://www.w3.org/2000/svg" width="24" height="24" viewBox="0 0 24 24">
  <path fill="currentColor" fill-rule="evenodd" d="M3,17 C4.65685425,17 6,18.3431458 6,20 C6,21.6568542 4.65685425,23 3,23 C1.34314575,23 0,21.6568542 0,20 C0,18.3431458 1.34314575,17 3,17 Z M22,18 C23.1045695,18 24,18.8954305 24,20 C24,21.1045695 23.1045695,22 22,22 L10,22 C8.8954305,22 8,21.1045695 8,20 C8,18.8954305 8.8954305,18 10,18 L22,18 Z M3,18.2857143 C2.05322614,18.2857143 1.28571429,19.0532261 1.28571429,20 C1.28571429,20.9467739 2.05322614,21.7142857 3,21.7142857 C3.94677386,21.7142857 4.71428571,20.9467739 4.71428571,20 C4.71428571,19.0532261 3.94677386,18.2857143 3,18.2857143 Z M3,9 C4.65685425,9 6,10.3431458 6,12 C6,13.6568542 4.65685425,15 3,15 C1.34314575,15 0,13.6568542 0,12 C0,10.3431458 1.34314575,9 3,9 Z M22,10 C23.1045695,10 24,10.8954305 24,12 C24,13.1045695 23.1045695,14 22,14 L10,14 C8.8954305,14 8,13.1045695 8,12 C8,10.8954305 8.8954305,10 10,10 L22,10 Z M3,1 C4.65685425,1 6,2.34314575 6,4 C6,5.65685425 4.65685425,7 3,7 C1.34314575,7 0,5.65685425 0,4 C0,2.34314575 1.34314575,1 3,1 Z M22,2 C23.1045695,2 24,2.8954305 24,4 C24,5.1045695 23.1045695,6 22,6 L10,6 C8.8954305,6 8,5.1045695 8,4 C8,2.8954305 8.8954305,2 10,2 L22,2 Z M3,2.28571429 C2.05322614,2.28571429 1.28571429,3.05322614 1.28571429,4 C1.28571429,4.94677386 2.05322614,5.71428571 3,5.71428571 C3.94677386,5.71428571 4.71428571,4.94677386 4.71428571,4 C4.71428571,3.05322614 3.94677386,2.28571429 3,2.28571429 Z"/>
</svg>
