<svg xmlns="http://www.w3.org/2000/svg" width="24" height="24" viewBox="0 0 24 24">
  <path fill="currentColor" fill-rule="evenodd" d="M6.54358974,7.41117708 C7.05429645,7.41117708 7.46923077,7.80573193 7.46923077,8.29356128 C7.46923077,8.69656859 7.18443425,9.04085401 6.78283509,9.14500932 L6.65901925,9.1688706 L6.54358974,9.17594547 L4.98461538,9.17594547 C4.70168698,9.17594547 4.4591343,9.35265405 4.37988238,9.59238498 L4.35805772,9.6850162 L4.35128205,9.77596673 L4.35128205,21.6352103 C4.35128205,21.9023334 4.53687125,22.1324945 4.79045137,22.2079569 L4.88850131,22.2287739 L4.98461538,22.2352316 L19.0153846,22.2352316 C19.298313,22.2352316 19.5408657,22.058523 19.6201176,21.8187921 L19.6419423,21.7261609 L19.6487179,21.6352103 L19.6487179,9.77596673 C19.6487179,9.50884364 19.4631287,9.27868255 19.2095486,9.20322015 L19.1114987,9.18240321 L19.0153846,9.17594547 L17.4564103,9.17594547 C16.9457036,9.17594547 16.5307692,8.78139062 16.5307692,8.29356128 C16.5307692,7.89055397 16.8155658,7.54626854 17.2171649,7.44211323 L17.3409807,7.41825195 L17.4564103,7.41117708 L19.0153846,7.41117708 C20.2614569,7.41117708 21.3026918,8.28729147 21.4752361,9.44344598 L21.4945196,9.61889494 L21.5,9.77596673 L21.5,21.6352103 C21.5,22.8221567 20.5784783,23.8125066 19.3645404,23.976474 L19.1803352,23.9947925 L19.0153846,24 L4.98461538,24 C3.73854308,24 2.69730818,23.1238856 2.52476392,21.9677311 L2.50548045,21.7922821 L2.5,21.6352103 L2.5,9.77596673 C2.5,8.58902043 3.42152167,7.59867044 4.63545961,7.43470311 L4.81966478,7.4163846 L4.98461538,7.41117708 L6.54358974,7.41117708 Z M12.0397602,0 L12.1405605,0.00927739499 L12.2734028,0.0383104587 L12.3379494,0.0598579025 L12.4356139,0.102752678 L12.5523951,0.173405477 L12.6151931,0.222282906 L16.551146,3.96282485 C16.9137206,4.30759157 16.9137206,4.86750372 16.551146,5.21227044 C16.2583506,5.4906852 15.8138833,5.54596397 15.4551242,5.36142431 L15.3390378,5.29100603 L15.2437518,5.21229515 L12.9236923,3.00800934 L12.925641,11.2583722 C12.925641,11.6648966 12.6374922,12.0066471 12.2458947,12.1092716 L12.1254967,12.1327108 L12,12.1407564 C11.5782302,12.1407564 11.2166416,11.870193 11.1069679,11.4868153 L11.0818149,11.3685753 L11.074359,11.2583784 L11.0739692,3.00687989 L8.75627422,5.21227044 C8.49601166,5.45975023 8.11590956,5.53092504 7.78268751,5.41407825 L7.66025237,5.36142431 L7.54416598,5.29100603 L7.44885399,5.21227044 C7.15503497,4.93288232 7.09659766,4.50739861 7.29161045,4.16443364 L7.36602653,4.05348184 L7.44885399,3.96282485 L11.3534223,0.250465126 L11.4405206,0.178612809 L11.4704369,0.157664096 L11.5799377,0.0951184332 L11.7293921,0.0375439661 C11.7872326,0.0206457927 11.8470048,0.00921445003 11.9088999,0.00348217511 L12.0397602,0 Z"/>
</svg>
