<svg xmlns="http://www.w3.org/2000/svg" width="24" height="24" viewBox="0 0 24 24">
  <path fill="currentColor" fill-rule="evenodd" d="M14.4513658,4.23025464 C15.1470945,4.57528812 15.6035465,5.25649661 15.6611119,6.01751229 L15.6672837,6.18171518 L15.6672837,17.8161605 C15.6672837,18.6424361 15.1964586,19.3977947 14.4511024,19.7673163 C13.7589859,20.1104436 12.9404751,20.0661927 12.3303703,19.6866027 L12.1934288,19.5930759 L5.92038475,15.634702 L3.20009254,15.634702 C2.08857273,15.634702 1.16957138,14.8174138 1.02099716,13.7558512 L1.00507567,13.6025996 L1,13.4532435 L1,10.5446322 C1,9.39222794 1.90122354,8.44853293 3.04297092,8.36865095 L3.20009254,8.36317369 L5.91940693,8.36317369 L12.14696,4.436679 C12.813582,3.94063778 13.7056668,3.8606867 14.4513658,4.23025464 Z M13.0828261,5.56573683 L6.866,9.489 L6.866,14.508 L13.1137838,18.4533315 C13.2880973,18.5484248 13.4940981,18.5690511 13.6837307,18.510914 L13.7951615,18.4665458 C14.0125571,18.3587687 14.1598901,18.1525227 14.1933265,17.9181319 L14.2005553,17.8161605 L14.2005553,6.18149752 C14.2005553,5.90602901 14.0437239,5.65416436 13.7954249,5.53102516 C13.5779806,5.4232599 13.3231326,5.43019342 13.0828261,5.56573683 Z M18.4462117,9.39705176 L18.5303301,9.46966991 L20,10.939 L21.4696699,9.46966991 C21.7625631,9.1767767 22.2374369,9.1767767 22.5303301,9.46966991 C22.7965966,9.73593648 22.8208027,10.1526002 22.6029482,10.4462117 L22.5303301,10.5303301 L21.061,12 L22.5303301,13.4696699 C22.8232233,13.7625631 22.8232233,14.2374369 22.5303301,14.5303301 C22.2640635,14.7965966 21.8473998,14.8208027 21.5537883,14.6029482 L21.4696699,14.5303301 L20,13.061 L18.5303301,14.5303301 C18.2374369,14.8232233 17.7625631,14.8232233 17.4696699,14.5303301 C17.2034034,14.2640635 17.1791973,13.8473998 17.3970518,13.5537883 L17.4696699,13.4696699 L18.939,12 L17.4696699,10.5303301 C17.1767767,10.2374369 17.1767767,9.76256313 17.4696699,9.46966991 C17.7359365,9.20340335 18.1526002,9.1791973 18.4462117,9.39705176 Z M5.4,9.817 L3.20009254,9.81747936 C2.82881885,9.81747936 2.52198397,10.091038 2.47342311,10.4459619 L2.46672836,10.5446322 L2.46672836,13.4532435 C2.46672836,13.8213727 2.74262376,14.1256088 3.10057937,14.1737583 L3.20009254,14.1803964 L5.4,14.18 L5.4,9.817 Z"/>
</svg>
