<svg xmlns="http://www.w3.org/2000/svg" width="24" height="24" viewBox="0 0 24 24">
  <path fill="currentColor" fill-rule="evenodd" d="M12.14696,4.436679 C12.813582,3.94063778 13.7056668,3.8606867 14.4513658,4.23025464 C15.1470945,4.57528812 15.6035465,5.25649661 15.6611119,6.01751229 L15.6672837,6.18171518 L15.6672837,17.8161605 C15.6672837,18.6424361 15.1964586,19.3977947 14.4511024,19.7673163 C13.7589859,20.1104436 12.9404751,20.0661927 12.3303703,19.6866027 L12.1934288,19.5930759 L5.92038475,15.634702 L3.20009254,15.634702 C2.08857273,15.634702 1.16957138,14.8174138 1.02099716,13.7558512 L1.00507567,13.6025996 L1,13.4532435 L1,10.5446322 C1,9.39222794 1.90122354,8.44853293 3.04297092,8.36865095 L3.20009254,8.36317369 L5.91940693,8.36317369 L12.14696,4.436679 Z M13.7954249,5.53102516 C13.5779806,5.4232599 13.3231326,5.43019342 13.0828261,5.56573683 L6.866,9.489 L6.866,14.508 L13.1137838,18.4533315 C13.2880973,18.5484248 13.4940981,18.5690511 13.6837307,18.510914 L13.7951615,18.4665458 C14.0125571,18.3587687 14.15989,18.1525227 14.1933265,17.9181319 L14.2005553,17.8161605 L14.2005553,6.18149752 C14.2005553,5.90602901 14.0437239,5.65416436 13.7954249,5.53102516 Z M21.8718053,8.35986845 C23.3760649,10.6975394 23.3760649,13.6881512 21.8718053,16.0258221 C21.6539505,16.364376 21.2005478,16.4637177 20.859102,16.247708 C20.5176562,16.0316984 20.417466,15.5821358 20.6353208,15.243582 C21.8325886,13.3829867 21.8325886,11.0027038 20.6353208,9.14210862 C20.417466,8.80355477 20.5176562,8.35399222 20.859102,8.13798256 C21.2005478,7.9219729 21.6539505,8.0213146 21.8718053,8.35986845 Z M18.9861119,9.63626307 C20.2244092,11.1475953 20.2244092,13.3127496 18.9861119,14.8240819 C18.7307242,15.1357806 18.2688513,15.1831832 17.95449,14.9299585 C17.6401286,14.6767338 17.5923211,14.2187728 17.8477089,13.9070741 C18.6482391,12.9300332 18.6482391,11.5303117 17.8477089,10.5532709 C17.5923211,10.2415721 17.6401286,9.78361112 17.95449,9.53038641 C18.2688513,9.2771617 18.7307242,9.3245643 18.9861119,9.63626307 Z M5.4,14.18 L5.4,9.817 L3.20009254,9.81747936 C2.82881885,9.81747936 2.52198397,10.091038 2.47342311,10.4459619 L2.46672836,10.5446322 L2.46672836,13.4532435 C2.46672836,13.8213727 2.74262376,14.1256088 3.10057937,14.1737583 L3.20009254,14.1803964 L5.4,14.18 Z"/>
</svg>
