<svg xmlns="http://www.w3.org/2000/svg" width="24" height="24" viewBox="0 0 24 24">
  <path fill="currentColor" fill-rule="evenodd" d="M13.3333105,19.3333562 C13.701494,19.3333562 13.9999658,19.6318304 13.9999658,20.0000171 C13.9999658,21.1045772 13.1045506,22 12,22 C10.8954494,22 10.0000342,21.1045772 10.0000342,20.0000171 C10.0000342,19.6318304 10.298506,19.3333562 10.6666895,19.3333562 C11.0041911,19.3333562 11.2831153,19.5841575 11.327259,19.9095552 L11.3333447,20.0000171 C11.3333447,20.3682038 11.6318165,20.6666781 12,20.6666781 C12.3375016,20.6666781 12.6164259,20.4158768 12.6605695,20.0904791 L12.6666553,20.0000171 C12.6666553,19.6318304 12.965127,19.3333562 13.3333105,19.3333562 Z M12,3.33349313 C12.3375016,3.33349313 12.6164259,3.58429443 12.6605695,3.90969215 L12.6666553,4.00015409 L12.6670392,5.09268889 C15.6520775,5.47041255 17.9017047,8.3550275 17.9967667,11.7746409 L17.9998973,12.0000856 C17.9998973,13.7421445 18.2344989,15.0476355 18.6165868,15.9781547 C18.8060463,16.4395556 18.9778026,16.6984435 19.07482,16.8018185 L19.1043128,16.8305816 C19.140476,16.8620679 19.1724234,16.8965958 19.2001057,16.9334524 L19.2434363,16.9989142 L19.2434363,16.9989142 L19.2881896,17.0921742 L19.2881896,17.0921742 L19.3115953,17.1643558 L19.3115953,17.1643558 L19.3260788,17.2356254 L19.3260788,17.2356254 L19.3332078,17.3333733 L19.3332078,17.3333733 C19.3332078,17.376716 19.3290717,17.4190926 19.3211725,17.4601299 L19.293633,17.5601823 L19.293633,17.5601823 L19.260517,17.6364076 L19.260517,17.6364076 L19.2073917,17.7232274 L19.2073917,17.7232274 L19.18094,17.7574755 C19.1344056,17.8138528 19.078782,17.8624499 19.0163128,17.9010233 L18.9311421,17.9454636 L18.9311421,17.9454636 L18.8325995,17.97919 L18.8325995,17.97919 L18.7141395,17.9983337 L18.7141395,17.9983337 L18.6665526,18.0000342 L5.33344742,18.0000342 L5.27062378,17.9971129 L5.27062378,17.9971129 L5.18386773,17.9830923 L5.18386773,17.9830923 L5.0758762,17.9484217 L5.0758762,17.9484217 L4.98087371,17.8993812 L4.98087371,17.8993812 L4.89607261,17.8365135 L4.89607261,17.8365135 L4.82649859,17.7663113 L4.80634073,17.7415798 C4.79246637,17.7236899 4.77948262,17.7050747 4.76745599,17.6858007 L4.82649859,17.7663113 C4.79624526,17.7308855 4.77035034,17.6932053 4.7487624,17.6539239 L4.71166626,17.5743214 L4.71166626,17.5743214 L4.6899792,17.5083043 L4.6899792,17.5083043 L4.67082726,17.4071418 L4.67082726,17.4071418 L4.66679216,17.3333733 L4.66679216,17.3333733 L4.67020534,17.2654942 L4.67020534,17.2654942 L4.68979242,17.1595278 L4.68979242,17.1595278 L4.72348074,17.0639741 L4.72348074,17.0639741 L4.7608522,16.991613 L4.7608522,16.991613 L4.83023311,16.8960739 L4.83023311,16.8960739 L4.89959532,16.8271895 C4.98688853,16.7526549 5.17398684,16.4947688 5.38371904,15.9857444 C5.74006321,15.1208897 5.96817023,13.9243763 5.99700075,12.344514 L6.00010268,12.0000856 C6.00010268,8.48255779 8.28258593,5.47862839 11.3330481,5.09267784 L11.3333447,4.00015409 C11.3333447,3.63196741 11.6318165,3.33349313 12,3.33349313 Z M12,6.38413368 C9.48074394,6.38413368 7.4307652,8.79978048 7.33677985,11.7858497 L7.3334132,12.0000856 C7.3334132,13.9187194 7.06800806,15.3978349 6.61648632,16.4936875 L6.541,16.666 L17.4611457,16.6668514 L17.3832079,16.4846108 L17.3832079,16.4846108 C16.9620587,15.4589634 16.7027981,14.1041139 16.6701018,12.3761016 L16.6665868,12.0000856 C16.6665868,8.9161807 14.5792383,6.38413368 12,6.38413368 Z M7.97312588,4.80183244 C8.15186874,5.12372043 8.03582892,5.52956316 7.71394369,5.70830754 C6.90012016,6.16022759 6.22932558,6.83129949 5.77773885,7.64531284 C5.5991263,7.96727315 5.19333405,8.08347823 4.87137649,7.90486414 C4.54941893,7.72625006 4.43321485,7.32045434 4.6118274,6.99849403 C5.18437486,5.96644139 6.03484656,5.11561809 7.06665853,4.54264803 C7.38854376,4.36390364 7.79438302,4.47994446 7.97312588,4.80183244 Z M16.9346838,4.54339549 C17.4463309,4.8290603 17.9163574,5.18358618 18.3331177,5.59855795 C18.7477141,6.01401805 19.1026837,6.48497508 19.3878804,6.99796793 C19.5667835,7.31976688 19.4509458,7.72566733 19.1291496,7.90457197 C18.8073534,8.08347661 18.4014564,7.96763788 18.2225533,7.64583893 C17.9972635,7.2406026 17.7168569,6.86857226 17.3908561,6.54188752 C17.0620424,6.21448877 16.6898566,5.93376095 16.2847139,5.70756009 C15.9632415,5.52807432 15.8481373,5.12196523 16.0276216,4.80049005 C16.2071058,4.47901487 16.6132114,4.36390972 16.9346838,4.54339549 Z M7.28577732,2.48451517 C7.38646736,2.83866595 7.18099929,3.20738798 6.82685154,3.30807888 C5.12339044,3.79240507 3.79204976,5.12405466 3.30810834,6.8276385 C3.20749743,7.18181177 2.83882447,7.38736398 2.48465423,7.28675221 C2.13048399,7.18614044 1.92493354,6.81746433 2.02554444,6.46329106 C2.63573145,4.31529404 4.3143784,2.63625761 6.46222065,2.02558546 C6.8163684,1.92489456 7.18508728,2.13036439 7.28577732,2.48451517 Z M17.5377793,2.02558546 C19.6856216,2.63625761 21.3642686,4.31529404 21.9744556,6.46329106 C22.0750665,6.81746433 21.869516,7.18614044 21.5153458,7.28675221 C21.1611755,7.38736398 20.7925026,7.18181177 20.6918917,6.8276385 C20.2079502,5.12405466 18.8766096,3.79240507 17.1731485,3.30807888 C16.8190007,3.20738798 16.6135326,2.83866595 16.7142227,2.48451517 C16.8149127,2.13036439 17.1836316,1.92489456 17.5377793,2.02558546 Z"/>
</svg>
