<svg xmlns="http://www.w3.org/2000/svg" width="24" height="24" viewBox="0 0 24 24">
  <path fill="currentColor" fill-rule="evenodd" d="M12,0 C18.627417,0 24,5.372583 24,12 C24,18.627417 18.627417,24 12,24 C5.372583,24 0,18.627417 0,12 C0,5.372583 5.372583,0 12,0 Z M12,2 C6.4771525,2 2,6.4771525 2,12 C2,17.5228475 6.4771525,22 12,22 C17.5228475,22 22,17.5228475 22,12 C22,6.4771525 17.5228475,2 12,2 Z M11.75,4 C12.2628358,4 12.6855072,4.38604019 12.7432723,4.88337887 L12.75,5 L12.7508388,9.14518909 C14.1961522,9.57573199 15.25,10.9147963 15.25,12.5 C15.25,12.8858671 15.1875571,13.2571499 15.0722248,13.6042948 L17.3234623,15.1807681 C17.7759116,15.4974826 17.8859464,16.121013 17.5692319,16.5734623 C17.2768801,16.9911078 16.7230992,17.1169919 16.2837685,16.8847828 L16.1765377,16.8192319 L13.9243009,15.2428786 C13.3271497,15.7168813 12.5716378,16 11.75,16 C9.81700338,16 8.25,14.4329966 8.25,12.5 C8.25,10.9144302 9.30433459,9.5751135 10.7501626,9.14489094 L10.75,5 C10.75,4.44771525 11.1977153,4 11.75,4 Z M11.75,11 C10.9215729,11 10.25,11.6715729 10.25,12.5 C10.25,13.3284271 10.9215729,14 11.75,14 C12.5784271,14 13.25,13.3284271 13.25,12.5 C13.25,11.6715729 12.5784271,11 11.75,11 Z"/>
</svg>
