<svg xmlns="http://www.w3.org/2000/svg" width="24" height="24" viewBox="0 0 24 24">
  <path fill="currentColor" fill-rule="evenodd" d="M12 0c6.627 0 12 5.373 12 12s-5.373 12-12 12S0 18.627 0 12 5.373 0 12 0zm0 1.75C6.34 1.75 1.75 6.34 1.75 12S6.34 22.25 12 22.25 22.25 17.66 22.25 12 17.66 1.75 12 1.75zm0 14.27l.14.007c.641.068 1.141.594 1.141 1.233 0 .685-.574 1.24-1.281 1.24-.708 0-1.282-.555-1.282-1.24 0-.639.5-1.165 1.142-1.233l.14-.007zm3.897-7.519c.457 1.918-.646 3.862-2.564 4.518-.23.079-.395.274-.432.502l-.008.1v.257c0 .478-.4.865-.893.865-.452 0-.826-.325-.885-.747l-.008-.118v-.257c0-.94.574-1.785 1.451-2.162l.18-.07c1.06-.363 1.671-1.438 1.419-2.5-.253-1.06-1.289-1.77-2.407-1.647-1.056.116-1.869.94-1.956 1.948l-.008.18c0 .477-.4.864-.893.864S8 9.847 8 9.37c0-1.968 1.527-3.623 3.548-3.845 2.021-.222 3.892 1.058 4.35 2.976z"
            transform="translate(-374 -53) translate(374 53)"/>
</svg>
