<svg xmlns="http://www.w3.org/2000/svg" width="24" height="24" viewBox="0 0 24 24">
  <path fill="currentColor" fill-rule="evenodd" d="M14.8519984,1.375 C15.6222342,1.375 16.2552122,1.96267007 16.327015,2.71409268 L16.3337983,2.85679989 L16.333,4.802 L21.7063976,4.80219958 C22.0515755,4.80219958 22.3313976,5.08202161 22.3313976,5.42719958 C22.3313976,5.74099773 22.1001397,6.00078271 21.7987555,6.04542297 L21.7063976,6.05219958 L20.126,6.052 L18.6334545,20.2371814 C18.5141042,21.3730375 17.5947529,22.2480285 16.470496,22.3257726 L16.3085582,22.3313976 L7.39783933,22.3313976 C6.25530126,22.3313976 5.2888149,21.507878 5.09453365,20.39776 L5.07209665,20.23728 L3.579,6.052 L2,6.05219958 C1.65482203,6.05219958 1.375,5.77237754 1.375,5.42719958 C1.375,5.11340142 1.60625788,4.85361644 1.90764208,4.80897618 L2,4.80219958 L7.372,4.802 L7.37259926,2.85679989 C7.37259926,2.08656414 7.96026932,1.45358609 8.71169193,1.38178326 L8.85439915,1.375 L14.8519984,1.375 Z M18.869,6.052 L4.836,6.052 L6.3152424,20.1065565 C6.36930822,20.6211001 6.77603158,21.0206145 7.27994311,21.0750627 L7.39783933,21.0813976 L16.3082302,21.0813976 C16.8254065,21.0811262 17.2649358,20.718413 17.3716982,20.2229994 L17.3903125,20.1064222 L18.869,6.052 Z M11.8531988,8.6577991 C12.1669969,8.6577991 12.4267819,8.88905698 12.4714222,9.19044118 L12.4781988,9.2827991 L12.4781988,18.279198 C12.4781988,18.624376 12.1983767,18.904198 11.8531988,18.904198 C11.5394006,18.904198 11.2796156,18.6729401 11.2349754,18.3715559 L11.2281988,18.279198 L11.2281988,9.2827991 C11.2281988,8.93762113 11.5080208,8.6577991 11.8531988,8.6577991 Z M15.7385265,8.65850651 C16.0519695,8.67343237 16.3004606,8.91678521 16.330715,9.2199516 L16.3330909,9.31252732 L15.9046909,18.3089262 C15.8882725,18.6537135 15.5954574,18.919909 15.2506701,18.9034906 C14.9372272,18.8885647 14.688736,18.6452119 14.6584817,18.3420455 L14.6561058,18.2494698 L15.0845057,9.25307088 C15.1009242,8.90828361 15.3937392,8.64208807 15.7385265,8.65850651 Z M7.96787104,8.65850651 C8.28131402,8.64358066 8.55180477,8.86222007 8.61072989,9.16113983 L8.62189184,9.25307088 L9.05029179,18.2494698 C9.06671023,18.594257 8.8005147,18.8870721 8.45572742,18.9034906 C8.14228445,18.9184164 7.87179369,18.699777 7.81286857,18.4008573 L7.80170662,18.3089262 L7.37330667,9.31252732 C7.35688823,8.96774004 7.62308376,8.67492495 7.96787104,8.65850651 Z M14.8519984,2.625 L8.85439915,2.625 C8.7477162,2.625 8.65786602,2.69706969 8.63087937,2.7951783 L8.62259926,2.85679989 L8.622,4.802 L15.083,4.802 L15.0837983,2.85679989 C15.0837983,2.75011694 15.0117286,2.66026676 14.91362,2.63328012 L14.8519984,2.625 Z"/>
</svg>
