<svg xmlns="http://www.w3.org/2000/svg" width="24" height="24" viewBox="0 0 24 24">
  <path fill="currentColor" fill-rule="evenodd" d="M17.2950594,3.875 C17.8234428,3.875 18.3252491,4.08377256 18.6877985,4.4500515 L18.8033361,4.57790773 L18.9026,4.71058648 L22.8142241,10.4702336 C23.1366921,10.9450496 23.2108278,11.5322811 23.0224762,12.0658321 L22.9580819,12.2241208 L22.881744,12.3703953 L18.9164522,19.1821768 C18.6349794,19.6657052 18.1437826,19.9982579 17.5795838,20.0958072 L17.4082708,20.1179378 L17.2413917,20.125 L3.79331503,20.125 C2.84629481,20.125 2.05020118,19.4640937 1.90002087,18.5807936 L1.88105637,18.4315929 L1.875,18.2857143 L1.875,5.71428571 C1.875,4.80385941 2.56682189,4.04211644 3.48615931,3.89884707 L3.64140922,3.88077601 L3.79331503,3.875 L17.2950594,3.875 Z M17.2950594,5.26785714 L3.79331503,5.26785714 C3.58870992,5.26785714 3.41273738,5.39119801 3.3484138,5.55813149 L3.32792423,5.63211085 L3.32054336,5.71428571 L3.32054336,18.2857143 C3.32054336,18.4766378 3.44888386,18.6435075 3.62687447,18.7052471 L3.70596655,18.725034 L3.79331503,18.7321429 L17.2413917,18.7321429 C17.3592942,18.7321429 17.4713442,18.6906118 17.5540445,18.6220249 L17.6101996,18.5657378 L17.6557062,18.5006868 L21.6209981,11.6889053 C21.6778175,11.5912979 21.6933268,11.4784118 21.6694226,11.3769025 L21.644134,11.3033202 L21.6046544,11.2330039 L17.6930303,5.47335683 C17.6062808,5.34562302 17.4564753,5.26785714 17.2950594,5.26785714 Z M11.5,7.375 C11.7696426,7.375 12.0034549,7.5469038 12.0907807,7.80029877 L12.1164452,7.89896519 L12.125,8 L12.125,16 C12.125,16.345178 11.845178,16.625 11.5,16.625 C11.2303574,16.625 10.9965451,16.4530962 10.9092193,16.1997012 L10.8835548,16.1010348 L10.875,16 L10.875,8 C10.875,7.65482203 11.154822,7.375 11.5,7.375 Z M15.5,8.375 C15.7696426,8.375 16.0034549,8.5469038 16.0907807,8.80029877 L16.1164452,8.89896519 L16.125,9 L16.125,15 C16.125,15.345178 15.845178,15.625 15.5,15.625 C15.2303574,15.625 14.9965451,15.4530962 14.9092193,15.1997012 L14.8835548,15.1010348 L14.875,15 L14.875,9 C14.875,8.65482203 15.154822,8.375 15.5,8.375 Z M7.5,8.375 C7.76964263,8.375 8.00345488,8.5469038 8.09078071,8.80029877 L8.11644523,8.89896519 L8.125,9 L8.125,15 C8.125,15.345178 7.84517797,15.625 7.5,15.625 C7.23035737,15.625 6.99654512,15.4530962 6.90921929,15.1997012 L6.88355477,15.1010348 L6.875,15 L6.875,9 C6.875,8.65482203 7.15482203,8.375 7.5,8.375 Z M9.5,9.375 C9.76964263,9.375 10.0034549,9.5469038 10.0907807,9.80029877 L10.1164452,9.89896519 L10.125,10 L10.125,14 C10.125,14.345178 9.84517797,14.625 9.5,14.625 C9.23035737,14.625 8.99654512,14.4530962 8.90921929,14.1997012 L8.88355477,14.1010348 L8.875,14 L8.875,10 C8.875,9.65482203 9.15482203,9.375 9.5,9.375 Z M13.5,9.375 C13.7696426,9.375 14.0034549,9.5469038 14.0907807,9.80029877 L14.1164452,9.89896519 L14.125,10 L14.125,14 C14.125,14.345178 13.845178,14.625 13.5,14.625 C13.2303574,14.625 12.9965451,14.4530962 12.9092193,14.1997012 L12.8835548,14.1010348 L12.875,14 L12.875,10 C12.875,9.65482203 13.154822,9.375 13.5,9.375 Z M17.5,10.375 C17.7696426,10.375 18.0034549,10.5469038 18.0907807,10.8002988 L18.1164452,10.8989652 L18.125,11 L18.125,13 C18.125,13.345178 17.845178,13.625 17.5,13.625 C17.2303574,13.625 16.9965451,13.4530962 16.9092193,13.1997012 L16.8835548,13.1010348 L16.875,13 L16.875,11 C16.875,10.654822 17.154822,10.375 17.5,10.375 Z M5.5,10.375 C5.76964263,10.375 6.00345488,10.5469038 6.09078071,10.8002988 L6.11644523,10.8989652 L6.125,11 L6.125,13 C6.125,13.345178 5.84517797,13.625 5.5,13.625 C5.23035737,13.625 4.99654512,13.4530962 4.90921929,13.1997012 L4.88355477,13.1010348 L4.875,13 L4.875,11 C4.875,10.654822 5.15482203,10.375 5.5,10.375 Z"/>
</svg>
