<svg xmlns="http://www.w3.org/2000/svg" width="24" height="24" viewBox="0 0 24 24">
  <path fill="currentColor" fill-rule="evenodd" d="M1.29145627,17.2935872 C1.66149411,16.9237063 2.24531224,16.895254 2.64823936,17.20823 L2.74497418,17.2935872 L6.6996357,21.2460134 C6.8936611,21.4399564 7.0007096,21.6985472 7.0007096,21.9732999 C7.0007096,22.2474953 6.8936611,22.5049714 6.6996357,22.6994718 C6.32959785,23.0693527 5.74482958,23.097805 5.34219481,22.7848289 L5.24556024,22.6994718 L1.29145627,18.7464883 C0.902847911,18.3580449 0.902847911,17.6820306 1.29145627,17.2935872 Z M2.64684639,14.2986156 C3.01636958,13.9292492 3.60109826,13.9008364 4.0041685,14.2133772 L4.10092185,14.2986156 L9.69532106,19.8911983 C9.88934647,20.0856987 9.99639497,20.3431749 9.99639497,20.6179276 C9.99639497,20.892123 9.88934647,21.1495991 9.69532106,21.3440995 C9.50129566,21.5385999 9.24315266,21.6450457 8.96828333,21.6450457 C8.73922556,21.6450457 8.52217048,21.571125 8.34357563,21.4339267 L8.2412456,21.3440995 L2.64684639,15.7515168 C2.25823803,15.3630733 2.25823803,14.6876164 2.64684639,14.2986156 Z M16.3702411,6.90481438 L17.0917034,7.62652782 L7.62014126,17.0951853 L6.89812142,16.3734719 L16.3702411,6.90481438 Z M14.2945038,2.6559005 C14.6645416,2.28601966 15.2488348,2.25756729 15.651835,2.57054338 L15.7485792,2.6559005 L21.3429784,8.24848324 C21.5375614,8.44242632 21.6440523,8.69990247 21.6440523,8.97465517 C21.6440523,9.24940786 21.5375614,9.50688402 21.3429784,9.7013844 C20.9729406,10.0707508 20.3886474,10.0991636 19.9860857,9.7866228 L19.8894605,9.7013844 L14.2945038,4.10880166 C13.9058954,3.7203582 13.9058954,3.04434396 14.2945038,2.6559005 Z M17.2901891,1.30052818 C17.660227,0.930647344 18.2445202,0.902194972 18.6475204,1.21517106 L18.7442646,1.30052818 L22.6989261,5.25351167 C22.8929515,5.44801206 23,5.70548821 23,5.98024091 C23,6.2544363 22.8929515,6.51246976 22.6989261,6.70641284 C22.3288882,7.07629367 21.7445951,7.10474604 21.3415948,6.79176995 L21.2448506,6.70641284 L17.2901891,2.75398665 C16.9015808,2.36554319 16.9015808,1.68897164 17.2901891,1.30052818 Z"/>
</svg>
