<svg width="40" height="40" viewBox="0 0 40 40" fill="none" xmlns="http://www.w3.org/2000/svg">
    <path d="M26.7 15.285a1 1 0 0 0-1.415.015l-7.229 7.386-3.472-2.498-.106-.067a1 1 0 0 0-1.062 1.69l4.17 3 .103.066a1 1 0 0 0 1.195-.177l7.83-8 .083-.096a1 1 0 0 0-.097-1.319z" fill="currentColor"/>
    <path fill-rule="evenodd" clip-rule="evenodd" d="M40 20c0 11.046-8.954 20-20 20S0 31.046 0 20 8.954 0 20 0s20 8.954 20 20zm-1.75 0c0 10.08-8.17 18.25-18.25 18.25S1.75 30.08 1.75 20 9.92 1.75 20 1.75 38.25 9.92 38.25 20z" fill="currentColor"/>
</svg>
