<svg width="12" height="12" viewBox="0 0 12 12" fill="none"
    xmlns="http://www.w3.org/2000/svg">
    <path fill-rule="evenodd" clip-rule="evenodd" d="M6.78746 6.78902H10.8146C11.2474 6.78902 11.5984 6.43576 11.5984 5.99999C11.5984 5.56119 11.2475 5.21097 10.8146 5.21097H6.78746V1.18381C6.78746 0.751068 6.4342 0.399994 5.99844 0.399994C5.55963 0.399994 5.20941 0.75092 5.20941 1.18381V5.21097H1.18225C0.749512 5.21097 0.398438 5.56423 0.398438 5.99999C0.398438 6.4388 0.749364 6.78902 1.18225 6.78902H5.20941V10.8162C5.20941 11.2489 5.56267 11.6 5.99844 11.6C6.43724 11.6 6.78746 11.2491 6.78746 10.8162V6.78902Z" fill="white"/>
</svg>
