<svg width="24" height="24" viewBox="0 0 24 24" xmlns="http://www.w3.org/2000/svg">
    <path fill-rule="evenodd" clip-rule="evenodd" d="M21.818 3H2.182C.982 3 0 3.95 0 5.111v3.167h2.182V5.11h19.636V19.89h-7.636V22h7.636c1.2 0 2.182-.95 2.182-2.111V5.11C24 3.95 23.018 3 21.818 3zM0 18.833V22h3.273c0-1.752-1.462-3.167-3.273-3.167zm0-4.222v2.111c3.01 0 5.455 2.365 5.455 5.278h2.181c0-4.085-3.414-7.389-7.636-7.389zm0-4.222V12.5c5.422 0 9.818 4.254 9.818 9.5H12c0-6.418-5.378-11.611-12-11.611z" fill="currentColor"/>
</svg>
