<svg width="24" height="24" viewBox="0 0 24 24" xmlns="http://www.w3.org/2000/svg">
    <path fill-rule="evenodd" clip-rule="evenodd" d="M2.182 3h19.636C23.018 3 24 3.95 24 5.111V19.89C24 21.05 23.018 22 21.818 22h-7.636v-2.111h7.636V5.11H2.182v3.167H0V5.11C0 3.95.982 3 2.182 3zM0 22v-3.167c1.81 0 3.273 1.415 3.273 3.167H0zm0-5.278v-2.11c4.222 0 7.636 3.303 7.636 7.388H5.455c0-2.913-2.444-5.278-5.455-5.278zM0 12.5v-2.111c6.622 0 12 5.193 12 11.611H9.818c0-5.246-4.396-9.5-9.818-9.5zM20 7v11.111h-6.667c-.889-3.555-4.444-8-9.333-9.333V7h16z" fill="currentColor"/>
</svg>
