<svg xmlns="http://www.w3.org/2000/svg" width="40" height="40" viewBox="0 0 40 40">
    <g fill="none" fill-rule="evenodd">
        <path fill="#BBB" d="M20 40C8.954 40 0 31.046 0 20S8.954 0 20 0s20 8.954 20 20-8.954 20-20 20z"/>
        <path fill="#FFF" d="M20 27.975L13.508 31.4c-.417.22-.933.06-1.152-.359-.088-.167-.118-.358-.086-.543l1.24-7.258-5.252-5.14c-.338-.33-.345-.873-.016-1.211.131-.135.303-.223.488-.25l7.259-1.059 3.246-6.603c.209-.425.72-.599 1.142-.39.169.084.305.22.388.39l3.246 6.603 7.259 1.059c.466.068.789.503.721.97-.027.187-.114.36-.249.49l-5.252 5.14 1.24 7.259c.08.466-.232.909-.697.989-.185.031-.375.001-.54-.087L20 27.975z"/>
    </g>
</svg>
