<svg xmlns="http://www.w3.org/2000/svg" width="24" height="25" viewBox="0 0 24 25">
    <path fill="#333" fill-rule="evenodd" d="M12 .5c6.627 0 12 5.373 12 12s-5.373 12-12 12-12-5.373-12-12S5.373.5 12 .5zm0 1c-6.075 0-11 4.925-11 11s4.925 11 11 11 11-4.925 11-11-4.925-11-11-11zm-1.478 6.147l.103.072 5 4c.467.373.498 1.061.093 1.477l-.093.084-5 4c-.432.346-1.06.276-1.406-.155-.318-.398-.283-.965.063-1.321l.093-.085L13.4 12.5 9.375 9.281c-.398-.319-.488-.88-.228-1.303l.072-.103c.319-.398.88-.488 1.303-.228z"/>
</svg>
