<svg xmlns="http://www.w3.org/2000/svg" width="24" height="24" viewBox="0 0 24 24">
  <path fill="currentColor" fill-rule="evenodd" d="M12,0 C18.627417,0 24,5.372583 24,12 C24,18.627417 18.627417,24 12,24 C5.372583,24 0,18.627417 0,12 C0,5.372583 5.372583,0 12,0 Z M18.6994836,7.2853514 C18.3351549,6.92875372 17.7676591,6.90710833 17.3786613,7.21632232 L17.2853514,7.30051635 L10.056,14.686 L6.58402352,12.1882282 L6.47765062,12.1212941 C6.04136384,11.8834151 5.48599922,12.002117 5.18826327,12.4159414 C4.89052731,12.8297659 4.95449376,13.3940604 5.31870432,13.7321184 L5.41597648,13.8117017 L9.58573775,16.8117367 L9.68895976,16.8769036 C10.0385883,17.0689498 10.4705306,17.0338367 10.7844253,16.788883 L10.8844099,16.6994836 L18.7146486,8.69948365 L18.7968222,8.60438967 C19.0976229,8.20885017 19.0638124,7.64194907 18.6994836,7.2853514 Z"/>
</svg>
