<svg xmlns="http://www.w3.org/2000/svg" width="24" height="24" viewBox="0 0 24 24">
  <path fill="currentColor" fill-rule="evenodd" d="M12,0 C18.627417,0 24,5.372583 24,12 C24,18.627417 18.627417,24 12,24 C5.372583,24 0,18.627417 0,12 C0,5.372583 5.372583,0 12,0 Z M12,0.96 C5.90277636,0.96 0.96,5.90277636 0.96,12 C0.96,18.0972236 5.90277636,23.04 12,23.04 C18.0972236,23.04 23.04,18.0972236 23.04,12 C23.04,5.90277636 18.0972236,0.96 12,0.96 Z M18.6994836,7.2853514 C19.0638124,7.64194907 19.0976229,8.20885017 18.7968222,8.60438967 L18.7146486,8.69948365 L10.8844099,16.6994836 C10.5675341,17.0232294 10.0774359,17.0902883 9.68895976,16.8769036 L9.58573775,16.8117367 L5.41597648,13.8117017 C4.96766666,13.4891544 4.86571598,12.8642512 5.18826327,12.4159414 C5.48599922,12.002117 6.04136384,11.8834151 6.47765062,12.1212941 L6.58402352,12.1882282 L10.056,14.686 L17.2853514,7.30051635 C17.6716655,6.90582683 18.3047941,6.89903724 18.6994836,7.2853514 Z"/>
</svg>
