<svg xmlns="http://www.w3.org/2000/svg" width="24" height="24" viewBox="0 0 24 24">
  <path fill="currentColor" fill-rule="evenodd" d="M12,0 C18.627417,0 24,5.372583 24,12 C24,18.627417 18.627417,24 12,24 C5.372583,24 0,18.627417 0,12 C0,5.372583 5.372583,0 12,0 Z M12,1 C5.92486775,1 1,5.92486775 1,12 C1,18.0751322 5.92486775,23 12,23 C18.0751322,23 23,18.0751322 23,12 C23,5.92486775 18.0751322,1 12,1 Z M16.9740546,9.14684859 L17.0871578,9.21912009 C17.5250708,9.5375717 17.6243199,10.098267 17.3385203,10.5218554 L17.2590217,10.6246766 L12.8594494,15.6246767 C12.4484732,16.0917405 11.6917847,16.1229093 11.2346714,15.7181555 L11.1415391,15.6247503 L6.741117,10.6247502 C6.36158439,10.1935045 6.43846525,9.56420881 6.9128352,9.21917894 C7.35071515,8.90068983 7.9742229,8.93574339 8.36606884,9.28220722 L8.45896255,9.3752865 L12.001137,13.3990184 L15.5410467,9.37536007 C15.8913432,8.97725712 16.5081076,8.88703058 16.9740546,9.14684859 Z"/>
</svg>
