<svg xmlns="http://www.w3.org/2000/svg" width="24" height="24" viewBox="0 0 24 24">
  <path fill="currentColor" fill-rule="evenodd" d="M12,0 C18.627417,0 24,5.372583 24,12 C24,18.627417 18.627417,24 12,24 C5.372583,24 0,18.627417 0,12 C0,5.372583 5.372583,0 12,0 Z M12,1 C5.92486775,1 1,5.92486775 1,12 C1,18.0751322 5.92486775,23 12,23 C18.0751322,23 23,18.0751322 23,12 C23,5.92486775 18.0751322,1 12,1 Z M14.7808025,7.37526811 C15.0992916,7.77334105 15.0642381,8.34016664 14.7177743,8.69639044 L14.624695,8.78083932 L10.6009631,12.0009999 L14.6246214,15.2191017 C15.0227244,15.5375533 15.1129509,16.0982486 14.8531329,16.521837 L14.7808614,16.6246582 C14.4624098,17.0227611 13.9017145,17.1129877 13.4781261,16.8531697 L13.3753049,16.7808982 L8.37530488,12.7812844 C7.90824112,12.4076695 7.87707231,11.7197704 8.28182607,11.3042126 L8.37523132,11.2195468 L13.3752313,7.21916056 C13.806477,6.87413069 14.4357727,6.94402243 14.7808025,7.37526811 Z"/>
</svg>
