<svg xmlns="http://www.w3.org/2000/svg" width="24" height="24" viewBox="0 0 24 24">
  <path fill="currentColor" fill-rule="evenodd" d="M12,0 C18.627417,0 24,5.372583 24,12 C24,18.627417 18.627417,24 12,24 C5.372583,24 0,18.627417 0,12 C0,5.372583 5.372583,0 12,0 Z M12,1 C5.92486775,1 1,5.92486775 1,12 C1,18.0751322 5.92486775,23 12,23 C18.0751322,23 23,18.0751322 23,12 C23,5.92486775 18.0751322,1 12,1 Z M12.7654026,8.28184447 L12.8585349,8.37524972 L17.258957,13.3752497 C17.6384896,13.8064954 17.5616088,14.4357911 17.0872388,14.7808209 C16.6493588,15.09931 16.0258511,15.0642565 15.6340052,14.7177927 L15.5411115,14.6247134 L11.998937,10.6009815 L8.45902735,14.6246398 C8.10873081,15.0227427 7.49196642,15.1129693 7.02601942,14.8531513 L6.91291619,14.7808798 C6.47500323,14.4624282 6.3757541,13.9017329 6.66155373,13.4781445 L6.74105233,13.3753233 L11.1406246,8.37532328 C11.5516008,7.90825952 12.3082893,7.8770907 12.7654026,8.28184447 Z"/>
</svg>
