<svg xmlns="http://www.w3.org/2000/svg" width="24" height="24" viewBox="0 0 24 24">
  <path fill="currentColor" fill-rule="evenodd" d="M12,0 C18.627417,0 24,5.372583 24,12 C24,18.627417 18.627417,24 12,24 C5.372583,24 0,18.627417 0,12 C0,5.372583 5.372583,0 12,0 Z M12,1 C5.92486775,1 1,5.92486775 1,12 C1,18.0751322 5.92486775,23 12,23 C18.0751322,23 23,18.0751322 23,12 C23,5.92486775 18.0751322,1 12,1 Z M10.5218371,7.14683027 L10.6246583,7.21910176 L15.6246583,11.2187155 C16.091722,11.5923304 16.1228908,12.2802295 15.7181371,12.6957873 L15.6247318,12.7804531 L10.6247318,16.7808394 C10.1934861,17.1258692 9.56419048,17.0559775 9.21916062,16.6247318 C8.90067151,16.2266589 8.93572507,15.6598333 9.28218889,15.3036095 L9.37526817,15.2191606 L13.399,11.999 L9.37534174,8.78089824 C8.9772388,8.46244664 8.88701226,7.90175138 9.14683027,7.47816293 L9.21910176,7.37534174 C9.53755336,6.9772388 10.0982486,6.88701226 10.5218371,7.14683027 Z"/>
</svg>
