<svg xmlns="http://www.w3.org/2000/svg" width="24" height="24" viewBox="0 0 24 24">
  <path fill="currentColor" fill-rule="evenodd" d="M12,0 C18.627417,0 24,5.372583 24,12 C24,18.627417 18.627417,24 12,24 C5.372583,24 0,18.627417 0,12 C0,5.372583 5.372583,0 12,0 Z M12,0.96 C5.90277636,0.96 0.96,5.90277636 0.96,12 C0.96,18.0972236 5.90277636,23.04 12,23.04 C18.0972236,23.04 23.04,18.0972236 23.04,12 C23.04,5.90277636 18.0972236,0.96 12,0.96 Z M8.53825099,7.19999903 L8.62809821,7.27933749 L12,10.651 L15.3719018,7.27933749 C15.7443518,6.9068875 16.3482125,6.9068875 16.7206625,7.27933749 C17.0644625,7.62313748 17.0909087,8.16411586 16.800001,8.53825099 L16.7206625,8.62809821 L13.349,12 L16.7206625,15.3719018 C17.0931125,15.7443518 17.0931125,16.3482125 16.7206625,16.7206625 C16.3768625,17.0644625 15.8358841,17.0909087 15.461749,16.800001 L15.3719018,16.7206625 L12,13.349 L8.62809821,16.7206625 C8.25564822,17.0931125 7.65178748,17.0931125 7.27933749,16.7206625 C6.9355375,16.3768625 6.90909135,15.8358841 7.19999903,15.461749 L7.27933749,15.3719018 L10.651,12 L7.27933749,8.62809821 C6.9068875,8.25564822 6.9068875,7.65178748 7.27933749,7.27933749 C7.62313748,6.9355375 8.16411586,6.90909135 8.53825099,7.19999903 Z"/>
</svg>
