<svg xmlns="http://www.w3.org/2000/svg" width="24" height="24" viewBox="0 0 24 24">
  <g fill="none" fill-rule="evenodd">
    <path d="M7.01481233,7.20029821 C6.63456898,7.67296403 6.66381847,8.36613258 7.1025608,8.8048749 L10.298,12 L7.10255452,15.1951314 L7.01260322,15.2962715 C6.63209358,15.784849 6.67218946,16.4670679 7.1025608,16.8974392 L7.20029821,16.9851877 C7.67296403,17.365431 8.36613258,17.3361815 8.8048749,16.8974392 L12,13.702 L15.1951314,16.8974455 L15.2962715,16.9873968 C15.784849,17.3679064 16.4670679,17.3278105 16.8974392,16.8974392 L16.9851877,16.7997018 C17.365431,16.327036 17.3361815,15.6338674 16.8974392,15.1951251 L13.702,12 L16.8974455,8.80486863 L16.9873968,8.70372851 C17.3679064,8.21515099 17.3278105,7.53293213 16.8974392,7.1025608 L16.7997018,7.01481233 C16.327036,6.63456898 15.6338674,6.66381847 15.1951251,7.1025608 L12,10.298 L8.80486863,7.10255452 L8.69170777,7.00263892 C8.21515099,6.63209358 7.53293213,6.67218946 7.1025608,7.1025608 L7.01481233,7.20029821 Z"/>
    <path fill="currentColor" d="M12,0 C18.627417,0 24,5.372583 24,12 C24,18.627417 18.627417,24 12,24 C5.372583,24 0,18.627417 0,12 C0,5.372583 5.372583,0 12,0 Z M8.53825099,7.19999903 C8.16411586,6.90909135 7.62313748,6.9355375 7.27933749,7.27933749 C6.9355375,7.62313748 6.90909135,8.16411586 7.19999903,8.53825099 L7.27933749,8.62809821 L10.651,12 L7.27933749,15.3719018 L7.19999903,15.461749 C6.90909135,15.8358841 6.9355375,16.3768625 7.27933749,16.7206625 C7.62313748,17.0644625 8.16411586,17.0909087 8.53825099,16.800001 L8.62809821,16.7206625 L12,13.349 L15.3719018,16.7206625 L15.461749,16.800001 C15.8358841,17.0909087 16.3768625,17.0644625 16.7206625,16.7206625 C17.0644625,16.3768625 17.0909087,15.8358841 16.800001,15.461749 L16.7206625,15.3719018 L13.349,12 L16.7206625,8.62809821 L16.800001,8.53825099 C17.0909087,8.16411586 17.0644625,7.62313748 16.7206625,7.27933749 C16.3768625,6.9355375 15.8358841,6.90909135 15.461749,7.19999903 L15.3719018,7.27933749 L12,10.651 L8.62809821,7.27933749 L8.53825099,7.19999903 Z"/>
  </g>
</svg>
