<svg xmlns="http://www.w3.org/2000/svg" width="24" height="24" viewBox="0 0 24 24">
  <g fill="none" fill-rule="evenodd">
    <circle cx="12" cy="12" r="12" fill="currentColor"/>
    <path fill="#ffffff" d="M5.5,5.50003127 L1.05681053,5.90474015 C0.781806584,5.92978894 0.579177899,6.17302974 0.604226693,6.44803369 C0.614765467,6.56373604 0.665267618,6.67215693 0.7470574,6.75467077 L4.15,10.1877383 L4.15,10.1877383 L3.2208351,14.8841713 C3.16724061,15.1550629 3.3433947,15.4181108 3.61428627,15.4717053 C3.73713745,15.4960108 3.86463677,15.4733301 3.97156925,15.4081487 L7.982,12.9635648 L7.982,12.9635648 L11.9965331,15.4121238 C12.2322848,15.5559143 12.5399647,15.4813651 12.6837552,15.2456133 C12.7484894,15.1394784 12.771363,15.0130342 12.747914,14.8909471 L11.844,10.1847385 L11.844,10.1847385 L15.2508729,6.75594665 C15.445508,6.56005939 15.4444928,6.24347853 15.2486056,6.04884351 C15.1660437,5.96680946 15.0574502,5.91614754 14.9415425,5.90559007 L10.5,5.50103121 L10.5,5.50103121 L8.45515116,1.00182702 C8.34089393,0.750431125 8.0444735,0.639258271 7.79307761,0.7535155 C7.68301806,0.803536601 7.59480889,0.891739723 7.54478026,1.00179585 L5.5,5.50003127 L5.5,5.50003127 Z" transform="translate(4 4)"/>
  </g>
</svg>
