<svg xmlns="http://www.w3.org/2000/svg" width="56" height="56" viewBox="0 0 56 56">
    <g fill="currentColor" fill-rule="evenodd">
        <path d="M27.844 3C36.12 3 43.66 7.794 46.019 14.958c1.227 3.726 1.181 6.944-.018 9.961l-.162.393-.174.387-.179.368-.223.431-.268.495-.032.049c.076.176.196.407.381.732l.234.403 1.31 2.177.297.51c.674 1.182.854 1.697.808 2.208-.076.837-1.026 1.92-2.766 3.173l-.315.223-.231.941-.254.976c-1.359 5.073-2.802 7.977-4.34 8.344-1.824.433-3.82.419-5.901-.037l-.523-.123-.352-.096v2.596c0 1.921-1.373 3.537-3.195 3.869l-.23.035-.226.02-.232.007H17.284c-1.977 0-3.626-1.508-3.856-3.468l-.02-.228-.007-.235.057-10.998c-1.293-1.334-2.5-3.123-3.462-5.23-1.589-3.48-2.252-7.342-1.907-11.524C8.925 11.152 17.49 3 27.844 3zm0 2.196c-9.22 0-16.85 7.258-17.594 16.304-.32 3.879.305 7.433 1.792 10.605.87 1.858 1.945 3.413 3.047 4.513.22.219.371.495.44.802l.03.189.01.181v11.28c0 .833.589 1.54 1.373 1.7l.17.026.172.008h12.144c.825 0 1.524-.596 1.681-1.389l.026-.173.008-.175.043-3.131-.648-.23c-1.733-.641-3.498-1.491-5.265-2.523l-.757-.453-.703-.44c-.925-.592-1.734-1.162-2.34-1.636-.472-.371-.558-1.061-.191-1.54.367-.48 1.046-.567 1.521-.196 1.363 1.072 3.528 2.43 5.728 3.52 4.276 2.114 8.022 2.88 11.024 2.164.6-.272 1.928-3.623 2.938-7.425l.198-.765.19-.788.157-.447.277-.195c1.07-.757 2.247-1.772 2.5-2.025-.06-.17-.203-.456-.43-.862l-.122-.213-.579-.977-.753-1.244c-.995-1.665-1.228-2.217-1.172-2.79.025-.248.087-.435.277-.81l.401-.761c.15-.288.247-.49.36-.741 1.198-2.673 1.293-5.483.165-8.905C41.943 9.52 35.11 5.196 27.844 5.196zm4.997 8.778c3.236 0 5.93 2.791 5.93 6.703 0 2.463-1.748 5.383-5.062 8.676-.924.917-1.94 1.833-3.029 2.732l-.661.538-.62.49-.659.501c-.318.239-.619.457-.892.65-.183.127-.4.196-.62.196-.16 0-.318-.036-.463-.106l-.141-.08-.5-.357c-.396-.288-.816-.605-1.25-.944-1.335-1.043-2.598-2.131-3.74-3.234-3.561-3.438-5.447-6.493-5.447-9.062 0-3.912 2.692-6.703 5.928-6.703 2.442 0 4.312.798 5.488 2.264l.078.101.1-.12c1.134-1.3 2.733-2.063 4.774-2.216l.388-.022.398-.007zm0 2.196c-2.435 0-3.981.964-4.603 2.58-.33.862-1.69.863-2.02 0-.622-1.616-2.168-2.58-4.603-2.58-2.085 0-3.76 1.782-3.76 4.507 0 2.634 3.458 6.835 8.589 10.8l.746.566.339-.25c5.233-3.897 8.882-8.15 9.066-10.902l.007-.214c0-2.725-1.675-4.507-3.76-4.507z"/>
    </g>
</svg>
