<svg xmlns="http://www.w3.org/2000/svg" width="56" height="56" viewBox="0 0 56 56">
    <g fill="currentColor" fill-rule="evenodd">
        <path d="M21.618 37.985l-.033-.033-3.537-3.536-.032-.034-5.38-5.38c-.492-.49-1.288-.49-1.78 0-.24.239-.373.56-.373.895 0 .335.134.656.373.894l3.4 3.4c.047.043.093.086.138.13l7.302 7.303c.03.031.06.063.089.096l3.427 3.426c.492.493 1.29.494 1.784.002.493-.493.493-1.291.002-1.784l-5.38-5.38zm-2.691-6.204l12.855-12.854-4.534-4.534c-.702-.702-1.097-1.654-1.097-2.647 0-.993.394-1.944 1.096-2.646.702-.704 1.656-1.1 2.65-1.1.995 0 1.949.396 2.65 1.1l1.04 1.04c.179-.376.423-.728.734-1.04 1.462-1.46 3.83-1.46 5.292 0l7.289 7.288c1.461 1.462 1.46 3.831-.001 5.292-.312.311-.664.556-1.04.735l1.04 1.04c1.463 1.46 1.466 3.832.005 5.295-1.461 1.464-3.832 1.466-5.296.004l-4.536-4.535L24.22 37.074l4.535 4.535c1.462 1.463 1.46 3.835-.003 5.296-1.464 1.461-3.835 1.46-5.296-.003l-1.07-1.071c-.18.376-.424.728-.735 1.039-1.444 1.443-3.778 1.464-5.261.03l-7.29-7.287c-1.46-1.461-1.46-3.83 0-5.291.306-.306.659-.553 1.041-.735L9.102 32.55C8.397 31.846 8 30.892 8 29.897c0-.995.396-1.95 1.101-2.651 1.461-1.46 3.83-1.46 5.29 0l4.536 4.535zm1.756 1.756l1.78 1.78 12.855-12.854-1.78-1.78-12.855 12.854zm-8.126 2.466c-.226-.19-.513-.295-.81-.295-.334 0-.655.133-.89.37-.492.491-.492 1.288-.001 1.78l7.273 7.271c.494.477 1.28.47 1.765-.015.464-.464.49-1.202.089-1.685l-7.426-7.426zm29.175-14.205c-.042-.039-.083-.078-.124-.119l-7.287-7.287c-.043-.043-.085-.087-.126-.132l-3.406-3.406c-.236-.237-.557-.37-.892-.37-.335 0-.655.133-.893.371-.237.237-.37.557-.37.89 0 .335.133.655.37.892l14.36 14.36c.494.492 1.292.492 1.784-.001s.491-1.291-.002-1.784l-3.414-3.414zm1.705-1.807c.495.423 1.24.401 1.708-.067.492-.492.492-1.289 0-1.78l-7.288-7.287c-.491-.491-1.288-.492-1.78 0-.466.466-.49 1.207-.072 1.701l7.432 7.433z"/>
    </g>
</svg>
