<svg xmlns="http://www.w3.org/2000/svg" width="56" height="56" viewBox="0 0 56 56">
    <g fill="currentColor" fill-rule="evenodd">
        <path d="M19.226 23.643c1.62-.565 2.778-2.097 2.784-3.893V7.375c0-.76.609-1.375 1.36-1.375.752 0 1.361.616 1.361 1.375v12.38c-.01 3.325-2.37 6.091-5.505 6.73v22.14c0 .76-.61 1.375-1.36 1.375-.752 0-1.361-.616-1.361-1.375V26.487C13.372 25.85 11.01 23.08 11 19.75V7.375C11 6.615 11.61 6 12.36 6c.752 0 1.361.616 1.361 1.375v12.37c.006 1.802 1.167 3.336 2.784 3.9V7.374c0-.76.609-1.375 1.36-1.375.752 0 1.361.616 1.361 1.375v16.268zM39.885 36.25h-4.146v12.375c0 .76-.61 1.375-1.36 1.375-.752 0-1.361-.616-1.361-1.375V8.747c.008-1.221.812-2.289 1.973-2.632 1.157-.341 2.402.115 3.076 1.141 4.41 6.88 5.472 12.581 5.93 24.816.043 1.124-.385 2.214-1.178 3.006-.79.79-1.872 1.213-2.934 1.172zM35.739 8.755V33.5l4.197.001c.363.014.715-.124.97-.378.251-.251.385-.594.372-.946-.44-11.766-1.431-17.087-5.486-23.413-.006-.008-.022-.014-.038-.009-.011.003-.015.008-.015 0z"/>
    </g>
</svg>
