<svg xmlns="http://www.w3.org/2000/svg" width="56" height="56" viewBox="0 0 56 56">
  <path fill="currentColor" fill-rule="evenodd" d="M48,2.5 C49.6568542,2.5 51,3.84314575 51,5.5 L51,5.5 L51,51.5 C51,53.6725679 48.762444,55.1247387 46.7782132,54.2399338 L46.7782132,54.2399338 L28,45.866 L9.22178679,54.2399338 C7.2911839,55.1008251 5.12076393,53.7493566 5.00485416,51.6745436 L5.00485416,51.6745436 L5,51.5 L5,5.5 C5,3.84314575 6.34314575,2.5 8,2.5 L8,2.5 Z M48,5.5 L8,5.5 L8,51.5 L28,42.5816327 L48,51.5 L48,5.5 Z M26.6548959,11.3361514 C27.2051164,10.2212829 28.7948836,10.2212829 29.3451041,11.3361514 L29.3451041,11.3361514 L33.11,18.965 L41.5304887,20.1893516 C42.7168788,20.3617441 43.2160512,21.7737909 42.4519382,22.6525378 L42.4519382,22.6525378 L42.3618088,22.7478916 L36.268,28.687 L37.707406,37.0726703 C37.9100656,38.2542666 36.7213821,39.1653543 35.6495202,38.7101873 L35.6495202,38.7101873 L35.5309818,38.6539351 L28,34.694 L20.4690182,38.6539351 C19.4078786,39.2118092 18.1740593,38.3628455 18.2757253,37.2027899 L18.2757253,37.2027899 L18.292594,37.0726703 L19.731,28.687 L13.6381912,22.7478916 C12.7797113,21.9110805 13.2058526,20.4753045 14.3405475,20.2135177 L14.3405475,20.2135177 L14.4695113,20.1893516 L22.889,18.965 Z M28,15.389 L25.2306073,21.0007296 C25.0121143,21.4434448 24.5897659,21.7502989 24.1012007,21.8212916 L24.1012007,21.8212916 L17.909,22.721 L22.3896219,27.0889894 C22.70387,27.3953056 22.8662514,27.8216373 22.839842,28.2543445 L22.839842,28.2543445 L22.8210169,28.4166865 L21.763,34.583 L27.3019883,31.6723029 C27.6904203,31.4680921 28.1460644,31.445402 28.5494325,31.6042326 L28.5494325,31.6042326 L28.6980117,31.6723029 L34.236,34.583 L33.1789831,28.4166865 C33.1047992,27.9841611 33.2240214,27.5438062 33.4997259,27.2092618 L33.4997259,27.2092618 L33.6103781,27.0889894 L38.09,22.721 L31.8987993,21.8212916 C31.4590906,21.7573981 31.0730175,21.502457 30.8409186,21.1293683 L30.8409186,21.1293683 L30.7693927,21.0007296 L28,15.389 Z"/>
</svg>
