<svg xmlns="http://www.w3.org/2000/svg" width="56" height="56" viewBox="0 0 56 56">
  <path fill="currentColor" fill-rule="evenodd" d="M19.362,18.112 L3.0568331,20.4811476 L2.9278693,20.5053137 C1.79317439,20.7671005 1.36703307,22.2028765 2.22551304,23.0396877 L14.024,34.54 L11.239171,50.7808743 L11.2223023,50.9109939 C11.1206363,52.0710494 12.3544555,52.9200131 13.4155951,52.362139 L28,44.694 L42.5844049,52.362139 L42.7029433,52.4183912 C43.7748051,52.8735582 44.9634887,51.9624706 44.760829,50.7808743 L41.975,34.54 L53.774487,23.0396877 L53.8646164,22.9443339 C54.6287294,22.065587 54.129557,20.6535402 52.9431669,20.4811476 L36.637,18.112 L29.3451041,3.33615143 C28.7948836,2.22128286 27.2051164,2.22128286 26.6548959,3.33615143 L19.362,18.112 Z M28,7.389 L34.2961042,20.1466276 L34.3676301,20.2752664 C34.599729,20.648355 34.9858021,20.9032962 35.4255108,20.9671896 L49.504,23.012 L39.3167172,32.9430914 L39.206065,33.0633637 C38.9303605,33.3979082 38.8111383,33.8382631 38.8853222,34.2707885 L41.29,48.292 L28.6980117,41.6723029 L28.5494325,41.6042326 C28.1460644,41.445402 27.6904203,41.4680921 27.3019883,41.6723029 L14.709,48.292 L17.1146778,34.2707885 L17.1335029,34.1084464 C17.1599123,33.6757393 16.9975309,33.2494076 16.6832828,32.9430914 L6.495,23.012 L20.5744892,20.9671896 C21.0630544,20.8961969 21.4854028,20.5893428 21.7038958,20.1466276 L28,7.389 Z"/>
</svg>
