<svg xmlns="http://www.w3.org/2000/svg" width="56" height="56" viewBox="0 0 56 56">
    <g fill="currentColor" fill-rule="evenodd">
        <path d="M31.117 8.385c3.739 2.968 3.737 8.953 1.558 11.593l-.628.716-1.647 1.801c-.971 1.053-2.24 2.418-3.81 4.098l28.225.002c.922 0 1.468.997 1.033 1.766l-.093.14-12.973 17.033c-.186.245-.459.405-.758.452l-.182.014h-3.434c-.654 0-1.184-.531-1.184-1.186 0-.601.445-1.097 1.023-1.176l.16-.01 2.85-.002L52.42 28.968H24.393l-.022-.002-5.359 5.71c-1.43 1.668-3.494 2.78-5.646 2.78-3.793 0-6.843-2.694-6.843-6.004 0-1.758.76-3.438 1.92-4.574l.262-.24 3.859-3.906c-.456-.06-.938-.092-1.445-.092-5.302 0-8.752 4.636-8.752 10.437 0 5.511 4.865 10.26 12.174 10.448l.45.006h19.167c.654 0 1.184.531 1.184 1.187 0 .6-.445 1.097-1.023 1.175l-.16.011H14.99C6.151 45.904 0 40.039 0 33.077c0-3.8 1.282-7.256 3.544-9.618l.043-.055 5.36-5.608 2.15-2.229c5.143-5.31 7.987-8.084 8.769-8.543 2.694-1.582 7.675-1.48 11.251 1.36zM14.73 29.435l-.071-.019c-.143-.042-.28-.11-.4-.206l-.122-.111-.1-.12c-.582-.796-1.32-1.168-2.322-1.168-1.374 0-2.826 1.739-2.826 3.64 0 1.928 1.929 3.631 4.477 3.631 2.628 0 5.226-2.661 5.226-5.41 0-.995-.153-1.93-.46-2.772l-2.322 2.233-.12.101-.076.052-.128.07-.133.051-.18.043c-.148.023-.298.017-.443-.015zM21.062 9.07l-.103.07-.147.115c-1.117.912-4.888 4.697-11.025 11.088.43-.05.876-.076 1.332-.076 6.204 0 9.604 3.907 9.828 8.875l6.375-6.81c2.024-2.18 3.205-3.474 3.53-3.868 1.396-1.691 1.397-6.155-1.204-8.22-2.772-2.202-6.697-2.283-8.586-1.174zm-5.93 14.427l-.044.052-2.023 2.047c.731.18 1.39.514 1.967.996l1.85-1.777c-.385-.42-.835-.789-1.35-1.097l-.4-.22z"/>
    </g>
</svg>
