<svg xmlns="http://www.w3.org/2000/svg" width="16" height="16" viewBox="0 0 16 16">
  <path fill="currentColor" fill-rule="evenodd" d="M5.27346181,8.22561771 L8.72561771,4.77346181 L8.49110562,4.53894972 C7.94713233,3.99497643 7.82157992,3.23857388 8.21067646,2.84947734 L9.26745888,1.79269492 C9.65655542,1.40359838 10.412958,1.52915079 10.9569313,2.07312408 L13.5600154,4.67620827 C14.1039887,5.22018156 14.2295412,5.97658411 13.8404446,6.36568065 L12.7836622,7.42246307 C12.3945657,7.81155961 11.6381631,7.6860072 11.0941898,7.14203391 L10.8596777,6.90752182 L7.40752182,10.3596777 L7.64203391,10.5941898 C8.1860072,11.1381631 8.31155961,11.8945657 7.92246307,12.2836622 L6.86568065,13.3404446 C6.47658411,13.7295412 5.72018156,13.6039887 5.17620827,13.0600154 L2.57312408,10.4569313 C2.02915079,9.91295797 1.90359838,9.15655542 2.29269492,8.76745888 L3.34947734,7.71067646 C3.73857388,7.32157992 4.49497643,7.44713233 5.03894972,7.99110562 L5.27346181,8.22561771 Z"/>
</svg>
