<svg xmlns="http://www.w3.org/2000/svg" width="16" height="16" viewBox="0 0 16 16">
  <path fill="currentColor" fill-rule="evenodd" d="M4.54488216,8.81525252 L8.81525252,4.54488216 L8.52515743,4.25478707 C7.85225404,3.58188367 7.69694376,2.64620199 8.17826221,2.16488354 L9.48551845,0.857627303 C9.9668369,0.376308848 10.9025186,0.531619128 11.575422,1.20452252 L14.7954775,4.42457802 C15.4683809,5.09748141 15.6236912,6.0331631 15.1423727,6.51448155 L13.8351165,7.82173779 C13.353798,8.30305624 12.4181163,8.14774596 11.7452129,7.47484257 L11.4551178,7.18474748 L7.18474748,11.4551178 L7.47484257,11.7452129 C8.14774596,12.4181163 8.30305624,13.353798 7.82173779,13.8351165 L6.51448155,15.1423727 C6.0331631,15.6236912 5.09748141,15.4683809 4.42457802,14.7954775 L1.20452252,11.575422 C0.531619128,10.9025186 0.376308848,9.9668369 0.857627303,9.48551845 L2.16488354,8.17826221 C2.64620199,7.69694376 3.58188367,7.85225404 4.25478707,8.52515743 L4.54488216,8.81525252 Z"/>
</svg>
