<svg xmlns="http://www.w3.org/2000/svg" width="16" height="16" viewBox="0 0 16 16">
  <path fill="currentColor" fill-rule="evenodd" d="M11.9535806,9.84615385 C11.9535806,9.84615385 12.104236,10.1735488 12.0289082,10.3372494 C12.0289082,10.3372494 10.5976796,10.910192 9.69374606,11.8923831 C8.78981218,12.8745741 8.33784538,13.8567651 8.26251753,13.9386123 C8.18718969,14.0204626 7.8858783,14.0204626 7.81055045,13.9386123 C7.7352226,13.8567651 7.28325581,12.547176 6.00268298,11.5649881 C4.72211015,10.5827971 3.96883196,10.3372494 3.96883196,10.3372494 C3.96883196,10.3372494 3.89350411,9.92800414 4.04415981,9.84615385 C4.04415981,9.84615385 7.7352226,10.910192 11.9535806,9.84615385 Z M5.34449767,2 C5.08248127,2.58530578 4.82320947,3.16436847 4.5699571,3.73009365 C5.00588178,3.95125051 5.43719053,4.13542177 5.8330689,4.37855557 C6.53952451,4.81235598 7.10104615,5.40986418 7.56653773,6.09726661 C7.64057974,6.20658381 7.71842678,6.23641192 7.83688152,6.21938531 C7.91800337,6.20768739 8.00467681,6.19258415 8.08249266,6.20935852 C8.25443605,6.24637565 8.36038412,6.20068756 8.46726785,6.04634441 C9.08611435,5.15269917 9.86315002,4.44051355 10.8592552,3.99444767 C11.046138,3.91076499 11.2410363,3.84537016 11.4435446,3.76714231 C11.1786277,3.17584568 10.9148959,2.58722916 10.6517879,2 L10.6517879,2 L10.9895929,2 C11.363608,2.74254976 11.7368745,3.48550942 12.1009404,4.23304105 C12.6604971,5.38208556 12.6256593,6.53267509 12.0338223,7.66333717 C11.9970196,7.73358773 11.9179874,7.79737449 11.8439454,7.82896833 C11.2010836,8.1030023 10.5551029,8.01730165 9.92917653,7.78596035 C9.52727874,7.6374504 9.15207848,7.4159467 8.76162695,7.23436097 C8.66690682,7.19028094 8.56052211,7.15685832 8.45738103,7.14948012 C8.26613182,7.13585882 8.07263703,7.15502954 7.88120069,7.14251182 C7.56872094,7.12207988 7.29319983,7.18038028 7.01421676,7.35238066 C6.47970455,7.68194032 5.89650675,7.9053674 5.26599567,7.97583868 C4.86107257,8.02111687 4.4668472,7.98246014 4.09436037,7.80554096 C4.04339801,7.78135686 3.99552333,7.72892118 3.96870103,7.67758908 C3.35765171,6.507482 3.3408098,5.33261378 3.93735637,4.14901153 C4.29792912,3.43370436 4.65560131,2.7169783 5.01286805,2 L5.01286805,2 Z"/>
</svg>
