<svg xmlns="http://www.w3.org/2000/svg" width="16" height="16" viewBox="0 0 16 16">
  <path fill="currentColor" fill-rule="evenodd" d="M7.09957651,1.4761059 C7.69671908,1.51118332 7.64403003,2.28288658 7.64403003,2.28288658 L7.64403003,2.28288658 L7.63524852,12.1308724 C7.47718137,12.8324209 6.96785388,13.2708886 6.6692826,13.305966 C6.37071132,13.3410435 6.30924076,13.577816 6.30924076,13.577816 C6.32680377,13.9285903 6.27411472,14.0513612 6.23898869,14.2267483 C6.20825341,14.380212 5.49173722,15.3930726 5.3130884,15.6438898 L5.27302277,15.7 L0.25,15.7 L0.25,12.8587289 C0.25,12.8587289 3.06886418,11.2714756 3.20936831,11.2188595 C3.34987245,11.1662434 3.66600675,11.2363982 3.66600675,11.2363982 C4.31583836,10.5173111 4.54415758,10.0437659 4.82516585,9.42991105 C5.10617411,8.81605619 5.01835903,8.65820779 5.12373713,8.07943035 C5.22911523,7.50065291 5.42230842,6.16771092 5.6155016,6.00986253 C5.80869478,5.85201414 5.87894685,5.71170445 5.94919892,5.4486238 C6.01945098,5.18554314 6.34178503,3.1214474 6.44974489,2.52842852 C6.55512299,1.94965108 6.57359929,1.44520269 7.09957651,1.4761059 Z M9.54547064,2.52842852 C9.6534305,3.1214474 9.97576455,5.18554314 10.0460166,5.4486238 C10.1162687,5.71170445 10.1865207,5.85201414 10.3797139,6.00986253 C10.5729071,6.16771092 10.7661003,7.50065291 10.8714784,8.07943035 C10.9768565,8.65820779 10.8890414,8.81605619 11.1700497,9.42991105 C11.4510579,10.0437659 11.6793772,10.5173111 12.3292088,11.2363982 C12.3292088,11.2363982 12.6453431,11.1662434 12.7858472,11.2188595 C12.9263514,11.2714756 15.7452155,12.8587289 15.7452155,12.8587289 L15.7452155,15.7 L10.7221928,15.7 C10.7221928,15.7 9.79135287,14.4021354 9.75622684,14.2267483 C9.72110081,14.0513612 9.66841176,13.9285903 9.68597477,13.577816 C9.68597477,13.577816 9.62450421,13.3410435 9.32593293,13.305966 C9.02736165,13.2708886 8.51803416,12.8324209 8.35996701,12.1308724 L8.3511855,2.28288658 C8.3511855,2.28288658 8.29849645,1.51118332 8.89563902,1.4761059 C9.42161624,1.44520269 9.44009254,1.94965108 9.54547064,2.52842852 Z M6.30924603,0.848099159 C6.44290058,0.218880386 7.17915981,0.156758274 7.45084211,0.532402373 C7.54861543,0.667608291 7.5950696,0.90262701 7.61623304,1.12717512 C7.61330002,1.12373753 7.6105075,1.12021225 7.60750422,1.11680974 C7.48331613,0.975973896 7.31160252,0.895295829 7.11092749,0.883509815 C6.82075132,0.866374495 6.60734311,0.979621948 6.47690258,1.21988474 C6.37607331,1.40558461 6.34437206,1.67241855 6.29184108,1.90752496 C6.23931009,2.14263137 6.16874189,2.46166051 6.16874189,2.46166051 C6.16874189,2.46166051 6.18630491,1.4268766 6.30924603,0.848099159 Z M9.65698701,0.848099159 C9.77992813,1.4268766 9.79749115,2.46166051 9.79749115,2.46166051 C9.79749115,2.46166051 9.72690538,2.14263137 9.67439196,1.90752496 C9.62186098,1.67241855 9.59014217,1.40558461 9.48933046,1.21988474 C9.35887237,0.979621948 9.14548171,0.866374495 8.85530555,0.883509815 C8.65463052,0.895295829 8.48289935,0.975973896 8.35872882,1.11680974 C8.35570798,1.12021225 8.35293302,1.12373753 8.35,1.12717512 C8.37116344,0.90262701 8.41760005,0.667608291 8.51539093,0.532402373 C8.78707323,0.156758274 9.52331489,0.218880386 9.65698701,0.848099159 Z"/>
</svg>
