<svg xmlns="http://www.w3.org/2000/svg" width="40" height="40" viewBox="0 0 40 40">
  <path fill="currentColor" fill-rule="evenodd" d="M31.0921186,9.10000003 C30.3115636,9.10000003 29.5630756,9.40357072 29.0114095,9.94370011 C28.5100623,10.4345629 28.2086311,11.0842304 28.1581564,11.7716886 L28.1505937,11.9789388 L28.1505937,17.082042 L28.0500351,17.1826006 L12.1499649,17.1826006 L12.0494063,17.082042 L12.0494063,11.9776994 C12.0491614,10.3893023 10.7335864,9.10078655 9.10913344,9.10000003 C8.3266281,9.09858416 7.57587464,9.40224938 7.02286385,9.94369536 C6.52028065,10.4357683 6.21864676,11.0873796 6.1692545,11.7767391 L6.16205536,11.9845576 L6.16205518,13.1535113 L6.02842083,13.2484746 C5.71217178,13.1383253 5.37841605,13.0817151 5.0410607,13.0818117 C3.47431955,13.0820855 2.19441433,14.2804117 2.10499092,15.7903152 L2.1,15.9593194 L2.10094257,24.1606563 C2.12891247,25.7444228 3.43449372,27.0057012 5.04223932,27.0057012 C5.31434356,27.0057012 5.58139252,26.9695363 5.83801068,26.8991346 L6.02843452,26.839944 L6.16205308,26.9349129 L6.16205287,28.1404351 C6.16090587,29.7299453 7.47753771,31.0206595 9.10364823,31.0217942 C10.6717895,31.022869 11.9536955,29.8243351 12.0442887,28.3130391 L12.0494061,28.1438753 L12.0494062,23.0390978 L12.1499648,22.9385392 L28.050035,22.9385392 L28.1505937,23.0390978 L28.1505936,28.1440187 C28.1521237,29.7346583 29.4704678,31.0232839 31.0965654,31.0217942 C32.6644489,31.0203382 33.9441229,29.8199362 34.0321566,28.3085877 L34.0369884,28.1394256 L34.0370579,26.9687857 L34.1707154,26.8738363 C34.4846473,26.9832646 34.817065,27.0399091 35.157546,27.0399876 C36.7246644,27.0403492 38.0051592,25.8420087 38.0949672,24.3316233 L38.1,24.1625636 L38.0990418,15.9593829 C38.0987968,14.370714 36.782621,13.0820519 35.157928,13.0818117 C34.8856599,13.0818519 34.6185502,13.1180528 34.3619256,13.1884827 L34.1715064,13.2476929 L34.0378776,13.1527216 L34.0379473,11.9813157 C34.0393018,11.2181992 33.7294826,10.4844946 33.1771343,9.94369722 C32.6747066,9.45177659 32.0090436,9.15611579 31.3046201,9.10722026 L31.0921186,9.10000003 Z M9.1081886,10.8754277 C9.68675184,10.8754277 10.1640153,11.3049607 10.2251545,11.8576307 L10.2317719,11.9778331 L10.2317719,28.1432498 C10.2313315,28.7532028 9.72623965,29.2467966 9.10493564,29.2463675 C8.5249374,29.2459658 8.04700257,28.8152495 7.98621176,28.2614938 L7.97968234,28.1410606 L7.98336796,24.1794913 L7.98355305,15.9629814 L7.97968234,15.8099707 L7.97968234,11.9826 C7.97902387,11.6870249 8.09761325,11.4051993 8.30963607,11.1976104 C8.52122808,10.9904433 8.80790809,10.874786 9.1081886,10.8754277 Z M31.0925096,10.8754264 C31.3924379,10.8749253 31.6789008,10.9905731 31.8903621,11.1976122 C32.0717886,11.3752447 32.1849941,11.6074503 32.2133104,11.8549088 L32.2203173,11.9797271 L32.219964,15.818426 L32.2164796,15.9593312 L32.2164536,24.1590944 L32.2195826,24.2978294 L32.2193544,28.1402085 C32.2199418,28.7513041 31.7161838,29.2457939 31.0948494,29.246369 C30.5151001,29.2469018 30.0366484,28.8171431 29.9749539,28.2635868 L29.9682275,28.1431844 L29.9682275,11.9786548 C29.9681323,11.6853964 30.0868743,11.4045035 30.2981817,11.1976151 C30.5089879,10.9912174 30.7946829,10.8754264 31.0925096,10.8754264 Z M35.1577315,14.8572291 C35.7365221,14.8573972 36.213668,15.2868596 36.2747917,15.8394359 L36.2814073,15.9596179 L36.2823656,24.1624562 C36.2822189,24.7716657 35.7782825,25.2647134 35.1579754,25.2645704 C34.6125084,25.2644444 34.1530666,24.8816539 34.0536471,24.3625879 L34.0372197,24.2404964 L34.0380815,15.8664243 C34.0867083,15.2975332 34.5729736,14.857399 35.1577315,14.8572291 Z M5.04160451,14.857229 C5.33943355,14.857229 5.62512778,14.9730155 5.83593237,15.1794116 C5.99223656,15.3324471 6.09832165,15.5264396 6.1428299,15.7416295 L6.16205477,15.8731291 L6.16162683,24.2410335 C6.11027039,24.7959278 5.62220179,25.2302838 5.04223932,25.2302838 C4.47042838,25.2302838 3.99636431,24.8108112 3.92699823,24.264139 L3.91844028,24.1451546 L3.91763445,15.9593518 C3.91772843,15.3502373 4.42138712,14.857229 5.04160451,14.857229 Z M28.0495024,18.958018 L28.1500611,19.0585767 L28.1500611,21.0625631 L28.0495024,21.1631218 L12.1499648,21.1631218 L12.0494062,21.0625631 L12.0494062,19.0585767 L12.1499648,18.958018 L28.0495024,18.958018 Z" transform="rotate(-45 20.1 20.06)"/>
</svg>
