<svg xmlns="http://www.w3.org/2000/svg" width="40" height="40" viewBox="0 0 40 40">
  <path fill="currentColor" fill-rule="evenodd" d="M21.4558101,2.61878379 L21.8093731,2.68559967 L35.764402,5.61570426 C37.0324906,5.90526866 37.9518231,6.63282974 37.9981647,7.58522309 L37.998503,7.72974169 L37.9977643,17.3850147 C37.956185,18.3138156 37.1308518,19.0162505 35.9565412,19.3375278 L35.757666,19.3875182 L32.837,20 L35.764402,20.6157043 C37.0324906,20.9052687 37.9518231,21.6328297 37.9981647,22.5852231 L37.9977643,32.3850147 C37.956185,33.3138156 37.1308518,34.0162505 35.9565412,34.3375278 L35.757666,34.3875182 L21.8143334,37.3158707 C20.7771748,37.5340896 19.6435204,37.5583362 18.5851079,37.3886502 L18.1920656,37.3159274 L4.23559804,34.3846987 C2.96750937,34.0951343 2.04817686,33.3675732 2.0018353,32.4151799 L2.00000219,22.7490975 L2.00223572,22.6153882 C2.04381506,21.6865873 2.86914996,20.9841521 4.04349441,20.6628677 L4.24237551,20.612876 L7.163,19.999 L4.23559804,19.3846987 C2.96750937,19.0951343 2.04817686,18.3675732 2.0018353,17.4151799 L2.0018688,7.80218404 C1.99930378,7.7670133 1.9993551,7.73136569 2.00217211,7.69545888 L2.00223572,7.61538821 C2.04381506,6.68658729 2.86914996,5.98415205 4.04349441,5.66286766 L4.24237551,5.61287598 L18.1844978,2.68559967 C19.2347752,2.46288007 20.3854526,2.4406081 21.4558101,2.61878379 Z M36.478,23.663 L20.75,26.824 L20.7507804,35.9249321 C20.9216345,35.9080572 21.0908601,35.8853457 21.2573281,35.8567973 L21.5048205,35.8095971 L35.4344783,32.8842548 C36.0750442,32.7369919 36.42297,32.4790397 36.4716003,32.3133957 L36.4774376,32.2706613 L36.478,23.663 Z M3.522,23.663 L3.52173332,32.3038432 C3.51688915,32.4200402 3.81305073,32.6761687 4.39262636,32.8392062 L4.55770598,32.8811879 L18.5015786,35.8096538 C18.7449724,35.8608641 18.9957568,35.899124 19.2501981,35.9244327 L19.25,26.824 L3.522,23.663 Z M10.905,20.785 L4.5655217,22.1161481 C4.39794395,22.1546734 4.25039427,22.2007742 4.1229918,22.2508159 L19.999,25.441 L35.8781342,22.2512048 C35.7942047,22.2185311 35.701619,22.1874749 35.6004699,22.1592606 L35.4423356,22.1192238 L29.095,20.786 L21.8143334,22.3158707 C20.7771748,22.5340896 19.6435204,22.5583362 18.5851079,22.3886502 L18.1920656,22.3159274 L10.905,20.785 Z M36.478,8.663 L20.75,11.824 L20.7507804,20.9249321 C20.9216345,20.9080572 21.0908601,20.8853457 21.2573281,20.8567973 L21.5048205,20.8095971 L35.4344783,17.8842548 C36.0750442,17.7369919 36.42297,17.4790397 36.4716003,17.3133957 L36.4774376,17.2706613 L36.478,8.663 Z M3.522,8.663 L3.52179324,17.3038432 C3.51688915,17.4200402 3.81305073,17.6761687 4.39262636,17.8392062 L4.55770598,17.8811879 L18.5015786,20.8096538 C18.7449724,20.8608641 18.9957568,20.899124 19.2501981,20.9244327 L19.25,11.824 L3.522,8.663 Z M18.8199766,4.1311523 L18.495138,4.19163511 L4.5655217,7.1161481 C4.39794395,7.1546734 4.25039427,7.20077418 4.1229918,7.25081592 L19.999,10.441 L35.8781342,7.25120476 C35.7942047,7.21853109 35.701619,7.18747485 35.6004699,7.1592606 L35.4423356,7.11922378 L21.4972526,4.19132275 C20.6429128,4.01015326 19.695941,3.99002332 18.8199766,4.1311523 Z"/>
</svg>
