<svg xmlns="http://www.w3.org/2000/svg" width="40" height="40" viewBox="0 0 40 40">
  <path fill="currentColor" fill-rule="evenodd" d="M18.1844978,2.68559967 C19.2347752,2.46288007 20.3854526,2.4406081 21.4558101,2.61878379 L21.8093731,2.68559967 L35.764402,5.61570426 C37.0324906,5.90526866 37.9518231,6.63282974 37.9981647,7.58522309 L37.9977643,32.3693812 C37.956185,33.2981821 37.1308518,34.000617 35.9565412,34.3218943 L35.757666,34.3718847 L21.8143334,37.3002372 C20.7771748,37.5184561 19.6435204,37.5427027 18.5851079,37.3730167 L18.1920656,37.3002939 L4.23559804,34.3690652 C2.96750937,34.0795008 2.04817686,33.3519397 2.0018353,32.3995464 L2.00000219,7.74909749 L2.00000219,7.74909749 L2.00223572,7.61538821 C2.04381506,6.68658729 2.86914996,5.98415205 4.04349441,5.66286766 L4.24237551,5.61287598 L18.1844978,2.68559967 Z M3.522,8.663 L3.52173332,32.2882097 C3.51688915,32.4044067 3.81305073,32.6605352 4.39262636,32.8235727 L4.55770598,32.8655544 L18.5015786,35.7940203 C18.7449724,35.8452306 18.9957568,35.8834905 19.2501981,35.9087992 L19.25,11.824 L3.522,8.663 Z M36.478,8.663 L20.75,11.824 L20.7507804,35.9092987 C20.9216345,35.8924237 21.0908601,35.8697122 21.2573281,35.8411638 L21.5048205,35.7939636 L35.4344783,32.8686214 C36.0750442,32.7213584 36.42297,32.4634062 36.4716003,32.2977622 L36.4774376,32.2550278 L36.478,8.663 Z M21.4972526,4.19132275 C20.6429128,4.01015326 19.695941,3.99002332 18.8199766,4.1311523 L18.495138,4.19163511 L4.5655217,7.1161481 C4.39794395,7.1546734 4.25039427,7.20077418 4.1229918,7.25081592 L19.999,10.441 L35.8781342,7.25120476 C35.7942047,7.21853109 35.701619,7.18747485 35.6004699,7.1592606 L35.4423356,7.11922378 L21.4972526,4.19132275 Z"/>
</svg>
