<svg xmlns="http://www.w3.org/2000/svg" width="40" height="40" viewBox="0 0 40 40">
  <path fill="currentColor" fill-rule="evenodd" d="M5.77297077,11.9445436 C6.65165043,11.065864 8.07627163,11.065864 8.95495129,11.9445436 C9.14241396,12.1320063 9.28988224,12.3443183 9.39735614,12.5708766 C10.2784608,11.7738838 11.6401293,11.8012945 12.4904852,12.6516504 C13.327323,13.4884882 13.3671724,14.820511 12.6100334,15.7045093 L12.4904852,15.8336309 L10.1915339,18.1315339 L17.6165339,25.5555339 L19.9151064,23.2582521 C20.7519442,22.4214144 22.083967,22.381565 22.9679653,23.1387039 L23.0970869,23.2582521 C23.9339247,24.0950899 23.9737741,25.4271128 23.2166352,26.311111 L23.1788587,26.3518549 C23.4050425,26.4592883 23.6170063,26.6065987 23.8041937,26.7937861 C24.6410315,27.6306238 24.6808809,28.9626467 23.9237419,29.8466449 L23.8041937,29.9757666 L20.9757666,32.8041937 C20.0970869,33.6828733 18.6724657,33.6828733 17.7937861,32.8041937 C17.6065987,32.6170063 17.4592883,32.4050425 17.3518549,32.1788587 C16.4706122,32.9748603 15.1087129,32.9475476 14.2582521,32.0970869 C13.4214144,31.2602491 13.381565,29.9282263 14.1387039,29.044228 L14.2582521,28.9151064 L16.5555339,26.6165339 L9.13153391,19.1915339 L6.83363094,21.4904852 C5.99679318,22.327323 4.66477033,22.3671724 3.78077208,21.6100334 L3.65165043,21.4904852 C2.81481266,20.6536474 2.77496324,19.3216246 3.53210218,18.4376263 L3.57087664,18.3973561 C3.34431832,18.2898822 3.13200632,18.142414 2.94454365,17.9549513 C2.10770588,17.1181135 2.06785646,15.7860907 2.8249954,14.9020924 L2.94454365,14.7729708 L5.77297077,11.9445436 Z M22.7435335,27.8544462 C22.477267,27.5881797 22.0606033,27.5639736 21.7669918,27.7818281 L21.6828733,27.8544462 L18.8544462,30.6828733 C18.561553,30.9757666 18.561553,31.4506403 18.8544462,31.7435335 C19.1207128,32.0098001 19.5373765,32.0340061 19.830988,31.8161517 L19.9151064,31.7435335 L22.7435335,28.9151064 C23.0364267,28.6222132 23.0364267,28.1473394 22.7435335,27.8544462 Z M22.0364267,24.3189123 C21.7701602,24.0526458 21.3534965,24.0284397 21.059885,24.2462942 L20.9757666,24.3189123 L15.3189123,29.9757666 C15.0260191,30.2686598 15.0260191,30.7435335 15.3189123,31.0364267 C15.5851789,31.3026933 16.0018426,31.3268994 16.2954541,31.1090449 L16.3795725,31.0364267 L22.0364267,25.3795725 C22.32932,25.0866793 22.32932,24.6118055 22.0364267,24.3189123 Z M18.7729708,6.94454365 C19.6516504,6.06586399 21.0762716,6.06586399 21.9549513,6.94454365 C22.142414,7.13200632 22.2898822,7.34431832 22.3973561,7.57087664 C23.2784608,6.77388377 24.6401293,6.80129451 25.4904852,7.65165043 C26.327323,8.4884882 26.3671724,9.82051104 25.6100334,10.7045093 L25.4904852,10.8336309 L23.1915339,13.1315339 L30.6165339,20.5555339 L32.9151064,18.2582521 C33.7519442,17.4214144 35.083967,17.381565 35.9679653,18.1387039 L36.0970869,18.2582521 C36.9339247,19.0950899 36.9737741,20.4271128 36.2166352,21.311111 L36.1788587,21.3518549 C36.4050425,21.4592883 36.6170063,21.6065987 36.8041937,21.7937861 C37.6410315,22.6306238 37.6808809,23.9626467 36.9237419,24.8466449 L36.8041937,24.9757666 L33.9757666,27.8041937 C33.0970869,28.6828733 31.6724657,28.6828733 30.7937861,27.8041937 C30.6065987,27.6170063 30.4592883,27.4050425 30.3518549,27.1788587 C29.4706122,27.9748603 28.1087129,27.9475476 27.2582521,27.0970869 C26.4214144,26.2602491 26.381565,24.9282263 27.1387039,24.044228 L27.2582521,23.9151064 L29.5555339,21.6165339 L22.1315339,14.1915339 L19.8336309,16.4904852 C18.9967932,17.327323 17.6647703,17.3671724 16.7807721,16.6100334 L16.6516504,16.4904852 C15.8148127,15.6536474 15.7749632,14.3216246 16.5321022,13.4376263 L16.5708766,13.3973561 C16.3443183,13.2898822 16.1320063,13.142414 15.9445436,12.9549513 C15.1077059,12.1181135 15.0678565,10.7860907 15.8249954,9.90209243 L15.9445436,9.77297077 L18.7729708,6.94454365 Z M35.7435335,22.8544462 C35.477267,22.5881797 35.0606033,22.5639736 34.7669918,22.7818281 L34.6828733,22.8544462 L31.8544462,25.6828733 C31.561553,25.9757666 31.561553,26.4506403 31.8544462,26.7435335 C32.1207128,27.0098001 32.5373765,27.0340061 32.830988,26.8161517 L32.9151064,26.7435335 L35.7435335,23.9151064 C36.0364267,23.6222132 36.0364267,23.1473394 35.7435335,22.8544462 Z M35.0364267,19.3189123 C34.7701602,19.0526458 34.3534965,19.0284397 34.059885,19.2462942 L33.9757666,19.3189123 L28.3189123,24.9757666 C28.0260191,25.2686598 28.0260191,25.7435335 28.3189123,26.0364267 C28.5851789,26.3026933 29.0018426,26.3268994 29.2954541,26.1090449 L29.3795725,26.0364267 L35.0364267,20.3795725 C35.32932,20.0866793 35.32932,19.6118055 35.0364267,19.3189123 Z M11.429825,13.7123106 C11.1635585,13.446044 10.7468948,13.421838 10.4532833,13.6396924 L10.3691649,13.7123106 L4.7123106,19.3691649 C4.41941738,19.6620581 4.41941738,20.1369318 4.7123106,20.429825 C4.97857716,20.6960916 5.39524085,20.7202976 5.68885234,20.5024432 L5.77297077,20.429825 L11.429825,14.7729708 C11.7227182,14.4800776 11.7227182,14.0052038 11.429825,13.7123106 Z M7.89429112,13.0052038 C7.62802455,12.7389373 7.21136087,12.7147312 6.91774938,12.9325857 L6.83363094,13.0052038 L4.00520382,15.8336309 C3.7123106,16.1265242 3.7123106,16.6013979 4.00520382,16.8942911 C4.27147038,17.1605577 4.68813407,17.1847637 4.98174556,16.9669093 L5.06586399,16.8942911 L7.89429112,14.065864 C8.18718434,13.7729708 8.18718434,13.298097 7.89429112,13.0052038 Z M24.429825,8.7123106 C24.1635585,8.44604404 23.7468948,8.42183799 23.4532833,8.63969245 L23.3691649,8.7123106 L17.7123106,14.3691649 C17.4194174,14.6620581 17.4194174,15.1369318 17.7123106,15.429825 C17.9785772,15.6960916 18.3952408,15.7202976 18.6888523,15.5024432 L18.7729708,15.429825 L24.429825,9.77297077 C24.7227182,9.48007755 24.7227182,9.00520382 24.429825,8.7123106 Z M20.8942911,8.00520382 C20.6280246,7.73893726 20.2113609,7.71473121 19.9177494,7.93258567 L19.8336309,8.00520382 L17.0052038,10.8336309 C16.7123106,11.1265242 16.7123106,11.6013979 17.0052038,11.8942911 C17.2714704,12.1605577 17.6881341,12.1847637 17.9817456,11.9669093 L18.065864,11.8942911 L20.8942911,9.06586399 C21.1871843,8.77297077 21.1871843,8.29809704 20.8942911,8.00520382 Z"/>
</svg>
