<svg xmlns="http://www.w3.org/2000/svg" width="40" height="40" viewBox="0 0 40 40">
  <path fill="currentColor" fill-rule="evenodd" d="M27.2387426,2 C27.4366565,2 27.6266453,2.07758392 27.7671556,2.21617217 C27.8799066,2.32738287 27.9534517,2.47056239 27.9786888,2.62438005 L27.9884165,2.74140466 L27.998912,5.82350545 L37.2318955,5.79247188 C37.4362352,5.7831193 37.621726,5.86963068 37.7628789,6.00864405 C37.8756298,6.11985475 37.949175,6.26303428 37.974412,6.41696077 L37.9841397,6.5340891 L38,11.2057037 C38.0013655,11.5823399 37.7203483,11.8944986 37.3545909,11.9450556 L37.2528864,11.9522097 L36.3800518,11.954973 L36.4533057,33.4225489 L37.2348942,33.4199982 C37.4362352,33.4153219 37.6245105,33.4969445 37.7658775,33.6359578 C37.8786285,33.7473386 37.9521737,33.8905521 37.9774107,34.0443766 L37.9871384,34.1614029 L37.9972055,37.137862 C37.9985799,37.5144983 37.7173838,37.8266569 37.3515965,37.8772139 L37.2498877,37.8843681 L2.76510311,38 C2.56461889,38 2.3748443,37.9222035 2.234334,37.7838278 C2.12158304,37.6726171 2.04803789,37.5294376 2.02280087,37.3755111 L2.0130731,37.2583828 L2.00300605,34.2819237 C2.00163165,33.9052874 2.2826478,33.5931287 2.64840511,33.5425718 L2.75010963,33.5354176 L3.61994553,33.5326543 L3.54712007,12.0652909 L2.7681018,12.0678416 C2.56783178,12.0678416 2.377843,11.9900452 2.23754688,11.8516695 C2.12445322,11.7404588 2.05083953,11.5972792 2.0255888,11.4433528 L2.01585761,11.3262244 L2,6.65460987 C1.99882899,6.27797361 2.27986179,5.96581496 2.6454555,5.91525797 L2.74711094,5.9081038 L11.9854493,5.87728279 L11.9749539,2.79496944 C11.9737758,2.41833319 12.2546284,2.10617453 12.6203571,2.05561755 L12.7220575,2.04846338 L27.2387426,2 Z M36.4952874,36.3987955 L36.490361,34.9104597 L3.50492414,35.0209902 L3.50985057,36.5095386 L36.4952874,36.3987955 Z M15.2006935,19.2378709 L5.07088579,19.2378709 L5.1195075,33.5275529 L15.2491011,33.4937561 L15.2006935,19.2378709 Z M34.9055504,19.2378709 L24.7684601,19.2378709 L24.8168676,33.4616597 L34.9539579,33.4276503 L34.9055504,19.2378709 Z M23.2691123,19.2378709 L16.7000413,19.2378709 L16.7478063,33.2788593 L23.316663,33.2567532 L23.2691123,19.2378709 Z M32.0386689,24.9024533 C32.2607866,24.5555575 32.7242992,24.4531042 33.0734331,24.6735276 C33.3912169,24.8737192 33.5054293,25.271889 33.3566886,25.603257 L33.3041184,25.7003985 L30.5341805,30.0272429 C30.3913141,30.2504295 30.148634,30.3724382 29.9008132,30.3724382 C29.7630874,30.3724382 29.6240764,30.3350279 29.4994164,30.2561686 C29.1816325,30.055977 29.0672431,29.6578072 29.2159516,29.3264392 L29.2685168,29.2292977 L32.0386689,24.9024533 Z M12.2213396,21.7794137 C12.4432431,21.4325179 12.9065415,21.3298521 13.2561037,21.550488 C13.5736929,21.7508729 13.6878876,22.1488846 13.5393062,22.4802222 L13.4867891,22.577359 L8.76748489,29.9491064 C8.62483266,30.1720804 8.38193832,30.2940891 8.13411755,30.2940891 C7.99639175,30.2940891 7.85738079,30.2566788 7.73272073,30.1780321 C7.41513162,29.9776472 7.30075988,29.5796355 7.44947001,29.2482979 L7.50203537,29.1511611 L12.2213396,21.7794137 Z M31.0701759,21.566855 C31.2922936,21.2199593 31.7558063,21.1177185 32.1049401,21.3379293 C32.4227239,21.5383142 32.5369364,21.9363259 32.3881956,22.2676635 L32.3356255,22.3648003 L27.6165354,29.7365477 C27.473669,29.9595217 27.2309889,30.0815304 26.9831681,30.0815304 C26.8454423,30.0815304 26.7064313,30.0441201 26.5817713,29.9654734 C26.2639874,29.7650885 26.149775,29.3670768 26.2985157,29.0357392 L26.3510859,28.9386024 L31.0701759,21.566855 Z M18.6041487,24.9768701 C18.9836801,24.9768701 19.2973383,25.2567493 19.346979,25.6198749 L19.3538226,25.7208254 L19.3538226,28.9092056 C19.3538226,29.3200815 19.0181829,29.6531609 18.6041487,29.6531609 C18.2246174,29.6531609 17.9109592,29.3732817 17.8613185,29.010156 L17.8544749,28.9092056 L17.8544749,25.7208254 C17.8544749,25.3099495 18.1901146,24.9768701 18.6041487,24.9768701 Z M9.11996013,22.1392968 C9.3418636,21.7926136 9.80494787,21.6895226 10.1547243,21.9101585 C10.4723134,22.1103502 10.5866851,22.5086957 10.437975,22.8399359 L10.3854097,22.9370295 L7.61547174,27.2640864 C7.47281951,27.4870605 7.22992517,27.6090692 6.9821044,27.6090692 C6.84459279,27.6090692 6.70536764,27.5716588 6.58070758,27.4930121 C6.26311846,27.2928205 6.14874673,26.8946507 6.29745686,26.5632827 L6.35002222,26.4661412 L9.11996013,22.1392968 Z M12.006226,12.0376583 L5.04646784,12.0608272 L5.06574517,17.7499601 L15.1957671,17.7499601 L15.1842007,14.3656009 L12.763825,14.3736782 C12.563555,14.3736782 12.3735662,14.2960942 12.2332701,14.1577185 C12.1201764,14.0463378 12.0465628,13.9031243 12.021312,13.7492998 L12.0115808,13.6322735 L12.006226,12.0376583 Z M23.2524053,14.3415818 L16.6835485,14.3636879 L16.6951149,17.7499601 L23.2641859,17.7499601 L23.2524053,14.3415818 Z M34.880704,11.9609246 L28.0199028,11.9840935 L28.0252576,13.5787087 C28.026632,13.955345 27.7454359,14.2675036 27.3798136,14.3180606 L27.2781541,14.3252148 L24.7517531,14.3335046 L24.7635337,17.7499601 L34.900624,17.7499601 L34.880704,11.9609246 Z M26.4916391,3.49046143 L13.4766578,3.53403596 L13.5085725,12.8834293 L26.5233396,12.8398548 L26.4916391,3.49046143 Z M11.9903758,7.36519352 L3.50192544,7.39346382 L3.51284926,10.5773802 L12.0012996,10.5488974 L11.9903758,7.36519352 Z M36.4873623,7.28293331 L28.0038384,7.31141617 L28.0147622,10.49512 L36.4982861,10.4666371 L36.4873623,7.28293331 Z M22.356288,6.16551235 C22.7099198,6.16551235 23.0046488,6.40952971 23.0836858,6.73665751 C23.1869266,6.68330529 23.3025906,6.65014613 23.4272507,6.65014613 C23.806782,6.65014613 24.1204402,6.93002539 24.1700809,7.29315101 L24.1769245,7.3941015 L24.1769245,9.07203968 C24.1769245,9.4829156 23.8412848,9.81599504 23.4272507,9.81599504 C23.3025906,9.81599504 23.1869266,9.78304845 23.0836858,9.72948366 C23.0046488,10.056824 22.7099198,10.3008414 22.356288,10.3008414 C21.9767566,10.3008414 21.6630984,10.0209621 21.6134577,9.6578365 L21.6066141,9.55688602 L21.6066141,8.95343194 L21.5535479,8.96057922 L21.5535479,8.96057922 L21.4995178,8.96405987 L18.393726,8.96405987 L18.393726,9.60088566 C18.393726,10.0117616 18.0580863,10.344841 17.6440521,10.344841 C17.2760693,10.344841 16.9714875,10.0814808 16.9078723,9.73437251 C16.8067735,9.78496147 16.6941082,9.81599504 16.5730894,9.81599504 C16.1935581,9.81599504 15.8798999,9.53611579 15.8302591,9.17299016 L15.8234155,9.07203968 L15.8234155,7.3941015 C15.8234155,6.98322558 16.1590552,6.65014613 16.5730894,6.65014613 C16.7024617,6.65014613 16.8224095,6.68564343 16.928649,6.74303428 C17.0205376,6.43546187 17.3043427,6.209512 17.6440521,6.209512 C18.0235834,6.209512 18.3372416,6.48939126 18.3868824,6.85251688 L18.393726,6.95346736 L18.393726,7.47614915 L21.4995178,7.47614915 L21.5535479,7.47962979 L21.5535479,7.47962979 L21.6066141,7.48677708 L21.6066141,6.90946772 C21.6066141,6.4985918 21.9422538,6.16551235 22.356288,6.16551235 Z"/>
</svg>
