<svg xmlns="http://www.w3.org/2000/svg" width="40" height="40" viewBox="0 0 40 40">
  <path fill="currentColor" fill-rule="evenodd" d="M34.4384472,14.125 C35.697726,14.125 36.8027523,14.9430868 37.1788929,16.1306006 L37.2276069,16.3027101 L38.8488747,22.7877813 L38.875,23 L38.875,27.375 L29.125,27.375 L29.125,23.875 L10.875,23.875 L10.875,27.375 L1.125,27.375 L1.125,23 L1.15112531,22.7877813 L2.77239312,16.3027101 C3.0778131,15.0810302 4.13948215,14.2074124 5.38276723,14.1305168 L5.56155281,14.125 L34.4384472,14.125 Z M9.125,23.875 L2.875,23.875 L2.875,25.625 L9.125,25.625 L9.125,23.875 Z M37.125,23.875 L30.875,23.875 L30.875,25.625 L37.125,25.625 L37.125,23.875 Z M36.879,22.125 L35.5298575,16.7271474 C35.4255215,16.3098034 35.0956453,15.9962637 34.6898429,15.9033434 L34.565974,15.8822027 L34.4384472,15.875 L5.56155281,15.875 C5.08834556,15.875 4.67080259,16.1702186 4.50805989,16.6051751 L4.4701425,16.7271474 L3.12,22.125 L36.879,22.125 Z"/>
</svg>
