<svg xmlns="http://www.w3.org/2000/svg" width="40" height="40" viewBox="0 0 40 40">
  <path fill="currentColor" fill-rule="evenodd" d="M36.507782,13.4668806 C36.5800755,13.5702514 36.6442301,13.6758209 36.7004902,13.7833568 C36.7376095,13.825465 36.7704118,13.8727465 36.7979961,13.9245899 C38.5295161,17.1789016 38.6914436,23.2716292 37.4893249,24.8244802 L37.1386563,25.2734215 C36.987801,25.4618979 36.9016933,25.5567306 36.7268758,25.740709 C36.3233006,26.165433 35.8604351,26.5562433 35.3015493,26.923078 C33.6350347,28.0169249 31.2727776,28.7915223 27.9762387,29.1705466 C26.8166935,29.3038669 25.6019382,29.2834592 24.3197993,29.1240292 C22.0485099,28.8416015 19.8368661,28.2005517 16.6904306,27.040161 L13.6142717,25.9098837 L13.4076245,25.8351033 C10.9182925,27.9032274 4.78224778,28.628711 2.97932473,26.1956981 L2.85916581,26.0188955 L2.85916581,26.0188955 L2.81713773,25.9476988 L2.81713773,25.9476988 C1.85261146,24.0864742 1.59574557,21.8793344 2.03073168,19.3479242 C2.06048881,19.174752 2.15010306,19.0175247 2.28393929,18.9036741 C3.55094676,17.8258671 5.66034071,17.295118 8.62226141,17.2527601 L9.01343447,17.25 C10.2243139,17.25 11.1683692,17.390067 13.1312147,17.9448582 L13.324,18 L14.0101373,17.653002 C17.0749459,16.1070983 19.8877415,14.7778942 22.4489873,13.6653132 L23.0840584,13.3916809 C28.2677339,11.1767572 34.7020025,10.8848406 36.507782,13.4668806 Z M36.3611274,17.2061043 L36.2729756,17.3534177 C34.764904,19.7825388 31.1507999,22.0777688 27.2833239,22.4794319 C25.466611,22.6681097 23.4482413,22.4364049 20.9858363,21.8354868 C20.8783185,21.8322539 20.7726328,21.8060292 20.6763351,21.7588622 C20.4453824,21.7002736 20.2089963,21.6383798 19.9684881,21.5733522 L19.1880144,21.3560356 L18.3605951,21.1130978 C17.9746796,20.9972638 17.5593715,20.8695023 17.0940274,20.7240318 L15.0622457,20.0887501 L13.5239786,19.621504 C11.3318985,18.9726138 10.3423495,18.7777706 9.2683258,18.7528619 L9.01343447,18.75 C6.41597652,18.75 4.58697735,19.1287155 3.53520647,19.8354107 L3.464,19.886 L3.44778614,19.9912263 C3.20027991,21.725097 3.33002982,23.2394328 3.82159589,24.5312055 C5.41961033,23.6882486 7.34028967,23.3166334 9.57309861,23.4049279 L10.5734608,23.465433 L10.8167465,23.4896644 C11.5099836,23.5726592 12.191368,23.7902368 14.7133201,24.7137952 L17.2094523,25.6328173 C20.25613,26.7564177 22.3754264,27.3707004 24.504894,27.6354931 C25.6741071,27.780881 26.770467,27.7992997 27.8049028,27.680364 C30.8821089,27.3265578 33.0225269,26.6247027 34.4784613,25.669074 C35.2883804,25.1374691 35.6213845,24.7870144 36.3032066,23.9062627 C36.8919909,23.1456937 36.9646227,19.9441253 36.3611274,17.2061043 Z M4.98740531,25.6323175 L4.7025342,25.7648825 C6.18738661,26.6104573 9.62370079,26.236641 11.6170517,25.2184021 C10.8157214,24.9721522 10.5283837,24.9638364 9.89144039,24.9232863 C8.10560064,24.8095934 6.5715387,25.0075741 5.28092217,25.5107782 L4.98740531,25.6323175 Z M28.0513461,19.2492241 C26.7613656,19.532335 24.9150831,20.1677175 23.3826717,20.8023938 C24.7916569,21.0377921 26.0177999,21.1027971 27.1283723,20.9874567 C29.1777382,20.7746164 31.1141475,19.9594134 32.6091118,18.9378673 C30.9504454,18.8417069 29.4317329,18.9462718 28.0513461,19.2492241 Z M23.6734417,14.7710385 C21.597548,15.6580436 19.3454488,16.6954456 16.9174122,17.8832005 L15.412,18.627 L18.1927308,19.4943156 L18.9734916,19.7306935 C19.4665556,19.8773555 19.9127296,20.0044161 20.359994,20.1253456 L20.933728,20.2763084 L20.933728,20.2763084 C22.622328,19.3979987 25.7441274,18.2198871 27.7297954,17.7840943 C29.6737748,17.3574509 31.8394664,17.2899937 34.2257322,17.5775292 C35.3644737,16.3822091 35.8468248,15.1390874 35.2785655,14.3265473 C34.0352869,12.5488136 28.2611081,12.8107825 23.6734417,14.7710385 Z"/>
</svg>
