<svg xmlns="http://www.w3.org/2000/svg" width="40" height="40" viewBox="0 0 40 40">
  <path fill="currentColor" fill-rule="evenodd" d="M33.9299991,9.25 C36.6196258,9.25 38.799999,11.4303732 38.799999,14.1199999 C38.799999,16.8096266 36.6196258,18.9899998 33.9299991,18.9899998 C32.9328275,18.9899998 32.0056546,18.6902998 31.2336414,18.1760611 L28.1663274,22.8253409 C27.8668496,23.2792001 27.3783457,23.5687357 26.8426133,23.6176277 L26.6806185,23.6249996 L25.924,23.624 L25.924,28.304 L28.2649993,28.3049995 C28.6792128,28.3049995 29.0149993,28.6407859 29.0149993,29.0549995 C29.0149993,29.4346952 28.7328454,29.7484904 28.3667698,29.7981529 L28.2649993,29.8049995 L22.0849994,29.8049995 C21.6707859,29.8049995 21.3349994,29.469213 21.3349994,29.0549995 C21.3349994,28.6753037 21.6171533,28.3615085 21.9832289,28.3118461 L22.0849994,28.3049995 L24.424,28.304 L24.424,23.624 L7.384,23.624 L7.384,28.304 L9.72499979,28.3049995 C10.1392133,28.3049995 10.4749998,28.6407859 10.4749998,29.0549995 C10.4749998,29.4346952 10.1928459,29.7484904 9.82677034,29.7981529 L9.72499979,29.8049995 L3.54499996,29.8049995 C3.13078639,29.8049995 2.79499996,29.469213 2.79499996,29.0549995 C2.79499996,28.6753037 3.07715384,28.3615085 3.4432294,28.3118461 L3.54499996,28.3049995 L5.884,28.304 L5.884,23.624 L3.02999997,23.6249996 C2.09608647,23.6249996 1.33015865,22.9057675 1.25590065,21.9909873 L1.25,21.8449997 L1.25,19.7849997 C1.25,18.8510862 1.96923215,18.0851584 2.8840123,18.0109004 L3.02999997,18.0049998 L10.8449918,18.0049998 C11.4488879,18.0049998 12.0078576,18.3107906 12.3346663,18.8106593 L12.4114234,18.9396052 L14.13,22.124 L26.6806185,22.1249996 C26.7511851,22.1249996 26.8182134,22.0984181 26.8691786,22.0519963 L26.9143255,21.9992106 L30.1147774,17.1470185 C29.6016114,16.5010952 29.2490162,15.7218664 29.1173471,14.8696875 L23.2249327,14.8695896 C22.9692626,15.62324 22.3371511,16.2916344 21.4730592,16.87552 C21.0816753,17.1399866 20.659708,17.3704844 20.2882862,17.5318375 C20.1160703,17.6066515 19.9606746,17.6638181 19.8323441,17.6981056 C19.736097,17.723821 19.6492276,17.7394519 19.5533408,17.7411068 C19.4970736,17.7415931 19.4676003,17.7418478 19.4276044,17.7344092 L19.3550542,17.7165488 L19.207753,17.6720041 L19.0430211,17.5632419 C18.9337637,17.4846893 18.8864902,17.4239119 18.8407214,17.2876754 L18.8129568,17.1961326 L18.755463,16.9747584 L18.7598096,11.2754051 L19.025579,10.8397146 C19.198019,10.5687638 19.2678032,10.508188 19.3844103,10.5084614 L19.4209466,10.5102193 L19.5128695,10.5221084 L19.6457042,10.5316503 L19.6457042,10.5316503 L19.7014669,10.5422679 L19.7893189,10.5645322 L19.8847868,10.5948277 C19.9995269,10.6339747 20.143025,10.6914946 20.2986605,10.7610413 C20.6774515,10.9303063 21.0864502,11.1504234 21.4669613,11.4006036 C22.3373882,11.9728962 22.9685576,12.6231314 23.2242895,13.3692789 L29.1175018,13.3693121 C29.4785001,11.0361043 31.4956661,9.25 33.9299991,9.25 Z M10.8449918,19.5049998 L3.02999997,19.5049998 C2.89745164,19.5049998 2.78641476,19.5971012 2.757395,19.7207983 L2.75,19.7849997 L2.75,21.8449997 C2.75,21.977548 2.84210141,22.0885849 2.96579855,22.1176046 L3.02999997,22.1249996 L12.425,22.124 L11.0913967,19.6520163 C11.0620707,19.5976782 11.0162781,19.5556198 10.9621074,19.5306673 L10.9054436,19.5115954 L10.8449918,19.5049998 Z M33.9299991,10.75 C32.0687996,10.75 30.5599992,12.2588003 30.5599992,14.1199999 C30.5599992,15.9811994 32.0687996,17.4899998 33.9299991,17.4899998 C35.7911987,17.4899998 37.299999,15.9811994 37.299999,14.1199999 C37.299999,12.2588003 35.7911987,10.75 33.9299991,10.75 Z M20.258,12.421 L20.256,15.867 L20.4422305,15.756583 L20.6332338,15.6326631 C21.40034,15.1143128 21.8499994,14.5537942 21.8499994,14.1199999 C21.8499994,13.7264454 21.4763896,13.2408931 20.8143615,12.7710392 L20.642895,12.6539651 L20.4061184,12.505609 L20.258,12.421 Z"/>
</svg>
