<svg xmlns="http://www.w3.org/2000/svg" width="40" height="40" viewBox="0 0 40 40">
  <path fill="currentColor" fill-rule="evenodd" d="M35.3863636,5 C36.5550924,5 37.5,5.95278179 37.5,7.125 L37.5,7.125 L37.5,16.75 C37.5,16.7883922 37.4971153,16.8261107 37.4915508,16.8629505 C37.4897462,16.8745181 37.4876905,16.8862278 37.4853557,16.8978927 C37.480412,16.9228958 37.4742388,16.9471921 37.4669138,16.9709837 C37.4632873,16.9826435 37.4592554,16.9946929 37.4549093,17.006654 C37.446425,17.0299516 37.4371231,17.0520202 37.4268269,17.0735218 C37.4218353,17.0840719 37.4160918,17.095379 37.4100433,17.1065648 C37.3962986,17.1317792 37.3816571,17.1554824 37.3657838,17.1782634 C37.3618625,17.1840051 37.3574572,17.1901347 37.3529482,17.1962117 C37.3471451,17.2038569 37.3454427,17.2060847 37.3437281,17.2083026 L37.2803301,17.2803301 L31.56,23 L36.3214286,23 C37.4663025,23 38.4142315,23.8644712 38.4944959,24.9724596 L38.5,25.125 L38.5,33.375 C38.5,34.5551544 37.5183422,35.5 36.3214286,35.5 L36.3214286,35.5 L19.1785714,35.5 C17.9816578,35.5 17,34.5551544 17,33.375 L17,33.375 L17,23.75 C17,23.7116078 17.0028847,23.6738893 17.0084492,23.6370495 C17.0102538,23.6254819 17.0123095,23.6137722 17.0146443,23.6021073 C17.019588,23.5771042 17.0257612,23.5528079 17.0330862,23.5290163 C17.0367127,23.5173565 17.0407446,23.5053071 17.0450907,23.493346 C17.053575,23.4700484 17.0628769,23.4479798 17.0731731,23.4264782 C17.0786653,23.4148771 17.0849683,23.4025401 17.091635,23.390349 C17.1066147,23.363153 17.1228174,23.3374705 17.1404691,23.312899 C17.1423342,23.3101997 17.1446786,23.3069867 17.1470518,23.3037883 C17.1721712,23.2705706 17.1950701,23.2442698 17.2196699,23.2196699 L22.938,17.5 L8.11363636,17.5 C6.99572186,17.5 6.08258898,16.6282677 6.00529938,15.5265933 L6.00399751,15.4929991 C3.77126897,15.3655744 2,13.5146382 2,11.25 C2,8.98502339 3.77179837,7.13387246 6.00499846,7.00694387 C6.03193721,6.48774656 6.24938101,5.99515841 6.6168738,5.62460318 C7.01326752,5.22490617 7.55175169,5 8.11363636,5 L8.11363636,5 Z M36.3214286,24.5 L18.5,24.5 L18.5,33.375 C18.5,33.7136287 18.7975287,34 19.1785714,34 L19.1785714,34 L36.3214286,34 C36.7024713,34 37,33.7136287 37,33.375 L37,33.375 L37,25.125 C37,24.7863713 36.7024713,24.5 36.3214286,24.5 L36.3214286,24.5 Z M34.938,17.5 L25.06,17.5 L19.56,23 L29.438,23 L34.938,17.5 Z M10,6.5 L8.11363636,6.5 C7.95220334,6.5 7.79699502,6.56482514 7.68192589,6.68085318 C7.56566455,6.79808336 7.5,6.95793267 7.5,7.125 L7.5,7.125 L7.5,15.375 C7.5,15.7215649 7.77613403,16 8.11363636,16 L8.11363636,16 L10,16 L10,6.5 Z M35.3863636,6.5 L11.5,6.5 L11.5,16 L36,16 L36,7.125 C36,6.80994104 35.7717901,6.55118763 35.4767268,6.50674535 L35.4767268,6.50674535 L35.3863636,6.5 Z M6,8.512 L5.91760979,8.51988341 C4.55557008,8.68398038 3.5,9.84371939 3.5,11.25 C3.5,12.6562806 4.55557008,13.8160196 5.91760979,13.9801166 L5.91760979,13.9801166 L6,13.987 L6,8.512 Z"/>
</svg>
