<svg xmlns="http://www.w3.org/2000/svg" width="40" height="40" viewBox="0 0 40 40">
  <path fill="currentColor" fill-rule="evenodd" d="M38.0389508,2.21966991 C38.3052173,2.48593648 38.3294234,2.90260016 38.1115689,3.19621165 L38.0389508,3.28033009 L32.542,8.776 L32.5431034,21.7155172 L32.542,21.714 L32.5423489,24.8561353 C32.5423489,25.1213518 32.436992,25.3757057 32.2494557,25.5632421 L25.5632421,32.2494557 C25.3757057,32.436992 25.1213518,32.5423489 24.8561353,32.5423489 L8.776,32.542 L3.28033009,38.0389508 C2.98743687,38.331844 2.51256313,38.331844 2.21966991,38.0389508 C1.95340335,37.7726842 1.9291973,37.3560205 2.14705176,37.062409 L2.21966991,36.9782906 L7.715,31.481 L7.71534888,15.4015624 C7.71534888,15.136346 7.82070572,14.881992 8.0082421,14.6944557 L14.6944557,8.0082421 C14.881992,7.82070572 15.136346,7.71534888 15.4015624,7.71534888 L31.481,7.715 L36.9782906,2.21966991 C37.2711838,1.9267767 37.7460576,1.9267767 38.0389508,2.21966991 Z M9.215,26.77 L9.21531034,31.0423103 L13.487,31.042 L9.215,26.77 Z M9.21531034,22.1643103 L9.21531034,24.6493103 L15.6083103,31.0423103 L18.0933103,31.0423103 L9.21531034,22.1643103 Z M20.043,9.215 L15.6073103,9.21531034 L9.21531034,15.6073103 L9.215,20.042 L20.215,31.042 L24.6483103,31.0423103 L31.0423103,24.6483103 L31.042,20.214 L20.043,9.215 Z M24.6493103,9.21531034 L22.1638966,9.21572414 L31.042,18.094 L31.0423103,15.6083103 L24.6493103,9.21531034 Z M31.0428966,9.21572414 L26.77,9.215 L31.042,13.487 L31.0428966,9.21572414 Z"/>
</svg>
