<svg xmlns="http://www.w3.org/2000/svg" width="40" height="40" viewBox="0 0 40 40">
  <path fill="currentColor" fill-rule="evenodd" d="M21.9728037,7.73824338 C24.3422187,9.61485144 24.3413484,13.3977536 22.9600216,15.0670465 L22.5620038,15.5193693 L21.5180656,16.6581765 C20.9025271,17.3235711 20.0981502,18.1866057 19.1034018,19.2489637 L36.9924295,19.25 C37.5769366,19.25 37.9230853,19.8803608 37.647542,20.3660183 L37.5884986,20.4551941 L29.3662472,31.2220938 C29.2480096,31.376924 29.0752428,31.4784302 28.8856508,31.5079647 L28.7701781,31.5168997 L26.5933721,31.5168997 C26.1791585,31.5168997 25.8433721,31.1811133 25.8433721,30.7668997 C25.8433721,30.3872039 26.1255259,30.0734087 26.4916015,30.0237463 L26.5933721,30.0168997 L28.399,30.016 L35.475,20.75 L17.7107692,20.75 L17.6970926,20.7485954 L14.3003311,24.358679 L14.3003311,24.358679 C13.393234,25.4130216 12.0857534,26.1152145 10.7215866,26.1152145 C8.31766532,26.1152145 6.38416861,24.4126467 6.38416861,22.3201615 C6.38416861,21.2091176 6.86616525,20.146734 7.60133924,19.4289787 L7.76760513,19.2768112 L10.2130472,16.8079111 C9.92428774,16.7697589 9.61906386,16.75 9.29734222,16.75 C5.93682113,16.75 3.75,19.6801985 3.75,23.34745 C3.75,26.8315769 6.83397701,29.8338894 11.46605,29.9525882 L11.7515675,29.9562321 L23.9002693,29.9562321 C24.3144829,29.9562321 24.6502693,30.2920185 24.6502693,30.7062321 C24.6502693,31.0859278 24.3681155,31.399723 24.0020399,31.4493855 L23.9002693,31.4562321 L11.7515675,31.4562321 C6.14912239,31.4562321 2.25,27.7484602 2.25,23.34745 C2.25,20.945281 3.06282856,18.7606009 4.49625138,17.2675308 L4.52357058,17.2329471 L4.52357058,17.2329471 L7.92098973,13.6873272 L9.28369674,12.2788199 C12.5433104,8.92223613 14.3459108,7.16801036 14.8414178,6.87785034 C16.5492428,5.87777875 19.706103,5.94298637 21.9728037,7.73824338 Z M11.5861162,21.0449973 L11.5411602,21.0334756 L11.5411602,21.0334756 C11.4503268,21.0068979 11.3641808,20.9632373 11.2879489,20.903245 L11.2105004,20.8328341 L11.2105004,20.8328341 L11.1467763,20.7570028 L11.1467763,20.7570028 C10.77783,20.253924 10.3106816,20.0188992 9.67533489,20.0188992 C8.80455077,20.0188992 7.88416861,21.1178297 7.88416861,22.3201615 C7.88416861,23.5387563 9.10663294,24.6152145 10.7215866,24.6152145 C12.3873876,24.6152145 14.0340571,22.9327048 14.0340571,21.1947849 C14.0340571,20.5661779 13.9371177,19.9754 13.7427506,19.4424961 L12.2709387,20.8545299 L12.1951074,20.918254 L12.1951074,20.918254 L12.1463727,20.9511814 L12.1463727,20.9511814 L12.0651327,20.9949931 L12.0651327,20.9949931 L11.9812028,21.027668 L11.9812028,21.027668 L11.8667663,21.0546278 L11.8667663,21.0546278 C11.7731485,21.0692013 11.6778088,21.0656949 11.5861162,21.0449973 Z M15.5993951,8.17225002 L15.5344201,8.2158672 L15.4408441,8.28872277 C14.7327566,8.86536148 12.3427499,11.2578968 8.45308243,15.2982062 C8.72610261,15.2666427 9.00821234,15.25 9.29734222,15.25 C13.2295623,15.25 15.3845653,17.7199285 15.5265558,20.8607418 L19.5670204,16.555135 C20.8500275,15.1773259 21.5982472,14.3598609 21.8043767,14.1107594 C22.6892468,13.0414199 22.689896,10.2196662 21.0414988,8.91411376 C19.2843037,7.52239199 16.7969001,7.47101255 15.5993951,8.17225002 Z M11.8414182,17.2923755 L11.8128507,17.3247382 L10.5308565,18.6189223 C10.99437,18.7329803 11.4121703,18.9439476 11.7773185,19.2485503 L12.9500714,18.1250177 C12.706131,17.859783 12.420886,17.6268162 12.0942026,17.4316122 L11.8414182,17.2923755 Z"/>
</svg>
